0
SECTION
2
ENTITIES
0
LINE
8
0
10
758.4
20
400.0
30
0.0
11
426.49542
21
419.707
31
0.0
0
LINE
8
0
10
426.49542
20
419.707
30
0.0
11
787.59766
21
356.82758
31
0.0
0
LINE
8
0
10
787.59766
20
356.82758
30
0.0
11
399.88477
21
470.62888
31
0.0
0
LINE
8
0
10
399.88477
20
470.62888
30
0.0
11
810.4105
21
297.73932
31
0.0
0
LINE
8
0
10
810.4105
20
297.73932
30
0.0
11
382.24777
21
538.18964
31
0.0
0
LINE
8
0
10
382.24777
20
538.18964
30
0.0
11
821.3236
21
221.54149
31
0.0
0
LINE
8
0
10
821.3236
20
221.54149
30
0.0
11
379.77402
21
623.0112
31
0.0
0
LINE
8
0
10
379.77402
20
623.0112
30
0.0
11
813.4808
21
128.32425
31
0.0
0
LINE
8
0
10
813.4808
20
128.32425
30
0.0
11
399.96213
21
724.14166
31
0.0
0
LINE
8
0
10
399.96213
20
724.14166
30
0.0
11
778.7857
21
20.06189
31
0.0
0
LINE
8
0
10
679.2
20
537.17847
30
0.0
11
496.18097
21
259.59412
31
0.0
0
LINE
8
0
10
496.18097
20
259.59412
30
0.0
11
731.1872
21
540.8782
31
0.0
0
LINE
8
0
10
731.1872
20
540.8782
30
0.0
11
438.7761
21
262.00946
31
0.0
0
LINE
8
0
10
438.7761
20
262.00946
30
0.0
11
793.7656
21
531.0905
31
0.0
0
LINE
8
0
10
793.7656
20
531.0905
30
0.0
11
371.44812
21
280.5159
31
0.0
0
LINE
8
0
10
371.44812
20
280.5159
30
0.0
11
865.2112
21
502.44308
31
0.0
0
LINE
8
0
10
865.2112
20
502.44308
30
0.0
11
296.7536
21
320.78436
31
0.0
0
LINE
8
0
10
296.7536
20
320.78436
30
0.0
11
942.01855
21
449.0418
31
0.0
0
LINE
8
0
10
942.01855
20
449.0418
30
0.0
11
219.26614
21
388.833
31
0.0
0
LINE
8
0
10
219.26614
20
388.833
30
0.0
11
1018.4289
21
364.86383
31
0.0
0
LINE
8
0
10
520.8
20
537.17847
30
0.0
11
669.6856
21
239.88716
31
0.0
0
LINE
8
0
10
669.6856
20
239.88716
30
0.0
11
543.5895
21
584.05054
31
0.0
0
LINE
8
0
10
543.5895
20
584.05054
30
0.0
11
638.89154
21
191.38075
31
0.0
0
LINE
8
0
10
638.89154
20
191.38075
30
0.0
11
583.35474
21
633.3512
31
0.0
0
LINE
8
0
10
583.35474
20
633.3512
30
0.0
11
589.20074
21
142.3262
31
0.0
0
LINE
8
0
10
589.20074
20
142.3262
30
0.0
11
643.88684
21
680.90125
31
0.0
0
LINE
8
0
10
643.88684
20
680.90125
30
0.0
11
516.98065
21
97.77283
31
0.0
0
LINE
8
0
10
516.98065
20
97.77283
30
0.0
11
728.5366
21
720.71814
31
0.0
0
LINE
8
0
10
728.5366
20
720.71814
30
0.0
11
419.30453
21
64.69101
31
0.0
0
LINE
8
0
10
419.30453
20
64.69101
30
0.0
11
839.642
21
744.80286
31
0.0
0
LINE
8
0
10
441.59998
20
400.0
30
0.0
11
773.5046
21
380.29306
31
0.0
0
LINE
8
0
10
773.5046
20
380.29306
30
0.0
11
412.40228
21
443.17236
31
0.0
0
LINE
8
0
10
412.40228
20
443.17236
30
0.0
11
800.1153
21
329.37137
31
0.0
0
LINE
8
0
10
800.1153
20
329.37137
30
0.0
11
389.58932
21
502.26038
31
0.0
0
LINE
8
0
10
389.58932
20
502.26038
30
0.0
11
817.7524
21
261.81067
31
0.0
0
LINE
8
0
10
817.7524
20
261.81067
30
0.0
11
378.6758
21
578.45776
31
0.0
0
LINE
8
0
10
378.6758
20
578.45776
30
0.0
11
820.2267
21
176.9895
31
0.0
0
LINE
8
0
10
820.2267
20
176.9895
30
0.0
11
386.51834
21
671.67505
31
0.0
0
LINE
8
0
10
386.51834
20
671.67505
30
0.0
11
800.03894
21
75.85898
31
0.0
0
LINE
8
0
10
800.03894
20
75.85898
30
0.0
11
421.2138
21
779.93787
31
0.0
0
LINE
8
0
10
520.8
20
262.82156
30
0.0
11
703.81903
21
540.4059
31
0.0
0
LINE
8
0
10
703.81903
20
540.4059
30
0.0
11
468.8129
21
259.1217
31
0.0
0
LINE
8
0
10
468.8129
20
259.1217
30
0.0
11
761.2239
21
537.9906
31
0.0
0
LINE
8
0
10
761.2239
20
537.9906
30
0.0
11
406.23453
21
268.90924
31
0.0
0
LINE
8
0
10
406.23453
20
268.90924
30
0.0
11
828.5517
21
519.4844
31
0.0
0
LINE
8
0
10
828.5517
20
519.4844
30
0.0
11
334.78888
21
297.55658
31
0.0
0
LINE
8
0
10
334.78888
20
297.55658
30
0.0
11
903.2461
21
479.2166
31
0.0
0
LINE
8
0
10
903.2461
20
479.2166
30
0.0
11
257.98166
21
350.9571
31
0.0
0
LINE
8
0
10
257.98166
20
350.9571
30
0.0
11
980.7338
21
411.16818
31
0.0
0
LINE
8
0
10
980.7338
20
411.16818
30
0.0
11
181.57101
21
435.13483
31
0.0
0
LINE
8
0
10
679.2
20
262.82156
30
0.0
11
530.3144
21
560.11285
31
0.0
0
LINE
8
0
10
530.3144
20
560.11285
30
0.0
11
656.4106
21
215.94948
31
0.0
0
LINE
8
0
10
656.4106
20
215.94948
30
0.0
11
561.1084
21
608.61926
31
0.0
0
LINE
8
0
10
561.1084
20
608.61926
30
0.0
11
616.64514
21
166.6488
31
0.0
0
LINE
8
0
10
616.64514
20
166.6488
30
0.0
11
610.7994
21
657.67377
31
0.0
0
LINE
8
0
10
610.7994
20
657.67377
30
0.0
11
556.113
21
119.098724
31
0.0
0
LINE
8
0
10
556.113
20
119.098724
30
0.0
11
683.01953
21
702.2272
31
0.0
0
LINE
8
0
10
683.01953
20
702.2272
30
0.0
11
471.46317
21
79.28198
31
0.0
0
LINE
8
0
10
471.46317
20
79.28198
30
0.0
11
780.6957
21
735.30884
31
0.0
0
LINE
8
0
10
780.6957
20
735.30884
30
0.0
11
360.35712
21
55.197784
31
0.0
0
ENDSEC
0
EOF
