0
SECTION
2
ENTITIES
0
LINE
8
0
10
643.8183
20
461.11462
30
0.0
11
521.4957
21
381.41342
31
0.0
0
LINE
8
0
10
521.4957
20
381.41342
30
0.0
11
676.61475
21
359.74228
31
0.0
0
LINE
8
0
10
676.61475
20
359.74228
30
0.0
11
566.3633
21
486.54126
31
0.0
0
LINE
8
0
10
566.3633
20
486.54126
30
0.0
11
566.2592
21
306.28098
31
0.0
0
LINE
8
0
10
566.2592
20
306.28098
30
0.0
11
693.31604
21
452.06726
31
0.0
0
LINE
8
0
10
693.31604
20
452.06726
30
0.0
11
487.8169
21
423.59958
31
0.0
0
LINE
8
0
10
487.8169
20
423.59958
30
0.0
11
674.1509
21
301.8839
31
0.0
0
LINE
8
0
10
674.1509
20
301.8839
30
0.0
11
609.11145
21
531.6225
31
0.0
0
LINE
8
0
10
609.11145
20
531.6225
30
0.0
11
499.9143
21
299.91434
31
0.0
0
LINE
8
0
10
499.9143
20
299.91434
30
0.0
11
751.4843
21
410.4863
31
0.0
0
LINE
8
0
10
751.4843
20
410.4863
30
0.0
11
470.03833
21
498.21814
31
0.0
0
LINE
8
0
10
470.03833
20
498.21814
30
0.0
11
635.97626
21
228.98262
31
0.0
0
LINE
8
0
10
635.97626
20
228.98262
30
0.0
11
691.35144
21
563.7218
31
0.0
0
LINE
8
0
10
691.35144
20
563.7218
30
0.0
11
410.75867
21
331.86957
31
0.0
0
LINE
8
0
10
410.75867
20
331.86957
30
0.0
11
801.11664
21
321.82944
31
0.0
0
LINE
8
0
10
801.11664
20
321.82944
30
0.0
11
492.32672
21
604.91626
31
0.0
0
LINE
8
0
10
492.32672
20
604.91626
30
0.0
11
542.78467
21
158.34637
31
0.0
0
LINE
8
0
10
542.78467
20
158.34637
30
0.0
11
816.51385
21
555.23474
31
0.0
0
LINE
8
0
10
816.51385
20
555.23474
30
0.0
11
315.46033
21
426.89853
31
0.0
0
LINE
8
0
10
315.46033
20
426.89853
30
0.0
11
811.29114
21
177.80894
31
0.0
0
LINE
8
0
10
811.29114
20
177.80894
30
0.0
11
585.54
21
728.6187
31
0.0
0
LINE
8
0
10
585.54
20
728.6187
30
0.0
11
380.22595
21
123.909454
31
0.0
0
LINE
8
0
10
380.22595
20
123.909454
30
0.0
11
972.30676
21
468.5956
31
0.0
0
LINE
8
0
10
972.30676
20
468.5956
30
0.0
11
250.42645
21
606.7429
31
0.0
0
LINE
8
0
10
250.42645
20
606.7429
30
0.0
11
737.2356
21
-13.5224
31
0.0
0
LINE
8
0
10
737.2356
20
-13.5224
30
0.0
11
780.23395
21
831.2727
31
0.0
0
LINE
8
0
10
780.23395
20
831.2727
30
0.0
11
150.37936
21
177.98573
31
0.0
0
LINE
8
0
10
150.37936
20
177.98573
30
0.0
11
1120.1989
21
262.93848
31
0.0
0
LINE
8
0
10
1120.1989
20
262.93848
30
0.0
11
275.62018
21
877.3257
31
0.0
0
LINE
8
0
10
555.4172
20
460.55914
30
0.0
11
593.4177
21
319.59442
31
0.0
0
LINE
8
0
10
593.4177
20
319.59442
30
0.0
11
661.96265
21
460.42462
31
0.0
0
LINE
8
0
10
661.96265
20
460.42462
30
0.0
11
507.30005
21
394.75232
31
0.0
0
LINE
8
0
10
507.30005
20
394.75232
30
0.0
11
678.7056
21
338.9498
31
0.0
0
LINE
8
0
10
678.7056
20
338.9498
30
0.0
11
579.3173
21
504.8385
31
0.0
0
LINE
8
0
10
579.3173
20
504.8385
30
0.0
11
542.88904
21
300.60016
31
0.0
0
LINE
8
0
10
542.88904
20
300.60016
30
0.0
11
716.2278
21
440.20218
31
0.0
0
LINE
8
0
10
716.2278
20
440.20218
30
0.0
11
477.63525
21
449.33926
31
0.0
0
LINE
8
0
10
477.63525
20
449.33926
30
0.0
11
664.259
21
273.8847
31
0.0
0
LINE
8
0
10
664.259
20
273.8847
30
0.0
11
636.8381
21
547.3106
31
0.0
0
LINE
8
0
10
636.8381
20
547.3106
30
0.0
11
466.42853
21
306.75037
31
0.0
0
LINE
8
0
10
466.42853
20
306.75037
30
0.0
11
773.76447
21
381.3683
31
0.0
0
LINE
8
0
10
773.76447
20
381.3683
30
0.0
11
472.5204
21
537.47314
31
0.0
0
LINE
8
0
10
472.5204
20
537.47314
30
0.0
11
606.3172
21
198.96736
31
0.0
0
LINE
8
0
10
606.3172
20
198.96736
30
0.0
11
736.493
21
567.1173
31
0.0
0
LINE
8
0
10
736.493
20
567.1173
30
0.0
11
371.84018
21
360.91913
31
0.0
0
LINE
8
0
10
371.84018
20
360.91913
30
0.0
11
812.1458
21
270.91003
31
0.0
0
LINE
8
0
10
812.1458
20
270.91003
30
0.0
11
519.2693
21
653.887
31
0.0
0
LINE
8
0
10
519.2693
20
653.887
30
0.0
11
486.4895
21
137.69916
31
0.0
0
LINE
8
0
10
486.4895
20
137.69916
30
0.0
11
876.60876
21
532.2892
31
0.0
0
LINE
8
0
10
876.60876
20
532.2892
30
0.0
11
282.99658
21
487.79633
31
0.0
0
LINE
8
0
10
282.99658
20
487.79633
30
0.0
11
794.66394
21
105.66589
31
0.0
0
LINE
8
0
10
794.66394
20
105.66589
30
0.0
11
649.8106
21
775.282
31
0.0
0
LINE
8
0
10
649.8106
20
775.282
30
0.0
11
295.35175
21
131.42273
31
0.0
0
LINE
8
0
10
295.35175
20
131.42273
30
0.0
11
1035.6913
21
402.73193
31
0.0
0
LINE
8
0
10
1035.6913
20
402.73193
30
0.0
11
245.53052
21
704.6831
31
0.0
0
LINE
8
0
10
245.53052
20
704.6831
30
0.0
11
672.20795
21
-96.220795
31
0.0
0
LINE
8
0
10
672.20795
20
-96.220795
30
0.0
11
891.10333
21
852.3843
31
0.0
0
LINE
8
0
10
891.10333
20
852.3843
30
0.0
11
45.797485
21
238.9979
31
0.0
0
LINE
8
0
10
528.628
20
376.31302
30
0.0
11
674.4362
21
368.8932
31
0.0
0
LINE
8
0
10
674.4362
20
368.8932
30
0.0
11
561.6803
21
477.6022
31
0.0
0
LINE
8
0
10
561.6803
20
477.6022
30
0.0
11
576.34503
21
310.21548
31
0.0
0
LINE
8
0
10
576.34503
20
310.21548
30
0.0
11
682.38354
21
455.98798
31
0.0
0
LINE
8
0
10
682.38354
20
455.98798
30
0.0
11
493.90137
21
412.7265
31
0.0
0
LINE
8
0
10
493.90137
20
412.7265
30
0.0
11
676.88666
21
314.96802
31
0.0
0
LINE
8
0
10
676.88666
20
314.96802
30
0.0
11
597.68176
21
522.96234
31
0.0
0
LINE
8
0
10
597.68176
20
522.96234
30
0.0
11
515.2628
21
298.87085
31
0.0
0
LINE
8
0
10
515.2628
20
298.87085
30
0.0
11
739.7999
21
422.14197
31
0.0
0
LINE
8
0
10
739.7999
20
422.14197
30
0.0
11
471.28284
21
480.55652
31
0.0
0
LINE
8
0
10
471.28284
20
480.55652
30
0.0
11
647.40985
21
244.15028
31
0.0
0
LINE
8
0
10
647.40985
20
244.15028
30
0.0
11
671.4162
21
559.5022
31
0.0
0
LINE
8
0
10
671.4162
20
559.5022
30
0.0
11
429.86166
21
321.2418
31
0.0
0
LINE
8
0
10
429.86166
20
321.2418
30
0.0
11
793.14557
21
343.88562
31
0.0
0
LINE
8
0
10
793.14557
20
343.88562
30
0.0
11
483.24054
21
581.4546
31
0.0
0
LINE
8
0
10
483.24054
20
581.4546
30
0.0
11
566.66296
21
170.93045
31
0.0
0
LINE
8
0
10
566.66296
20
170.93045
30
0.0
11
788.3284
21
561.87177
31
0.0
0
LINE
8
0
10
788.3284
20
561.87177
30
0.0
11
333.59192
21
401.6758
31
0.0
0
LINE
8
0
10
333.59192
20
401.6758
30
0.0
11
814.38635
21
210.9898
31
0.0
0
LINE
8
0
10
814.38635
20
210.9898
30
0.0
11
559.6633
21
703.9503
31
0.0
0
LINE
8
0
10
559.6633
20
703.9503
30
0.0
11
418.54144
21
125.6423
31
0.0
0
LINE
8
0
10
418.54144
20
125.6423
30
0.0
11
940.08276
21
494.18237
31
0.0
0
LINE
8
0
10
940.08276
20
494.18237
30
0.0
11
258.47784
21
563.34106
31
0.0
0
LINE
8
0
10
258.47784
20
563.34106
30
0.0
11
761.2909
21
27.267426
31
0.0
0
LINE
8
0
10
761.2909
20
27.267426
30
0.0
11
732.036
21
815.21185
31
0.0
0
LINE
8
0
10
732.036
20
815.21185
30
0.0
11
200.69223
21
157.03152
31
0.0
0
LINE
8
0
10
200.69223
20
157.03152
30
0.0
11
1094.2476
21
315.33344
31
0.0
0
LINE
8
0
10
1094.2476
20
315.33344
30
0.0
11
259.71262
21
816.65
31
0.0
0
LINE
8
0
10
259.71262
20
816.65
30
0.0
11
581.8644
21
-176.83026
31
0.0
0
LINE
8
0
10
600.4725
20
324.80148
30
0.0
11
652.58636
21
461.18054
31
0.0
0
LINE
8
0
10
652.58636
20
461.18054
30
0.0
11
514.3545
21
387.53613
31
0.0
0
LINE
8
0
10
514.3545
20
387.53613
30
0.0
11
678.0803
21
349.7578
31
0.0
0
LINE
8
0
10
678.0803
20
349.7578
30
0.0
11
572.2102
21
495.65265
31
0.0
0
LINE
8
0
10
572.2102
20
495.65265
30
0.0
11
555.11005
21
303.02692
31
0.0
0
LINE
8
0
10
555.11005
20
303.02692
30
0.0
11
704.6296
21
446.84708
31
0.0
0
LINE
8
0
10
704.6296
20
446.84708
30
0.0
11
482.33948
21
435.79263
31
0.0
0
LINE
8
0
10
482.33948
20
435.79263
30
0.0
11
669.9944
21
288.15955
31
0.0
0
LINE
8
0
10
669.9944
20
288.15955
30
0.0
11
622.1422
21
539.7999
31
0.0
0
LINE
8
0
10
622.1422
20
539.7999
30
0.0
11
483.61047
21
302.47598
31
0.0
0
LINE
8
0
10
483.61047
20
302.47598
30
0.0
11
762.8723
21
396.92935
31
0.0
0
LINE
8
0
10
762.8723
20
396.92935
30
0.0
11
470.37314
21
517.2097
31
0.0
0
LINE
8
0
10
470.37314
20
517.2097
30
0.0
11
622.328
21
213.85121
31
0.0
0
LINE
8
0
10
622.328
20
213.85121
30
0.0
11
713.0538
21
566.3517
31
0.0
0
LINE
8
0
10
713.0538
20
566.3517
30
0.0
11
391.34583
21
345.0276
31
0.0
0
LINE
8
0
10
391.34583
20
345.0276
30
0.0
11
807.55646
21
297.5083
31
0.0
0
LINE
8
0
10
807.55646
20
297.5083
30
0.0
11
504.24738
21
629.1321
31
0.0
0
LINE
8
0
10
504.24738
20
629.1321
30
0.0
11
516.0817
21
147.14867
31
0.0
0
LINE
8
0
10
516.0817
20
147.14867
30
0.0
11
846.00836
21
545.48627
31
0.0
0
LINE
8
0
10
846.00836
20
545.48627
30
0.0
11
298.46133
21
455.5632
31
0.0
0
LINE
8
0
10
298.46133
20
455.5632
30
0.0
11
804.856
21
142.64157
31
0.0
0
LINE
8
0
10
804.856
20
142.64157
30
0.0
11
615.51843
21
752.5419
31
0.0
0
LINE
8
0
10
615.51843
20
752.5419
30
0.0
11
339.11743
21
125.66818
31
0.0
0
LINE
8
0
10
339.11743
20
125.66818
30
0.0
11
1004.3313
21
438.21625
31
0.0
0
LINE
8
0
10
1004.3313
20
438.21625
30
0.0
11
245.91132
21
653.88104
31
0.0
0
LINE
8
0
10
245.91132
20
653.88104
30
0.0
11
707.6841
21
-54.84558
31
0.0
0
LINE
8
0
10
707.6841
20
-54.84558
30
0.0
11
833.25336
21
843.89404
31
0.0
0
LINE
8
0
10
833.25336
20
843.89404
30
0.0
11
98.58783
21
205.11914
31
0.0
0
LINE
8
0
10
98.58783
20
205.11914
30
0.0
11
1142.9941
21
204.50195
31
0.0
0
LINE
8
0
10
671.66406
20
377.21176
30
0.0
11
558.06396
21
468.91846
31
0.0
0
LINE
8
0
10
558.06396
20
468.91846
30
0.0
11
585.3879
21
314.69473
31
0.0
0
LINE
8
0
10
585.3879
20
314.69473
30
0.0
11
671.91125
21
458.7332
31
0.0
0
LINE
8
0
10
671.91125
20
458.7332
30
0.0
11
500.44144
21
403.1286
31
0.0
0
LINE
8
0
10
500.44144
20
403.1286
30
0.0
11
678.35516
21
327.34085
31
0.0
0
LINE
8
0
10
678.35516
20
327.34085
30
0.0
11
587.77826
21
513.98517
31
0.0
0
LINE
8
0
10
587.77826
20
513.98517
30
0.0
11
529.59973
21
299.15894
31
0.0
0
LINE
8
0
10
529.59973
20
299.15894
30
0.0
11
727.9961
21
432.00784
31
0.0
0
LINE
8
0
10
727.9961
20
432.00784
30
0.0
11
473.88483
21
464.25922
31
0.0
0
LINE
8
0
10
473.88483
20
464.25922
30
0.0
11
656.78406
21
259.1702
31
0.0
0
LINE
8
0
10
656.78406
20
259.1702
30
0.0
11
653.2512
21
553.9518
31
0.0
0
LINE
8
0
10
653.2512
20
553.9518
30
0.0
11
448.46976
21
312.9378
31
0.0
0
LINE
8
0
10
448.46976
20
312.9378
30
0.0
11
783.93774
21
363.71213
31
0.0
0
LINE
8
0
10
783.93774
20
363.71213
30
0.0
11
476.72562
21
558.9259
31
0.0
0
LINE
8
0
10
476.72562
20
558.9259
30
0.0
11
587.80347
21
184.5707
31
0.0
0
LINE
8
0
10
587.80347
20
184.5707
30
0.0
11
761.6138
21
565.7263
31
0.0
0
LINE
8
0
10
761.6138
20
565.7263
30
0.0
11
352.4933
21
379.7394
31
0.0
0
LINE
8
0
10
352.4933
20
379.7394
30
0.0
11
814.5438
21
242.05373
31
0.0
0
LINE
8
0
10
814.5438
20
242.05373
30
0.0
11
537.6549
21
678.92554
31
0.0
0
LINE
8
0
10
537.6549
20
678.92554
30
0.0
11
453.97583
21
130.38962
31
0.0
0
LINE
8
0
10
453.97583
20
130.38962
30
0.0
11
908.0668
21
515.30054
31
0.0
0
LINE
8
0
10
908.0668
20
515.30054
30
0.0
11
269.50812
21
523.7002
31
0.0
0
LINE
8
0
10
269.50812
20
523.7002
30
0.0
11
780.2881
21
67.11282
31
0.0
0
LINE
8
0
10
780.2881
20
67.11282
30
0.0
11
688.60077
21
796.3511
31
0.0
0
LINE
8
0
10
688.60077
20
796.3511
30
0.0
11
249.1235
21
141.6977
31
0.0
0
LINE
8
0
10
249.1235
20
141.6977
30
0.0
11
1065.8601
21
361.8589
31
0.0
0
LINE
8
0
10
1065.8601
20
361.8589
30
0.0
11
249.9107
21
759.0077
31
0.0
0
LINE
8
0
10
249.9107
20
759.0077
30
0.0
11
630.39813
21
-137.09277
31
0.0
0
LINE
8
0
10
630.39813
20
-137.09277
30
0.0
11
953.7239
21
856.006
31
0.0
0
LINE
8
0
10
643.8183
20
461.11462
30
0.0
11
607.59216
21
319.68347
31
0.0
0
LINE
8
0
10
607.59216
20
319.68347
30
0.0
11
537.28296
21
459.64124
31
0.0
0
LINE
8
0
10
537.28296
20
459.64124
30
0.0
11
692.75854
21
395.9176
31
0.0
0
LINE
8
0
10
692.75854
20
395.9176
30
0.0
11
522.0678
21
337.96558
31
0.0
0
LINE
8
0
10
522.0678
20
337.96558
30
0.0
11
619.3636
21
505.09012
31
0.0
0
LINE
8
0
10
619.3636
20
505.09012
30
0.0
11
658.3556
21
301.3257
31
0.0
0
LINE
8
0
10
658.3556
20
301.3257
30
0.0
11
483.27625
21
438.73865
31
0.0
0
LINE
8
0
10
483.27625
20
438.73865
30
0.0
11
721.73517
21
450.87286
31
0.0
0
LINE
8
0
10
721.73517
20
450.87286
30
0.0
11
537.33093
21
273.08716
31
0.0
0
LINE
8
0
10
537.33093
20
273.08716
30
0.0
11
561.3139
21
546.8361
31
0.0
0
LINE
8
0
10
561.3139
20
546.8361
30
0.0
11
734.7326
21
308.43604
31
0.0
0
LINE
8
0
10
734.7326
20
308.43604
30
0.0
11
426.4834
21
379.18613
31
0.0
0
LINE
8
0
10
426.4834
20
379.18613
30
0.0
11
725.74194
21
539.0643
31
0.0
0
LINE
8
0
10
725.74194
20
539.0643
30
0.0
11
596.2096
21
198.90385
31
0.0
0
LINE
8
0
10
596.2096
20
198.90385
30
0.0
11
461.4177
21
565.3889
31
0.0
0
LINE
8
0
10
461.4177
20
565.3889
30
0.0
11
828.63293
21
363.7894
31
0.0
0
LINE
8
0
10
828.63293
20
363.7894
30
0.0
11
389.49316
21
268.25427
31
0.0
0
LINE
8
0
10
389.49316
20
268.25427
30
0.0
11
677.5348
21
654.8812
31
0.0
0
LINE
8
0
10
677.5348
20
654.8812
30
0.0
11
716.79675
21
139.14587
31
0.0
0
LINE
8
0
10
716.79675
20
139.14587
30
0.0
11
321.75067
21
528.8027
31
0.0
0
LINE
8
0
10
321.75067
20
528.8027
30
0.0
11
915.8751
21
491.773
31
0.0
0
LINE
8
0
10
915.8751
20
491.773
30
0.0
11
409.05017
21
103.24286
31
0.0
0
LINE
8
0
10
409.05017
20
103.24286
30
0.0
11
545.4773
21
774.6264
31
0.0
0
LINE
8
0
10
545.4773
20
774.6264
30
0.0
11
907.9983
21
135.27115
31
0.0
0
LINE
8
0
10
907.9983
20
135.27115
30
0.0
11
164.30875
21
397.25824
31
0.0
0
LINE
8
0
10
164.30875
20
397.25824
30
0.0
11
950.6127
21
709.11346
31
0.0
0
LINE
8
0
10
950.6127
20
709.11346
30
0.0
11
534.03357
21
-97.08899
31
0.0
0
LINE
8
0
10
534.03357
20
-97.08899
30
0.0
11
303.23474
21
848.6904
31
0.0
0
LINE
8
0
10
303.23474
20
848.6904
30
0.0
11
1156.1819
21
245.97504
31
0.0
0
LINE
8
0
10
555.4172
20
460.55914
30
0.0
11
678.7317
21
382.40137
31
0.0
0
LINE
8
0
10
678.7317
20
382.40137
30
0.0
11
523.8972
21
358.7827
31
0.0
0
LINE
8
0
10
523.8972
20
358.7827
30
0.0
11
632.5466
21
486.9571
31
0.0
0
LINE
8
0
10
632.5466
20
486.9571
30
0.0
11
634.9159
21
306.71237
31
0.0
0
LINE
8
0
10
634.9159
20
306.71237
30
0.0
11
506.03702
21
450.89047
31
0.0
0
LINE
8
0
10
506.03702
20
450.89047
30
0.0
11
711.8777
21
425.00748
31
0.0
0
LINE
8
0
10
711.8777
20
425.00748
30
0.0
11
527.08777
21
300.96
31
0.0
0
LINE
8
0
10
527.08777
20
300.96
30
0.0
11
589.2355
21
531.4976
31
0.0
0
LINE
8
0
10
589.2355
20
531.4976
30
0.0
11
701.33514
21
301.1796
31
0.0
0
LINE
8
0
10
701.33514
20
301.1796
30
0.0
11
448.3959
21
408.58243
31
0.0
0
LINE
8
0
10
448.3959
20
408.58243
30
0.0
11
728.7173
21
499.8433
31
0.0
0
LINE
8
0
10
728.7173
20
499.8433
30
0.0
11
566.17505
21
228.54416
31
0.0
0
LINE
8
0
10
566.17505
20
228.54416
30
0.0
11
506.59866
21
562.56104
31
0.0
0
LINE
8
0
10
506.59866
20
562.56104
30
0.0
11
790.0824
21
334.2527
31
0.0
0
LINE
8
0
10
790.0824
20
334.2527
30
0.0
11
399.8813
21
319.30902
31
0.0
0
LINE
8
0
10
399.8813
20
319.30902
30
0.0
11
705.09125
21
606.2524
31
0.0
0
LINE
8
0
10
705.09125
20
606.2524
30
0.0
11
660.2457
21
159.084
31
0.0
0
LINE
8
0
10
660.2457
20
159.084
30
0.0
11
381.55365
21
552.50336
31
0.0
0
LINE
8
0
10
381.55365
20
552.50336
30
0.0
11
884.1793
21
430.471
31
0.0
0
LINE
8
0
10
884.1793
20
430.471
30
0.0
11
391.51685
21
175.17207
31
0.0
0
LINE
8
0
10
391.51685
20
175.17207
30
0.0
11
610.3305
21
728.7744
31
0.0
0
LINE
8
0
10
610.3305
20
728.7744
30
0.0
11
823.22516
21
126.6922
31
0.0
0
LINE
8
0
10
823.22516
20
126.6922
30
0.0
11
226.86111
21
463.91443
31
0.0
0
LINE
8
0
10
226.86111
20
463.91443
30
0.0
11
946.94946
21
611.11694
31
0.0
0
LINE
8
0
10
946.94946
20
611.11694
30
0.0
11
467.9702
21
-15.213806
31
0.0
0
LINE
8
0
10
467.9702
20
-15.213806
30
0.0
11
414.3623
21
828.97437
31
0.0
0
LINE
8
0
10
414.3623
20
828.97437
30
0.0
11
1052.3743
21
183.65172
31
0.0
0
LINE
8
0
10
1052.3743
20
183.65172
30
0.0
11
81.56354
21
256.4161
31
0.0
0
LINE
8
0
10
81.56354
20
256.4161
30
0.0
11
918.35956
21
881.36194
31
0.0
0
LINE
8
0
10
528.628
20
376.31302
30
0.0
11
641.0667
21
469.43997
31
0.0
0
LINE
8
0
10
641.0667
20
469.43997
30
0.0
11
615.6829
21
314.8851
31
0.0
0
LINE
8
0
10
615.6829
20
314.8851
30
0.0
11
527.3563
21
457.82483
31
0.0
0
LINE
8
0
10
527.3563
20
457.82483
30
0.0
11
699.5114
21
404.37952
31
0.0
0
LINE
8
0
10
699.5114
20
404.37952
30
0.0
11
522.5641
21
326.36194
31
0.0
0
LINE
8
0
10
522.5641
20
326.36194
30
0.0
11
610.78864
21
514.12976
31
0.0
0
LINE
8
0
10
610.78864
20
514.12976
30
0.0
11
671.6616
21
300.05136
31
0.0
0
LINE
8
0
10
671.6616
20
300.05136
30
0.0
11
471.61188
21
430.39725
31
0.0
0
LINE
8
0
10
471.61188
20
430.39725
30
0.0
11
725.29803
21
465.83835
31
0.0
0
LINE
8
0
10
725.29803
20
465.83835
30
0.0
11
544.98944
21
258.46802
31
0.0
0
LINE
8
0
10
544.98944
20
258.46802
30
0.0
11
544.81946
21
553.27075
31
0.0
0
LINE
8
0
10
544.81946
20
553.27075
30
0.0
11
752.61176
21
314.84784
31
0.0
0
LINE
8
0
10
752.61176
20
314.84784
30
0.0
11
416.53265
21
361.4041
31
0.0
0
LINE
8
0
10
416.53265
20
361.4041
30
0.0
11
721.2683
21
560.4619
31
0.0
0
LINE
8
0
10
721.2683
20
560.4619
30
0.0
11
614.9017
21
184.7409
31
0.0
0
LINE
8
0
10
614.9017
20
184.7409
30
0.0
11
436.3166
21
563.6825
31
0.0
0
LINE
8
0
10
436.3166
20
563.6825
30
0.0
11
847.7417
21
382.85007
31
0.0
0
LINE
8
0
10
847.7417
20
382.85007
30
0.0
11
387.45715
21
239.37119
31
0.0
0
LINE
8
0
10
387.45715
20
239.37119
30
0.0
11
658.8364
21
679.68665
31
0.0
0
LINE
8
0
10
658.8364
20
679.68665
30
0.0
11
749.39935
21
132.24515
31
0.0
0
LINE
8
0
10
749.39935
20
132.24515
30
0.0
11
290.50916
21
511.42163
31
0.0
0
LINE
8
0
10
290.50916
20
511.42163
30
0.0
11
928.912
21
527.8419
31
0.0
0
LINE
8
0
10
928.912
20
527.8419
30
0.0
11
423.90768
21
64.87439
31
0.0
0
LINE
8
0
10
423.90768
20
64.87439
30
0.0
11
506.429
21
795.2073
31
0.0
0
LINE
8
0
10
506.429
20
795.2073
30
0.0
11
954.0925
21
146.12424
31
0.0
0
LINE
8
0
10
954.0925
20
146.12424
30
0.0
11
134.65594
21
356.0082
31
0.0
0
LINE
8
0
10
134.65594
20
356.0082
30
0.0
11
945.55054
21
763.37836
31
0.0
0
LINE
8
0
10
945.55054
20
763.37836
30
0.0
11
576.35095
21
-137.43225
31
0.0
0
LINE
8
0
10
576.35095
20
-137.43225
30
0.0
11
240.57593
21
851.52673
31
0.0
0
LINE
8
0
10
600.4725
20
324.80148
30
0.0
11
546.6489
21
460.51486
31
0.0
0
LINE
8
0
10
546.6489
20
460.51486
30
0.0
11
685.7954
21
388.6134
31
0.0
0
LINE
8
0
10
685.7954
20
388.6134
30
0.0
11
522.5572
21
348.78058
31
0.0
0
LINE
8
0
10
522.5572
20
348.78058
30
0.0
11
626.5855
21
495.99432
31
0.0
0
LINE
8
0
10
626.5855
20
495.99432
30
0.0
11
646.10504
21
303.5987
31
0.0
0
LINE
8
0
10
646.10504
20
303.5987
30
0.0
11
494.78998
21
445.52847
31
0.0
0
LINE
8
0
10
494.78998
20
445.52847
30
0.0
11
717.2014
21
437.26846
31
0.0
0
LINE
8
0
10
717.2014
20
437.26846
30
0.0
11
531.41644
21
287.28888
31
0.0
0
LINE
8
0
10
531.41644
20
287.28888
30
0.0
11
576.10315
21
539.5107
31
0.0
0
LINE
8
0
10
576.10315
20
539.5107
30
0.0
11
717.6056
21
303.94592
31
0.0
0
LINE
8
0
10
717.6056
20
303.94592
30
0.0
11
437.17908
21
394.88336
31
0.0
0
LINE
8
0
10
437.17908
20
394.88336
30
0.0
11
728.14404
21
518.829
31
0.0
0
LINE
8
0
10
728.14404
20
518.829
30
0.0
11
580.0121
21
213.58542
31
0.0
0
LINE
8
0
10
580.0121
20
213.58542
30
0.0
11
484.86554
21
564.9184
31
0.0
0
LINE
8
0
10
484.86554
20
564.9184
30
0.0
11
809.3285
21
347.65375
31
0.0
0
LINE
8
0
10
809.3285
20
347.65375
30
0.0
11
393.7478
21
294.9084
31
0.0
0
LINE
8
0
10
393.7478
20
294.9084
30
0.0
11
692.8668
21
630.3168
31
0.0
0
LINE
8
0
10
692.8668
20
630.3168
30
0.0
11
687.0879
21
148.22275
31
0.0
0
LINE
8
0
10
687.0879
20
148.22275
30
0.0
11
352.18353
21
542.3846
31
0.0
0
LINE
8
0
10
352.18353
20
542.3846
30
0.0
11
900.8169
21
459.3466
31
0.0
0
LINE
8
0
10
900.8169
20
459.3466
30
0.0
11
398.39294
21
140.08856
31
0.0
0
LINE
8
0
10
398.39294
20
140.08856
30
0.0
11
580.0543
21
752.31915
31
0.0
0
LINE
8
0
10
580.0543
20
752.31915
30
0.0
11
864.308
21
128.96689
31
0.0
0
LINE
8
0
10
864.308
20
128.96689
30
0.0
11
195.22052
21
433.13422
31
0.0
0
LINE
8
0
10
195.22052
20
433.13422
30
0.0
11
950.87067
21
658.3102
31
0.0
0
LINE
8
0
10
950.87067
20
658.3102
30
0.0
11
498.03967
21
-56.16278
31
0.0
0
LINE
8
0
10
498.03967
20
-56.16278
30
0.0
11
361.1891
21
840.9291
31
0.0
0
LINE
8
0
10
361.1891
20
840.9291
30
0.0
11
1103.8206
21
211.433
31
0.0
0
LINE
8
0
10
1103.8206
20
211.433
30
0.0
11
59.504517
21
197.69655
31
0.0
0
LINE
8
0
10
671.66406
20
377.21176
30
0.0
11
525.9606
21
367.96027
31
0.0
0
LINE
8
0
10
525.9606
20
367.96027
30
0.0
11
637.3415
21
478.0776
31
0.0
0
LINE
8
0
10
637.3415
20
478.0776
30
0.0
11
624.78143
21
310.51984
31
0.0
0
LINE
8
0
10
624.78143
20
310.51984
30
0.0
11
516.9194
21
454.9482
31
0.0
0
LINE
8
0
10
516.9194
20
454.9482
30
0.0
11
705.9303
21
414.05887
31
0.0
0
LINE
8
0
10
705.9303
20
414.05887
30
0.0
11
524.1881
21
314.00842
31
0.0
0
LINE
8
0
10
524.1881
20
314.00842
30
0.0
11
600.77277
21
522.9818
31
0.0
0
LINE
8
0
10
600.77277
20
522.9818
30
0.0
11
686.0012
21
299.94357
31
0.0
0
LINE
8
0
10
686.0012
20
299.94357
30
0.0
11
459.93292
21
420.38385
31
0.0
0
LINE
8
0
10
459.93292
20
420.38385
30
0.0
11
727.69495
21
482.16727
31
0.0
0
LINE
8
0
10
727.69495
20
482.16727
30
0.0
11
554.5519
21
243.56696
31
0.0
0
LINE
8
0
10
554.5519
20
243.56696
30
0.0
11
526.5855
21
558.5924
31
0.0
0
LINE
8
0
10
526.5855
20
558.5924
30
0.0
11
771.11426
21
323.3852
31
0.0
0
LINE
8
0
10
771.11426
20
323.3852
30
0.0
11
407.57477
21
341.46313
31
0.0
0
LINE
8
0
10
407.57477
20
341.46313
30
0.0
11
714.4702
21
582.90735
31
0.0
0
LINE
8
0
10
714.4702
20
582.90735
30
0.0
11
636.2127
21
171.36742
31
0.0
0
LINE
8
0
10
636.2127
20
171.36742
30
0.0
11
409.65308
21
559.4933
31
0.0
0
LINE
8
0
10
409.65308
20
559.4933
30
0.0
11
866.366
21
405.02216
31
0.0
0
LINE
8
0
10
866.366
20
405.02216
30
0.0
11
388.00482
21
208.3117
31
0.0
0
LINE
8
0
10
388.00482
20
208.3117
30
0.0
11
636.5166
21
704.43286
31
0.0
0
LINE
8
0
10
636.5166
20
704.43286
30
0.0
11
784.89056
21
127.94333
31
0.0
0
LINE
8
0
10
784.89056
20
127.94333
30
0.0
11
258.76096
21
489.90298
31
0.0
0
LINE
8
0
10
258.76096
20
489.90298
30
0.0
11
939.44336
21
567.61816
31
0.0
0
LINE
8
0
10
939.44336
20
567.61816
30
0.0
11
443.40393
21
25.270813
31
0.0
0
LINE
8
0
10
443.40393
20
25.270813
30
0.0
11
462.75714
21
813.52
31
0.0
0
LINE
8
0
10
462.75714
20
813.52
30
0.0
11
1002.32837
21
162.0666
31
0.0
0
LINE
8
0
10
1002.32837
20
162.0666
30
0.0
11
106.85501
21
309.13162
31
0.0
0
LINE
8
0
10
106.85501
20
309.13162
30
0.0
11
935.0268
21
820.8916
31
0.0
0
LINE
8
0
10
935.0268
20
820.8916
30
0.0
11
625.38
21
-176.55695
31
0.0
0
ENDSEC
0
EOF
