0
SECTION
2
ENTITIES
0
LINE
8
0
10
606.4
20
400.0
30
0.0
11
593.09
21
401.49905
31
0.0
0
LINE
8
0
10
593.09
20
401.49905
30
0.0
11
607.1095
21
396.763
31
0.0
0
LINE
8
0
10
607.1095
20
396.763
30
0.0
11
593.08215
21
405.16016
31
0.0
0
LINE
8
0
10
593.08215
20
405.16016
30
0.0
11
606.26044
21
392.80832
31
0.0
0
LINE
8
0
10
606.26044
20
392.80832
30
0.0
11
594.9251
21
409.2311
31
0.0
0
LINE
8
0
10
594.9251
20
409.2311
30
0.0
11
603.3171
21
388.84464
31
0.0
0
LINE
8
0
10
603.3171
20
388.84464
30
0.0
11
599.03143
21
412.82123
31
0.0
0
LINE
8
0
10
599.03143
20
412.82123
30
0.0
11
598.04266
21
385.93024
31
0.0
0
LINE
8
0
10
598.04266
20
385.93024
30
0.0
11
605.4088
21
414.73248
31
0.0
0
LINE
8
0
10
605.4088
20
414.73248
30
0.0
11
590.7095
21
385.36044
31
0.0
0
LINE
8
0
10
590.7095
20
385.36044
30
0.0
11
613.4598
21
413.63007
31
0.0
0
LINE
8
0
10
613.4598
20
413.63007
30
0.0
11
582.27515
21
388.43643
31
0.0
0
LINE
8
0
10
582.27515
20
388.43643
30
0.0
11
621.84576
21
408.33337
31
0.0
0
LINE
8
0
10
621.84576
20
408.33337
30
0.0
11
574.46155
21
396.11932
31
0.0
0
LINE
8
0
10
574.46155
20
396.11932
30
0.0
11
628.4824
21
398.2081
31
0.0
0
LINE
8
0
10
628.4824
20
398.2081
30
0.0
11
569.66766
21
408.60602
31
0.0
0
LINE
8
0
10
569.66766
20
408.60602
30
0.0
11
630.7337
21
383.60367
31
0.0
0
LINE
8
0
10
630.7337
20
383.60367
30
0.0
11
570.6577
21
424.90152
31
0.0
0
LINE
8
0
10
570.6577
20
424.90152
30
0.0
11
625.84784
21
366.24142
31
0.0
0
LINE
8
0
10
625.84784
20
366.24142
30
0.0
11
579.99945
21
442.5028
31
0.0
0
LINE
8
0
10
579.99945
20
442.5028
30
0.0
11
611.63904
21
349.42566
31
0.0
0
LINE
8
0
10
611.63904
20
349.42566
30
0.0
11
599.2792
21
457.33057
31
0.0
0
LINE
8
0
10
599.2792
20
457.33057
30
0.0
11
587.3499
21
337.9322
31
0.0
0
LINE
8
0
10
587.3499
20
337.9322
30
0.0
11
628.19604
21
464.05072
31
0.0
0
LINE
8
0
10
628.19604
20
464.05072
30
0.0
11
554.55475
21
337.4496
31
0.0
0
LINE
8
0
10
554.55475
20
337.4496
30
0.0
11
663.71796
21
456.8898
31
0.0
0
LINE
8
0
10
663.71796
20
456.8898
30
0.0
11
517.8795
21
353.50134
31
0.0
0
LINE
8
0
10
517.8795
20
353.50134
30
0.0
11
699.5557
21
430.96835
31
0.0
0
LINE
8
0
10
699.5557
20
430.96835
30
0.0
11
485.2575
21
389.8825
31
0.0
0
LINE
8
0
10
485.2575
20
389.8825
30
0.0
11
726.2556
21
384.04794
31
0.0
0
LINE
8
0
10
726.2556
20
384.04794
30
0.0
11
467.4204
21
446.79663
31
0.0
0
LINE
8
0
10
467.4204
20
446.79663
30
0.0
11
732.1832
21
318.4207
31
0.0
0
LINE
8
0
10
732.1832
20
318.4207
30
0.0
11
476.3926
21
519.0418
31
0.0
0
LINE
8
0
10
476.3926
20
519.0418
30
0.0
11
705.57434
21
242.52014
31
0.0
0
LINE
8
0
10
705.57434
20
242.52014
30
0.0
11
522.89886
21
594.7571
31
0.0
0
LINE
8
0
10
522.89886
20
594.7571
30
0.0
11
637.6259
21
171.6642
31
0.0
0
LINE
8
0
10
637.6259
20
171.6642
30
0.0
11
612.85815
21
655.3439
31
0.0
0
LINE
8
0
10
612.85815
20
655.3439
30
0.0
11
526.3068
21
127.3212
31
0.0
0
LINE
8
0
10
526.3068
20
127.3212
30
0.0
11
743.4341
21
677.1465
31
0.0
0
LINE
8
0
10
743.4341
20
677.1465
30
0.0
11
380.22125
21
134.36508
31
0.0
0
LINE
8
0
10
380.22125
20
134.36508
30
0.0
11
899.5125
21
635.32184
31
0.0
0
LINE
8
0
10
899.5125
20
635.32184
30
0.0
11
221.50201
21
216.0802
31
0.0
0
LINE
8
0
10
221.50201
20
216.0802
30
0.0
11
1051.7385
21
509.9178
31
0.0
0
LINE
8
0
10
1051.7385
20
509.9178
30
0.0
11
86.51874
21
387.13257
31
0.0
0
LINE
8
0
10
86.51874
20
387.13257
30
0.0
11
1157.4121
21
293.62183
31
0.0
0
LINE
8
0
10
1157.4121
20
293.62183
30
0.0
11
23.086731
21
645.4158
31
0.0
0
LINE
8
0
10
23.086731
20
645.4158
30
0.0
11
1165.3959
21
-0.108947754
31
0.0
0
LINE
8
0
10
1165.3959
20
-0.108947754
30
0.0
11
83.26642
21
964.4226
31
0.0
0
LINE
8
0
10
83.26642
20
964.4226
30
0.0
11
1025.707
21
-330.43164
31
0.0
0
LINE
8
0
10
1025.707
20
-330.43164
30
0.0
11
311.45688
21
1288.3484
31
0.0
0
LINE
8
0
10
311.45688
20
1288.3484
30
0.0
11
703.461
21
-626.72156
31
0.0
0
LINE
8
0
10
703.461
20
-626.72156
30
0.0
11
728.7975
21
1532.7677
31
0.0
0
LINE
8
0
10
728.7975
20
1532.7677
30
0.0
11
195.6148
21
-792.8651
31
0.0
0
LINE
8
0
10
195.6148
20
-792.8651
30
0.0
11
1316.0096
21
1593.2015
31
0.0
0
LINE
8
0
10
1316.0096
20
1593.2015
30
0.0
11
-452.5448
21
-720.574
31
0.0
0
LINE
8
0
10
-452.5448
20
-720.574
30
0.0
11
1998.8857
21
1363.3335
31
0.0
0
LINE
8
0
10
1998.8857
20
1363.3335
30
0.0
11
-1136.0059
21
-312.41443
31
0.0
0
LINE
8
0
10
-1136.0059
20
-312.41443
30
0.0
11
2641.207
21
762.5647
31
0.0
0
LINE
8
0
10
2641.207
20
762.5647
30
0.0
11
-1688.7839
21
486.64914
31
0.0
0
LINE
8
0
10
-1688.7839
20
486.64914
30
0.0
11
3050.8716
21
-229.64801
31
0.0
0
LINE
8
0
10
3050.8716
20
-229.64801
30
0.0
11
-1898.6902
21
1653.8812
31
0.0
0
LINE
8
0
10
-1898.6902
20
1653.8812
30
0.0
11
3004.0776
21
-1539.094
31
0.0
0
LINE
8
0
10
3004.0776
20
-1539.094
30
0.0
11
-1541.4607
21
3056.7107
31
0.0
0
LINE
8
0
10
-1541.4607
20
3056.7107
30
0.0
11
2289.8315
21
-2969.9993
31
0.0
0
LINE
8
0
10
2289.8315
20
-2969.9993
30
0.0
11
-435.1432
21
4434.343
31
0.0
0
LINE
8
0
10
-435.1432
20
4434.343
30
0.0
11
772.67847
21
-4198.28
31
0.0
0
LINE
8
0
10
772.67847
20
-4198.28
30
0.0
11
1490.6775
21
5405.1284
31
0.0
0
LINE
8
0
10
1490.6775
20
5405.1284
30
0.0
11
-1533.9861
21
-4795.344
31
0.0
0
LINE
8
0
10
-1533.9861
20
-4795.344
30
0.0
11
4120.922
21
5509.5024
31
0.0
0
LINE
8
0
10
4120.922
20
5509.5024
30
0.0
11
-4398.27
21
-4291.962
31
0.0
0
LINE
8
0
10
605.66693
20
402.97424
30
0.0
11
593.1849
21
398.1161
31
0.0
0
LINE
8
0
10
593.1849
20
398.1161
30
0.0
11
607.79944
21
400.43774
31
0.0
0
LINE
8
0
10
607.79944
20
400.43774
30
0.0
11
591.4765
21
401.35422
31
0.0
0
LINE
8
0
10
591.4765
20
401.35422
30
0.0
11
608.8855
21
396.54147
31
0.0
0
LINE
8
0
10
608.8855
20
396.54147
30
0.0
11
591.2165
21
405.81534
31
0.0
0
LINE
8
0
10
591.2165
20
405.81534
30
0.0
11
608.1213
21
391.66394
31
0.0
0
LINE
8
0
10
608.1213
20
391.66394
30
0.0
11
593.1841
21
410.90253
31
0.0
0
LINE
8
0
10
593.1841
20
410.90253
30
0.0
11
604.8054
21
386.63223
31
0.0
0
LINE
8
0
10
604.8054
20
386.63223
30
0.0
11
597.94275
21
415.55853
31
0.0
0
LINE
8
0
10
597.94275
20
415.55853
30
0.0
11
598.577
21
382.7198
31
0.0
0
LINE
8
0
10
598.577
20
382.7198
30
0.0
11
605.5838
21
418.3239
31
0.0
0
LINE
8
0
10
605.5838
20
418.3239
30
0.0
11
589.67926
21
381.52383
31
0.0
0
LINE
8
0
10
589.67926
20
381.52383
30
0.0
11
615.4707
21
417.53113
31
0.0
0
LINE
8
0
10
615.4707
20
417.53113
30
0.0
11
579.19025
21
384.69553
31
0.0
0
LINE
8
0
10
579.19025
20
384.69553
30
0.0
11
626.0527
21
411.6498
31
0.0
0
LINE
8
0
10
626.0527
20
411.6498
30
0.0
11
569.14264
21
393.524
31
0.0
0
LINE
8
0
10
569.14264
20
393.524
30
0.0
11
634.8331
21
399.76447
31
0.0
0
LINE
8
0
10
634.8331
20
399.76447
30
0.0
11
562.44635
21
408.41315
31
0.0
0
LINE
8
0
10
562.44635
20
408.41315
30
0.0
11
638.57556
21
382.12036
31
0.0
0
LINE
8
0
10
638.57556
20
382.12036
30
0.0
11
562.5383
21
428.33966
31
0.0
0
LINE
8
0
10
562.5383
20
428.33966
30
0.0
11
633.8089
21
360.62756
31
0.0
0
LINE
8
0
10
633.8089
20
360.62756
30
0.0
11
572.7189
21
450.42868
31
0.0
0
LINE
8
0
10
572.7189
20
450.42868
30
0.0
11
617.6433
21
339.1629
31
0.0
0
LINE
8
0
10
617.6433
20
339.1629
30
0.0
11
595.20044
21
469.81744
31
0.0
0
LINE
8
0
10
595.20044
20
469.81744
30
0.0
11
588.82886
21
323.49493
31
0.0
0
LINE
8
0
10
588.82886
20
323.49493
30
0.0
11
629.98145
21
479.98462
31
0.0
0
LINE
8
0
10
629.98145
20
479.98462
30
0.0
11
548.89496
21
320.6642
31
0.0
0
LINE
8
0
10
548.89496
20
320.6642
30
0.0
11
673.7605
21
473.68698
31
0.0
0
LINE
8
0
10
673.7605
20
473.68698
30
0.0
11
503.10242
21
337.7179
31
0.0
0
LINE
8
0
10
503.10242
20
337.7179
30
0.0
11
719.2071
21
444.54907
31
0.0
0
LINE
8
0
10
719.2071
20
444.54907
30
0.0
11
460.85913
21
379.82352
31
0.0
0
LINE
8
0
10
460.85913
20
379.82352
30
0.0
11
754.9543
21
389.19376
31
0.0
0
LINE
8
0
10
754.9543
20
389.19376
30
0.0
11
435.22925
21
447.96176
31
0.0
0
LINE
8
0
10
435.22925
20
447.96176
30
0.0
11
766.666
21
309.6214
31
0.0
0
LINE
8
0
10
766.666
20
309.6214
30
0.0
11
441.2222
21
536.6181
31
0.0
0
LINE
8
0
10
441.2222
20
536.6181
30
0.0
11
739.4291
21
215.30437
31
0.0
0
LINE
8
0
10
739.4291
20
215.30437
30
0.0
11
492.72107
21
632.0712
31
0.0
0
LINE
8
0
10
492.72107
20
632.0712
30
0.0
11
661.4703
21
124.30847
31
0.0
0
LINE
8
0
10
661.4703
20
124.30847
30
0.0
11
598.2081
21
712.0581
31
0.0
0
LINE
8
0
10
598.2081
20
712.0581
30
0.0
11
528.84235
21
62.65567
31
0.0
0
LINE
8
0
10
528.84235
20
62.65567
30
0.0
11
755.8456
21
747.5576
31
0.0
0
LINE
8
0
10
755.8456
20
747.5576
30
0.0
11
350.32855
21
61.250275
31
0.0
0
LINE
8
0
10
350.32855
20
61.250275
30
0.0
11
948.9109
21
707.2635
31
0.0
0
LINE
8
0
10
948.9109
20
707.2635
30
0.0
11
151.31476
21
149.9797
31
0.0
0
LINE
8
0
10
151.31476
20
149.9797
30
0.0
11
1143.0004
21
564.84924
31
0.0
0
LINE
8
0
10
1143.0004
20
564.84924
30
0.0
11
-24.881714
21
349.1998
31
0.0
0
LINE
8
0
10
-24.881714
20
349.1998
30
0.0
11
1286.573
21
308.47385
31
0.0
0
LINE
8
0
10
1286.573
20
308.47385
30
0.0
11
-119.84515
21
659.6332
31
0.0
0
LINE
8
0
10
-119.84515
20
659.6332
30
0.0
11
1316.3934
21
-48.929077
31
0.0
0
LINE
8
0
10
1316.3934
20
-48.929077
30
0.0
11
-68.32849
21
1052.5007
31
0.0
0
LINE
8
0
10
-68.32849
20
1052.5007
30
0.0
11
1168.7516
21
-461.03595
31
0.0
0
LINE
8
0
10
1168.7516
20
-461.03595
30
0.0
11
187.62094
21
1462.8711
31
0.0
0
LINE
8
0
10
187.62094
20
1462.8711
30
0.0
11
796.28705
21
-844.15674
31
0.0
0
LINE
8
0
10
796.28705
20
-844.15674
30
0.0
11
679.4864
21
1789.2737
31
0.0
0
LINE
8
0
10
679.4864
20
1789.2737
30
0.0
11
188.77481
21
-1081.361
31
0.0
0
LINE
8
0
10
188.77481
20
-1081.361
30
0.0
11
1390.9681
21
1903.0841
31
0.0
0
LINE
8
0
10
1390.9681
20
1903.0841
30
0.0
11
-606.0592
21
-1037.5925
31
0.0
0
LINE
8
0
10
-606.0592
20
-1037.5925
30
0.0
11
2238.9065
21
1669.6316
31
0.0
0
LINE
8
0
10
2238.9065
20
1669.6316
30
0.0
11
-1466.8853
21
-586.92737
31
0.0
0
LINE
8
0
10
-1466.8853
20
-586.92737
30
0.0
11
3062.7507
21
981.4516
31
0.0
0
LINE
8
0
10
3062.7507
20
981.4516
30
0.0
11
-2195.1877
21
349.05692
31
0.0
0
LINE
8
0
10
-2195.1877
20
349.05692
30
0.0
11
3629.8562
21
-199.70496
31
0.0
0
LINE
8
0
10
3629.8562
20
-199.70496
30
0.0
11
-2530.8044
21
1757.2136
31
0.0
0
LINE
8
0
10
-2530.8044
20
1757.2136
30
0.0
11
3662.3887
21
-1798.6816
31
0.0
0
LINE
8
0
10
3662.3887
20
-1798.6816
30
0.0
11
-2191.427
21
3491.178
31
0.0
0
LINE
8
0
10
-2191.427
20
3491.178
30
0.0
11
2889.8271
21
-3591.3264
31
0.0
0
LINE
8
0
10
2889.8271
20
-3591.3264
30
0.0
11
-937.41833
21
5245.716
31
0.0
0
LINE
8
0
10
-937.41833
20
5245.716
30
0.0
11
1124.8472
21
-5191.962
31
0.0
0
LINE
8
0
10
1124.8472
20
-5191.962
30
0.0
11
1343.1165
21
6560.4937
31
0.0
0
LINE
8
0
10
1343.1165
20
6560.4937
30
0.0
11
-1645.2837
21
-6077.3384
31
0.0
0
LINE
8
0
10
603.6356
20
405.2671
30
0.0
11
594.841
21
395.16473
31
0.0
0
LINE
8
0
10
594.841
20
395.16473
30
0.0
11
606.70264
21
404.01218
31
0.0
0
LINE
8
0
10
606.70264
20
404.01218
30
0.0
11
591.8235
21
397.23804
31
0.0
0
LINE
8
0
10
591.8235
20
397.23804
30
0.0
11
609.475
21
401.06693
31
0.0
0
LINE
8
0
10
609.475
20
401.06693
30
0.0
11
589.5201
21
401.06732
31
0.0
0
LINE
8
0
10
589.5201
20
401.06732
30
0.0
11
611.065
21
396.39294
31
0.0
0
LINE
8
0
10
611.065
20
396.39294
30
0.0
11
588.89813
21
406.48618
31
0.0
0
LINE
8
0
10
588.89813
20
406.48618
30
0.0
11
610.4673
21
390.3966
31
0.0
0
LINE
8
0
10
610.4673
20
390.3966
30
0.0
11
590.94794
21
412.82034
31
0.0
0
LINE
8
0
10
590.94794
20
412.82034
30
0.0
11
606.7705
21
384.03784
31
0.0
0
LINE
8
0
10
606.7705
20
384.03784
30
0.0
11
596.4287
21
418.81995
31
0.0
0
LINE
8
0
10
596.4287
20
418.81995
30
0.0
11
599.44775
21
378.84387
31
0.0
0
LINE
8
0
10
599.44775
20
378.84387
30
0.0
11
605.55145
21
422.71262
31
0.0
0
LINE
8
0
10
605.55145
20
422.71262
30
0.0
11
588.6862
21
376.7778
31
0.0
0
LINE
8
0
10
588.6862
20
376.7778
30
0.0
11
617.65454
21
422.42267
31
0.0
0
LINE
8
0
10
617.65454
20
422.42267
30
0.0
11
575.6867
21
379.92563
31
0.0
0
LINE
8
0
10
575.6867
20
379.92563
30
0.0
11
630.95264
21
415.9792
31
0.0
0
LINE
8
0
10
630.95264
20
415.9792
30
0.0
11
562.83813
21
389.99744
31
0.0
0
LINE
8
0
10
562.83813
20
389.99744
30
0.0
11
642.466
21
402.0955
31
0.0
0
LINE
8
0
10
642.466
20
402.0955
30
0.0
11
553.65924
21
407.6842
31
0.0
0
LINE
8
0
10
553.65924
20
407.6842
30
0.0
11
648.2336
21
380.84924
31
0.0
0
LINE
8
0
10
648.2336
20
380.84924
30
0.0
11
552.4084
21
431.9742
31
0.0
0
LINE
8
0
10
552.4084
20
431.9742
30
0.0
11
643.8948
21
354.3307
31
0.0
0
LINE
8
0
10
643.8948
20
354.3307
30
0.0
11
563.30444
21
459.5898
31
0.0
0
LINE
8
0
10
563.30444
20
459.5898
30
0.0
11
625.6622
21
327.06665
31
0.0
0
LINE
8
0
10
625.6622
20
327.06665
30
0.0
11
589.3765
21
484.75592
31
0.0
0
LINE
8
0
10
589.3765
20
484.75592
30
0.0
11
591.6179
21
306.00195
31
0.0
0
LINE
8
0
10
591.6179
20
306.00195
30
0.0
11
631.06683
21
499.52502
31
0.0
0
LINE
8
0
10
631.06683
20
499.52502
30
0.0
11
543.1454
21
299.82138
31
0.0
0
LINE
8
0
10
543.1454
20
299.82138
30
0.0
11
684.8496
21
494.84454
31
0.0
0
LINE
8
0
10
684.8496
20
494.84454
30
0.0
11
486.17334
21
317.4726
31
0.0
0
LINE
8
0
10
486.17334
20
317.4726
30
0.0
11
742.22705
21
462.4424
31
0.0
0
LINE
8
0
10
742.22705
20
462.4424
30
0.0
11
431.81378
21
365.8952
31
0.0
0
LINE
8
0
10
431.81378
20
365.8952
30
0.0
11
789.5764
21
397.4273
31
0.0
0
LINE
8
0
10
789.5764
20
397.4273
30
0.0
11
395.91962
21
447.18155
31
0.0
0
LINE
8
0
10
395.91962
20
447.18155
30
0.0
11
809.29065
21
301.2561
31
0.0
0
LINE
8
0
10
809.29065
20
301.2561
30
0.0
11
397.1603
21
555.6338
31
0.0
0
LINE
8
0
10
397.1603
20
555.6338
30
0.0
11
782.5495
21
184.45396
31
0.0
0
LINE
8
0
10
782.5495
20
184.45396
30
0.0
11
453.3927
21
675.48096
31
0.0
0
LINE
8
0
10
453.3927
20
675.48096
30
0.0
11
693.76483
21
68.22781
31
0.0
0
LINE
8
0
10
693.76483
20
68.22781
30
0.0
11
576.47626
21
780.172
31
0.0
0
LINE
8
0
10
576.47626
20
780.172
30
0.0
11
536.3518
21
-15.976105
31
0.0
0
LINE
8
0
10
536.3518
20
-15.976105
30
0.0
11
766.1527
21
834.21533
31
0.0
0
LINE
8
0
10
766.1527
20
834.21533
30
0.0
11
318.89926
21
-29.896454
31
0.0
0
LINE
8
0
10
318.89926
20
-29.896454
30
0.0
11
1004.1936
21
798.3117
31
0.0
0
LINE
8
0
10
1004.1936
20
798.3117
30
0.0
11
70.30286
21
64.62152
31
0.0
0
LINE
8
0
10
70.30286
20
64.62152
30
0.0
11
1250.4609
21
638.03406
31
0.0
0
LINE
8
0
10
1250.4609
20
638.03406
30
0.0
11
-158.04877
21
295.36487
31
0.0
0
LINE
8
0
10
-158.04877
20
295.36487
30
0.0
11
1442.9626
21
335.41782
31
0.0
0
LINE
8
0
10
1442.9626
20
335.41782
30
0.0
11
-295.0077
21
667.1727
31
0.0
0
LINE
8
0
10
-295.0077
20
667.1727
30
0.0
11
1503.7479
21
-98.09723
31
0.0
0
LINE
8
0
10
1503.7479
20
-98.09723
30
0.0
11
-259.09595
21
1149.4702
31
0.0
0
LINE
8
0
10
-259.09595
20
1149.4702
30
0.0
11
1351.9922
21
-610.4268
31
0.0
0
LINE
8
0
10
1351.9922
20
-610.4268
30
0.0
11
24.753723
21
1667.0798
31
0.0
0
LINE
8
0
10
24.753723
20
1667.0798
30
0.0
11
924.3013
21
-1102.7858
31
0.0
0
LINE
8
0
10
924.3013
20
-1102.7858
30
0.0
11
601.8491
21
2098.496
31
0.0
0
LINE
8
0
10
601.8491
20
2098.496
30
0.0
11
200.1705
21
-1433.4086
31
0.0
0
LINE
8
0
10
200.1705
20
-1433.4086
30
0.0
11
1461.1521
21
2285.8408
31
0.0
0
LINE
8
0
10
1461.1521
20
2285.8408
30
0.0
11
-771.4877
21
-1434.4104
31
0.0
0
LINE
8
0
10
-771.4877
20
-1434.4104
30
0.0
11
2510.443
21
2059.3477
31
0.0
0
LINE
8
0
10
2510.443
20
2059.3477
30
0.0
11
-1851.3413
21
-944.0969
31
0.0
0
LINE
8
0
10
-1851.3413
20
-944.0969
30
0.0
11
3561.501
21
1277.0326
31
0.0
0
LINE
8
0
10
3561.501
20
1277.0326
30
0.0
11
-2802.9182
21
146.7949
31
0.0
0
LINE
8
0
10
-2802.9182
20
146.7949
30
0.0
11
4333.3887
21
-123.67224
31
0.0
0
LINE
8
0
10
4333.3887
20
-123.67224
30
0.0
11
-3308.228
21
1839.8604
31
0.0
0
LINE
8
0
10
-3308.228
20
1839.8604
30
0.0
11
4482.4033
21
-2070.0076
31
0.0
0
LINE
8
0
10
4482.4033
20
-2070.0076
30
0.0
11
-3013.2334
21
3976.1936
31
0.0
0
LINE
8
0
10
-3013.2334
20
3976.1936
30
0.0
11
3663.444
21
-4307.527
31
0.0
0
LINE
8
0
10
3663.444
20
-4307.527
30
0.0
11
-1604.9282
21
6200.189
31
0.0
0
LINE
8
0
10
-1604.9282
20
6200.189
30
0.0
11
1622.0706
21
-6378.8335
31
0.0
0
LINE
8
0
10
600.7714
20
406.35333
30
0.0
11
597.67896
21
393.32108
31
0.0
0
LINE
8
0
10
597.67896
20
393.32108
30
0.0
11
604.0704
21
406.66748
31
0.0
0
LINE
8
0
10
604.0704
20
406.66748
30
0.0
11
594.04364
21
393.75458
31
0.0
0
LINE
8
0
10
594.04364
20
393.75458
30
0.0
11
607.89386
21
405.34796
31
0.0
0
LINE
8
0
10
607.89386
20
405.34796
30
0.0
11
590.2245
21
396.07483
31
0.0
0
LINE
8
0
10
590.2245
20
396.07483
30
0.0
11
611.4739
21
401.94827
31
0.0
0
LINE
8
0
10
611.4739
20
401.94827
30
0.0
11
587.1555
21
400.58395
31
0.0
0
LINE
8
0
10
587.1555
20
400.58395
30
0.0
11
613.73126
21
396.36102
31
0.0
0
LINE
8
0
10
613.73126
20
396.36102
30
0.0
11
586.0269
21
407.14517
31
0.0
0
LINE
8
0
10
586.0269
20
407.14517
30
0.0
11
613.41296
21
389.0126
31
0.0
0
LINE
8
0
10
613.41296
20
389.0126
30
0.0
11
588.09174
21
415.0046
31
0.0
0
LINE
8
0
10
588.09174
20
415.0046
30
0.0
11
609.3428
21
381.01056
31
0.0
0
LINE
8
0
10
609.3428
20
381.01056
30
0.0
11
594.3606
21
422.69095
31
0.0
0
LINE
8
0
10
594.3606
20
422.69095
30
0.0
11
600.774
21
374.18
31
0.0
0
LINE
8
0
10
600.774
20
374.18
30
0.0
11
605.212
21
428.05878
31
0.0
0
LINE
8
0
10
605.212
20
428.05878
30
0.0
11
587.8006
21
370.92612
31
0.0
0
LINE
8
0
10
587.8006
20
370.92612
30
0.0
11
619.9814
21
428.5332
31
0.0
0
LINE
8
0
10
619.9814
20
428.5332
30
0.0
11
571.7432
21
373.87317
31
0.0
0
LINE
8
0
10
571.7432
20
373.87317
30
0.0
11
636.62805
21
421.59027
31
0.0
0
LINE
8
0
10
636.62805
20
421.59027
30
0.0
11
555.39624
21
385.26855
31
0.0
0
LINE
8
0
10
555.39624
20
385.26855
30
0.0
11
651.6085
21
405.45813
31
0.0
0
LINE
8
0
10
651.6085
20
405.45813
30
0.0
11
543.0006
21
406.19525
31
0.0
0
LINE
8
0
10
543.0006
20
406.19525
30
0.0
11
660.09045
21
379.96075
31
0.0
0
LINE
8
0
10
660.09045
20
379.96075
30
0.0
11
539.8149
21
435.71088
31
0.0
0
LINE
8
0
10
539.8149
20
435.71088
30
0.0
11
656.6166
21
347.34653
31
0.0
0
LINE
8
0
10
656.6166
20
347.34653
30
0.0
11
551.2048
21
470.1103
31
0.0
0
LINE
8
0
10
551.2048
20
470.1103
30
0.0
11
636.2611
21
312.87354
31
0.0
0
LINE
8
0
10
636.2611
20
312.87354
30
0.0
11
581.2567
21
502.56253
31
0.0
0
LINE
8
0
10
581.2567
20
502.56253
30
0.0
11
596.2131
21
284.87457
31
0.0
0
LINE
8
0
10
596.2131
20
284.87457
30
0.0
11
631.0541
21
523.4123
31
0.0
0
LINE
8
0
10
631.0541
20
523.4123
30
0.0
11
537.5649
21
274.02725
31
0.0
0
LINE
8
0
10
537.5649
20
274.02725
30
0.0
11
696.91736
21
521.3862
31
0.0
0
LINE
8
0
10
696.91736
20
521.3862
30
0.0
11
466.9278
21
291.64166
31
0.0
0
LINE
8
0
10
466.9278
20
291.64166
30
0.0
11
769.0572
21
485.8226
31
0.0
0
LINE
8
0
10
769.0572
20
485.8226
30
0.0
11
397.36945
21
346.93628
31
0.0
0
LINE
8
0
10
397.36945
20
346.93628
30
0.0
11
831.2062
21
409.83066
31
0.0
0
LINE
8
0
10
831.2062
20
409.83066
30
0.0
11
348.06775
21
443.54254
31
0.0
0
LINE
8
0
10
348.06775
20
443.54254
30
0.0
11
861.80884
21
293.97852
31
0.0
0
LINE
8
0
10
861.80884
20
293.97852
30
0.0
11
342.16324
21
575.79443
31
0.0
0
LINE
8
0
10
342.16324
20
575.79443
30
0.0
11
837.2069
21
149.80507
31
0.0
0
LINE
8
0
10
837.2069
20
149.80507
30
0.0
11
402.49347
21
725.692
31
0.0
0
LINE
8
0
10
402.49347
20
725.692
30
0.0
11
736.9562
21
2.092682
31
0.0
0
LINE
8
0
10
736.9562
20
2.092682
30
0.0
11
545.33093
21
861.6936
31
0.0
0
LINE
8
0
10
545.33093
20
861.6936
30
0.0
11
550.8806
21
-111.28842
31
0.0
0
LINE
8
0
10
550.8806
20
-111.28842
30
0.0
11
772.7909
21
940.52563
31
0.0
0
LINE
8
0
10
772.7909
20
940.52563
30
0.0
11
286.8347
21
-143.12549
31
0.0
0
LINE
8
0
10
286.8347
20
-143.12549
30
0.0
11
1065.3345
21
913.05304
31
0.0
0
LINE
8
0
10
1065.3345
20
913.05304
30
0.0
11
-22.592407
21
-44.93277
31
0.0
0
LINE
8
0
10
-22.592407
20
-44.93277
30
0.0
11
1376.4191
21
734.5597
31
0.0
0
LINE
8
0
10
1376.4191
20
734.5597
30
0.0
11
-316.6513
21
220.63872
31
0.0
0
LINE
8
0
10
-316.6513
20
220.63872
30
0.0
11
1631.7064
21
378.94965
31
0.0
0
LINE
8
0
10
1631.7064
20
378.94965
30
0.0
11
-508.9879
21
664.38086
31
0.0
0
LINE
8
0
10
-508.9879
20
664.38086
30
0.0
11
1735.4249
21
-145.2201
31
0.0
0
LINE
8
0
10
1735.4249
20
-145.2201
30
0.0
11
-498.19678
21
1254.613
31
0.0
0
LINE
8
0
10
-498.19678
20
1254.613
30
0.0
11
1585.5342
21
-779.9403
31
0.0
0
LINE
8
0
10
1585.5342
20
-779.9403
30
0.0
11
-187.69354
21
1904.8029
31
0.0
0
LINE
8
0
10
-187.69354
20
1904.8029
30
0.0
11
1097.9963
21
-1409.2128
31
0.0
0
LINE
8
0
10
1097.9963
20
-1409.2128
30
0.0
11
486.11786
21
2470.0264
31
0.0
0
LINE
8
0
10
486.11786
20
2470.0264
30
0.0
11
238.10153
21
-1861.6521
31
0.0
0
LINE
8
0
10
238.10153
20
-1861.6521
30
0.0
11
1520.4756
21
2757.1067
31
0.0
0
LINE
8
0
10
1520.4756
20
2757.1067
30
0.0
11
-945.9214
21
-1929.334
31
0.0
0
LINE
8
0
10
-945.9214
20
-1929.334
30
0.0
11
2814.7014
21
2552.8525
31
0.0
0
LINE
8
0
10
2814.7014
20
2552.8525
30
0.0
11
-2295.4636
21
-1405.6174
31
0.0
0
LINE
8
0
10
-2295.4636
20
-1405.6174
30
0.0
11
4149.1143
21
1671.3043
31
0.0
0
LINE
8
0
10
4149.1143
20
1671.3043
30
0.0
11
-3529.7002
21
-141.31189
31
0.0
0
LINE
8
0
10
-3529.7002
20
-141.31189
30
0.0
11
5185.5674
21
17.160767
31
0.0
0
LINE
8
0
10
5185.5674
20
17.160767
30
0.0
11
-4261.3
21
1887.408
31
0.0
0
LINE
8
0
10
-4261.3
20
1887.408
30
0.0
11
5500.2427
21
-2344.6536
31
0.0
0
LINE
8
0
10
5500.2427
20
-2344.6536
30
0.0
11
-4047.8506
21
4511.13
31
0.0
0
LINE
8
0
10
-4047.8506
20
4511.13
30
0.0
11
4655.2803
21
-5127.378
31
0.0
0
LINE
8
0
10
597.7305
20
405.9841
30
0.0
11
601.0487
21
393.00748
31
0.0
0
LINE
8
0
10
601.0487
20
393.00748
30
0.0
11
600.50555
21
407.79535
31
0.0
0
LINE
8
0
10
600.50555
20
407.79535
30
0.0
11
597.6283
21
391.70187
31
0.0
0
LINE
8
0
10
597.6283
20
391.70187
30
0.0
11
604.50433
21
408.40384
31
0.0
0
LINE
8
0
10
604.50433
20
408.40384
30
0.0
11
593.16833
21
391.98154
31
0.0
0
LINE
8
0
10
593.16833
20
391.98154
30
0.0
11
609.2542
21
407.05728
31
0.0
0
LINE
8
0
10
609.2542
20
407.05728
30
0.0
11
588.3554
21
394.5479
31
0.0
0
LINE
8
0
10
588.3554
20
394.5479
30
0.0
11
613.84955
21
403.1591
31
0.0
0
LINE
8
0
10
613.84955
20
403.1591
30
0.0
11
584.3069
21
399.8331
31
0.0
0
LINE
8
0
10
584.3069
20
399.8331
30
0.0
11
616.9827
21
396.50452
31
0.0
0
LINE
8
0
10
616.9827
20
396.50452
30
0.0
11
582.4827
21
407.7518
31
0.0
0
LINE
8
0
10
582.4827
20
407.7518
30
0.0
11
617.0974
21
387.5275
31
0.0
0
LINE
8
0
10
617.0974
20
387.5275
30
0.0
11
584.46155
21
417.47107
31
0.0
0
LINE
8
0
10
584.46155
20
417.47107
30
0.0
11
612.6846
21
377.49725
31
0.0
0
LINE
8
0
10
612.6846
20
377.49725
30
0.0
11
591.57544
21
427.26694
31
0.0
0
LINE
8
0
10
591.57544
20
427.26694
30
0.0
11
602.7093
21
368.587
31
0.0
0
LINE
8
0
10
602.7093
20
368.587
30
0.0
11
604.4325
21
434.55075
31
0.0
0
LINE
8
0
10
604.4325
20
434.55075
30
0.0
11
587.12164
21
363.73425
31
0.0
0
LINE
8
0
10
587.12164
20
363.73425
30
0.0
11
622.399
21
436.13913
31
0.0
0
LINE
8
0
10
622.399
20
436.13913
30
0.0
11
567.3515
21
366.22742
31
0.0
0
LINE
8
0
10
567.3515
20
366.22742
30
0.0
11
643.1606
21
428.81662
31
0.0
0
LINE
8
0
10
643.1606
20
428.81662
30
0.0
11
546.65063
21
378.99628
31
0.0
0
LINE
8
0
10
546.65063
20
378.99628
30
0.0
11
662.5202
21
410.18158
31
0.0
0
LINE
8
0
10
662.5202
20
410.18158
30
0.0
11
530.11304
21
403.65097
31
0.0
0
LINE
8
0
10
530.11304
20
403.65097
30
0.0
11
674.60077
21
379.68872
31
0.0
0
LINE
8
0
10
674.60077
20
379.68872
30
0.0
11
524.2121
21
439.4033
31
0.0
0
LINE
8
0
10
524.2121
20
439.4033
30
0.0
11
672.59735
21
339.70474
31
0.0
0
LINE
8
0
10
672.59735
20
339.70474
30
0.0
11
535.7405
21
482.10416
31
0.0
0
LINE
8
0
10
535.7405
20
482.10416
30
0.0
11
650.1491
21
296.30203
31
0.0
0
LINE
8
0
10
650.1491
20
296.30203
30
0.0
11
570.1445
21
523.7077
31
0.0
0
LINE
8
0
10
570.1445
20
523.7077
30
0.0
11
603.2589
21
259.44165
31
0.0
0
LINE
8
0
10
603.2589
20
259.44165
30
0.0
11
629.405
21
552.522
31
0.0
0
LINE
8
0
10
629.405
20
552.522
30
0.0
11
532.5271
21
242.21172
31
0.0
0
LINE
8
0
10
532.5271
20
242.21172
30
0.0
11
709.80774
21
554.5578
31
0.0
0
LINE
8
0
10
709.80774
20
554.5578
30
0.0
11
445.23956
21
258.8473
31
0.0
0
LINE
8
0
10
445.23956
20
258.8473
30
0.0
11
800.15436
21
516.15155
31
0.0
0
LINE
8
0
10
800.15436
20
516.15155
30
0.0
11
356.68982
21
321.4762
31
0.0
0
LINE
8
0
10
356.68982
20
321.4762
30
0.0
11
881.0908
21
427.7913
31
0.0
0
LINE
8
0
10
881.0908
20
427.7913
30
0.0
11
290.00085
21
435.8331
31
0.0
0
LINE
8
0
10
290.00085
20
435.8331
30
0.0
11
926.3077
21
288.69897
31
0.0
0
LINE
8
0
10
926.3077
20
288.69897
30
0.0
11
273.75998
21
596.60004
31
0.0
0
LINE
8
0
10
273.75998
20
596.60004
30
0.0
11
906.1854
21
111.31735
31
0.0
0
LINE
8
0
10
906.1854
20
111.31735
30
0.0
11
337.03314
21
783.4033
31
0.0
0
LINE
8
0
10
337.03314
20
783.4033
30
0.0
11
794.1146
21
-75.55032
31
0.0
0
LINE
8
0
10
794.1146
20
-75.55032
30
0.0
11
501.8038
21
958.91156
31
0.0
0
LINE
8
0
10
501.8038
20
958.91156
30
0.0
11
575.109
21
-226.44891
31
0.0
0
LINE
8
0
10
575.109
20
-226.44891
30
0.0
11
773.60547
21
1070.5377
31
0.0
0
LINE
8
0
10
773.60547
20
1070.5377
30
0.0
11
255.50293
21
-283.30682
31
0.0
0
LINE
8
0
10
255.50293
20
-283.30682
30
0.0
11
1132.0072
21
1057.058
31
0.0
0
LINE
8
0
10
1132.0072
20
1057.058
30
0.0
11
-128.3009
21
-184.80579
31
0.0
0
LINE
8
0
10
-128.3009
20
-184.80579
30
0.0
11
1523.3132
21
860.81885
31
0.0
0
LINE
8
0
10
1523.3132
20
860.81885
30
0.0
11
-504.82385
21
118.72507
31
0.0
0
LINE
8
0
10
-504.82385
20
118.72507
30
0.0
11
1858.7445
21
444.9093
31
0.0
0
LINE
8
0
10
1858.7445
20
444.9093
30
0.0
11
-769.5635
21
646.36444
31
0.0
0
LINE
8
0
10
-769.5635
20
646.36444
30
0.0
11
2020.9928
21
-186.78442
31
0.0
0
LINE
8
0
10
2020.9928
20
-186.78442
30
0.0
11
-796.7849
21
1366.3771
31
0.0
0
LINE
8
0
10
-796.7849
20
1366.3771
30
0.0
11
1881.7372
21
-970.5475
31
0.0
0
LINE
8
0
10
1881.7372
20
-970.5475
30
0.0
11
-462.85437
21
2179.9773
31
0.0
0
LINE
8
0
10
-462.85437
20
2179.9773
30
0.0
11
1330.5974
21
-1770.7759
31
0.0
0
LINE
8
0
10
1330.5974
20
-1770.7759
30
0.0
11
319.63812
21
2914.8806
31
0.0
0
LINE
8
0
10
319.63812
20
2914.8806
30
0.0
11
313.65063
21
-2380.9485
31
0.0
0
LINE
8
0
10
313.65063
20
-2380.9485
30
0.0
11
1560.5396
21
3335.4792
31
0.0
0
LINE
8
0
10
1560.5396
20
3335.4792
30
0.0
11
-1124.6481
21
-2544.4106
31
0.0
0
LINE
8
0
10
-1124.6481
20
-2544.4106
30
0.0
11
3151.7793
21
3175.04
31
0.0
0
LINE
8
0
10
3151.7793
20
3175.04
30
0.0
11
-2805.1077
21
-1998.4761
31
0.0
0
LINE
8
0
10
-2805.1077
20
-1998.4761
30
0.0
11
4838.2324
21
2192.0332
31
0.0
0
LINE
8
0
10
4838.2324
20
2192.0332
30
0.0
11
-4395.6997
21
-542.1253
31
0.0
0
LINE
8
0
10
-4395.6997
20
-542.1253
30
0.0
11
6214.4556
21
247.07303
31
0.0
0
LINE
8
0
10
6214.4556
20
247.07303
30
0.0
11
-5426.005
21
1880.2601
31
0.0
0
LINE
8
0
10
-5426.005
20
1880.2601
30
0.0
11
6759.474
21
-2609.6663
31
0.0
0
LINE
8
0
10
595.20953
20
404.244
30
0.0
11
604.17816
21
394.29578
31
0.0
0
LINE
8
0
10
604.17816
20
394.29578
30
0.0
11
596.82495
21
407.1374
31
0.0
0
LINE
8
0
10
596.82495
20
407.1374
30
0.0
11
601.7563
21
391.5502
31
0.0
0
LINE
8
0
10
601.7563
20
391.5502
30
0.0
11
600.08295
21
409.53452
31
0.0
0
LINE
8
0
10
600.08295
20
409.53452
30
0.0
11
597.67725
21
389.72516
31
0.0
0
LINE
8
0
10
597.67725
20
389.72516
30
0.0
11
604.9145
21
410.54956
31
0.0
0
LINE
8
0
10
604.9145
20
410.54956
30
0.0
11
592.2229
21
389.7609
31
0.0
0
LINE
8
0
10
592.2229
20
389.7609
30
0.0
11
610.79504
21
409.23343
31
0.0
0
LINE
8
0
10
610.79504
20
409.23343
30
0.0
11
586.182
21
392.5593
31
0.0
0
LINE
8
0
10
586.182
20
392.5593
30
0.0
11
616.66187
21
404.79712
31
0.0
0
LINE
8
0
10
616.66187
20
404.79712
30
0.0
11
580.8868
21
398.72327
31
0.0
0
LINE
8
0
10
580.8868
20
398.72327
30
0.0
11
620.9353
21
396.90164
31
0.0
0
LINE
8
0
10
620.9353
20
396.90164
30
0.0
11
578.1222
21
408.24887
31
0.0
0
LINE
8
0
10
578.1222
20
408.24887
30
0.0
11
621.6891
21
385.96954
31
0.0
0
LINE
8
0
10
621.6891
20
385.96954
30
0.0
11
579.8689
21
420.22864
31
0.0
0
LINE
8
0
10
579.8689
20
420.22864
30
0.0
11
616.9972
21
373.44418
31
0.0
0
LINE
8
0
10
616.9972
20
373.44418
30
0.0
11
587.86835
21
432.65308
31
0.0
0
LINE
8
0
10
587.86835
20
432.65308
30
0.0
11
605.45013
21
361.90338
31
0.0
0
LINE
8
0
10
605.45013
20
361.90338
30
0.0
11
603.0388
21
442.40894
31
0.0
0
LINE
8
0
10
603.0388
20
442.40894
30
0.0
11
586.78595
21
354.9234
31
0.0
0
LINE
8
0
10
586.78595
20
354.9234
30
0.0
11
624.8252
21
445.5735
31
0.0
0
LINE
8
0
10
624.8252
20
445.5735
30
0.0
11
562.5221
21
356.6097
31
0.0
0
LINE
8
0
10
562.5221
20
356.6097
30
0.0
11
650.62756
21
438.06955
31
0.0
0
LINE
8
0
10
650.62756
20
438.06955
30
0.0
11
536.4215
21
370.7547
31
0.0
0
LINE
8
0
10
536.4215
20
370.7547
30
0.0
11
675.4948
21
416.68396
31
0.0
0
LINE
8
0
10
675.4948
20
416.68396
30
0.0
11
514.58154
21
399.66946
31
0.0
0
LINE
8
0
10
514.58154
20
399.66946
30
0.0
11
692.30237
21
380.34888
31
0.0
0
LINE
8
0
10
692.30237
20
380.34888
30
0.0
11
504.94528
21
442.8367
31
0.0
0
LINE
8
0
10
504.94528
20
442.8367
30
0.0
11
692.5957
21
331.48547
31
0.0
0
LINE
8
0
10
692.5957
20
331.48547
30
0.0
11
516.0744
21
495.66315
31
0.0
0
LINE
8
0
10
516.0744
20
495.66315
30
0.0
11
668.2064
21
277.05627
31
0.0
0
LINE
8
0
10
668.2064
20
277.05627
30
0.0
11
555.1564
21
548.7167
31
0.0
0
LINE
8
0
10
555.1564
20
548.7167
30
0.0
11
613.5836
21
228.9292
31
0.0
0
LINE
8
0
10
613.5836
20
228.9292
30
0.0
11
625.4033
21
587.88434
31
0.0
0
LINE
8
0
10
625.4033
20
587.88434
30
0.0
11
528.5634
21
203.09468
31
0.0
0
LINE
8
0
10
528.5634
20
203.09468
30
0.0
11
723.2495
21
595.86346
31
0.0
0
LINE
8
0
10
723.2495
20
595.86346
30
0.0
11
421.0528
21
217.39735
31
0.0
0
LINE
8
0
10
421.0528
20
217.39735
30
0.0
11
835.9783
21
555.2374
31
0.0
0
LINE
8
0
10
835.9783
20
555.2374
30
0.0
11
308.85693
21
287.6648
31
0.0
0
LINE
8
0
10
308.85693
20
287.6648
30
0.0
11
940.6553
21
453.09064
31
0.0
0
LINE
8
0
10
940.6553
20
453.09064
30
0.0
11
219.76422
21
422.46933
31
0.0
0
LINE
8
0
10
219.76422
20
422.46933
30
0.0
11
1005.27216
21
286.67883
31
0.0
0
LINE
8
0
10
1005.27216
20
286.67883
30
0.0
11
188.97632
21
617.27673
31
0.0
0
LINE
8
0
10
188.97632
20
617.27673
30
0.0
11
992.8793
21
69.13074
31
0.0
0
LINE
8
0
10
992.8793
20
69.13074
30
0.0
11
253.31235
21
849.25757
31
0.0
0
LINE
8
0
10
253.31235
20
849.25757
30
0.0
11
869.0856
21
-166.26031
31
0.0
0
LINE
8
0
10
869.0856
20
-166.26031
30
0.0
11
442.10547
21
1074.4102
31
0.0
0
LINE
8
0
10
442.10547
20
1074.4102
30
0.0
11
612.51166
21
-365.1339
31
0.0
0
LINE
8
0
10
612.51166
20
-365.1339
30
0.0
11
765.71875
21
1229.032
31
0.0
0
LINE
8
0
10
765.71875
20
1229.032
30
0.0
11
226.89447
21
-456.2782
31
0.0
0
LINE
8
0
10
226.89447
20
-456.2782
30
0.0
11
1203.3999
21
1237.12
31
0.0
0
LINE
8
0
10
1203.3999
20
1237.12
30
0.0
11
-247.5578
21
-362.49402
31
0.0
0
LINE
8
0
10
-247.5578
20
-362.49402
30
0.0
11
1693.6924
21
1024.7332
31
0.0
0
LINE
8
0
10
1693.6924
20
1024.7332
30
0.0
11
-727.17944
21
-18.323242
31
0.0
0
LINE
8
0
10
-727.17944
20
-18.323242
30
0.0
11
2130.919
21
540.7968
31
0.0
0
LINE
8
0
10
2130.919
20
540.7968
30
0.0
11
-1085.8895
21
606.56573
31
0.0
0
LINE
8
0
10
-1085.8895
20
606.56573
30
0.0
11
2371.8472
21
-217.90625
31
0.0
0
LINE
8
0
10
2371.8472
20
-217.90625
30
0.0
11
-1168.3077
21
1482.1582
31
0.0
0
LINE
8
0
10
-1168.3077
20
1482.1582
30
0.0
11
2255.722
21
-1182.6007
31
0.0
0
LINE
8
0
10
2255.722
20
-1182.6007
30
0.0
11
-816.9719
21
2496.5254
31
0.0
0
LINE
8
0
10
-816.9719
20
2496.5254
30
0.0
11
1638.8219
21
-2195.4807
31
0.0
0
LINE
8
0
10
1638.8219
20
-2195.4807
30
0.0
11
86.32959
21
3445.6228
31
0.0
0
LINE
8
0
10
86.32959
20
3445.6228
30
0.0
11
441.2365
21
-3008.6301
31
0.0
0
LINE
8
0
10
441.2365
20
-3008.6301
30
0.0
11
1569.8622
21
4043.0474
31
0.0
0
LINE
8
0
10
1569.8622
20
4043.0474
30
0.0
11
-1300.445
21
-3306.1777
31
0.0
0
LINE
8
0
10
-1300.445
20
-3306.1777
30
0.0
11
3519.9683
21
3956.3718
31
0.0
0
LINE
8
0
10
3519.9683
20
3956.3718
30
0.0
11
-3385.6445
21
-2755.8289
31
0.0
0
LINE
8
0
10
-3385.6445
20
-2755.8289
30
0.0
11
5642.422
21
2873.7585
31
0.0
0
LINE
8
0
10
5642.422
20
2873.7585
30
0.0
11
-5423.673
21
-1089.72
31
0.0
0
LINE
8
0
10
-5423.673
20
-1089.72
30
0.0
11
7452.605
21
597.5245
31
0.0
0
LINE
8
0
10
593.78595
20
401.53162
30
0.0
11
606.35046
21
396.89084
31
0.0
0
LINE
8
0
10
606.35046
20
396.89084
30
0.0
11
593.87177
21
404.84433
31
0.0
0
LINE
8
0
10
593.87177
20
404.84433
30
0.0
11
605.48193
21
393.33423
31
0.0
0
LINE
8
0
10
605.48193
20
393.33423
30
0.0
11
595.6425
21
408.48093
31
0.0
0
LINE
8
0
10
595.6425
20
408.48093
30
0.0
11
602.71826
21
389.82263
31
0.0
0
LINE
8
0
10
602.71826
20
389.82263
30
0.0
11
599.449
21
411.62503
31
0.0
0
LINE
8
0
10
599.449
20
411.62503
30
0.0
11
597.8721
21
387.31955
31
0.0
0
LINE
8
0
10
597.8721
20
387.31955
30
0.0
11
605.2676
21
413.1925
31
0.0
0
LINE
8
0
10
605.2676
20
413.1925
30
0.0
11
591.22266
21
386.99005
31
0.0
0
LINE
8
0
10
591.22266
20
386.99005
30
0.0
11
612.52405
21
411.9908
31
0.0
0
LINE
8
0
10
612.52405
20
411.9908
30
0.0
11
583.66943
21
389.98718
31
0.0
0
LINE
8
0
10
583.66943
20
389.98718
30
0.0
11
619.9772
21
406.98566
31
0.0
0
LINE
8
0
10
619.9772
20
406.98566
30
0.0
11
576.79474
21
397.13678
31
0.0
0
LINE
8
0
10
576.79474
20
397.13678
30
0.0
11
625.72504
21
397.65607
31
0.0
0
LINE
8
0
10
625.72504
20
397.65607
30
0.0
11
572.77405
21
408.55618
31
0.0
0
LINE
8
0
10
572.77405
20
408.55618
30
0.0
11
627.3914
21
384.38507
31
0.0
0
LINE
8
0
10
627.3914
20
384.38507
30
0.0
11
574.0833
21
423.275
31
0.0
0
LINE
8
0
10
574.0833
20
423.275
30
0.0
11
622.5303
21
368.79993
31
0.0
0
LINE
8
0
10
622.5303
20
368.79993
30
0.0
11
582.9822
21
438.96338
31
0.0
0
LINE
8
0
10
582.9822
20
438.96338
30
0.0
11
609.2477
21
353.94577
31
0.0
0
LINE
8
0
10
609.2477
20
353.94577
30
0.0
11
600.80255
21
451.89014
31
0.0
0
LINE
8
0
10
600.80255
20
451.89014
30
0.0
11
586.97943
21
344.16293
31
0.0
0
LINE
8
0
10
586.97943
20
344.16293
30
0.0
11
627.1362
21
457.2369
31
0.0
0
LINE
8
0
10
627.1362
20
457.2369
30
0.0
11
557.29504
21
344.55817
31
0.0
0
LINE
8
0
10
557.29504
20
344.55817
30
0.0
11
659.0939
21
449.85712
31
0.0
0
LINE
8
0
10
659.0939
20
449.85712
30
0.0
11
524.5193
21
360.01135
31
0.0
0
LINE
8
0
10
524.5193
20
360.01135
30
0.0
11
690.8618
21
425.49557
31
0.0
0
LINE
8
0
10
690.8618
20
425.49557
30
0.0
11
495.92603
21
393.75586
31
0.0
0
LINE
8
0
10
495.92603
20
393.75586
30
0.0
11
713.8297
21
382.3648
31
0.0
0
LINE
8
0
10
713.8297
20
382.3648
30
0.0
11
481.23068
21
445.7033
31
0.0
0
LINE
8
0
10
481.23068
20
445.7033
30
0.0
11
717.52856
21
322.83585
31
0.0
0
LINE
8
0
10
717.52856
20
322.83585
30
0.0
11
491.18
21
510.84134
31
0.0
0
LINE
8
0
10
491.18
20
510.84134
30
0.0
11
691.5283
21
254.83696
31
0.0
0
LINE
8
0
10
691.5283
20
254.83696
30
0.0
11
535.17926
21
578.1688
31
0.0
0
LINE
8
0
10
535.17926
20
578.1688
30
0.0
11
628.25256
21
192.45076
31
0.0
0
LINE
8
0
10
628.25256
20
192.45076
30
0.0
11
618.1097
21
630.70544
31
0.0
0
LINE
8
0
10
618.1097
20
630.70544
30
0.0
11
526.40985
21
155.15248
31
0.0
0
LINE
8
0
10
526.40985
20
155.15248
30
0.0
11
736.8059
21
647.1205
31
0.0
0
LINE
8
0
10
736.8059
20
647.1205
30
0.0
11
394.41046
21
165.23114
31
0.0
0
LINE
8
0
10
394.41046
20
165.23114
30
0.0
11
876.96277
21
605.3199
31
0.0
0
LINE
8
0
10
876.96277
20
605.3199
30
0.0
11
252.87595
21
243.19115
31
0.0
0
LINE
8
0
10
252.87595
20
243.19115
30
0.0
11
1011.5137
21
487.99854
31
0.0
0
LINE
8
0
10
1011.5137
20
487.99854
30
0.0
11
135.08307
21
401.37668
31
0.0
0
LINE
8
0
10
135.08307
20
401.37668
30
0.0
11
1101.6399
21
289.61002
31
0.0
0
LINE
8
0
10
1101.6399
20
289.61002
30
0.0
11
84.24292
21
636.6839
31
0.0
0
LINE
8
0
10
84.24292
20
636.6839
30
0.0
11
1101.4178
21
23.651764
31
0.0
0
LINE
8
0
10
1101.4178
20
23.651764
30
0.0
11
146.77725
21
923.78314
31
0.0
0
LINE
8
0
10
146.77725
20
923.78314
30
0.0
11
966.6541
21
-271.67792
31
0.0
0
LINE
8
0
10
966.6541
20
-271.67792
30
0.0
11
361.4661
21
1211.0847
31
0.0
0
LINE
8
0
10
361.4661
20
1211.0847
30
0.0
11
667.56396
21
-531.5874
31
0.0
0
LINE
8
0
10
667.56396
20
-531.5874
30
0.0
11
745.25476
21
1421.6469
31
0.0
0
LINE
8
0
10
745.25476
20
1421.6469
30
0.0
11
203.87366
21
-669.0348
31
0.0
0
LINE
8
0
10
203.87366
20
-669.0348
30
0.0
11
1278.0884
21
1461.4381
31
0.0
0
LINE
8
0
10
1278.0884
20
1461.4381
30
0.0
11
-380.75433
21
-587.1781
31
0.0
0
LINE
8
0
10
-380.75433
20
-587.1781
30
0.0
11
1890.1298
21
1236.1232
31
0.0
0
LINE
8
0
10
1890.1298
20
1236.1232
30
0.0
11
-988.77673
21
-200.56732
31
0.0
0
LINE
8
0
10
-988.77673
20
-200.56732
30
0.0
11
2456.048
21
676.29004
31
0.0
0
LINE
8
0
10
2456.048
20
676.29004
30
0.0
11
-1468.6628
21
536.42957
31
0.0
0
LINE
8
0
10
-1468.6628
20
536.42957
30
0.0
11
2801.5403
21
-231.87054
31
0.0
0
LINE
8
0
10
2801.5403
20
-231.87054
30
0.0
11
-1628.9702
21
1597.8809
31
0.0
0
LINE
8
0
10
-1628.9702
20
1597.8809
30
0.0
11
2726.0115
21
-1415.419
31
0.0
0
LINE
8
0
10
2726.0115
20
-1415.419
30
0.0
11
-1270.2045
21
2858.0503
31
0.0
0
LINE
8
0
10
-1270.2045
20
2858.0503
30
0.0
11
2043.492
21
-2691.973
31
0.0
0
LINE
8
0
10
2043.492
20
-2691.973
30
0.0
11
-234.23883
21
4076.4753
31
0.0
0
LINE
8
0
10
-234.23883
20
4076.4753
30
0.0
11
639.58716
21
-3764.8384
31
0.0
0
LINE
8
0
10
639.58716
20
-3764.8384
30
0.0
11
1532.7744
21
4905.988
31
0.0
0
LINE
8
0
10
1532.7744
20
4905.988
30
0.0
11
-1462.5254
21
-4246.5693
31
0.0
0
LINE
8
0
10
-1462.5254
20
-4246.5693
30
0.0
11
3915.229
21
4933.7354
31
0.0
0
LINE
8
0
10
3915.229
20
4933.7354
30
0.0
11
-4041.3892
21
-3718.4229
31
0.0
0
LINE
8
0
10
-4041.3892
20
-3718.4229
30
0.0
11
6575.8857
21
3759.4648
31
0.0
0
LINE
8
0
10
593.78595
20
398.46838
30
0.0
11
607.06793
21
400.19818
31
0.0
0
LINE
8
0
10
607.06793
20
400.19818
30
0.0
11
592.32245
21
401.4415
31
0.0
0
LINE
8
0
10
592.32245
20
401.4415
30
0.0
11
607.9517
21
396.64536
31
0.0
0
LINE
8
0
10
607.9517
20
396.64536
30
0.0
11
592.2004
21
405.48447
31
0.0
0
LINE
8
0
10
592.2004
20
405.48447
30
0.0
11
607.13654
21
392.25162
31
0.0
0
LINE
8
0
10
607.13654
20
392.25162
30
0.0
11
594.1096
21
410.03738
31
0.0
0
LINE
8
0
10
594.1096
20
410.03738
30
0.0
11
604.0087
21
387.7831
31
0.0
0
LINE
8
0
10
604.0087
20
387.7831
30
0.0
11
598.5333
21
414.12933
31
0.0
0
LINE
8
0
10
598.5333
20
414.12933
30
0.0
11
598.2741
21
384.4012
31
0.0
0
LINE
8
0
10
598.2741
20
384.4012
30
0.0
11
605.5171
21
416.43753
31
0.0
0
LINE
8
0
10
605.5171
20
416.43753
30
0.0
11
590.1932
21
383.5449
31
0.0
0
LINE
8
0
10
590.1932
20
383.5449
30
0.0
11
614.44244
21
415.4694
31
0.0
0
LINE
8
0
10
614.44244
20
415.4694
30
0.0
11
580.7834
21
386.68073
31
0.0
0
LINE
8
0
10
580.7834
20
386.68073
30
0.0
11
623.8677
21
409.87958
31
0.0
0
LINE
8
0
10
623.8677
20
409.87958
30
0.0
11
571.9164
21
394.9235
31
0.0
0
LINE
8
0
10
571.9164
20
394.9235
30
0.0
11
631.5105
21
398.9031
31
0.0
0
LINE
8
0
10
631.5105
20
398.9031
30
0.0
11
566.2355
21
408.5649
31
0.0
0
LINE
8
0
10
566.2355
20
408.5649
30
0.0
11
634.44904
21
382.84418
31
0.0
0
LINE
8
0
10
634.44904
20
382.84418
30
0.0
11
566.8242
21
426.59177
31
0.0
0
LINE
8
0
10
566.8242
20
426.59177
30
0.0
11
629.5909
21
363.51862
31
0.0
0
LINE
8
0
10
629.5909
20
363.51862
30
0.0
11
576.59607
21
446.3194
31
0.0
0
LINE
8
0
10
576.59607
20
446.3194
30
0.0
11
614.4197
21
344.50778
31
0.0
0
LINE
8
0
10
614.4197
20
344.50778
30
0.0
11
597.4286
21
463.2916
31
0.0
0
LINE
8
0
10
597.4286
20
463.2916
30
0.0
11
587.9517
21
331.06268
31
0.0
0
LINE
8
0
10
587.9517
20
331.06268
30
0.0
11
629.1547
21
471.60883
31
0.0
0
LINE
8
0
10
629.1547
20
471.60883
30
0.0
11
551.74884
21
329.5142
31
0.0
0
LINE
8
0
10
551.74884
20
329.5142
30
0.0
11
668.6058
21
464.8008
31
0.0
0
LINE
8
0
10
668.6058
20
464.8008
30
0.0
11
510.74887
21
346.10547
31
0.0
0
LINE
8
0
10
510.74887
20
346.10547
30
0.0
11
708.9867
21
437.28415
31
0.0
0
LINE
8
0
10
708.9867
20
437.28415
30
0.0
11
473.5957
21
385.27243
31
0.0
0
LINE
8
0
10
473.5957
20
385.27243
30
0.0
11
739.9264
21
386.29282
31
0.0
0
LINE
8
0
10
739.9264
20
386.29282
30
0.0
11
452.1341
21
447.5739
31
0.0
0
LINE
8
0
10
452.1341
20
447.5739
30
0.0
11
748.50494
21
313.99988
31
0.0
0
LINE
8
0
10
748.50494
20
313.99988
30
0.0
11
459.8049
21
527.6369
31
0.0
0
LINE
8
0
10
459.8049
20
527.6369
30
0.0
11
721.47064
21
229.35483
31
0.0
0
LINE
8
0
10
721.47064
20
229.35483
30
0.0
11
508.82117
21
612.6955
31
0.0
0
LINE
8
0
10
508.82117
20
612.6955
30
0.0
11
648.62555
21
148.99924
31
0.0
0
LINE
8
0
10
648.62555
20
148.99924
30
0.0
11
606.2929
21
682.39124
31
0.0
0
LINE
8
0
10
606.2929
20
682.39124
30
0.0
11
527.0621
21
96.58026
31
0.0
0
LINE
8
0
10
527.0621
20
96.58026
30
0.0
11
749.819
21
710.5139
31
0.0
0
LINE
8
0
10
749.819
20
710.5139
30
0.0
11
365.50967
21
99.83603
31
0.0
0
LINE
8
0
10
365.50967
20
99.83603
30
0.0
11
923.4822
21
669.1588
31
0.0
0
LINE
8
0
10
923.4822
20
669.1588
30
0.0
11
187.69675
21
185.16124
31
0.0
0
LINE
8
0
10
187.69675
20
185.16124
30
0.0
11
1095.4788
21
535.38586
31
0.0
0
LINE
8
0
10
1095.4788
20
535.38586
30
0.0
11
33.32727
21
369.8888
31
0.0
0
LINE
8
0
10
33.32727
20
369.8888
30
0.0
11
1218.8812
21
299.7808
31
0.0
0
LINE
8
0
10
1218.8812
20
299.7808
30
0.0
11
-44.723022
21
653.1637
31
0.0
0
LINE
8
0
10
-44.723022
20
653.1637
30
0.0
11
1236.8005
21
-24.34845
31
0.0
0
LINE
8
0
10
1236.8005
20
-24.34845
30
0.0
11
11.849487
21
1007.3185
31
0.0
0
LINE
8
0
10
11.849487
20
1007.3185
30
0.0
11
1092.7554
21
-393.48108
31
0.0
0
LINE
8
0
10
1092.7554
20
-393.48108
30
0.0
11
253.83353
21
1372.1265
31
0.0
0
LINE
8
0
10
253.83353
20
1372.1265
30
0.0
11
746.053
21
-730.67236
31
0.0
0
LINE
8
0
10
746.053
20
-730.67236
30
0.0
11
707.1423
21
1654.9801
31
0.0
0
LINE
8
0
10
707.1423
20
1654.9801
30
0.0
11
190.37027
21
-929.8884
31
0.0
0
LINE
8
0
10
190.37027
20
-929.8884
30
0.0
11
1353.7871
21
1739.9036
31
0.0
0
LINE
8
0
10
1353.7871
20
1739.9036
30
0.0
11
-527.6942
21
-870.11755
31
0.0
0
LINE
8
0
10
-527.6942
20
-870.11755
30
0.0
11
2115.0503
21
1507.1915
31
0.0
0
LINE
8
0
10
2115.0503
20
1507.1915
30
0.0
11
-1295.1117
21
-440.5536
31
0.0
0
LINE
8
0
10
-1295.1117
20
-440.5536
30
0.0
11
2843.005
21
863.64795
31
0.0
0
LINE
8
0
10
2843.005
20
863.64795
30
0.0
11
-1930.3381
21
424.81616
31
0.0
0
LINE
8
0
10
-1930.3381
20
424.81616
30
0.0
11
3326.1572
21
-219.46625
31
0.0
0
LINE
8
0
10
3326.1572
20
-219.46625
30
0.0
11
-2198.2969
21
1707.3674
31
0.0
0
LINE
8
0
10
-2198.2969
20
1707.3674
30
0.0
11
3315.0605
21
-1666.9812
31
0.0
0
LINE
8
0
10
3315.0605
20
-1666.9812
30
0.0
11
-1847.2695
21
3267.6292
31
0.0
0
LINE
8
0
10
-1847.2695
20
3267.6292
30
0.0
11
2570.5503
21
-3269.3838
31
0.0
0
LINE
8
0
10
2570.5503
20
-3269.3838
30
0.0
11
-668.1073
21
4823.336
31
0.0
0
LINE
8
0
10
-668.1073
20
4823.336
30
0.0
11
933.094
21
-4672.8364
31
0.0
0
LINE
8
0
10
933.094
20
-4672.8364
30
0.0
11
1428.5566
21
5955.0874
31
0.0
0
LINE
8
0
10
1428.5566
20
5955.0874
30
0.0
11
-1595.73
21
-5403.6777
31
0.0
0
LINE
8
0
10
-1595.73
20
-5403.6777
30
0.0
11
4330.1616
21
6151.7915
31
0.0
0
LINE
8
0
10
595.20953
20
395.756
30
0.0
11
606.16626
21
403.4601
31
0.0
0
LINE
8
0
10
606.16626
20
403.4601
30
0.0
11
592.5319
21
397.70844
31
0.0
0
LINE
8
0
10
592.5319
20
397.70844
30
0.0
11
608.5999
21
400.72495
31
0.0
0
LINE
8
0
10
608.5999
20
400.72495
30
0.0
11
590.545
21
401.2316
31
0.0
0
LINE
8
0
10
590.545
20
401.2316
30
0.0
11
609.9199
21
396.45566
31
0.0
0
LINE
8
0
10
609.9199
20
396.45566
30
0.0
11
590.11975
21
406.15027
31
0.0
0
LINE
8
0
10
590.11975
20
406.15027
30
0.0
11
609.22705
21
391.04544
31
0.0
0
LINE
8
0
10
609.22705
20
391.04544
30
0.0
11
592.13513
21
411.8293
31
0.0
0
LINE
8
0
10
592.13513
20
411.8293
30
0.0
11
605.7209
21
385.3859
31
0.0
0
LINE
8
0
10
605.7209
20
385.3859
30
0.0
11
597.2462
21
417.11862
31
0.0
0
LINE
8
0
10
597.2462
20
417.11862
30
0.0
11
598.96356
21
380.87225
31
0.0
0
LINE
8
0
10
598.96356
20
380.87225
30
0.0
11
605.59924
21
420.40918
31
0.0
0
LINE
8
0
10
605.59924
20
420.40918
30
0.0
11
589.1742
21
379.276
31
0.0
0
LINE
8
0
10
589.1742
20
379.276
30
0.0
11
616.5425
21
419.83978
31
0.0
0
LINE
8
0
10
616.5425
20
419.83978
30
0.0
11
577.4923
21
382.45395
31
0.0
0
LINE
8
0
10
577.4923
20
382.45395
30
0.0
11
628.41095
21
413.6723
31
0.0
0
LINE
8
0
10
628.41095
20
413.6723
30
0.0
11
566.1227
21
391.89267
31
0.0
0
LINE
8
0
10
566.1227
20
391.89267
30
0.0
11
638.47577
21
400.8184
31
0.0
0
LINE
8
0
10
638.47577
20
400.8184
30
0.0
11
558.26654
21
408.12845
31
0.0
0
LINE
8
0
10
558.26654
20
408.12845
30
0.0
11
643.15515
21
381.4489
31
0.0
0
LINE
8
0
10
643.15515
20
381.4489
30
0.0
11
557.75116
21
430.13745
31
0.0
0
LINE
8
0
10
557.75116
20
430.13745
30
0.0
11
638.5565
21
357.56525
31
0.0
0
LINE
8
0
10
638.5565
20
357.56525
30
0.0
11
568.3105
21
454.84717
31
0.0
0
LINE
8
0
10
568.3105
20
454.84717
30
0.0
11
621.36804
21
333.35977
31
0.0
0
LINE
8
0
10
621.36804
20
333.35977
30
0.0
11
592.5387
21
476.9555
31
0.0
0
LINE
8
0
10
592.5387
20
476.9555
30
0.0
11
590.0308
21
315.1646
31
0.0
0
LINE
8
0
10
590.0308
20
315.1646
30
0.0
11
630.6343
21
489.2605
31
0.0
0
LINE
8
0
10
630.6343
20
489.2605
30
0.0
11
546.0167
21
310.80252
31
0.0
0
LINE
8
0
10
546.0167
20
310.80252
30
0.0
11
679.17737
21
483.66092
31
0.0
0
LINE
8
0
10
679.17737
20
483.66092
30
0.0
11
494.91718
21
328.21878
31
0.0
0
LINE
8
0
10
494.91718
20
328.21878
30
0.0
11
730.2695
21
452.88797
31
0.0
0
LINE
8
0
10
730.2695
20
452.88797
30
0.0
11
446.96216
21
373.41022
31
0.0
0
LINE
8
0
10
446.96216
20
373.41022
30
0.0
11
771.46075
21
392.86176
31
0.0
0
LINE
8
0
10
771.46075
20
392.86176
30
0.0
11
416.54828
21
447.86774
31
0.0
0
LINE
8
0
10
416.54828
20
447.86774
30
0.0
11
786.85754
21
305.3472
31
0.0
0
LINE
8
0
10
786.85754
20
305.3472
30
0.0
11
420.42282
21
545.9623
31
0.0
0
LINE
8
0
10
420.42282
20
545.9623
30
0.0
11
759.6986
21
200.34488
31
0.0
0
LINE
8
0
10
759.6986
20
200.34488
30
0.0
11
474.34216
21
652.9714
31
0.0
0
LINE
8
0
10
474.34216
20
652.9714
30
0.0
11
676.41833
21
97.43808
31
0.0
0
LINE
8
0
10
676.41833
20
97.43808
30
0.0
11
588.36035
21
744.5709
31
0.0
0
LINE
8
0
10
588.36035
20
744.5709
30
0.0
11
531.8566
21
25.24591
31
0.0
0
LINE
8
0
10
531.8566
20
25.24591
30
0.0
11
761.35077
21
788.6555
31
0.0
0
LINE
8
0
10
761.35077
20
788.6555
30
0.0
11
334.7584
21
18.16684
31
0.0
0
LINE
8
0
10
334.7584
20
18.16684
30
0.0
11
975.81836
21
750.1273
31
0.0
0
LINE
8
0
10
975.81836
20
750.1273
30
0.0
11
112.22525
21
109.99924
31
0.0
0
LINE
8
0
10
112.22525
20
109.99924
30
0.0
11
1194.5693
21
598.8598
31
0.0
0
LINE
8
0
10
1194.5693
20
598.8598
30
0.0
11
-88.52606
21
324.55792
31
0.0
0
LINE
8
0
10
-88.52606
20
324.55792
30
0.0
11
1361.0621
21
320.18256
31
0.0
0
LINE
8
0
10
1361.0621
20
320.18256
30
0.0
11
-203.00836
21
664.45105
31
0.0
0
LINE
8
0
10
-203.00836
20
664.45105
30
0.0
11
1405.0552
21
-73.609924
31
0.0
0
LINE
8
0
10
1405.0552
20
-73.609924
30
0.0
11
-158.27441
21
1099.9152
31
0.0
0
LINE
8
0
10
-158.27441
20
1099.9152
30
0.0
11
1254.759
21
-533.29626
31
0.0
0
LINE
8
0
10
1254.759
20
-533.29626
30
0.0
11
111.668915
21
1561.0286
31
0.0
0
LINE
8
0
10
111.668915
20
1561.0286
30
0.0
11
855.27936
21
-967.9298
31
0.0
0
LINE
8
0
10
855.27936
20
-967.9298
30
0.0
11
644.7842
21
1936.7273
31
0.0
0
LINE
8
0
10
644.7842
20
1936.7273
30
0.0
11
191.70465
21
-1248.6927
31
0.0
0
LINE
8
0
10
191.70465
20
-1248.6927
30
0.0
11
1426.9983
21
2084.436
31
0.0
0
LINE
8
0
10
1426.9983
20
2084.436
30
0.0
11
-687.43787
21
-1224.9562
31
0.0
0
LINE
8
0
10
-687.43787
20
-1224.9562
30
0.0
11
2370.6362
21
1852.8895
31
0.0
0
LINE
8
0
10
2370.6362
20
1852.8895
30
0.0
11
-1652.0532
21
-753.8993
31
0.0
0
LINE
8
0
10
-1652.0532
20
-753.8993
30
0.0
11
3301.7832
21
1118.3575
31
0.0
0
LINE
8
0
10
3301.7832
20
1118.3575
30
0.0
11
-2485.335
21
257.22937
31
0.0
0
LINE
8
0
10
-2485.335
20
257.22937
30
0.0
11
3964.6323
21
-168.5202
31
0.0
0
LINE
8
0
10
3964.6323
20
-168.5202
30
0.0
11
-2899.582
21
1801.9095
31
0.0
0
LINE
8
0
10
-2899.582
20
1801.9095
30
0.0
11
4050.048
21
-1933.3696
31
0.0
0
LINE
8
0
10
4050.048
20
-1933.3696
30
0.0
11
-2578.4297
21
3727.3982
31
0.0
0
LINE
8
0
10
-2578.4297
20
3727.3982
30
0.0
11
3252.3394
21
-3937.0166
31
0.0
0
LINE
8
0
10
3252.3394
20
-3937.0166
30
0.0
11
-1247.8475
21
5703.863
31
0.0
0
LINE
8
0
10
-1247.8475
20
5703.863
30
0.0
11
1352.7883
21
-5759.3193
31
0.0
0
LINE
8
0
10
1352.7883
20
-5759.3193
30
0.0
11
1230.0061
21
7226.4414
31
0.0
0
LINE
8
0
10
597.7305
20
394.0159
30
0.0
11
603.8519
21
405.92938
31
0.0
0
LINE
8
0
10
603.8519
20
405.92938
30
0.0
11
594.4523
21
394.50034
31
0.0
0
LINE
8
0
10
594.4523
20
394.50034
30
0.0
11
607.27795
21
404.6385
31
0.0
0
LINE
8
0
10
607.27795
20
404.6385
30
0.0
11
591.05566
21
396.69656
31
0.0
0
LINE
8
0
10
591.05566
20
396.69656
30
0.0
11
610.4308
21
401.47168
31
0.0
0
LINE
8
0
10
610.4308
20
401.47168
30
0.0
11
588.3933
21
400.85425
31
0.0
0
LINE
8
0
10
588.3933
20
400.85425
30
0.0
11
612.33154
21
396.35913
31
0.0
0
LINE
8
0
10
612.33154
20
396.35913
30
0.0
11
587.53864
21
406.81934
31
0.0
0
LINE
8
0
10
587.53864
20
406.81934
30
0.0
11
611.8571
21
389.71844
31
0.0
0
LINE
8
0
10
611.8571
20
389.71844
30
0.0
11
589.6062
21
413.87805
31
0.0
0
LINE
8
0
10
589.6062
20
413.87805
30
0.0
11
607.9714
21
382.58157
31
0.0
0
LINE
8
0
10
607.9714
20
382.58157
30
0.0
11
595.47327
21
420.67352
31
0.0
0
LINE
8
0
10
595.47327
20
420.67352
30
0.0
11
600.0453
21
376.6188
31
0.0
0
LINE
8
0
10
600.0453
20
376.6188
30
0.0
11
605.4276
21
425.25494
31
0.0
0
LINE
8
0
10
605.4276
20
425.25494
30
0.0
11
588.2245
21
374.0039
31
0.0
0
LINE
8
0
10
588.2245
20
374.0039
30
0.0
11
618.8028
21
425.30948
31
0.0
0
LINE
8
0
10
618.8028
20
425.30948
30
0.0
11
573.7708
21
377.07776
31
0.0
0
LINE
8
0
10
573.7708
20
377.07776
30
0.0
11
633.6883
21
418.60526
31
0.0
0
LINE
8
0
10
633.6883
20
418.60526
30
0.0
11
559.2694
21
387.8029
31
0.0
0
LINE
8
0
10
559.2694
20
387.8029
30
0.0
11
646.8331
21
403.62903
31
0.0
0
LINE
8
0
10
646.8331
20
403.62903
30
0.0
11
548.5849
21
407.05133
31
0.0
0
LINE
8
0
10
548.5849
20
407.05133
30
0.0
11
653.8605
21
380.344
31
0.0
0
LINE
8
0
10
653.8605
20
380.344
30
0.0
11
546.45154
21
433.8379
31
0.0
0
LINE
8
0
10
546.45154
20
433.8379
30
0.0
11
649.8898
21
350.92328
31
0.0
0
LINE
8
0
10
649.8898
20
350.92328
30
0.0
11
557.6298
21
464.67294
31
0.0
0
LINE
8
0
10
557.6298
20
464.67294
30
0.0
11
630.5977
21
320.24908
31
0.0
0
LINE
8
0
10
630.5977
20
320.24908
30
0.0
11
585.64386
21
493.2727
31
0.0
0
LINE
8
0
10
585.64386
20
493.2727
30
0.0
11
593.65234
21
295.93228
31
0.0
0
LINE
8
0
10
593.65234
20
295.93228
30
0.0
11
631.2289
21
510.87363
31
0.0
0
LINE
8
0
10
631.2289
20
510.87363
30
0.0
11
540.31305
21
287.606
31
0.0
0
LINE
8
0
10
540.31305
20
287.606
30
0.0
11
690.76965
21
507.36923
31
0.0
0
LINE
8
0
10
690.76965
20
507.36923
30
0.0
11
476.84863
21
305.33566
31
0.0
0
LINE
8
0
10
476.84863
20
305.33566
30
0.0
11
755.13824
21
473.3612
31
0.0
0
LINE
8
0
10
755.13824
20
473.3612
30
0.0
11
415.31635
21
357.13046
31
0.0
0
LINE
8
0
10
415.31635
20
357.13046
30
0.0
11
809.44147
21
403.02777
31
0.0
0
LINE
8
0
10
809.44147
20
403.02777
30
0.0
11
373.16025
21
445.78946
31
0.0
0
LINE
8
0
10
373.16025
20
445.78946
30
0.0
11
834.1905
21
297.42987
31
0.0
0
LINE
8
0
10
834.1905
20
297.42987
30
0.0
11
371.17383
21
565.5989
31
0.0
0
LINE
8
0
10
371.17383
20
565.5989
30
0.0
11
808.27264
21
167.60812
31
0.0
0
LINE
8
0
10
808.27264
20
167.60812
30
0.0
11
429.56342
21
699.6932
31
0.0
0
LINE
8
0
10
429.56342
20
699.6932
30
0.0
11
713.81903
21
36.503967
31
0.0
0
LINE
8
0
10
713.81903
20
36.503967
30
0.0
11
562.2517
21
819.12085
31
0.0
0
LINE
8
0
10
562.2517
20
819.12085
30
0.0
11
542.58704
21
-61.360413
31
0.0
0
LINE
8
0
10
542.58704
20
-61.360413
30
0.0
11
770.05084
21
884.6765
31
0.0
0
LINE
8
0
10
770.05084
20
884.6765
30
0.0
11
302.86707
21
-83.46323
31
0.0
0
LINE
8
0
10
302.86707
20
-83.46323
30
0.0
11
1034.05
21
852.3918
31
0.0
0
LINE
8
0
10
1034.05
20
852.3918
30
0.0
11
25.400208
21
13.22522
31
0.0
0
LINE
8
0
10
25.400208
20
13.22522
30
0.0
11
1310.98
21
683.00854
31
0.0
0
LINE
8
0
10
1310.98
20
683.00854
30
0.0
11
-233.92297
21
260.97025
31
0.0
0
LINE
8
0
10
-233.92297
20
260.97025
30
0.0
11
1532.9384
21
354.7672
31
0.0
0
LINE
8
0
10
1532.9384
20
354.7672
30
0.0
11
-396.6855
21
667.3562
31
0.0
0
LINE
8
0
10
-396.6855
20
667.3562
30
0.0
11
1613.4849
21
-122.1109
31
0.0
0
LINE
8
0
10
1613.4849
20
-122.1109
30
0.0
11
-371.95276
21
1201.1008
31
0.0
0
LINE
8
0
10
-371.95276
20
1201.1008
30
0.0
11
1461.7642
21
-692.59424
31
0.0
0
LINE
8
0
10
1461.7642
20
-692.59424
30
0.0
11
-74.49866
21
1781.5166
31
0.0
0
LINE
8
0
10
-74.49866
20
1781.5166
30
0.0
11
1004.65845
21
-1249.5891
31
0.0
0
LINE
8
0
10
1004.65845
20
-1249.5891
30
0.0
11
549.4738
21
2275.8193
31
0.0
0
LINE
8
0
10
549.4738
20
2275.8193
30
0.0
11
215.18558
21
-1637.1295
31
0.0
0
LINE
8
0
10
215.18558
20
-1637.1295
30
0.0
11
1492.6287
21
2509.3257
31
0.0
0
LINE
8
0
10
1492.6287
20
2509.3257
30
0.0
11
-857.85
21
-1668.3088
31
0.0
0
LINE
8
0
10
-857.85
20
-1668.3088
30
0.0
11
2658.4727
21
2291.6558
31
0.0
0
LINE
8
0
10
2658.4727
20
2291.6558
30
0.0
11
-2065.5793
21
-1160.2443
31
0.0
0
LINE
8
0
10
-2065.5793
20
-1160.2443
30
0.0
11
3843.4382
21
1460.2235
31
0.0
0
LINE
8
0
10
3843.4382
20
1460.2235
30
0.0
11
-3150.2258
21
14.991638
31
0.0
0
LINE
8
0
10
-3150.2258
20
14.991638
30
0.0
11
4739.237
21
-62.777954
31
0.0
0
LINE
8
0
10
4739.237
20
-62.777954
30
0.0
11
-3760.6792
21
1869.1742
31
0.0
0
LINE
8
0
10
-3760.6792
20
1869.1742
30
0.0
11
4964.0425
21
-2207.6333
31
0.0
0
LINE
8
0
10
4964.0425
20
-2207.6333
30
0.0
11
-3501.016
21
4237.5986
31
0.0
0
LINE
8
0
10
-3501.016
20
4237.5986
30
0.0
11
4128.9404
21
-4703.9673
31
0.0
0
LINE
8
0
10
4128.9404
20
-4703.9673
30
0.0
11
-2014.564
21
6737.2915
31
0.0
0
LINE
8
0
10
600.7714
20
393.64667
30
0.0
11
600.6552
21
407.04028
31
0.0
0
LINE
8
0
10
600.6552
20
407.04028
30
0.0
11
597.64355
21
392.55215
31
0.0
0
LINE
8
0
10
597.64355
20
392.55215
30
0.0
11
604.2887
21
407.4894
31
0.0
0
LINE
8
0
10
604.2887
20
407.4894
30
0.0
11
593.61536
21
392.9183
31
0.0
0
LINE
8
0
10
593.61536
20
392.9183
30
0.0
11
608.5521
21
406.15054
31
0.0
0
LINE
8
0
10
608.5521
20
406.15054
30
0.0
11
589.3258
21
395.36246
31
0.0
0
LINE
8
0
10
589.3258
20
395.36246
30
0.0
11
612.611
21
402.50693
31
0.0
0
LINE
8
0
10
612.611
20
402.50693
30
0.0
11
585.7969
21
400.24713
31
0.0
0
LINE
8
0
10
585.7969
20
400.24713
30
0.0
11
615.27704
21
396.40643
31
0.0
0
LINE
8
0
10
615.27704
20
396.40643
30
0.0
11
584.3473
21
407.45816
31
0.0
0
LINE
8
0
10
584.3473
20
407.45816
30
0.0
11
615.1531
21
388.28125
31
0.0
0
LINE
8
0
10
615.1531
20
388.28125
30
0.0
11
586.3843
21
416.2018
31
0.0
0
LINE
8
0
10
586.3843
20
416.2018
30
0.0
11
610.9059
21
379.31802
31
0.0
0
LINE
8
0
10
610.9059
20
379.31802
30
0.0
11
593.06934
21
424.8845
31
0.0
0
LINE
8
0
10
593.06934
20
424.8845
30
0.0
11
601.6543
21
371.50925
31
0.0
0
LINE
8
0
10
601.6543
20
371.50925
30
0.0
11
604.887
21
431.14856
31
0.0
0
LINE
8
0
10
604.887
20
431.14856
30
0.0
11
587.4277
21
367.51404
31
0.0
0
LINE
8
0
10
587.4277
20
367.51404
30
0.0
11
621.1832
21
432.12985
31
0.0
0
LINE
8
0
10
621.1832
20
432.12985
30
0.0
11
569.6033
21
370.2714
31
0.0
0
LINE
8
0
10
569.6033
20
370.2714
30
0.0
11
639.78217
21
424.9778
31
0.0
0
LINE
8
0
10
639.78217
20
424.9778
30
0.0
11
551.19727
21
382.34985
31
0.0
0
LINE
8
0
10
551.19727
20
382.34985
30
0.0
11
656.8257
21
407.6257
31
0.0
0
LINE
8
0
10
656.8257
20
407.6257
30
0.0
11
536.8599
21
405.07626
31
0.0
0
LINE
8
0
10
536.8599
20
405.07626
30
0.0
11
666.9823
21
379.72964
31
0.0
0
LINE
8
0
10
666.9823
20
379.72964
30
0.0
11
532.42804
21
437.57465
31
0.0
0
LINE
8
0
10
532.42804
20
437.57465
30
0.0
11
664.155
21
343.60358
31
0.0
0
LINE
8
0
10
664.155
20
343.60358
30
0.0
11
543.94226
21
475.91724
31
0.0
0
LINE
8
0
10
543.94226
20
475.91724
30
0.0
11
642.74286
21
304.90305
31
0.0
0
LINE
8
0
10
642.74286
20
304.90305
30
0.0
11
576.1262
21
512.6865
31
0.0
0
LINE
8
0
10
576.1262
20
512.6865
30
0.0
11
599.38196
21
272.74213
31
0.0
0
LINE
8
0
10
599.38196
20
272.74213
30
0.0
11
630.4755
21
537.2535
31
0.0
0
LINE
8
0
10
630.4755
20
537.2535
30
0.0
11
534.94763
21
258.94757
31
0.0
0
LINE
8
0
10
534.94763
20
258.94757
30
0.0
11
703.27435
21
537.05524
31
0.0
0
LINE
8
0
10
703.27435
20
537.05524
30
0.0
11
456.39325
21
276.2141
31
0.0
0
LINE
8
0
10
456.39325
20
276.2141
30
0.0
11
784.0441
21
500.0133
31
0.0
0
LINE
8
0
10
784.0441
20
500.0133
30
0.0
11
377.86395
21
335.1268
31
0.0
0
LINE
8
0
10
377.86395
20
335.1268
30
0.0
11
855.0321
21
418.01248
31
0.0
0
LINE
8
0
10
855.0321
20
418.01248
30
0.0
11
320.42654
21
440.2875
31
0.0
0
LINE
8
0
10
320.42654
20
440.2875
30
0.0
11
892.4142
21
291.0164
31
0.0
0
LINE
8
0
10
892.4142
20
291.0164
30
0.0
11
309.8115
21
586.15924
31
0.0
0
LINE
8
0
10
309.8115
20
586.15924
30
0.0
11
869.7068
21
131.03464
31
0.0
0
LINE
8
0
10
869.7068
20
131.03464
30
0.0
11
371.8003
21
753.57056
31
0.0
0
LINE
8
0
10
371.8003
20
753.57056
30
0.0
11
763.5683
21
-35.195435
31
0.0
0
LINE
8
0
10
763.5683
20
-35.195435
30
0.0
11
525.33203
21
908.1863
31
0.0
0
LINE
8
0
10
525.33203
20
908.1863
30
0.0
11
561.5785
21
-166.16998
31
0.0
0
LINE
8
0
10
561.5785
20
-166.16998
30
0.0
11
774.0952
21
1002.28625
31
0.0
0
LINE
8
0
10
774.0952
20
1002.28625
30
0.0
11
270.96048
21
-209.50195
31
0.0
0
LINE
8
0
10
270.96048
20
-209.50195
30
0.0
11
1098.0208
21
981.0006
31
0.0
0
LINE
8
0
10
1098.0208
20
981.0006
30
0.0
11
-73.79169
21
-110.648224
31
0.0
0
LINE
8
0
10
-73.79169
20
-110.648224
30
0.0
11
1447.0966
21
793.5066
31
0.0
0
LINE
8
0
10
1447.0966
20
793.5066
30
0.0
11
-406.76776
21
173.54915
31
0.0
0
LINE
8
0
10
-406.76776
20
173.54915
30
0.0
11
1740.0333
21
408.6839
31
0.0
0
LINE
8
0
10
1740.0333
20
408.6839
30
0.0
11
-632.9116
21
657.6503
31
0.0
0
LINE
8
0
10
-632.9116
20
657.6503
30
0.0
11
1870.8082
21
-166.96204
31
0.0
0
LINE
8
0
10
1870.8082
20
-166.96204
30
0.0
11
-639.26184
21
1309.8169
31
0.0
0
LINE
8
0
10
-639.26184
20
1309.8169
30
0.0
11
1724.9098
21
-872.5842
31
0.0
0
LINE
8
0
10
1724.9098
20
-872.5842
30
0.0
11
-316.4757
21
2037.4746
31
0.0
0
LINE
8
0
10
-316.4757
20
2037.4746
30
0.0
11
1205.9653
21
-1582.6206
31
0.0
0
LINE
8
0
10
1205.9653
20
-1582.6206
30
0.0
11
410.13046
21
2682.5403
31
0.0
0
LINE
8
0
10
410.13046
20
2682.5403
30
0.0
11
270.3294
21
-2108.893
31
0.0
0
LINE
8
0
10
270.3294
20
-2108.893
30
0.0
11
1543.5901
21
3031.5981
31
0.0
0
LINE
8
0
10
1543.5901
20
3031.5981
30
0.0
11
-1035.171
21
-2220.2844
31
0.0
0
LINE
8
0
10
-1035.171
20
-2220.2844
30
0.0
11
2979.211
21
2846.0828
31
0.0
0
LINE
8
0
10
2979.211
20
2846.0828
30
0.0
11
-2541.7373
21
-1683.7256
31
0.0
0
LINE
8
0
10
-2541.7373
20
-1683.7256
30
0.0
11
4480.176
21
1913.8304
31
0.0
0
LINE
8
0
10
4480.176
20
1913.8304
30
0.0
11
-3943.9487
21
-325.62042
31
0.0
0
LINE
8
0
10
-3943.9487
20
-325.62042
30
0.0
11
5675.9956
21
119.12808
31
0.0
0
LINE
8
0
10
5675.9956
20
119.12808
30
0.0
11
-4814.691
21
1892.1866
31
0.0
0
LINE
8
0
10
-4814.691
20
1892.1866
30
0.0
11
6096.654
21
-2479.3574
31
0.0
0
LINE
8
0
10
6096.654
20
-2479.3574
30
0.0
11
-4660.1685
21
4796.3433
31
0.0
0
LINE
8
0
10
603.6356
20
394.7329
30
0.0
11
597.30835
21
406.53836
31
0.0
0
LINE
8
0
10
597.30835
20
406.53836
30
0.0
11
601.3747
21
392.31018
31
0.0
0
LINE
8
0
10
601.3747
20
392.31018
30
0.0
11
600.31696
21
408.62457
31
0.0
0
LINE
8
0
10
600.31696
20
408.62457
30
0.0
11
597.6377
21
390.7624
31
0.0
0
LINE
8
0
10
597.6377
20
390.7624
30
0.0
11
604.71423
21
409.4204
31
0.0
0
LINE
8
0
10
604.71423
20
409.4204
30
0.0
11
592.7036
21
390.93314
31
0.0
0
LINE
8
0
10
592.7036
20
390.93314
30
0.0
11
610.00146
21
408.08038
31
0.0
0
LINE
8
0
10
610.00146
20
408.08038
30
0.0
11
587.3089
21
393.61832
31
0.0
0
LINE
8
0
10
587.3089
20
393.61832
30
0.0
11
615.19714
21
403.91763
31
0.0
0
LINE
8
0
10
615.19714
20
403.91763
30
0.0
11
582.67426
21
399.3297
31
0.0
0
LINE
8
0
10
582.67426
20
399.3297
30
0.0
11
618.86334
21
396.66556
31
0.0
0
LINE
8
0
10
618.86334
20
396.66556
30
0.0
11
580.4145
21
408.01837
31
0.0
0
LINE
8
0
10
580.4145
20
408.01837
30
0.0
11
619.26807
21
386.75522
31
0.0
0
LINE
8
0
10
619.26807
20
386.75522
30
0.0
11
582.2988
21
418.8133
31
0.0
0
LINE
8
0
10
582.2988
20
418.8133
30
0.0
11
614.7052
21
375.54153
31
0.0
0
LINE
8
0
10
614.7052
20
375.54153
30
0.0
11
589.8518
21
429.8518
31
0.0
0
LINE
8
0
10
589.8518
20
429.8518
30
0.0
11
603.9648
21
365.39246
31
0.0
0
LINE
8
0
10
603.9648
20
365.39246
30
0.0
11
603.82513
21
438.2939
31
0.0
0
LINE
8
0
10
603.82513
20
438.2939
30
0.0
11
586.9006
21
359.55054
31
0.0
0
LINE
8
0
10
586.9006
20
359.55054
30
0.0
11
623.6176
21
440.60446
31
0.0
0
LINE
8
0
10
623.6176
20
440.60446
30
0.0
11
564.9898
21
361.69183
31
0.0
0
LINE
8
0
10
564.9898
20
361.69183
30
0.0
11
646.7726
21
433.16083
31
0.0
0
LINE
8
0
10
646.7726
20
433.16083
30
0.0
11
541.7332
21
375.15213
31
0.0
0
LINE
8
0
10
541.7332
20
375.15213
30
0.0
11
668.73
21
413.17972
31
0.0
0
LINE
8
0
10
668.73
20
413.17972
30
0.0
11
522.70624
21
401.86844
31
0.0
0
LINE
8
0
10
522.70624
20
401.86844
30
0.0
11
683.0152
21
379.87778
31
0.0
0
LINE
8
0
10
683.0152
20
379.87778
30
0.0
11
515.0829
21
441.17004
31
0.0
0
LINE
8
0
10
515.0829
20
441.17004
30
0.0
11
682.0407
21
335.65945
31
0.0
0
LINE
8
0
10
682.0407
20
335.65945
30
0.0
11
526.4928
21
488.68423
31
0.0
0
LINE
8
0
10
526.4928
20
488.68423
30
0.0
11
658.59247
21
287.03156
31
0.0
0
LINE
8
0
10
658.59247
20
287.03156
30
0.0
11
563.1988
21
535.69434
31
0.0
0
LINE
8
0
10
563.1988
20
535.69434
30
0.0
11
607.94934
21
244.87294
31
0.0
0
LINE
8
0
10
607.94934
20
244.87294
30
0.0
11
627.75214
21
569.3504
31
0.0
0
LINE
8
0
10
627.75214
20
569.3504
30
0.0
11
530.3687
21
223.65564
31
0.0
0
LINE
8
0
10
530.3687
20
223.65564
30
0.0
11
716.48444
21
574.087
31
0.0
0
LINE
8
0
10
716.48444
20
574.087
30
0.0
11
433.45764
21
239.32458
31
0.0
0
LINE
8
0
10
433.45764
20
239.32458
30
0.0
11
817.44885
21
534.4686
31
0.0
0
LINE
8
0
10
817.44885
20
534.4686
30
0.0
11
333.72748
21
305.7485
31
0.0
0
LINE
8
0
10
333.72748
20
305.7485
30
0.0
11
909.56714
21
439.3915
31
0.0
0
LINE
8
0
10
909.56714
20
439.3915
30
0.0
11
256.53836
21
429.97842
31
0.0
0
LINE
8
0
10
256.53836
20
429.97842
30
0.0
11
963.80884
21
287.18488
31
0.0
0
LINE
8
0
10
963.80884
20
287.18488
30
0.0
11
233.62674
21
607.02136
31
0.0
0
LINE
8
0
10
233.62674
20
607.02136
30
0.0
11
947.078
21
90.66763
31
0.0
0
LINE
8
0
10
947.078
20
90.66763
30
0.0
11
297.7188
21
815.2766
31
0.0
0
LINE
8
0
10
297.7188
20
815.2766
30
0.0
11
829.09186
21
-119.17395
31
0.0
0
LINE
8
0
10
829.09186
20
-119.17395
30
0.0
11
474.25717
21
1014.20404
31
0.0
0
LINE
8
0
10
474.25717
20
1014.20404
30
0.0
11
591.8998
21
-292.5995
31
0.0
0
LINE
8
0
10
591.8998
20
-292.5995
30
0.0
11
770.97095
21
1145.8923
31
0.0
0
LINE
8
0
10
770.97095
20
1145.8923
30
0.0
11
240.6973
21
-365.2832
31
0.0
0
LINE
8
0
10
240.6973
20
-365.2832
30
0.0
11
1167.1951
21
1142.0984
31
0.0
0
LINE
8
0
10
1167.1951
20
1142.0984
30
0.0
11
-186.21143
21
-268.38068
31
0.0
0
LINE
8
0
10
-186.21143
20
-268.38068
30
0.0
11
1605.4137
21
937.4893
31
0.0
0
LINE
8
0
10
1605.4137
20
937.4893
30
0.0
11
-611.4249
21
55.175232
31
0.0
0
LINE
8
0
10
-611.4249
20
55.175232
30
0.0
11
1988.7252
21
488.55435
31
0.0
0
LINE
8
0
10
1988.7252
20
488.55435
30
0.0
11
-920.1284
21
629.6656
31
0.0
0
LINE
8
0
10
-920.1284
20
629.6656
30
0.0
11
2187.4575
21
-204.04541
31
0.0
0
LINE
8
0
10
2187.4575
20
-204.04541
30
0.0
11
-972.47156
21
1424.004
31
0.0
0
LINE
8
0
10
-972.47156
20
1424.004
30
0.0
11
2057.9258
21
-1073.917
31
0.0
0
LINE
8
0
10
2057.9258
20
-1073.917
30
0.0
11
-628.8707
21
2332.852
31
0.0
0
LINE
8
0
10
-628.8707
20
2332.852
30
0.0
11
1474.0687
21
-1974.7065
31
0.0
0
LINE
8
0
10
1474.0687
20
-1974.7065
30
0.0
11
212.54248
21
3168.6724
31
0.0
0
LINE
8
0
10
212.54248
20
3168.6724
30
0.0
11
369.83545
21
-2680.0488
31
0.0
0
LINE
8
0
10
369.83545
20
-2680.0488
30
0.0
11
1569.9348
21
3671.5732
31
0.0
0
LINE
8
0
10
1569.9348
20
3671.5732
30
0.0
11
-1213.514
21
-2905.0857
31
0.0
0
LINE
8
0
10
-1213.514
20
-2905.0857
30
0.0
11
3332.164
21
3543.6802
31
0.0
0
LINE
8
0
10
3332.164
20
3543.6802
30
0.0
11
-3086.2537
21
-2354.184
31
0.0
0
LINE
8
0
10
-3086.2537
20
-2354.184
30
0.0
11
5225.098
21
2510.234
31
0.0
0
LINE
8
0
10
5225.098
20
2510.234
30
0.0
11
-4887.9243
21
-795.06775
31
0.0
0
LINE
8
0
10
-4887.9243
20
-795.06775
30
0.0
11
6805.1494
21
404.87943
31
0.0
0
LINE
8
0
10
6805.1494
20
404.87943
30
0.0
11
-6100.753
21
1848.1431
31
0.0
0
LINE
8
0
10
605.66693
20
397.0258
30
0.0
11
594.5781
21
404.53857
31
0.0
0
LINE
8
0
10
594.5781
20
404.53857
30
0.0
11
604.79083
21
393.82983
31
0.0
0
LINE
8
0
10
604.79083
20
393.82983
30
0.0
11
596.2726
21
407.78397
31
0.0
0
LINE
8
0
10
596.2726
20
407.78397
30
0.0
11
602.20123
21
390.72272
31
0.0
0
LINE
8
0
10
602.20123
20
390.72272
30
0.0
11
599.7963
21
410.53217
31
0.0
0
LINE
8
0
10
599.7963
20
410.53217
30
0.0
11
597.753
21
388.58087
31
0.0
0
LINE
8
0
10
597.753
20
388.58087
30
0.0
11
605.1007
21
411.80276
31
0.0
0
LINE
8
0
10
605.1007
20
411.80276
30
0.0
11
591.72833
21
388.45145
31
0.0
0
LINE
8
0
10
591.72833
20
388.45145
30
0.0
11
611.63574
21
410.5314
31
0.0
0
LINE
8
0
10
611.63574
20
410.5314
30
0.0
11
584.97034
21
391.3548
31
0.0
0
LINE
8
0
10
584.97034
20
391.3548
30
0.0
11
618.25226
21
405.8138
31
0.0
0
LINE
8
0
10
618.25226
20
405.8138
30
0.0
11
578.9316
21
397.99808
31
0.0
0
LINE
8
0
10
578.9316
20
397.99808
30
0.0
11
623.2162
21
397.22665
31
0.0
0
LINE
8
0
10
623.2162
20
397.22665
30
0.0
11
575.5834
21
408.4321
31
0.0
0
LINE
8
0
10
575.5834
20
408.4321
30
0.0
11
624.38727
21
385.17697
31
0.0
0
LINE
8
0
10
624.38727
20
385.17697
30
0.0
11
577.1414
21
421.71634
31
0.0
0
LINE
8
0
10
577.1414
20
421.71634
30
0.0
11
619.5937
21
371.19916
31
0.0
0
LINE
8
0
10
619.5937
20
371.19916
30
0.0
11
585.59094
21
435.6852
31
0.0
0
LINE
8
0
10
585.59094
20
435.6852
30
0.0
11
607.19885
21
358.0962
31
0.0
0
LINE
8
0
10
607.19885
20
358.0962
30
0.0
11
602.0425
21
446.9291
31
0.0
0
LINE
8
0
10
602.0425
20
446.9291
30
0.0
11
586.8027
21
349.80975
31
0.0
0
LINE
8
0
10
586.8027
20
349.80975
30
0.0
11
626.00446
21
451.09875
31
0.0
0
LINE
8
0
10
626.00446
20
451.09875
30
0.0
11
559.9547
21
350.92035
31
0.0
0
LINE
8
0
10
559.9547
20
350.92035
30
0.0
11
654.7324
21
443.61047
31
0.0
0
LINE
8
0
10
654.7324
20
443.61047
30
0.0
11
530.69147
21
365.7342
31
0.0
0
LINE
8
0
10
530.69147
20
365.7342
30
0.0
11
682.8574
21
420.7624
31
0.0
0
LINE
8
0
10
682.8574
20
420.7624
30
0.0
11
505.67694
21
396.99127
31
0.0
0
LINE
8
0
10
505.67694
20
396.99127
30
0.0
11
702.54395
21
381.15552
31
0.0
0
LINE
8
0
10
702.54395
20
381.15552
30
0.0
11
493.69897
21
444.36548
31
0.0
0
LINE
8
0
10
493.69897
20
444.36548
30
0.0
11
704.3801
21
327.20068
31
0.0
0
LINE
8
0
10
704.3801
20
327.20068
30
0.0
11
504.35382
21
503.04895
31
0.0
0
LINE
8
0
10
504.35382
20
503.04895
30
0.0
11
679.12994
21
266.33606
31
0.0
0
LINE
8
0
10
679.12994
20
266.33606
30
0.0
11
545.8722
21
562.84937
31
0.0
0
LINE
8
0
10
545.8722
20
562.84937
30
0.0
11
620.2959
21
211.49556
31
0.0
0
LINE
8
0
10
620.2959
20
211.49556
30
0.0
11
622.23956
21
608.27936
31
0.0
0
LINE
8
0
10
622.23956
20
608.27936
30
0.0
11
527.20374
21
180.33287
31
0.0
0
LINE
8
0
10
527.20374
20
180.33287
30
0.0
11
730.05066
21
620.1196
31
0.0
0
LINE
8
0
10
730.05066
20
620.1196
30
0.0
11
408.0283
21
192.80139
31
0.0
0
LINE
8
0
10
408.0283
20
192.80139
30
0.0
11
855.8019
21
578.7425
31
0.0
0
LINE
8
0
10
855.8019
20
578.7425
30
0.0
11
281.94818
21
266.92993
31
0.0
0
LINE
8
0
10
281.94818
20
266.92993
30
0.0
11
974.5646
21
469.1776
31
0.0
0
LINE
8
0
10
974.5646
20
469.1776
30
0.0
11
179.38495
21
413.0461
31
0.0
0
LINE
8
0
10
179.38495
20
413.0461
30
0.0
11
1051.0763
21
287.39505
31
0.0
0
LINE
8
0
10
1051.0763
20
287.39505
30
0.0
11
139.35458
21
627.232
31
0.0
0
LINE
8
0
10
139.35458
20
627.232
30
0.0
11
1044.1284
21
46.765472
31
0.0
0
LINE
8
0
10
1044.1284
20
46.765472
30
0.0
11
203.22534
21
885.415
31
0.0
0
LINE
8
0
10
203.22534
20
885.415
30
0.0
11
914.69476
21
-217.0307
31
0.0
0
LINE
8
0
10
914.69476
20
-217.0307
30
0.0
11
404.75363
21
1139.9089
31
0.0
0
LINE
8
0
10
404.75363
20
1139.9089
30
0.0
11
637.4983
21
-444.6009
31
0.0
0
LINE
8
0
10
637.4983
20
-444.6009
30
0.0
11
757.3417
21
1320.6865
31
0.0
0
LINE
8
0
10
757.3417
20
1320.6865
30
0.0
11
214.45651
21
-557.1925
31
0.0
0
LINE
8
0
10
214.45651
20
-557.1925
30
0.0
11
1240.4656
21
1343.1624
31
0.0
0
LINE
8
0
10
1240.4656
20
1343.1624
30
0.0
11
-312.41534
21
-468.30463
31
0.0
0
LINE
8
0
10
-312.41534
20
-468.30463
30
0.0
11
1788.5017
21
1123.7839
31
0.0
0
LINE
8
0
10
1788.5017
20
1123.7839
30
0.0
11
-852.7377
21
-103.08035
31
0.0
0
LINE
8
0
10
-852.7377
20
-103.08035
30
0.0
11
2286.338
21
602.87305
31
0.0
0
LINE
8
0
10
2286.338
20
602.87305
30
0.0
11
-1268.2328
21
575.94617
31
0.0
0
LINE
8
0
10
-1268.2328
20
575.94617
30
0.0
11
2575.8926
21
-227.5564
31
0.0
0
LINE
8
0
10
2575.8926
20
-227.5564
30
0.0
11
-1386.3524
21
1540.3702
31
0.0
0
LINE
8
0
10
-1386.3524
20
1540.3702
30
0.0
11
2477.531
21
-1296.4979
31
0.0
0
LINE
8
0
10
2477.531
20
-1296.4979
30
0.0
11
-1029.7434
21
2671.477
31
0.0
0
LINE
8
0
10
-1029.7434
20
2671.477
30
0.0
11
1827.57
21
-2434.2102
31
0.0
0
LINE
8
0
10
1827.57
20
-2434.2102
30
0.0
11
-61.541992
21
3747.5852
31
0.0
0
LINE
8
0
10
-61.541992
20
3747.5852
30
0.0
11
530.1637
21
-3369.29
31
0.0
0
LINE
8
0
10
530.1637
20
-3369.29
30
0.0
11
1558.2694
21
4453.2905
31
0.0
0
LINE
8
0
10
1558.2694
20
4453.2905
30
0.0
11
-1384.0815
21
-3751.7964
31
0.0
0
LINE
8
0
10
-1384.0815
20
-3751.7964
30
0.0
11
3714.6455
21
4417.91
31
0.0
0
LINE
8
0
10
3714.6455
20
4417.91
30
0.0
11
-3703.939
21
-3208.5464
31
0.0
0
LINE
8
0
10
-3703.939
20
-3208.5464
30
0.0
11
6092.1187
21
3287.9983
31
0.0
0
LINE
8
0
10
6092.1187
20
3287.9983
30
0.0
11
-6006.2075
21
-1431.7295
31
0.0
0
LINE
8
0
10
606.4
20
400.0
30
0.0
11
593.09
21
398.50095
31
0.0
0
LINE
8
0
10
593.09
20
398.50095
30
0.0
11
607.1095
21
403.237
31
0.0
0
LINE
8
0
10
607.1095
20
403.237
30
0.0
11
593.08215
21
394.83984
31
0.0
0
LINE
8
0
10
593.08215
20
394.83984
30
0.0
11
606.26044
21
407.19168
31
0.0
0
LINE
8
0
10
606.26044
20
407.19168
30
0.0
11
594.9251
21
390.7689
31
0.0
0
LINE
8
0
10
594.9251
20
390.7689
30
0.0
11
603.3171
21
411.15536
31
0.0
0
LINE
8
0
10
603.3171
20
411.15536
30
0.0
11
599.03143
21
387.17877
31
0.0
0
LINE
8
0
10
599.03143
20
387.17877
30
0.0
11
598.04266
21
414.06976
31
0.0
0
LINE
8
0
10
598.04266
20
414.06976
30
0.0
11
605.4088
21
385.26752
31
0.0
0
LINE
8
0
10
605.4088
20
385.26752
30
0.0
11
590.7095
21
414.63956
31
0.0
0
LINE
8
0
10
590.7095
20
414.63956
30
0.0
11
613.4598
21
386.36993
31
0.0
0
LINE
8
0
10
613.4598
20
386.36993
30
0.0
11
582.27515
21
411.56357
31
0.0
0
LINE
8
0
10
582.27515
20
411.56357
30
0.0
11
621.84576
21
391.66663
31
0.0
0
LINE
8
0
10
621.84576
20
391.66663
30
0.0
11
574.46155
21
403.88068
31
0.0
0
LINE
8
0
10
574.46155
20
403.88068
30
0.0
11
628.4824
21
401.7919
31
0.0
0
LINE
8
0
10
628.4824
20
401.7919
30
0.0
11
569.66766
21
391.39398
31
0.0
0
LINE
8
0
10
569.66766
20
391.39398
30
0.0
11
630.7337
21
416.39633
31
0.0
0
LINE
8
0
10
630.7337
20
416.39633
30
0.0
11
570.6577
21
375.09848
31
0.0
0
LINE
8
0
10
570.6577
20
375.09848
30
0.0
11
625.84784
21
433.75858
31
0.0
0
LINE
8
0
10
625.84784
20
433.75858
30
0.0
11
579.99945
21
357.4972
31
0.0
0
LINE
8
0
10
579.99945
20
357.4972
30
0.0
11
611.63904
21
450.57434
31
0.0
0
LINE
8
0
10
611.63904
20
450.57434
30
0.0
11
599.2792
21
342.66943
31
0.0
0
LINE
8
0
10
599.2792
20
342.66943
30
0.0
11
587.3499
21
462.0678
31
0.0
0
LINE
8
0
10
587.3499
20
462.0678
30
0.0
11
628.19604
21
335.94928
31
0.0
0
LINE
8
0
10
628.19604
20
335.94928
30
0.0
11
554.55475
21
462.5504
31
0.0
0
LINE
8
0
10
554.55475
20
462.5504
30
0.0
11
663.71796
21
343.1102
31
0.0
0
LINE
8
0
10
663.71796
20
343.1102
30
0.0
11
517.8795
21
446.49866
31
0.0
0
LINE
8
0
10
517.8795
20
446.49866
30
0.0
11
699.5557
21
369.03165
31
0.0
0
LINE
8
0
10
699.5557
20
369.03165
30
0.0
11
485.2575
21
410.1175
31
0.0
0
LINE
8
0
10
485.2575
20
410.1175
30
0.0
11
726.2556
21
415.95206
31
0.0
0
LINE
8
0
10
726.2556
20
415.95206
30
0.0
11
467.4204
21
353.20337
31
0.0
0
LINE
8
0
10
467.4204
20
353.20337
30
0.0
11
732.1832
21
481.5793
31
0.0
0
LINE
8
0
10
732.1832
20
481.5793
30
0.0
11
476.3926
21
280.9582
31
0.0
0
LINE
8
0
10
476.3926
20
280.9582
30
0.0
11
705.57434
21
557.47986
31
0.0
0
LINE
8
0
10
705.57434
20
557.47986
30
0.0
11
522.89886
21
205.24295
31
0.0
0
LINE
8
0
10
522.89886
20
205.24295
30
0.0
11
637.6259
21
628.3358
31
0.0
0
LINE
8
0
10
637.6259
20
628.3358
30
0.0
11
612.85815
21
144.65613
31
0.0
0
LINE
8
0
10
612.85815
20
144.65613
30
0.0
11
526.3068
21
672.67883
31
0.0
0
LINE
8
0
10
526.3068
20
672.67883
30
0.0
11
743.4341
21
122.853546
31
0.0
0
LINE
8
0
10
743.4341
20
122.853546
30
0.0
11
380.22125
21
665.6349
31
0.0
0
LINE
8
0
10
380.22125
20
665.6349
30
0.0
11
899.5125
21
164.67815
31
0.0
0
LINE
8
0
10
899.5125
20
164.67815
30
0.0
11
221.50201
21
583.9198
31
0.0
0
LINE
8
0
10
221.50201
20
583.9198
30
0.0
11
1051.7385
21
290.0822
31
0.0
0
LINE
8
0
10
1051.7385
20
290.0822
30
0.0
11
86.51874
21
412.86743
31
0.0
0
LINE
8
0
10
86.51874
20
412.86743
30
0.0
11
1157.4121
21
506.37817
31
0.0
0
LINE
8
0
10
1157.4121
20
506.37817
30
0.0
11
23.086731
21
154.58421
31
0.0
0
LINE
8
0
10
23.086731
20
154.58421
30
0.0
11
1165.3959
21
800.10895
31
0.0
0
LINE
8
0
10
1165.3959
20
800.10895
30
0.0
11
83.26642
21
-164.4226
31
0.0
0
LINE
8
0
10
83.26642
20
-164.4226
30
0.0
11
1025.707
21
1130.4316
31
0.0
0
LINE
8
0
10
1025.707
20
1130.4316
30
0.0
11
311.45688
21
-488.34845
31
0.0
0
LINE
8
0
10
311.45688
20
-488.34845
30
0.0
11
703.461
21
1426.7216
31
0.0
0
LINE
8
0
10
703.461
20
1426.7216
30
0.0
11
728.7975
21
-732.7677
31
0.0
0
LINE
8
0
10
728.7975
20
-732.7677
30
0.0
11
195.6148
21
1592.8651
31
0.0
0
LINE
8
0
10
195.6148
20
1592.8651
30
0.0
11
1316.0096
21
-793.20154
31
0.0
0
LINE
8
0
10
1316.0096
20
-793.20154
30
0.0
11
-452.5448
21
1520.574
31
0.0
0
LINE
8
0
10
-452.5448
20
1520.574
30
0.0
11
1998.8857
21
-563.33344
31
0.0
0
LINE
8
0
10
1998.8857
20
-563.33344
30
0.0
11
-1136.0059
21
1112.4144
31
0.0
0
LINE
8
0
10
-1136.0059
20
1112.4144
30
0.0
11
2641.207
21
37.435303
31
0.0
0
LINE
8
0
10
2641.207
20
37.435303
30
0.0
11
-1688.7839
21
313.35086
31
0.0
0
LINE
8
0
10
-1688.7839
20
313.35086
30
0.0
11
3050.8716
21
1029.648
31
0.0
0
LINE
8
0
10
3050.8716
20
1029.648
30
0.0
11
-1898.6902
21
-853.8812
31
0.0
0
LINE
8
0
10
-1898.6902
20
-853.8812
30
0.0
11
3004.0776
21
2339.094
31
0.0
0
LINE
8
0
10
3004.0776
20
2339.094
30
0.0
11
-1541.4607
21
-2256.7107
31
0.0
0
LINE
8
0
10
-1541.4607
20
-2256.7107
30
0.0
11
2289.8315
21
3769.9993
31
0.0
0
LINE
8
0
10
2289.8315
20
3769.9993
30
0.0
11
-435.1432
21
-3634.343
31
0.0
0
LINE
8
0
10
-435.1432
20
-3634.343
30
0.0
11
772.67847
21
4998.28
31
0.0
0
LINE
8
0
10
772.67847
20
4998.28
30
0.0
11
1490.6775
21
-4605.1284
31
0.0
0
LINE
8
0
10
1490.6775
20
-4605.1284
30
0.0
11
-1533.9861
21
5595.344
31
0.0
0
LINE
8
0
10
-1533.9861
20
5595.344
30
0.0
11
4120.922
21
-4709.5024
31
0.0
0
LINE
8
0
10
4120.922
20
-4709.5024
30
0.0
11
-4398.27
21
5091.962
31
0.0
0
LINE
8
0
10
605.66693
20
402.97424
30
0.0
11
594.5781
21
395.46143
31
0.0
0
LINE
8
0
10
594.5781
20
395.46143
30
0.0
11
604.79083
21
406.17017
31
0.0
0
LINE
8
0
10
604.79083
20
406.17017
30
0.0
11
596.2726
21
392.21603
31
0.0
0
LINE
8
0
10
596.2726
20
392.21603
30
0.0
11
602.20123
21
409.2773
31
0.0
0
LINE
8
0
10
602.20123
20
409.2773
30
0.0
11
599.7964
21
389.46783
31
0.0
0
LINE
8
0
10
599.7964
20
389.46783
30
0.0
11
597.753
21
411.41913
31
0.0
0
LINE
8
0
10
597.753
20
411.41913
30
0.0
11
605.1007
21
388.19727
31
0.0
0
LINE
8
0
10
605.1007
20
388.19727
30
0.0
11
591.72833
21
411.54852
31
0.0
0
LINE
8
0
10
591.72833
20
411.54852
30
0.0
11
611.6358
21
389.46866
31
0.0
0
LINE
8
0
10
611.6358
20
389.46866
30
0.0
11
584.9703
21
408.64514
31
0.0
0
LINE
8
0
10
584.9703
20
408.64514
30
0.0
11
618.25226
21
394.18628
31
0.0
0
LINE
8
0
10
618.25226
20
394.18628
30
0.0
11
578.9316
21
402.00186
31
0.0
0
LINE
8
0
10
578.9316
20
402.00186
30
0.0
11
623.2162
21
402.7734
31
0.0
0
LINE
8
0
10
623.2162
20
402.7734
30
0.0
11
575.58344
21
391.56775
31
0.0
0
LINE
8
0
10
575.58344
20
391.56775
30
0.0
11
624.3872
21
414.8231
31
0.0
0
LINE
8
0
10
624.3872
20
414.8231
30
0.0
11
577.1414
21
378.2836
31
0.0
0
LINE
8
0
10
577.1414
20
378.2836
30
0.0
11
619.5935
21
428.80096
31
0.0
0
LINE
8
0
10
619.5935
20
428.80096
30
0.0
11
585.591
21
364.31476
31
0.0
0
LINE
8
0
10
585.591
20
364.31476
30
0.0
11
607.1987
21
441.90384
31
0.0
0
LINE
8
0
10
607.1987
20
441.90384
30
0.0
11
602.0426
21
353.07092
31
0.0
0
LINE
8
0
10
602.0426
20
353.07092
30
0.0
11
586.80273
21
450.19028
31
0.0
0
LINE
8
0
10
586.80273
20
450.19028
30
0.0
11
626.00476
21
348.90143
31
0.0
0
LINE
8
0
10
626.00476
20
348.90143
30
0.0
11
559.9546
21
449.07953
31
0.0
0
LINE
8
0
10
559.9546
20
449.07953
30
0.0
11
654.7322
21
356.38925
31
0.0
0
LINE
8
0
10
654.7322
20
356.38925
30
0.0
11
530.69135
21
434.26562
31
0.0
0
LINE
8
0
10
530.69135
20
434.26562
30
0.0
11
682.8574
21
379.23782
31
0.0
0
LINE
8
0
10
682.8574
20
379.23782
30
0.0
11
505.67694
21
403.00922
31
0.0
0
LINE
8
0
10
505.67694
20
403.00922
30
0.0
11
702.54395
21
418.84476
31
0.0
0
LINE
8
0
10
702.54395
20
418.84476
30
0.0
11
493.69873
21
355.63507
31
0.0
0
LINE
8
0
10
493.69873
20
355.63507
30
0.0
11
704.37994
21
472.79956
31
0.0
0
LINE
8
0
10
704.37994
20
472.79956
30
0.0
11
504.3541
21
296.9508
31
0.0
0
LINE
8
0
10
504.3541
20
296.9508
30
0.0
11
679.1306
21
533.6636
31
0.0
0
LINE
8
0
10
679.1306
20
533.6636
30
0.0
11
545.8726
21
237.1505
31
0.0
0
LINE
8
0
10
545.8726
20
237.1505
30
0.0
11
620.2969
21
588.50433
31
0.0
0
LINE
8
0
10
620.2969
20
588.50433
30
0.0
11
622.2401
21
191.72069
31
0.0
0
LINE
8
0
10
622.2401
20
191.72069
30
0.0
11
527.2031
21
619.66693
31
0.0
0
LINE
8
0
10
527.2031
20
619.66693
30
0.0
11
730.04956
21
179.87973
31
0.0
0
LINE
8
0
10
730.04956
20
179.87973
30
0.0
11
408.02777
21
607.1981
31
0.0
0
LINE
8
0
10
408.02777
20
607.1981
30
0.0
11
855.80096
21
221.2562
31
0.0
0
LINE
8
0
10
855.80096
20
221.2562
30
0.0
11
281.9478
21
533.0693
31
0.0
0
LINE
8
0
10
281.9478
20
533.0693
30
0.0
11
974.5647
21
330.82333
31
0.0
0
LINE
8
0
10
974.5647
20
330.82333
30
0.0
11
179.38489
21
386.95602
31
0.0
0
LINE
8
0
10
179.38489
20
386.95602
30
0.0
11
1051.0759
21
512.6061
31
0.0
0
LINE
8
0
10
1051.0759
20
512.6061
30
0.0
11
139.35516
21
172.76683
31
0.0
0
LINE
8
0
10
139.35516
20
172.76683
30
0.0
11
1044.1274
21
753.23566
31
0.0
0
LINE
8
0
10
1044.1274
20
753.23566
30
0.0
11
203.21918
21
-85.40991
31
0.0
0
LINE
8
0
10
203.21918
20
-85.40991
30
0.0
11
914.6932
21
1017.0315
31
0.0
0
LINE
8
0
10
914.6932
20
1017.0315
30
0.0
11
404.75552
21
-339.9095
31
0.0
0
LINE
8
0
10
404.75552
20
-339.9095
30
0.0
11
637.4961
21
1244.6011
31
0.0
0
LINE
8
0
10
637.4961
20
1244.6011
30
0.0
11
757.34406
21
-520.68616
31
0.0
0
LINE
8
0
10
757.34406
20
-520.68616
30
0.0
11
214.46866
21
1357.1974
31
0.0
0
LINE
8
0
10
214.46866
20
1357.1974
30
0.0
11
1240.468
21
-543.16064
31
0.0
0
LINE
8
0
10
1240.468
20
-543.16064
30
0.0
11
-312.41754
21
1268.3022
31
0.0
0
LINE
8
0
10
-312.41754
20
1268.3022
30
0.0
11
1788.5035
21
-323.78094
31
0.0
0
LINE
8
0
10
1788.5035
20
-323.78094
30
0.0
11
-852.7389
21
903.07666
31
0.0
0
LINE
8
0
10
-852.7389
20
903.07666
30
0.0
11
2286.3352
21
197.10553
31
0.0
0
LINE
8
0
10
2286.3352
20
197.10553
30
0.0
11
-1268.2324
21
224.04907
31
0.0
0
LINE
8
0
10
-1268.2324
20
224.04907
30
0.0
11
2575.891
21
1027.5615
31
0.0
0
LINE
8
0
10
2575.891
20
1027.5615
30
0.0
11
-1386.3495
21
-740.37537
31
0.0
0
LINE
8
0
10
-1386.3495
20
-740.37537
30
0.0
11
2477.5266
21
2096.503
31
0.0
0
LINE
8
0
10
2477.5266
20
2096.503
30
0.0
11
-1029.7722
21
-1871.456
31
0.0
0
LINE
8
0
10
-1029.7722
20
-1871.456
30
0.0
11
1827.5626
21
3234.2134
31
0.0
0
LINE
8
0
10
1827.5626
20
3234.2134
30
0.0
11
-61.533447
21
-2947.587
31
0.0
0
LINE
8
0
10
-61.533447
20
-2947.587
30
0.0
11
530.15405
21
4169.29
31
0.0
0
LINE
8
0
10
530.15405
20
4169.29
30
0.0
11
1558.2798
21
-3653.288
31
0.0
0
LINE
8
0
10
1558.2798
20
-3653.288
30
0.0
11
-1384.0288
21
4551.822
31
0.0
0
LINE
8
0
10
-1384.0288
20
4551.822
30
0.0
11
3714.656
21
-3617.902
31
0.0
0
LINE
8
0
10
3714.656
20
-3617.902
30
0.0
11
-3703.9487
21
4008.5356
31
0.0
0
LINE
8
0
10
-3703.9487
20
4008.5356
30
0.0
11
6092.1265
21
-2487.9841
31
0.0
0
LINE
8
0
10
6092.1265
20
-2487.9841
30
0.0
11
-6006.212
21
2231.713
31
0.0
0
LINE
8
0
10
603.6356
20
405.2671
30
0.0
11
597.30835
21
393.46164
31
0.0
0
LINE
8
0
10
597.30835
20
393.46164
30
0.0
11
601.3747
21
407.68982
31
0.0
0
LINE
8
0
10
601.3747
20
407.68982
30
0.0
11
600.31696
21
391.37543
31
0.0
0
LINE
8
0
10
600.31696
20
391.37543
30
0.0
11
597.6377
21
409.2376
31
0.0
0
LINE
8
0
10
597.6377
20
409.2376
30
0.0
11
604.71423
21
390.57962
31
0.0
0
LINE
8
0
10
604.71423
20
390.57962
30
0.0
11
592.7036
21
409.0669
31
0.0
0
LINE
8
0
10
592.7036
20
409.0669
30
0.0
11
610.00146
21
391.91962
31
0.0
0
LINE
8
0
10
610.00146
20
391.91962
30
0.0
11
587.3089
21
406.38168
31
0.0
0
LINE
8
0
10
587.3089
20
406.38168
30
0.0
11
615.19714
21
396.08237
31
0.0
0
LINE
8
0
10
615.19714
20
396.08237
30
0.0
11
582.67426
21
400.67026
31
0.0
0
LINE
8
0
10
582.67426
20
400.67026
30
0.0
11
618.86334
21
403.33444
31
0.0
0
LINE
8
0
10
618.86334
20
403.33444
30
0.0
11
580.4145
21
391.98157
31
0.0
0
LINE
8
0
10
580.4145
20
391.98157
30
0.0
11
619.26807
21
413.24475
31
0.0
0
LINE
8
0
10
619.26807
20
413.24475
30
0.0
11
582.2988
21
381.18674
31
0.0
0
LINE
8
0
10
582.2988
20
381.18674
30
0.0
11
614.70514
21
424.4585
31
0.0
0
LINE
8
0
10
614.70514
20
424.4585
30
0.0
11
589.85175
21
370.14822
31
0.0
0
LINE
8
0
10
589.85175
20
370.14822
30
0.0
11
603.96484
21
434.60754
31
0.0
0
LINE
8
0
10
603.96484
20
434.60754
30
0.0
11
603.82526
21
361.7061
31
0.0
0
LINE
8
0
10
603.82526
20
361.7061
30
0.0
11
586.90063
21
440.44946
31
0.0
0
LINE
8
0
10
586.90063
20
440.44946
30
0.0
11
623.61755
21
359.3955
31
0.0
0
LINE
8
0
10
623.61755
20
359.3955
30
0.0
11
564.9898
21
438.30823
31
0.0
0
LINE
8
0
10
564.9898
20
438.30823
30
0.0
11
646.77264
21
366.8393
31
0.0
0
LINE
8
0
10
646.77264
20
366.8393
30
0.0
11
541.73315
21
424.84772
31
0.0
0
LINE
8
0
10
541.73315
20
424.84772
30
0.0
11
668.7299
21
386.81995
31
0.0
0
LINE
8
0
10
668.7299
20
386.81995
30
0.0
11
522.7062
21
398.13196
31
0.0
0
LINE
8
0
10
522.7062
20
398.13196
30
0.0
11
683.0156
21
420.12054
31
0.0
0
LINE
8
0
10
683.0156
20
420.12054
30
0.0
11
515.08203
21
358.8317
31
0.0
0
LINE
8
0
10
515.08203
20
358.8317
30
0.0
11
682.0415
21
464.3395
31
0.0
0
LINE
8
0
10
682.0415
20
464.3395
30
0.0
11
526.49097
21
311.31726
31
0.0
0
LINE
8
0
10
526.49097
20
311.31726
30
0.0
11
658.5939
21
512.9677
31
0.0
0
LINE
8
0
10
658.5939
20
512.9677
30
0.0
11
563.1971
21
264.30615
31
0.0
0
LINE
8
0
10
563.1971
20
264.30615
30
0.0
11
607.9525
21
555.1269
31
0.0
0
LINE
8
0
10
607.9525
20
555.1269
30
0.0
11
627.74994
21
230.64926
31
0.0
0
LINE
8
0
10
627.74994
20
230.64926
30
0.0
11
530.3723
21
576.34576
31
0.0
0
LINE
8
0
10
530.3723
20
576.34576
30
0.0
11
716.4809
21
225.91068
31
0.0
0
LINE
8
0
10
716.4809
20
225.91068
30
0.0
11
433.45966
21
560.67755
31
0.0
0
LINE
8
0
10
433.45966
20
560.67755
30
0.0
11
817.44617
21
265.52698
31
0.0
0
LINE
8
0
10
817.44617
20
265.52698
30
0.0
11
333.72867
21
494.25488
31
0.0
0
LINE
8
0
10
333.72867
20
494.25488
30
0.0
11
909.5663
21
360.6022
31
0.0
0
LINE
8
0
10
909.5663
20
360.6022
30
0.0
11
256.53772
21
370.02856
31
0.0
0
LINE
8
0
10
256.53772
20
370.02856
30
0.0
11
963.8103
21
512.81055
31
0.0
0
LINE
8
0
10
963.8103
20
512.81055
30
0.0
11
233.62253
21
192.98607
31
0.0
0
LINE
8
0
10
233.62253
20
192.98607
30
0.0
11
947.0819
21
709.328
31
0.0
0
LINE
8
0
10
947.0819
20
709.328
30
0.0
11
297.71353
21
-15.272766
31
0.0
0
LINE
8
0
10
297.71353
20
-15.272766
30
0.0
11
829.1064
21
919.16754
31
0.0
0
LINE
8
0
10
829.1064
20
919.16754
30
0.0
11
474.24
21
-214.2005
31
0.0
0
LINE
8
0
10
474.24
20
-214.2005
30
0.0
11
591.90857
21
1092.5996
31
0.0
0
LINE
8
0
10
591.90857
20
1092.5996
30
0.0
11
770.9614
21
-345.89453
31
0.0
0
LINE
8
0
10
770.9614
20
-345.89453
30
0.0
11
240.70703
21
1165.2878
31
0.0
0
LINE
8
0
10
240.70703
20
1165.2878
30
0.0
11
1167.1742
21
-342.1142
31
0.0
0
LINE
8
0
10
1167.1742
20
-342.1142
30
0.0
11
-186.19281
21
1068.4027
31
0.0
0
LINE
8
0
10
-186.19281
20
1068.4027
30
0.0
11
1605.4069
21
-137.50208
31
0.0
0
LINE
8
0
10
1605.4069
20
-137.50208
30
0.0
11
-611.42065
21
744.8402
31
0.0
0
LINE
8
0
10
-611.42065
20
744.8402
30
0.0
11
1988.7241
21
311.428
31
0.0
0
LINE
8
0
10
1988.7241
20
311.428
30
0.0
11
-920.13135
21
170.3537
31
0.0
0
LINE
8
0
10
-920.13135
20
170.3537
30
0.0
11
2187.4746
21
1004.00104
31
0.0
0
LINE
8
0
10
2187.4746
20
1004.00104
30
0.0
11
-972.4845
21
-623.98395
31
0.0
0
LINE
8
0
10
-972.4845
20
-623.98395
30
0.0
11
2057.9443
21
1873.8984
31
0.0
0
LINE
8
0
10
2057.9443
20
1873.8984
30
0.0
11
-628.8954
21
-1532.8364
31
0.0
0
LINE
8
0
10
-628.8954
20
-1532.8364
30
0.0
11
1474.0989
21
2774.6956
31
0.0
0
LINE
8
0
10
1474.0989
20
2774.6956
30
0.0
11
212.46506
21
-2368.6616
31
0.0
0
LINE
8
0
10
212.46506
20
-2368.6616
30
0.0
11
369.87457
21
3480.0515
31
0.0
0
LINE
8
0
10
369.87457
20
3480.0515
30
0.0
11
1569.8932
21
-2871.5854
31
0.0
0
LINE
8
0
10
1569.8932
20
-2871.5854
30
0.0
11
-1213.472
21
3705.1086
31
0.0
0
LINE
8
0
10
-1213.472
20
3705.1086
30
0.0
11
3332.124
21
-2743.7148
31
0.0
0
LINE
8
0
10
3332.124
20
-2743.7148
30
0.0
11
-3086.1765
21
3154.287
31
0.0
0
LINE
8
0
10
-3086.1765
20
3154.287
30
0.0
11
5225.0713
21
-1710.2925
31
0.0
0
LINE
8
0
10
5225.0713
20
-1710.2925
30
0.0
11
-4887.909
21
1595.1376
31
0.0
0
LINE
8
0
10
-4887.909
20
1595.1376
30
0.0
11
6805.1494
21
395.04175
31
0.0
0
LINE
8
0
10
6805.1494
20
395.04175
30
0.0
11
-6100.7715
21
-1048.0579
31
0.0
0
LINE
8
0
10
600.7714
20
406.35333
30
0.0
11
600.6552
21
392.95972
31
0.0
0
LINE
8
0
10
600.6552
20
392.95972
30
0.0
11
597.64355
21
407.44785
31
0.0
0
LINE
8
0
10
597.64355
20
407.44785
30
0.0
11
604.2887
21
392.5106
31
0.0
0
LINE
8
0
10
604.2887
20
392.5106
30
0.0
11
593.61536
21
407.08167
31
0.0
0
LINE
8
0
10
593.61536
20
407.08167
30
0.0
11
608.5521
21
393.84946
31
0.0
0
LINE
8
0
10
608.5521
20
393.84946
30
0.0
11
589.3258
21
404.63754
31
0.0
0
LINE
8
0
10
589.3258
20
404.63754
30
0.0
11
612.611
21
397.49307
31
0.0
0
LINE
8
0
10
612.611
20
397.49307
30
0.0
11
585.7969
21
399.75287
31
0.0
0
LINE
8
0
10
585.7969
20
399.75287
30
0.0
11
615.27704
21
403.59357
31
0.0
0
LINE
8
0
10
615.27704
20
403.59357
30
0.0
11
584.34735
21
392.54184
31
0.0
0
LINE
8
0
10
584.34735
20
392.54184
30
0.0
11
615.1531
21
411.71872
31
0.0
0
LINE
8
0
10
615.1531
20
411.71872
30
0.0
11
586.3843
21
383.79822
31
0.0
0
LINE
8
0
10
586.3843
20
383.79822
30
0.0
11
610.9058
21
420.682
31
0.0
0
LINE
8
0
10
610.9058
20
420.682
30
0.0
11
593.06934
21
375.11554
31
0.0
0
LINE
8
0
10
593.06934
20
375.11554
30
0.0
11
601.65436
21
428.49075
31
0.0
0
LINE
8
0
10
601.65436
20
428.49075
30
0.0
11
604.88715
21
368.85144
31
0.0
0
LINE
8
0
10
604.88715
20
368.85144
30
0.0
11
587.42773
21
432.486
31
0.0
0
LINE
8
0
10
587.42773
20
432.486
30
0.0
11
621.18317
21
367.87012
31
0.0
0
LINE
8
0
10
621.18317
20
367.87012
30
0.0
11
569.60315
21
429.72852
31
0.0
0
LINE
8
0
10
569.60315
20
429.72852
30
0.0
11
639.78217
21
375.02216
31
0.0
0
LINE
8
0
10
639.78217
20
375.02216
30
0.0
11
551.1973
21
417.6502
31
0.0
0
LINE
8
0
10
551.1973
20
417.6502
30
0.0
11
656.8257
21
392.37424
31
0.0
0
LINE
8
0
10
656.8257
20
392.37424
30
0.0
11
536.8599
21
394.92358
31
0.0
0
LINE
8
0
10
536.8599
20
394.92358
30
0.0
11
666.98236
21
420.27002
31
0.0
0
LINE
8
0
10
666.98236
20
420.27002
30
0.0
11
532.42786
21
362.4257
31
0.0
0
LINE
8
0
10
532.42786
20
362.4257
30
0.0
11
664.1562
21
456.39514
31
0.0
0
LINE
8
0
10
664.1562
20
456.39514
30
0.0
11
543.94073
21
324.08392
31
0.0
0
LINE
8
0
10
543.94073
20
324.08392
30
0.0
11
642.7441
21
495.0964
31
0.0
0
LINE
8
0
10
642.7441
20
495.0964
30
0.0
11
576.12396
21
287.31396
31
0.0
0
LINE
8
0
10
576.12396
20
287.31396
30
0.0
11
599.3836
21
527.2579
31
0.0
0
LINE
8
0
10
599.3836
20
527.2579
30
0.0
11
630.4727
21
262.7459
31
0.0
0
LINE
8
0
10
630.4727
20
262.7459
30
0.0
11
534.9505
21
541.0537
31
0.0
0
LINE
8
0
10
534.9505
20
541.0537
30
0.0
11
703.2726
21
262.94342
31
0.0
0
LINE
8
0
10
703.2726
20
262.94342
30
0.0
11
456.39575
21
523.7888
31
0.0
0
LINE
8
0
10
456.39575
20
523.7888
30
0.0
11
784.04285
21
299.98438
31
0.0
0
LINE
8
0
10
784.04285
20
299.98438
30
0.0
11
377.8653
21
464.87772
31
0.0
0
LINE
8
0
10
377.8653
20
464.87772
30
0.0
11
855.03174
21
381.98236
31
0.0
0
LINE
8
0
10
855.03174
20
381.98236
30
0.0
11
320.42603
21
359.71603
31
0.0
0
LINE
8
0
10
320.42603
20
359.71603
30
0.0
11
892.4164
21
508.97766
31
0.0
0
LINE
8
0
10
892.4164
20
508.97766
30
0.0
11
309.80914
21
213.84445
31
0.0
0
LINE
8
0
10
309.80914
20
213.84445
30
0.0
11
869.7123
21
668.95984
31
0.0
0
LINE
8
0
10
869.7123
20
668.95984
30
0.0
11
371.7931
21
46.434113
31
0.0
0
LINE
8
0
10
371.7931
20
46.434113
30
0.0
11
763.57385
21
835.19336
31
0.0
0
LINE
8
0
10
763.57385
20
835.19336
30
0.0
11
525.32556
21
-108.1853
31
0.0
0
LINE
8
0
10
525.32556
20
-108.1853
30
0.0
11
561.59436
21
966.1711
31
0.0
0
LINE
8
0
10
561.59436
20
966.1711
30
0.0
11
774.07837
21
-202.29108
31
0.0
0
LINE
8
0
10
774.07837
20
-202.29108
30
0.0
11
270.9682
21
1009.50616
31
0.0
0
LINE
8
0
10
270.9682
20
1009.50616
30
0.0
11
1098.0134
21
-181.00696
31
0.0
0
LINE
8
0
10
1098.0134
20
-181.00696
30
0.0
11
-73.78522
21
910.65674
31
0.0
0
LINE
8
0
10
-73.78522
20
910.65674
30
0.0
11
1447.0856
21
6.469696
31
0.0
0
LINE
8
0
10
1447.0856
20
6.469696
30
0.0
11
-406.7614
21
626.479
31
0.0
0
LINE
8
0
10
-406.7614
20
626.479
30
0.0
11
1740.0332
21
391.30164
31
0.0
0
LINE
8
0
10
1740.0332
20
391.30164
30
0.0
11
-632.9148
21
142.36533
31
0.0
0
LINE
8
0
10
-632.9148
20
142.36533
30
0.0
11
1870.8154
21
966.9459
31
0.0
0
LINE
8
0
10
1870.8154
20
966.9459
30
0.0
11
-639.28723
21
-509.78217
31
0.0
0
LINE
8
0
10
-639.28723
20
-509.78217
30
0.0
11
1724.9453
21
1672.5527
31
0.0
0
LINE
8
0
10
1724.9453
20
1672.5527
30
0.0
11
-316.49652
21
-1237.463
31
0.0
0
LINE
8
0
10
-316.49652
20
-1237.463
30
0.0
11
1205.9906
21
2382.6128
31
0.0
0
LINE
8
0
10
1205.9906
20
2382.6128
30
0.0
11
410.10147
21
-1882.5378
31
0.0
0
LINE
8
0
10
410.10147
20
-1882.5378
30
0.0
11
270.39954
21
2908.9023
31
0.0
0
LINE
8
0
10
270.39954
20
2908.9023
30
0.0
11
1543.5166
21
-2231.6245
31
0.0
0
LINE
8
0
10
1543.5166
20
-2231.6245
30
0.0
11
-1035.1377
21
3020.3052
31
0.0
0
LINE
8
0
10
-1035.1377
20
3020.3052
30
0.0
11
2979.18
21
-2046.1128
31
0.0
0
LINE
8
0
10
2979.18
20
-2046.1128
30
0.0
11
-2541.711
21
2483.7651
31
0.0
0
LINE
8
0
10
-2541.711
20
2483.7651
30
0.0
11
4480.1333
21
-1113.939
31
0.0
0
LINE
8
0
10
4480.1333
20
-1113.939
30
0.0
11
-3943.9287
21
1125.7476
31
0.0
0
LINE
8
0
10
-3943.9287
20
1125.7476
30
0.0
11
5675.999
21
680.8075
31
0.0
0
LINE
8
0
10
5675.999
20
680.8075
30
0.0
11
-4814.71
21
-1092.1179
31
0.0
0
LINE
8
0
10
-4814.71
20
-1092.1179
30
0.0
11
6096.6904
21
3279.2874
31
0.0
0
LINE
8
0
10
6096.6904
20
3279.2874
30
0.0
11
-4660.2915
21
-3996.1963
31
0.0
0
LINE
8
0
10
597.7305
20
405.9841
30
0.0
11
603.8519
21
394.07062
31
0.0
0
LINE
8
0
10
603.8519
20
394.07062
30
0.0
11
594.4523
21
405.49966
31
0.0
0
LINE
8
0
10
594.4523
20
405.49966
30
0.0
11
607.27795
21
395.3615
31
0.0
0
LINE
8
0
10
607.27795
20
395.3615
30
0.0
11
591.05566
21
403.30344
31
0.0
0
LINE
8
0
10
591.05566
20
403.30344
30
0.0
11
610.4308
21
398.52832
31
0.0
0
LINE
8
0
10
610.4308
20
398.52832
30
0.0
11
588.3933
21
399.14578
31
0.0
0
LINE
8
0
10
588.3933
20
399.14578
30
0.0
11
612.3315
21
403.6409
31
0.0
0
LINE
8
0
10
612.3315
20
403.6409
30
0.0
11
587.53864
21
393.18063
31
0.0
0
LINE
8
0
10
587.53864
20
393.18063
30
0.0
11
611.8571
21
410.28152
31
0.0
0
LINE
8
0
10
611.8571
20
410.28152
30
0.0
11
589.60626
21
386.12195
31
0.0
0
LINE
8
0
10
589.60626
20
386.12195
30
0.0
11
607.9714
21
417.41843
31
0.0
0
LINE
8
0
10
607.9714
20
417.41843
30
0.0
11
595.4732
21
379.32648
31
0.0
0
LINE
8
0
10
595.4732
20
379.32648
30
0.0
11
600.0452
21
423.3812
31
0.0
0
LINE
8
0
10
600.0452
20
423.3812
30
0.0
11
605.4276
21
374.74506
31
0.0
0
LINE
8
0
10
605.4276
20
374.74506
30
0.0
11
588.22455
21
425.99612
31
0.0
0
LINE
8
0
10
588.22455
20
425.99612
30
0.0
11
618.8028
21
374.6905
31
0.0
0
LINE
8
0
10
618.8028
20
374.6905
30
0.0
11
573.77075
21
422.92218
31
0.0
0
LINE
8
0
10
573.77075
20
422.92218
30
0.0
11
633.6883
21
381.3947
31
0.0
0
LINE
8
0
10
633.6883
20
381.3947
30
0.0
11
559.2694
21
412.19717
31
0.0
0
LINE
8
0
10
559.2694
20
412.19717
30
0.0
11
646.8331
21
396.37106
31
0.0
0
LINE
8
0
10
646.8331
20
396.37106
30
0.0
11
548.5849
21
392.94873
31
0.0
0
LINE
8
0
10
548.5849
20
392.94873
30
0.0
11
653.86053
21
419.65594
31
0.0
0
LINE
8
0
10
653.86053
20
419.65594
30
0.0
11
546.4514
21
366.16238
31
0.0
0
LINE
8
0
10
546.4514
20
366.16238
30
0.0
11
649.89
21
449.07648
31
0.0
0
LINE
8
0
10
649.89
20
449.07648
30
0.0
11
557.6295
21
335.32727
31
0.0
0
LINE
8
0
10
557.6295
20
335.32727
30
0.0
11
630.5993
21
479.75027
31
0.0
0
LINE
8
0
10
630.5993
20
479.75027
30
0.0
11
585.6427
21
306.72748
31
0.0
0
LINE
8
0
10
585.6427
20
306.72748
30
0.0
11
593.6545
21
504.06784
31
0.0
0
LINE
8
0
10
593.6545
20
504.06784
30
0.0
11
631.2266
21
289.12573
31
0.0
0
LINE
8
0
10
631.2266
20
289.12573
30
0.0
11
540.3145
21
512.3948
31
0.0
0
LINE
8
0
10
540.3145
20
512.3948
30
0.0
11
690.76746
21
292.62894
31
0.0
0
LINE
8
0
10
690.76746
20
292.62894
30
0.0
11
476.84982
21
494.6659
31
0.0
0
LINE
8
0
10
476.84982
20
494.6659
30
0.0
11
755.1367
21
326.63565
31
0.0
0
LINE
8
0
10
755.1367
20
326.63565
30
0.0
11
415.3172
21
442.8733
31
0.0
0
LINE
8
0
10
415.3172
20
442.8733
30
0.0
11
809.4414
21
396.96957
31
0.0
0
LINE
8
0
10
809.4414
20
396.96957
30
0.0
11
373.1593
21
354.21515
31
0.0
0
LINE
8
0
10
373.1593
20
354.21515
30
0.0
11
834.1918
21
502.56714
31
0.0
0
LINE
8
0
10
834.1918
20
502.56714
30
0.0
11
371.17047
21
234.40578
31
0.0
0
LINE
8
0
10
371.17047
20
234.40578
30
0.0
11
808.27734
21
632.3877
31
0.0
0
LINE
8
0
10
808.27734
20
632.3877
30
0.0
11
429.5596
21
100.30902
31
0.0
0
LINE
8
0
10
429.5596
20
100.30902
30
0.0
11
713.8264
21
763.4937
31
0.0
0
LINE
8
0
10
713.8264
20
763.4937
30
0.0
11
562.2464
21
-19.120392
31
0.0
0
LINE
8
0
10
562.2464
20
-19.120392
30
0.0
11
542.5929
21
861.3611
31
0.0
0
LINE
8
0
10
542.5929
20
861.3611
30
0.0
11
770.0447
21
-84.67862
31
0.0
0
LINE
8
0
10
770.0447
20
-84.67862
30
0.0
11
302.88058
21
883.4715
31
0.0
0
LINE
8
0
10
302.88058
20
883.4715
30
0.0
11
1034.0444
21
-52.39731
31
0.0
0
LINE
8
0
10
1034.0444
20
-52.39731
30
0.0
11
25.405151
21
786.7821
31
0.0
0
LINE
8
0
10
25.405151
20
786.7821
30
0.0
11
1310.9764
21
116.98242
31
0.0
0
LINE
8
0
10
1310.9764
20
116.98242
30
0.0
11
-233.92126
21
539.04034
31
0.0
0
LINE
8
0
10
-233.92126
20
539.04034
30
0.0
11
1532.9397
21
445.2067
31
0.0
0
LINE
8
0
10
1532.9397
20
445.2067
30
0.0
11
-396.68884
21
132.65643
31
0.0
0
LINE
8
0
10
-396.68884
20
132.65643
30
0.0
11
1613.4915
21
922.098
31
0.0
0
LINE
8
0
10
1613.4915
20
922.098
30
0.0
11
-371.9629
21
-401.08844
31
0.0
0
LINE
8
0
10
-371.9629
20
-401.08844
30
0.0
11
1461.7781
21
1492.5833
31
0.0
0
LINE
8
0
10
1461.7781
20
1492.5833
30
0.0
11
-74.53729
21
-981.4978
31
0.0
0
LINE
8
0
10
-74.53729
20
-981.4978
30
0.0
11
1004.67944
21
2049.584
31
0.0
0
LINE
8
0
10
1004.67944
20
2049.584
30
0.0
11
549.45
21
-1475.8186
31
0.0
0
LINE
8
0
10
549.45
20
-1475.8186
30
0.0
11
215.21143
21
2437.1343
31
0.0
0
LINE
8
0
10
215.21143
20
2437.1343
30
0.0
11
1492.6018
21
-1709.3369
31
0.0
0
LINE
8
0
10
1492.6018
20
-1709.3369
30
0.0
11
-857.79224
21
2468.3496
31
0.0
0
LINE
8
0
10
-857.79224
20
2468.3496
30
0.0
11
2658.4487
21
-1491.6818
31
0.0
0
LINE
8
0
10
2658.4487
20
-1491.6818
30
0.0
11
-2065.5596
21
1960.2782
31
0.0
0
LINE
8
0
10
-2065.5596
20
1960.2782
30
0.0
11
3843.4248
21
-660.2648
31
0.0
0
LINE
8
0
10
3843.4248
20
-660.2648
30
0.0
11
-3150.221
21
785.056
31
0.0
0
LINE
8
0
10
-3150.221
20
785.056
30
0.0
11
4739.25
21
862.66223
31
0.0
0
LINE
8
0
10
4739.25
20
862.66223
30
0.0
11
-3760.6978
21
-1069.1188
31
0.0
0
LINE
8
0
10
-3760.6978
20
-1069.1188
30
0.0
11
4964.0757
21
3007.578
31
0.0
0
LINE
8
0
10
4964.0757
20
3007.578
30
0.0
11
-3501.065
21
-3437.5469
31
0.0
0
LINE
8
0
10
-3501.065
20
-3437.5469
30
0.0
11
4129.005
21
5503.923
31
0.0
0
LINE
8
0
10
4129.005
20
5503.923
30
0.0
11
-2014.7412
21
-5937.2188
31
0.0
0
LINE
8
0
10
595.20953
20
404.244
30
0.0
11
606.16626
21
396.5399
31
0.0
0
LINE
8
0
10
606.16626
20
396.5399
30
0.0
11
592.5319
21
402.29156
31
0.0
0
LINE
8
0
10
592.5319
20
402.29156
30
0.0
11
608.5999
21
399.27505
31
0.0
0
LINE
8
0
10
608.5999
20
399.27505
30
0.0
11
590.545
21
398.7684
31
0.0
0
LINE
8
0
10
590.545
20
398.7684
30
0.0
11
609.9199
21
403.54434
31
0.0
0
LINE
8
0
10
609.9199
20
403.54434
30
0.0
11
590.11975
21
393.84973
31
0.0
0
LINE
8
0
10
590.11975
20
393.84973
30
0.0
11
609.22705
21
408.95456
31
0.0
0
LINE
8
0
10
609.22705
20
408.95456
30
0.0
11
592.1351
21
388.1707
31
0.0
0
LINE
8
0
10
592.1351
20
388.1707
30
0.0
11
605.7209
21
414.6141
31
0.0
0
LINE
8
0
10
605.7209
20
414.6141
30
0.0
11
597.2462
21
382.88138
31
0.0
0
LINE
8
0
10
597.2462
20
382.88138
30
0.0
11
598.9636
21
419.12775
31
0.0
0
LINE
8
0
10
598.9636
20
419.12775
30
0.0
11
605.5992
21
379.59082
31
0.0
0
LINE
8
0
10
605.5992
20
379.59082
30
0.0
11
589.17426
21
420.72403
31
0.0
0
LINE
8
0
10
589.17426
20
420.72403
30
0.0
11
616.5425
21
380.1602
31
0.0
0
LINE
8
0
10
616.5425
20
380.1602
30
0.0
11
577.4924
21
417.54617
31
0.0
0
LINE
8
0
10
577.4924
20
417.54617
30
0.0
11
628.4109
21
386.32755
31
0.0
0
LINE
8
0
10
628.4109
20
386.32755
30
0.0
11
566.1227
21
408.10736
31
0.0
0
LINE
8
0
10
566.1227
20
408.10736
30
0.0
11
638.47577
21
399.18143
31
0.0
0
LINE
8
0
10
638.47577
20
399.18143
30
0.0
11
558.2665
21
391.87177
31
0.0
0
LINE
8
0
10
558.2665
20
391.87177
30
0.0
11
643.1552
21
418.55103
31
0.0
0
LINE
8
0
10
643.1552
20
418.55103
30
0.0
11
557.751
21
369.86276
31
0.0
0
LINE
8
0
10
557.751
20
369.86276
30
0.0
11
638.5567
21
442.43457
31
0.0
0
LINE
8
0
10
638.5567
20
442.43457
30
0.0
11
568.3102
21
345.153
31
0.0
0
LINE
8
0
10
568.3102
20
345.153
30
0.0
11
621.3684
21
466.6401
31
0.0
0
LINE
8
0
10
621.3684
20
466.6401
30
0.0
11
592.5377
21
323.0446
31
0.0
0
LINE
8
0
10
592.5377
20
323.0446
30
0.0
11
590.03253
21
484.83557
31
0.0
0
LINE
8
0
10
590.03253
20
484.83557
30
0.0
11
630.6332
21
310.73914
31
0.0
0
LINE
8
0
10
630.6332
20
310.73914
30
0.0
11
546.01855
21
489.19858
31
0.0
0
LINE
8
0
10
546.01855
20
489.19858
30
0.0
11
679.17633
21
316.33807
31
0.0
0
LINE
8
0
10
679.17633
20
316.33807
30
0.0
11
494.91864
21
471.7834
31
0.0
0
LINE
8
0
10
494.91864
20
471.7834
30
0.0
11
730.26843
21
347.10938
31
0.0
0
LINE
8
0
10
730.26843
20
347.10938
30
0.0
11
446.9625
21
426.59174
31
0.0
0
LINE
8
0
10
446.9625
20
426.59174
30
0.0
11
771.4609
21
407.13477
31
0.0
0
LINE
8
0
10
771.4609
20
407.13477
30
0.0
11
416.54767
21
352.1346
31
0.0
0
LINE
8
0
10
416.54767
20
352.1346
30
0.0
11
786.8595
21
494.649
31
0.0
0
LINE
8
0
10
786.8595
20
494.649
30
0.0
11
420.41986
21
254.04138
31
0.0
0
LINE
8
0
10
420.41986
20
254.04138
30
0.0
11
759.7012
21
599.6531
31
0.0
0
LINE
8
0
10
759.7012
20
599.6531
30
0.0
11
474.33704
21
147.03117
31
0.0
0
LINE
8
0
10
474.33704
20
147.03117
30
0.0
11
676.4221
21
702.561
31
0.0
0
LINE
8
0
10
676.4221
20
702.561
30
0.0
11
588.35596
21
55.4292
31
0.0
0
LINE
8
0
10
588.35596
20
55.4292
30
0.0
11
531.86426
21
774.7555
31
0.0
0
LINE
8
0
10
531.86426
20
774.7555
30
0.0
11
761.3458
21
11.342407
31
0.0
0
LINE
8
0
10
761.3458
20
11.342407
30
0.0
11
334.76324
21
781.8365
31
0.0
0
LINE
8
0
10
334.76324
20
781.8365
30
0.0
11
975.8086
21
49.862152
31
0.0
0
LINE
8
0
10
975.8086
20
49.862152
30
0.0
11
112.23337
21
690.0144
31
0.0
0
LINE
8
0
10
112.23337
20
690.0144
30
0.0
11
1194.5668
21
201.13268
31
0.0
0
LINE
8
0
10
1194.5668
20
201.13268
30
0.0
11
-88.52515
21
475.4508
31
0.0
0
LINE
8
0
10
-88.52515
20
475.4508
30
0.0
11
1361.0632
21
479.80777
31
0.0
0
LINE
8
0
10
1361.0632
20
479.80777
30
0.0
11
-203.01581
21
135.57144
31
0.0
0
LINE
8
0
10
-203.01581
20
135.57144
30
0.0
11
1405.0684
21
873.5874
31
0.0
0
LINE
8
0
10
1405.0684
20
873.5874
30
0.0
11
-158.28326
21
-299.90552
31
0.0
0
LINE
8
0
10
-158.28326
20
-299.90552
30
0.0
11
1254.771
21
1333.288
31
0.0
0
LINE
8
0
10
1254.771
20
1333.288
30
0.0
11
111.654175
21
-761.02246
31
0.0
0
LINE
8
0
10
111.654175
20
-761.02246
30
0.0
11
855.31757
21
1767.9227
31
0.0
0
LINE
8
0
10
855.31757
20
1767.9227
30
0.0
11
644.7412
21
-1136.7286
31
0.0
0
LINE
8
0
10
644.7412
20
-1136.7286
30
0.0
11
191.72559
21
2048.6978
31
0.0
0
LINE
8
0
10
191.72559
20
2048.6978
30
0.0
11
1426.9769
21
-1284.4465
31
0.0
0
LINE
8
0
10
1426.9769
20
-1284.4465
30
0.0
11
-687.41724
21
2024.9725
31
0.0
0
LINE
8
0
10
-687.41724
20
2024.9725
30
0.0
11
2370.6177
21
-1052.9119
31
0.0
0
LINE
8
0
10
2370.6177
20
-1052.9119
30
0.0
11
-1652.021
21
1553.9622
31
0.0
0
LINE
8
0
10
-1652.021
20
1553.9622
30
0.0
11
3301.7742
21
-318.39185
31
0.0
0
LINE
8
0
10
3301.7742
20
-318.39185
30
0.0
11
-2485.3333
21
542.8098
31
0.0
0
LINE
8
0
10
-2485.3333
20
542.8098
30
0.0
11
3964.6394
21
968.47754
31
0.0
0
LINE
8
0
10
3964.6394
20
968.47754
30
0.0
11
-2899.5999
21
-1001.8651
31
0.0
0
LINE
8
0
10
-2899.5999
20
-1001.8651
30
0.0
11
4050.1133
21
2733.273
31
0.0
0
LINE
8
0
10
4050.1133
20
2733.273
30
0.0
11
-2578.472
21
-2927.358
31
0.0
0
LINE
8
0
10
-2578.472
20
-2927.358
30
0.0
11
3252.3945
21
4736.983
31
0.0
0
LINE
8
0
10
3252.3945
20
4736.983
30
0.0
11
-1247.9148
21
-4903.8394
31
0.0
0
LINE
8
0
10
-1247.9148
20
-4903.8394
30
0.0
11
1352.8666
21
6559.3096
31
0.0
0
LINE
8
0
10
1352.8666
20
6559.3096
30
0.0
11
1229.8152
21
-6426.459
31
0.0
0
LINE
8
0
10
593.78595
20
401.53162
30
0.0
11
607.06793
21
399.80182
31
0.0
0
LINE
8
0
10
607.06793
20
399.80182
30
0.0
11
592.32245
21
398.5585
31
0.0
0
LINE
8
0
10
592.32245
20
398.5585
30
0.0
11
607.9517
21
403.35468
31
0.0
0
LINE
8
0
10
607.9517
20
403.35468
30
0.0
11
592.2004
21
394.5155
31
0.0
0
LINE
8
0
10
592.2004
20
394.5155
30
0.0
11
607.13654
21
407.74838
31
0.0
0
LINE
8
0
10
607.13654
20
407.74838
30
0.0
11
594.1096
21
389.96262
31
0.0
0
LINE
8
0
10
594.1096
20
389.96262
30
0.0
11
604.0087
21
412.2169
31
0.0
0
LINE
8
0
10
604.0087
20
412.2169
30
0.0
11
598.5333
21
385.87067
31
0.0
0
LINE
8
0
10
598.5333
20
385.87067
30
0.0
11
598.2741
21
415.5988
31
0.0
0
LINE
8
0
10
598.2741
20
415.5988
30
0.0
11
605.5171
21
383.56247
31
0.0
0
LINE
8
0
10
605.5171
20
383.56247
30
0.0
11
590.19324
21
416.45514
31
0.0
0
LINE
8
0
10
590.19324
20
416.45514
30
0.0
11
614.4425
21
384.53064
31
0.0
0
LINE
8
0
10
614.4425
20
384.53064
30
0.0
11
580.7834
21
413.3193
31
0.0
0
LINE
8
0
10
580.7834
20
413.3193
30
0.0
11
623.8676
21
390.1204
31
0.0
0
LINE
8
0
10
623.8676
20
390.1204
30
0.0
11
571.9164
21
405.07645
31
0.0
0
LINE
8
0
10
571.9164
20
405.07645
30
0.0
11
631.5105
21
401.09686
31
0.0
0
LINE
8
0
10
631.5105
20
401.09686
30
0.0
11
566.2355
21
391.43515
31
0.0
0
LINE
8
0
10
566.2355
20
391.43515
30
0.0
11
634.449
21
417.1559
31
0.0
0
LINE
8
0
10
634.449
20
417.1559
30
0.0
11
566.8242
21
373.40826
31
0.0
0
LINE
8
0
10
566.8242
20
373.40826
30
0.0
11
629.59094
21
436.48135
31
0.0
0
LINE
8
0
10
629.59094
20
436.48135
30
0.0
11
576.596
21
353.68063
31
0.0
0
LINE
8
0
10
576.596
20
353.68063
30
0.0
11
614.4199
21
455.49213
31
0.0
0
LINE
8
0
10
614.4199
20
455.49213
30
0.0
11
597.4288
21
336.7084
31
0.0
0
LINE
8
0
10
597.4288
20
336.7084
30
0.0
11
587.95154
21
468.93726
31
0.0
0
LINE
8
0
10
587.95154
20
468.93726
30
0.0
11
629.15546
21
328.39148
31
0.0
0
LINE
8
0
10
629.15546
20
328.39148
30
0.0
11
551.74866
21
470.4857
31
0.0
0
LINE
8
0
10
551.74866
20
470.4857
30
0.0
11
668.6059
21
335.19937
31
0.0
0
LINE
8
0
10
668.6059
20
335.19937
30
0.0
11
510.74915
21
453.89496
31
0.0
0
LINE
8
0
10
510.74915
20
453.89496
30
0.0
11
708.98676
21
362.71613
31
0.0
0
LINE
8
0
10
708.98676
20
362.71613
30
0.0
11
473.59567
21
414.72723
31
0.0
0
LINE
8
0
10
473.59567
20
414.72723
30
0.0
11
739.92645
21
413.70648
31
0.0
0
LINE
8
0
10
739.92645
20
413.70648
30
0.0
11
452.13422
21
352.4257
31
0.0
0
LINE
8
0
10
452.13422
20
352.4257
30
0.0
11
748.5054
21
485.9994
31
0.0
0
LINE
8
0
10
748.5054
20
485.9994
30
0.0
11
459.80524
21
272.36273
31
0.0
0
LINE
8
0
10
459.80524
20
272.36273
30
0.0
11
721.4702
21
570.6455
31
0.0
0
LINE
8
0
10
721.4702
20
570.6455
30
0.0
11
508.82007
21
187.305
31
0.0
0
LINE
8
0
10
508.82007
20
187.305
30
0.0
11
648.6249
21
651.00085
31
0.0
0
LINE
8
0
10
648.6249
20
651.00085
30
0.0
11
606.2915
21
117.608734
31
0.0
0
LINE
8
0
10
606.2915
20
117.608734
30
0.0
11
527.0613
21
703.41956
31
0.0
0
LINE
8
0
10
527.0613
20
703.41956
30
0.0
11
749.8198
21
89.48648
31
0.0
0
LINE
8
0
10
749.8198
20
89.48648
30
0.0
11
365.5112
21
700.16516
31
0.0
0
LINE
8
0
10
365.5112
20
700.16516
30
0.0
11
923.4829
21
130.84198
31
0.0
0
LINE
8
0
10
923.4829
20
130.84198
30
0.0
11
187.6962
21
614.8377
31
0.0
0
LINE
8
0
10
187.6962
20
614.8377
30
0.0
11
1095.4802
21
264.61914
31
0.0
0
LINE
8
0
10
1095.4802
20
264.61914
30
0.0
11
33.32721
21
430.10977
31
0.0
0
LINE
8
0
10
33.32721
20
430.10977
30
0.0
11
1218.8809
21
500.22076
31
0.0
0
LINE
8
0
10
1218.8809
20
500.22076
30
0.0
11
-44.722412
21
146.83469
31
0.0
0
LINE
8
0
10
-44.722412
20
146.83469
30
0.0
11
1236.7993
21
824.3501
31
0.0
0
LINE
8
0
10
1236.7993
20
824.3501
30
0.0
11
11.851013
21
-207.32
31
0.0
0
LINE
8
0
10
11.851013
20
-207.32
30
0.0
11
1092.7534
21
1193.4824
31
0.0
0
LINE
8
0
10
1092.7534
20
1193.4824
30
0.0
11
253.83603
21
-572.12744
31
0.0
0
LINE
8
0
10
253.83603
20
-572.12744
30
0.0
11
746.0501
21
1530.6727
31
0.0
0
LINE
8
0
10
746.0501
20
1530.6727
30
0.0
11
707.1455
21
-854.97986
31
0.0
0
LINE
8
0
10
707.1455
20
-854.97986
30
0.0
11
190.36685
21
1729.8873
31
0.0
0
LINE
8
0
10
190.36685
20
1729.8873
30
0.0
11
1353.77
21
-939.9132
31
0.0
0
LINE
8
0
10
1353.77
20
-939.9132
30
0.0
11
-527.6974
21
1670.1147
31
0.0
0
LINE
8
0
10
-527.6974
20
1670.1147
30
0.0
11
2115.0532
21
-707.1876
31
0.0
0
LINE
8
0
10
2115.0532
20
-707.1876
30
0.0
11
-1295.1139
21
1240.5487
31
0.0
0
LINE
8
0
10
-1295.1139
20
1240.5487
30
0.0
11
2843.006
21
-63.64215
31
0.0
0
LINE
8
0
10
2843.006
20
-63.64215
30
0.0
11
-1930.3386
21
375.21597
31
0.0
0
LINE
8
0
10
-1930.3386
20
375.21597
30
0.0
11
3326.1555
21
1019.47327
31
0.0
0
LINE
8
0
10
3326.1555
20
1019.47327
30
0.0
11
-2198.2937
21
-907.3745
31
0.0
0
LINE
8
0
10
-2198.2937
20
-907.3745
30
0.0
11
3315.0552
21
2466.9883
31
0.0
0
LINE
8
0
10
3315.0552
20
2466.9883
30
0.0
11
-1847.262
21
-2467.6355
31
0.0
0
LINE
8
0
10
-1847.262
20
-2467.6355
30
0.0
11
2570.597
21
4069.3586
31
0.0
0
LINE
8
0
10
2570.597
20
4069.3586
30
0.0
11
-668.0958
21
-4023.3389
31
0.0
0
LINE
8
0
10
-668.0958
20
-4023.3389
30
0.0
11
933.08105
21
5472.837
31
0.0
0
LINE
8
0
10
933.08105
20
5472.837
30
0.0
11
1428.5708
21
-5155.085
31
0.0
0
LINE
8
0
10
1428.5708
20
-5155.085
30
0.0
11
-1595.7449
21
6203.672
31
0.0
0
LINE
8
0
10
-1595.7449
20
6203.672
30
0.0
11
4330.0884
21
-5351.839
31
0.0
0
LINE
8
0
10
593.78595
20
398.46838
30
0.0
11
606.35046
21
403.10916
31
0.0
0
LINE
8
0
10
606.35046
20
403.10916
30
0.0
11
593.87177
21
395.15567
31
0.0
0
LINE
8
0
10
593.87177
20
395.15567
30
0.0
11
605.48193
21
406.66577
31
0.0
0
LINE
8
0
10
605.48193
20
406.66577
30
0.0
11
595.6425
21
391.51907
31
0.0
0
LINE
8
0
10
595.6425
20
391.51907
30
0.0
11
602.71826
21
410.17737
31
0.0
0
LINE
8
0
10
602.71826
20
410.17737
30
0.0
11
599.449
21
388.37497
31
0.0
0
LINE
8
0
10
599.449
20
388.37497
30
0.0
11
597.8721
21
412.68045
31
0.0
0
LINE
8
0
10
597.8721
20
412.68045
30
0.0
11
605.2676
21
386.8075
31
0.0
0
LINE
8
0
10
605.2676
20
386.8075
30
0.0
11
591.22266
21
413.00995
31
0.0
0
LINE
8
0
10
591.22266
20
413.00995
30
0.0
11
612.52405
21
388.00922
31
0.0
0
LINE
8
0
10
612.52405
20
388.00922
30
0.0
11
583.66943
21
410.01285
31
0.0
0
LINE
8
0
10
583.66943
20
410.01285
30
0.0
11
619.9772
21
393.0143
31
0.0
0
LINE
8
0
10
619.9772
20
393.0143
30
0.0
11
576.79474
21
402.86316
31
0.0
0
LINE
8
0
10
576.79474
20
402.86316
30
0.0
11
625.72504
21
402.34387
31
0.0
0
LINE
8
0
10
625.72504
20
402.34387
30
0.0
11
572.77405
21
391.44385
31
0.0
0
LINE
8
0
10
572.77405
20
391.44385
30
0.0
11
627.39136
21
415.615
31
0.0
0
LINE
8
0
10
627.39136
20
415.615
30
0.0
11
574.08325
21
376.72504
31
0.0
0
LINE
8
0
10
574.08325
20
376.72504
30
0.0
11
622.5303
21
431.20004
31
0.0
0
LINE
8
0
10
622.5303
20
431.20004
30
0.0
11
582.98224
21
361.03656
31
0.0
0
LINE
8
0
10
582.98224
20
361.03656
30
0.0
11
609.24774
21
446.05423
31
0.0
0
LINE
8
0
10
609.24774
20
446.05423
30
0.0
11
600.8025
21
348.10986
31
0.0
0
LINE
8
0
10
600.8025
20
348.10986
30
0.0
11
586.9795
21
455.83707
31
0.0
0
LINE
8
0
10
586.9795
20
455.83707
30
0.0
11
627.13635
21
342.76315
31
0.0
0
LINE
8
0
10
627.13635
20
342.76315
30
0.0
11
557.29486
21
455.44174
31
0.0
0
LINE
8
0
10
557.29486
20
455.44174
30
0.0
11
659.09406
21
350.14304
31
0.0
0
LINE
8
0
10
659.09406
20
350.14304
30
0.0
11
524.5192
21
439.98843
31
0.0
0
LINE
8
0
10
524.5192
20
439.98843
30
0.0
11
690.8619
21
374.50467
31
0.0
0
LINE
8
0
10
690.8619
20
374.50467
30
0.0
11
495.92606
21
406.24466
31
0.0
0
LINE
8
0
10
495.92606
20
406.24466
30
0.0
11
713.82965
21
417.6355
31
0.0
0
LINE
8
0
10
713.82965
20
417.6355
30
0.0
11
481.23044
21
354.2973
31
0.0
0
LINE
8
0
10
481.23044
20
354.2973
30
0.0
11
717.5284
21
477.16446
31
0.0
0
LINE
8
0
10
717.5284
20
477.16446
30
0.0
11
491.18027
21
289.1584
31
0.0
0
LINE
8
0
10
491.18027
20
289.1584
30
0.0
11
691.52905
21
545.1626
31
0.0
0
LINE
8
0
10
691.52905
20
545.1626
30
0.0
11
535.17975
21
221.83104
31
0.0
0
LINE
8
0
10
535.17975
20
221.83104
30
0.0
11
628.2536
21
607.5491
31
0.0
0
LINE
8
0
10
628.2536
20
607.5491
30
0.0
11
618.1103
21
169.29465
31
0.0
0
LINE
8
0
10
618.1103
20
169.29465
30
0.0
11
526.40924
21
644.84735
31
0.0
0
LINE
8
0
10
526.40924
20
644.84735
30
0.0
11
736.8046
21
152.8788
31
0.0
0
LINE
8
0
10
736.8046
20
152.8788
30
0.0
11
394.40985
21
634.7683
31
0.0
0
LINE
8
0
10
394.40985
20
634.7683
30
0.0
11
876.96173
21
194.67871
31
0.0
0
LINE
8
0
10
876.96173
20
194.67871
30
0.0
11
252.87555
21
556.808
31
0.0
0
LINE
8
0
10
252.87555
20
556.808
30
0.0
11
1011.51385
21
312.0025
31
0.0
0
LINE
8
0
10
1011.51385
20
312.0025
30
0.0
11
135.08307
21
398.62213
31
0.0
0
LINE
8
0
10
135.08307
20
398.62213
30
0.0
11
1101.6405
21
510.38742
31
0.0
0
LINE
8
0
10
1101.6405
20
510.38742
30
0.0
11
84.24353
21
163.31479
31
0.0
0
LINE
8
0
10
84.24353
20
163.31479
30
0.0
11
1101.4169
21
776.3495
31
0.0
0
LINE
8
0
10
1101.4169
20
776.3495
30
0.0
11
146.77856
21
-123.7843
31
0.0
0
LINE
8
0
10
146.77856
20
-123.7843
30
0.0
11
966.6524
21
1071.6788
31
0.0
0
LINE
8
0
10
966.6524
20
1071.6788
30
0.0
11
361.45578
21
-411.08167
31
0.0
0
LINE
8
0
10
361.45578
20
-411.08167
30
0.0
11
667.5616
21
1331.5876
31
0.0
0
LINE
8
0
10
667.5616
20
1331.5876
30
0.0
11
745.2573
21
-621.6465
31
0.0
0
LINE
8
0
10
745.2573
20
-621.6465
30
0.0
11
203.87094
21
1469.0338
31
0.0
0
LINE
8
0
10
203.87094
20
1469.0338
30
0.0
11
1278.0911
21
-661.4363
31
0.0
0
LINE
8
0
10
1278.0911
20
-661.4363
30
0.0
11
-380.74182
21
1387.1906
31
0.0
0
LINE
8
0
10
-380.74182
20
1387.1906
30
0.0
11
1890.1318
21
-436.11987
31
0.0
0
LINE
8
0
10
1890.1318
20
-436.11987
30
0.0
11
-988.7783
21
1000.5633
31
0.0
0
LINE
8
0
10
-988.7783
20
1000.5633
30
0.0
11
2456.0488
21
123.71472
31
0.0
0
LINE
8
0
10
2456.0488
20
123.71472
30
0.0
11
-1468.6626
21
263.5652
31
0.0
0
LINE
8
0
10
-1468.6626
20
263.5652
30
0.0
11
2801.5483
21
1031.8425
31
0.0
0
LINE
8
0
10
2801.5483
20
1031.8425
30
0.0
11
-1628.9673
21
-797.8866
31
0.0
0
LINE
8
0
10
-1628.9673
20
-797.8866
30
0.0
11
2726.0068
21
2215.4243
31
0.0
0
LINE
8
0
10
2726.0068
20
2215.4243
30
0.0
11
-1270.1982
21
-2058.055
31
0.0
0
LINE
8
0
10
-1270.1982
20
-2058.055
30
0.0
11
2043.484
21
3491.9766
31
0.0
0
LINE
8
0
10
2043.484
20
3491.9766
30
0.0
11
-234.28552
21
-3276.4648
31
0.0
0
LINE
8
0
10
-234.28552
20
-3276.4648
30
0.0
11
639.57654
21
4564.8384
31
0.0
0
LINE
8
0
10
639.57654
20
4564.8384
30
0.0
11
1532.7859
21
-4105.9854
31
0.0
0
LINE
8
0
10
1532.7859
20
-4105.9854
30
0.0
11
-1462.5374
21
5046.564
31
0.0
0
LINE
8
0
10
-1462.5374
20
5046.564
30
0.0
11
3915.2407
21
-4133.727
31
0.0
0
LINE
8
0
10
3915.2407
20
-4133.727
30
0.0
11
-4041.3374
21
4518.482
31
0.0
0
LINE
8
0
10
-4041.3374
20
4518.482
30
0.0
11
6575.894
21
-2959.4495
31
0.0
0
LINE
8
0
10
595.20953
20
395.756
30
0.0
11
604.17816
21
405.70422
31
0.0
0
LINE
8
0
10
604.17816
20
405.70422
30
0.0
11
596.82495
21
392.8626
31
0.0
0
LINE
8
0
10
596.82495
20
392.8626
30
0.0
11
601.7563
21
408.4498
31
0.0
0
LINE
8
0
10
601.7563
20
408.4498
30
0.0
11
600.08295
21
390.46548
31
0.0
0
LINE
8
0
10
600.08295
20
390.46548
30
0.0
11
597.67725
21
410.27484
31
0.0
0
LINE
8
0
10
597.67725
20
410.27484
30
0.0
11
604.9145
21
389.45044
31
0.0
0
LINE
8
0
10
604.9145
20
389.45044
30
0.0
11
592.2229
21
410.2391
31
0.0
0
LINE
8
0
10
592.2229
20
410.2391
30
0.0
11
610.79504
21
390.76657
31
0.0
0
LINE
8
0
10
610.79504
20
390.76657
30
0.0
11
586.182
21
407.44073
31
0.0
0
LINE
8
0
10
586.182
20
407.44073
30
0.0
11
616.66187
21
395.20288
31
0.0
0
LINE
8
0
10
616.66187
20
395.20288
30
0.0
11
580.8868
21
401.27673
31
0.0
0
LINE
8
0
10
580.8868
20
401.27673
30
0.0
11
620.9353
21
403.0983
31
0.0
0
LINE
8
0
10
620.9353
20
403.0983
30
0.0
11
578.12213
21
391.75125
31
0.0
0
LINE
8
0
10
578.12213
20
391.75125
30
0.0
11
621.6891
21
414.03052
31
0.0
0
LINE
8
0
10
621.6891
20
414.03052
30
0.0
11
579.8689
21
379.77136
31
0.0
0
LINE
8
0
10
579.8689
20
379.77136
30
0.0
11
616.9972
21
426.55582
31
0.0
0
LINE
8
0
10
616.9972
20
426.55582
30
0.0
11
587.8684
21
367.3469
31
0.0
0
LINE
8
0
10
587.8684
20
367.3469
30
0.0
11
605.4502
21
438.09662
31
0.0
0
LINE
8
0
10
605.4502
20
438.09662
30
0.0
11
603.03876
21
357.59106
31
0.0
0
LINE
8
0
10
603.03876
20
357.59106
30
0.0
11
586.7858
21
445.07657
31
0.0
0
LINE
8
0
10
586.7858
20
445.07657
30
0.0
11
624.82513
21
354.4265
31
0.0
0
LINE
8
0
10
624.82513
20
354.4265
30
0.0
11
562.52216
21
443.39035
31
0.0
0
LINE
8
0
10
562.52216
20
443.39035
30
0.0
11
650.6275
21
361.9304
31
0.0
0
LINE
8
0
10
650.6275
20
361.9304
30
0.0
11
536.42145
21
429.24515
31
0.0
0
LINE
8
0
10
536.42145
20
429.24515
30
0.0
11
675.4949
21
383.31622
31
0.0
0
LINE
8
0
10
675.4949
20
383.31622
30
0.0
11
514.58154
21
400.33032
31
0.0
0
LINE
8
0
10
514.58154
20
400.33032
30
0.0
11
692.3025
21
419.65063
31
0.0
0
LINE
8
0
10
692.3025
20
419.65063
30
0.0
11
504.9454
21
357.16306
31
0.0
0
LINE
8
0
10
504.9454
20
357.16306
30
0.0
11
692.5955
21
468.51474
31
0.0
0
LINE
8
0
10
692.5955
20
468.51474
30
0.0
11
516.0739
21
304.33728
31
0.0
0
LINE
8
0
10
516.0739
20
304.33728
30
0.0
11
668.2061
21
522.9439
31
0.0
0
LINE
8
0
10
668.2061
20
522.9439
30
0.0
11
555.15564
21
251.28355
31
0.0
0
LINE
8
0
10
555.15564
20
251.28355
30
0.0
11
613.5832
21
571.07086
31
0.0
0
LINE
8
0
10
613.5832
20
571.07086
30
0.0
11
625.4038
21
212.11574
31
0.0
0
LINE
8
0
10
625.4038
20
212.11574
30
0.0
11
528.5644
21
596.9057
31
0.0
0
LINE
8
0
10
528.5644
20
596.9057
30
0.0
11
723.25006
21
204.13684
31
0.0
0
LINE
8
0
10
723.25006
20
204.13684
30
0.0
11
421.05234
21
582.6022
31
0.0
0
LINE
8
0
10
421.05234
20
582.6022
30
0.0
11
835.97864
21
244.76317
31
0.0
0
LINE
8
0
10
835.97864
20
244.76317
30
0.0
11
308.85666
21
512.3345
31
0.0
0
LINE
8
0
10
308.85666
20
512.3345
30
0.0
11
940.655
21
346.90762
31
0.0
0
LINE
8
0
10
940.655
20
346.90762
30
0.0
11
219.76425
21
377.5297
31
0.0
0
LINE
8
0
10
219.76425
20
377.5297
30
0.0
11
1005.27185
21
513.3222
31
0.0
0
LINE
8
0
10
1005.27185
20
513.3222
30
0.0
11
188.97855
21
182.71906
31
0.0
0
LINE
8
0
10
188.97855
20
182.71906
30
0.0
11
992.8809
21
730.8673
31
0.0
0
LINE
8
0
10
992.8809
20
730.8673
30
0.0
11
253.31006
21
-49.255768
31
0.0
0
LINE
8
0
10
253.31006
20
-49.255768
30
0.0
11
869.0841
21
966.26105
31
0.0
0
LINE
8
0
10
869.0841
20
966.26105
30
0.0
11
442.10718
21
-274.41052
31
0.0
0
LINE
8
0
10
442.10718
20
-274.41052
30
0.0
11
612.5097
21
1165.134
31
0.0
0
LINE
8
0
10
612.5097
20
1165.134
30
0.0
11
765.7082
21
-429.03412
31
0.0
0
LINE
8
0
10
765.7082
20
-429.03412
30
0.0
11
226.89227
21
1256.2772
31
0.0
0
LINE
8
0
10
226.89227
20
1256.2772
30
0.0
11
1203.402
21
-437.11847
31
0.0
0
LINE
8
0
10
1203.402
20
-437.11847
30
0.0
11
-247.55981
21
1162.4918
31
0.0
0
LINE
8
0
10
-247.55981
20
1162.4918
30
0.0
11
1693.694
21
-224.73041
31
0.0
0
LINE
8
0
10
1693.694
20
-224.73041
30
0.0
11
-727.1741
21
818.3401
31
0.0
0
LINE
8
0
10
-727.1741
20
818.3401
30
0.0
11
2130.9194
21
259.20712
31
0.0
0
LINE
8
0
10
2130.9194
20
259.20712
30
0.0
11
-1085.8889
21
193.42995
31
0.0
0
LINE
8
0
10
-1085.8889
20
193.42995
30
0.0
11
2371.8457
21
1017.91077
31
0.0
0
LINE
8
0
10
2371.8457
20
1017.91077
30
0.0
11
-1168.305
21
-682.1627
31
0.0
0
LINE
8
0
10
-1168.305
20
-682.1627
30
0.0
11
2255.7422
21
1982.5797
31
0.0
0
LINE
8
0
10
2255.7422
20
1982.5797
30
0.0
11
-816.96643
21
-1696.529
31
0.0
0
LINE
8
0
10
-816.96643
20
-1696.529
30
0.0
11
1638.8153
21
2995.4834
31
0.0
0
LINE
8
0
10
1638.8153
20
2995.4834
30
0.0
11
86.33746
21
-2645.624
31
0.0
0
LINE
8
0
10
86.33746
20
-2645.624
30
0.0
11
441.22778
21
3808.6296
31
0.0
0
LINE
8
0
10
441.22778
20
3808.6296
30
0.0
11
1569.8159
21
-3243.0593
31
0.0
0
LINE
8
0
10
1569.8159
20
-3243.0593
30
0.0
11
-1300.4543
21
4106.173
31
0.0
0
LINE
8
0
10
-1300.4543
20
4106.173
30
0.0
11
3519.9775
21
-3156.3645
31
0.0
0
LINE
8
0
10
3519.9775
20
-3156.3645
30
0.0
11
-3385.6528
21
3555.8184
31
0.0
0
LINE
8
0
10
-3385.6528
20
3555.8184
30
0.0
11
5642.428
21
-2073.7456
31
0.0
0
LINE
8
0
10
5642.428
20
-2073.7456
30
0.0
11
-5423.6543
21
1889.7965
31
0.0
0
LINE
8
0
10
-5423.6543
20
1889.7965
30
0.0
11
7452.6055
21
202.49307
31
0.0
0
LINE
8
0
10
597.7305
20
394.0159
30
0.0
11
601.0487
21
406.99252
31
0.0
0
LINE
8
0
10
601.0487
20
406.99252
30
0.0
11
600.50555
21
392.20465
31
0.0
0
LINE
8
0
10
600.50555
20
392.20465
30
0.0
11
597.6283
21
408.29813
31
0.0
0
LINE
8
0
10
597.6283
20
408.29813
30
0.0
11
604.50433
21
391.59616
31
0.0
0
LINE
8
0
10
604.50433
20
391.59616
30
0.0
11
593.16833
21
408.01846
31
0.0
0
LINE
8
0
10
593.16833
20
408.01846
30
0.0
11
609.2542
21
392.94272
31
0.0
0
LINE
8
0
10
609.2542
20
392.94272
30
0.0
11
588.3554
21
405.45206
31
0.0
0
LINE
8
0
10
588.3554
20
405.45206
30
0.0
11
613.84955
21
396.8409
31
0.0
0
LINE
8
0
10
613.84955
20
396.8409
30
0.0
11
584.3069
21
400.1669
31
0.0
0
LINE
8
0
10
584.3069
20
400.1669
30
0.0
11
616.98267
21
403.4955
31
0.0
0
LINE
8
0
10
616.98267
20
403.4955
30
0.0
11
582.4827
21
392.2482
31
0.0
0
LINE
8
0
10
582.4827
20
392.2482
30
0.0
11
617.0974
21
412.47253
31
0.0
0
LINE
8
0
10
617.0974
20
412.47253
30
0.0
11
584.4615
21
382.52893
31
0.0
0
LINE
8
0
10
584.4615
20
382.52893
30
0.0
11
612.6845
21
422.50278
31
0.0
0
LINE
8
0
10
612.6845
20
422.50278
30
0.0
11
591.5754
21
372.73306
31
0.0
0
LINE
8
0
10
591.5754
20
372.73306
30
0.0
11
602.7093
21
431.413
31
0.0
0
LINE
8
0
10
602.7093
20
431.413
30
0.0
11
604.43256
21
365.44928
31
0.0
0
LINE
8
0
10
604.43256
20
365.44928
30
0.0
11
587.12164
21
436.26575
31
0.0
0
LINE
8
0
10
587.12164
20
436.26575
30
0.0
11
622.399
21
363.86084
31
0.0
0
LINE
8
0
10
622.399
20
363.86084
30
0.0
11
567.3514
21
433.7725
31
0.0
0
LINE
8
0
10
567.3514
20
433.7725
30
0.0
11
643.1605
21
371.18332
31
0.0
0
LINE
8
0
10
643.1605
20
371.18332
30
0.0
11
546.6506
21
421.0036
31
0.0
0
LINE
8
0
10
546.6506
20
421.0036
30
0.0
11
662.5202
21
389.81857
31
0.0
0
LINE
8
0
10
662.5202
20
389.81857
30
0.0
11
530.1131
21
396.34885
31
0.0
0
LINE
8
0
10
530.1131
20
396.34885
30
0.0
11
674.6007
21
420.3115
31
0.0
0
LINE
8
0
10
674.6007
20
420.3115
30
0.0
11
524.21216
21
360.59653
31
0.0
0
LINE
8
0
10
524.21216
20
360.59653
30
0.0
11
672.59766
21
460.2949
31
0.0
0
LINE
8
0
10
672.59766
20
460.2949
30
0.0
11
535.74066
21
317.8957
31
0.0
0
LINE
8
0
10
535.74066
20
317.8957
30
0.0
11
650.14886
21
503.6981
31
0.0
0
LINE
8
0
10
650.14886
20
503.6981
30
0.0
11
570.1448
21
276.29224
31
0.0
0
LINE
8
0
10
570.1448
20
276.29224
30
0.0
11
603.2586
21
540.55835
31
0.0
0
LINE
8
0
10
603.2586
20
540.55835
30
0.0
11
629.4043
21
247.4779
31
0.0
0
LINE
8
0
10
629.4043
20
247.4779
30
0.0
11
532.5267
21
557.7881
31
0.0
0
LINE
8
0
10
532.5267
20
557.7881
30
0.0
11
709.8081
21
245.4425
31
0.0
0
LINE
8
0
10
709.8081
20
245.4425
30
0.0
11
445.2392
21
541.15234
31
0.0
0
LINE
8
0
10
445.2392
20
541.15234
30
0.0
11
800.15466
21
283.84897
31
0.0
0
LINE
8
0
10
800.15466
20
283.84897
30
0.0
11
356.69025
21
478.52502
31
0.0
0
LINE
8
0
10
356.69025
20
478.52502
30
0.0
11
881.0909
21
372.2094
31
0.0
0
LINE
8
0
10
881.0909
20
372.2094
30
0.0
11
290.00095
21
364.1661
31
0.0
0
LINE
8
0
10
290.00095
20
364.1661
30
0.0
11
926.3082
21
511.29938
31
0.0
0
LINE
8
0
10
926.3082
20
511.29938
30
0.0
11
273.7605
21
203.39911
31
0.0
0
LINE
8
0
10
273.7605
20
203.39911
30
0.0
11
906.1869
21
688.6811
31
0.0
0
LINE
8
0
10
906.1869
20
688.6811
30
0.0
11
337.03412
21
16.596039
31
0.0
0
LINE
8
0
10
337.03412
20
16.596039
30
0.0
11
794.117
21
875.5493
31
0.0
0
LINE
8
0
10
794.117
20
875.5493
30
0.0
11
501.80096
21
-158.91107
31
0.0
0
LINE
8
0
10
501.80096
20
-158.91107
30
0.0
11
575.1074
21
1026.4489
31
0.0
0
LINE
8
0
10
575.1074
20
1026.4489
30
0.0
11
773.6072
21
-270.5373
31
0.0
0
LINE
8
0
10
773.6072
20
-270.5373
30
0.0
11
255.50119
21
1083.3059
31
0.0
0
LINE
8
0
10
255.50119
20
1083.3059
30
0.0
11
1132.0088
21
-257.05658
31
0.0
0
LINE
8
0
10
1132.0088
20
-257.05658
30
0.0
11
-128.30243
21
984.8039
31
0.0
0
LINE
8
0
10
-128.30243
20
984.8039
30
0.0
11
1523.3143
21
-60.81653
31
0.0
0
LINE
8
0
10
1523.3143
20
-60.81653
30
0.0
11
-504.8246
21
681.2721
31
0.0
0
LINE
8
0
10
-504.8246
20
681.2721
30
0.0
11
1858.7446
21
355.0939
31
0.0
0
LINE
8
0
10
1858.7446
20
355.0939
30
0.0
11
-769.56287
21
153.63203
31
0.0
0
LINE
8
0
10
-769.56287
20
153.63203
30
0.0
11
2020.9913
21
986.788
31
0.0
0
LINE
8
0
10
2020.9913
20
986.788
30
0.0
11
-796.7825
21
-566.3806
31
0.0
0
LINE
8
0
10
-796.7825
20
-566.3806
30
0.0
11
1881.7338
21
1770.5509
31
0.0
0
LINE
8
0
10
1881.7338
20
1770.5509
30
0.0
11
-462.84985
21
-1379.9801
31
0.0
0
LINE
8
0
10
-462.84985
20
-1379.9801
30
0.0
11
1330.5918
21
2570.7776
31
0.0
0
LINE
8
0
10
1330.5918
20
2570.7776
30
0.0
11
319.64456
21
-2114.8813
31
0.0
0
LINE
8
0
10
319.64456
20
-2114.8813
30
0.0
11
313.6435
21
3180.9478
31
0.0
0
LINE
8
0
10
313.6435
20
3180.9478
30
0.0
11
1560.5471
21
-2535.4768
31
0.0
0
LINE
8
0
10
1560.5471
20
-2535.4768
30
0.0
11
-1124.6556
21
3344.4062
31
0.0
0
LINE
8
0
10
-1124.6556
20
3344.4062
30
0.0
11
3151.744
21
-2375.0725
31
0.0
0
LINE
8
0
10
3151.744
20
-2375.0725
30
0.0
11
-2805.1135
21
2798.4673
31
0.0
0
LINE
8
0
10
-2805.1135
20
2798.4673
30
0.0
11
4838.237
21
-1392.0222
31
0.0
0
LINE
8
0
10
4838.237
20
-1392.0222
30
0.0
11
-4395.702
21
1342.1125
31
0.0
0
LINE
8
0
10
-4395.702
20
1342.1125
30
0.0
11
6214.4556
21
552.94135
31
0.0
0
LINE
8
0
10
6214.4556
20
552.94135
30
0.0
11
-5426.0234
21
-1080.1836
31
0.0
0
LINE
8
0
10
-5426.0234
20
-1080.1836
30
0.0
11
6759.4663
21
3409.6821
31
0.0
0
LINE
8
0
10
600.7714
20
393.64667
30
0.0
11
597.67896
21
406.67892
31
0.0
0
LINE
8
0
10
597.67896
20
406.67892
30
0.0
11
604.0704
21
393.33252
31
0.0
0
LINE
8
0
10
604.0704
20
393.33252
30
0.0
11
594.04364
21
406.24542
31
0.0
0
LINE
8
0
10
594.04364
20
406.24542
30
0.0
11
607.89386
21
394.65204
31
0.0
0
LINE
8
0
10
607.89386
20
394.65204
30
0.0
11
590.2245
21
403.92517
31
0.0
0
LINE
8
0
10
590.2245
20
403.92517
30
0.0
11
611.4739
21
398.05173
31
0.0
0
LINE
8
0
10
611.4739
20
398.05173
30
0.0
11
587.1555
21
399.41605
31
0.0
0
LINE
8
0
10
587.1555
20
399.41605
30
0.0
11
613.73126
21
403.63898
31
0.0
0
LINE
8
0
10
613.73126
20
403.63898
30
0.0
11
586.0269
21
392.85483
31
0.0
0
LINE
8
0
10
586.0269
20
392.85483
30
0.0
11
613.41296
21
410.9874
31
0.0
0
LINE
8
0
10
613.41296
20
410.9874
30
0.0
11
588.09174
21
384.99542
31
0.0
0
LINE
8
0
10
588.09174
20
384.99542
30
0.0
11
609.3428
21
418.98944
31
0.0
0
LINE
8
0
10
609.3428
20
418.98944
30
0.0
11
594.36053
21
377.30905
31
0.0
0
LINE
8
0
10
594.36053
20
377.30905
30
0.0
11
600.774
21
425.82
31
0.0
0
LINE
8
0
10
600.774
20
425.82
30
0.0
11
605.21204
21
371.94122
31
0.0
0
LINE
8
0
10
605.21204
20
371.94122
30
0.0
11
587.8006
21
429.07388
31
0.0
0
LINE
8
0
10
587.8006
20
429.07388
30
0.0
11
619.9814
21
371.46677
31
0.0
0
LINE
8
0
10
619.9814
20
371.46677
30
0.0
11
571.74316
21
426.12674
31
0.0
0
LINE
8
0
10
571.74316
20
426.12674
30
0.0
11
636.628
21
378.4097
31
0.0
0
LINE
8
0
10
636.628
20
378.4097
30
0.0
11
555.39624
21
414.7315
31
0.0
0
LINE
8
0
10
555.39624
20
414.7315
30
0.0
11
651.6085
21
394.542
31
0.0
0
LINE
8
0
10
651.6085
20
394.542
30
0.0
11
543.00055
21
393.80505
31
0.0
0
LINE
8
0
10
543.00055
20
393.80505
30
0.0
11
660.09045
21
420.0394
31
0.0
0
LINE
8
0
10
660.09045
20
420.0394
30
0.0
11
539.815
21
364.28897
31
0.0
0
LINE
8
0
10
539.815
20
364.28897
30
0.0
11
656.6164
21
452.6536
31
0.0
0
LINE
8
0
10
656.6164
20
452.6536
30
0.0
11
551.20496
21
329.8896
31
0.0
0
LINE
8
0
10
551.20496
20
329.8896
30
0.0
11
636.26227
21
487.126
31
0.0
0
LINE
8
0
10
636.26227
20
487.126
30
0.0
11
581.25543
21
297.4377
31
0.0
0
LINE
8
0
10
581.25543
20
297.4377
30
0.0
11
596.21545
21
515.1255
31
0.0
0
LINE
8
0
10
596.21545
20
515.1255
30
0.0
11
631.0516
21
276.5871
31
0.0
0
LINE
8
0
10
631.0516
20
276.5871
30
0.0
11
537.56647
21
525.9735
31
0.0
0
LINE
8
0
10
537.56647
20
525.9735
30
0.0
11
696.9149
21
278.6118
31
0.0
0
LINE
8
0
10
696.9149
20
278.6118
30
0.0
11
466.9292
21
508.36005
31
0.0
0
LINE
8
0
10
466.9292
20
508.36005
30
0.0
11
769.0554
21
314.17395
31
0.0
0
LINE
8
0
10
769.0554
20
314.17395
30
0.0
11
397.37054
21
453.06784
31
0.0
0
LINE
8
0
10
397.37054
20
453.06784
30
0.0
11
831.20605
21
390.16638
31
0.0
0
LINE
8
0
10
831.20605
20
390.16638
30
0.0
11
348.06683
21
356.4626
31
0.0
0
LINE
8
0
10
348.06683
20
356.4626
30
0.0
11
861.8102
21
506.0182
31
0.0
0
LINE
8
0
10
861.8102
20
506.0182
30
0.0
11
342.15967
21
224.21082
31
0.0
0
LINE
8
0
10
342.15967
20
224.21082
30
0.0
11
837.212
21
650.1901
31
0.0
0
LINE
8
0
10
837.212
20
650.1901
30
0.0
11
402.48932
21
74.310486
31
0.0
0
LINE
8
0
10
402.48932
20
74.310486
30
0.0
11
736.96423
21
797.90454
31
0.0
0
LINE
8
0
10
736.96423
20
797.90454
30
0.0
11
545.3251
21
-61.69287
31
0.0
0
LINE
8
0
10
545.3251
20
-61.69287
30
0.0
11
550.891
21
911.2894
31
0.0
0
LINE
8
0
10
550.891
20
911.2894
30
0.0
11
772.7799
21
-140.52917
31
0.0
0
LINE
8
0
10
772.7799
20
-140.52917
30
0.0
11
286.84158
21
943.12946
31
0.0
0
LINE
8
0
10
286.84158
20
943.12946
30
0.0
11
1065.328
21
-113.05902
31
0.0
0
LINE
8
0
10
1065.328
20
-113.05902
30
0.0
11
-22.579956
21
844.95013
31
0.0
0
LINE
8
0
10
-22.579956
20
844.95013
30
0.0
11
1376.4097
21
65.41858
31
0.0
0
LINE
8
0
10
1376.4097
20
65.41858
30
0.0
11
-316.64905
21
579.3729
31
0.0
0
LINE
8
0
10
-316.64905
20
579.3729
30
0.0
11
1631.7067
21
421.03726
31
0.0
0
LINE
8
0
10
1631.7067
20
421.03726
30
0.0
11
-508.9912
21
135.63318
31
0.0
0
LINE
8
0
10
-508.9912
20
135.63318
30
0.0
11
1735.4402
21
945.18835
31
0.0
0
LINE
8
0
10
1735.4402
20
945.18835
30
0.0
11
-498.2207
21
-454.58234
31
0.0
0
LINE
8
0
10
-498.2207
20
-454.58234
30
0.0
11
1585.5491
21
1579.9277
31
0.0
0
LINE
8
0
10
1585.5491
20
1579.9277
30
0.0
11
-187.71265
21
-1104.7928
31
0.0
0
LINE
8
0
10
-187.71265
20
-1104.7928
30
0.0
11
1098.0193
21
2209.2063
31
0.0
0
LINE
8
0
10
1098.0193
20
2209.2063
30
0.0
11
486.06
21
-1670.0234
31
0.0
0
LINE
8
0
10
486.06
20
-1670.0234
30
0.0
11
238.16476
21
2661.662
31
0.0
0
LINE
8
0
10
238.16476
20
2661.662
30
0.0
11
1520.4458
21
-1957.1184
31
0.0
0
LINE
8
0
10
1520.4458
20
-1957.1184
30
0.0
11
-945.89185
21
2729.3538
31
0.0
0
LINE
8
0
10
-945.89185
20
2729.3538
30
0.0
11
2814.6738
21
-1752.8806
31
0.0
0
LINE
8
0
10
2814.6738
20
-1752.8806
30
0.0
11
-2295.4133
21
2205.6982
31
0.0
0
LINE
8
0
10
-2295.4133
20
2205.6982
30
0.0
11
4149.078
21
-871.40356
31
0.0
0
LINE
8
0
10
4149.078
20
-871.40356
30
0.0
11
-3529.6934
21
941.3643
31
0.0
0
LINE
8
0
10
-3529.6934
20
941.3643
30
0.0
11
5185.5723
21
782.781
31
0.0
0
LINE
8
0
10
5185.5723
20
782.781
30
0.0
11
-4261.319
21
-1087.3463
31
0.0
0
LINE
8
0
10
-4261.319
20
-1087.3463
30
0.0
11
5500.3193
21
3144.5164
31
0.0
0
LINE
8
0
10
5500.3193
20
3144.5164
30
0.0
11
-4047.9648
21
-3711.0
31
0.0
0
LINE
8
0
10
-4047.9648
20
-3711.0
30
0.0
11
4655.3506
21
5927.3267
31
0.0
0
LINE
8
0
10
603.6356
20
394.7329
30
0.0
11
594.841
21
404.83527
31
0.0
0
LINE
8
0
10
594.841
20
404.83527
30
0.0
11
606.70264
21
395.98782
31
0.0
0
LINE
8
0
10
606.70264
20
395.98782
30
0.0
11
591.8235
21
402.76196
31
0.0
0
LINE
8
0
10
591.8235
20
402.76196
30
0.0
11
609.475
21
398.93307
31
0.0
0
LINE
8
0
10
609.475
20
398.93307
30
0.0
11
589.5201
21
398.93265
31
0.0
0
LINE
8
0
10
589.5201
20
398.93265
30
0.0
11
611.065
21
403.60706
31
0.0
0
LINE
8
0
10
611.065
20
403.60706
30
0.0
11
588.89813
21
393.51382
31
0.0
0
LINE
8
0
10
588.89813
20
393.51382
30
0.0
11
610.4673
21
409.60336
31
0.0
0
LINE
8
0
10
610.4673
20
409.60336
30
0.0
11
590.94794
21
387.17966
31
0.0
0
LINE
8
0
10
590.94794
20
387.17966
30
0.0
11
606.7705
21
415.96216
31
0.0
0
LINE
8
0
10
606.7705
20
415.96216
30
0.0
11
596.4287
21
381.18005
31
0.0
0
LINE
8
0
10
596.4287
20
381.18005
30
0.0
11
599.44775
21
421.15613
31
0.0
0
LINE
8
0
10
599.44775
20
421.15613
30
0.0
11
605.5515
21
377.28738
31
0.0
0
LINE
8
0
10
605.5515
20
377.28738
30
0.0
11
588.68616
21
423.22217
31
0.0
0
LINE
8
0
10
588.68616
20
423.22217
30
0.0
11
617.6546
21
377.57736
31
0.0
0
LINE
8
0
10
617.6546
20
377.57736
30
0.0
11
575.6866
21
420.07422
31
0.0
0
LINE
8
0
10
575.6866
20
420.07422
30
0.0
11
630.9527
21
384.02087
31
0.0
0
LINE
8
0
10
630.9527
20
384.02087
30
0.0
11
562.8381
21
410.00247
31
0.0
0
LINE
8
0
10
562.8381
20
410.00247
30
0.0
11
642.466
21
397.9048
31
0.0
0
LINE
8
0
10
642.466
20
397.9048
30
0.0
11
553.65924
21
392.31567
31
0.0
0
LINE
8
0
10
553.65924
20
392.31567
30
0.0
11
648.2335
21
419.15088
31
0.0
0
LINE
8
0
10
648.2335
20
419.15088
30
0.0
11
552.40857
21
368.02548
31
0.0
0
LINE
8
0
10
552.40857
20
368.02548
30
0.0
11
643.89465
21
445.66943
31
0.0
0
LINE
8
0
10
643.89465
20
445.66943
30
0.0
11
563.30457
21
340.4101
31
0.0
0
LINE
8
0
10
563.30457
20
340.4101
30
0.0
11
625.662
21
472.9334
31
0.0
0
LINE
8
0
10
625.662
20
472.9334
30
0.0
11
589.3761
21
315.24414
31
0.0
0
LINE
8
0
10
589.3761
20
315.24414
30
0.0
11
591.6184
21
493.9981
31
0.0
0
LINE
8
0
10
591.6184
20
493.9981
30
0.0
11
631.0656
21
300.47458
31
0.0
0
LINE
8
0
10
631.0656
20
300.47458
30
0.0
11
543.14746
21
500.17978
31
0.0
0
LINE
8
0
10
543.14746
20
500.17978
30
0.0
11
684.8484
21
305.15436
31
0.0
0
LINE
8
0
10
684.8484
20
305.15436
30
0.0
11
486.17505
21
482.52972
31
0.0
0
LINE
8
0
10
486.17505
20
482.52972
30
0.0
11
742.2258
21
337.5547
31
0.0
0
LINE
8
0
10
742.2258
20
337.5547
30
0.0
11
431.8142
21
434.10693
31
0.0
0
LINE
8
0
10
431.8142
20
434.10693
30
0.0
11
789.5765
21
402.56885
31
0.0
0
LINE
8
0
10
789.5765
20
402.56885
30
0.0
11
395.91904
21
352.82104
31
0.0
0
LINE
8
0
10
395.91904
20
352.82104
30
0.0
11
809.2927
21
498.73962
31
0.0
0
LINE
8
0
10
809.2927
20
498.73962
30
0.0
11
397.15717
21
244.37032
31
0.0
0
LINE
8
0
10
397.15717
20
244.37032
30
0.0
11
782.55225
21
615.5437
31
0.0
0
LINE
8
0
10
782.55225
20
615.5437
30
0.0
11
453.3871
21
124.522
31
0.0
0
LINE
8
0
10
453.3871
20
124.522
30
0.0
11
693.76904
21
731.771
31
0.0
0
LINE
8
0
10
693.76904
20
731.771
30
0.0
11
576.4685
21
19.82846
31
0.0
0
LINE
8
0
10
576.4685
20
19.82846
30
0.0
11
536.3603
21
815.9774
31
0.0
0
LINE
8
0
10
536.3603
20
815.9774
30
0.0
11
766.1472
21
-34.217438
31
0.0
0
LINE
8
0
10
766.1472
20
-34.217438
30
0.0
11
318.90802
21
829.90216
31
0.0
0
LINE
8
0
10
318.90802
20
829.90216
30
0.0
11
1004.18854
21
1.6831665
31
0.0
0
LINE
8
0
10
1004.18854
20
1.6831665
30
0.0
11
70.30707
21
735.3852
31
0.0
0
LINE
8
0
10
70.30707
20
735.3852
30
0.0
11
1250.4579
21
161.95766
31
0.0
0
LINE
8
0
10
1250.4579
20
161.95766
30
0.0
11
-158.04584
21
504.6563
31
0.0
0
LINE
8
0
10
-158.04584
20
504.6563
30
0.0
11
1442.9634
21
464.57147
31
0.0
0
LINE
8
0
10
1442.9634
20
464.57147
30
0.0
11
-295.01105
21
132.83862
31
0.0
0
LINE
8
0
10
-295.01105
20
132.83862
30
0.0
11
1503.7543
21
898.08575
31
0.0
0
LINE
8
0
10
1503.7543
20
898.08575
30
0.0
11
-259.10547
21
-349.4593
31
0.0
0
LINE
8
0
10
-259.10547
20
-349.4593
30
0.0
11
1352.0205
21
1410.4058
31
0.0
0
LINE
8
0
10
1352.0205
20
1410.4058
30
0.0
11
24.73761
21
-867.07263
31
0.0
0
LINE
8
0
10
24.73761
20
-867.07263
30
0.0
11
924.3203
21
1902.7817
31
0.0
0
LINE
8
0
10
924.3203
20
1902.7817
30
0.0
11
601.8276
21
-1298.4962
31
0.0
0
LINE
8
0
10
601.8276
20
-1298.4962
30
0.0
11
200.19379
21
2233.4136
31
0.0
0
LINE
8
0
10
200.19379
20
2233.4136
30
0.0
11
1461.0994
21
-1485.865
31
0.0
0
LINE
8
0
10
1461.0994
20
-1485.865
30
0.0
11
-771.46423
21
2234.428
31
0.0
0
LINE
8
0
10
-771.46423
20
2234.428
30
0.0
11
2510.422
21
-1259.3718
31
0.0
0
LINE
8
0
10
2510.422
20
-1259.3718
30
0.0
11
-1851.3242
21
1744.128
31
0.0
0
LINE
8
0
10
-1851.3242
20
1744.128
30
0.0
11
3561.49
21
-477.07025
31
0.0
0
LINE
8
0
10
3561.49
20
-477.07025
30
0.0
11
-2802.9111
21
653.30023
31
0.0
0
LINE
8
0
10
-2802.9111
20
653.30023
30
0.0
11
4333.3955
21
923.6248
31
0.0
0
LINE
8
0
10
4333.3955
20
923.6248
30
0.0
11
-3308.2463
21
-1039.8108
31
0.0
0
LINE
8
0
10
-3308.2463
20
-1039.8108
30
0.0
11
4482.435
21
2869.9583
31
0.0
0
LINE
8
0
10
4482.435
20
2869.9583
30
0.0
11
-3013.2788
21
-3176.148
31
0.0
0
LINE
8
0
10
-3013.2788
20
-3176.148
30
0.0
11
3663.576
21
5107.4414
31
0.0
0
LINE
8
0
10
3663.576
20
5107.4414
30
0.0
11
-1605.0022
21
-5400.161
31
0.0
0
LINE
8
0
10
-1605.0022
20
-5400.161
30
0.0
11
1622.1566
21
7178.8203
31
0.0
0
LINE
8
0
10
605.66693
20
397.0258
30
0.0
11
593.1849
21
401.88388
31
0.0
0
LINE
8
0
10
593.1849
20
401.88388
30
0.0
11
607.79944
21
399.56226
31
0.0
0
LINE
8
0
10
607.79944
20
399.56226
30
0.0
11
591.4765
21
398.64578
31
0.0
0
LINE
8
0
10
591.4765
20
398.64578
30
0.0
11
608.8855
21
403.45853
31
0.0
0
LINE
8
0
10
608.8855
20
403.45853
30
0.0
11
591.21655
21
394.18466
31
0.0
0
LINE
8
0
10
591.21655
20
394.18466
30
0.0
11
608.1213
21
408.33606
31
0.0
0
LINE
8
0
10
608.1213
20
408.33606
30
0.0
11
593.1841
21
389.09747
31
0.0
0
LINE
8
0
10
593.1841
20
389.09747
30
0.0
11
604.8054
21
413.36777
31
0.0
0
LINE
8
0
10
604.8054
20
413.36777
30
0.0
11
597.94275
21
384.44144
31
0.0
0
LINE
8
0
10
597.94275
20
384.44144
30
0.0
11
598.57697
21
417.2802
31
0.0
0
LINE
8
0
10
598.57697
20
417.2802
30
0.0
11
605.58386
21
381.67612
31
0.0
0
LINE
8
0
10
605.58386
20
381.67612
30
0.0
11
589.67926
21
418.47617
31
0.0
0
LINE
8
0
10
589.67926
20
418.47617
30
0.0
11
615.4707
21
382.4689
31
0.0
0
LINE
8
0
10
615.4707
20
382.4689
30
0.0
11
579.19025
21
415.3044
31
0.0
0
LINE
8
0
10
579.19025
20
415.3044
30
0.0
11
626.0527
21
388.35025
31
0.0
0
LINE
8
0
10
626.0527
20
388.35025
30
0.0
11
569.1426
21
406.47583
31
0.0
0
LINE
8
0
10
569.1426
20
406.47583
30
0.0
11
634.8331
21
400.23578
31
0.0
0
LINE
8
0
10
634.8331
20
400.23578
30
0.0
11
562.4464
21
391.58673
31
0.0
0
LINE
8
0
10
562.4464
20
391.58673
30
0.0
11
638.5755
21
417.87973
31
0.0
0
LINE
8
0
10
638.5755
20
417.87973
30
0.0
11
562.5385
21
371.6601
31
0.0
0
LINE
8
0
10
562.5385
20
371.6601
30
0.0
11
633.80884
21
439.37253
31
0.0
0
LINE
8
0
10
633.80884
20
439.37253
30
0.0
11
572.7192
21
349.57114
31
0.0
0
LINE
8
0
10
572.7192
20
349.57114
30
0.0
11
617.6429
21
460.83722
31
0.0
0
LINE
8
0
10
617.6429
20
460.83722
30
0.0
11
595.2006
21
330.18253
31
0.0
0
LINE
8
0
10
595.2006
20
330.18253
30
0.0
11
588.8287
21
476.50507
31
0.0
0
LINE
8
0
10
588.8287
20
476.50507
30
0.0
11
629.981
21
320.01523
31
0.0
0
LINE
8
0
10
629.981
20
320.01523
30
0.0
11
548.8954
21
479.33606
31
0.0
0
LINE
8
0
10
548.8954
20
479.33606
30
0.0
11
673.759
21
326.31152
31
0.0
0
LINE
8
0
10
673.759
20
326.31152
30
0.0
11
503.10367
21
462.28406
31
0.0
0
LINE
8
0
10
503.10367
20
462.28406
30
0.0
11
719.2065
21
355.4494
31
0.0
0
LINE
8
0
10
719.2065
20
355.4494
30
0.0
11
460.85953
21
420.1793
31
0.0
0
LINE
8
0
10
460.85953
20
420.1793
30
0.0
11
754.9544
21
410.8043
31
0.0
0
LINE
8
0
10
754.9544
20
410.8043
30
0.0
11
435.22864
21
352.0403
31
0.0
0
LINE
8
0
10
435.22864
20
352.0403
30
0.0
11
766.66785
21
490.3752
31
0.0
0
LINE
8
0
10
766.66785
20
490.3752
30
0.0
11
441.22046
21
263.3839
31
0.0
0
LINE
8
0
10
441.22046
20
263.3839
30
0.0
11
739.43286
21
584.6928
31
0.0
0
LINE
8
0
10
739.43286
20
584.6928
30
0.0
11
492.7181
21
167.93015
31
0.0
0
LINE
8
0
10
492.7181
20
167.93015
30
0.0
11
661.47375
21
675.69073
31
0.0
0
LINE
8
0
10
661.47375
20
675.69073
30
0.0
11
598.2018
21
87.941925
31
0.0
0
LINE
8
0
10
598.2018
20
87.941925
30
0.0
11
528.8466
21
737.3452
31
0.0
0
LINE
8
0
10
528.8466
20
737.3452
30
0.0
11
755.8385
21
52.43924
31
0.0
0
LINE
8
0
10
755.8385
20
52.43924
30
0.0
11
350.3354
21
738.7548
31
0.0
0
LINE
8
0
10
350.3354
20
738.7548
30
0.0
11
948.907
21
92.732086
31
0.0
0
LINE
8
0
10
948.907
20
92.732086
30
0.0
11
151.31985
21
650.0294
31
0.0
0
LINE
8
0
10
151.31985
20
650.0294
30
0.0
11
1142.9983
21
235.14384
31
0.0
0
LINE
8
0
10
1142.9983
20
235.14384
30
0.0
11
-24.881104
21
450.80817
31
0.0
0
LINE
8
0
10
-24.881104
20
450.80817
30
0.0
11
1286.5757
21
491.50696
31
0.0
0
LINE
8
0
10
1286.5757
20
491.50696
30
0.0
11
-119.85248
21
140.38696
31
0.0
0
LINE
8
0
10
-119.85248
20
140.38696
30
0.0
11
1316.3992
21
848.92004
31
0.0
0
LINE
8
0
10
1316.3992
20
848.92004
30
0.0
11
-68.33679
21
-252.49219
31
0.0
0
LINE
8
0
10
-68.33679
20
-252.49219
30
0.0
11
1168.7626
21
1261.0288
31
0.0
0
LINE
8
0
10
1168.7626
20
1261.0288
30
0.0
11
187.59119
21
-662.8595
31
0.0
0
LINE
8
0
10
187.59119
20
-662.8595
30
0.0
11
796.32184
21
1644.1512
31
0.0
0
LINE
8
0
10
796.32184
20
1644.1512
30
0.0
11
679.46875
21
-989.2748
31
0.0
0
LINE
8
0
10
679.46875
20
-989.2748
30
0.0
11
188.79361
21
1881.3662
31
0.0
0
LINE
8
0
10
188.79361
20
1881.3662
30
0.0
11
1390.949
21
-1103.0942
31
0.0
0
LINE
8
0
10
1390.949
20
-1103.0942
30
0.0
11
-606.041
21
1837.6078
31
0.0
0
LINE
8
0
10
-606.041
20
1837.6078
30
0.0
11
2238.871
21
-869.67737
31
0.0
0
LINE
8
0
10
2238.871
20
-869.67737
30
0.0
11
-1466.8728
21
1386.9536
31
0.0
0
LINE
8
0
10
-1466.8728
20
1386.9536
30
0.0
11
3062.7434
21
-181.48291
31
0.0
0
LINE
8
0
10
3062.7434
20
-181.48291
30
0.0
11
-2195.1873
21
450.97858
31
0.0
0
LINE
8
0
10
-2195.1873
20
450.97858
30
0.0
11
3629.8638
21
999.6665
31
0.0
0
LINE
8
0
10
3629.8638
20
999.6665
30
0.0
11
-2530.8425
21
-957.126
31
0.0
0
LINE
8
0
10
-2530.8425
20
-957.126
30
0.0
11
3662.4165
21
2598.6426
31
0.0
0
LINE
8
0
10
3662.4165
20
2598.6426
30
0.0
11
-2191.466
21
-2691.1423
31
0.0
0
LINE
8
0
10
-2191.466
20
-2691.1423
30
0.0
11
2889.878
21
4391.2974
31
0.0
0
LINE
8
0
10
2889.878
20
4391.2974
30
0.0
11
-937.47986
21
-4445.697
31
0.0
0
LINE
8
0
10
-937.47986
20
-4445.697
30
0.0
11
1125.0037
21
5991.9473
31
0.0
0
LINE
8
0
10
1125.0037
20
5991.9473
30
0.0
11
1343.0381
21
-5760.503
31
0.0
0
LINE
8
0
10
1343.0381
20
-5760.503
30
0.0
11
-1645.2014
21
6877.3667
31
0.0
0
ENDSEC
0
EOF
