0
SECTION
2
ENTITIES
0
LINE
8
0
10
610.6075
20
403.59457
30
0.0
11
594.7638
21
410.02206
31
0.0
0
LINE
8
0
10
594.7638
20
410.02206
30
0.0
11
590.8174
21
393.21725
31
0.0
0
LINE
8
0
10
590.8174
20
393.21725
30
0.0
11
608.1948
21
391.89536
31
0.0
0
LINE
8
0
10
608.1948
20
391.89536
30
0.0
11
606.8096
21
409.43573
31
0.0
0
LINE
8
0
10
606.8096
20
409.43573
30
0.0
11
589.52795
21
405.32465
31
0.0
0
LINE
8
0
10
589.52795
20
405.32465
30
0.0
11
596.31793
21
388.72522
31
0.0
0
LINE
8
0
10
596.31793
20
388.72522
30
0.0
11
611.81995
21
398.08133
31
0.0
0
LINE
8
0
10
611.81995
20
398.08133
30
0.0
11
600.07477
21
412.0894
31
0.0
0
LINE
8
0
10
600.07477
20
412.0894
30
0.0
11
587.9287
21
398.1935
31
0.0
0
LINE
8
0
10
587.9287
20
398.1935
30
0.0
11
603.68036
21
388.23956
31
0.0
0
LINE
8
0
10
603.68036
20
388.23956
30
0.0
11
611.1588
21
405.5012
31
0.0
0
LINE
8
0
10
611.1588
20
405.5012
30
0.0
11
592.77606
21
410.2754
31
0.0
0
LINE
8
0
10
592.77606
20
410.2754
30
0.0
11
590.87396
21
391.195
31
0.0
0
LINE
8
0
10
590.87396
20
391.195
30
0.0
11
610.2033
21
392.26648
31
0.0
0
LINE
8
0
10
610.2033
20
392.26648
30
0.0
11
606.12683
21
411.3815
31
0.0
0
LINE
8
0
10
606.12683
20
411.3815
30
0.0
11
587.6932
21
404.34082
31
0.0
0
LINE
8
0
10
587.6932
20
404.34082
30
0.0
11
597.5848
21
387.04807
31
0.0
0
LINE
8
0
10
597.5848
20
387.04807
30
0.0
11
613.29584
21
399.60605
31
0.0
0
LINE
8
0
10
613.29584
20
399.60605
30
0.0
11
598.32416
21
413.3244
31
0.0
0
LINE
8
0
10
598.32416
20
413.3244
30
0.0
11
586.9692
21
396.255
31
0.0
0
LINE
8
0
10
586.9692
20
396.255
30
0.0
11
605.7633
21
387.58395
31
0.0
0
LINE
8
0
10
605.7633
20
387.58395
30
0.0
11
611.4887
21
407.68103
31
0.0
0
LINE
8
0
10
611.4887
20
407.68103
30
0.0
11
590.55023
21
410.26526
31
0.0
0
LINE
8
0
10
590.55023
20
410.26526
30
0.0
11
591.2304
21
388.97626
31
0.0
0
LINE
8
0
10
591.2304
20
388.97626
30
0.0
11
612.36115
21
392.9673
31
0.0
0
LINE
8
0
10
612.36115
20
392.9673
30
0.0
11
605.09204
21
413.425
31
0.0
0
LINE
8
0
10
605.09204
20
413.425
30
0.0
11
585.81573
21
402.99057
31
0.0
0
LINE
8
0
10
585.81573
20
402.99057
30
0.0
11
599.2239
21
385.38535
31
0.0
0
LINE
8
0
10
599.2239
20
385.38535
30
0.0
11
614.69946
21
401.4998
31
0.0
0
LINE
8
0
10
614.69946
20
401.4998
30
0.0
11
596.2167
21
414.42987
31
0.0
0
LINE
8
0
10
596.2167
20
414.42987
30
0.0
11
586.19434
21
393.98074
31
0.0
0
LINE
8
0
10
586.19434
20
393.98074
30
0.0
11
608.1526
21
387.16492
31
0.0
0
LINE
8
0
10
608.1526
20
387.16492
30
0.0
11
611.535
21
410.1296
31
0.0
0
LINE
8
0
10
611.535
20
410.1296
30
0.0
11
588.1005
21
409.93042
31
0.0
0
LINE
8
0
10
588.1005
20
409.93042
30
0.0
11
591.9456
21
386.58466
31
0.0
0
LINE
8
0
10
591.9456
20
386.58466
30
0.0
11
614.63556
21
394.05283
31
0.0
0
LINE
8
0
10
614.63556
20
394.05283
30
0.0
11
603.6552
21
415.5249
31
0.0
0
LINE
8
0
10
603.6552
20
415.5249
30
0.0
11
583.9446
21
401.2306
31
0.0
0
LINE
8
0
10
583.9446
20
401.2306
30
0.0
11
601.2707
21
383.79263
31
0.0
0
LINE
8
0
10
601.2707
20
383.79263
30
0.0
11
615.9697
21
403.7894
31
0.0
0
LINE
8
0
10
615.9697
20
403.7894
30
0.0
11
593.73505
21
415.3408
31
0.0
0
LINE
8
0
10
593.73505
20
415.3408
30
0.0
11
585.6718
21
391.3635
31
0.0
0
LINE
8
0
10
585.6718
20
391.3635
30
0.0
11
610.8447
21
387.0509
31
0.0
0
LINE
8
0
10
610.8447
20
387.0509
30
0.0
11
611.2298
21
412.83286
31
0.0
0
LINE
8
0
10
611.2298
20
412.83286
30
0.0
11
585.4514
21
409.20535
31
0.0
0
LINE
8
0
10
585.4514
20
409.20535
30
0.0
11
593.08105
21
384.05487
31
0.0
0
LINE
8
0
10
593.08105
20
384.05487
30
0.0
11
616.9824
21
395.57916
31
0.0
0
LINE
8
0
10
616.9824
20
395.57916
30
0.0
11
601.7675
21
417.6285
31
0.0
0
LINE
8
0
10
601.7675
20
417.6285
30
0.0
11
582.1399
21
399.02017
31
0.0
0
LINE
8
0
10
582.1399
20
399.02017
30
0.0
11
603.7564
21
382.33633
31
0.0
0
LINE
8
0
10
603.7564
20
382.33633
30
0.0
11
617.0357
21
406.49564
31
0.0
0
LINE
8
0
10
617.0357
20
406.49564
30
0.0
11
590.8696
21
415.98303
31
0.0
0
LINE
8
0
10
590.8696
20
415.98303
30
0.0
11
585.477
21
388.40518
31
0.0
0
LINE
8
0
10
585.477
20
388.40518
30
0.0
11
613.82605
21
387.31693
31
0.0
0
LINE
8
0
10
613.82605
20
387.31693
30
0.0
11
610.50055
21
415.76547
31
0.0
0
LINE
8
0
10
610.50055
20
415.76547
30
0.0
11
582.63947
21
408.02158
31
0.0
0
LINE
8
0
10
582.63947
20
408.02158
30
0.0
11
594.69946
21
381.43408
31
0.0
0
LINE
8
0
10
594.69946
20
381.43408
30
0.0
11
619.345
21
397.60135
31
0.0
0
LINE
8
0
10
619.345
20
397.60135
30
0.0
11
599.3827
21
419.67056
31
0.0
0
LINE
8
0
10
599.3827
20
419.67056
30
0.0
11
580.47394
21
396.3235
31
0.0
0
LINE
8
0
10
580.47394
20
396.3235
30
0.0
11
606.7057
21
381.0941
31
0.0
0
LINE
8
0
10
606.7057
20
381.0941
30
0.0
11
617.816
21
409.63092
31
0.0
0
LINE
8
0
10
617.816
20
409.63092
30
0.0
11
587.62067
21
416.27353
31
0.0
0
LINE
8
0
10
587.62067
20
416.27353
30
0.0
11
585.69275
21
385.119
31
0.0
0
LINE
8
0
10
585.69275
20
385.119
30
0.0
11
617.07056
21
388.04346
31
0.0
0
LINE
8
0
10
617.07056
20
388.04346
30
0.0
11
609.27094
21
418.88895
31
0.0
0
LINE
8
0
10
609.27094
20
418.88895
30
0.0
11
579.715
21
406.30917
31
0.0
0
LINE
8
0
10
579.715
20
406.30917
30
0.0
11
596.8627
21
378.7833
31
0.0
0
LINE
8
0
10
596.8627
20
378.7833
30
0.0
11
621.6526
21
400.1717
31
0.0
0
LINE
8
0
10
621.6526
20
400.1717
30
0.0
11
596.4596
21
421.57257
31
0.0
0
LINE
8
0
10
596.4596
20
421.57257
30
0.0
11
579.03143
21
393.11163
31
0.0
0
LINE
8
0
10
579.03143
20
393.11163
30
0.0
11
610.1341
21
380.15488
31
0.0
0
LINE
8
0
10
610.1341
20
380.15488
30
0.0
11
618.2194
21
413.19702
31
0.0
0
LINE
8
0
10
618.2194
20
413.19702
30
0.0
11
584.00055
21
416.1211
31
0.0
0
LINE
8
0
10
584.00055
20
416.1211
30
0.0
11
586.40826
21
381.53143
31
0.0
0
LINE
8
0
10
586.40826
20
381.53143
30
0.0
11
620.5379
21
389.31525
31
0.0
0
LINE
8
0
10
620.5379
20
389.31525
30
0.0
11
607.4626
21
422.1499
31
0.0
0
LINE
8
0
10
607.4626
20
422.1499
30
0.0
11
576.7435
21
403.9979
31
0.0
0
LINE
8
0
10
576.7435
20
403.9979
30
0.0
11
599.6308
21
376.1787
31
0.0
0
LINE
8
0
10
599.6308
20
376.1787
30
0.0
11
623.8201
21
403.3381
31
0.0
0
LINE
8
0
10
623.8201
20
403.3381
30
0.0
11
592.96356
21
423.242
31
0.0
0
LINE
8
0
10
592.96356
20
423.242
30
0.0
11
577.91003
21
389.3646
31
0.0
0
LINE
8
0
10
577.91003
20
389.3646
30
0.0
11
614.0462
21
379.61917
31
0.0
0
LINE
8
0
10
614.0462
20
379.61917
30
0.0
11
618.1452
21
417.18274
31
0.0
0
LINE
8
0
10
618.1452
20
417.18274
30
0.0
11
580.0363
21
415.42706
31
0.0
0
LINE
8
0
10
580.0363
20
415.42706
30
0.0
11
587.7171
21
377.68512
31
0.0
0
LINE
8
0
10
587.7171
20
377.68512
30
0.0
11
624.1711
21
391.21933
31
0.0
0
LINE
8
0
10
624.1711
20
391.21933
30
0.0
11
604.9982
21
425.47775
31
0.0
0
LINE
8
0
10
604.9982
20
425.47775
30
0.0
11
573.80725
21
401.02182
31
0.0
0
LINE
8
0
10
573.80725
20
401.02182
30
0.0
11
603.056
21
373.71274
31
0.0
0
LINE
8
0
10
603.056
20
373.71274
30
0.0
11
625.7472
21
407.1382
31
0.0
0
LINE
8
0
10
625.7472
20
407.1382
30
0.0
11
588.8733
21
424.57315
31
0.0
0
LINE
8
0
10
588.8733
20
424.57315
30
0.0
11
577.2185
21
385.07733
31
0.0
0
LINE
8
0
10
577.2185
20
385.07733
30
0.0
11
618.43054
21
379.59644
31
0.0
0
LINE
8
0
10
618.43054
20
379.59644
30
0.0
11
617.4857
21
421.55978
31
0.0
0
LINE
8
0
10
617.4857
20
421.55978
30
0.0
11
575.77264
21
414.08817
31
0.0
0
LINE
8
0
10
575.77264
20
414.08817
30
0.0
11
589.71606
21
373.6403
31
0.0
0
LINE
8
0
10
589.71606
20
373.6403
30
0.0
11
627.89496
21
393.84274
31
0.0
0
LINE
8
0
10
627.89496
20
393.84274
30
0.0
11
601.8019
21
428.7843
31
0.0
0
LINE
8
0
10
601.8019
20
428.7843
30
0.0
11
571.0062
21
397.31885
31
0.0
0
LINE
8
0
10
571.0062
20
397.31885
30
0.0
11
607.1857
21
371.49472
31
0.0
0
LINE
8
0
10
607.1857
20
371.49472
30
0.0
11
627.3171
21
411.6032
31
0.0
0
LINE
8
0
10
627.3171
20
411.6032
30
0.0
11
584.17505
21
425.4445
31
0.0
0
LINE
8
0
10
584.17505
20
425.4445
30
0.0
11
577.0804
21
380.25504
31
0.0
0
LINE
8
0
10
577.0804
20
380.25504
30
0.0
11
623.26215
21
380.20856
31
0.0
0
LINE
8
0
10
623.26215
20
380.20856
30
0.0
11
616.12335
21
426.28427
31
0.0
0
LINE
8
0
10
616.12335
20
426.28427
30
0.0
11
571.2718
21
411.99405
31
0.0
0
LINE
8
0
10
571.2718
20
411.99405
30
0.0
11
592.5054
21
369.4763
31
0.0
0
LINE
8
0
10
592.5054
20
369.4763
30
0.0
11
631.6147
21
397.273
31
0.0
0
LINE
8
0
10
631.6147
20
397.273
30
0.0
11
597.8013
21
431.96115
31
0.0
0
LINE
8
0
10
597.8013
20
431.96115
30
0.0
11
568.4596
21
392.83383
31
0.0
0
LINE
8
0
10
568.4596
20
392.83383
30
0.0
11
612.05597
21
369.65222
31
0.0
0
LINE
8
0
10
612.05597
20
369.65222
30
0.0
11
628.3973
21
416.74814
31
0.0
0
LINE
8
0
10
628.3973
20
416.74814
30
0.0
11
578.8747
21
425.72153
31
0.0
0
LINE
8
0
10
578.8747
20
425.72153
30
0.0
11
577.6287
21
374.92465
31
0.0
0
LINE
8
0
10
577.6287
20
374.92465
30
0.0
11
628.4944
21
381.58527
31
0.0
0
LINE
8
0
10
628.4944
20
381.58527
30
0.0
11
613.9359
21
431.28943
31
0.0
0
LINE
8
0
10
613.9359
20
431.28943
30
0.0
11
566.61926
21
409.03326
31
0.0
0
LINE
8
0
10
566.61926
20
409.03326
30
0.0
11
596.18274
21
365.29593
31
0.0
0
LINE
8
0
10
596.18274
20
365.29593
30
0.0
11
635.21265
21
401.59125
31
0.0
0
LINE
8
0
10
635.21265
20
401.59125
30
0.0
11
592.9339
21
434.87836
31
0.0
0
LINE
8
0
10
592.9339
20
434.87836
30
0.0
11
566.3069
21
387.5245
31
0.0
0
LINE
8
0
10
566.3069
20
387.5245
30
0.0
11
617.68713
21
368.3309
31
0.0
0
LINE
8
0
10
617.68713
20
368.3309
30
0.0
11
628.8392
21
422.57104
31
0.0
0
LINE
8
0
10
628.8392
20
422.57104
30
0.0
11
572.9974
21
425.25635
31
0.0
0
LINE
8
0
10
572.9974
20
425.25635
30
0.0
11
579.0072
21
369.13416
31
0.0
0
LINE
8
0
10
579.0072
20
369.13416
30
0.0
11
634.05615
21
383.86133
31
0.0
0
LINE
8
0
10
634.05615
20
383.86133
30
0.0
11
610.8001
21
436.4834
31
0.0
0
LINE
8
0
10
610.8001
20
436.4834
30
0.0
11
561.926
21
405.09702
31
0.0
0
LINE
8
0
10
561.926
20
405.09702
30
0.0
11
600.83954
21
361.22665
31
0.0
0
LINE
8
0
10
600.83954
20
361.22665
30
0.0
11
638.5473
21
406.87024
31
0.0
0
LINE
8
0
10
638.5473
20
406.87024
30
0.0
11
587.14905
21
437.38348
31
0.0
0
LINE
8
0
10
587.14905
20
437.38348
30
0.0
11
564.708
21
381.36414
31
0.0
0
LINE
8
0
10
564.708
20
381.36414
30
0.0
11
624.0806
21
367.69412
31
0.0
0
LINE
8
0
10
624.0806
20
367.69412
30
0.0
11
628.4796
21
429.04788
31
0.0
0
LINE
8
0
10
628.4796
20
429.04788
30
0.0
11
566.5924
21
423.88992
31
0.0
0
LINE
8
0
10
566.5924
20
423.88992
30
0.0
11
581.3668
21
362.95758
31
0.0
0
LINE
8
0
10
581.3668
20
362.95758
30
0.0
11
639.8504
21
387.17615
31
0.0
0
LINE
8
0
10
639.8504
20
387.17615
30
0.0
11
606.5919
21
441.74762
31
0.0
0
LINE
8
0
10
606.5919
20
441.74762
30
0.0
11
557.32947
21
400.0801
31
0.0
0
LINE
8
0
10
557.32947
20
400.0801
30
0.0
11
606.55927
21
357.42206
31
0.0
0
LINE
8
0
10
606.55927
20
357.42206
30
0.0
11
641.4526
21
413.16788
31
0.0
0
LINE
8
0
10
641.4526
20
413.16788
30
0.0
11
580.41486
21
439.30176
31
0.0
0
LINE
8
0
10
580.41486
20
439.30176
30
0.0
11
563.8422
21
374.34805
31
0.0
0
LINE
8
0
10
563.8422
20
374.34805
30
0.0
11
631.21466
21
367.92245
31
0.0
0
LINE
8
0
10
631.21466
20
367.92245
30
0.0
11
627.14185
21
436.1288
31
0.0
0
LINE
8
0
10
627.14185
20
436.1288
30
0.0
11
559.73706
21
421.45374
31
0.0
0
LINE
8
0
10
559.73706
20
421.45374
30
0.0
11
584.863
21
356.49838
31
0.0
0
LINE
8
0
10
584.863
20
356.49838
30
0.0
11
645.7499
21
391.6694
31
0.0
0
LINE
8
0
10
645.7499
20
391.6694
30
0.0
11
601.19183
21
446.9334
31
0.0
0
LINE
8
0
10
601.19183
20
446.9334
30
0.0
11
552.99664
21
393.88644
31
0.0
0
LINE
8
0
10
552.99664
20
393.88644
30
0.0
11
613.41187
21
354.06357
31
0.0
0
LINE
8
0
10
613.41187
20
354.06357
30
0.0
11
643.73663
21
420.52615
31
0.0
0
LINE
8
0
10
643.73663
20
420.52615
30
0.0
11
572.71936
21
440.43527
31
0.0
0
LINE
8
0
10
572.71936
20
440.43527
30
0.0
11
563.9089
21
366.49512
31
0.0
0
LINE
8
0
10
563.9089
20
366.49512
30
0.0
11
639.037
21
369.2096
31
0.0
0
LINE
8
0
10
639.037
20
369.2096
30
0.0
11
624.6408
21
443.7316
31
0.0
0
LINE
8
0
10
624.6408
20
443.7316
30
0.0
11
552.5421
21
417.7759
31
0.0
0
LINE
8
0
10
552.5421
20
417.7759
30
0.0
11
589.6519
21
349.89316
31
0.0
0
LINE
8
0
10
589.6519
20
349.89316
30
0.0
11
651.59357
21
397.47354
31
0.0
0
LINE
8
0
10
651.59357
20
397.47354
30
0.0
11
594.49274
21
451.8597
31
0.0
0
LINE
8
0
10
594.49274
20
451.8597
30
0.0
11
549.1248
21
386.43735
31
0.0
0
LINE
8
0
10
549.1248
20
386.43735
30
0.0
11
621.445
21
351.36026
31
0.0
0
LINE
8
0
10
621.445
20
351.36026
30
0.0
11
645.18335
21
428.96017
31
0.0
0
LINE
8
0
10
645.18335
20
428.96017
30
0.0
11
564.081
21
440.5662
31
0.0
0
LINE
8
0
10
564.081
20
440.5662
30
0.0
11
565.1223
21
357.85764
31
0.0
0
LINE
8
0
10
565.1223
20
357.85764
30
0.0
11
647.46533
21
371.76517
31
0.0
0
LINE
8
0
10
647.46533
20
371.76517
30
0.0
11
620.78015
21
451.74158
31
0.0
0
LINE
8
0
10
620.78015
20
451.74158
30
0.0
11
545.1525
21
412.67844
31
0.0
0
LINE
8
0
10
545.1525
20
412.67844
30
0.0
11
595.88654
21
343.31488
31
0.0
0
LINE
8
0
10
595.88654
20
343.31488
30
0.0
11
657.1856
21
404.7164
31
0.0
0
LINE
8
0
10
657.1856
20
404.7164
30
0.0
11
586.39764
21
456.31104
31
0.0
0
LINE
8
0
10
586.39764
20
456.31104
30
0.0
11
545.944
21
377.6696
31
0.0
0
LINE
8
0
10
545.944
20
377.6696
30
0.0
11
630.6861
21
349.55145
31
0.0
0
LINE
8
0
10
630.6861
20
349.55145
30
0.0
11
645.5499
21
438.45993
31
0.0
0
LINE
8
0
10
645.5499
20
438.45993
30
0.0
11
554.54755
21
439.45377
31
0.0
0
LINE
8
0
10
554.54755
20
439.45377
30
0.0
11
567.71533
21
348.52075
31
0.0
0
LINE
8
0
10
567.71533
20
348.52075
30
0.0
11
656.37573
21
375.80453
31
0.0
0
LINE
8
0
10
656.37573
20
375.80453
30
0.0
11
615.3643
21
460.0016
31
0.0
0
LINE
8
0
10
615.3643
20
460.0016
30
0.0
11
537.7555
21
405.99078
31
0.0
0
LINE
8
0
10
537.7555
20
405.99078
30
0.0
11
603.7087
21
336.9766
31
0.0
0
LINE
8
0
10
603.7087
20
336.9766
30
0.0
11
662.29126
21
413.50546
31
0.0
0
LINE
8
0
10
662.29126
20
413.50546
30
0.0
11
576.8358
21
460.0366
31
0.0
0
LINE
8
0
10
576.8358
20
460.0366
30
0.0
11
543.71436
21
367.55334
31
0.0
0
LINE
8
0
10
543.71436
20
367.55334
30
0.0
11
641.1243
21
348.90128
31
0.0
0
LINE
8
0
10
641.1243
20
348.90128
30
0.0
11
644.57434
21
448.97366
31
0.0
0
LINE
8
0
10
644.57434
20
448.97366
30
0.0
11
544.2115
21
436.84476
31
0.0
0
LINE
8
0
10
544.2115
20
436.84476
30
0.0
11
571.92615
21
338.6161
31
0.0
0
LINE
8
0
10
571.92615
20
338.6161
30
0.0
11
665.6009
21
381.54602
31
0.0
0
LINE
8
0
10
665.6009
20
381.54602
30
0.0
11
608.2016
21
468.3107
31
0.0
0
LINE
8
0
10
608.2016
20
468.3107
30
0.0
11
530.5813
21
397.55286
31
0.0
0
LINE
8
0
10
530.5813
20
397.55286
30
0.0
11
613.24207
21
331.13293
31
0.0
0
LINE
8
0
10
613.24207
20
331.13293
30
0.0
11
666.6372
21
423.9246
31
0.0
0
LINE
8
0
10
666.6372
20
423.9246
30
0.0
11
565.7661
21
462.75073
31
0.0
0
LINE
8
0
10
565.7661
20
462.75073
30
0.0
11
542.7302
21
356.08688
31
0.0
0
LINE
8
0
10
542.7302
20
356.08688
30
0.0
11
652.7157
21
349.70364
31
0.0
0
LINE
8
0
10
652.7157
20
349.70364
30
0.0
11
641.97046
21
460.41165
31
0.0
0
LINE
8
0
10
641.97046
20
460.41165
30
0.0
11
533.2068
21
432.46762
31
0.0
0
LINE
8
0
10
533.2068
20
432.46762
30
0.0
11
578.00476
21
328.31952
31
0.0
0
LINE
8
0
10
578.00476
20
328.31952
30
0.0
11
674.92633
21
389.21176
31
0.0
0
LINE
8
0
10
674.92633
20
389.21176
30
0.0
11
599.1038
21
476.42047
31
0.0
0
LINE
8
0
10
599.1038
20
476.42047
30
0.0
11
523.90704
21
387.21564
31
0.0
0
LINE
8
0
10
523.90704
20
387.21564
30
0.0
11
624.5923
21
326.08347
31
0.0
0
LINE
8
0
10
624.5923
20
326.08347
30
0.0
11
669.90826
21
436.03256
31
0.0
0
LINE
8
0
10
669.90826
20
436.03256
30
0.0
11
553.179
21
464.12982
31
0.0
0
LINE
8
0
10
553.179
20
464.12982
30
0.0
11
543.3129
21
343.3162
31
0.0
0
LINE
8
0
10
543.3129
20
343.3162
30
0.0
11
665.3643
21
352.27197
31
0.0
0
LINE
8
0
10
665.3643
20
352.27197
30
0.0
11
637.4404
21
472.62952
31
0.0
0
LINE
8
0
10
637.4404
20
472.62952
30
0.0
11
521.7239
21
426.04776
31
0.0
0
LINE
8
0
10
521.7239
20
426.04776
30
0.0
11
586.19543
21
317.8637
31
0.0
0
LINE
8
0
10
586.19543
20
317.8637
30
0.0
11
684.08203
21
399.00912
31
0.0
0
LINE
8
0
10
684.08203
20
399.00912
30
0.0
11
587.906
21
484.02924
31
0.0
0
LINE
8
0
10
587.906
20
484.02924
30
0.0
11
518.05853
21
374.864
31
0.0
0
LINE
8
0
10
518.05853
20
374.864
30
0.0
11
637.8235
21
322.17114
31
0.0
0
LINE
8
0
10
637.8235
20
322.17114
30
0.0
11
671.75226
21
449.8399
31
0.0
0
LINE
8
0
10
671.75226
20
449.8399
30
0.0
11
539.1187
21
463.821
31
0.0
0
LINE
8
0
10
539.1187
20
463.821
30
0.0
11
545.80865
21
329.33856
31
0.0
0
LINE
8
0
10
545.80865
20
329.33856
30
0.0
11
678.9192
21
356.93637
31
0.0
0
LINE
8
0
10
678.9192
20
356.93637
30
0.0
11
630.6785
21
485.4253
31
0.0
0
LINE
8
0
10
630.6785
20
485.4253
30
0.0
11
510.01163
21
417.31155
31
0.0
0
LINE
8
0
10
510.01163
20
417.31155
30
0.0
11
596.7325
21
307.5396
31
0.0
0
LINE
8
0
10
596.7325
20
307.5396
30
0.0
11
692.7412
21
411.12656
31
0.0
0
LINE
8
0
10
692.7412
20
411.12656
30
0.0
11
574.47107
21
490.7818
31
0.0
0
LINE
8
0
10
574.47107
20
490.7818
30
0.0
11
513.41376
21
360.40906
31
0.0
0
LINE
8
0
10
513.41376
20
360.40906
30
0.0
11
652.9656
21
319.78687
31
0.0
0
LINE
8
0
10
652.9656
20
319.78687
30
0.0
11
671.7747
21
465.31567
31
0.0
0
LINE
8
0
10
671.7747
20
465.31567
30
0.0
11
523.67755
21
461.43552
31
0.0
0
LINE
8
0
10
523.67755
20
461.43552
30
0.0
11
550.5908
21
314.30655
31
0.0
0
LINE
8
0
10
550.5908
20
314.30655
30
0.0
11
693.17017
21
364.0456
31
0.0
0
LINE
8
0
10
693.17017
20
364.0456
30
0.0
11
621.36945
21
498.53506
31
0.0
0
LINE
8
0
10
621.36945
20
498.53506
30
0.0
11
498.38254
21
405.98563
31
0.0
0
LINE
8
0
10
498.38254
20
405.98563
30
0.0
11
609.8399
21
297.70135
31
0.0
0
LINE
8
0
10
609.8399
20
297.70135
30
0.0
11
700.51587
21
425.73248
31
0.0
0
LINE
8
0
10
700.51587
20
425.73248
30
0.0
11
558.69147
21
496.26474
31
0.0
0
LINE
8
0
10
558.69147
20
496.26474
30
0.0
11
510.39944
21
343.81516
31
0.0
0
LINE
8
0
10
510.39944
20
343.81516
30
0.0
11
669.9876
21
319.36188
31
0.0
0
LINE
8
0
10
669.9876
20
319.36188
30
0.0
11
669.5502
21
482.36197
31
0.0
0
LINE
8
0
10
669.5502
20
482.36197
30
0.0
11
507.01932
21
456.5642
31
0.0
0
LINE
8
0
10
507.01932
20
456.5642
30
0.0
11
558.042
21
298.44727
31
0.0
0
LINE
8
0
10
558.042
20
298.44727
30
0.0
11
707.83105
21
373.946
31
0.0
0
LINE
8
0
10
707.83105
20
373.946
30
0.0
11
609.2123
21
511.61948
31
0.0
0
LINE
8
0
10
609.2123
20
511.61948
30
0.0
11
487.22165
21
391.82602
31
0.0
0
LINE
8
0
10
487.22165
20
391.82602
30
0.0
11
625.70123
21
288.77103
31
0.0
0
LINE
8
0
10
625.70123
20
288.77103
30
0.0
11
706.9563
21
442.9442
31
0.0
0
LINE
8
0
10
706.9563
20
442.9442
30
0.0
11
540.51996
21
500.01132
31
0.0
0
LINE
8
0
10
540.51996
20
500.01132
30
0.0
11
509.4894
21
325.10547
31
0.0
0
LINE
8
0
10
509.4894
20
325.10547
30
0.0
11
688.79285
21
321.3651
31
0.0
0
LINE
8
0
10
688.79285
20
321.3651
30
0.0
11
664.6259
21
500.80923
31
0.0
0
LINE
8
0
10
664.6259
20
500.80923
30
0.0
11
489.38364
21
448.78183
31
0.0
0
LINE
8
0
10
489.38364
20
448.78183
30
0.0
11
568.5492
21
282.06586
31
0.0
0
LINE
8
0
10
568.5492
20
282.06586
30
0.0
11
722.53735
21
386.97614
31
0.0
0
LINE
8
0
10
722.53735
20
386.97614
30
0.0
11
593.926
21
524.26215
31
0.0
0
LINE
8
0
10
593.926
20
524.26215
30
0.0
11
476.98877
21
374.60687
31
0.0
0
LINE
8
0
10
476.98877
20
374.60687
30
0.0
11
644.4701
21
281.24246
31
0.0
0
LINE
8
0
10
644.4701
20
281.24246
30
0.0
11
711.5461
21
462.83832
31
0.0
0
LINE
8
0
10
711.5461
20
462.83832
30
0.0
11
519.96075
21
501.49445
31
0.0
0
LINE
8
0
10
519.96075
20
501.49445
30
0.0
11
511.2088
21
304.36606
31
0.0
0
LINE
8
0
10
511.2088
20
304.36606
30
0.0
11
709.21375
21
326.30713
31
0.0
0
LINE
8
0
10
709.21375
20
326.30713
30
0.0
11
656.51874
21
520.4109
31
0.0
0
LINE
8
0
10
656.51874
20
520.4109
30
0.0
11
471.09164
21
437.64478
31
0.0
0
LINE
8
0
10
471.09164
20
437.64478
30
0.0
11
582.50494
21
265.5517
31
0.0
0
LINE
8
0
10
582.50494
20
265.5517
30
0.0
11
736.8395
21
403.46698
31
0.0
0
LINE
8
0
10
736.8395
20
403.46698
30
0.0
11
575.2505
21
535.96326
31
0.0
0
LINE
8
0
10
575.2505
20
535.96326
30
0.0
11
468.22223
21
354.1567
31
0.0
0
LINE
8
0
10
468.22223
20
354.1567
30
0.0
11
666.23395
21
275.67938
31
0.0
0
LINE
8
0
10
666.23395
20
275.67938
30
0.0
11
713.7092
21
485.41415
31
0.0
0
LINE
8
0
10
713.7092
20
485.41415
30
0.0
11
497.10388
21
500.13965
31
0.0
0
LINE
8
0
10
497.10388
20
500.13965
30
0.0
11
516.1166
21
281.77628
31
0.0
0
LINE
8
0
10
516.1166
20
281.77628
30
0.0
11
730.98425
21
334.71765
31
0.0
0
LINE
8
0
10
730.98425
20
334.71765
30
0.0
11
644.74164
21
540.8193
31
0.0
0
LINE
8
0
10
644.74164
20
540.8193
30
0.0
11
452.5666
21
422.72577
31
0.0
0
LINE
8
0
10
452.5666
20
422.72577
30
0.0
11
600.26953
21
249.39352
31
0.0
0
LINE
8
0
10
600.26953
20
249.39352
30
0.0
11
750.19385
21
423.70193
31
0.0
0
LINE
8
0
10
750.19385
20
423.70193
30
0.0
11
552.98755
21
546.13635
31
0.0
0
LINE
8
0
10
552.98755
20
546.13635
30
0.0
11
461.53802
21
330.36566
31
0.0
0
LINE
8
0
10
461.53802
20
330.36566
30
0.0
11
691.0065
21
272.71332
31
0.0
0
LINE
8
0
10
691.0065
20
272.71332
30
0.0
11
712.81354
21
510.58716
31
0.0
0
LINE
8
0
10
712.81354
20
510.58716
30
0.0
11
472.1322
21
495.3295
31
0.0
0
LINE
8
0
10
472.1322
20
495.3295
30
0.0
11
524.8003
21
257.61447
31
0.0
0
LINE
8
0
10
524.8003
20
257.61447
30
0.0
11
753.73553
21
347.1393
31
0.0
0
LINE
8
0
10
753.73553
20
347.1393
30
0.0
11
628.81067
21
561.5818
31
0.0
0
LINE
8
0
10
628.81067
20
561.5818
30
0.0
11
434.3332
21
403.599
31
0.0
0
LINE
8
0
10
434.3332
20
403.599
30
0.0
11
622.18616
21
234.18097
31
0.0
0
LINE
8
0
10
622.18616
20
234.18097
30
0.0
11
761.9589
21
447.93158
31
0.0
0
LINE
8
0
10
761.9589
20
447.93158
30
0.0
11
526.98694
21
554.10254
31
0.0
0
LINE
8
0
10
526.98694
20
554.10254
30
0.0
11
457.63693
21
303.18964
31
0.0
0
LINE
8
0
10
457.63693
20
303.18964
30
0.0
11
718.72253
21
273.05017
31
0.0
0
LINE
8
0
10
718.72253
20
273.05017
30
0.0
11
708.16516
21
538.1827
31
0.0
0
LINE
8
0
10
708.16516
20
538.1827
30
0.0
11
445.32788
21
486.3989
31
0.0
0
LINE
8
0
10
445.32788
20
486.3989
30
0.0
11
537.8794
21
232.26561
31
0.0
0
LINE
8
0
10
537.8794
20
232.26561
30
0.0
11
776.987
21
364.1303
31
0.0
0
LINE
8
0
10
776.987
20
364.1303
30
0.0
11
608.2438
21
582.1324
31
0.0
0
LINE
8
0
10
608.2438
20
582.1324
30
0.0
11
417.0332
21
379.88522
31
0.0
0
LINE
8
0
10
417.0332
20
379.88522
30
0.0
11
648.5333
21
220.61324
31
0.0
0
LINE
8
0
10
648.5333
20
220.61324
30
0.0
11
771.3939
21
476.32492
31
0.0
0
LINE
8
0
10
771.3939
20
476.32492
30
0.0
11
497.1955
21
559.09656
31
0.0
0
LINE
8
0
10
497.1955
20
559.09656
30
0.0
11
457.28662
21
272.69885
31
0.0
0
LINE
8
0
10
457.28662
20
272.69885
30
0.0
11
749.1928
21
277.44485
31
0.0
0
LINE
8
0
10
749.1928
20
277.44485
30
0.0
11
699.0404
21
567.89417
31
0.0
0
LINE
8
0
10
699.0404
20
567.89417
30
0.0
11
417.10928
21
472.67374
31
0.0
0
LINE
8
0
10
417.10928
20
472.67374
30
0.0
11
555.96136
21
206.25201
31
0.0
0
LINE
8
0
10
555.96136
20
206.25201
30
0.0
11
800.12317
21
386.21527
31
0.0
0
LINE
8
0
10
800.12317
20
386.21527
30
0.0
11
582.61334
21
601.7754
31
0.0
0
LINE
8
0
10
582.61334
20
601.7754
30
0.0
11
401.42645
21
351.26163
31
0.0
0
LINE
8
0
10
401.42645
20
351.26163
30
0.0
11
679.5148
21
209.49846
31
0.0
0
LINE
8
0
10
679.5148
20
209.49846
30
0.0
11
777.6609
21
508.95944
31
0.0
0
LINE
8
0
10
777.6609
20
508.95944
30
0.0
11
463.66623
21
560.27045
31
0.0
0
LINE
8
0
10
463.66623
20
560.27045
30
0.0
11
461.33636
21
239.06506
31
0.0
0
LINE
8
0
10
461.33636
20
239.06506
30
0.0
11
782.1137
21
286.71777
31
0.0
0
LINE
8
0
10
782.1137
20
286.71777
30
0.0
11
684.6681
21
599.2912
31
0.0
0
LINE
8
0
10
684.6681
20
599.2912
30
0.0
11
388.02567
21
453.45172
31
0.0
0
LINE
8
0
10
388.02567
20
453.45172
30
0.0
11
579.66125
21
180.23076
31
0.0
0
LINE
8
0
10
579.66125
20
180.23076
30
0.0
11
822.3929
21
413.9055
31
0.0
0
LINE
8
0
10
822.3929
20
413.9055
30
0.0
11
551.5263
21
619.68195
31
0.0
0
LINE
8
0
10
551.5263
20
619.68195
30
0.0
11
388.40088
21
317.465
31
0.0
0
LINE
8
0
10
388.40088
20
317.465
30
0.0
11
715.2549
21
201.7634
31
0.0
0
LINE
8
0
10
715.2549
20
201.7634
30
0.0
11
779.81604
21
545.8151
31
0.0
0
LINE
8
0
10
779.81604
20
545.8151
30
0.0
11
426.56595
21
556.6859
31
0.0
0
LINE
8
0
10
426.56595
20
556.6859
30
0.0
11
470.6846
21
202.61383
31
0.0
0
LINE
8
0
10
470.6846
20
202.61383
30
0.0
11
817.02075
21
301.71448
31
0.0
0
LINE
8
0
10
817.02075
20
301.71448
30
0.0
11
664.27704
21
631.77893
31
0.0
0
LINE
8
0
10
664.27704
20
631.77893
30
0.0
11
358.79053
21
428.05606
31
0.0
0
LINE
8
0
10
358.79053
20
428.05606
30
0.0
11
609.54315
21
155.01894
31
0.0
0
LINE
8
0
10
609.54315
20
155.01894
30
0.0
11
842.8933
21
447.6366
31
0.0
0
LINE
8
0
10
842.8933
20
447.6366
30
0.0
11
514.68854
21
634.8836
31
0.0
0
LINE
8
0
10
514.68854
20
634.8836
30
0.0
11
378.96823
21
278.35266
31
0.0
0
LINE
8
0
10
378.96823
20
278.35266
30
0.0
11
755.7386
21
198.43953
31
0.0
0
LINE
8
0
10
755.7386
20
198.43953
30
0.0
11
776.83276
21
586.7164
31
0.0
0
LINE
8
0
10
776.83276
20
586.7164
30
0.0
11
386.22955
21
547.3461
31
0.0
0
LINE
8
0
10
386.22955
20
547.3461
30
0.0
11
486.27737
21
163.82991
31
0.0
0
LINE
8
0
10
486.27737
20
163.82991
30
0.0
11
853.2831
21
323.3033
31
0.0
0
LINE
8
0
10
853.2831
20
323.3033
30
0.0
11
637.09924
21
664.593
31
0.0
0
LINE
8
0
10
637.09924
20
664.593
30
0.0
11
330.28613
21
395.82306
31
0.0
0
LINE
8
0
10
330.28613
20
395.82306
30
0.0
11
646.13184
21
131.59985
31
0.0
0
LINE
8
0
10
646.13184
20
131.59985
30
0.0
11
860.55646
21
487.79492
31
0.0
0
LINE
8
0
10
860.55646
20
487.79492
30
0.0
11
471.8808
21
646.255
31
0.0
0
LINE
8
0
10
471.8808
20
646.255
30
0.0
11
374.29544
21
233.86719
31
0.0
0
LINE
8
0
10
374.29544
20
233.86719
30
0.0
11
800.8416
21
200.69978
31
0.0
0
LINE
8
0
10
800.8416
20
200.69978
30
0.0
11
767.5463
21
631.36694
31
0.0
0
LINE
8
0
10
767.5463
20
631.36694
30
0.0
11
343.12576
21
531.11957
31
0.0
0
LINE
8
0
10
343.12576
20
531.11957
30
0.0
11
509.17056
21
123.35693
31
0.0
0
LINE
8
0
10
509.17056
20
123.35693
30
0.0
11
890.0974
21
352.4551
31
0.0
0
LINE
8
0
10
890.0974
20
352.4551
30
0.0
11
602.2912
21
696.78094
31
0.0
0
LINE
8
0
10
602.2912
20
696.78094
30
0.0
11
303.5957
21
356.09094
31
0.0
0
LINE
8
0
10
303.5957
20
356.09094
30
0.0
11
689.91895
21
111.157074
31
0.0
0
LINE
8
0
10
689.91895
20
111.157074
30
0.0
11
874.1332
21
534.6559
31
0.0
0
LINE
8
0
10
874.1332
20
534.6559
30
0.0
11
423.02277
21
652.5072
31
0.0
0
LINE
8
0
10
423.02277
20
652.5072
30
0.0
11
375.66364
21
184.15674
31
0.0
0
LINE
8
0
10
375.66364
20
184.15674
30
0.0
11
850.21686
21
209.7991
31
0.0
0
LINE
8
0
10
850.21686
20
209.7991
30
0.0
11
750.7841
21
679.20386
31
0.0
0
LINE
8
0
10
750.7841
20
679.20386
30
0.0
11
298.0161
21
506.95285
31
0.0
0
LINE
8
0
10
298.0161
20
506.95285
30
0.0
11
540.29645
21
82.11844
31
0.0
0
LINE
8
0
10
540.29645
20
82.11844
30
0.0
11
926.38916
21
389.92297
31
0.0
0
LINE
8
0
10
926.38916
20
389.92297
30
0.0
11
559.26886
21
727.15375
31
0.0
0
LINE
8
0
10
559.26886
20
727.15375
30
0.0
11
279.99445
21
308.44727
31
0.0
0
LINE
8
0
10
279.99445
20
308.44727
30
0.0
11
741.1175
21
95.026886
31
0.0
0
LINE
8
0
10
741.1175
20
95.026886
30
0.0
11
882.25433
21
588.2386
31
0.0
0
LINE
8
0
10
882.25433
20
588.2386
30
0.0
11
368.30835
21
652.2713
31
0.0
0
LINE
8
0
10
368.30835
20
652.2713
30
0.0
11
384.41534
21
129.61423
31
0.0
0
LINE
8
0
10
384.41534
20
129.61423
30
0.0
11
903.2634
21
227.01562
31
0.0
0
LINE
8
0
10
903.2634
20
227.01562
30
0.0
11
725.35333
21
729.4396
31
0.0
0
LINE
8
0
10
725.35333
20
729.4396
30
0.0
11
251.86737
21
473.78683
31
0.0
0
LINE
8
0
10
251.86737
20
473.78683
30
0.0
11
580.5831
21
41.242462
31
0.0
0
LINE
8
0
10
580.5831
20
41.242462
30
0.0
11
960.89343
21
436.47253
31
0.0
0
LINE
8
0
10
960.89343
20
436.47253
30
0.0
11
507.46533
21
754.3304
31
0.0
0
LINE
8
0
10
507.46533
20
754.3304
30
0.0
11
260.94833
21
252.54163
31
0.0
0
LINE
8
0
10
260.94833
20
252.54163
30
0.0
11
799.849
21
84.726074
31
0.0
0
LINE
8
0
10
799.849
20
84.726074
30
0.0
11
883.388
21
648.4283
31
0.0
0
LINE
8
0
10
883.388
20
648.4283
30
0.0
11
308.09042
21
644.03723
31
0.0
0
LINE
8
0
10
308.09042
20
644.03723
30
0.0
11
402.00214
21
70.82672
31
0.0
0
LINE
8
0
10
402.00214
20
70.82672
30
0.0
11
959.16986
21
253.70601
31
0.0
0
LINE
8
0
10
959.16986
20
253.70601
30
0.0
11
690.0269
21
781.05347
31
0.0
0
LINE
8
0
10
690.0269
20
781.05347
30
0.0
11
205.87701
21
430.51672
31
0.0
0
LINE
8
0
10
205.87701
20
430.51672
30
0.0
11
630.90485
21
2.1007996
31
0.0
0
LINE
8
0
10
630.90485
20
2.1007996
30
0.0
11
992.1057
21
492.7624
31
0.0
0
LINE
8
0
10
992.1057
20
492.7624
30
0.0
11
446.45764
21
776.70764
31
0.0
0
LINE
8
0
10
446.45764
20
776.70764
30
0.0
11
248.12238
21
188.20161
31
0.0
0
LINE
8
0
10
248.12238
20
188.20161
30
0.0
11
866.02625
21
81.942444
31
0.0
0
LINE
8
0
10
866.02625
20
81.942444
30
0.0
11
875.86414
21
714.87537
31
0.0
0
LINE
8
0
10
875.86414
20
714.87537
30
0.0
11
242.97754
21
626.19324
31
0.0
0
LINE
8
0
10
242.97754
20
626.19324
30
0.0
11
429.93695
21
8.652161
31
0.0
0
LINE
8
0
10
429.93695
20
8.652161
30
0.0
11
1016.845
21
291.2459
31
0.0
0
LINE
8
0
10
1016.845
20
291.2459
30
0.0
11
643.60254
21
832.7429
31
0.0
0
LINE
8
0
10
643.60254
20
832.7429
30
0.0
11
161.53802
21
376.16412
31
0.0
0
LINE
8
0
10
161.53802
20
376.16412
30
0.0
11
692.0246
21
-33.668518
31
0.0
0
LINE
8
0
10
692.0246
20
-33.668518
30
0.0
11
1018.28296
21
559.2732
31
0.0
0
LINE
8
0
10
1018.28296
20
559.2732
30
0.0
11
376.01367
21
792.45825
31
0.0
0
LINE
8
0
10
376.01367
20
792.45825
30
0.0
11
243.37543
21
115.48004
31
0.0
0
LINE
8
0
10
243.37543
20
115.48004
30
0.0
11
939.3074
21
88.52203
31
0.0
0
LINE
8
0
10
939.3074
20
88.52203
30
0.0
11
857.8944
21
786.9513
31
0.0
0
LINE
8
0
10
857.8944
20
786.9513
30
0.0
11
173.87494
21
597.05334
31
0.0
0
LINE
8
0
10
173.87494
20
597.05334
30
0.0
11
469.76083
21
-55.74402
31
0.0
0
LINE
8
0
10
469.76083
20
-55.74402
30
0.0
11
1074.8865
21
340.99124
31
0.0
0
LINE
8
0
10
1074.8865
20
340.99124
30
0.0
11
584.9458
21
882.89795
31
0.0
0
LINE
8
0
10
584.9458
20
882.89795
30
0.0
11
120.632904
21
309.84808
31
0.0
0
LINE
8
0
10
120.632904
20
309.84808
30
0.0
11
764.54376
21
-64.15036
31
0.0
0
LINE
8
0
10
764.54376
20
-64.15036
30
0.0
11
1037.4064
21
636.35657
31
0.0
0
LINE
8
0
10
1037.4064
20
636.35657
30
0.0
11
296.1441
21
799.5362
31
0.0
0
LINE
8
0
10
296.1441
20
799.5362
30
0.0
11
248.72452
21
34.72757
31
0.0
0
LINE
8
0
10
248.72452
20
34.72757
30
0.0
11
1019.04675
21
106.44791
31
0.0
0
LINE
8
0
10
1019.04675
20
106.44791
30
0.0
11
827.6012
21
863.7035
31
0.0
0
LINE
8
0
10
827.6012
20
863.7035
30
0.0
11
102.025024
21
554.8927
31
0.0
0
LINE
8
0
10
102.025024
20
554.8927
30
0.0
11
523.0009
21
-120.854065
31
0.0
0
LINE
8
0
10
523.0009
20
-120.854065
30
0.0
11
1131.5525
21
404.23083
31
0.0
0
LINE
8
0
10
1131.5525
20
404.23083
30
0.0
11
513.04224
21
929.5806
31
0.0
0
LINE
8
0
10
513.04224
20
929.5806
30
0.0
11
85.252686
21
230.85808
31
0.0
0
LINE
8
0
10
85.252686
20
230.85808
30
0.0
11
848.8456
21
-87.14819
31
0.0
0
LINE
8
0
10
848.8456
20
-87.14819
30
0.0
11
1047.231
21
724.0292
31
0.0
0
LINE
8
0
10
1047.231
20
724.0292
30
0.0
11
207.15887
21
795.69006
31
0.0
0
LINE
8
0
10
207.15887
20
795.69006
30
0.0
11
266.40652
21
-53.440216
31
0.0
0
LINE
8
0
10
266.40652
20
-53.440216
30
0.0
11
1104.2445
21
137.80975
31
0.0
0
LINE
8
0
10
1104.2445
20
137.80975
30
0.0
11
783.05566
21
943.80914
31
0.0
0
LINE
8
0
10
783.05566
20
943.80914
30
0.0
11
29.047424
21
497.99304
31
0.0
0
LINE
8
0
10
29.047424
20
497.99304
30
0.0
11
591.11914
21
-184.79474
31
0.0
0
LINE
8
0
10
591.11914
20
-184.79474
30
0.0
11
1184.7372
21
482.13
31
0.0
0
LINE
8
0
10
1184.7372
20
482.13
30
0.0
11
427.05722
21
970.5087
31
0.0
0
LINE
8
0
10
427.05722
20
970.5087
30
0.0
11
57.803833
21
138.71661
31
0.0
0
LINE
8
0
10
57.803833
20
138.71661
30
0.0
11
945.03186
21
-100.18713
31
0.0
0
LINE
8
0
10
945.03186
20
-100.18713
30
0.0
11
1045.2721
21
822.0075
31
0.0
0
LINE
8
0
10
1045.2721
20
822.0075
30
0.0
11
109.7276
21
778.4855
31
0.0
0
LINE
8
0
10
109.7276
20
778.4855
30
0.0
11
298.72824
21
-147.95483
31
0.0
0
LINE
8
0
10
298.72824
20
-147.95483
30
0.0
11
1193.4946
21
184.76303
31
0.0
0
LINE
8
0
10
1193.4946
20
184.76303
30
0.0
11
722.36456
21
1025.523
31
0.0
0
LINE
8
0
10
722.36456
20
1025.523
30
0.0
11
-43.02368
21
424.69815
31
0.0
0
LINE
8
0
10
-43.02368
20
424.69815
30
0.0
11
675.451
21
-245.27924
31
0.0
0
LINE
8
0
10
675.451
20
-245.27924
30
0.0
11
1231.9515
21
575.66516
31
0.0
0
LINE
8
0
10
1231.9515
20
575.66516
30
0.0
11
326.40414
21
1003.0475
31
0.0
0
LINE
8
0
10
326.40414
20
1003.0475
30
0.0
11
41.00592
21
33.248535
31
0.0
0
LINE
8
0
10
41.00592
20
33.248535
30
0.0
11
1052.854
21
-100.52725
31
0.0
0
LINE
8
0
10
1052.854
20
-100.52725
30
0.0
11
1028.8351
21
929.6172
31
0.0
0
LINE
8
0
10
1028.8351
20
929.6172
30
0.0
11
4.9421997
21
745.3395
31
0.0
0
LINE
8
0
10
4.9421997
20
745.3395
30
0.0
11
348.09637
21
-247.32507
31
0.0
0
LINE
8
0
10
348.09637
20
-247.32507
30
0.0
11
1284.935
21
249.47643
31
0.0
0
LINE
8
0
10
1284.935
20
249.47643
30
0.0
11
643.58307
21
1106.6694
31
0.0
0
LINE
8
0
10
643.58307
20
1106.6694
30
0.0
11
-111.707214
21
333.4807
31
0.0
0
LINE
8
0
10
-111.707214
20
333.4807
30
0.0
11
777.1338
21
-299.5949
31
0.0
0
LINE
8
0
10
777.1338
20
-299.5949
30
0.0
11
1270.3125
21
685.5488
31
0.0
0
LINE
8
0
10
1270.3125
20
685.5488
30
0.0
11
210.82104
21
1024.21
31
0.0
0
LINE
8
0
10
210.82104
20
1024.21
30
0.0
11
37.87921
21
-85.34277
31
0.0
0
LINE
8
0
10
37.87921
20
-85.34277
30
0.0
11
1171.6389
21
-85.187195
31
0.0
0
LINE
8
0
10
1171.6389
20
-85.187195
30
0.0
11
995.0509
21
1045.723
31
0.0
0
LINE
8
0
10
995.0509
20
1045.723
30
0.0
11
-105.618225
21
693.5666
31
0.0
0
LINE
8
0
10
-105.618225
20
693.5666
30
0.0
11
416.94406
21
-349.55798
31
0.0
0
LINE
8
0
10
416.94406
20
-349.55798
30
0.0
11
1376.1991
21
334.06677
31
0.0
0
LINE
8
0
10
1376.1991
20
334.06677
30
0.0
11
545.00104
21
1184.5474
31
0.0
0
LINE
8
0
10
545.00104
20
1184.5474
30
0.0
11
-174.04822
21
223.02034
31
0.0
0
LINE
8
0
10
-174.04822
20
223.02034
30
0.0
11
896.9793
21
-344.60663
31
0.0
0
LINE
8
0
10
896.9793
20
-344.60663
30
0.0
11
1296.5414
21
812.1453
31
0.0
0
LINE
8
0
10
1296.5414
20
812.1453
30
0.0
11
80.45471
21
1030.6691
31
0.0
0
LINE
8
0
10
80.45471
20
1030.6691
30
0.0
11
51.71997
21
-216.39319
31
0.0
0
LINE
8
0
10
51.71997
20
-216.39319
30
0.0
11
1300.2113
21
-50.98236
31
0.0
0
LINE
8
0
10
1300.2113
20
-50.98236
30
0.0
11
940.92554
21
1168.657
31
0.0
0
LINE
8
0
10
940.92554
20
1168.657
30
0.0
11
-219.82361
21
620.44
31
0.0
0
LINE
8
0
10
-219.82361
20
620.44
30
0.0
11
507.66006
21
-452.10443
31
0.0
0
LINE
8
0
10
507.66006
20
-452.10443
30
0.0
11
1464.3721
21
440.52023
31
0.0
0
LINE
8
0
10
1464.3721
20
440.52023
30
0.0
11
425.09064
21
1255.94
31
0.0
0
LINE
8
0
10
425.09064
20
1255.94
30
0.0
11
-226.6001
21
92.29379
31
0.0
0
LINE
8
0
10
-226.6001
20
92.29379
30
0.0
11
1035.5608
21
-376.6892
31
0.0
0
LINE
8
0
10
1035.5608
20
-376.6892
30
0.0
11
1306.9741
21
955.378
31
0.0
0
LINE
8
0
10
1306.9741
20
955.378
30
0.0
11
-64.04791
21
1018.7815
31
0.0
0
LINE
8
0
10
-64.04791
20
1018.7815
30
0.0
11
86.061584
21
-358.69067
31
0.0
0
LINE
8
0
10
86.061584
20
-358.69067
30
0.0
11
1436.8118
21
5.42334
31
0.0
0
LINE
8
0
10
1436.8118
20
5.42334
30
0.0
11
863.4048
21
1296.145
31
0.0
0
LINE
8
0
10
863.4048
20
1296.145
30
0.0
11
-334.93042
21
523.26697
31
0.0
0
LINE
8
0
10
-334.93042
20
523.26697
30
0.0
11
622.50354
21
-551.8086
31
0.0
0
LINE
8
0
10
622.50354
20
-551.8086
30
0.0
11
1545.9541
21
570.5991
31
0.0
0
LINE
8
0
10
1545.9541
20
570.5991
30
0.0
11
282.6384
21
1317.0823
31
0.0
0
LINE
8
0
10
282.6384
20
1317.0823
30
0.0
11
-265.41827
21
-59.323425
31
0.0
0
LINE
8
0
10
-265.41827
20
-59.323425
30
0.0
11
1192.8445
21
-391.82147
31
0.0
0
LINE
8
0
10
1192.8445
20
-391.82147
30
0.0
11
1297.5875
21
1114.6287
31
0.0
0
LINE
8
0
10
1297.5875
20
1114.6287
30
0.0
11
-221.40833
21
984.6805
31
0.0
0
LINE
8
0
10
-221.40833
20
984.6805
30
0.0
11
144.61823
21
-510.38568
31
0.0
0
LINE
8
0
10
144.61823
20
-510.38568
30
0.0
11
1579.0176
21
87.44699
31
0.0
0
LINE
8
0
10
1579.0176
20
87.44699
30
0.0
11
759.45703
21
1425.2385
31
0.0
0
LINE
8
0
10
759.45703
20
1425.2385
30
0.0
11
-447.52527
21
399.48233
31
0.0
0
LINE
8
0
10
-447.52527
20
399.48233
30
0.0
11
763.5023
21
-644.8666
31
0.0
0
LINE
8
0
10
763.5023
20
-644.8666
30
0.0
11
1616.8354
21
725.7342
31
0.0
0
LINE
8
0
10
1616.8354
20
725.7342
30
0.0
11
116.85669
21
1363.6511
31
0.0
0
LINE
8
0
10
116.85669
20
1363.6511
30
0.0
11
-286.06793
21
-231.94415
31
0.0
0
LINE
8
0
10
-286.06793
20
-231.94415
30
0.0
11
1368.2532
21
-385.562
31
0.0
0
LINE
8
0
10
1368.2532
20
-385.562
30
0.0
11
1264.0408
21
1288.6296
31
0.0
0
LINE
8
0
10
1264.0408
20
1288.6296
30
0.0
11
-389.76154
21
924.14325
31
0.0
0
LINE
8
0
10
-389.76154
20
924.14325
30
0.0
11
231.21045
21
-668.90015
31
0.0
0
LINE
8
0
10
231.21045
20
-668.90015
30
0.0
11
1723.6499
21
198.42981
31
0.0
0
LINE
8
0
10
1723.6499
20
198.42981
30
0.0
11
626.17346
21
1552.2484
31
0.0
0
LINE
8
0
10
626.17346
20
1552.2484
30
0.0
11
-553.47546
21
246.75871
31
0.0
0
LINE
8
0
10
-553.47546
20
246.75871
30
0.0
11
932.33496
21
-726.79333
31
0.0
0
LINE
8
0
10
932.33496
20
-726.79333
30
0.0
11
1672.2806
21
906.90186
31
0.0
0
LINE
8
0
10
1672.2806
20
906.90186
30
0.0
11
-72.49188
21
1390.772
31
0.0
0
LINE
8
0
10
-72.49188
20
1390.772
30
0.0
11
-283.64905
21
-425.0462
31
0.0
0
LINE
8
0
10
-283.64905
20
-425.0462
30
0.0
11
1560.5038
21
-353.10406
31
0.0
0
LINE
8
0
10
1560.5038
20
-353.10406
30
0.0
11
1201.7388
21
1475.3529
31
0.0
0
LINE
8
0
10
1201.7388
20
1475.3529
30
0.0
11
-566.33167
21
832.942
31
0.0
0
LINE
8
0
10
-566.33167
20
832.942
30
0.0
11
349.66983
21
-830.8384
31
0.0
0
LINE
8
0
10
349.66983
20
-830.8384
30
0.0
11
1866.7582
21
341.79382
31
0.0
0
LINE
8
0
10
1866.7582
20
341.79382
30
0.0
11
460.88855
21
1672.6882
31
0.0
0
LINE
8
0
10
460.88855
20
1672.6882
30
0.0
11
-647.89075
21
63.135406
31
0.0
0
LINE
8
0
10
-647.89075
20
63.135406
30
0.0
11
1130.1965
21
-792.4061
31
0.0
0
LINE
8
0
10
1130.1965
20
-792.4061
30
0.0
11
1706.9336
21
1114.4873
31
0.0
0
LINE
8
0
10
1706.9336
20
1114.4873
30
0.0
11
-284.95807
21
1393.0411
31
0.0
0
LINE
8
0
10
-284.95807
20
1393.0411
30
0.0
11
-252.8418
21
-637.3407
31
0.0
0
LINE
8
0
10
-252.8418
20
-637.3407
30
0.0
11
1767.4823
21
-289.3415
31
0.0
0
LINE
8
0
10
1767.4823
20
-289.3415
30
0.0
11
1105.917
21
1671.8954
31
0.0
0
LINE
8
0
10
1105.917
20
1671.8954
30
0.0
11
-747.4812
21
706.77576
31
0.0
0
LINE
8
0
10
-747.4812
20
706.77576
30
0.0
11
503.72076
21
-991.9022
31
0.0
0
LINE
8
0
10
503.72076
20
-991.9022
30
0.0
11
2003.4567
21
520.52576
31
0.0
0
LINE
8
0
10
2003.4567
20
520.52576
30
0.0
11
261.3208
21
1781.229
31
0.0
0
LINE
8
0
10
261.3208
20
1781.229
30
0.0
11
-725.1339
21
-152.75305
31
0.0
0
LINE
8
0
10
-725.1339
20
-152.75305
30
0.0
11
1357.6475
21
-835.82263
31
0.0
0
LINE
8
0
10
1357.6475
20
-835.82263
30
0.0
11
1714.8396
21
1348.134
31
0.0
0
LINE
8
0
10
1714.8396
20
1348.134
30
0.0
11
-519.2599
21
1364.5742
31
0.0
0
LINE
8
0
10
-519.2599
20
1364.5742
30
0.0
11
-187.97565
21
-866.6328
31
0.0
0
LINE
8
0
10
-187.97565
20
-866.6328
30
0.0
11
1986.1174
21
-188.9591
31
0.0
0
LINE
8
0
10
1986.1174
20
-188.9591
30
0.0
11
971.7515
21
1874.3656
31
0.0
0
LINE
8
0
10
971.7515
20
1874.3656
30
0.0
11
-928.5781
21
541.4379
31
0.0
0
LINE
8
0
10
-928.5781
20
541.4379
30
0.0
11
696.8382
21
-1146.8164
31
0.0
0
LINE
8
0
10
696.8382
20
-1146.8164
30
0.0
11
2127.942
21
737.2712
31
0.0
0
LINE
8
0
10
2127.942
20
737.2712
30
0.0
11
25.734497
21
1871.6699
31
0.0
0
LINE
8
0
10
25.734497
20
1871.6699
30
0.0
11
-778.6969
21
-401.8313
31
0.0
0
LINE
8
0
10
-778.6969
20
-401.8313
30
0.0
11
1614.4475
21
-850.48364
31
0.0
0
LINE
8
0
10
1614.4475
20
-850.48364
30
0.0
11
1689.493
21
1606.5817
31
0.0
0
LINE
8
0
10
1689.493
20
1606.5817
30
0.0
11
-773.1278
21
1299.0778
31
0.0
0
LINE
8
0
10
-773.1278
20
1299.0778
30
0.0
11
-83.125854
21
-1109.6786
31
0.0
0
LINE
8
0
10
-83.125854
20
-1109.6786
30
0.0
11
2212.2515
21
-46.551514
31
0.0
0
LINE
8
0
10
2212.2515
20
-46.551514
30
0.0
11
794.49756
21
2077.775
31
0.0
0
LINE
8
0
10
794.49756
20
2077.775
30
0.0
11
-1103.9076
21
332.9715
31
0.0
0
LINE
8
0
10
-1103.9076
20
332.9715
30
0.0
11
932.08
21
-1289.2645
31
0.0
0
LINE
8
0
10
932.08
20
-1289.2645
30
0.0
11
2233.438
21
994.0977
31
0.0
0
LINE
8
0
10
2233.438
20
994.0977
30
0.0
11
-246.87817
21
1936.9294
31
0.0
0
LINE
8
0
10
-246.87817
20
1936.9294
30
0.0
11
-801.37976
21
-683.92676
31
0.0
0
LINE
8
0
10
-801.37976
20
-683.92676
30
0.0
11
1899.3767
21
-829.20154
31
0.0
0
LINE
8
0
10
1899.3767
20
-829.20154
30
0.0
11
1624.0043
21
1887.4318
31
0.0
0
LINE
8
0
10
1624.0043
20
1887.4318
30
0.0
11
-1043.1453
21
1189.9521
31
0.0
0
LINE
8
0
10
-1043.1453
20
1189.9521
30
0.0
11
67.75897
21
-1362.0433
31
0.0
0
LINE
8
0
10
67.75897
20
-1362.0433
30
0.0
11
2440.5186
21
143.22772
31
0.0
0
LINE
8
0
10
2440.5186
20
143.22772
30
0.0
11
569.6569
21
2275.9385
31
0.0
0
LINE
8
0
10
569.6569
20
2275.9385
30
0.0
11
-1266.6002
21
77.851685
31
0.0
0
LINE
8
0
10
-1266.6002
20
77.851685
30
0.0
11
1211.893
21
-1411.8452
31
0.0
0
LINE
8
0
10
1211.893
20
-1411.8452
30
0.0
11
2312.1804
21
1292.2944
31
0.0
0
LINE
8
0
10
2312.1804
20
1292.2944
30
0.0
11
-556.5946
21
1969.0624
31
0.0
0
LINE
8
0
10
-556.5946
20
1969.0624
30
0.0
11
-785.2444
21
-997.8806
31
0.0
0
LINE
8
0
10
-785.2444
20
-997.8806
30
0.0
11
2210.0432
21
-764.2385
31
0.0
0
LINE
8
0
10
2210.0432
20
-764.2385
30
0.0
11
1510.864
21
2187.226
31
0.0
0
LINE
8
0
10
1510.864
20
2187.226
30
0.0
11
-1324.5883
21
1030.4277
31
0.0
0
LINE
8
0
10
-1324.5883
20
1030.4277
30
0.0
11
270.5733
21
-1617.9404
31
0.0
0
LINE
8
0
10
270.5733
20
-1617.9404
30
0.0
11
2664.2307
21
385.48425
31
0.0
0
LINE
8
0
10
2664.2307
20
385.48425
30
0.0
11
293.17764
21
2461.39
31
0.0
0
LINE
8
0
10
293.17764
20
2461.39
30
0.0
11
-1408.5773
21
-226.8017
31
0.0
0
LINE
8
0
10
-1408.5773
20
-226.8017
30
0.0
11
1537.8927
21
-1506.0514
31
0.0
0
LINE
8
0
10
1537.8927
20
-1506.0514
30
0.0
11
2355.4321
21
1632.1494
31
0.0
0
LINE
8
0
10
2355.4321
20
1632.1494
30
0.0
11
-902.34204
21
1959.3079
31
0.0
0
LINE
8
0
10
-902.34204
20
1959.3079
30
0.0
11
-721.7185
21
-1341.2593
31
0.0
0
LINE
8
0
10
-721.7185
20
-1341.2593
30
0.0
11
2542.6855
21
-647.42175
31
0.0
0
LINE
8
0
10
2542.6855
20
-647.42175
30
0.0
11
1342.5787
21
2500.874
31
0.0
0
LINE
8
0
10
1342.5787
20
2500.874
30
0.0
11
-1611.2673
21
813.73816
31
0.0
0
LINE
8
0
10
-1611.2673
20
813.73816
30
0.0
11
531.33435
21
-1870.1992
31
0.0
0
LINE
8
0
10
531.33435
20
-1870.1992
30
0.0
11
2875.2778
21
684.8657
31
0.0
0
LINE
8
0
10
2875.2778
20
684.8657
30
0.0
11
-38.314026
21
2625.3162
31
0.0
0
LINE
8
0
10
-38.314026
20
2625.3162
30
0.0
11
-1520.523
21
-582.9831
31
0.0
0
LINE
8
0
10
-1520.523
20
-582.9831
30
0.0
11
1910.6187
21
-1562.2802
31
0.0
0
LINE
8
0
10
1910.6187
20
-1562.2802
30
0.0
11
2353.5293
21
2012.7068
31
0.0
0
LINE
8
0
10
2353.5293
20
2012.7068
30
0.0
11
-1281.6631
21
1898.1754
31
0.0
0
LINE
8
0
10
-1281.6631
20
1898.1754
30
0.0
11
-601.7174
21
-1710.135
31
0.0
0
LINE
8
0
10
-601.7174
20
-1710.135
30
0.0
11
2891.9712
21
-470.3009
31
0.0
0
LINE
8
0
10
2891.9712
20
-470.3009
30
0.0
11
1111.5479
21
2821.7415
31
0.0
0
LINE
8
0
10
1111.5479
20
2821.7415
30
0.0
11
-1895.3813
21
533.33435
31
0.0
0
LINE
8
0
10
-1895.3813
20
533.33435
30
0.0
11
855.2538
21
-2109.9856
31
0.0
0
LINE
8
0
10
855.2538
20
-2109.9856
30
0.0
11
3064.053
21
1045.3081
31
0.0
0
LINE
8
0
10
3064.053
20
1045.3081
30
0.0
11
-427.10535
21
2757.5842
31
0.0
0
LINE
8
0
10
-427.10535
20
2757.5842
30
0.0
11
-1591.8877
21
-991.531
31
0.0
0
LINE
8
0
10
-1591.8877
20
-991.531
30
0.0
11
2329.2651
21
-1569.8773
31
0.0
0
LINE
8
0
10
2329.2651
20
-1569.8773
30
0.0
11
2295.9702
21
2431.5051
31
0.0
0
LINE
8
0
10
2295.9702
20
2431.5051
30
0.0
11
-1690.4673
21
1775.5713
31
0.0
0
LINE
8
0
10
-1690.4673
20
1775.5713
30
0.0
11
-415.80865
21
-2098.857
31
0.0
0
LINE
8
0
10
-415.80865
20
-2098.857
30
0.0
11
3250.796
21
-224.34613
31
0.0
0
LINE
8
0
10
3250.796
20
-224.34613
30
0.0
11
810.36835
21
3141.4146
31
0.0
0
LINE
8
0
10
810.36835
20
3141.4146
30
0.0
11
-2167.3853
21
183.14117
31
0.0
0
LINE
8
0
10
-2167.3853
20
183.14117
30
0.0
11
1246.9065
21
-2326.8328
31
0.0
0
LINE
8
0
10
1246.9065
20
-2326.8328
30
0.0
11
3219.4028
21
1469.746
31
0.0
0
LINE
8
0
10
3219.4028
20
1469.746
30
0.0
11
-874.66956
21
2846.5127
31
0.0
0
LINE
8
0
10
-874.66956
20
2846.5127
30
0.0
11
-1610.9324
21
-1451.8313
31
0.0
0
LINE
8
0
10
-1610.9324
20
-1451.8313
30
0.0
11
2791.3926
21
-1517.2279
31
0.0
0
LINE
8
0
10
2791.3926
20
-1517.2279
30
0.0
11
2171.5474
21
2884.3032
31
0.0
0
LINE
8
0
10
2171.5474
20
2884.3032
30
0.0
11
-2122.78
21
1580.9768
31
0.0
0
LINE
8
0
10
-2122.78
20
1580.9768
30
0.0
11
-154.42902
21
-2499.8284
31
0.0
0
LINE
8
0
10
-154.42902
20
-2499.8284
30
0.0
11
3610.0923
21
98.79993
31
0.0
0
LINE
8
0
10
3610.0923
20
98.79993
30
0.0
11
432.11426
21
3449.5476
31
0.0
0
LINE
8
0
10
432.11426
20
3449.5476
30
0.0
11
-2415.881
21
-242.14001
31
0.0
0
ENDSEC
0
EOF
