0
SECTION
2
ENTITIES
0
LINE
8
0
10
931.2
20
400.0
30
0.0
11
384.8521
21
582.58777
31
0.0
0
LINE
8
0
10
384.8521
20
582.58777
30
0.0
11
639.1012
21
162.78156
31
0.0
0
LINE
8
0
10
639.1012
20
162.78156
30
0.0
11
705.37634
21
575.6535
31
0.0
0
LINE
8
0
10
705.37634
20
575.6535
30
0.0
11
434.7111
21
343.9884
31
0.0
0
LINE
8
0
10
434.7111
20
343.9884
30
0.0
11
738.25055
21
345.26276
31
0.0
0
LINE
8
0
10
738.25055
20
345.26276
30
0.0
11
540.36847
21
511.77374
31
0.0
0
LINE
8
0
10
540.36847
20
511.77374
30
0.0
11
577.1168
21
294.51727
31
0.0
0
LINE
8
0
10
577.1168
20
294.51727
30
0.0
11
673.01666
21
455.90637
31
0.0
0
LINE
8
0
10
673.01666
20
455.90637
30
0.0
11
521.74756
21
403.93652
31
0.0
0
LINE
8
0
10
521.74756
20
403.93652
30
0.0
11
648.66266
21
354.30292
31
0.0
0
LINE
8
0
10
648.66266
20
354.30292
30
0.0
11
593.581
21
456.5122
31
0.0
0
LINE
8
0
10
593.581
20
456.5122
30
0.0
11
573.0151
21
359.7509
31
0.0
0
LINE
8
0
10
573.0151
20
359.7509
30
0.0
11
639.7184
21
411.26938
31
0.0
0
LINE
8
0
10
639.7184
20
411.26938
30
0.0
11
567.98615
21
414.57584
31
0.0
0
LINE
8
0
10
567.98615
20
414.57584
30
0.0
11
612.76074
21
372.88257
31
0.0
0
LINE
8
0
10
612.76074
20
372.88257
30
0.0
11
606.6603
21
424.65036
31
0.0
0
LINE
8
0
10
606.6603
20
424.65036
30
0.0
11
582.0839
21
387.65887
31
0.0
0
LINE
8
0
10
582.0839
20
387.65887
30
0.0
11
618.4419
21
398.13983
31
0.0
0
LINE
8
0
10
618.4419
20
398.13983
30
0.0
11
589.04565
21
411.37524
31
0.0
0
LINE
8
0
10
589.04565
20
411.37524
30
0.0
11
600.84485
21
386.5716
31
0.0
0
LINE
8
0
10
600.84485
20
386.5716
30
0.0
11
606.8542
21
409.18884
31
0.0
0
LINE
8
0
10
606.8542
20
409.18884
30
0.0
11
590.4818
21
397.80954
31
0.0
0
LINE
8
0
10
590.4818
20
397.80954
30
0.0
11
607.3906
21
396.1756
31
0.0
0
LINE
8
0
10
607.3906
20
396.1756
30
0.0
11
597.30743
21
406.55872
31
0.0
0
LINE
8
0
10
597.30743
20
406.55872
30
0.0
11
598.1333
21
394.25507
31
0.0
0
LINE
8
0
10
598.1333
20
394.25507
30
0.0
11
604.37976
21
402.70282
31
0.0
0
LINE
8
0
10
604.37976
20
402.70282
30
0.0
11
595.66486
21
400.65875
31
0.0
0
LINE
8
0
10
595.66486
20
400.65875
30
0.0
11
602.45294
21
397.18213
31
0.0
0
LINE
8
0
10
602.45294
20
397.18213
30
0.0
11
599.96
21
403.18277
31
0.0
0
LINE
8
0
10
599.96
20
403.18277
30
0.0
11
598.27136
21
397.91043
31
0.0
0
LINE
8
0
10
902.5663
20
534.7112
30
0.0
11
329.18747
21
479.2937
31
0.0
0
LINE
8
0
10
329.18747
20
479.2937
30
0.0
11
732.2061
21
199.19406
31
0.0
0
LINE
8
0
10
732.2061
20
199.19406
30
0.0
11
624.82135
21
603.3279
31
0.0
0
LINE
8
0
10
624.82135
20
603.3279
30
0.0
11
471.78308
21
281.60175
31
0.0
0
LINE
8
0
10
471.78308
20
281.60175
30
0.0
11
748.5618
21
406.22668
31
0.0
0
LINE
8
0
10
748.5618
20
406.22668
30
0.0
11
500.0614
21
477.85605
31
0.0
0
LINE
8
0
10
500.0614
20
477.85605
30
0.0
11
621.99884
21
294.32928
31
0.0
0
LINE
8
0
10
621.99884
20
294.32928
30
0.0
11
643.9649
21
480.77155
31
0.0
0
LINE
8
0
10
643.9649
20
480.77155
30
0.0
11
526.9117
21
371.7681
31
0.0
0
LINE
8
0
10
526.9117
20
371.7681
30
0.0
11
663.0423
21
378.04663
31
0.0
0
LINE
8
0
10
663.0423
20
378.04663
30
0.0
11
571.1504
21
449.01562
31
0.0
0
LINE
8
0
10
571.1504
20
449.01562
30
0.0
11
591.71893
21
352.25482
31
0.0
0
LINE
8
0
10
591.71893
20
352.25482
30
0.0
11
631.7009
21
426.45
31
0.0
0
LINE
8
0
10
631.7009
20
426.45
30
0.0
11
564.8254
21
400.29443
31
0.0
0
LINE
8
0
10
564.8254
20
400.29443
30
0.0
11
622.6872
21
380.4173
31
0.0
0
LINE
8
0
10
622.6872
20
380.4173
30
0.0
11
596.0582
21
425.2282
31
0.0
0
LINE
8
0
10
596.0582
20
425.2282
30
0.0
11
588.65247
21
381.4387
31
0.0
0
LINE
8
0
10
588.65247
20
381.4387
30
0.0
11
617.60406
21
405.8016
31
0.0
0
LINE
8
0
10
617.60406
20
405.8016
30
0.0
11
585.36597
21
405.93625
31
0.0
0
LINE
8
0
10
585.36597
20
405.93625
30
0.0
11
606.23364
21
388.07617
31
0.0
0
LINE
8
0
10
606.23364
20
388.07617
30
0.0
11
602.5241
21
411.18228
31
0.0
0
LINE
8
0
10
602.5241
20
411.18228
30
0.0
11
592.1956
21
394.12753
31
0.0
0
LINE
8
0
10
592.1956
20
394.12753
30
0.0
11
608.3072
21
399.51224
31
0.0
0
LINE
8
0
10
608.3072
20
399.51224
30
0.0
11
594.87256
21
404.8965
31
0.0
0
LINE
8
0
10
594.87256
20
404.8965
30
0.0
11
600.6314
21
393.9925
31
0.0
0
LINE
8
0
10
600.6314
20
393.9925
30
0.0
11
602.90173
21
404.25055
31
0.0
0
LINE
8
0
10
602.90173
20
404.25055
30
0.0
11
595.7717
21
398.83853
31
0.0
0
LINE
8
0
10
595.7717
20
398.83853
30
0.0
11
603.387
21
398.42346
31
0.0
0
LINE
8
0
10
603.387
20
398.42346
30
0.0
11
598.66895
21
402.89133
31
0.0
0
LINE
8
0
10
598.66895
20
402.89133
30
0.0
11
599.2707
21
397.38797
31
0.0
0
LINE
8
0
10
821.6161
20
646.1296
30
0.0
11
320.3488
21
362.28903
31
0.0
0
LINE
8
0
10
320.3488
20
362.28903
30
0.0
11
802.4514
21
270.32773
31
0.0
0
LINE
8
0
10
802.4514
20
270.32773
30
0.0
11
539.9745
21
595.84503
31
0.0
0
LINE
8
0
10
539.9745
20
595.84503
30
0.0
11
531.02484
21
239.68733
31
0.0
0
LINE
8
0
10
531.02484
20
239.68733
30
0.0
11
733.18536
21
466.11383
31
0.0
0
LINE
8
0
10
733.18536
20
466.11383
30
0.0
11
477.03464
21
430.4764
31
0.0
0
LINE
8
0
10
477.03464
20
430.4764
30
0.0
11
663.077
21
312.41272
31
0.0
0
LINE
8
0
10
663.077
20
312.41272
30
0.0
11
607.3111
21
491.67065
31
0.0
0
LINE
8
0
10
607.3111
20
491.67065
30
0.0
11
544.71344
21
344.4812
31
0.0
0
LINE
8
0
10
544.71344
20
344.4812
30
0.0
11
666.52124
21
405.58615
31
0.0
0
LINE
8
0
10
666.52124
20
405.58615
30
0.0
11
553.7081
21
433.04382
31
0.0
0
LINE
8
0
10
553.7081
20
433.04382
30
0.0
11
611.85455
21
353.0144
31
0.0
0
LINE
8
0
10
611.85455
20
353.0144
30
0.0
11
618.20197
21
437.05725
31
0.0
0
LINE
8
0
10
618.20197
20
437.05725
30
0.0
11
567.7466
21
385.96225
31
0.0
0
LINE
8
0
10
567.7466
20
385.96225
30
0.0
11
628.69073
21
391.33795
31
0.0
0
LINE
8
0
10
628.69073
20
391.33795
30
0.0
11
586.1378
21
421.44388
31
0.0
0
LINE
8
0
10
586.1378
20
421.44388
30
0.0
11
597.1831
21
378.42792
31
0.0
0
LINE
8
0
10
597.1831
20
378.42792
30
0.0
11
613.7224
21
412.46027
31
0.0
0
LINE
8
0
10
613.7224
20
412.46027
30
0.0
11
584.2167
21
399.47086
31
0.0
0
LINE
8
0
10
584.2167
20
399.47086
30
0.0
11
610.54456
21
391.6425
31
0.0
0
LINE
8
0
10
610.54456
20
391.6425
30
0.0
11
597.7576
21
411.2422
31
0.0
0
LINE
8
0
10
597.7576
20
411.2422
30
0.0
11
595.2589
21
391.4609
31
0.0
0
LINE
8
0
10
595.2589
20
391.4609
30
0.0
11
607.78735
21
402.93326
31
0.0
0
LINE
8
0
10
607.78735
20
402.93326
30
0.0
11
593.3242
21
402.38766
31
0.0
0
LINE
8
0
10
593.3242
20
402.38766
30
0.0
11
603.02026
21
394.76868
31
0.0
0
LINE
8
0
10
603.02026
20
394.76868
30
0.0
11
600.922
21
405.06332
31
0.0
0
LINE
8
0
10
600.922
20
405.06332
30
0.0
11
596.6097
21
397.21918
31
0.0
0
LINE
8
0
10
596.6097
20
397.21918
30
0.0
11
603.7354
21
399.93738
31
0.0
0
LINE
8
0
10
603.7354
20
399.93738
30
0.0
11
597.608
21
402.09998
31
0.0
0
LINE
8
0
10
597.608
20
402.09998
30
0.0
11
600.3962
21
397.31717
31
0.0
0
LINE
8
0
10
702.34644
20
714.9899
30
0.0
11
359.86435
21
251.80493
31
0.0
0
LINE
8
0
10
359.86435
20
251.80493
30
0.0
11
837.69104
21
363.8829
31
0.0
0
LINE
8
0
10
837.69104
20
363.8829
30
0.0
11
465.5066
21
554.4987
31
0.0
0
LINE
8
0
10
465.5066
20
554.4987
30
0.0
11
602.1932
21
225.49237
31
0.0
0
LINE
8
0
10
602.1932
20
225.49237
30
0.0
11
694.7799
21
514.5694
31
0.0
0
LINE
8
0
10
694.7799
20
514.5694
30
0.0
11
475.2697
21
377.827
31
0.0
0
LINE
8
0
10
475.2697
20
377.827
30
0.0
11
693.24866
21
345.64072
31
0.0
0
LINE
8
0
10
693.24866
20
345.64072
30
0.0
11
569.39325
21
486.719
31
0.0
0
LINE
8
0
10
569.39325
20
486.719
30
0.0
11
572.0747
21
326.794
31
0.0
0
LINE
8
0
10
572.0747
20
326.794
30
0.0
11
658.4981
21
432.15982
31
0.0
0
LINE
8
0
10
658.4981
20
432.15982
30
0.0
11
544.27014
21
411.35837
31
0.0
0
LINE
8
0
10
544.27014
20
411.35837
30
0.0
11
629.9404
21
361.89816
31
0.0
0
LINE
8
0
10
629.9404
20
361.89816
30
0.0
11
601.5559
21
441.2569
31
0.0
0
LINE
8
0
10
601.5559
20
441.2569
30
0.0
11
576.24475
21
374.0572
31
0.0
0
LINE
8
0
10
576.24475
20
374.0572
30
0.0
11
629.73346
21
403.75644
31
0.0
0
LINE
8
0
10
629.73346
20
403.75644
30
0.0
11
578.61426
21
413.95166
31
0.0
0
LINE
8
0
10
578.61426
20
413.95166
30
0.0
11
606.20074
21
379.1472
31
0.0
0
LINE
8
0
10
606.20074
20
379.1472
30
0.0
11
607.46796
21
416.96445
31
0.0
0
LINE
8
0
10
607.46796
20
416.96445
30
0.0
11
585.79645
21
393.09692
31
0.0
0
LINE
8
0
10
585.79645
20
393.09692
30
0.0
11
613.0322
21
396.6539
31
0.0
0
LINE
8
0
10
613.0322
20
396.6539
30
0.0
11
593.3789
21
409.35822
31
0.0
0
LINE
8
0
10
593.3789
20
409.35822
30
0.0
11
599.1419
21
390.27075
31
0.0
0
LINE
8
0
10
599.1419
20
390.27075
30
0.0
11
605.921
21
405.84708
31
0.0
0
LINE
8
0
10
605.921
20
405.84708
30
0.0
11
592.93024
21
399.46597
31
0.0
0
LINE
8
0
10
592.93024
20
399.46597
30
0.0
11
604.8869
21
396.4494
31
0.0
0
LINE
8
0
10
604.8869
20
396.4494
30
0.0
11
598.7829
21
405.0006
31
0.0
0
LINE
8
0
10
598.7829
20
405.0006
30
0.0
11
598.0339
21
396.08063
31
0.0
0
LINE
8
0
10
598.0339
20
396.08063
30
0.0
11
603.4379
21
401.4621
31
0.0
0
LINE
8
0
10
603.4379
20
401.4621
30
0.0
11
596.96063
21
400.9455
31
0.0
0
LINE
8
0
10
596.96063
20
400.9455
30
0.0
11
601.4531
21
397.71024
31
0.0
0
LINE
8
0
10
565.3801
20
729.3857
30
0.0
11
440.9015
21
166.94514
31
0.0
0
LINE
8
0
10
440.9015
20
166.94514
30
0.0
11
831.8317
21
463.68304
31
0.0
0
LINE
8
0
10
831.8317
20
463.68304
30
0.0
11
414.29388
21
486.43826
31
0.0
0
LINE
8
0
10
414.29388
20
486.43826
30
0.0
11
672.9822
21
241.47137
31
0.0
0
LINE
8
0
10
672.9822
20
241.47137
30
0.0
11
639.98627
21
543.21484
31
0.0
0
LINE
8
0
10
639.98627
20
543.21484
30
0.0
11
495.0718
21
329.01154
31
0.0
0
LINE
8
0
10
495.0718
20
329.01154
30
0.0
11
707.2968
21
388.26813
31
0.0
0
LINE
8
0
10
707.2968
20
388.26813
30
0.0
11
536.7676
21
466.7729
31
0.0
0
LINE
8
0
10
536.7676
20
466.7729
30
0.0
11
604.26465
21
321.76477
31
0.0
0
LINE
8
0
10
604.26465
20
321.76477
30
0.0
11
640.3601
21
453.17276
31
0.0
0
LINE
8
0
10
640.3601
20
453.17276
30
0.0
11
544.4683
21
387.709
31
0.0
0
LINE
8
0
10
544.4683
20
387.709
30
0.0
11
642.8493
21
377.3701
31
0.0
0
LINE
8
0
10
642.8493
20
377.3701
30
0.0
11
584.6406
21
438.32288
31
0.0
0
LINE
8
0
10
584.6406
20
438.32288
30
0.0
11
588.8503
21
366.63797
31
0.0
0
LINE
8
0
10
588.8503
20
366.63797
30
0.0
11
625.6351
21
415.5252
31
0.0
0
LINE
8
0
10
625.6351
20
415.5252
30
0.0
11
574.7885
21
404.04718
31
0.0
0
LINE
8
0
10
574.7885
20
404.04718
30
0.0
11
614.14624
21
383.47202
31
0.0
0
LINE
8
0
10
614.14624
20
383.47202
30
0.0
11
599.92236
21
418.53528
31
0.0
0
LINE
8
0
10
599.92236
20
418.53528
30
0.0
11
589.83203
21
387.9167
31
0.0
0
LINE
8
0
10
589.83203
20
387.9167
30
0.0
11
613.26654
21
402.24387
31
0.0
0
LINE
8
0
10
613.26654
20
402.24387
30
0.0
11
590.145
21
405.85614
31
0.0
0
LINE
8
0
10
590.145
20
405.85614
30
0.0
11
603.17334
21
390.76288
31
0.0
0
LINE
8
0
10
603.17334
20
390.76288
30
0.0
11
603.03094
21
407.74988
31
0.0
0
LINE
8
0
10
603.03094
20
407.74988
30
0.0
11
593.75867
21
396.63663
31
0.0
0
LINE
8
0
10
593.75867
20
396.63663
30
0.0
11
605.90857
21
398.74405
31
0.0
0
LINE
8
0
10
605.90857
20
398.74405
30
0.0
11
596.8542
21
404.07324
31
0.0
0
LINE
8
0
10
596.8542
20
404.07324
30
0.0
11
599.798
21
395.61975
31
0.0
0
LINE
8
0
10
599.798
20
395.61975
30
0.0
11
602.546
21
402.73404
31
0.0
0
LINE
8
0
10
602.546
20
402.73404
30
0.0
11
596.83887
21
399.6276
31
0.0
0
LINE
8
0
10
596.83887
20
399.6276
30
0.0
11
602.2588
21
398.4992
31
0.0
0
LINE
8
0
10
434.39996
20
686.82764
30
0.0
11
549.44824
21
122.3826
31
0.0
0
LINE
8
0
10
549.44824
20
122.3826
30
0.0
11
785.88666
21
552.47174
31
0.0
0
LINE
8
0
10
785.88666
20
552.47174
30
0.0
11
395.1914
21
403.4321
31
0.0
0
LINE
8
0
10
395.1914
20
403.4321
30
0.0
11
731.15173
21
284.8612
31
0.0
0
LINE
8
0
10
731.15173
20
284.8612
30
0.0
11
578.27875
21
547.09717
31
0.0
0
LINE
8
0
10
578.27875
20
547.09717
30
0.0
11
533.0167
21
292.47083
31
0.0
0
LINE
8
0
10
533.0167
20
292.47083
30
0.0
11
702.7923
21
432.92392
31
0.0
0
LINE
8
0
10
702.7923
20
432.92392
30
0.0
11
515.0753
21
435.28116
31
0.0
0
LINE
8
0
10
515.0753
20
435.28116
30
0.0
11
635.71704
21
330.26312
31
0.0
0
LINE
8
0
10
635.71704
20
330.26312
30
0.0
11
615.2435
21
464.99167
31
0.0
0
LINE
8
0
10
615.2435
20
464.99167
30
0.0
11
554.2685
21
366.1849
31
0.0
0
LINE
8
0
10
554.2685
20
366.1849
30
0.0
11
648.34924
21
396.755
31
0.0
0
LINE
8
0
10
648.34924
20
396.755
30
0.0
11
570.38116
21
428.76242
31
0.0
0
LINE
8
0
10
570.38116
20
428.76242
30
0.0
11
603.38385
21
364.98727
31
0.0
0
LINE
8
0
10
603.38385
20
364.98727
30
0.0
11
617.1041
21
424.60974
31
0.0
0
LINE
8
0
10
617.1041
20
424.60974
30
0.0
11
575.32196
21
393.44287
31
0.0
0
LINE
8
0
10
575.32196
20
393.44287
30
0.0
11
619.64575
21
390.6547
31
0.0
0
LINE
8
0
10
619.64575
20
390.6547
30
0.0
11
592.3901
21
416.90125
31
0.0
0
LINE
8
0
10
592.3901
20
416.90125
30
0.0
11
595.62585
21
384.82565
31
0.0
0
LINE
8
0
10
595.62585
20
384.82565
30
0.0
11
611.207
21
407.44583
31
0.0
0
LINE
8
0
10
611.207
20
407.44583
30
0.0
11
588.6152
21
401.3415
31
0.0
0
LINE
8
0
10
588.6152
20
401.3415
30
0.0
11
606.65607
21
392.8522
31
0.0
0
LINE
8
0
10
606.65607
20
392.8522
30
0.0
11
599.61676
21
408.31265
31
0.0
0
LINE
8
0
10
599.61676
20
408.31265
30
0.0
11
595.66626
21
394.38882
31
0.0
0
LINE
8
0
10
595.66626
20
394.38882
30
0.0
11
605.9086
21
401.25586
31
0.0
0
LINE
8
0
10
605.9086
20
401.25586
30
0.0
11
595.4694
21
402.4416
31
0.0
0
LINE
8
0
10
595.4694
20
402.4416
30
0.0
11
601.59705
21
395.9163
31
0.0
0
LINE
8
0
10
601.59705
20
395.9163
30
0.0
11
601.21387
21
403.53323
31
0.0
0
LINE
8
0
10
601.21387
20
403.53323
30
0.0
11
597.2636
21
398.37402
31
0.0
0
LINE
8
0
10
597.2636
20
398.37402
30
0.0
11
602.67395
21
399.5477
31
0.0
0
LINE
8
0
10
332.05353
20
594.67444
30
0.0
11
666.73584
21
125.8226
31
0.0
0
LINE
8
0
10
666.73584
20
125.8226
30
0.0
11
707.80005
21
614.8968
31
0.0
0
LINE
8
0
10
707.80005
20
614.8968
30
0.0
11
411.50214
21
319.83215
31
0.0
0
LINE
8
0
10
411.50214
20
319.83215
30
0.0
11
766.6443
21
348.1598
31
0.0
0
LINE
8
0
10
766.6443
20
348.1598
30
0.0
11
520.3268
21
525.54504
31
0.0
0
LINE
8
0
10
520.3268
20
525.54504
30
0.0
11
582.5437
21
274.52264
31
0.0
0
LINE
8
0
10
582.5437
20
274.52264
30
0.0
11
680.5141
21
471.88684
31
0.0
0
LINE
8
0
10
680.5141
20
471.88684
30
0.0
11
508.06732
21
397.68884
31
0.0
0
LINE
8
0
10
508.06732
20
397.68884
30
0.0
11
660.99365
21
350.8196
31
0.0
0
LINE
8
0
10
660.99365
20
350.8196
30
0.0
11
587.4911
21
465.5729
31
0.0
0
LINE
8
0
10
587.4911
20
465.5729
30
0.0
11
571.976
21
350.5077
31
0.0
0
LINE
8
0
10
571.976
20
350.5077
30
0.0
11
645.4891
21
416.70093
31
0.0
0
LINE
8
0
10
645.4891
20
416.70093
30
0.0
11
561.24316
21
414.22882
31
0.0
0
LINE
8
0
10
561.24316
20
414.22882
30
0.0
11
617.3322
21
369.3906
31
0.0
0
LINE
8
0
10
617.3322
20
369.3906
30
0.0
11
605.61566
21
429.439
31
0.0
0
LINE
8
0
10
605.61566
20
429.439
30
0.0
11
580.12256
21
383.9723
31
0.0
0
LINE
8
0
10
580.12256
20
383.9723
30
0.0
11
621.74835
21
399.4533
31
0.0
0
LINE
8
0
10
621.74835
20
399.4533
30
0.0
11
586.17365
21
412.34485
31
0.0
0
LINE
8
0
10
586.17365
20
412.34485
30
0.0
11
602.176
21
384.35843
31
0.0
0
LINE
8
0
10
602.176
20
384.35843
30
0.0
11
607.20953
21
411.36038
31
0.0
0
LINE
8
0
10
607.20953
20
411.36038
30
0.0
11
589.0538
21
396.59488
31
0.0
0
LINE
8
0
10
589.0538
20
396.59488
30
0.0
11
608.9879
21
396.1774
31
0.0
0
LINE
8
0
10
608.9879
20
396.1774
30
0.0
11
596.26886
21
407.4381
31
0.0
0
LINE
8
0
10
596.26886
20
407.4381
30
0.0
11
598.3232
21
393.11124
31
0.0
0
LINE
8
0
10
598.3232
20
393.11124
30
0.0
11
604.88696
21
403.55054
31
0.0
0
LINE
8
0
10
604.88696
20
403.55054
30
0.0
11
594.86804
21
400.38773
31
0.0
0
LINE
8
0
10
594.86804
20
400.38773
30
0.0
11
603.12
21
396.9189
31
0.0
0
LINE
8
0
10
603.12
20
396.9189
30
0.0
11
599.6718
21
403.7215
31
0.0
0
LINE
8
0
10
599.6718
20
403.7215
30
0.0
11
598.16156
21
397.4016
31
0.0
0
LINE
8
0
10
598.16156
20
397.4016
30
0.0
11
602.6267
21
400.6744
31
0.0
0
LINE
8
0
10
276.0375
20
468.86032
30
0.0
11
772.4842
21
176.67041
31
0.0
0
LINE
8
0
10
772.4842
20
176.67041
30
0.0
11
611.07385
21
640.16425
31
0.0
0
LINE
8
0
10
611.07385
20
640.16425
30
0.0
11
460.40576
21
250.0941
31
0.0
0
LINE
8
0
10
460.40576
20
250.0941
30
0.0
11
773.32245
21
420.42188
31
0.0
0
LINE
8
0
10
773.32245
20
420.42188
30
0.0
11
476.15115
21
482.2852
31
0.0
0
LINE
8
0
10
476.15115
20
482.2852
30
0.0
11
635.0893
21
278.27066
31
0.0
0
LINE
8
0
10
635.0893
20
278.27066
30
0.0
11
644.31433
21
498.41992
31
0.0
0
LINE
8
0
10
644.31433
20
498.41992
30
0.0
11
516.9553
21
360.4963
31
0.0
0
LINE
8
0
10
516.9553
20
360.4963
30
0.0
11
675.72394
21
379.8798
31
0.0
0
LINE
8
0
10
675.72394
20
379.8798
30
0.0
11
561.9016
21
454.816
31
0.0
0
LINE
8
0
10
561.9016
20
454.816
30
0.0
11
594.52924
21
343.38815
31
0.0
0
LINE
8
0
10
594.52924
20
343.38815
30
0.0
11
634.7635
21
433.75912
31
0.0
0
LINE
8
0
10
634.7635
20
433.75912
30
0.0
11
558.8065
21
397.23477
31
0.0
0
LINE
8
0
10
558.8065
20
397.23477
30
0.0
11
628.28375
21
379.08658
31
0.0
0
LINE
8
0
10
628.28375
20
379.08658
30
0.0
11
593.1563
21
429.17798
31
0.0
0
LINE
8
0
10
593.1563
20
429.17798
30
0.0
11
588.36005
21
377.2731
31
0.0
0
LINE
8
0
10
588.36005
20
377.2731
30
0.0
11
620.09045
21
408.34644
31
0.0
0
LINE
8
0
10
620.09045
20
408.34644
30
0.0
11
582.3479
21
405.65387
31
0.0
0
LINE
8
0
10
582.3479
20
405.65387
30
0.0
11
608.34985
21
386.59576
31
0.0
0
LINE
8
0
10
608.34985
20
386.59576
30
0.0
11
601.9656
21
413.3106
31
0.0
0
LINE
8
0
10
601.9656
20
413.3106
30
0.0
11
591.38513
21
392.437
31
0.0
0
LINE
8
0
10
591.38513
20
392.437
30
0.0
11
609.7656
21
400.1636
31
0.0
0
LINE
8
0
10
609.7656
20
400.1636
30
0.0
11
593.56604
21
405.27747
31
0.0
0
LINE
8
0
10
593.56604
20
405.27747
30
0.0
11
601.2701
21
393.02478
31
0.0
0
LINE
8
0
10
601.2701
20
393.02478
30
0.0
11
603.0204
21
405.2313
31
0.0
0
LINE
8
0
10
603.0204
20
405.2313
30
0.0
11
595.154
21
398.26685
31
0.0
0
LINE
8
0
10
595.154
20
398.26685
30
0.0
11
604.10345
21
398.45428
31
0.0
0
LINE
8
0
10
604.10345
20
398.45428
30
0.0
11
598.1865
21
403.26627
31
0.0
0
LINE
8
0
10
598.1865
20
403.26627
30
0.0
11
599.3773
21
396.87848
31
0.0
0
LINE
8
0
10
599.3773
20
396.87848
30
0.0
11
602.12537
21
401.68448
31
0.0
0
LINE
8
0
10
276.0375
20
331.13962
30
0.0
11
848.4085
21
266.1339
31
0.0
0
LINE
8
0
10
848.4085
20
266.1339
30
0.0
11
512.43286
21
623.9051
31
0.0
0
LINE
8
0
10
512.43286
20
623.9051
30
0.0
11
533.44666
21
206.27602
31
0.0
0
LINE
8
0
10
533.44666
20
206.27602
30
0.0
11
750.03156
21
489.15295
31
0.0
0
LINE
8
0
10
750.03156
20
489.15295
30
0.0
11
453.39005
21
424.7973
31
0.0
0
LINE
8
0
10
453.39005
20
424.7973
30
0.0
11
681.5674
21
303.06677
31
0.0
0
LINE
8
0
10
681.5674
20
303.06677
30
0.0
11
600.452
21
507.93536
31
0.0
0
LINE
8
0
10
600.452
20
507.93536
30
0.0
11
540.2025
21
330.13428
31
0.0
0
LINE
8
0
10
540.2025
20
330.13428
30
0.0
11
677.3609
21
412.4191
31
0.0
0
LINE
8
0
10
677.3609
20
412.4191
30
0.0
11
542.8998
21
434.58096
31
0.0
0
LINE
8
0
10
542.8998
20
434.58096
30
0.0
11
618.02826
21
346.0573
31
0.0
0
LINE
8
0
10
618.02826
20
346.0573
30
0.0
11
618.02686
21
444.9801
31
0.0
0
LINE
8
0
10
618.02686
20
444.9801
30
0.0
11
563.49255
21
380.71902
31
0.0
0
LINE
8
0
10
563.49255
20
380.71902
30
0.0
11
634.3447
21
392.39874
31
0.0
0
LINE
8
0
10
634.3447
20
392.39874
30
0.0
11
581.8802
21
423.8718
31
0.0
0
LINE
8
0
10
581.8802
20
423.8718
30
0.0
11
598.6103
21
374.50354
31
0.0
0
LINE
8
0
10
598.6103
20
374.50354
30
0.0
11
614.9588
21
415.79636
31
0.0
0
LINE
8
0
10
614.9588
20
415.79636
30
0.0
11
581.5744
21
397.9853
31
0.0
0
LINE
8
0
10
581.5744
20
397.9853
30
0.0
11
613.07996
21
391.15082
31
0.0
0
LINE
8
0
10
613.07996
20
391.15082
30
0.0
11
596.3817
21
412.95932
31
0.0
0
LINE
8
0
10
596.3817
20
412.95932
30
0.0
11
595.20605
21
389.5869
31
0.0
0
LINE
8
0
10
595.20605
20
389.5869
30
0.0
11
608.8548
21
404.12146
31
0.0
0
LINE
8
0
10
608.8548
20
404.12146
30
0.0
11
591.97577
21
402.20425
31
0.0
0
LINE
8
0
10
591.97577
20
402.20425
30
0.0
11
603.9974
21
394.1444
31
0.0
0
LINE
8
0
10
603.9974
20
394.1444
30
0.0
11
600.6315
21
406.0075
31
0.0
0
LINE
8
0
10
600.6315
20
406.0075
30
0.0
11
596.2779
21
396.44565
31
0.0
0
LINE
8
0
10
596.2779
20
396.44565
30
0.0
11
604.3774
21
400.25693
31
0.0
0
LINE
8
0
10
604.3774
20
400.25693
30
0.0
11
597.01483
21
402.24628
31
0.0
0
LINE
8
0
10
597.01483
20
402.24628
30
0.0
11
600.70087
21
396.8951
31
0.0
0
LINE
8
0
10
600.70087
20
396.8951
30
0.0
11
601.2564
21
402.40332
31
0.0
0
LINE
8
0
10
332.05353
20
205.32556
30
0.0
11
881.3807
21
378.74408
31
0.0
0
LINE
8
0
10
881.3807
20
378.74408
30
0.0
11
428.9331
21
568.9308
31
0.0
0
LINE
8
0
10
428.9331
20
568.9308
30
0.0
11
617.99506
21
195.95464
31
0.0
0
LINE
8
0
10
617.99506
20
195.95464
30
0.0
11
700.79895
21
542.46857
31
0.0
0
LINE
8
0
10
700.79895
20
542.46857
30
0.0
11
455.97916
21
363.0219
31
0.0
0
LINE
8
0
10
455.97916
20
363.0219
30
0.0
11
713.9418
21
344.6235
31
0.0
0
LINE
8
0
10
713.9418
20
344.6235
30
0.0
11
556.5117
21
498.78772
31
0.0
0
LINE
8
0
10
556.5117
20
498.78772
30
0.0
11
573.7892
21
311.85266
31
0.0
0
LINE
8
0
10
573.7892
20
311.85266
30
0.0
11
665.6214
21
442.81088
31
0.0
0
LINE
8
0
10
665.6214
20
442.81088
30
0.0
11
533.771
21
408.36655
31
0.0
0
LINE
8
0
10
533.771
20
408.36655
30
0.0
11
638.4101
21
358.05365
31
0.0
0
LINE
8
0
10
638.4101
20
358.05365
30
0.0
11
598.17346
21
448.42355
31
0.0
0
LINE
8
0
10
598.17346
20
448.42355
30
0.0
11
574.4911
21
367.537
31
0.0
0
LINE
8
0
10
574.4911
20
367.537
30
0.0
11
634.4672
21
407.0251
31
0.0
0
LINE
8
0
10
634.4672
20
407.0251
30
0.0
11
573.7372
21
414.43796
31
0.0
0
LINE
8
0
10
573.7372
20
414.43796
30
0.0
11
609.10077
21
376.1426
31
0.0
0
LINE
8
0
10
609.10077
20
376.1426
30
0.0
11
607.24054
21
420.51498
31
0.0
0
LINE
8
0
10
607.24054
20
420.51498
30
0.0
11
583.98676
21
390.66513
31
0.0
0
LINE
8
0
10
583.98676
20
390.66513
30
0.0
11
615.5484
21
397.23596
31
0.0
0
LINE
8
0
10
615.5484
20
397.23596
30
0.0
11
591.4235
21
410.36722
31
0.0
0
LINE
8
0
10
591.4235
20
410.36722
30
0.0
11
599.8559
21
388.5373
31
0.0
0
LINE
8
0
10
599.8559
20
388.5373
30
0.0
11
606.4129
21
407.36673
31
0.0
0
LINE
8
0
10
606.4129
20
407.36673
30
0.0
11
591.77295
21
398.74997
31
0.0
0
LINE
8
0
10
591.77295
20
398.74997
30
0.0
11
606.03345
21
396.27652
31
0.0
0
LINE
8
0
10
606.03345
20
396.27652
30
0.0
11
598.1334
21
405.74496
31
0.0
0
LINE
8
0
10
598.1334
20
405.74496
30
0.0
11
598.04535
21
395.23904
31
0.0
0
LINE
8
0
10
598.04535
20
395.23904
30
0.0
11
603.8944
21
402.01517
31
0.0
0
LINE
8
0
10
603.8944
20
402.01517
30
0.0
11
596.35925
21
400.8379
31
0.0
0
LINE
8
0
10
596.35925
20
400.8379
30
0.0
11
601.90314
21
397.44858
31
0.0
0
LINE
8
0
10
601.90314
20
397.44858
30
0.0
11
600.1703
21
402.70657
31
0.0
0
LINE
8
0
10
434.40002
20
113.17236
30
0.0
11
865.6996
21
495.0296
31
0.0
0
LINE
8
0
10
865.6996
20
495.0296
30
0.0
11
375.01227
21
484.7467
31
0.0
0
LINE
8
0
10
375.01227
20
484.7467
30
0.0
11
699.4321
21
220.91458
31
0.0
0
LINE
8
0
10
699.4321
20
220.91458
30
0.0
11
634.13715
21
571.15015
31
0.0
0
LINE
8
0
10
634.13715
20
571.15015
30
0.0
11
483.4707
21
307.64032
31
0.0
0
LINE
8
0
10
483.4707
20
307.64032
30
0.0
11
726.6147
21
395.75528
31
0.0
0
LINE
8
0
10
726.6147
20
395.75528
30
0.0
11
520.09094
21
472.55884
31
0.0
0
LINE
8
0
10
520.09094
20
472.55884
30
0.0
11
611.9081
21
308.81253
31
0.0
0
LINE
8
0
10
611.9081
20
308.81253
30
0.0
11
642.5354
21
465.8003
31
0.0
0
LINE
8
0
10
642.5354
20
465.8003
30
0.0
11
536.0938
21
380.70535
31
0.0
0
LINE
8
0
10
536.0938
20
380.70535
30
0.0
11
652.15045
21
377.3029
31
0.0
0
LINE
8
0
10
652.15045
20
377.3029
30
0.0
11
578.6357
21
443.49417
31
0.0
0
LINE
8
0
10
578.6357
20
443.49417
30
0.0
11
589.9004
21
359.96814
31
0.0
0
LINE
8
0
10
589.9004
20
359.96814
30
0.0
11
628.63
21
420.43686
31
0.0
0
LINE
8
0
10
628.63
20
420.43686
30
0.0
11
570.13525
21
402.50772
31
0.0
0
LINE
8
0
10
570.13525
20
402.50772
30
0.0
11
618.01764
21
381.90677
31
0.0
0
LINE
8
0
10
618.01764
20
381.90677
30
0.0
11
598.2703
21
421.68634
31
0.0
0
LINE
8
0
10
598.2703
20
421.68634
30
0.0
11
589.168
21
384.959
31
0.0
0
LINE
8
0
10
589.168
20
384.959
30
0.0
11
615.3284
21
403.79904
31
0.0
0
LINE
8
0
10
615.3284
20
403.79904
30
0.0
11
587.94824
21
405.9826
31
0.0
0
LINE
8
0
10
587.94824
20
405.9826
30
0.0
11
604.53064
21
389.46967
31
0.0
0
LINE
8
0
10
604.53064
20
389.46967
30
0.0
11
602.8622
21
409.33823
31
0.0
0
LINE
8
0
10
602.8622
20
409.33823
30
0.0
11
592.9927
21
395.51178
31
0.0
0
LINE
8
0
10
592.9927
20
395.51178
30
0.0
11
607.0263
21
399.05246
31
0.0
0
LINE
8
0
10
607.0263
20
399.05246
30
0.0
11
595.95807
21
404.48907
31
0.0
0
LINE
8
0
10
595.95807
20
404.48907
30
0.0
11
600.1508
21
394.85562
31
0.0
0
LINE
8
0
10
600.1508
20
394.85562
30
0.0
11
602.7381
21
403.42496
31
0.0
0
LINE
8
0
10
602.7381
20
403.42496
30
0.0
11
596.3332
21
399.2846
31
0.0
0
LINE
8
0
10
596.3332
20
399.2846
30
0.0
11
602.77637
21
398.44324
31
0.0
0
LINE
8
0
10
602.77637
20
398.44324
30
0.0
11
599.0547
21
402.54184
31
0.0
0
LINE
8
0
10
565.3802
20
70.61432
30
0.0
11
804.07666
21
594.88367
31
0.0
0
LINE
8
0
10
804.07666
20
594.88367
30
0.0
11
359.9939
21
385.9093
31
0.0
0
LINE
8
0
10
359.9939
20
385.9093
30
0.0
11
763.6763
21
276.8399
31
0.0
0
LINE
8
0
10
763.6763
20
276.8399
30
0.0
11
561.5729
21
570.2383
31
0.0
0
LINE
8
0
10
561.5729
20
570.2383
30
0.0
11
531.11145
21
268.2284
31
0.0
0
LINE
8
0
10
531.11145
20
268.2284
30
0.0
11
717.39465
21
447.62125
31
0.0
0
LINE
8
0
10
717.39465
20
447.62125
30
0.0
11
497.48712
21
433.7839
31
0.0
0
LINE
8
0
10
497.48712
20
433.7839
30
0.0
11
647.96783
21
321.53952
31
0.0
0
LINE
8
0
10
647.96783
20
321.53952
30
0.0
11
612.09467
21
477.41226
31
0.0
0
LINE
8
0
10
612.09467
20
477.41226
30
0.0
11
549.4666
21
356.38052
31
0.0
0
LINE
8
0
10
549.4666
20
356.38052
30
0.0
11
656.8736
21
400.47662
31
0.0
0
LINE
8
0
10
656.8736
20
400.47662
30
0.0
11
562.792
21
431.0442
31
0.0
0
LINE
8
0
10
562.792
20
431.0442
30
0.0
11
607.0559
21
359.3212
31
0.0
0
LINE
8
0
10
607.0559
20
359.3212
30
0.0
11
617.84235
21
430.31488
31
0.0
0
LINE
8
0
10
617.84235
20
430.31488
30
0.0
11
571.69727
21
390.1438
31
0.0
0
LINE
8
0
10
571.69727
20
390.1438
30
0.0
11
623.8191
21
390.79947
31
0.0
0
LINE
8
0
10
623.8191
20
390.79947
30
0.0
11
589.5993
21
419.10797
31
0.0
0
LINE
8
0
10
589.5993
20
419.10797
30
0.0
11
596.2222
21
381.85364
31
0.0
0
LINE
8
0
10
596.2222
20
381.85364
30
0.0
11
612.458
21
409.70526
31
0.0
0
LINE
8
0
10
612.458
20
409.70526
30
0.0
11
586.5568
21
400.56348
31
0.0
0
LINE
8
0
10
586.5568
20
400.56348
30
0.0
11
608.42206
21
392.22287
31
0.0
0
LINE
8
0
10
608.42206
20
392.22287
30
0.0
11
598.8165
21
409.69504
31
0.0
0
LINE
8
0
10
598.8165
20
409.69504
30
0.0
11
595.424
21
393.04965
31
0.0
0
LINE
8
0
10
595.424
20
393.04965
30
0.0
11
606.80426
21
401.99222
31
0.0
0
LINE
8
0
10
606.80426
20
401.99222
30
0.0
11
594.4816
21
402.45697
31
0.0
0
LINE
8
0
10
594.4816
20
402.45697
30
0.0
11
602.2302
21
395.36172
31
0.0
0
LINE
8
0
10
602.2302
20
395.36172
30
0.0
11
601.10834
21
404.24252
31
0.0
0
LINE
8
0
10
601.10834
20
404.24252
30
0.0
11
596.94116
21
397.85504
31
0.0
0
LINE
8
0
10
596.94116
20
397.85504
30
0.0
11
603.1695
21
399.7071
31
0.0
0
LINE
8
0
10
603.1695
20
399.7071
30
0.0
11
598.1026
21
401.9376
31
0.0
0
LINE
8
0
10
702.3465
20
85.01007
30
0.0
11
707.167
21
661.0405
31
0.0
0
LINE
8
0
10
707.167
20
661.0405
30
0.0
11
386.47473
21
289.50812
31
0.0
0
LINE
8
0
10
386.47473
20
289.50812
30
0.0
11
799.61945
21
354.0609
31
0.0
0
LINE
8
0
10
799.61945
20
354.0609
30
0.0
11
495.65283
21
539.8906
31
0.0
0
LINE
8
0
10
495.65283
20
539.8906
30
0.0
11
590.66345
21
251.60118
31
0.0
0
LINE
8
0
10
590.66345
20
251.60118
30
0.0
11
687.8761
21
491.25287
31
0.0
0
LINE
8
0
10
687.8761
20
491.25287
30
0.0
11
492.60867
21
389.16742
31
0.0
0
LINE
8
0
10
492.60867
20
389.16742
30
0.0
11
675.7335
21
347.83304
31
0.0
0
LINE
8
0
10
675.7335
20
347.83304
30
0.0
11
579.5625
21
475.63895
31
0.0
0
LINE
8
0
10
579.5625
20
475.63895
30
0.0
11
571.5771
21
339.59787
31
0.0
0
LINE
8
0
10
571.5771
20
339.59787
30
0.0
11
651.7627
21
423.56805
31
0.0
0
LINE
8
0
10
651.7627
20
423.56805
30
0.0
11
553.382
21
413.2265
31
0.0
0
LINE
8
0
10
553.382
20
413.2265
30
0.0
11
622.99146
21
365.70798
31
0.0
0
LINE
8
0
10
622.99146
20
365.70798
30
0.0
11
603.96967
21
434.95114
31
0.0
0
LINE
8
0
10
603.96967
20
434.95114
30
0.0
11
578.15295
21
379.4842
31
0.0
0
LINE
8
0
10
578.15295
20
379.4842
30
0.0
11
625.502
21
401.28305
31
0.0
0
LINE
8
0
10
625.502
20
401.28305
30
0.0
11
582.72656
21
413.22565
31
0.0
0
LINE
8
0
10
582.72656
20
413.22565
30
0.0
11
603.9296
21
381.8859
31
0.0
0
LINE
8
0
10
603.9296
20
381.8859
30
0.0
11
607.4335
21
413.9333
31
0.0
0
LINE
8
0
10
607.4335
20
413.9333
30
0.0
11
587.48987
21
395.04697
31
0.0
0
LINE
8
0
10
587.48987
20
395.04697
30
0.0
11
610.8572
21
396.3208
31
0.0
0
LINE
8
0
10
610.8572
20
396.3208
30
0.0
11
594.9755
21
408.3755
31
0.0
0
LINE
8
0
10
594.9755
20
408.3755
30
0.0
11
598.64655
21
391.7893
31
0.0
0
LINE
8
0
10
598.64655
20
391.7893
30
0.0
11
605.4057
21
404.58752
31
0.0
0
LINE
8
0
10
605.4057
20
404.58752
30
0.0
11
593.9594
21
400.00006
31
0.0
0
LINE
8
0
10
593.9594
20
400.00006
30
0.0
11
603.92395
21
396.6698
31
0.0
0
LINE
8
0
10
603.92395
20
396.6698
30
0.0
11
599.28687
21
404.3265
31
0.0
0
LINE
8
0
10
599.28687
20
404.3265
30
0.0
11
598.07806
21
396.79636
31
0.0
0
LINE
8
0
10
598.07806
20
396.79636
30
0.0
11
603.01465
21
401.02155
31
0.0
0
LINE
8
0
10
603.01465
20
401.02155
30
0.0
11
597.4785
21
400.99832
31
0.0
0
LINE
8
0
10
821.6161
20
153.87045
30
0.0
11
591.7272
21
682.0611
31
0.0
0
LINE
8
0
10
591.7272
20
682.0611
30
0.0
11
449.87598
21
212.21216
31
0.0
0
LINE
8
0
10
449.87598
20
212.21216
30
0.0
11
801.0466
21
439.225
31
0.0
0
LINE
8
0
10
801.0466
20
439.225
30
0.0
11
447.7755
21
485.35474
31
0.0
0
LINE
8
0
10
447.7755
20
485.35474
30
0.0
11
651.82983
21
260.63336
31
0.0
0
LINE
8
0
10
651.82983
20
260.63336
30
0.0
11
643.16296
21
519.106
31
0.0
0
LINE
8
0
10
643.16296
20
519.106
30
0.0
11
506.29922
21
346.42383
31
0.0
0
LINE
8
0
10
506.29922
20
346.42383
30
0.0
11
690.40424
21
383.14667
31
0.0
0
LINE
8
0
10
690.40424
20
383.14667
30
0.0
11
550.56433
21
460.78696
31
0.0
0
LINE
8
0
10
550.56433
20
460.78696
30
0.0
11
598.6021
21
333.25928
31
0.0
0
LINE
8
0
10
598.6021
20
333.25928
30
0.0
11
637.7016
21
442.5843
31
0.0
0
LINE
8
0
10
637.7016
20
442.5843
30
0.0
11
552.03265
21
393.1217
31
0.0
0
LINE
8
0
10
552.03265
20
393.1217
30
0.0
11
634.9516
21
378.0242
31
0.0
0
LINE
8
0
10
634.9516
20
378.0242
30
0.0
11
589.4105
21
433.54407
31
0.0
0
LINE
8
0
10
589.4105
20
433.54407
30
0.0
11
588.3863
21
372.3719
31
0.0
0
LINE
8
0
10
588.3863
20
372.3719
30
0.0
11
622.77545
21
411.54468
31
0.0
0
LINE
8
0
10
622.77545
20
411.54468
30
0.0
11
578.8406
21
405.05652
31
0.0
0
LINE
8
0
10
578.8406
20
405.05652
30
0.0
11
610.9576
21
385.0503
31
0.0
0
LINE
8
0
10
610.9576
20
385.0503
30
0.0
11
601.1236
21
415.75217
31
0.0
0
LINE
8
0
10
601.1236
20
415.75217
30
0.0
11
590.58606
21
390.38684
31
0.0
0
LINE
8
0
10
590.58606
20
390.38684
30
0.0
11
611.415
21
401.05484
31
0.0
0
LINE
8
0
10
611.415
20
401.05484
30
0.0
11
592.0033
21
405.60773
31
0.0
0
LINE
8
0
10
592.0033
20
405.60773
30
0.0
11
602.10315
21
391.94867
31
0.0
0
LINE
8
0
10
602.10315
20
391.94867
30
0.0
11
603.07245
21
406.3896
31
0.0
0
LINE
8
0
10
603.07245
20
406.3896
30
0.0
11
594.4816
21
397.5431
31
0.0
0
LINE
8
0
10
594.4816
20
397.5431
30
0.0
11
604.9392
21
398.55377
31
0.0
0
LINE
8
0
10
604.9392
20
398.55377
30
0.0
11
597.5888
21
403.66245
31
0.0
0
LINE
8
0
10
597.5888
20
403.66245
30
0.0
11
599.54724
21
396.2916
31
0.0
0
LINE
8
0
10
599.54724
20
396.2916
30
0.0
11
602.3385
21
402.1594
31
0.0
0
LINE
8
0
10
602.3385
20
402.1594
30
0.0
11
597.29047
21
399.88644
31
0.0
0
LINE
8
0
10
902.5663
20
265.28888
30
0.0
11
477.7178
21
654.3108
31
0.0
0
LINE
8
0
10
477.7178
20
654.3108
30
0.0
11
539.23517
21
167.3863
31
0.0
0
LINE
8
0
10
539.23517
20
167.3863
30
0.0
11
767.7109
21
517.60693
31
0.0
0
LINE
8
0
10
767.7109
20
517.60693
30
0.0
11
426.21912
21
416.06006
31
0.0
0
LINE
8
0
10
426.21912
20
416.06006
30
0.0
11
704.03455
21
293.7635
31
0.0
0
LINE
8
0
10
704.03455
20
293.7635
30
0.0
11
590.98615
21
526.36475
31
0.0
0
LINE
8
0
10
590.98615
20
526.36475
30
0.0
11
536.1916
21
312.9441
31
0.0
0
LINE
8
0
10
536.1916
20
312.9441
30
0.0
11
689.4432
21
421.37473
31
0.0
0
LINE
8
0
10
689.4432
20
421.37473
30
0.0
11
530.11395
21
435.42426
31
0.0
0
LINE
8
0
10
530.11395
20
435.42426
30
0.0
11
625.8691
21
338.46082
31
0.0
0
LINE
8
0
10
625.8691
20
338.46082
30
0.0
11
617.12146
21
454.23734
31
0.0
0
LINE
8
0
10
617.12146
20
454.23734
30
0.0
11
558.97736
21
374.20624
31
0.0
0
LINE
8
0
10
558.97736
20
374.20624
30
0.0
11
640.8682
21
394.1401
31
0.0
0
LINE
8
0
10
640.8682
20
394.1401
30
0.0
11
576.6825
21
426.33694
31
0.0
0
LINE
8
0
10
576.6825
20
426.33694
30
0.0
11
600.6278
21
370.03674
31
0.0
0
LINE
8
0
10
600.6278
20
370.03674
30
0.0
11
616.1107
21
419.8102
31
0.0
0
LINE
8
0
10
616.1107
20
419.8102
30
0.0
11
578.6132
21
396.01303
31
0.0
0
LINE
8
0
10
578.6132
20
396.01303
30
0.0
11
616.0908
21
390.79956
31
0.0
0
LINE
8
0
10
616.0908
20
390.79956
30
0.0
11
594.6195
21
414.84735
31
0.0
0
LINE
8
0
10
594.6195
20
414.84735
30
0.0
11
595.30994
21
387.38892
31
0.0
0
LINE
8
0
10
595.30994
20
387.38892
30
0.0
11
609.999
21
405.60657
31
0.0
0
LINE
8
0
10
609.999
20
405.60657
30
0.0
11
590.41376
21
401.8704
31
0.0
0
LINE
8
0
10
590.41376
20
401.8704
30
0.0
11
605.1961
21
393.50018
31
0.0
0
LINE
8
0
10
605.1961
20
393.50018
30
0.0
11
600.2079
21
407.08685
31
0.0
0
LINE
8
0
10
600.2079
20
407.08685
30
0.0
11
595.958
21
395.511
31
0.0
0
LINE
8
0
10
595.958
20
395.511
30
0.0
11
605.10046
21
400.68774
31
0.0
0
LINE
8
0
10
605.10046
20
400.68774
30
0.0
11
596.3076
21
402.36508
31
0.0
0
LINE
8
0
10
596.3076
20
402.36508
30
0.0
11
601.0947
21
396.42807
31
0.0
0
LINE
8
0
10
601.0947
20
396.42807
30
0.0
11
601.25806
21
402.92386
31
0.0
0
LINE
8
0
10
601.25806
20
402.92386
30
0.0
11
597.57086
21
398.7942
31
0.0
0
ENDSEC
0
EOF
