0
SECTION
2
ENTITIES
0
LINE
8
0
10
988.00964
20
515.37585
30
0.0
11
627.2174
21
793.1724
31
0.0
0
LINE
8
0
10
627.2174
20
793.1724
30
0.0
11
250.7843
21
558.9994
31
0.0
0
LINE
8
0
10
250.7843
20
558.9994
30
0.0
11
335.83997
21
135.83975
31
0.0
0
LINE
8
0
10
335.83997
20
135.83975
30
0.0
11
750.71533
21
68.979614
31
0.0
0
LINE
8
0
10
750.71533
20
68.979614
30
0.0
11
953.2688
21
424.4554
31
0.0
0
LINE
8
0
10
953.2688
20
424.4554
30
0.0
11
698.2645
21
730.4655
31
0.0
0
LINE
8
0
10
698.2645
20
730.4655
30
0.0
11
332.20905
21
602.3814
31
0.0
0
LINE
8
0
10
332.20905
20
602.3814
30
0.0
11
324.07184
21
224.8902
31
0.0
0
LINE
8
0
10
324.07184
20
224.8902
30
0.0
11
665.50073
21
88.64032
31
0.0
0
LINE
8
0
10
665.50073
20
88.64032
30
0.0
11
906.25964
21
353.46414
31
0.0
0
LINE
8
0
10
906.25964
20
353.46414
30
0.0
11
746.9531
21
663.3733
31
0.0
0
LINE
8
0
10
746.9531
20
663.3733
30
0.0
11
410.00195
21
623.87976
31
0.0
0
LINE
8
0
10
410.00195
20
623.87976
30
0.0
11
331.01822
21
303.16095
31
0.0
0
LINE
8
0
10
331.01822
20
303.16095
30
0.0
11
596.50244
21
121.68643
31
0.0
0
LINE
8
0
10
596.50244
20
121.68643
30
0.0
11
852.5796
21
301.8278
31
0.0
0
LINE
8
0
10
852.5796
20
301.8278
30
0.0
11
775.71643
21
596.804
31
0.0
0
LINE
8
0
10
775.71643
20
596.804
30
0.0
11
480.51746
21
627.3878
31
0.0
0
LINE
8
0
10
480.51746
20
627.3878
30
0.0
11
351.88507
21
368.6559
31
0.0
0
LINE
8
0
10
351.88507
20
368.6559
30
0.0
11
543.90344
21
163.06554
31
0.0
0
LINE
8
0
10
543.90344
20
163.06554
30
0.0
11
796.8981
21
267.9886
31
0.0
0
LINE
8
0
10
796.8981
20
267.9886
30
0.0
11
787.56885
21
534.4835
31
0.0
0
LINE
8
0
10
787.56885
20
534.4835
30
0.0
11
541.3882
21
616.9265
31
0.0
0
LINE
8
0
10
541.3882
20
616.9265
30
0.0
11
382.19788
21
420.58878
31
0.0
0
LINE
8
0
10
382.19788
20
420.58878
30
0.0
11
506.89496
21
208.42918
31
0.0
0
LINE
8
0
10
506.89496
20
208.42918
30
0.0
11
742.90405
21
249.72508
31
0.0
0
LINE
8
0
10
742.90405
20
249.72508
30
0.0
11
785.7948
21
479.01752
31
0.0
0
LINE
8
0
10
785.7948
20
479.01752
30
0.0
11
591.3581
21
596.3795
31
0.0
0
LINE
8
0
10
591.3581
20
596.3795
30
0.0
11
417.987
21
459.14062
31
0.0
0
LINE
8
0
10
417.987
20
459.14062
30
0.0
11
483.95654
21
254.2196
31
0.0
0
LINE
8
0
10
483.95654
20
254.2196
30
0.0
11
693.32275
21
244.43668
31
0.0
0
LINE
8
0
10
693.32275
20
244.43668
30
0.0
11
773.6958
21
432.00323
31
0.0
0
LINE
8
0
10
773.6958
20
432.00323
30
0.0
11
630.0977
21
569.3022
31
0.0
0
LINE
8
0
10
630.0977
20
569.3022
30
0.0
11
455.89752
21
485.22287
31
0.0
0
LINE
8
0
10
455.89752
20
485.22287
30
0.0
11
473.11224
21
297.68872
31
0.0
0
LINE
8
0
10
473.11224
20
297.68872
30
0.0
11
649.9856
21
249.38373
31
0.0
0
LINE
8
0
10
649.9856
20
249.38373
30
0.0
11
754.3948
21
394.1757
31
0.0
0
LINE
8
0
10
754.3948
20
394.1757
30
0.0
11
658.00275
21
538.7933
31
0.0
0
LINE
8
0
10
658.00275
20
538.7933
30
0.0
11
493.24008
21
500.2558
31
0.0
0
LINE
8
0
10
493.24008
20
500.2558
30
0.0
11
472.14917
21
336.86905
31
0.0
0
LINE
8
0
10
472.14917
20
336.86905
30
0.0
11
613.93134
21
261.87708
31
0.0
0
LINE
8
0
10
613.93134
20
261.87708
30
0.0
11
730.6984
21
365.5642
31
0.0
0
LINE
8
0
10
730.6984
20
365.5642
30
0.0
11
676.0043
21
507.42178
31
0.0
0
LINE
8
0
10
676.0043
20
507.42178
30
0.0
11
527.98895
21
505.96356
31
0.0
0
LINE
8
0
10
527.98895
20
505.96356
30
0.0
11
478.80383
21
370.50186
31
0.0
0
LINE
8
0
10
478.80383
20
370.50186
30
0.0
11
585.5352
21
279.42316
31
0.0
0
LINE
8
0
10
585.5352
20
279.42316
30
0.0
11
705.0086
21
345.66046
31
0.0
0
LINE
8
0
10
705.0086
20
345.66046
30
0.0
11
685.38556
21
477.2044
31
0.0
0
LINE
8
0
10
685.38556
20
477.2044
30
0.0
11
558.7436
21
504.20505
31
0.0
0
LINE
8
0
10
558.7436
20
504.20505
30
0.0
11
490.90323
21
397.94455
31
0.0
0
LINE
8
0
10
490.90323
20
397.94455
30
0.0
11
564.6416
21
299.82138
31
0.0
0
LINE
8
0
10
564.6416
20
299.82138
30
0.0
11
679.2782
21
333.57025
31
0.0
0
LINE
8
0
10
679.2782
20
333.57025
30
0.0
11
687.6284
21
449.61664
31
0.0
0
LINE
8
0
10
687.6284
20
449.61664
30
0.0
11
584.66425
21
496.83496
31
0.0
0
LINE
8
0
10
584.66425
20
496.83496
30
0.0
11
506.46967
21
419.06436
31
0.0
0
LINE
8
0
10
506.46967
20
419.06436
30
0.0
11
550.69653
21
321.22302
31
0.0
0
LINE
8
0
10
550.69653
20
321.22302
30
0.0
11
655.00446
21
328.1588
31
0.0
0
LINE
8
0
10
655.00446
20
328.1588
30
0.0
11
684.27856
21
425.6364
31
0.0
0
LINE
8
0
10
684.27856
20
425.6364
30
0.0
11
605.3867
21
485.59647
31
0.0
0
LINE
8
0
10
605.3867
20
485.59647
30
0.0
11
523.7891
21
434.12363
31
0.0
0
LINE
8
0
10
523.7891
20
434.12363
30
0.0
11
542.8759
21
342.1548
31
0.0
0
LINE
8
0
10
542.8759
20
342.1548
30
0.0
11
633.2493
21
328.1714
31
0.0
0
LINE
8
0
10
633.2493
20
328.1714
30
0.0
11
676.84247
21
405.80386
31
0.0
0
LINE
8
0
10
676.84247
20
405.80386
30
0.0
11
620.93274
21
472.0476
31
0.0
0
LINE
8
0
10
620.93274
20
472.0476
30
0.0
11
541.44916
21
443.67548
31
0.0
0
LINE
8
0
10
541.44916
20
443.67548
30
0.0
11
540.19336
21
361.5175
31
0.0
0
LINE
8
0
10
540.19336
20
361.5175
30
0.0
11
614.67847
21
332.33347
31
0.0
0
LINE
8
0
10
614.67847
20
332.33347
30
0.0
11
666.7095
21
390.2909
31
0.0
0
LINE
8
0
10
666.7095
20
390.2909
30
0.0
11
631.6197
21
457.51382
31
0.0
0
LINE
8
0
10
631.6197
20
457.51382
30
0.0
11
558.34863
21
448.46
31
0.0
0
LINE
8
0
10
558.34863
20
448.46
30
0.0
11
541.5982
21
378.55972
31
0.0
0
LINE
8
0
10
541.5982
20
378.55972
30
0.0
11
599.61835
21
339.43063
31
0.0
0
LINE
8
0
10
599.61835
20
339.43063
30
0.0
11
655.0984
21
378.98083
31
0.0
0
LINE
8
0
10
655.0984
20
378.98083
30
0.0
11
637.96985
21
443.06665
31
0.0
0
LINE
8
0
10
637.96985
20
443.06665
30
0.0
11
573.68915
21
449.31964
31
0.0
0
LINE
8
0
10
573.68915
20
449.31964
30
0.0
11
546.04974
21
392.84094
31
0.0
0
LINE
8
0
10
546.04974
20
392.84094
30
0.0
11
588.116
21
348.36346
31
0.0
0
LINE
8
0
10
588.116
20
348.36346
30
0.0
11
643.0277
21
371.54132
31
0.0
0
LINE
8
0
10
643.0277
20
371.54132
30
0.0
11
640.63385
21
429.5213
31
0.0
0
LINE
8
0
10
640.63385
20
429.5213
30
0.0
11
586.9493
21
447.126
31
0.0
0
LINE
8
0
10
586.9493
20
447.126
30
0.0
11
552.5754
21
404.18326
31
0.0
0
LINE
8
0
10
552.5754
20
404.18326
30
0.0
11
580.0005
21
358.18472
31
0.0
0
LINE
8
0
10
580.0005
20
358.18472
30
0.0
11
631.30273
21
367.4932
31
0.0
0
LINE
8
0
10
631.30273
20
367.4932
30
0.0
11
640.32355
21
417.4487
31
0.0
0
LINE
8
0
10
640.32355
20
417.4487
30
0.0
11
597.8515
21
442.7229
31
0.0
0
LINE
8
0
10
597.8515
20
442.7229
30
0.0
11
560.311
21
412.62146
31
0.0
0
LINE
8
0
10
560.311
20
412.62146
30
0.0
11
574.94635
21
368.118
31
0.0
0
LINE
8
0
10
574.94635
20
368.118
30
0.0
11
620.52045
21
366.27475
31
0.0
0
LINE
8
0
10
620.52045
20
366.27475
30
0.0
11
637.75476
21
407.20126
31
0.0
0
LINE
8
0
10
637.75476
20
407.20126
30
0.0
11
606.31866
21
436.8834
31
0.0
0
LINE
8
0
10
606.31866
20
436.8834
30
0.0
11
568.52527
21
418.34912
31
0.0
0
LINE
8
0
10
568.52527
20
418.34912
30
0.0
11
572.5271
21
377.56274
31
0.0
0
LINE
8
0
10
572.5271
20
377.56274
30
0.0
11
611.0829
21
367.2921
31
0.0
0
LINE
8
0
10
611.0829
20
367.2921
30
0.0
11
633.6062
21
398.94305
31
0.0
0
LINE
8
0
10
633.6062
20
398.94305
30
0.0
11
612.4329
21
430.28226
31
0.0
0
LINE
8
0
10
612.4329
20
430.28226
30
0.0
11
576.631
21
421.6714
31
0.0
0
LINE
8
0
10
576.631
20
421.6714
30
0.0
11
572.2641
21
386.0876
31
0.0
0
LINE
8
0
10
572.2641
20
386.0876
30
0.0
11
603.22
21
369.96167
31
0.0
0
LINE
8
0
10
603.22
20
369.96167
30
0.0
11
628.4886
21
392.68454
31
0.0
0
LINE
8
0
10
628.4886
20
392.68454
30
0.0
11
616.39307
21
423.47998
31
0.0
0
LINE
8
0
10
616.39307
20
423.47998
30
0.0
11
584.185
21
422.96085
31
0.0
0
LINE
8
0
10
584.185
20
422.96085
30
0.0
11
573.66644
21
393.4154
31
0.0
0
LINE
8
0
10
573.66644
20
393.4154
30
0.0
11
597.01685
21
373.7412
31
0.0
0
LINE
8
0
10
597.01685
20
373.7412
30
0.0
11
622.92535
21
388.31827
31
0.0
0
LINE
8
0
10
622.92535
20
388.31827
30
0.0
11
618.47565
21
416.91714
31
0.0
0
LINE
8
0
10
618.47565
20
416.91714
30
0.0
11
590.87994
21
422.62006
31
0.0
0
LINE
8
0
10
590.87994
20
422.62006
30
0.0
11
576.26196
21
399.40405
31
0.0
0
LINE
8
0
10
576.26196
20
399.40405
30
0.0
11
592.4422
21
378.1516
31
0.0
0
LINE
8
0
10
592.4422
20
378.1516
30
0.0
11
617.34247
21
385.65207
31
0.0
0
LINE
8
0
10
617.34247
20
385.65207
30
0.0
11
619.00134
21
410.91675
31
0.0
0
LINE
8
0
10
619.00134
20
410.91675
30
0.0
11
596.5308
21
421.05164
31
0.0
0
LINE
8
0
10
596.5308
20
421.05164
30
0.0
11
579.6206
21
404.02106
31
0.0
0
LINE
8
0
10
579.6206
20
404.02106
30
0.0
11
589.3783
21
382.78995
31
0.0
0
LINE
8
0
10
589.3783
20
382.78995
30
0.0
11
612.0677
21
384.44147
31
0.0
0
LINE
8
0
10
612.0677
20
384.44147
30
0.0
11
618.30505
21
405.69394
31
0.0
0
LINE
8
0
10
618.30505
20
405.69394
30
0.0
11
601.0554
21
418.63425
31
0.0
0
LINE
8
0
10
601.0554
20
418.63425
30
0.0
11
583.369
21
407.32178
31
0.0
0
LINE
8
0
10
583.369
20
407.32178
30
0.0
11
587.6479
21
387.33432
31
0.0
0
LINE
8
0
10
587.6479
20
387.33432
30
0.0
11
607.3335
21
384.41455
31
0.0
0
LINE
8
0
10
607.3335
20
384.41455
30
0.0
11
616.714
21
401.36795
31
0.0
0
LINE
8
0
10
616.714
20
401.36795
30
0.0
11
604.4567
21
415.7071
31
0.0
0
LINE
8
0
10
604.4567
20
415.7071
30
0.0
11
587.1988
21
409.42416
31
0.0
0
LINE
8
0
10
587.1988
20
409.42416
30
0.0
11
587.0381
21
391.54373
31
0.0
0
LINE
8
0
10
587.0381
20
391.54373
30
0.0
11
603.2871
21
385.29504
31
0.0
0
LINE
8
0
10
603.2871
20
385.29504
30
0.0
11
614.53015
21
397.97885
31
0.0
0
LINE
8
0
10
614.53015
20
397.97885
30
0.0
11
606.8017
21
412.55923
31
0.0
0
LINE
8
0
10
606.8017
20
412.55923
30
0.0
11
590.8694
21
410.48813
31
0.0
0
LINE
8
0
10
590.8694
20
410.48813
30
0.0
11
587.3206
21
395.25378
31
0.0
0
LINE
8
0
10
587.3206
20
395.25378
30
0.0
11
600.0006
21
386.81882
31
0.0
0
LINE
8
0
10
600.0006
20
386.81882
30
0.0
11
612.01917
21
395.50214
31
0.0
0
LINE
8
0
10
612.01917
20
395.50214
30
0.0
11
608.20294
21
409.42453
31
0.0
0
LINE
8
0
10
608.20294
20
409.42453
30
0.0
11
594.20593
21
410.696
31
0.0
0
LINE
8
0
10
594.20593
20
410.696
30
0.0
11
588.2697
21
398.36707
31
0.0
0
LINE
8
0
10
588.2697
20
398.36707
30
0.0
11
597.4857
21
388.7467
31
0.0
0
LINE
8
0
10
597.4857
20
388.7467
30
0.0
11
609.403
21
393.86694
31
0.0
0
LINE
8
0
10
609.403
20
393.86694
30
0.0
11
608.8013
21
406.48087
31
0.0
0
LINE
8
0
10
608.8013
20
406.48087
30
0.0
11
597.09424
21
410.237
31
0.0
0
LINE
8
0
10
597.09424
20
410.237
30
0.0
11
589.67395
21
400.84406
31
0.0
0
LINE
8
0
10
589.67395
20
400.84406
30
0.0
11
595.70636
21
390.8725
31
0.0
0
LINE
8
0
10
595.70636
20
390.8725
30
0.0
11
606.8574
21
392.96997
31
0.0
0
LINE
8
0
10
606.8574
20
392.96997
30
0.0
11
608.7504
21
403.8536
31
0.0
0
LINE
8
0
10
608.7504
20
403.8536
30
0.0
11
599.4725
21
409.294
31
0.0
0
LINE
8
0
10
599.4725
20
409.294
30
0.0
11
591.3454
21
402.6908
31
0.0
0
LINE
8
0
10
591.3454
20
402.6908
30
0.0
11
594.593
21
393.02673
31
0.0
0
LINE
8
0
10
594.593
20
393.02673
30
0.0
11
604.5131
21
392.68994
31
0.0
0
LINE
8
0
10
610.1727
20
804.67224
30
0.0
11
234.48148
21
547.38226
31
0.0
0
LINE
8
0
10
234.48148
20
547.38226
30
0.0
11
340.869
21
117.00964
31
0.0
0
LINE
8
0
10
340.869
20
117.00964
30
0.0
11
769.6015
21
67.138916
31
0.0
0
LINE
8
0
10
769.6015
20
67.138916
30
0.0
11
961.3927
21
441.0479
31
0.0
0
LINE
8
0
10
961.3927
20
441.0479
30
0.0
11
685.9076
21
743.53577
31
0.0
0
LINE
8
0
10
685.9076
20
743.53577
30
0.0
11
316.074
21
595.5745
31
0.0
0
LINE
8
0
10
316.074
20
595.5745
30
0.0
11
324.7718
21
207.85509
31
0.0
0
LINE
8
0
10
324.7718
20
207.85509
30
0.0
11
681.2727
21
83.46478
31
0.0
0
LINE
8
0
10
681.2727
20
83.46478
30
0.0
11
916.36145
21
366.07904
31
0.0
0
LINE
8
0
10
916.36145
20
366.07904
30
0.0
11
738.8981
21
676.88965
31
0.0
0
LINE
8
0
10
738.8981
20
676.88965
30
0.0
11
394.9284
21
621.1478
31
0.0
0
LINE
8
0
10
394.9284
20
621.1478
30
0.0
11
328.36493
21
288.48413
31
0.0
0
LINE
8
0
10
328.36493
20
288.48413
30
0.0
11
608.9796
21
114.25821
31
0.0
0
LINE
8
0
10
608.9796
20
114.25821
30
0.0
11
863.61096
21
310.66968
31
0.0
0
LINE
8
0
10
863.61096
20
310.66968
30
0.0
11
771.419
21
609.8803
31
0.0
0
LINE
8
0
10
771.419
20
609.8803
30
0.0
11
467.12793
21
627.93225
31
0.0
0
LINE
8
0
10
467.12793
20
627.93225
30
0.0
11
346.8191
21
356.63287
31
0.0
0
LINE
8
0
10
346.8191
20
356.63287
30
0.0
11
553.13745
21
154.343
31
0.0
0
LINE
8
0
10
553.13745
20
154.343
30
0.0
11
808.0031
21
273.43192
31
0.0
0
LINE
8
0
10
808.0031
20
273.43192
30
0.0
11
786.3954
21
546.46716
31
0.0
0
LINE
8
0
10
786.3954
20
546.46716
30
0.0
11
530.0608
21
619.94635
31
0.0
0
LINE
8
0
10
530.0608
20
619.94635
30
0.0
11
375.57855
21
411.29117
31
0.0
0
LINE
8
0
10
375.57855
20
411.29117
30
0.0
11
513.1137
21
199.22046
31
0.0
0
LINE
8
0
10
513.1137
20
199.22046
30
0.0
11
753.4231
21
252.2527
31
0.0
0
LINE
8
0
10
753.4231
20
252.2527
30
0.0
11
787.08
21
489.4717
31
0.0
0
LINE
8
0
10
787.08
20
489.4717
30
0.0
11
582.2643
21
601.11914
31
0.0
0
LINE
8
0
10
582.2643
20
601.11914
30
0.0
11
410.5617
21
452.46628
31
0.0
0
LINE
8
0
10
410.5617
20
452.46628
30
0.0
11
487.5083
21
245.17119
31
0.0
0
LINE
8
0
10
487.5083
20
245.17119
30
0.0
11
702.7861
21
244.58755
31
0.0
0
LINE
8
0
10
702.7861
20
244.58755
30
0.0
11
776.78784
21
440.6836
31
0.0
0
LINE
8
0
10
776.78784
20
440.6836
30
0.0
11
623.238
21
575.08405
31
0.0
0
LINE
8
0
10
623.238
20
575.08405
30
0.0
11
448.2847
21
480.94177
31
0.0
0
LINE
8
0
10
448.2847
20
480.94177
30
0.0
11
474.41776
21
289.28613
31
0.0
0
LINE
8
0
10
474.41776
20
289.28613
30
0.0
11
658.09283
21
247.70647
31
0.0
0
LINE
8
0
10
658.09283
20
247.70647
30
0.0
11
758.691
21
400.99625
31
0.0
0
LINE
8
0
10
758.691
20
400.99625
30
0.0
11
653.2498
21
545.0384
31
0.0
0
LINE
8
0
10
653.2498
20
545.0384
30
0.0
11
485.92352
21
498.05328
31
0.0
0
LINE
8
0
10
485.92352
20
498.05328
30
0.0
11
471.66046
21
329.44598
31
0.0
0
LINE
8
0
10
471.66046
20
329.44598
30
0.0
11
620.5331
21
258.8981
31
0.0
0
LINE
8
0
10
620.5331
20
258.8981
30
0.0
11
735.6677
21
370.5672
31
0.0
0
LINE
8
0
10
735.6677
20
370.5672
30
0.0
11
673.13837
21
513.6604
31
0.0
0
LINE
8
0
10
673.13837
20
513.6604
30
0.0
11
521.3224
21
505.47946
31
0.0
0
LINE
8
0
10
521.3224
20
505.47946
30
0.0
11
476.97006
21
364.2579
31
0.0
0
LINE
8
0
10
476.97006
20
364.2579
30
0.0
11
590.6028
21
275.62015
31
0.0
0
LINE
8
0
10
590.6028
20
275.62015
30
0.0
11
710.20557
21
348.9829
31
0.0
0
LINE
8
0
10
710.20557
20
348.9829
30
0.0
11
684.1297
21
483.07697
31
0.0
0
LINE
8
0
10
684.1297
20
483.07697
30
0.0
11
552.9598
21
505.06393
31
0.0
0
LINE
8
0
10
552.9598
20
505.06393
30
0.0
11
488.14618
21
392.96387
31
0.0
0
LINE
8
0
10
488.14618
20
392.96387
30
0.0
11
568.2421
21
295.6076
31
0.0
0
LINE
8
0
10
568.2421
20
295.6076
30
0.0
11
684.34924
21
335.41528
31
0.0
0
LINE
8
0
10
684.34924
20
335.41528
30
0.0
11
687.6767
21
454.87018
31
0.0
0
LINE
8
0
10
687.6767
20
454.87018
30
0.0
11
579.8904
21
498.67194
31
0.0
0
LINE
8
0
10
579.8904
20
498.67194
30
0.0
11
503.16547
21
415.3384
31
0.0
0
LINE
8
0
10
503.16547
20
415.3384
30
0.0
11
552.9663
21
316.93857
31
0.0
0
LINE
8
0
10
552.9663
20
316.93857
30
0.0
11
659.6858
21
328.76624
31
0.0
0
LINE
8
0
10
659.6858
20
328.76624
30
0.0
11
685.3223
21
430.11224
31
0.0
0
LINE
8
0
10
685.3223
20
430.11224
30
0.0
11
601.6618
21
488.07574
31
0.0
0
LINE
8
0
10
601.6618
20
488.07574
30
0.0
11
520.25726
21
431.5732
31
0.0
0
LINE
8
0
10
520.25726
20
431.5732
30
0.0
11
543.9961
21
338.0639
31
0.0
0
LINE
8
0
10
543.9961
20
338.0639
30
0.0
11
637.3618
21
327.79666
31
0.0
0
LINE
8
0
10
637.3618
20
327.79666
30
0.0
11
678.58765
21
409.4258
31
0.0
0
LINE
8
0
10
678.58765
20
409.4258
30
0.0
11
618.22577
21
474.87503
31
0.0
0
LINE
8
0
10
618.22577
20
474.87503
30
0.0
11
537.9472
21
442.17212
31
0.0
0
LINE
8
0
10
537.9472
20
442.17212
30
0.0
11
540.36896
21
357.81128
31
0.0
0
LINE
8
0
10
540.36896
20
357.81128
30
0.0
11
618.1178
21
331.22876
31
0.0
0
LINE
8
0
10
618.1178
20
331.22876
30
0.0
11
668.89056
21
393.04996
31
0.0
0
LINE
8
0
10
668.89056
20
393.04996
30
0.0
11
629.84827
21
460.4442
31
0.0
0
LINE
8
0
10
629.84827
20
460.4442
30
0.0
11
555.0721
21
447.84485
31
0.0
0
LINE
8
0
10
555.0721
20
447.84485
30
0.0
11
541.04083
21
375.36215
31
0.0
0
LINE
8
0
10
541.04083
20
375.36215
30
0.0
11
602.3438
21
337.83118
31
0.0
0
LINE
8
0
10
602.3438
20
337.83118
30
0.0
11
657.48694
21
380.9201
31
0.0
0
LINE
8
0
10
657.48694
20
380.9201
30
0.0
11
637.0167
21
445.90643
31
0.0
0
LINE
8
0
10
637.0167
20
445.90643
30
0.0
11
570.7745
21
449.41977
31
0.0
0
LINE
8
0
10
570.7745
20
449.41977
30
0.0
11
544.96375
21
390.21747
31
0.0
0
LINE
8
0
10
544.96375
20
390.21747
30
0.0
11
590.13715
21
346.47797
31
0.0
0
LINE
8
0
10
590.13715
20
346.47797
30
0.0
11
645.4367
21
372.74075
31
0.0
0
LINE
8
0
10
645.4367
20
372.74075
30
0.0
11
640.3623
21
432.12726
31
0.0
0
LINE
8
0
10
640.3623
20
432.12726
30
0.0
11
584.4801
21
447.76767
31
0.0
0
LINE
8
0
10
584.4801
20
447.76767
30
0.0
11
551.1476
21
402.15076
31
0.0
0
LINE
8
0
10
551.1476
20
402.15076
30
0.0
11
581.3665
21
356.1892
31
0.0
0
LINE
8
0
10
581.3665
20
356.1892
30
0.0
11
633.5885
21
368.05774
31
0.0
0
LINE
8
0
10
633.5885
20
368.05774
30
0.0
11
640.58887
21
419.72556
31
0.0
0
LINE
8
0
10
640.58887
20
419.72556
30
0.0
11
595.86597
21
443.74188
31
0.0
0
LINE
8
0
10
595.86597
20
443.74188
30
0.0
11
558.70416
21
411.15875
31
0.0
0
LINE
8
0
10
558.70416
20
411.15875
30
0.0
11
575.7317
21
366.15372
31
0.0
0
LINE
8
0
10
575.7317
20
366.15372
30
0.0
11
622.5796
21
366.3205
31
0.0
0
LINE
8
0
10
622.5796
20
366.3205
30
0.0
11
638.4158
21
409.09445
31
0.0
0
LINE
8
0
10
638.4158
20
409.09445
30
0.0
11
604.81805
21
438.13223
31
0.0
0
LINE
8
0
10
604.81805
20
438.13223
30
0.0
11
566.8744
21
417.40698
31
0.0
0
LINE
8
0
10
566.8744
20
417.40698
30
0.0
11
572.82275
21
375.73593
31
0.0
0
LINE
8
0
10
572.82275
20
375.73593
30
0.0
11
612.8495
21
366.93823
31
0.0
0
LINE
8
0
10
612.8495
20
366.93823
30
0.0
11
634.53186
21
400.43317
31
0.0
0
LINE
8
0
10
634.53186
20
400.43317
30
0.0
11
611.3901
21
431.6348
31
0.0
0
LINE
8
0
10
611.3901
20
431.6348
30
0.0
11
575.0418
21
421.18213
31
0.0
0
LINE
8
0
10
575.0418
20
421.18213
30
0.0
11
572.16785
21
384.47156
31
0.0
0
LINE
8
0
10
572.16785
20
384.47156
30
0.0
11
604.66064
21
369.32242
31
0.0
0
LINE
8
0
10
604.66064
20
369.32242
30
0.0
11
629.5632
21
393.78003
31
0.0
0
LINE
8
0
10
629.5632
20
393.78003
30
0.0
11
615.76086
21
424.83368
31
0.0
0
LINE
8
0
10
615.76086
20
424.83368
30
0.0
11
582.7349
21
422.8464
31
0.0
0
LINE
8
0
10
582.7349
20
422.8464
30
0.0
11
573.2758
21
392.05432
31
0.0
0
LINE
8
0
10
573.2758
20
392.05432
30
0.0
11
598.12463
21
372.92053
31
0.0
0
LINE
8
0
10
598.12463
20
372.92053
30
0.0
11
624.0517
21
389.04828
31
0.0
0
LINE
8
0
10
624.0517
20
389.04828
30
0.0
11
618.1943
21
418.19345
31
0.0
0
LINE
8
0
10
618.1943
20
418.19345
30
0.0
11
589.6201
21
422.79907
31
0.0
0
LINE
8
0
10
589.6201
20
422.79907
30
0.0
11
575.66876
21
398.31625
31
0.0
0
LINE
8
0
10
575.66876
20
398.31625
30
0.0
11
593.2313
21
377.23962
31
0.0
0
LINE
8
0
10
593.2313
20
377.23962
30
0.0
11
618.4436
21
386.0606
31
0.0
0
LINE
8
0
10
618.4436
20
386.0606
30
0.0
11
619.0048
21
412.0599
31
0.0
0
LINE
8
0
10
619.0048
20
412.0599
30
0.0
11
595.48926
21
421.44482
31
0.0
0
LINE
8
0
10
595.48926
20
421.44482
30
0.0
11
578.9067
21
403.2059
31
0.0
0
LINE
8
0
10
578.9067
20
403.2059
30
0.0
11
589.8782
21
381.8606
31
0.0
0
LINE
8
0
10
589.8782
20
381.8606
30
0.0
11
613.08545
21
384.57996
31
0.0
0
LINE
8
0
10
613.08545
20
384.57996
30
0.0
11
618.5261
21
406.66922
31
0.0
0
LINE
8
0
10
618.5261
20
406.66922
30
0.0
11
600.24164
21
419.16867
31
0.0
0
LINE
8
0
10
600.24164
20
419.16867
30
0.0
11
582.60394
21
406.7621
31
0.0
0
LINE
8
0
10
582.60394
20
406.7621
30
0.0
11
587.89734
21
386.44553
31
0.0
0
LINE
8
0
10
587.89734
20
386.44553
30
0.0
11
608.229
21
384.33865
31
0.0
0
LINE
8
0
10
608.229
20
384.33865
30
0.0
11
617.0888
21
402.15866
31
0.0
0
LINE
8
0
10
617.0888
20
402.15866
30
0.0
11
603.86365
21
416.31873
31
0.0
0
LINE
8
0
10
603.86365
20
416.31873
30
0.0
11
586.4387
21
409.09213
31
0.0
0
LINE
8
0
10
586.4387
20
409.09213
30
0.0
11
587.0814
21
390.73737
31
0.0
0
LINE
8
0
10
587.0814
20
390.73737
30
0.0
11
604.0372
21
385.0594
31
0.0
0
LINE
8
0
10
604.0372
20
385.0594
30
0.0
11
615.00104
21
398.58237
31
0.0
0
LINE
8
0
10
615.00104
20
398.58237
30
0.0
11
606.4121
21
413.19455
31
0.0
0
LINE
8
0
10
606.4121
20
413.19455
30
0.0
11
590.1571
21
410.34967
31
0.0
0
LINE
8
0
10
590.1571
20
410.34967
30
0.0
11
587.20374
21
394.55707
31
0.0
0
LINE
8
0
10
587.20374
20
394.55707
30
0.0
11
600.596
21
386.47452
31
0.0
0
LINE
8
0
10
600.596
20
386.47452
30
0.0
11
612.5363
21
395.92755
31
0.0
0
LINE
8
0
10
612.5363
20
395.92755
30
0.0
11
607.9915
21
410.04123
31
0.0
0
LINE
8
0
10
607.9915
20
410.04123
30
0.0
11
593.5714
21
410.7137
31
0.0
0
LINE
8
0
10
593.5714
20
410.7137
30
0.0
11
588.03705
21
397.79456
31
0.0
0
LINE
8
0
10
588.03705
20
397.79456
30
0.0
11
597.92834
21
388.33917
31
0.0
0
LINE
8
0
10
597.92834
20
388.33917
30
0.0
11
609.92566
21
394.13147
31
0.0
0
LINE
8
0
10
609.92566
20
394.13147
30
0.0
11
608.73846
21
407.0477
31
0.0
0
LINE
8
0
10
608.73846
20
407.0477
30
0.0
11
596.5559
21
410.37317
31
0.0
0
LINE
8
0
10
596.5559
20
410.37317
30
0.0
11
589.3661
21
400.3997
31
0.0
0
LINE
8
0
10
589.3661
20
400.3997
30
0.0
11
596.0065
21
390.44012
31
0.0
0
LINE
8
0
10
596.0065
20
390.44012
30
0.0
11
607.35406
21
393.09607
31
0.0
0
LINE
8
0
10
607.35406
20
393.09607
30
0.0
11
608.80493
21
404.34952
31
0.0
0
LINE
8
0
10
608.80493
20
404.34952
30
0.0
11
599.0389
21
409.51297
31
0.0
0
LINE
8
0
10
599.0389
20
409.51297
30
0.0
11
590.9978
21
402.37015
31
0.0
0
LINE
8
0
10
590.9978
20
402.37015
30
0.0
11
594.7667
21
392.60034
31
0.0
0
LINE
8
0
10
594.7667
20
392.60034
30
0.0
11
604.96124
21
392.70285
31
0.0
0
LINE
8
0
10
604.96124
20
392.70285
30
0.0
11
608.34686
21
402.03345
31
0.0
0
LINE
8
0
10
218.27737
20
534.72534
30
0.0
11
346.8797
21
97.914856
31
0.0
0
LINE
8
0
10
346.8797
20
97.914856
30
0.0
11
789.06396
21
66.102936
31
0.0
0
LINE
8
0
10
789.06396
20
66.102936
30
0.0
11
968.97943
21
458.4409
31
0.0
0
LINE
8
0
10
968.97943
20
458.4409
30
0.0
11
672.6376
21
756.3894
31
0.0
0
LINE
8
0
10
672.6376
20
756.3894
30
0.0
11
299.82486
21
587.8612
31
0.0
0
LINE
8
0
10
299.82486
20
587.8612
30
0.0
11
326.2595
21
190.40631
31
0.0
0
LINE
8
0
10
326.2595
20
190.40631
30
0.0
11
697.6907
21
78.866425
31
0.0
0
LINE
8
0
10
697.6907
20
78.866425
30
0.0
11
926.1575
21
379.48
31
0.0
0
LINE
8
0
10
926.1575
20
379.48
30
0.0
11
730.022
21
690.3954
31
0.0
0
LINE
8
0
10
730.022
20
690.3954
30
0.0
11
379.58405
21
617.6634
31
0.0
0
LINE
8
0
10
379.58405
20
617.6634
30
0.0
11
326.3054
21
273.30362
31
0.0
0
LINE
8
0
10
326.3054
20
273.30362
30
0.0
11
622.11816
21
107.19943
31
0.0
0
LINE
8
0
10
622.11816
20
107.19943
30
0.0
11
874.5313
21
320.2407
31
0.0
0
LINE
8
0
10
874.5313
20
320.2407
30
0.0
11
766.4188
21
623.1041
31
0.0
0
LINE
8
0
10
766.4188
20
623.1041
30
0.0
11
453.36322
21
627.8856
31
0.0
0
LINE
8
0
10
453.36322
20
627.8856
30
0.0
11
342.16388
21
344.06595
31
0.0
0
LINE
8
0
10
342.16388
20
344.06595
30
0.0
11
563.0075
21
145.80943
31
0.0
0
LINE
8
0
10
563.0075
20
145.80943
30
0.0
11
819.15247
21
279.51898
31
0.0
0
LINE
8
0
10
819.15247
20
279.51898
30
0.0
11
784.6501
21
558.71075
31
0.0
0
LINE
8
0
10
784.6501
20
558.71075
30
0.0
11
518.30115
21
622.53345
31
0.0
0
LINE
8
0
10
518.30115
20
622.53345
30
0.0
11
369.2062
21
401.45093
31
0.0
0
LINE
8
0
10
369.2062
20
401.45093
30
0.0
11
519.9115
21
190.05167
31
0.0
0
LINE
8
0
10
519.9115
20
190.05167
30
0.0
11
764.10345
21
255.322
31
0.0
0
LINE
8
0
10
764.10345
20
255.322
30
0.0
11
787.92633
21
500.25775
31
0.0
0
LINE
8
0
10
787.92633
20
500.25775
30
0.0
11
572.71814
21
605.5719
31
0.0
0
LINE
8
0
10
572.71814
20
605.5719
30
0.0
11
403.24365
21
445.2815
31
0.0
0
LINE
8
0
10
403.24365
20
445.2815
30
0.0
11
491.56204
21
236.04637
31
0.0
0
LINE
8
0
10
491.56204
20
236.04637
30
0.0
11
712.48975
21
245.16978
31
0.0
0
LINE
8
0
10
712.48975
20
245.16978
30
0.0
11
779.5686
21
449.73038
31
0.0
0
LINE
8
0
10
779.5686
20
449.73038
30
0.0
11
615.9379
21
580.70715
31
0.0
0
LINE
8
0
10
615.9379
20
580.70715
30
0.0
11
440.66608
21
476.2045
31
0.0
0
LINE
8
0
10
440.66608
20
476.2045
30
0.0
11
476.13724
21
280.7225
31
0.0
0
LINE
8
0
10
476.13724
20
280.7225
30
0.0
11
666.48816
21
246.35175
31
0.0
0
LINE
8
0
10
666.48816
20
246.35175
30
0.0
11
762.79144
21
408.1884
31
0.0
0
LINE
8
0
10
762.79144
20
408.1884
30
0.0
11
648.09125
21
551.2318
31
0.0
0
LINE
8
0
10
648.09125
20
551.2318
30
0.0
11
478.51532
21
495.46283
31
0.0
0
LINE
8
0
10
478.51532
20
495.46283
30
0.0
11
471.49426
21
321.80692
31
0.0
0
LINE
8
0
10
471.49426
20
321.80692
30
0.0
11
627.44183
21
256.13947
31
0.0
0
LINE
8
0
10
627.44183
20
256.13947
30
0.0
11
740.54095
21
375.92532
31
0.0
0
LINE
8
0
10
740.54095
20
375.92532
30
0.0
11
669.91583
21
519.9325
31
0.0
0
LINE
8
0
10
669.91583
20
519.9325
30
0.0
11
514.5035
21
504.68164
31
0.0
0
LINE
8
0
10
514.5035
20
504.68164
30
0.0
11
475.3704
21
357.768
31
0.0
0
LINE
8
0
10
475.3704
20
357.768
30
0.0
11
595.9745
21
271.94666
31
0.0
0
LINE
8
0
10
595.9745
20
271.94666
30
0.0
11
715.38837
21
352.62726
31
0.0
0
LINE
8
0
10
715.38837
20
352.62726
30
0.0
11
682.57544
21
489.04657
31
0.0
0
LINE
8
0
10
682.57544
20
489.04657
30
0.0
11
546.9866
21
505.68427
31
0.0
0
LINE
8
0
10
546.9866
20
505.68427
30
0.0
11
485.542
21
387.72903
31
0.0
0
LINE
8
0
10
485.542
20
387.72903
30
0.0
11
572.12665
21
291.44653
31
0.0
0
LINE
8
0
10
572.12665
20
291.44653
30
0.0
11
689.46936
21
337.5375
31
0.0
0
LINE
8
0
10
689.46936
20
337.5375
30
0.0
11
687.489
21
460.26312
31
0.0
0
LINE
8
0
10
687.489
20
460.26312
30
0.0
11
574.9089
21
500.3413
31
0.0
0
LINE
8
0
10
574.9089
20
500.3413
30
0.0
11
499.94318
21
411.36588
31
0.0
0
LINE
8
0
10
499.94318
20
411.36588
30
0.0
11
555.48883
21
312.64468
31
0.0
0
LINE
8
0
10
555.48883
20
312.64468
30
0.0
11
664.4619
21
329.60092
31
0.0
0
LINE
8
0
10
664.4619
20
329.60092
30
0.0
11
686.1912
21
434.75214
31
0.0
0
LINE
8
0
10
686.1912
20
434.75214
30
0.0
11
597.72754
21
490.45154
31
0.0
0
LINE
8
0
10
597.72754
20
490.45154
30
0.0
11
516.7483
21
428.79666
31
0.0
0
LINE
8
0
10
516.7483
20
428.79666
30
0.0
11
545.33026
21
333.91675
31
0.0
0
LINE
8
0
10
545.33026
20
333.91675
30
0.0
11
641.5986
21
327.59784
31
0.0
0
LINE
8
0
10
641.5986
20
327.59784
30
0.0
11
680.2149
21
413.22116
31
0.0
0
LINE
8
0
10
680.2149
20
413.22116
30
0.0
11
615.32043
21
477.65405
31
0.0
0
LINE
8
0
10
615.32043
20
477.65405
30
0.0
11
534.4217
21
440.47137
31
0.0
0
LINE
8
0
10
534.4217
20
440.47137
30
0.0
11
540.71655
21
354.01617
31
0.0
0
LINE
8
0
10
540.71655
20
354.01617
30
0.0
11
621.6969
21
330.2505
31
0.0
0
LINE
8
0
10
621.6969
20
330.2505
30
0.0
11
671.004
21
395.9796
31
0.0
0
LINE
8
0
10
671.004
20
395.9796
30
0.0
11
627.8982
21
463.3712
31
0.0
0
LINE
8
0
10
627.8982
20
463.3712
30
0.0
11
551.73773
21
447.06564
31
0.0
0
LINE
8
0
10
551.73773
20
447.06564
30
0.0
11
540.6134
21
372.05585
31
0.0
0
LINE
8
0
10
540.6134
20
372.05585
30
0.0
11
605.21265
21
336.31302
31
0.0
0
LINE
8
0
10
605.21265
20
336.31302
30
0.0
11
659.85034
21
383.01788
31
0.0
0
LINE
8
0
10
659.85034
20
383.01788
30
0.0
11
635.9105
21
448.77734
31
0.0
0
LINE
8
0
10
635.9105
20
448.77734
30
0.0
11
567.7792
21
449.39087
31
0.0
0
LINE
8
0
10
567.7792
20
449.39087
30
0.0
11
543.96783
21
387.47638
31
0.0
0
LINE
8
0
10
543.96783
20
387.47638
30
0.0
11
592.29663
21
344.63443
31
0.0
0
LINE
8
0
10
592.29663
20
344.63443
30
0.0
11
647.8547
21
374.08066
31
0.0
0
LINE
8
0
10
647.8547
20
374.08066
30
0.0
11
639.96576
21
434.7893
31
0.0
0
LINE
8
0
10
639.96576
20
434.7893
30
0.0
11
581.9178
21
448.31473
31
0.0
0
LINE
8
0
10
581.9178
20
448.31473
30
0.0
11
549.77435
21
400.00107
31
0.0
0
LINE
8
0
10
549.77435
20
400.00107
30
0.0
11
582.85834
21
354.20322
31
0.0
0
LINE
8
0
10
582.85834
20
354.20322
30
0.0
11
635.9085
21
368.74023
31
0.0
0
LINE
8
0
10
635.9085
20
368.74023
30
0.0
11
640.7583
21
422.0739
31
0.0
0
LINE
8
0
10
640.7583
20
422.0739
30
0.0
11
593.78253
21
444.69785
31
0.0
0
LINE
8
0
10
593.78253
20
444.69785
30
0.0
11
557.12146
21
409.58524
31
0.0
0
LINE
8
0
10
557.12146
20
409.58524
30
0.0
11
576.62634
21
364.17358
31
0.0
0
LINE
8
0
10
576.62634
20
364.17358
30
0.0
11
624.6904
21
366.46042
31
0.0
0
LINE
8
0
10
624.6904
20
366.46042
30
0.0
11
639.0086
21
411.06693
31
0.0
0
LINE
8
0
10
639.0086
20
411.06693
30
0.0
11
603.2218
21
439.34595
31
0.0
0
LINE
8
0
10
603.2218
20
439.34595
30
0.0
11
565.22296
21
416.3657
31
0.0
0
LINE
8
0
10
565.22296
20
416.3657
30
0.0
11
573.2086
21
373.87473
31
0.0
0
LINE
8
0
10
573.2086
20
373.87473
30
0.0
11
614.6783
21
366.65488
31
0.0
0
LINE
8
0
10
614.6783
20
366.65488
30
0.0
11
635.4143
21
402.00397
31
0.0
0
LINE
8
0
10
635.4143
20
402.00397
30
0.0
11
610.259
21
432.9756
31
0.0
0
LINE
8
0
10
610.259
20
432.9756
30
0.0
11
573.4332
21
420.6083
31
0.0
0
LINE
8
0
10
573.4332
20
420.6083
30
0.0
11
572.1421
21
382.809
31
0.0
0
LINE
8
0
10
572.1421
20
382.809
30
0.0
11
606.16785
21
368.73154
31
0.0
0
LINE
8
0
10
606.16785
20
368.73154
30
0.0
11
630.61633
21
394.95267
31
0.0
0
LINE
8
0
10
630.61633
20
394.95267
30
0.0
11
615.0511
21
426.19415
31
0.0
0
LINE
8
0
10
615.0511
20
426.19415
30
0.0
11
581.25214
21
422.6635
31
0.0
0
LINE
8
0
10
581.25214
20
422.6635
30
0.0
11
572.9366
21
390.63986
31
0.0
0
LINE
8
0
10
572.9366
20
390.63986
30
0.0
11
599.2986
21
372.12848
31
0.0
0
LINE
8
0
10
599.2986
20
372.12848
30
0.0
11
625.17456
21
389.84842
31
0.0
0
LINE
8
0
10
625.17456
20
389.84842
30
0.0
11
617.8481
21
419.49026
31
0.0
0
LINE
8
0
10
617.8481
20
419.49026
30
0.0
11
588.3195
21
422.92596
31
0.0
0
LINE
8
0
10
588.3195
20
422.92596
30
0.0
11
575.1092
21
397.1736
31
0.0
0
LINE
8
0
10
575.1092
20
397.1736
30
0.0
11
594.0826
21
376.33932
31
0.0
0
LINE
8
0
10
594.0826
20
376.33932
30
0.0
11
619.5548
21
386.52927
31
0.0
0
LINE
8
0
10
619.5548
20
386.52927
30
0.0
11
618.95654
21
413.2334
31
0.0
0
LINE
8
0
10
618.95654
20
413.2334
30
0.0
11
594.40314
21
421.80136
31
0.0
0
LINE
8
0
10
594.40314
20
421.80136
30
0.0
11
578.2109
21
402.33685
31
0.0
0
LINE
8
0
10
578.2109
20
402.33685
30
0.0
11
590.43286
21
380.92972
31
0.0
0
LINE
8
0
10
590.43286
20
380.92972
30
0.0
11
614.1238
21
384.76822
31
0.0
0
LINE
8
0
10
614.1238
20
384.76822
30
0.0
11
618.709
21
407.67996
31
0.0
0
LINE
8
0
10
618.709
20
407.67996
30
0.0
11
599.3821
21
419.6803
31
0.0
0
LINE
8
0
10
599.3821
20
419.6803
30
0.0
11
581.8442
21
406.15323
31
0.0
0
LINE
8
0
10
581.8442
20
406.15323
30
0.0
11
588.19324
21
385.54495
31
0.0
0
LINE
8
0
10
588.19324
20
385.54495
30
0.0
11
609.15094
21
384.30096
31
0.0
0
LINE
8
0
10
609.15094
20
384.30096
30
0.0
11
617.43774
21
402.98666
31
0.0
0
LINE
8
0
10
617.43774
20
402.98666
30
0.0
11
603.2277
21
416.91946
31
0.0
0
LINE
8
0
10
603.2277
20
416.91946
30
0.0
11
585.6739
21
408.7173
31
0.0
0
LINE
8
0
10
585.6739
20
408.7173
30
0.0
11
587.16223
21
389.91205
31
0.0
0
LINE
8
0
10
587.16223
20
389.91205
30
0.0
11
604.81726
21
384.8514
31
0.0
0
LINE
8
0
10
604.81726
20
384.8514
30
0.0
11
615.4569
21
399.2227
31
0.0
0
LINE
8
0
10
615.4569
20
399.2227
30
0.0
11
605.9838
21
413.82877
31
0.0
0
LINE
8
0
10
605.9838
20
413.82877
30
0.0
11
589.4327
21
410.1756
31
0.0
0
LINE
8
0
10
589.4327
20
410.1756
30
0.0
11
587.11523
21
393.8371
31
0.0
0
LINE
8
0
10
587.11523
20
393.8371
30
0.0
11
601.2223
21
386.1481
31
0.0
0
LINE
8
0
10
601.2223
20
386.1481
30
0.0
11
613.04767
21
396.3872
31
0.0
0
LINE
8
0
10
613.04767
20
396.3872
30
0.0
11
607.7471
21
410.66428
31
0.0
0
LINE
8
0
10
607.7471
20
410.66428
30
0.0
11
592.9199
21
410.70343
31
0.0
0
LINE
8
0
10
592.9199
20
410.70343
30
0.0
11
587.8241
21
397.19678
31
0.0
0
LINE
8
0
10
587.8241
20
397.19678
30
0.0
11
598.40076
21
387.94104
31
0.0
0
LINE
8
0
10
598.40076
20
387.94104
30
0.0
11
610.4499
21
394.42633
31
0.0
0
LINE
8
0
10
610.4499
20
394.42633
30
0.0
11
608.6485
21
407.62637
31
0.0
0
LINE
8
0
10
608.6485
20
407.62637
30
0.0
11
595.99756
21
410.48862
31
0.0
0
LINE
8
0
10
595.99756
20
410.48862
30
0.0
11
589.07025
21
399.92996
31
0.0
0
LINE
8
0
10
589.07025
20
399.92996
30
0.0
11
596.3338
21
390.01007
31
0.0
0
LINE
8
0
10
596.3338
20
390.01007
30
0.0
11
607.8579
21
393.24777
31
0.0
0
LINE
8
0
10
607.8579
20
393.24777
30
0.0
11
608.83856
21
404.86072
31
0.0
0
LINE
8
0
10
608.83856
20
404.86072
30
0.0
11
598.5842
21
409.71808
31
0.0
0
LINE
8
0
10
598.5842
20
409.71808
30
0.0
11
590.65564
21
402.0256
31
0.0
0
LINE
8
0
10
590.65564
20
402.0256
30
0.0
11
594.964
21
392.17084
31
0.0
0
LINE
8
0
10
594.964
20
392.17084
30
0.0
11
605.4203
21
392.73624
31
0.0
0
LINE
8
0
10
605.4203
20
392.73624
30
0.0
11
608.4731
21
402.46347
31
0.0
0
LINE
8
0
10
608.4731
20
402.46347
30
0.0
11
600.6454
21
408.5667
31
0.0
0
LINE
8
0
10
353.90973
20
78.59268
30
0.0
11
809.0816
21
65.91882
31
0.0
0
LINE
8
0
10
809.0816
20
65.91882
30
0.0
11
975.97894
21
476.63065
31
0.0
0
LINE
8
0
10
975.97894
20
476.63065
30
0.0
11
658.4405
21
768.9795
31
0.0
0
LINE
8
0
10
658.4405
20
768.9795
30
0.0
11
283.4998
21
579.2128
31
0.0
0
LINE
8
0
10
283.4998
20
579.2128
30
0.0
11
328.57385
21
172.56917
31
0.0
0
LINE
8
0
10
328.57385
20
172.56917
30
0.0
11
714.7448
21
74.88925
31
0.0
0
LINE
8
0
10
714.7448
20
74.88925
30
0.0
11
935.60425
21
393.67313
31
0.0
0
LINE
8
0
10
935.60425
20
393.67313
30
0.0
11
720.3043
21
703.853
31
0.0
0
LINE
8
0
10
720.3043
20
703.853
30
0.0
11
363.99664
21
613.39545
31
0.0
0
LINE
8
0
10
363.99664
20
613.39545
30
0.0
11
324.87735
21
257.63403
31
0.0
0
LINE
8
0
10
324.87735
20
257.63403
30
0.0
11
635.9187
21
100.54956
31
0.0
0
LINE
8
0
10
635.9187
20
100.54956
30
0.0
11
885.3048
21
330.55542
31
0.0
0
LINE
8
0
10
885.3048
20
330.55542
30
0.0
11
760.69037
21
636.44794
31
0.0
0
LINE
8
0
10
760.69037
20
636.44794
30
0.0
11
439.24146
21
627.21655
31
0.0
0
LINE
8
0
10
439.24146
20
627.21655
30
0.0
11
337.9545
21
330.96106
31
0.0
0
LINE
8
0
10
337.9545
20
330.96106
30
0.0
11
573.5203
21
137.49875
31
0.0
0
LINE
8
0
10
573.5203
20
137.49875
30
0.0
11
830.31836
21
286.26898
31
0.0
0
LINE
8
0
10
830.31836
20
286.26898
30
0.0
11
782.30597
21
571.19574
31
0.0
0
LINE
8
0
10
782.30597
20
571.19574
30
0.0
11
506.117
21
624.657
31
0.0
0
LINE
8
0
10
506.117
20
624.657
30
0.0
11
363.11176
21
391.06625
31
0.0
0
LINE
8
0
10
363.11176
20
391.06625
30
0.0
11
527.3006
21
180.95052
31
0.0
0
LINE
8
0
10
527.3006
20
180.95052
30
0.0
11
774.9238
21
258.9535
31
0.0
0
LINE
8
0
10
774.9238
20
258.9535
30
0.0
11
788.3076
21
511.36377
31
0.0
0
LINE
8
0
10
788.3076
20
511.36377
30
0.0
11
562.72156
21
609.7099
31
0.0
0
LINE
8
0
10
562.72156
20
609.7099
30
0.0
11
396.0589
21
437.57855
31
0.0
0
LINE
8
0
10
396.0589
20
437.57855
30
0.0
11
496.13376
21
226.86629
31
0.0
0
LINE
8
0
10
496.13376
20
226.86629
30
0.0
11
722.42065
21
246.20544
31
0.0
0
LINE
8
0
10
722.42065
20
246.20544
30
0.0
11
782.01355
21
459.13904
31
0.0
0
LINE
8
0
10
782.01355
20
459.13904
30
0.0
11
608.19324
21
586.14746
31
0.0
0
LINE
8
0
10
608.19324
20
586.14746
30
0.0
11
433.06235
21
470.9994
31
0.0
0
LINE
8
0
10
433.06235
20
470.9994
30
0.0
11
478.2884
21
272.01285
31
0.0
0
LINE
8
0
10
478.2884
20
272.01285
30
0.0
11
675.164
21
245.34077
31
0.0
0
LINE
8
0
10
675.164
20
245.34077
30
0.0
11
766.67413
21
415.75418
31
0.0
0
LINE
8
0
10
766.67413
20
415.75418
30
0.0
11
642.51764
21
557.35425
31
0.0
0
LINE
8
0
10
642.51764
20
557.35425
30
0.0
11
471.03094
21
492.4706
31
0.0
0
LINE
8
0
10
471.03094
20
492.4706
30
0.0
11
471.66833
21
313.96127
31
0.0
0
LINE
8
0
10
471.66833
20
313.96127
30
0.0
11
634.6551
21
253.62067
31
0.0
0
LINE
8
0
10
634.6551
20
253.62067
30
0.0
11
745.2995
21
381.6435
31
0.0
0
LINE
8
0
10
745.2995
20
381.6435
30
0.0
11
666.32587
21
526.22296
31
0.0
0
LINE
8
0
10
666.32587
20
526.22296
30
0.0
11
507.54254
21
503.55502
31
0.0
0
LINE
8
0
10
507.54254
20
503.55502
30
0.0
11
474.022
21
351.03635
31
0.0
0
LINE
8
0
10
474.022
20
351.03635
30
0.0
11
601.6524
21
268.4198
31
0.0
0
LINE
8
0
10
601.6524
20
268.4198
30
0.0
11
720.54205
21
356.6009
31
0.0
0
LINE
8
0
10
720.54205
20
356.6009
30
0.0
11
680.71106
21
495.10193
31
0.0
0
LINE
8
0
10
680.71106
20
495.10193
30
0.0
11
540.82886
21
506.0508
31
0.0
0
LINE
8
0
10
540.82886
20
506.0508
30
0.0
11
483.10626
21
382.23938
31
0.0
0
LINE
8
0
10
483.10626
20
382.23938
30
0.0
11
576.30096
21
287.35202
31
0.0
0
LINE
8
0
10
576.30096
20
287.35202
30
0.0
11
694.6272
21
339.94604
31
0.0
0
LINE
8
0
10
694.6272
20
339.94604
30
0.0
11
687.0531
21
465.78815
31
0.0
0
LINE
8
0
10
687.0531
20
465.78815
30
0.0
11
569.72186
21
501.8293
31
0.0
0
LINE
8
0
10
569.72186
20
501.8293
30
0.0
11
496.81616
21
407.14407
31
0.0
0
LINE
8
0
10
496.81616
20
407.14407
30
0.0
11
558.2712
21
308.35254
31
0.0
0
LINE
8
0
10
558.2712
20
308.35254
30
0.0
11
669.3252
21
330.67313
31
0.0
0
LINE
8
0
10
669.3252
20
330.67313
30
0.0
11
686.8733
21
439.5525
31
0.0
0
LINE
8
0
10
686.8733
20
439.5525
30
0.0
11
593.58325
21
492.71173
31
0.0
0
LINE
8
0
10
593.58325
20
492.71173
30
0.0
11
513.273
21
425.78912
31
0.0
0
LINE
8
0
10
513.273
20
425.78912
30
0.0
11
546.8866
21
329.72156
31
0.0
0
LINE
8
0
10
546.8866
20
329.72156
30
0.0
11
645.9551
21
327.58517
31
0.0
0
LINE
8
0
10
645.9551
20
327.58517
30
0.0
11
681.7132
21
417.18915
31
0.0
0
LINE
8
0
10
681.7132
20
417.18915
30
0.0
11
612.2136
21
480.37445
31
0.0
0
LINE
8
0
10
612.2136
20
480.37445
30
0.0
11
530.88086
21
438.56696
31
0.0
0
LINE
8
0
10
530.88086
20
438.56696
30
0.0
11
541.2446
21
350.13763
31
0.0
0
LINE
8
0
10
541.2446
20
350.13763
30
0.0
11
625.4137
21
329.40833
31
0.0
0
LINE
8
0
10
625.4137
20
329.40833
30
0.0
11
673.0404
21
399.08124
31
0.0
0
LINE
8
0
10
673.0404
20
399.08124
30
0.0
11
625.765
21
466.28653
31
0.0
0
LINE
8
0
10
625.765
20
466.28653
30
0.0
11
548.35144
21
446.1155
31
0.0
0
LINE
8
0
10
548.35144
20
446.1155
30
0.0
11
540.32404
21
368.6439
31
0.0
0
LINE
8
0
10
540.32404
20
368.6439
30
0.0
11
608.22504
21
334.88477
31
0.0
0
LINE
8
0
10
608.22504
20
334.88477
30
0.0
11
662.1807
21
385.2772
31
0.0
0
LINE
8
0
10
662.1807
20
385.2772
30
0.0
11
634.6457
21
451.6733
31
0.0
0
LINE
8
0
10
634.6457
20
451.6733
30
0.0
11
564.7069
21
449.22592
31
0.0
0
LINE
8
0
10
564.7069
20
449.22592
30
0.0
11
543.0697
21
384.61874
31
0.0
0
LINE
8
0
10
543.0697
20
384.61874
30
0.0
11
594.5958
21
342.84024
31
0.0
0
LINE
8
0
10
594.5958
20
342.84024
30
0.0
11
650.2753
21
375.5648
31
0.0
0
LINE
8
0
10
650.2753
20
375.5648
30
0.0
11
639.43866
21
437.50302
31
0.0
0
LINE
8
0
10
639.43866
20
437.50302
30
0.0
11
579.2635
21
448.7602
31
0.0
0
LINE
8
0
10
579.2635
20
448.7602
30
0.0
11
548.4623
21
397.73282
31
0.0
0
LINE
8
0
10
548.4623
20
397.73282
30
0.0
11
584.4784
21
352.23288
31
0.0
0
LINE
8
0
10
584.4784
20
352.23288
30
0.0
11
638.25806
21
369.54504
31
0.0
0
LINE
8
0
10
638.25806
20
369.54504
30
0.0
11
640.8263
21
424.49094
31
0.0
0
LINE
8
0
10
640.8263
20
424.49094
30
0.0
11
591.60144
21
445.58466
31
0.0
0
LINE
8
0
10
591.60144
20
445.58466
30
0.0
11
555.5685
21
407.89917
31
0.0
0
LINE
8
0
10
555.5685
20
407.89917
30
0.0
11
577.6337
21
362.1821
31
0.0
0
LINE
8
0
10
577.6337
20
362.1821
30
0.0
11
626.8501
21
366.69934
31
0.0
0
LINE
8
0
10
626.8501
20
366.69934
30
0.0
11
639.5278
21
413.11774
31
0.0
0
LINE
8
0
10
639.5278
20
413.11774
30
0.0
11
601.529
21
440.51926
31
0.0
0
LINE
8
0
10
601.529
20
440.51926
30
0.0
11
563.5754
21
415.22263
31
0.0
0
LINE
8
0
10
563.5754
20
415.22263
30
0.0
11
573.6886
21
371.9823
31
0.0
0
LINE
8
0
10
573.6886
20
371.9823
30
0.0
11
616.5676
21
366.44672
31
0.0
0
LINE
8
0
10
616.5676
20
366.44672
30
0.0
11
636.2489
21
403.6557
31
0.0
0
LINE
8
0
10
636.2489
20
403.6557
30
0.0
11
609.0377
21
434.3003
31
0.0
0
LINE
8
0
10
609.0377
20
434.3003
30
0.0
11
571.80853
21
419.94684
31
0.0
0
LINE
8
0
10
571.80853
20
419.94684
30
0.0
11
572.1908
21
381.1018
31
0.0
0
LINE
8
0
10
572.1908
20
381.1018
30
0.0
11
607.7411
21
368.19327
31
0.0
0
LINE
8
0
10
607.7411
20
368.19327
30
0.0
11
631.64404
21
396.2035
31
0.0
0
LINE
8
0
10
631.64404
20
396.2035
30
0.0
11
614.2613
21
427.55817
31
0.0
0
LINE
8
0
10
614.2613
20
427.55817
30
0.0
11
579.7389
21
422.40884
31
0.0
0
LINE
8
0
10
579.7389
20
422.40884
30
0.0
11
572.65234
21
389.17313
31
0.0
0
LINE
8
0
10
572.65234
20
389.17313
30
0.0
11
600.539
21
371.3687
31
0.0
0
LINE
8
0
10
600.539
20
371.3687
30
0.0
11
626.29065
21
390.72015
31
0.0
0
LINE
8
0
10
626.29065
20
390.72015
30
0.0
11
617.4341
21
420.80545
31
0.0
0
LINE
8
0
10
617.4341
20
420.80545
30
0.0
11
586.979
21
422.99734
31
0.0
0
LINE
8
0
10
586.979
20
422.99734
30
0.0
11
574.5867
21
395.9755
31
0.0
0
LINE
8
0
10
574.5867
20
395.9755
30
0.0
11
594.9964
21
375.45404
31
0.0
0
LINE
8
0
10
594.9964
20
375.45404
30
0.0
11
620.6741
21
387.06067
31
0.0
0
LINE
8
0
10
620.6741
20
387.06067
30
0.0
11
618.8542
21
414.43503
31
0.0
0
LINE
8
0
10
618.8542
20
414.43503
30
0.0
11
593.27216
21
422.11804
31
0.0
0
LINE
8
0
10
593.27216
20
422.11804
30
0.0
11
577.53613
21
401.41403
31
0.0
0
LINE
8
0
10
577.53613
20
401.41403
30
0.0
11
591.0443
21
379.99942
31
0.0
0
LINE
8
0
10
591.0443
20
379.99942
30
0.0
11
615.1805
21
385.00806
31
0.0
0
LINE
8
0
10
615.1805
20
385.00806
30
0.0
11
618.85077
21
408.72565
31
0.0
0
LINE
8
0
10
618.85077
20
408.72565
30
0.0
11
598.4773
21
420.1665
31
0.0
0
LINE
8
0
10
598.4773
20
420.1665
30
0.0
11
581.092
21
405.49387
31
0.0
0
LINE
8
0
10
581.092
20
405.49387
30
0.0
11
588.5375
21
384.63422
31
0.0
0
LINE
8
0
10
588.5375
20
384.63422
30
0.0
11
610.09906
21
384.30423
31
0.0
0
LINE
8
0
10
610.09906
20
384.30423
30
0.0
11
617.7583
21
403.85233
31
0.0
0
LINE
8
0
10
617.7583
20
403.85233
30
0.0
11
602.5478
21
417.50723
31
0.0
0
LINE
8
0
10
602.5478
20
417.50723
30
0.0
11
584.90594
21
408.2979
31
0.0
0
LINE
8
0
10
584.90594
20
408.2979
30
0.0
11
587.28253
21
389.06866
31
0.0
0
LINE
8
0
10
587.28253
20
389.06866
30
0.0
11
605.6273
21
384.67328
31
0.0
0
LINE
8
0
10
605.6273
20
384.67328
30
0.0
11
615.8958
21
399.90057
31
0.0
0
LINE
8
0
10
615.8958
20
399.90057
30
0.0
11
605.5155
21
414.46027
31
0.0
0
LINE
8
0
10
605.5155
20
414.46027
30
0.0
11
588.697
21
409.96408
31
0.0
0
LINE
8
0
10
588.697
20
409.96408
30
0.0
11
587.05707
21
393.09412
31
0.0
0
LINE
8
0
10
587.05707
20
393.09412
30
0.0
11
601.8799
21
385.84146
31
0.0
0
LINE
8
0
10
601.8799
20
385.84146
30
0.0
11
613.5517
21
396.8822
31
0.0
0
LINE
8
0
10
613.5517
20
396.8822
30
0.0
11
607.4677
21
411.2928
31
0.0
0
LINE
8
0
10
607.4677
20
411.2928
30
0.0
11
592.25134
21
410.6631
31
0.0
0
LINE
8
0
10
592.25134
20
410.6631
30
0.0
11
587.6327
21
396.57358
31
0.0
0
LINE
8
0
10
587.6327
20
396.57358
30
0.0
11
598.9037
21
387.55377
31
0.0
0
LINE
8
0
10
598.9037
20
387.55377
30
0.0
11
610.9747
21
394.75278
31
0.0
0
LINE
8
0
10
610.9747
20
394.75278
30
0.0
11
608.5299
21
408.21625
31
0.0
0
LINE
8
0
10
608.5299
20
408.21625
30
0.0
11
595.41925
21
410.58182
31
0.0
0
LINE
8
0
10
595.41925
20
410.58182
30
0.0
11
588.7879
21
399.43445
31
0.0
0
LINE
8
0
10
588.7879
20
399.43445
30
0.0
11
596.6893
21
389.5835
31
0.0
0
LINE
8
0
10
596.6893
20
389.5835
30
0.0
11
608.36816
21
393.42633
31
0.0
0
LINE
8
0
10
608.36816
20
393.42633
30
0.0
11
608.8499
21
405.38693
31
0.0
0
LINE
8
0
10
608.8499
20
405.38693
30
0.0
11
598.1083
21
409.908
31
0.0
0
LINE
8
0
10
598.1083
20
409.908
30
0.0
11
590.32
21
401.65643
31
0.0
0
LINE
8
0
10
590.32
20
401.65643
30
0.0
11
595.1861
21
391.73883
31
0.0
0
LINE
8
0
10
595.1861
20
391.73883
30
0.0
11
605.89
21
392.79132
31
0.0
0
LINE
8
0
10
605.89
20
392.79132
30
0.0
11
608.5832
21
402.91055
31
0.0
0
LINE
8
0
10
608.5832
20
402.91055
30
0.0
11
600.2753
21
408.81967
31
0.0
0
LINE
8
0
10
600.2753
20
408.81967
30
0.0
11
592.05194
21
403.26096
31
0.0
0
LINE
8
0
10
829.6305
20
66.63394
30
0.0
11
982.33984
21
495.61166
31
0.0
0
LINE
8
0
10
982.33984
20
495.61166
30
0.0
11
643.3038
21
781.2574
31
0.0
0
LINE
8
0
10
643.3038
20
781.2574
30
0.0
11
267.13882
21
569.6013
31
0.0
0
LINE
8
0
10
267.13882
20
569.6013
30
0.0
11
331.75418
21
154.3706
31
0.0
0
LINE
8
0
10
331.75418
20
154.3706
30
0.0
11
732.42413
21
71.57834
31
0.0
0
LINE
8
0
10
732.42413
20
71.57834
30
0.0
11
944.6568
21
408.6636
31
0.0
0
LINE
8
0
10
944.6568
20
408.6636
30
0.0
11
709.7251
21
717.2233
31
0.0
0
LINE
8
0
10
709.7251
20
717.2233
30
0.0
11
348.19476
21
608.3121
31
0.0
0
LINE
8
0
10
348.19476
20
608.3121
30
0.0
11
324.1196
21
241.49065
31
0.0
0
LINE
8
0
10
324.1196
20
241.49065
30
0.0
11
650.38007
21
94.34921
31
0.0
0
LINE
8
0
10
650.38007
20
94.34921
30
0.0
11
895.8937
21
341.62506
31
0.0
0
LINE
8
0
10
895.8937
20
341.62506
30
0.0
11
754.2106
21
649.881
31
0.0
0
LINE
8
0
10
754.2106
20
649.881
30
0.0
11
424.78104
21
625.8923
31
0.0
0
LINE
8
0
10
424.78104
20
625.8923
30
0.0
11
334.22696
21
317.3237
31
0.0
0
LINE
8
0
10
334.22696
20
317.3237
30
0.0
11
584.68304
21
129.44574
31
0.0
0
LINE
8
0
10
584.68304
20
129.44574
30
0.0
11
841.4707
21
293.69867
31
0.0
0
LINE
8
0
10
841.4707
20
293.69867
30
0.0
11
779.3375
21
583.9004
31
0.0
0
LINE
8
0
10
779.3375
20
583.9004
30
0.0
11
493.51956
21
626.2861
31
0.0
0
LINE
8
0
10
493.51956
20
626.2861
30
0.0
11
357.3271
21
380.13513
31
0.0
0
LINE
8
0
10
357.3271
20
380.13513
30
0.0
11
535.2937
21
171.94531
31
0.0
0
LINE
8
0
10
535.2937
20
171.94531
30
0.0
11
785.8629
21
263.16846
31
0.0
0
LINE
8
0
10
785.8629
20
263.16846
30
0.0
11
788.1978
21
522.7764
31
0.0
0
LINE
8
0
10
788.1978
20
522.7764
30
0.0
11
552.2777
21
613.50464
31
0.0
0
LINE
8
0
10
552.2777
20
613.50464
30
0.0
11
389.03445
21
429.3507
31
0.0
0
LINE
8
0
10
389.03445
20
429.3507
30
0.0
11
501.23883
21
217.65321
31
0.0
0
LINE
8
0
10
501.23883
20
217.65321
30
0.0
11
732.563
21
247.71565
31
0.0
0
LINE
8
0
10
732.563
20
247.71565
30
0.0
11
784.0979
21
468.90253
31
0.0
0
LINE
8
0
10
784.0979
20
468.90253
30
0.0
11
600.0021
21
591.3801
31
0.0
0
LINE
8
0
10
600.0021
20
591.3801
30
0.0
11
425.49533
21
465.31555
31
0.0
0
LINE
8
0
10
425.49533
20
465.31555
30
0.0
11
480.88855
21
263.17328
31
0.0
0
LINE
8
0
10
480.88855
20
263.17328
30
0.0
11
684.1116
21
244.6949
31
0.0
0
LINE
8
0
10
684.1116
20
244.6949
30
0.0
11
770.3167
21
423.69235
31
0.0
0
LINE
8
0
10
770.3167
20
423.69235
30
0.0
11
636.5226
21
563.3847
31
0.0
0
LINE
8
0
10
636.5226
20
563.3847
30
0.0
11
463.4862
21
489.06226
31
0.0
0
LINE
8
0
10
463.4862
20
489.06226
30
0.0
11
472.2013
21
305.91858
31
0.0
0
LINE
8
0
10
472.2013
20
305.91858
30
0.0
11
642.17053
21
251.36179
31
0.0
0
LINE
8
0
10
642.17053
20
251.36179
30
0.0
11
749.924
21
387.72476
31
0.0
0
LINE
8
0
10
749.924
20
387.72476
30
0.0
11
662.3591
21
532.51514
31
0.0
0
LINE
8
0
10
662.3591
20
532.51514
30
0.0
11
500.4514
21
502.0854
31
0.0
0
LINE
8
0
10
500.4514
20
502.0854
30
0.0
11
472.942
21
344.0689
31
0.0
0
LINE
8
0
10
472.942
20
344.0689
30
0.0
11
607.6374
21
265.0572
31
0.0
0
LINE
8
0
10
607.6374
20
265.0572
30
0.0
11
725.6507
21
360.91058
31
0.0
0
LINE
8
0
10
725.6507
20
360.91058
30
0.0
11
678.5249
21
501.23096
31
0.0
0
LINE
8
0
10
678.5249
20
501.23096
30
0.0
11
534.49414
21
506.1491
31
0.0
0
LINE
8
0
10
534.49414
20
506.1491
30
0.0
11
480.8547
21
376.49677
31
0.0
0
LINE
8
0
10
480.8547
20
376.49677
30
0.0
11
580.7688
21
283.33917
31
0.0
0
LINE
8
0
10
580.7688
20
283.33917
30
0.0
11
699.81104
21
342.65042
31
0.0
0
LINE
8
0
10
699.81104
20
342.65042
30
0.0
11
686.3563
21
471.43784
31
0.0
0
LINE
8
0
10
686.3563
20
471.43784
30
0.0
11
564.33295
21
503.12222
31
0.0
0
LINE
8
0
10
564.33295
20
503.12222
30
0.0
11
493.79813
21
402.67154
31
0.0
0
LINE
8
0
10
493.79813
20
402.67154
30
0.0
11
561.31934
21
304.07425
31
0.0
0
LINE
8
0
10
561.31934
20
304.07425
30
0.0
11
674.2665
21
331.9924
31
0.0
0
LINE
8
0
10
674.2665
20
331.9924
30
0.0
11
687.35675
21
444.50836
31
0.0
0
LINE
8
0
10
687.35675
20
444.50836
30
0.0
11
589.2294
21
494.84387
31
0.0
0
LINE
8
0
10
589.2294
20
494.84387
30
0.0
11
509.84317
21
422.54745
31
0.0
0
LINE
8
0
10
509.84317
20
422.54745
30
0.0
11
548.6719
21
325.4878
31
0.0
0
LINE
8
0
10
548.6719
20
325.4878
30
0.0
11
650.4248
21
327.76816
31
0.0
0
LINE
8
0
10
650.4248
20
327.76816
30
0.0
11
683.0718
21
421.3272
31
0.0
0
LINE
8
0
10
683.0718
20
421.3272
30
0.0
11
608.9041
21
483.0255
31
0.0
0
LINE
8
0
10
608.9041
20
483.0255
30
0.0
11
527.3338
21
436.45346
31
0.0
0
LINE
8
0
10
527.3338
20
436.45346
30
0.0
11
541.96124
21
346.18204
31
0.0
0
LINE
8
0
10
541.96124
20
346.18204
30
0.0
11
629.265
21
328.7118
31
0.0
0
LINE
8
0
10
629.265
20
328.7118
30
0.0
11
674.9899
21
402.3553
31
0.0
0
LINE
8
0
10
674.9899
20
402.3553
30
0.0
11
623.445
21
469.1815
31
0.0
0
LINE
8
0
10
623.445
20
469.1815
30
0.0
11
544.9199
21
444.98807
31
0.0
0
LINE
8
0
10
544.9199
20
444.98807
30
0.0
11
540.181
21
365.1302
31
0.0
0
LINE
8
0
10
540.181
20
365.1302
30
0.0
11
611.38007
21
333.55518
31
0.0
0
LINE
8
0
10
611.38007
20
333.55518
30
0.0
11
664.46985
21
387.7003
31
0.0
0
LINE
8
0
10
664.46985
20
387.7003
30
0.0
11
633.2175
21
454.58755
31
0.0
0
LINE
8
0
10
633.2175
20
454.58755
30
0.0
11
561.5622
21
448.91824
31
0.0
0
LINE
8
0
10
561.5622
20
448.91824
30
0.0
11
542.2771
21
381.64633
31
0.0
0
LINE
8
0
10
542.2771
20
381.64633
30
0.0
11
597.0356
21
341.10303
31
0.0
0
LINE
8
0
10
597.0356
20
341.10303
30
0.0
11
652.692
21
377.1966
31
0.0
0
LINE
8
0
10
652.692
20
377.1966
30
0.0
11
638.7755
21
440.26352
31
0.0
0
LINE
8
0
10
638.7755
20
440.26352
30
0.0
11
576.5201
21
449.09763
31
0.0
0
LINE
8
0
10
576.5201
20
449.09763
30
0.0
11
547.2183
21
395.3465
31
0.0
0
LINE
8
0
10
547.2183
20
395.3465
30
0.0
11
586.2298
21
350.2842
31
0.0
0
LINE
8
0
10
586.2298
20
350.2842
30
0.0
11
640.63257
21
370.47696
31
0.0
0
LINE
8
0
10
640.63257
20
370.47696
30
0.0
11
640.787
21
426.97415
31
0.0
0
LINE
8
0
10
640.787
20
426.97415
30
0.0
11
589.3241
21
446.39633
31
0.0
0
LINE
8
0
10
589.3241
20
446.39633
30
0.0
11
554.0512
21
406.09964
31
0.0
0
LINE
8
0
10
554.0512
20
406.09964
30
0.0
11
578.7568
21
360.18445
31
0.0
0
LINE
8
0
10
578.7568
20
360.18445
30
0.0
11
629.05493
21
367.0416
31
0.0
0
LINE
8
0
10
629.05493
20
367.0416
30
0.0
11
639.96814
21
415.2449
31
0.0
0
LINE
8
0
10
639.96814
20
415.2449
30
0.0
11
599.7397
21
441.64676
31
0.0
0
LINE
8
0
10
599.7397
20
441.64676
30
0.0
11
561.9365
21
413.9756
31
0.0
0
LINE
8
0
10
561.9365
20
413.9756
30
0.0
11
574.26636
21
370.06235
31
0.0
0
LINE
8
0
10
574.26636
20
370.06235
30
0.0
11
618.5155
21
366.3183
31
0.0
0
LINE
8
0
10
618.5155
20
366.3183
30
0.0
11
637.03076
21
405.38797
31
0.0
0
LINE
8
0
10
637.03076
20
405.38797
30
0.0
11
607.72504
21
435.6044
31
0.0
0
LINE
8
0
10
607.72504
20
435.6044
30
0.0
11
570.17145
21
419.19495
31
0.0
0
LINE
8
0
10
570.17145
20
419.19495
30
0.0
11
572.3176
21
379.35245
31
0.0
0
LINE
8
0
10
572.3176
20
379.35245
30
0.0
11
609.3795
21
367.7119
31
0.0
0
LINE
8
0
10
609.3795
20
367.7119
30
0.0
11
632.6421
21
397.53317
31
0.0
0
LINE
8
0
10
632.6421
20
397.53317
30
0.0
11
613.38947
21
428.922
31
0.0
0
LINE
8
0
10
613.38947
20
428.922
30
0.0
11
578.19775
21
422.07935
31
0.0
0
LINE
8
0
10
578.19775
20
422.07935
30
0.0
11
572.4268
21
387.65546
31
0.0
0
LINE
8
0
10
572.4268
20
387.65546
30
0.0
11
601.8459
21
370.6451
31
0.0
0
LINE
8
0
10
601.8459
20
370.6451
30
0.0
11
627.3965
21
391.66486
31
0.0
0
LINE
8
0
10
627.3965
20
391.66486
30
0.0
11
616.9501
21
422.13614
31
0.0
0
LINE
8
0
10
616.9501
20
422.13614
30
0.0
11
585.60046
21
423.01016
31
0.0
0
LINE
8
0
10
585.60046
20
423.01016
30
0.0
11
574.10455
21
394.72287
31
0.0
0
LINE
8
0
10
574.10455
20
394.72287
30
0.0
11
595.974
21
374.5869
31
0.0
0
LINE
8
0
10
595.974
20
374.5869
30
0.0
11
621.7984
21
387.65616
31
0.0
0
LINE
8
0
10
621.7984
20
387.65616
30
0.0
11
618.6949
21
415.66345
31
0.0
0
LINE
8
0
10
618.6949
20
415.66345
30
0.0
11
592.0977
21
422.39206
31
0.0
0
LINE
8
0
10
592.0977
20
422.39206
30
0.0
11
576.8855
21
400.43665
31
0.0
0
LINE
8
0
10
576.8855
20
400.43665
30
0.0
11
591.71344
21
379.07257
31
0.0
0
LINE
8
0
10
591.71344
20
379.07257
30
0.0
11
616.254
21
385.30188
31
0.0
0
LINE
8
0
10
616.254
20
385.30188
30
0.0
11
618.9492
21
409.80475
31
0.0
0
LINE
8
0
10
618.9492
20
409.80475
30
0.0
11
597.5269
21
420.62457
31
0.0
0
LINE
8
0
10
597.5269
20
420.62457
30
0.0
11
580.35
21
404.78363
31
0.0
0
LINE
8
0
10
580.35
20
404.78363
30
0.0
11
588.9319
21
383.71524
31
0.0
0
LINE
8
0
10
588.9319
20
383.71524
30
0.0
11
611.0716
21
384.35022
31
0.0
0
LINE
8
0
10
611.0716
20
384.35022
30
0.0
11
618.04834
21
404.75455
31
0.0
0
LINE
8
0
10
618.04834
20
404.75455
30
0.0
11
601.82385
21
418.07962
31
0.0
0
LINE
8
0
10
601.82385
20
418.07962
30
0.0
11
584.13696
21
407.83313
31
0.0
0
LINE
8
0
10
584.13696
20
407.83313
30
0.0
11
587.4439
21
388.20886
31
0.0
0
LINE
8
0
10
587.4439
20
388.20886
30
0.0
11
606.46643
21
384.527
31
0.0
0
LINE
8
0
10
606.46643
20
384.527
30
0.0
11
616.31555
21
400.61572
31
0.0
0
LINE
8
0
10
616.31555
20
400.61572
30
0.0
11
605.00665
21
415.08707
31
0.0
0
LINE
8
0
10
605.00665
20
415.08707
30
0.0
11
587.95184
21
409.71402
31
0.0
0
LINE
8
0
10
587.95184
20
409.71402
30
0.0
11
587.03076
21
392.32928
31
0.0
0
LINE
8
0
10
587.03076
20
392.32928
30
0.0
11
602.5683
21
385.5565
31
0.0
0
LINE
8
0
10
602.5683
20
385.5565
30
0.0
11
614.0465
21
397.41266
31
0.0
0
LINE
8
0
10
614.0465
20
397.41266
30
0.0
11
607.1529
21
411.925
31
0.0
0
LINE
8
0
10
607.1529
20
411.925
30
0.0
11
591.56757
21
410.5919
31
0.0
0
LINE
8
0
10
591.56757
20
410.5919
30
0.0
11
587.46423
21
395.9258
31
0.0
0
LINE
8
0
10
587.46423
20
395.9258
30
0.0
11
599.437
21
387.17914
31
0.0
0
LINE
8
0
10
599.437
20
387.17914
30
0.0
11
611.4983
21
395.11124
31
0.0
0
LINE
8
0
10
611.4983
20
395.11124
30
0.0
11
608.3818
21
408.81604
31
0.0
0
LINE
8
0
10
608.3818
20
408.81604
30
0.0
11
594.8218
21
410.6514
31
0.0
0
LINE
8
0
10
594.8218
20
410.6514
30
0.0
11
588.52057
21
398.9134
31
0.0
0
LINE
8
0
10
588.52057
20
398.9134
30
0.0
11
597.0732
21
389.1619
31
0.0
0
LINE
8
0
10
597.0732
20
389.1619
30
0.0
11
608.8836
21
393.63248
31
0.0
0
LINE
8
0
10
608.8836
20
393.63248
30
0.0
11
608.8378
21
405.92725
31
0.0
0
LINE
8
0
10
608.8378
20
405.92725
30
0.0
11
597.6115
21
410.0814
31
0.0
0
LINE
8
0
10
597.6115
20
410.0814
30
0.0
11
589.9924
21
401.2626
31
0.0
0
LINE
8
0
10
589.9924
20
401.2626
30
0.0
11
595.43335
21
391.30566
31
0.0
0
LINE
8
0
10
595.43335
20
391.30566
30
0.0
11
606.36926
21
392.86887
31
0.0
0
LINE
8
0
10
606.36926
20
392.86887
30
0.0
11
608.676
21
403.374
31
0.0
0
LINE
8
0
10
608.676
20
403.374
30
0.0
11
599.8843
21
409.06247
31
0.0
0
LINE
8
0
10
599.8843
20
409.06247
30
0.0
11
591.6971
21
402.98724
31
0.0
0
LINE
8
0
10
591.6971
20
402.98724
30
0.0
11
594.44257
21
393.44864
31
0.0
0
ENDSEC
0
EOF
