0
SECTION
2
ENTITIES
0
LINE
8
0
10
819.2
20
400.0
30
0.0
11
816.1924
21
432.85043
31
0.0
0
LINE
8
0
10
816.1924
20
432.85043
30
0.0
11
808.30286
21
464.79938
31
0.0
0
LINE
8
0
10
808.30286
20
464.79938
30
0.0
11
795.7336
21
495.12756
31
0.0
0
LINE
8
0
10
795.7336
20
495.12756
30
0.0
11
778.7916
21
523.15594
31
0.0
0
LINE
8
0
10
778.7916
20
523.15594
30
0.0
11
757.88165
21
548.26074
31
0.0
0
LINE
8
0
10
757.88165
20
548.26074
30
0.0
11
733.4963
21
569.8874
31
0.0
0
LINE
8
0
10
733.4963
20
569.8874
30
0.0
11
706.20435
21
587.5628
31
0.0
0
LINE
8
0
10
706.20435
20
587.5628
30
0.0
11
676.638
21
600.9056
31
0.0
0
LINE
8
0
10
676.638
20
600.9056
30
0.0
11
645.4777
21
609.63434
31
0.0
0
LINE
8
0
10
645.4777
20
609.63434
30
0.0
11
613.4369
21
613.5735
31
0.0
0
LINE
8
0
10
613.4369
20
613.5735
30
0.0
11
581.24536
21
612.65674
31
0.0
0
LINE
8
0
10
581.24536
20
612.65674
30
0.0
11
549.6329
21
606.9282
31
0.0
0
LINE
8
0
10
549.6329
20
606.9282
30
0.0
11
519.3126
21
596.54065
31
0.0
0
LINE
8
0
10
519.3126
20
596.54065
30
0.0
11
490.96518
21
581.7517
31
0.0
0
LINE
8
0
10
490.96518
20
581.7517
30
0.0
11
465.22296
21
562.91736
31
0.0
0
LINE
8
0
10
465.22296
20
562.91736
30
0.0
11
442.65662
21
540.48364
31
0.0
0
LINE
8
0
10
442.65662
20
540.48364
30
0.0
11
423.76196
21
514.97577
31
0.0
0
LINE
8
0
10
423.76196
20
514.97577
30
0.0
11
408.94928
21
486.98627
31
0.0
0
LINE
8
0
10
408.94928
20
486.98627
30
0.0
11
398.5345
21
457.16092
31
0.0
0
LINE
8
0
10
398.5345
20
457.16092
30
0.0
11
392.73236
21
426.184
31
0.0
0
LINE
8
0
10
392.73236
20
426.184
30
0.0
11
391.65222
21
394.76254
31
0.0
0
LINE
8
0
10
391.65222
20
394.76254
30
0.0
11
395.29587
21
363.61035
31
0.0
0
LINE
8
0
10
395.29587
20
363.61035
30
0.0
11
403.55817
21
333.4317
31
0.0
0
LINE
8
0
10
403.55817
20
333.4317
30
0.0
11
416.2298
21
304.9053
31
0.0
0
LINE
8
0
10
416.2298
20
304.9053
30
0.0
11
433.0027
21
278.66937
31
0.0
0
LINE
8
0
10
433.0027
20
278.66937
30
0.0
11
453.4773
21
255.30707
31
0.0
0
LINE
8
0
10
453.4773
20
255.30707
30
0.0
11
477.17212
21
235.33376
31
0.0
0
LINE
8
0
10
477.17212
20
235.33376
30
0.0
11
503.53516
21
219.18555
31
0.0
0
LINE
8
0
10
503.53516
20
219.18555
30
0.0
11
531.95654
21
207.20981
31
0.0
0
LINE
8
0
10
531.95654
20
207.20981
30
0.0
11
561.7828
21
199.65771
31
0.0
0
LINE
8
0
10
561.7828
20
199.65771
30
0.0
11
592.3314
21
196.67918
31
0.0
0
LINE
8
0
10
592.3314
20
196.67918
30
0.0
11
622.9074
21
198.31972
31
0.0
0
LINE
8
0
10
622.9074
20
198.31972
30
0.0
11
652.81793
21
204.51997
31
0.0
0
LINE
8
0
10
652.81793
20
204.51997
30
0.0
11
681.3889
21
215.11777
31
0.0
0
LINE
8
0
10
681.3889
20
215.11777
30
0.0
11
707.9797
21
229.85193
31
0.0
0
LINE
8
0
10
707.9797
20
229.85193
30
0.0
11
731.9973
21
248.36891
31
0.0
0
LINE
8
0
10
731.9973
20
248.36891
30
0.0
11
752.9104
21
270.2313
31
0.0
0
LINE
8
0
10
752.9104
20
270.2313
30
0.0
11
770.26013
21
294.92776
31
0.0
0
LINE
8
0
10
770.26013
20
294.92776
30
0.0
11
783.67065
21
321.8856
31
0.0
0
LINE
8
0
10
783.67065
20
321.8856
30
0.0
11
792.8572
21
350.4833
31
0.0
0
LINE
8
0
10
792.8572
20
350.4833
30
0.0
11
797.63184
21
380.06525
31
0.0
0
LINE
8
0
10
797.63184
20
380.06525
30
0.0
11
797.9076
21
409.95697
31
0.0
0
LINE
8
0
10
797.9076
20
409.95697
30
0.0
11
793.69995
21
439.4798
31
0.0
0
LINE
8
0
10
793.69995
20
439.4798
30
0.0
11
785.1255
21
467.967
31
0.0
0
LINE
8
0
10
785.1255
20
467.967
30
0.0
11
772.3995
21
494.77835
31
0.0
0
LINE
8
0
10
772.3995
20
494.77835
30
0.0
11
755.83
21
519.3146
31
0.0
0
LINE
8
0
10
755.83
20
519.3146
30
0.0
11
735.8107
21
541.031
31
0.0
0
LINE
8
0
10
735.8107
20
541.031
30
0.0
11
712.81165
21
559.44916
31
0.0
0
LINE
8
0
10
712.81165
20
559.44916
30
0.0
11
687.36786
21
574.16797
31
0.0
0
LINE
8
0
10
687.36786
20
574.16797
30
0.0
11
660.0673
21
584.8716
31
0.0
0
LINE
8
0
10
660.0673
20
584.8716
30
0.0
11
631.53735
21
591.337
31
0.0
0
LINE
8
0
10
631.53735
20
591.337
30
0.0
11
602.4298
21
593.438
31
0.0
0
LINE
8
0
10
602.4298
20
593.438
30
0.0
11
573.40686
21
591.14795
31
0.0
0
LINE
8
0
10
573.40686
20
591.14795
30
0.0
11
545.1252
21
584.5398
31
0.0
0
LINE
8
0
10
545.1252
20
584.5398
30
0.0
11
518.22217
21
573.78394
31
0.0
0
LINE
8
0
10
518.22217
20
573.78394
30
0.0
11
493.30002
21
559.1438
31
0.0
0
LINE
8
0
10
493.30002
20
559.1438
30
0.0
11
470.91388
21
540.9695
31
0.0
0
LINE
8
0
10
470.91388
20
540.9695
30
0.0
11
451.55862
21
519.6897
31
0.0
0
LINE
8
0
10
451.55862
20
519.6897
30
0.0
11
435.65805
21
495.8012
31
0.0
0
LINE
8
0
10
435.65805
20
495.8012
30
0.0
11
423.5558
21
469.85767
31
0.0
0
LINE
8
0
10
423.5558
20
469.85767
30
0.0
11
415.5075
21
442.45627
31
0.0
0
LINE
8
0
10
415.5075
20
442.45627
30
0.0
11
411.6762
21
414.22467
31
0.0
0
LINE
8
0
10
411.6762
20
414.22467
30
0.0
11
412.12845
21
385.80624
31
0.0
0
LINE
8
0
10
412.12845
20
385.80624
30
0.0
11
416.8334
21
357.84555
31
0.0
0
LINE
8
0
10
416.8334
20
357.84555
30
0.0
11
425.66406
21
330.97375
31
0.0
0
LINE
8
0
10
425.66406
20
330.97375
30
0.0
11
438.40082
21
305.79395
31
0.0
0
LINE
8
0
10
438.40082
20
305.79395
30
0.0
11
454.73633
21
282.8684
31
0.0
0
LINE
8
0
10
454.73633
20
282.8684
30
0.0
11
474.2835
21
262.70557
31
0.0
0
LINE
8
0
10
474.2835
20
262.70557
30
0.0
11
496.58417
21
245.74883
31
0.0
0
LINE
8
0
10
496.58417
20
245.74883
30
0.0
11
521.11993
21
232.36693
31
0.0
0
LINE
8
0
10
521.11993
20
232.36693
30
0.0
11
547.32465
21
222.84563
31
0.0
0
LINE
8
0
10
547.32465
20
222.84563
30
0.0
11
574.59674
21
217.38214
31
0.0
0
LINE
8
0
10
574.59674
20
217.38214
30
0.0
11
602.3134
21
216.08078
31
0.0
0
LINE
8
0
10
602.3134
20
216.08078
30
0.0
11
629.8448
21
218.95105
31
0.0
0
LINE
8
0
10
629.8448
20
218.95105
30
0.0
11
656.5681
21
225.9079
31
0.0
0
LINE
8
0
10
656.5681
20
225.9079
30
0.0
11
681.8823
21
236.77423
31
0.0
0
LINE
8
0
10
681.8823
20
236.77423
30
0.0
11
705.22076
21
251.2852
31
0.0
0
LINE
8
0
10
705.22076
20
251.2852
30
0.0
11
726.0642
21
269.09467
31
0.0
0
LINE
8
0
10
726.0642
20
269.09467
30
0.0
11
743.9527
21
289.7835
31
0.0
0
LINE
8
0
10
743.9527
20
289.7835
30
0.0
11
758.49506
21
312.8692
31
0.0
0
LINE
8
0
10
758.49506
20
312.8692
30
0.0
11
769.37823
21
337.81766
31
0.0
0
LINE
8
0
10
769.37823
20
337.81766
30
0.0
11
776.37317
21
364.0548
31
0.0
0
LINE
8
0
10
776.37317
20
364.0548
30
0.0
11
779.3401
21
390.9803
31
0.0
0
LINE
8
0
10
779.3401
20
390.9803
30
0.0
11
778.2311
21
417.98093
31
0.0
0
LINE
8
0
10
778.2311
20
417.98093
30
0.0
11
773.0909
21
444.44473
31
0.0
0
LINE
8
0
10
773.0909
20
444.44473
30
0.0
11
764.0552
21
469.77527
31
0.0
0
LINE
8
0
10
764.0552
20
469.77527
30
0.0
11
751.3473
21
493.40408
31
0.0
0
LINE
8
0
10
751.3473
20
493.40408
30
0.0
11
735.2726
21
514.8042
31
0.0
0
LINE
8
0
10
735.2726
20
514.8042
30
0.0
11
716.2113
21
533.50165
31
0.0
0
LINE
8
0
10
716.2113
20
533.50165
30
0.0
11
694.6096
21
549.0858
31
0.0
0
LINE
8
0
10
694.6096
20
549.0858
30
0.0
11
670.9686
21
561.21893
31
0.0
0
LINE
8
0
10
670.9686
20
561.21893
30
0.0
11
645.83374
21
569.6426
31
0.0
0
LINE
8
0
10
645.83374
20
569.6426
30
0.0
11
619.78125
21
574.18384
31
0.0
0
LINE
8
0
10
619.78125
20
574.18384
30
0.0
11
593.4057
21
574.75836
31
0.0
0
LINE
8
0
10
593.4057
20
574.75836
30
0.0
11
567.3061
21
571.37225
31
0.0
0
LINE
8
0
10
567.3061
20
571.37225
30
0.0
11
542.0719
21
564.12115
31
0.0
0
LINE
8
0
10
542.0719
20
564.12115
30
0.0
11
518.2706
21
553.1878
31
0.0
0
LINE
8
0
10
518.2706
20
553.1878
30
0.0
11
496.4345
21
538.8375
31
0.0
0
LINE
8
0
10
496.4345
20
538.8375
30
0.0
11
477.04855
21
521.4116
31
0.0
0
LINE
8
0
10
477.04855
20
521.4116
30
0.0
11
460.54028
21
501.31967
31
0.0
0
LINE
8
0
10
460.54028
20
501.31967
30
0.0
11
447.26947
21
479.02927
31
0.0
0
LINE
8
0
10
447.26947
20
479.02927
30
0.0
11
437.52136
21
455.05585
31
0.0
0
LINE
8
0
10
437.52136
20
455.05585
30
0.0
11
431.49976
21
429.9505
31
0.0
0
LINE
8
0
10
431.49976
20
429.9505
30
0.0
11
429.32324
21
404.28717
31
0.0
0
LINE
8
0
10
429.32324
20
404.28717
30
0.0
11
431.02258
21
378.64996
31
0.0
0
LINE
8
0
10
431.02258
20
378.64996
30
0.0
11
436.54077
21
353.61902
31
0.0
0
LINE
8
0
10
436.54077
20
353.61902
30
0.0
11
445.73456
21
329.75836
31
0.0
0
LINE
8
0
10
445.73456
20
329.75836
30
0.0
11
458.37787
21
307.60336
31
0.0
0
LINE
8
0
10
458.37787
20
307.60336
30
0.0
11
474.16815
21
287.64688
31
0.0
0
LINE
8
0
10
474.16815
20
287.64688
30
0.0
11
492.73257
21
270.33063
31
0.0
0
LINE
8
0
10
492.73257
20
270.33063
30
0.0
11
513.6373
21
256.03418
31
0.0
0
LINE
8
0
10
513.6373
20
256.03418
30
0.0
11
536.3978
21
245.06674
31
0.0
0
LINE
8
0
10
536.3978
20
245.06674
30
0.0
11
560.4897
21
237.66081
31
0.0
0
LINE
8
0
10
560.4897
20
237.66081
30
0.0
11
585.36084
21
233.96706
31
0.0
0
LINE
8
0
10
585.36084
20
233.96706
30
0.0
11
610.44434
21
234.05132
31
0.0
0
LINE
8
0
10
610.44434
20
234.05132
30
0.0
11
635.171
21
237.89354
31
0.0
0
LINE
8
0
10
635.171
20
237.89354
30
0.0
11
658.9826
21
245.38873
31
0.0
0
LINE
8
0
10
658.9826
20
245.38873
30
0.0
11
681.3439
21
256.3495
31
0.0
0
LINE
8
0
10
681.3439
20
256.3495
30
0.0
11
701.75604
21
270.51117
31
0.0
0
LINE
8
0
10
701.75604
20
270.51117
30
0.0
11
719.76575
21
287.5376
31
0.0
0
LINE
8
0
10
719.76575
20
287.5376
30
0.0
11
734.9766
21
307.02945
31
0.0
0
LINE
8
0
10
734.9766
20
307.02945
30
0.0
11
747.05756
21
328.53317
31
0.0
0
LINE
8
0
10
747.05756
20
328.53317
30
0.0
11
755.7502
21
351.5526
31
0.0
0
LINE
8
0
10
755.7502
20
351.5526
30
0.0
11
760.8737
21
375.55896
31
0.0
0
LINE
8
0
10
760.8737
20
375.55896
30
0.0
11
762.3292
21
400.00372
31
0.0
0
LINE
8
0
10
762.3292
20
400.00372
30
0.0
11
760.1013
21
424.3312
31
0.0
0
LINE
8
0
10
760.1013
20
424.3312
30
0.0
11
754.2582
21
447.99103
31
0.0
0
LINE
8
0
10
754.2582
20
447.99103
30
0.0
11
744.94934
21
470.4505
31
0.0
0
LINE
8
0
10
744.94934
20
470.4505
30
0.0
11
732.4024
21
491.20676
31
0.0
0
LINE
8
0
10
732.4024
20
491.20676
30
0.0
11
716.91693
21
509.79785
31
0.0
0
LINE
8
0
10
716.91693
20
509.79785
30
0.0
11
698.8578
21
525.8131
31
0.0
0
LINE
8
0
10
698.8578
20
525.8131
30
0.0
11
678.6466
21
538.90204
31
0.0
0
LINE
8
0
10
678.6466
20
538.90204
30
0.0
11
656.75085
21
548.7826
31
0.0
0
LINE
8
0
10
656.75085
20
548.7826
30
0.0
11
633.6748
21
555.2461
31
0.0
0
LINE
8
0
10
633.6748
20
555.2461
30
0.0
11
609.9467
21
558.16266
31
0.0
0
LINE
8
0
10
609.9467
20
558.16266
30
0.0
11
586.1071
21
557.48315
31
0.0
0
LINE
8
0
10
586.1071
20
557.48315
30
0.0
11
562.6964
21
553.24023
31
0.0
0
LINE
8
0
10
562.6964
20
553.24023
30
0.0
11
540.24286
21
545.5471
31
0.0
0
LINE
8
0
10
540.24286
20
545.5471
30
0.0
11
519.2503
21
534.59454
31
0.0
0
LINE
8
0
10
519.2503
20
534.59454
30
0.0
11
500.1872
21
520.6462
31
0.0
0
LINE
8
0
10
500.1872
20
520.6462
30
0.0
11
483.476
21
504.0323
31
0.0
0
LINE
8
0
10
483.476
20
504.0323
30
0.0
11
469.484
21
485.1419
31
0.0
0
LINE
8
0
10
469.484
20
485.1419
30
0.0
11
458.51514
21
464.41412
31
0.0
0
LINE
8
0
10
458.51514
20
464.41412
30
0.0
11
450.80298
21
442.32657
31
0.0
0
LINE
8
0
10
450.80298
20
442.32657
30
0.0
11
446.50684
21
419.38632
31
0.0
0
LINE
8
0
10
446.50684
20
419.38632
30
0.0
11
445.70758
21
396.117
31
0.0
0
LINE
8
0
10
445.70758
20
396.117
30
0.0
11
448.40656
21
373.04718
31
0.0
0
LINE
8
0
10
448.40656
20
373.04718
30
0.0
11
454.52588
21
350.69836
31
0.0
0
LINE
8
0
10
454.52588
20
350.69836
30
0.0
11
463.91058
21
329.5733
31
0.0
0
LINE
8
0
10
463.91058
20
329.5733
30
0.0
11
476.3324
21
310.14453
31
0.0
0
LINE
8
0
10
476.3324
20
310.14453
30
0.0
11
491.49548
21
292.84393
31
0.0
0
LINE
8
0
10
491.49548
20
292.84393
30
0.0
11
509.04327
21
278.05313
31
0.0
0
LINE
8
0
10
509.04327
20
278.05313
30
0.0
11
528.56665
21
266.0952
31
0.0
0
LINE
8
0
10
528.56665
20
266.0952
30
0.0
11
549.6145
21
257.22717
31
0.0
0
LINE
8
0
10
549.6145
20
257.22717
30
0.0
11
571.7026
21
251.6351
31
0.0
0
LINE
8
0
10
571.7026
20
251.6351
30
0.0
11
594.3256
21
249.43002
31
0.0
0
LINE
8
0
10
594.3256
20
249.43002
30
0.0
11
616.96875
21
250.6456
31
0.0
0
LINE
8
0
10
616.96875
20
250.6456
30
0.0
11
639.11896
21
255.23793
31
0.0
0
LINE
8
0
10
639.11896
20
255.23793
30
0.0
11
660.27704
21
263.0868
31
0.0
0
LINE
8
0
10
660.27704
20
263.0868
30
0.0
11
679.96857
21
273.99884
31
0.0
0
LINE
8
0
10
679.96857
20
273.99884
30
0.0
11
697.7545
21
287.71225
31
0.0
0
LINE
8
0
10
697.7545
20
287.71225
30
0.0
11
713.2413
21
303.90298
31
0.0
0
LINE
8
0
10
713.2413
20
303.90298
30
0.0
11
726.089
21
322.19226
31
0.0
0
LINE
8
0
10
726.089
20
322.19226
30
0.0
11
736.0196
21
342.15625
31
0.0
0
LINE
8
0
10
736.0196
20
342.15625
30
0.0
11
742.822
21
363.33456
31
0.0
0
LINE
8
0
10
742.822
20
363.33456
30
0.0
11
746.35724
21
385.24176
31
0.0
0
LINE
8
0
10
746.35724
20
385.24176
30
0.0
11
746.5608
21
407.37814
31
0.0
0
LINE
8
0
10
746.5608
20
407.37814
30
0.0
11
743.4441
21
429.2413
31
0.0
0
LINE
8
0
10
743.4441
20
429.2413
30
0.0
11
737.0936
21
450.3374
31
0.0
0
LINE
8
0
10
737.0936
20
450.3374
30
0.0
11
727.66876
21
470.19232
31
0.0
0
LINE
8
0
10
727.66876
20
470.19232
30
0.0
11
715.3976
21
488.36237
31
0.0
0
LINE
8
0
10
715.3976
20
488.36237
30
0.0
11
700.5717
21
504.44406
31
0.0
0
LINE
8
0
10
700.5717
20
504.44406
30
0.0
11
683.5394
21
518.08307
31
0.0
0
LINE
8
0
10
683.5394
20
518.08307
30
0.0
11
664.69666
21
528.9825
31
0.0
0
LINE
8
0
10
664.69666
20
528.9825
30
0.0
11
644.4789
21
536.9085
31
0.0
0
LINE
8
0
10
644.4789
20
536.9085
30
0.0
11
623.3507
21
541.6958
31
0.0
0
LINE
8
0
10
623.3507
20
541.6958
30
0.0
11
601.79504
21
543.2511
31
0.0
0
LINE
8
0
10
601.79504
20
543.2511
30
0.0
11
580.302
21
541.55457
31
0.0
0
LINE
8
0
10
580.302
20
541.55457
30
0.0
11
559.35815
21
536.6602
31
0.0
0
LINE
8
0
10
559.35815
20
536.6602
30
0.0
11
539.4351
21
528.6943
31
0.0
0
LINE
8
0
10
539.4351
20
528.6943
30
0.0
11
520.9793
21
517.85187
31
0.0
0
LINE
8
0
10
520.9793
20
517.85187
30
0.0
11
504.40164
21
504.39233
31
0.0
0
LINE
8
0
10
504.40164
20
504.39233
30
0.0
11
490.06873
21
488.63327
31
0.0
0
LINE
8
0
10
490.06873
20
488.63327
30
0.0
11
478.29404
21
470.94223
31
0.0
0
LINE
8
0
10
478.29404
20
470.94223
30
0.0
11
469.33215
21
451.7293
31
0.0
0
LINE
8
0
10
469.33215
20
451.7293
30
0.0
11
463.37262
21
431.43692
31
0.0
0
LINE
8
0
10
463.37262
20
431.43692
30
0.0
11
460.536
21
410.52985
31
0.0
0
LINE
8
0
10
460.536
20
410.52985
30
0.0
11
460.87152
21
389.48453
31
0.0
0
LINE
8
0
10
460.87152
20
389.48453
30
0.0
11
464.35645
21
368.77826
31
0.0
0
LINE
8
0
10
464.35645
20
368.77826
30
0.0
11
470.89667
21
348.87836
31
0.0
0
LINE
8
0
10
470.89667
20
348.87836
30
0.0
11
480.32947
21
330.2317
31
0.0
0
LINE
8
0
10
480.32947
20
330.2317
30
0.0
11
492.42737
21
313.2545
31
0.0
0
LINE
8
0
10
492.42737
20
313.2545
30
0.0
11
506.90332
21
298.3235
31
0.0
0
LINE
8
0
10
506.90332
20
298.3235
30
0.0
11
523.4185
21
285.7666
31
0.0
0
LINE
8
0
10
523.4185
20
285.7666
30
0.0
11
541.5889
21
275.8571
31
0.0
0
LINE
8
0
10
541.5889
20
275.8571
30
0.0
11
560.9951
21
268.80664
31
0.0
0
LINE
8
0
10
560.9951
20
268.80664
30
0.0
11
581.19165
21
264.7613
31
0.0
0
LINE
8
0
10
581.19165
20
264.7613
30
0.0
11
601.71735
21
263.7982
31
0.0
0
LINE
8
0
10
601.71735
20
263.7982
30
0.0
11
622.1058
21
265.92438
31
0.0
0
LINE
8
0
10
622.1058
20
265.92438
30
0.0
11
641.89575
21
271.07693
31
0.0
0
LINE
8
0
10
641.89575
20
271.07693
30
0.0
11
660.642
21
279.12463
31
0.0
0
LINE
8
0
10
660.642
20
279.12463
30
0.0
11
677.925
21
289.8713
31
0.0
0
LINE
8
0
10
677.925
20
289.8713
30
0.0
11
693.3601
21
303.0605
31
0.0
0
LINE
8
0
10
693.3601
20
303.0605
30
0.0
11
706.607
21
318.38202
31
0.0
0
LINE
8
0
10
706.607
20
318.38202
30
0.0
11
717.3759
21
335.47864
31
0.0
0
LINE
8
0
10
717.3759
20
335.47864
30
0.0
11
725.43494
21
353.95453
31
0.0
0
LINE
8
0
10
725.43494
20
353.95453
30
0.0
11
730.61444
21
373.3847
31
0.0
0
LINE
8
0
10
730.61444
20
373.3847
30
0.0
11
732.811
21
393.3245
31
0.0
0
LINE
8
0
10
732.811
20
393.3245
30
0.0
11
731.98914
21
413.31985
31
0.0
0
LINE
8
0
10
731.98914
20
413.31985
30
0.0
11
728.1819
21
432.91772
31
0.0
0
LINE
8
0
10
728.1819
20
432.91772
30
0.0
11
721.48987
21
451.6761
31
0.0
0
LINE
8
0
10
721.48987
20
451.6761
30
0.0
11
712.0784
21
469.1742
31
0.0
0
LINE
8
0
10
712.0784
20
469.1742
30
0.0
11
700.17377
21
485.02173
31
0.0
0
LINE
8
0
10
700.17377
20
485.02173
30
0.0
11
686.0577
21
498.86755
31
0.0
0
LINE
8
0
10
686.0577
20
498.86755
30
0.0
11
670.0598
21
510.4082
31
0.0
0
LINE
8
0
10
670.0598
20
510.4082
30
0.0
11
652.55237
21
519.3927
31
0.0
0
LINE
8
0
10
652.55237
20
519.3927
30
0.0
11
633.93823
21
525.6304
31
0.0
0
LINE
8
0
10
633.93823
20
525.6304
30
0.0
11
614.64514
21
528.99274
31
0.0
0
LINE
8
0
10
614.64514
20
528.99274
30
0.0
11
595.11285
21
529.4176
31
0.0
0
LINE
8
0
10
595.11285
20
529.4176
30
0.0
11
575.7844
21
526.9094
31
0.0
0
LINE
8
0
10
575.7844
20
526.9094
30
0.0
11
557.0976
21
521.53906
31
0.0
0
LINE
8
0
10
557.0976
20
521.53906
30
0.0
11
539.4715
21
513.4418
31
0.0
0
LINE
8
0
10
539.4715
20
513.4418
30
0.0
11
523.3012
21
502.8142
31
0.0
0
LINE
8
0
10
523.3012
20
502.8142
30
0.0
11
508.94513
21
489.9088
31
0.0
0
LINE
8
0
10
508.94513
20
489.9088
30
0.0
11
496.72043
21
475.02942
31
0.0
0
LINE
8
0
10
496.72043
20
475.02942
30
0.0
11
486.89313
21
458.52167
31
0.0
0
LINE
8
0
10
486.89313
20
458.52167
30
0.0
11
479.67474
21
440.7681
31
0.0
0
LINE
8
0
10
479.67474
20
440.7681
30
0.0
11
475.21597
21
422.17587
31
0.0
0
LINE
8
0
10
475.21597
20
422.17587
30
0.0
11
473.60474
21
403.17102
31
0.0
0
LINE
8
0
10
473.60474
20
403.17102
30
0.0
11
474.86377
21
384.18546
31
0.0
0
LINE
8
0
10
474.86377
20
384.18546
30
0.0
11
478.9509
21
365.64862
31
0.0
0
LINE
8
0
10
478.9509
20
365.64862
30
0.0
11
485.7598
21
347.9791
31
0.0
0
LINE
8
0
10
485.7598
20
347.9791
30
0.0
11
495.12357
21
331.57202
31
0.0
0
LINE
8
0
10
495.12357
20
331.57202
30
0.0
11
506.8174
21
316.79373
31
0.0
0
LINE
8
0
10
506.8174
20
316.79373
30
0.0
11
520.5659
21
303.9704
31
0.0
0
LINE
8
0
10
520.5659
20
303.9704
30
0.0
11
536.0471
21
293.38373
31
0.0
0
LINE
8
0
10
536.0471
20
293.38373
30
0.0
11
552.90295
21
285.2622
31
0.0
0
LINE
8
0
10
552.90295
20
285.2622
30
0.0
11
570.7442
21
279.77835
31
0.0
0
LINE
8
0
10
570.7442
20
279.77835
30
0.0
11
589.1625
21
277.04352
31
0.0
0
LINE
8
0
10
589.1625
20
277.04352
30
0.0
11
607.73785
21
277.1064
31
0.0
0
LINE
8
0
10
607.73785
20
277.1064
30
0.0
11
626.04895
21
279.95224
31
0.0
0
LINE
8
0
10
626.04895
20
279.95224
30
0.0
11
643.6824
21
285.50317
31
0.0
0
LINE
8
0
10
643.6824
20
285.50317
30
0.0
11
660.2415
21
293.62033
31
0.0
0
LINE
8
0
10
660.2415
20
293.62033
30
0.0
11
675.35736
21
304.10794
31
0.0
0
LINE
8
0
10
675.35736
20
304.10794
30
0.0
11
688.69415
21
316.71698
31
0.0
0
LINE
8
0
10
688.69415
20
316.71698
30
0.0
11
699.95825
21
331.15173
31
0.0
0
LINE
8
0
10
699.95825
20
331.15173
30
0.0
11
708.9046
21
347.07648
31
0.0
0
LINE
8
0
10
708.9046
20
347.07648
30
0.0
11
715.3417
21
364.12347
31
0.0
0
LINE
8
0
10
715.3417
20
364.12347
30
0.0
11
719.1357
21
381.90125
31
0.0
0
LINE
8
0
10
719.1357
20
381.90125
30
0.0
11
720.2134
21
400.0037
31
0.0
0
LINE
8
0
10
720.2134
20
400.0037
30
0.0
11
718.5634
21
418.01923
31
0.0
0
LINE
8
0
10
718.5634
20
418.01923
30
0.0
11
714.2362
21
435.54034
31
0.0
0
LINE
8
0
10
714.2362
20
435.54034
30
0.0
11
707.3428
21
452.17215
31
0.0
0
LINE
8
0
10
707.3428
20
452.17215
30
0.0
11
698.0513
21
467.5431
31
0.0
0
LINE
8
0
10
698.0513
20
467.5431
30
0.0
11
686.5837
21
481.31064
31
0.0
0
LINE
8
0
10
686.5837
20
481.31064
30
0.0
11
673.21014
21
493.17075
31
0.0
0
LINE
8
0
10
673.21014
20
493.17075
30
0.0
11
658.24274
21
502.8639
31
0.0
0
LINE
8
0
10
658.24274
20
502.8639
30
0.0
11
642.0281
21
510.181
31
0.0
0
LINE
8
0
10
642.0281
20
510.181
30
0.0
11
624.9393
21
514.9677
31
0.0
0
LINE
8
0
10
624.9393
20
514.9677
30
0.0
11
607.3676
21
517.12775
31
0.0
0
LINE
8
0
10
607.3676
20
517.12775
30
0.0
11
589.7134
21
516.6248
31
0.0
0
LINE
8
0
10
589.7134
20
516.6248
30
0.0
11
572.37714
21
513.48315
31
0.0
0
LINE
8
0
10
572.37714
20
513.48315
30
0.0
11
555.74915
21
507.78638
31
0.0
0
LINE
8
0
10
555.74915
20
507.78638
30
0.0
11
540.203
21
499.67587
31
0.0
0
LINE
8
0
10
540.203
20
499.67587
30
0.0
11
526.0857
21
489.34686
31
0.0
0
LINE
8
0
10
526.0857
20
489.34686
30
0.0
11
513.71
21
477.04388
31
0.0
0
LINE
8
0
10
513.71
20
477.04388
30
0.0
11
503.34793
21
463.05505
31
0.0
0
LINE
8
0
10
503.34793
20
463.05505
30
0.0
11
495.2244
21
447.70526
31
0.0
0
LINE
8
0
10
495.2244
20
447.70526
30
0.0
11
489.51273
21
431.34866
31
0.0
0
LINE
8
0
10
489.51273
20
431.34866
30
0.0
11
486.3307
21
414.3605
31
0.0
0
LINE
8
0
10
486.3307
20
414.3605
30
0.0
11
485.7382
21
397.129
31
0.0
0
LINE
8
0
10
485.7382
20
397.129
30
0.0
11
487.7362
21
380.0447
31
0.0
0
LINE
8
0
10
487.7362
20
380.0447
30
0.0
11
492.26712
21
363.49426
31
0.0
0
LINE
8
0
10
492.26712
20
363.49426
30
0.0
11
499.2162
21
347.8499
31
0.0
0
LINE
8
0
10
499.2162
20
347.8499
30
0.0
11
508.4144
21
333.4616
31
0.0
0
LINE
8
0
10
508.4144
20
333.4616
30
0.0
11
519.6427
21
320.64923
31
0.0
0
LINE
8
0
10
519.6427
20
320.64923
30
0.0
11
532.6371
21
309.69534
31
0.0
0
LINE
8
0
10
532.6371
20
309.69534
30
0.0
11
547.0947
21
300.83914
31
0.0
0
LINE
8
0
10
547.0947
20
300.83914
30
0.0
11
562.6812
21
294.27112
31
0.0
0
LINE
8
0
10
562.6812
20
294.27112
30
0.0
11
579.0378
21
290.12915
31
0.0
0
LINE
8
0
10
579.0378
20
290.12915
30
0.0
11
595.791
21
288.4952
31
0.0
0
LINE
8
0
10
595.791
20
288.4952
30
0.0
11
612.55927
21
289.39438
31
0.0
0
LINE
8
0
10
612.55927
20
289.39438
30
0.0
11
628.9627
21
292.79413
31
0.0
0
LINE
8
0
10
628.9627
20
292.79413
30
0.0
11
644.6316
21
298.60556
31
0.0
0
LINE
8
0
10
644.6316
20
298.60556
30
0.0
11
659.21454
21
306.68542
31
0.0
0
LINE
8
0
10
659.21454
20
306.68542
30
0.0
11
672.38654
21
316.83987
31
0.0
0
LINE
8
0
10
672.38654
20
316.83987
30
0.0
11
683.856
21
328.82898
31
0.0
0
LINE
8
0
10
683.856
20
328.82898
30
0.0
11
693.3714
21
342.37247
31
0.0
0
LINE
8
0
10
693.3714
20
342.37247
30
0.0
11
700.7265
21
357.15616
31
0.0
0
LINE
8
0
10
700.7265
20
357.15616
30
0.0
11
705.7651
21
372.83884
31
0.0
0
LINE
8
0
10
705.7651
20
372.83884
30
0.0
11
708.3844
21
389.06186
31
0.0
0
LINE
8
0
10
708.3844
20
389.06186
30
0.0
11
708.5365
21
405.4548
31
0.0
0
LINE
8
0
10
708.5365
20
405.4548
30
0.0
11
706.2298
21
421.64563
31
0.0
0
LINE
8
0
10
706.2298
20
421.64563
30
0.0
11
701.5284
21
437.26862
31
0.0
0
LINE
8
0
10
701.5284
20
437.26862
30
0.0
11
694.5501
21
451.97266
31
0.0
0
LINE
8
0
10
694.5501
20
451.97266
30
0.0
11
685.464
21
465.4292
31
0.0
0
LINE
8
0
10
685.464
20
465.4292
30
0.0
11
674.4859
21
477.3394
31
0.0
0
LINE
8
0
10
674.4859
20
477.3394
30
0.0
11
661.87354
21
487.44098
31
0.0
0
LINE
8
0
10
661.87354
20
487.44098
30
0.0
11
647.9208
21
495.5136
31
0.0
0
LINE
8
0
10
647.9208
20
495.5136
30
0.0
11
632.9492
21
501.38467
31
0.0
0
LINE
8
0
10
632.9492
20
501.38467
30
0.0
11
617.3033
21
504.9315
31
0.0
0
LINE
8
0
10
617.3033
20
504.9315
30
0.0
11
601.34045
21
506.08487
31
0.0
0
LINE
8
0
10
601.34045
20
506.08487
30
0.0
11
585.42377
21
504.8302
31
0.0
0
LINE
8
0
10
585.42377
20
504.8302
30
0.0
11
569.9136
21
501.2074
31
0.0
0
LINE
8
0
10
569.9136
20
501.2074
30
0.0
11
555.15906
21
495.30988
31
0.0
0
LINE
8
0
10
555.15906
20
495.30988
30
0.0
11
541.49084
21
487.28214
31
0.0
0
LINE
8
0
10
541.49084
20
487.28214
30
0.0
11
529.2132
21
477.31616
31
0.0
0
LINE
8
0
10
529.2132
20
477.31616
30
0.0
11
518.59784
21
465.64725
31
0.0
0
LINE
8
0
10
518.59784
20
465.64725
30
0.0
11
509.8766
21
452.5473
31
0.0
0
LINE
8
0
10
509.8766
20
452.5473
30
0.0
11
503.23822
21
438.3201
31
0.0
0
LINE
8
0
10
503.23822
20
438.3201
30
0.0
11
498.8231
21
423.29324
31
0.0
0
LINE
8
0
10
498.8231
20
423.29324
30
0.0
11
496.72052
21
407.8109
31
0.0
0
LINE
8
0
10
496.72052
20
407.8109
30
0.0
11
496.967
21
392.2259
31
0.0
0
LINE
8
0
10
496.967
20
392.2259
30
0.0
11
499.54575
21
376.89166
31
0.0
0
LINE
8
0
10
499.54575
20
376.89166
30
0.0
11
504.38715
21
362.1543
31
0.0
0
LINE
8
0
10
504.38715
20
362.1543
30
0.0
11
511.37073
21
348.34467
31
0.0
0
LINE
8
0
10
511.37073
20
348.34467
30
0.0
11
520.3278
21
335.77142
31
0.0
0
LINE
8
0
10
520.3278
20
335.77142
30
0.0
11
531.0465
21
324.71274
31
0.0
0
LINE
8
0
10
531.0465
20
324.71274
30
0.0
11
543.2754
21
315.4121
31
0.0
0
LINE
8
0
10
543.2754
20
315.4121
30
0.0
11
556.73035
21
308.07178
31
0.0
0
LINE
8
0
10
556.73035
20
308.07178
30
0.0
11
571.10077
21
302.84857
31
0.0
0
LINE
8
0
10
571.10077
20
302.84857
30
0.0
11
586.05676
21
299.8506
31
0.0
0
LINE
8
0
10
586.05676
20
299.8506
30
0.0
11
601.2568
21
299.13513
31
0.0
0
LINE
8
0
10
601.2568
20
299.13513
30
0.0
11
616.3555
21
300.70743
31
0.0
0
LINE
8
0
10
616.3555
20
300.70743
30
0.0
11
631.0115
21
304.5209
31
0.0
0
LINE
8
0
10
631.0115
20
304.5209
30
0.0
11
644.8948
21
310.47845
31
0.0
0
LINE
8
0
10
644.8948
20
310.47845
30
0.0
11
657.6945
21
318.43463
31
0.0
0
LINE
8
0
10
657.6945
20
318.43463
30
0.0
11
669.1266
21
328.20007
31
0.0
0
LINE
8
0
10
669.1266
20
328.20007
30
0.0
11
678.9383
21
339.54477
31
0.0
0
LINE
8
0
10
678.9383
20
339.54477
30
0.0
11
686.9153
21
352.20425
31
0.0
0
LINE
8
0
10
686.9153
20
352.20425
30
0.0
11
692.88556
21
365.8855
31
0.0
0
LINE
8
0
10
692.88556
20
365.8855
30
0.0
11
696.72363
21
380.2737
31
0.0
0
LINE
8
0
10
696.72363
20
380.2737
30
0.0
11
698.3527
21
395.03973
31
0.0
0
LINE
8
0
10
698.3527
20
395.03973
30
0.0
11
697.74664
21
409.8473
31
0.0
0
LINE
8
0
10
697.74664
20
409.8473
30
0.0
11
694.9297
21
424.36084
31
0.0
0
LINE
8
0
10
694.9297
20
424.36084
30
0.0
11
689.97656
21
438.25275
31
0.0
0
LINE
8
0
10
689.97656
20
438.25275
30
0.0
11
683.0093
21
451.2121
31
0.0
0
LINE
8
0
10
683.0093
20
451.2121
30
0.0
11
674.1955
21
462.94952
31
0.0
0
LINE
8
0
10
674.1955
20
462.94952
30
0.0
11
663.74365
21
473.20502
31
0.0
0
LINE
8
0
10
663.74365
20
473.20502
30
0.0
11
651.8983
21
481.75342
31
0.0
0
LINE
8
0
10
651.8983
20
481.75342
30
0.0
11
638.9343
21
488.40936
31
0.0
0
LINE
8
0
10
638.9343
20
488.40936
30
0.0
11
625.15076
21
493.0312
31
0.0
0
LINE
8
0
10
625.15076
20
493.0312
30
0.0
11
610.8637
21
495.5239
31
0.0
0
LINE
8
0
10
610.8637
20
495.5239
30
0.0
11
596.3991
21
495.8413
31
0.0
0
LINE
8
0
10
596.3991
20
495.8413
30
0.0
11
582.08575
21
493.9867
31
0.0
0
LINE
8
0
10
582.08575
20
493.9867
30
0.0
11
568.24634
21
490.01245
31
0.0
0
LINE
8
0
10
568.24634
20
490.01245
30
0.0
11
555.19244
21
484.01868
31
0.0
0
LINE
8
0
10
555.19244
20
484.01868
30
0.0
11
543.2159
21
476.15088
31
0.0
0
LINE
8
0
10
543.2159
20
476.15088
30
0.0
11
532.58276
21
466.59613
31
0.0
0
LINE
8
0
10
532.58276
20
466.59613
30
0.0
11
523.52747
21
455.579
31
0.0
0
LINE
8
0
10
523.52747
20
455.579
30
0.0
11
516.24744
21
443.35596
31
0.0
0
LINE
8
0
10
516.24744
20
443.35596
30
0.0
11
510.8991
21
430.20963
31
0.0
0
LINE
8
0
10
510.8991
20
430.20963
30
0.0
11
507.59433
21
416.44214
31
0.0
0
LINE
8
0
10
507.59433
20
416.44214
30
0.0
11
506.39813
21
402.36865
31
0.0
0
LINE
8
0
10
506.39813
20
402.36865
30
0.0
11
507.32745
21
388.30865
31
0.0
0
LINE
8
0
10
507.32745
20
388.30865
30
0.0
11
510.3511
21
374.5808
31
0.0
0
LINE
8
0
10
510.3511
20
374.5808
30
0.0
11
515.39056
21
361.49448
31
0.0
0
LINE
8
0
10
515.39056
20
361.49448
30
0.0
11
522.322
21
349.34293
31
0.0
0
LINE
8
0
10
522.322
20
349.34293
30
0.0
11
530.9795
21
338.39688
31
0.0
0
LINE
8
0
10
530.9795
20
338.39688
30
0.0
11
541.15857
21
328.89847
31
0.0
0
LINE
8
0
10
541.15857
20
328.89847
30
0.0
11
552.62146
21
321.05585
31
0.0
0
LINE
8
0
10
552.62146
20
321.05585
30
0.0
11
565.1024
21
315.0387
31
0.0
0
LINE
8
0
10
565.1024
20
315.0387
30
0.0
11
578.31384
21
310.97455
31
0.0
0
LINE
8
0
10
578.31384
20
310.97455
30
0.0
11
591.9527
21
308.94614
31
0.0
0
LINE
8
0
10
591.9527
20
308.94614
30
0.0
11
605.7088
21
308.98944
31
0.0
0
LINE
8
0
10
605.7088
20
308.98944
30
0.0
11
619.2696
21
311.09372
31
0.0
0
LINE
8
0
10
619.2696
20
311.09372
30
0.0
11
632.32904
21
315.20142
31
0.0
0
LINE
8
0
10
632.32904
20
315.20142
30
0.0
11
644.5937
21
321.20984
31
0.0
0
LINE
8
0
10
644.5937
20
321.20984
30
0.0
11
655.7896
21
328.97388
31
0.0
0
LINE
8
0
10
655.7896
20
328.97388
30
0.0
11
665.66833
21
338.30923
31
0.0
0
LINE
8
0
10
665.66833
20
338.30923
30
0.0
11
674.0125
21
348.99698
31
0.0
0
LINE
8
0
10
674.0125
20
348.99698
30
0.0
11
680.6405
21
360.78857
31
0.0
0
LINE
8
0
10
680.6405
20
360.78857
30
0.0
11
685.41034
21
373.41135
31
0.0
0
LINE
8
0
10
685.41034
20
373.41135
30
0.0
11
688.2231
21
386.57605
31
0.0
0
LINE
8
0
10
688.2231
20
386.57605
30
0.0
11
689.02435
21
399.9817
31
0.0
0
LINE
8
0
10
689.02435
20
399.9817
30
0.0
11
687.80566
21
413.32343
31
0.0
0
LINE
8
0
10
687.80566
20
413.32343
30
0.0
11
684.6042
21
426.2995
31
0.0
0
LINE
8
0
10
684.6042
20
426.2995
30
0.0
11
679.502
21
438.61774
31
0.0
0
LINE
8
0
10
679.502
20
438.61774
30
0.0
11
672.6238
21
450.00232
31
0.0
0
LINE
8
0
10
672.6238
20
450.00232
30
0.0
11
664.1338
21
460.19992
31
0.0
0
LINE
8
0
10
664.1338
20
460.19992
30
0.0
11
654.23206
21
468.98526
31
0.0
0
LINE
8
0
10
654.23206
20
468.98526
30
0.0
11
643.14984
21
476.16595
31
0.0
0
LINE
8
0
10
643.14984
20
476.16595
30
0.0
11
631.1433
21
481.5875
31
0.0
0
LINE
8
0
10
631.1433
20
481.5875
30
0.0
11
618.489
21
485.1353
31
0.0
0
LINE
8
0
10
618.489
20
485.1353
30
0.0
11
605.4766
21
486.738
31
0.0
0
LINE
8
0
10
605.4766
20
486.738
30
0.0
11
592.4026
21
486.36865
31
0.0
0
LINE
8
0
10
592.4026
20
486.36865
30
0.0
11
579.56335
21
484.04504
31
0.0
0
LINE
8
0
10
579.56335
20
484.04504
30
0.0
11
567.2485
21
479.82916
31
0.0
0
LINE
8
0
10
567.2485
20
479.82916
30
0.0
11
555.7343
21
473.82556
31
0.0
0
LINE
8
0
10
555.7343
20
473.82556
30
0.0
11
545.27795
21
466.17883
31
0.0
0
LINE
8
0
10
545.27795
20
466.17883
30
0.0
11
536.11096
21
457.06995
31
0.0
0
LINE
8
0
10
536.11096
20
457.06995
30
0.0
11
528.43506
21
446.71252
31
0.0
0
LINE
8
0
10
528.43506
20
446.71252
30
0.0
11
522.41644
21
435.34662
31
0.0
0
LINE
8
0
10
522.41644
20
435.34662
30
0.0
11
518.1838
21
423.23468
31
0.0
0
LINE
8
0
10
518.1838
20
423.23468
30
0.0
11
515.82434
21
410.65463
31
0.0
0
LINE
8
0
10
515.82434
20
410.65463
30
0.0
11
515.38257
21
397.89355
31
0.0
0
LINE
8
0
10
515.38257
20
397.89355
30
0.0
11
516.85925
21
385.2414
31
0.0
0
LINE
8
0
10
516.85925
20
385.2414
30
0.0
11
520.2118
21
372.98413
31
0.0
0
LINE
8
0
10
520.2118
20
372.98413
30
0.0
11
525.3552
21
361.39746
31
0.0
0
LINE
8
0
10
525.3552
20
361.39746
30
0.0
11
532.16455
21
350.74057
31
0.0
0
LINE
8
0
10
532.16455
20
350.74057
30
0.0
11
540.4773
21
341.2506
31
0.0
0
LINE
8
0
10
540.4773
20
341.2506
30
0.0
11
550.0984
21
333.1364
31
0.0
0
LINE
8
0
10
550.0984
20
333.1364
30
0.0
11
560.80347
21
326.57538
31
0.0
0
LINE
8
0
10
560.80347
20
326.57538
30
0.0
11
572.345
21
321.70868
31
0.0
0
LINE
8
0
10
572.345
20
321.70868
30
0.0
11
584.4574
21
318.63843
31
0.0
0
LINE
8
0
10
584.4574
20
318.63843
30
0.0
11
596.86383
21
317.4255
31
0.0
0
LINE
8
0
10
596.86383
20
317.4255
30
0.0
11
609.28174
21
318.0885
31
0.0
0
LINE
8
0
10
609.28174
20
318.0885
30
0.0
11
621.42993
21
320.6034
31
0.0
0
LINE
8
0
10
621.42993
20
320.6034
30
0.0
11
633.0346
21
324.90433
31
0.0
0
LINE
8
0
10
633.0346
20
324.90433
30
0.0
11
643.83514
21
330.88522
31
0.0
0
LINE
8
0
10
643.83514
20
330.88522
30
0.0
11
653.5915
21
338.40283
31
0.0
0
LINE
8
0
10
653.5915
20
338.40283
30
0.0
11
662.08734
21
347.27942
31
0.0
0
LINE
8
0
10
662.08734
20
347.27942
30
0.0
11
669.13635
21
357.3074
31
0.0
0
LINE
8
0
10
669.13635
20
357.3074
30
0.0
11
674.5858
21
368.2542
31
0.0
0
LINE
8
0
10
674.5858
20
368.2542
30
0.0
11
678.32
21
379.8675
31
0.0
0
LINE
8
0
10
678.32
20
379.8675
30
0.0
11
680.2625
21
391.88104
31
0.0
0
LINE
8
0
10
680.2625
20
391.88104
30
0.0
11
680.378
21
404.02087
31
0.0
0
LINE
8
0
10
680.378
20
404.02087
30
0.0
11
678.67255
21
416.01144
31
0.0
0
LINE
8
0
10
678.67255
20
416.01144
30
0.0
11
675.19366
21
427.5816
31
0.0
0
LINE
8
0
10
675.19366
20
427.5816
30
0.0
11
670.0285
21
438.472
31
0.0
0
LINE
8
0
10
670.0285
20
438.472
30
0.0
11
663.3021
21
448.43884
31
0.0
0
LINE
8
0
10
663.3021
20
448.43884
30
0.0
11
655.1743
21
457.2609
31
0.0
0
LINE
8
0
10
655.1743
20
457.2609
30
0.0
11
645.83594
21
464.74384
31
0.0
0
LINE
8
0
10
645.83594
20
464.74384
30
0.0
11
635.50433
21
470.72464
31
0.0
0
LINE
8
0
10
635.50433
20
470.72464
30
0.0
11
624.4184
21
475.07495
31
0.0
0
LINE
8
0
10
624.4184
20
475.07495
30
0.0
11
612.83234
21
477.7043
31
0.0
0
LINE
8
0
10
612.83234
20
477.7043
30
0.0
11
601.0112
21
478.56125
31
0.0
0
LINE
8
0
10
601.0112
20
478.56125
30
0.0
11
589.2239
21
477.6349
31
0.0
0
LINE
8
0
10
589.2239
20
477.6349
30
0.0
11
577.7371
21
474.9547
31
0.0
0
LINE
8
0
10
577.7371
20
474.9547
30
0.0
11
566.8096
21
470.58987
31
0.0
0
LINE
8
0
10
566.8096
20
470.58987
30
0.0
11
556.68616
21
464.64728
31
0.0
0
LINE
8
0
10
556.68616
20
464.64728
30
0.0
11
547.59216
21
457.2691
31
0.0
0
LINE
8
0
10
547.59216
20
457.2691
30
0.0
11
539.7287
21
448.6293
31
0.0
0
LINE
8
0
10
539.7287
20
448.6293
30
0.0
11
533.2679
21
438.9296
31
0.0
0
LINE
8
0
10
533.2679
20
438.9296
30
0.0
11
528.34937
21
428.3947
31
0.0
0
LINE
8
0
10
528.34937
20
428.3947
30
0.0
11
525.07715
21
417.2673
31
0.0
0
LINE
8
0
10
525.07715
20
417.2673
30
0.0
11
523.5174
21
405.8022
31
0.0
0
LINE
8
0
10
523.5174
20
405.8022
30
0.0
11
523.69727
21
394.26062
31
0.0
0
LINE
8
0
10
523.69727
20
394.26062
30
0.0
11
525.6043
21
382.90436
31
0.0
0
LINE
8
0
10
525.6043
20
382.90436
30
0.0
11
529.18713
21
371.98972
31
0.0
0
LINE
8
0
10
529.18713
20
371.98972
30
0.0
11
534.35645
21
361.76178
31
0.0
0
LINE
8
0
10
534.35645
20
361.76178
30
0.0
11
540.9876
21
352.44885
31
0.0
0
LINE
8
0
10
540.9876
20
352.44885
30
0.0
11
548.9231
21
344.25787
31
0.0
0
LINE
8
0
10
548.9231
20
344.25787
30
0.0
11
557.9776
21
337.36813
31
0.0
0
LINE
8
0
10
557.9776
20
337.36813
30
0.0
11
567.9404
21
331.92987
31
0.0
0
LINE
8
0
10
567.9404
20
331.92987
30
0.0
11
578.58154
21
328.05927
31
0.0
0
LINE
8
0
10
578.58154
20
328.05927
30
0.0
11
589.65674
21
325.83652
31
0.0
0
LINE
8
0
10
589.65674
20
325.83652
30
0.0
11
600.9131
21
325.30402
31
0.0
0
LINE
8
0
10
600.9131
20
325.30402
30
0.0
11
612.0947
21
326.46573
31
0.0
0
LINE
8
0
10
612.0947
20
326.46573
30
0.0
11
622.9489
21
329.28723
31
0.0
0
LINE
8
0
10
622.9489
20
329.28723
30
0.0
11
633.2313
21
333.6967
31
0.0
0
LINE
8
0
10
633.2313
20
333.6967
30
0.0
11
642.7118
21
339.58658
31
0.0
0
LINE
8
0
10
642.7118
20
339.58658
30
0.0
11
651.1795
21
346.81644
31
0.0
0
LINE
8
0
10
651.1795
20
346.81644
30
0.0
11
658.4476
21
355.2161
31
0.0
0
LINE
8
0
10
658.4476
20
355.2161
30
0.0
11
664.3571
21
364.58975
31
0.0
0
LINE
8
0
10
664.3571
20
364.58975
30
0.0
11
668.78076
21
374.7204
31
0.0
0
LINE
8
0
10
668.78076
20
374.7204
30
0.0
11
671.62555
21
385.37497
31
0.0
0
LINE
8
0
10
671.62555
20
385.37497
30
0.0
11
672.8346
21
396.30972
31
0.0
0
LINE
8
0
10
672.8346
20
396.30972
30
0.0
11
672.38824
21
407.2756
31
0.0
0
LINE
8
0
10
672.38824
20
407.2756
30
0.0
11
670.3047
21
418.02414
31
0.0
0
LINE
8
0
10
670.3047
20
418.02414
30
0.0
11
666.6391
21
428.31244
31
0.0
0
LINE
8
0
10
666.6391
20
428.31244
30
0.0
11
661.48175
21
437.91074
31
0.0
0
LINE
8
0
10
661.48175
20
437.91074
30
0.0
11
654.9567
21
446.60446
31
0.0
0
LINE
8
0
10
654.9567
20
446.60446
30
0.0
11
647.2184
21
454.20102
31
0.0
0
LINE
8
0
10
647.2184
20
454.20102
30
0.0
11
638.44775
21
460.53366
31
0.0
0
LINE
8
0
10
638.44775
20
460.53366
30
0.0
11
628.84845
21
465.46503
31
0.0
0
LINE
8
0
10
628.84845
20
465.46503
30
0.0
11
618.6418
21
468.8901
31
0.0
0
LINE
8
0
10
618.6418
20
468.8901
30
0.0
11
608.0619
21
470.73862
31
0.0
0
LINE
8
0
10
608.0619
20
470.73862
30
0.0
11
597.3501
21
470.9762
31
0.0
0
LINE
8
0
10
597.3501
20
470.9762
30
0.0
11
586.74976
21
469.60522
31
0.0
0
LINE
8
0
10
586.74976
20
469.60522
30
0.0
11
576.50024
21
466.66446
31
0.0
0
LINE
8
0
10
576.50024
20
466.66446
30
0.0
11
566.8321
21
462.22803
31
0.0
0
LINE
8
0
10
566.8321
20
462.22803
30
0.0
11
557.9615
21
456.40353
31
0.0
0
LINE
8
0
10
557.9615
20
456.40353
30
0.0
11
550.08545
21
449.3296
31
0.0
0
LINE
8
0
10
550.08545
20
449.3296
30
0.0
11
543.3776
21
441.17236
31
0.0
0
LINE
8
0
10
543.3776
20
441.17236
30
0.0
11
537.98425
21
432.12183
31
0.0
0
LINE
8
0
10
537.98425
20
432.12183
30
0.0
11
534.0211
21
422.38666
31
0.0
0
LINE
8
0
10
534.0211
20
422.38666
30
0.0
11
531.5714
21
412.19168
31
0.0
0
LINE
8
0
10
531.5714
20
412.19168
30
0.0
11
530.6832
21
401.76892
31
0.0
0
LINE
8
0
10
530.6832
20
401.76892
30
0.0
11
531.3692
21
391.3566
31
0.0
0
LINE
8
0
10
531.3692
20
391.3566
30
0.0
11
533.6064
21
381.18942
31
0.0
0
LINE
8
0
10
533.6064
20
381.18942
30
0.0
11
537.33636
21
371.49753
31
0.0
0
LINE
8
0
10
537.33636
20
371.49753
30
0.0
11
542.4679
21
362.49716
31
0.0
0
LINE
8
0
10
542.4679
20
362.49716
30
0.0
11
548.8776
21
354.38977
31
0.0
0
LINE
8
0
10
548.8776
20
354.38977
30
0.0
11
556.4148
21
347.35385
31
0.0
0
LINE
8
0
10
556.4148
20
347.35385
30
0.0
11
564.9025
21
341.54437
31
0.0
0
LINE
8
0
10
564.9025
20
341.54437
30
0.0
11
574.14496
21
337.0864
31
0.0
0
LINE
8
0
10
574.14496
20
337.0864
30
0.0
11
583.92816
21
334.0749
31
0.0
0
LINE
8
0
10
583.92816
20
334.0749
30
0.0
11
594.029
21
332.5708
31
0.0
0
LINE
8
0
10
594.029
20
332.5708
30
0.0
11
604.21606
21
332.60114
31
0.0
0
LINE
8
0
10
604.21606
20
332.60114
30
0.0
11
614.2594
21
334.15784
31
0.0
0
LINE
8
0
10
614.2594
20
334.15784
30
0.0
11
623.9311
21
337.1982
31
0.0
0
LINE
8
0
10
623.9311
20
337.1982
30
0.0
11
633.0149
21
341.64655
31
0.0
0
LINE
8
0
10
633.0149
20
341.64655
30
0.0
11
641.30695
21
347.39493
31
0.0
0
LINE
8
0
10
641.30695
20
347.39493
30
0.0
11
648.6241
21
354.3075
31
0.0
0
LINE
8
0
10
648.6241
20
354.3075
30
0.0
11
654.80457
21
362.2214
31
0.0
0
LINE
8
0
10
654.80457
20
362.2214
30
0.0
11
659.7145
21
370.95343
31
0.0
0
LINE
8
0
10
659.7145
20
370.95343
30
0.0
11
663.24817
21
380.301
31
0.0
0
LINE
8
0
10
663.24817
20
380.301
30
0.0
11
665.3326
21
390.05038
31
0.0
0
LINE
8
0
10
665.3326
20
390.05038
30
0.0
11
665.92725
21
399.97787
31
0.0
0
LINE
8
0
10
665.92725
20
399.97787
30
0.0
11
665.02594
21
409.85876
31
0.0
0
LINE
8
0
10
665.02594
20
409.85876
30
0.0
11
662.65625
21
419.46854
31
0.0
0
LINE
8
0
10
662.65625
20
419.46854
30
0.0
11
658.8787
21
428.59174
31
0.0
0
LINE
8
0
10
658.8787
20
428.59174
30
0.0
11
653.786
21
437.02322
31
0.0
0
LINE
8
0
10
653.786
20
437.02322
30
0.0
11
647.49927
21
444.57617
31
0.0
0
LINE
8
0
10
647.49927
20
444.57617
30
0.0
11
640.1672
21
451.08295
31
0.0
0
LINE
8
0
10
640.1672
20
451.08295
30
0.0
11
631.96014
21
456.4019
31
0.0
0
LINE
8
0
10
631.96014
20
456.4019
30
0.0
11
623.06903
21
460.41766
31
0.0
0
LINE
8
0
10
623.06903
20
460.41766
30
0.0
11
613.69763
21
463.04602
31
0.0
0
LINE
8
0
10
613.69763
20
463.04602
30
0.0
11
604.06134
21
464.23373
31
0.0
0
LINE
8
0
10
604.06134
20
464.23373
30
0.0
11
594.37885
21
463.961
31
0.0
0
LINE
8
0
10
594.37885
20
463.961
30
0.0
11
584.87054
21
462.24103
31
0.0
0
LINE
8
0
10
584.87054
20
462.24103
30
0.0
11
575.75
21
459.11948
31
0.0
0
LINE
8
0
10
575.75
20
459.11948
30
0.0
11
567.2229
21
454.67413
31
0.0
0
LINE
8
0
10
567.2229
20
454.67413
30
0.0
11
559.4786
21
449.01154
31
0.0
0
LINE
8
0
10
559.4786
20
449.01154
30
0.0
11
552.6895
21
442.2664
31
0.0
0
LINE
8
0
10
552.6895
20
442.2664
30
0.0
11
547.0042
21
434.59595
31
0.0
0
LINE
8
0
10
547.0042
20
434.59595
30
0.0
11
542.5467
21
426.1791
31
0.0
0
LINE
8
0
10
542.5467
20
426.1791
30
0.0
11
539.41156
21
417.2093
31
0.0
0
LINE
8
0
10
539.41156
20
417.2093
30
0.0
11
537.6638
21
407.89316
31
0.0
0
LINE
8
0
10
537.6638
20
407.89316
30
0.0
11
537.33624
21
398.44247
31
0.0
0
LINE
8
0
10
537.33624
20
398.44247
30
0.0
11
538.42944
21
389.0728
31
0.0
0
LINE
8
0
10
538.42944
20
389.0728
30
0.0
11
540.912
21
379.99512
31
0.0
0
LINE
8
0
10
540.912
20
379.99512
30
0.0
11
544.7207
21
371.41446
31
0.0
0
LINE
8
0
10
544.7207
20
371.41446
30
0.0
11
549.7634
21
363.52194
31
0.0
0
LINE
8
0
10
549.7634
20
363.52194
30
0.0
11
555.91943
21
356.4938
31
0.0
0
LINE
8
0
10
555.91943
20
356.4938
30
0.0
11
563.0446
21
350.48438
31
0.0
0
LINE
8
0
10
563.0446
20
350.48438
30
0.0
11
570.9723
21
345.62552
31
0.0
0
LINE
8
0
10
570.9723
20
345.62552
30
0.0
11
579.5198
21
342.0212
31
0.0
0
LINE
8
0
10
579.5198
20
342.0212
30
0.0
11
588.4897
21
339.7475
31
0.0
0
LINE
8
0
10
588.4897
20
339.7475
30
0.0
11
597.67773
21
338.8492
31
0.0
0
LINE
8
0
10
597.67773
20
338.8492
30
0.0
11
606.87384
21
339.3402
31
0.0
0
LINE
8
0
10
606.87384
20
339.3402
30
0.0
11
615.87067
21
341.2028
31
0.0
0
LINE
8
0
10
615.87067
20
341.2028
30
0.0
11
624.4645
21
344.38797
31
0.0
0
LINE
8
0
10
624.4645
20
344.38797
30
0.0
11
632.46344
21
348.8176
31
0.0
0
LINE
8
0
10
632.46344
20
348.8176
30
0.0
11
639.6884
21
354.38495
31
0.0
0
LINE
8
0
10
639.6884
20
354.38495
30
0.0
11
645.98016
21
360.959
31
0.0
0
LINE
8
0
10
645.98016
20
360.959
30
0.0
11
651.2004
21
368.38583
31
0.0
0
LINE
8
0
10
651.2004
20
368.38583
30
0.0
11
655.23566
21
376.49268
31
0.0
0
LINE
8
0
10
655.23566
20
376.49268
30
0.0
11
658.0008
21
385.09348
31
0.0
0
LINE
8
0
10
658.0008
20
385.09348
30
0.0
11
659.4389
21
393.9902
31
0.0
0
LINE
8
0
10
659.4389
20
393.9902
30
0.0
11
659.524
21
402.98083
31
0.0
0
LINE
8
0
10
659.524
20
402.98083
30
0.0
11
658.26056
21
411.86044
31
0.0
0
LINE
8
0
10
658.26056
20
411.86044
30
0.0
11
655.6836
21
420.42926
31
0.0
0
LINE
8
0
10
655.6836
20
420.42926
30
0.0
11
651.858
21
428.4939
31
0.0
0
LINE
8
0
10
651.858
20
428.4939
30
0.0
11
646.876
21
435.8749
31
0.0
0
LINE
8
0
10
646.876
20
435.8749
30
0.0
11
640.85645
21
442.40768
31
0.0
0
LINE
8
0
10
640.85645
20
442.40768
30
0.0
11
633.9401
21
447.94897
31
0.0
0
LINE
8
0
10
633.9401
20
447.94897
30
0.0
11
626.28864
21
452.37744
31
0.0
0
LINE
8
0
10
626.28864
20
452.37744
30
0.0
11
618.078
21
455.59863
31
0.0
0
LINE
8
0
10
618.078
20
455.59863
30
0.0
11
609.49774
21
457.545
31
0.0
0
LINE
8
0
10
609.49774
20
457.545
30
0.0
11
600.7431
21
458.17883
31
0.0
0
LINE
8
0
10
600.7431
20
458.17883
30
0.0
11
592.01404
21
457.49194
31
0.0
0
LINE
8
0
10
592.01404
20
457.49194
30
0.0
11
583.5072
21
455.50616
31
0.0
0
LINE
8
0
10
583.5072
20
455.50616
30
0.0
11
575.41516
21
452.27292
31
0.0
0
LINE
8
0
10
575.41516
20
452.27292
30
0.0
11
567.91833
21
447.87106
31
0.0
0
LINE
8
0
10
567.91833
20
447.87106
30
0.0
11
561.1844
21
442.40637
31
0.0
0
LINE
8
0
10
561.1844
20
442.40637
30
0.0
11
555.3615
21
436.0071
31
0.0
0
LINE
8
0
10
555.3615
20
436.0071
30
0.0
11
550.5778
21
428.8234
31
0.0
0
LINE
8
0
10
550.5778
20
428.8234
30
0.0
11
546.93616
21
421.02094
31
0.0
0
LINE
8
0
10
546.93616
20
421.02094
30
0.0
11
544.514
21
412.78015
31
0.0
0
LINE
8
0
10
544.514
20
412.78015
30
0.0
11
543.36
21
404.28903
31
0.0
0
LINE
8
0
10
543.36
20
404.28903
30
0.0
11
543.4944
21
395.7419
31
0.0
0
LINE
8
0
10
543.4944
20
395.7419
30
0.0
11
544.9079
21
387.3318
31
0.0
0
LINE
8
0
10
544.9079
20
387.3318
30
0.0
11
547.5623
21
379.2493
31
0.0
0
LINE
8
0
10
547.5623
20
379.2493
30
0.0
11
551.3918
21
371.67514
31
0.0
0
LINE
8
0
10
551.3918
20
371.67514
30
0.0
11
556.3036
21
364.77917
31
0.0
0
LINE
8
0
10
556.3036
20
364.77917
30
0.0
11
562.18176
21
358.71365
31
0.0
0
LINE
8
0
10
562.18176
20
358.71365
30
0.0
11
568.888
21
353.61255
31
0.0
0
LINE
8
0
10
568.888
20
353.61255
30
0.0
11
576.267
21
349.5863
31
0.0
0
LINE
8
0
10
576.267
20
349.5863
30
0.0
11
584.1479
21
346.7213
31
0.0
0
LINE
8
0
10
584.1479
20
346.7213
30
0.0
11
592.35034
21
345.0766
31
0.0
0
LINE
8
0
10
592.35034
20
345.0766
30
0.0
11
600.6863
21
344.68378
31
0.0
0
LINE
8
0
10
600.6863
20
344.68378
30
0.0
11
608.96716
21
345.5457
31
0.0
0
LINE
8
0
10
608.96716
20
345.5457
30
0.0
11
617.0049
21
347.63672
31
0.0
0
LINE
8
0
10
617.0049
20
347.63672
30
0.0
11
624.61926
21
350.90378
31
0.0
0
LINE
8
0
10
624.61926
20
350.90378
30
0.0
11
631.6392
21
355.26694
31
0.0
0
LINE
8
0
10
631.6392
20
355.26694
30
0.0
11
637.90924
21
360.62256
31
0.0
0
LINE
8
0
10
637.90924
20
360.62256
30
0.0
11
643.29034
21
366.8441
31
0.0
0
LINE
8
0
10
643.29034
20
366.8441
30
0.0
11
647.66547
21
373.78702
31
0.0
0
LINE
8
0
10
647.66547
20
373.78702
30
0.0
11
650.9398
21
381.28998
31
0.0
0
LINE
8
0
10
650.9398
20
381.28998
30
0.0
11
653.0449
21
389.18115
31
0.0
0
LINE
8
0
10
653.0449
20
389.18115
30
0.0
11
653.9385
21
397.27908
31
0.0
0
LINE
8
0
10
653.9385
20
397.27908
30
0.0
11
653.6061
21
405.40024
31
0.0
0
LINE
8
0
10
653.6061
20
405.40024
30
0.0
11
652.0613
21
413.35974
31
0.0
0
LINE
8
0
10
652.0613
20
413.35974
30
0.0
11
649.34467
21
420.9789
31
0.0
0
LINE
8
0
10
649.34467
20
420.9789
30
0.0
11
645.5236
21
428.08603
31
0.0
0
LINE
8
0
10
645.5236
20
428.08603
30
0.0
11
640.6897
21
434.52332
31
0.0
0
LINE
8
0
10
640.6897
20
434.52332
30
0.0
11
634.9576
21
440.14752
31
0.0
0
LINE
8
0
10
634.9576
20
440.14752
30
0.0
11
628.46094
21
444.83575
31
0.0
0
LINE
8
0
10
628.46094
20
444.83575
30
0.0
11
621.3512
21
448.48584
31
0.0
0
LINE
8
0
10
621.3512
20
448.48584
30
0.0
11
613.7916
21
451.02045
31
0.0
0
LINE
8
0
10
613.7916
20
451.02045
30
0.0
11
605.95624
21
452.38727
31
0.0
0
LINE
8
0
10
605.95624
20
452.38727
30
0.0
11
598.0232
21
452.5611
31
0.0
0
LINE
8
0
10
598.0232
20
452.5611
30
0.0
11
590.17334
21
451.54364
31
0.0
0
LINE
8
0
10
590.17334
20
451.54364
30
0.0
11
582.58325
21
449.36365
31
0.0
0
LINE
8
0
10
582.58325
20
449.36365
30
0.0
11
575.4244
21
446.0762
31
0.0
0
LINE
8
0
10
575.4244
20
446.0762
30
0.0
11
568.85614
21
441.76077
31
0.0
0
LINE
8
0
10
568.85614
20
441.76077
30
0.0
11
563.025
21
436.52045
31
0.0
0
LINE
8
0
10
563.025
20
436.52045
30
0.0
11
558.059
21
430.47784
31
0.0
0
LINE
8
0
10
558.059
20
430.47784
30
0.0
11
554.067
21
423.77423
31
0.0
0
LINE
8
0
10
554.067
20
423.77423
30
0.0
11
551.1342
21
416.56396
31
0.0
0
LINE
8
0
10
551.1342
20
416.56396
30
0.0
11
549.3223
21
409.0135
31
0.0
0
LINE
8
0
10
549.3223
20
409.0135
30
0.0
11
548.6669
21
401.2947
31
0.0
0
LINE
8
0
10
548.6669
20
401.2947
30
0.0
11
549.1772
21
393.58398
31
0.0
0
LINE
8
0
10
549.1772
20
393.58398
30
0.0
11
550.8361
21
386.05515
31
0.0
0
LINE
8
0
10
550.8361
20
386.05515
30
0.0
11
553.6005
21
378.8786
31
0.0
0
LINE
8
0
10
553.6005
20
378.8786
30
0.0
11
557.4027
21
372.21448
31
0.0
0
LINE
8
0
10
557.4027
20
372.21448
30
0.0
11
562.15125
21
366.21194
31
0.0
0
LINE
8
0
10
562.15125
20
366.21194
30
0.0
11
567.73444
21
361.00314
31
0.0
0
LINE
8
0
10
567.73444
20
361.00314
30
0.0
11
574.02136
21
356.70276
31
0.0
0
LINE
8
0
10
574.02136
20
356.70276
30
0.0
11
580.8668
21
353.40344
31
0.0
0
LINE
8
0
10
580.8668
20
353.40344
30
0.0
11
588.1125
21
351.1754
31
0.0
0
LINE
8
0
10
588.1125
20
351.1754
30
0.0
11
595.593
21
350.06378
31
0.0
0
LINE
8
0
10
595.593
20
350.06378
30
0.0
11
603.1371
21
350.0885
31
0.0
0
LINE
8
0
10
603.1371
20
350.0885
30
0.0
11
610.57434
21
351.24353
31
0.0
0
LINE
8
0
10
610.57434
20
351.24353
30
0.0
11
617.7361
21
353.49722
31
0.0
0
LINE
8
0
10
617.7361
20
353.49722
30
0.0
11
624.4621
21
356.79346
31
0.0
0
LINE
8
0
10
624.4621
20
356.79346
30
0.0
11
630.60156
21
361.05228
31
0.0
0
LINE
8
0
10
630.60156
20
361.05228
30
0.0
11
636.0188
21
366.173
31
0.0
0
LINE
8
0
10
636.0188
20
366.173
30
0.0
11
640.594
21
372.03503
31
0.0
0
LINE
8
0
10
640.594
20
372.03503
30
0.0
11
644.22815
21
378.50266
31
0.0
0
LINE
8
0
10
644.22815
20
378.50266
30
0.0
11
646.84296
21
385.42578
31
0.0
0
LINE
8
0
10
646.84296
20
385.42578
30
0.0
11
648.38446
21
392.64618
31
0.0
0
LINE
8
0
10
648.38446
20
392.64618
30
0.0
11
648.82263
21
399.99814
31
0.0
0
LINE
8
0
10
648.82263
20
399.99814
30
0.0
11
648.15295
21
407.31528
31
0.0
0
LINE
8
0
10
648.15295
20
407.31528
30
0.0
11
646.396
21
414.43127
31
0.0
0
LINE
8
0
10
646.396
20
414.43127
30
0.0
11
643.5965
21
421.18668
31
0.0
0
LINE
8
0
10
643.5965
20
421.18668
30
0.0
11
639.82324
21
427.4295
31
0.0
0
LINE
8
0
10
639.82324
20
427.4295
30
0.0
11
635.1659
21
433.02148
31
0.0
0
LINE
8
0
10
635.1659
20
433.02148
30
0.0
11
629.7347
21
437.83847
31
0.0
0
LINE
8
0
10
629.7347
20
437.83847
30
0.0
11
623.65576
21
441.77563
31
0.0
0
LINE
8
0
10
623.65576
20
441.77563
30
0.0
11
617.0705
21
444.74756
31
0.0
0
LINE
8
0
10
617.0705
20
444.74756
30
0.0
11
610.1299
21
446.69193
31
0.0
0
LINE
8
0
10
610.1299
20
446.69193
30
0.0
11
602.9935
21
447.5694
31
0.0
0
LINE
8
0
10
602.9935
20
447.5694
30
0.0
11
595.8231
21
447.3653
31
0.0
0
LINE
8
0
10
595.8231
20
447.3653
30
0.0
11
588.7821
21
446.08942
31
0.0
0
LINE
8
0
10
588.7821
20
446.08942
30
0.0
11
582.02856
21
443.77576
31
0.0
0
LINE
8
0
10
582.02856
20
443.77576
30
0.0
11
575.7148
21
440.48187
31
0.0
0
LINE
8
0
10
575.7148
20
440.48187
30
0.0
11
569.98096
21
436.2867
31
0.0
0
LINE
8
0
10
569.98096
20
436.2867
30
0.0
11
564.9548
21
431.29007
31
0.0
0
LINE
8
0
10
564.9548
20
431.29007
30
0.0
11
560.74615
21
425.60846
31
0.0
0
LINE
8
0
10
560.74615
20
425.60846
30
0.0
11
557.447
21
419.37436
31
0.0
0
LINE
8
0
10
557.447
20
419.37436
30
0.0
11
555.12726
21
412.73105
31
0.0
0
LINE
8
0
10
555.12726
20
412.73105
30
0.0
11
553.835
21
405.83157
31
0.0
0
LINE
8
0
10
553.835
20
405.83157
30
0.0
11
553.5945
21
398.83276
31
0.0
0
LINE
8
0
10
553.5945
20
398.83276
30
0.0
11
554.40625
21
391.89392
31
0.0
0
LINE
8
0
10
554.40625
20
391.89392
30
0.0
11
556.2466
21
385.1723
31
0.0
0
LINE
8
0
10
556.2466
20
385.1723
30
0.0
11
559.0692
21
378.8184
31
0.0
0
LINE
8
0
10
559.0692
20
378.8184
30
0.0
11
562.8052
21
372.97498
31
0.0
0
LINE
8
0
10
562.8052
20
372.97498
30
0.0
11
567.36584
21
367.7714
31
0.0
0
LINE
8
0
10
567.36584
20
367.7714
30
0.0
11
572.6435
21
363.32294
31
0.0
0
LINE
8
0
10
572.6435
20
363.32294
30
0.0
11
578.51575
21
359.72626
31
0.0
0
LINE
8
0
10
578.51575
20
359.72626
30
0.0
11
584.84607
21
357.05914
31
0.0
0
LINE
8
0
10
584.84607
20
357.05914
30
0.0
11
591.4896
21
355.37723
31
0.0
0
LINE
8
0
10
591.4896
20
355.37723
30
0.0
11
598.2937
21
354.71408
31
0.0
0
LINE
8
0
10
598.2937
20
354.71408
30
0.0
11
605.1042
21
355.07977
31
0.0
0
LINE
8
0
10
605.1042
20
355.07977
30
0.0
11
611.76605
21
356.46106
31
0.0
0
LINE
8
0
10
611.76605
20
356.46106
30
0.0
11
618.1298
21
358.82187
31
0.0
0
LINE
8
0
10
618.1298
20
358.82187
30
0.0
11
624.0522
21
362.10388
31
0.0
0
LINE
8
0
10
624.0522
20
362.10388
30
0.0
11
629.4017
21
366.2286
31
0.0
0
LINE
8
0
10
629.4017
20
366.2286
30
0.0
11
634.0593
21
371.0982
31
0.0
0
LINE
8
0
10
634.0593
20
371.0982
30
0.0
11
637.9235
21
376.59933
31
0.0
0
LINE
8
0
10
637.9235
20
376.59933
30
0.0
11
640.9101
21
382.60376
31
0.0
0
LINE
8
0
10
640.9101
20
382.60376
30
0.0
11
642.95593
21
388.9737
31
0.0
0
LINE
8
0
10
642.95593
20
388.9737
30
0.0
11
644.019
21
395.56253
31
0.0
0
LINE
8
0
10
644.019
20
395.56253
30
0.0
11
644.08
21
402.22058
31
0.0
0
LINE
8
0
10
644.08
20
402.22058
30
0.0
11
643.1424
21
408.7961
31
0.0
0
LINE
8
0
10
643.1424
20
408.7961
30
0.0
11
641.2321
21
415.1412
31
0.0
0
LINE
8
0
10
641.2321
20
415.1412
30
0.0
11
638.3973
21
421.11267
31
0.0
0
LINE
8
0
10
638.3973
20
421.11267
30
0.0
11
634.70624
21
426.5776
31
0.0
0
LINE
8
0
10
634.70624
20
426.5776
30
0.0
11
630.247
21
431.41412
31
0.0
0
LINE
8
0
10
630.247
20
431.41412
30
0.0
11
625.1239
21
435.51624
31
0.0
0
LINE
8
0
10
625.1239
20
435.51624
30
0.0
11
619.4566
21
438.79407
31
0.0
0
LINE
8
0
10
619.4566
20
438.79407
30
0.0
11
613.3755
21
441.17773
31
0.0
0
LINE
8
0
10
613.3755
20
441.17773
30
0.0
11
607.02094
21
442.61722
31
0.0
0
LINE
8
0
10
607.02094
20
442.61722
30
0.0
11
600.5375
21
443.08466
31
0.0
0
LINE
8
0
10
600.5375
20
443.08466
30
0.0
11
594.0733
21
442.57407
31
0.0
0
LINE
8
0
10
594.0733
20
442.57407
30
0.0
11
587.774
21
441.10162
31
0.0
0
LINE
8
0
10
587.774
20
441.10162
30
0.0
11
581.7821
21
438.70544
31
0.0
0
LINE
8
0
10
581.7821
20
438.70544
30
0.0
11
576.23126
21
435.444
31
0.0
0
LINE
8
0
10
576.23126
20
435.444
30
0.0
11
571.2456
21
431.3956
31
0.0
0
LINE
8
0
10
571.2456
20
431.3956
30
0.0
11
566.9349
21
426.65533
31
0.0
0
LINE
8
0
10
566.9349
20
426.65533
30
0.0
11
563.3939
21
421.33435
31
0.0
0
LINE
8
0
10
563.3939
20
421.33435
30
0.0
11
560.6988
21
415.55542
31
0.0
0
LINE
8
0
10
560.6988
20
415.55542
30
0.0
11
558.90686
21
409.45215
31
0.0
0
LINE
8
0
10
558.90686
20
409.45215
30
0.0
11
558.05414
21
403.1638
31
0.0
0
LINE
8
0
10
558.05414
20
403.1638
30
0.0
11
558.1555
21
396.8342
31
0.0
0
LINE
8
0
10
558.1555
20
396.8342
30
0.0
11
559.20416
21
390.60638
31
0.0
0
LINE
8
0
10
559.20416
20
390.60638
30
0.0
11
561.1717
21
384.62146
31
0.0
0
LINE
8
0
10
561.1717
20
384.62146
30
0.0
11
564.0093
21
379.0132
31
0.0
0
LINE
8
0
10
564.0093
20
379.0132
30
0.0
11
567.64825
21
373.90747
31
0.0
0
LINE
8
0
10
567.64825
20
373.90747
30
0.0
11
572.0027
21
369.41693
31
0.0
0
LINE
8
0
10
572.0027
20
369.41693
30
0.0
11
576.97015
21
365.64078
31
0.0
0
LINE
8
0
10
576.97015
20
365.64078
30
0.0
11
582.4356
21
362.66074
31
0.0
0
LINE
8
0
10
582.4356
20
362.66074
30
0.0
11
588.2724
21
360.5408
31
0.0
0
LINE
8
0
10
588.2724
20
360.5408
30
0.0
11
594.3471
21
359.32465
31
0.0
0
LINE
8
0
10
594.3471
20
359.32465
30
0.0
11
600.52045
21
359.03555
31
0.0
0
LINE
8
0
10
600.52045
20
359.03555
30
0.0
11
606.65265
21
359.67566
31
0.0
0
LINE
8
0
10
606.65265
20
359.67566
30
0.0
11
612.60455
21
361.22595
31
0.0
0
LINE
8
0
10
612.60455
20
361.22595
30
0.0
11
618.2427
21
363.64706
31
0.0
0
LINE
8
0
10
618.2427
20
363.64706
30
0.0
11
623.44037
21
366.87976
31
0.0
0
LINE
8
0
10
623.44037
20
366.87976
30
0.0
11
628.0825
21
370.8473
31
0.0
0
LINE
8
0
10
628.0825
20
370.8473
30
0.0
11
632.0661
21
375.4558
31
0.0
0
LINE
8
0
10
632.0661
20
375.4558
30
0.0
11
635.30457
21
380.5984
31
0.0
0
LINE
8
0
10
635.30457
20
380.5984
30
0.0
11
637.7278
21
386.1555
31
0.0
0
LINE
8
0
10
637.7278
20
386.1555
30
0.0
11
639.285
21
391.99976
31
0.0
0
LINE
8
0
10
639.285
20
391.99976
30
0.0
11
639.9449
21
397.99692
31
0.0
0
LINE
8
0
10
639.9449
20
397.99692
30
0.0
11
639.69696
21
404.011
31
0.0
0
LINE
8
0
10
639.69696
20
404.011
30
0.0
11
638.5512
21
409.90506
31
0.0
0
LINE
8
0
10
638.5512
20
409.90506
30
0.0
11
636.5377
21
415.54688
31
0.0
0
LINE
8
0
10
636.5377
20
415.54688
30
0.0
11
633.7065
21
420.80923
31
0.0
0
LINE
8
0
10
633.7065
20
420.80923
30
0.0
11
630.12524
21
425.57532
31
0.0
0
LINE
8
0
10
630.12524
20
425.57532
30
0.0
11
625.8791
21
429.73907
31
0.0
0
LINE
8
0
10
625.8791
20
429.73907
30
0.0
11
621.06696
21
433.20953
31
0.0
0
LINE
8
0
10
621.06696
20
433.20953
30
0.0
11
615.801
21
435.91104
31
0.0
0
LINE
8
0
10
615.801
20
435.91104
30
0.0
11
610.20215
21
437.78638
31
0.0
0
LINE
8
0
10
610.20215
20
437.78638
30
0.0
11
604.39935
21
438.79688
31
0.0
0
LINE
8
0
10
604.39935
20
438.79688
30
0.0
11
598.5245
21
438.92383
31
0.0
0
LINE
8
0
10
598.5245
20
438.92383
30
0.0
11
592.7115
21
438.16864
31
0.0
0
LINE
8
0
10
592.7115
20
438.16864
30
0.0
11
587.09106
21
436.55255
31
0.0
0
LINE
8
0
10
587.09106
20
436.55255
30
0.0
11
581.79034
21
434.11646
31
0.0
0
LINE
8
0
10
581.79034
20
434.11646
30
0.0
11
576.9271
21
430.9192
31
0.0
0
LINE
8
0
10
576.9271
20
430.9192
30
0.0
11
572.61005
21
427.03717
31
0.0
0
LINE
8
0
10
572.61005
20
427.03717
30
0.0
11
568.9338
21
422.56122
31
0.0
0
LINE
8
0
10
568.9338
20
422.56122
30
0.0
11
565.97894
21
417.59595
31
0.0
0
LINE
8
0
10
565.97894
20
417.59595
30
0.0
11
563.80865
21
412.25574
31
0.0
0
LINE
8
0
10
563.80865
20
412.25574
30
0.0
11
562.4685
21
406.66382
31
0.0
0
LINE
8
0
10
562.4685
20
406.66382
30
0.0
11
561.9848
21
400.94748
31
0.0
0
LINE
8
0
10
561.9848
20
400.94748
30
0.0
11
562.36444
21
395.2374
31
0.0
0
LINE
8
0
10
562.36444
20
395.2374
30
0.0
11
563.5946
21
389.66226
31
0.0
0
LINE
8
0
10
563.5946
20
389.66226
30
0.0
11
565.6434
21
384.34827
31
0.0
0
LINE
8
0
10
565.6434
20
384.34827
30
0.0
11
568.4606
21
379.41397
31
0.0
0
LINE
8
0
10
568.4606
20
379.41397
30
0.0
11
571.9784
21
374.96982
31
0.0
0
LINE
8
0
10
571.9784
20
374.96982
30
0.0
11
576.11426
21
371.11365
31
0.0
0
LINE
8
0
10
576.11426
20
371.11365
30
0.0
11
580.771
21
367.9304
31
0.0
0
LINE
8
0
10
580.771
20
367.9304
30
0.0
11
585.8411
21
365.48856
31
0.0
0
LINE
8
0
10
585.8411
20
365.48856
30
0.0
11
591.2074
21
363.84018
31
0.0
0
LINE
8
0
10
591.2074
20
363.84018
30
0.0
11
596.7474
21
363.01862
31
0.0
0
LINE
8
0
10
596.7474
20
363.01862
30
0.0
11
602.33417
21
363.03857
31
0.0
0
LINE
8
0
10
602.33417
20
363.03857
30
0.0
11
607.8416
21
363.8956
31
0.0
0
LINE
8
0
10
607.8416
20
363.8956
30
0.0
11
613.1448
21
365.56613
31
0.0
0
LINE
8
0
10
613.1448
20
365.56613
30
0.0
11
618.125
21
368.00867
31
0.0
0
LINE
8
0
10
618.125
20
368.00867
30
0.0
11
622.67065
21
371.16388
31
0.0
0
LINE
8
0
10
622.67065
20
371.16388
30
0.0
11
626.6813
21
374.95724
31
0.0
0
LINE
8
0
10
626.6813
20
374.95724
30
0.0
11
630.0682
21
379.2994
31
0.0
0
LINE
8
0
10
630.0682
20
379.2994
30
0.0
11
632.758
21
384.0898
31
0.0
0
LINE
8
0
10
632.758
20
384.0898
30
0.0
11
634.69293
21
389.21735
31
0.0
0
LINE
8
0
10
634.69293
20
389.21735
30
0.0
11
635.8329
21
394.56476
31
0.0
0
LINE
8
0
10
635.8329
20
394.56476
30
0.0
11
636.15576
21
400.0094
31
0.0
0
LINE
8
0
10
636.15576
20
400.0094
30
0.0
11
635.6582
21
405.42798
31
0.0
0
LINE
8
0
10
635.6582
20
405.42798
30
0.0
11
634.3555
21
410.69736
31
0.0
0
LINE
8
0
10
634.3555
20
410.69736
30
0.0
11
632.2809
21
415.69946
31
0.0
0
LINE
8
0
10
632.2809
20
415.69946
30
0.0
11
629.48517
21
420.32178
31
0.0
0
LINE
8
0
10
629.48517
20
420.32178
30
0.0
11
626.0349
21
424.4619
31
0.0
0
LINE
8
0
10
626.0349
20
424.4619
30
0.0
11
622.01154
21
428.02814
31
0.0
0
LINE
8
0
10
622.01154
20
428.02814
30
0.0
11
617.50916
21
430.9423
31
0.0
0
LINE
8
0
10
617.50916
20
430.9423
30
0.0
11
612.63153
21
433.1418
31
0.0
0
LINE
8
0
10
612.63153
20
433.1418
30
0.0
11
607.49146
21
434.58008
31
0.0
0
LINE
8
0
10
607.49146
20
434.58008
30
0.0
11
602.2061
21
435.22833
31
0.0
0
LINE
8
0
10
602.2061
20
435.22833
30
0.0
11
596.89636
21
435.0756
31
0.0
0
LINE
8
0
10
596.89636
20
435.0756
30
0.0
11
591.6821
21
434.12912
31
0.0
0
LINE
8
0
10
591.6821
20
434.12912
30
0.0
11
586.6816
21
432.4143
31
0.0
0
LINE
8
0
10
586.6816
20
432.4143
30
0.0
11
582.00635
21
429.97348
31
0.0
0
LINE
8
0
10
582.00635
20
429.97348
30
0.0
11
577.7613
21
426.86563
31
0.0
0
LINE
8
0
10
577.7613
20
426.86563
30
0.0
11
574.0401
21
423.16403
31
0.0
0
LINE
8
0
10
574.0401
20
423.16403
30
0.0
11
570.9248
21
418.95575
31
0.0
0
LINE
8
0
10
570.9248
20
418.95575
30
0.0
11
568.48285
21
414.3381
31
0.0
0
LINE
8
0
10
568.48285
20
414.3381
30
0.0
11
566.76654
21
409.41812
31
0.0
0
LINE
8
0
10
566.76654
20
409.41812
30
0.0
11
565.8111
21
404.30814
31
0.0
0
LINE
8
0
10
565.8111
20
404.30814
30
0.0
11
565.6345
21
399.12537
31
0.0
0
LINE
8
0
10
565.6345
20
399.12537
30
0.0
11
566.2372
21
393.98697
31
0.0
0
LINE
8
0
10
566.2372
20
393.98697
30
0.0
11
567.60156
21
389.00964
31
0.0
0
LINE
8
0
10
567.60156
20
389.00964
30
0.0
11
569.6933
21
384.30487
31
0.0
0
LINE
8
0
10
569.6933
20
384.30487
30
0.0
11
572.46124
21
379.97836
31
0.0
0
LINE
8
0
10
572.46124
20
379.97836
30
0.0
11
575.8398
21
376.12582
31
0.0
0
LINE
8
0
10
575.8398
20
376.12582
30
0.0
11
579.74915
21
372.83264
31
0.0
0
LINE
8
0
10
579.74915
20
372.83264
30
0.0
11
584.09863
21
370.1704
31
0.0
0
LINE
8
0
10
584.09863
20
370.1704
30
0.0
11
588.7872
21
368.1967
31
0.0
0
LINE
8
0
10
588.7872
20
368.1967
30
0.0
11
593.70746
21
366.9526
31
0.0
0
LINE
8
0
10
593.70746
20
366.9526
30
0.0
11
598.7464
21
366.463
31
0.0
0
LINE
8
0
10
598.7464
20
366.463
30
0.0
11
603.7898
21
366.73532
31
0.0
0
LINE
8
0
10
603.7898
20
366.73532
30
0.0
11
608.72296
21
367.7597
31
0.0
0
LINE
8
0
10
608.72296
20
367.7597
30
0.0
11
613.4352
21
369.5094
31
0.0
0
LINE
8
0
10
613.4352
20
369.5094
30
0.0
11
617.82025
21
371.94122
31
0.0
0
LINE
8
0
10
617.82025
20
371.94122
30
0.0
11
621.78094
21
374.99698
31
0.0
0
LINE
8
0
10
621.78094
20
374.99698
30
0.0
11
625.2291
21
378.60422
31
0.0
0
LINE
8
0
10
625.2291
20
378.60422
30
0.0
11
628.08954
21
382.67892
31
0.0
0
LINE
8
0
10
628.08954
20
382.67892
30
0.0
11
630.2999
21
387.12616
31
0.0
0
LINE
8
0
10
630.2999
20
387.12616
30
0.0
11
631.8136
21
391.8439
31
0.0
0
LINE
8
0
10
631.8136
20
391.8439
30
0.0
11
632.59937
21
396.7235
31
0.0
0
LINE
8
0
10
632.59937
20
396.7235
30
0.0
11
632.64307
21
401.65417
31
0.0
0
LINE
8
0
10
632.64307
20
401.65417
30
0.0
11
631.9473
21
406.5235
31
0.0
0
LINE
8
0
10
631.9473
20
406.5235
30
0.0
11
630.53125
21
411.22195
31
0.0
0
LINE
8
0
10
630.53125
20
411.22195
30
0.0
11
628.43054
21
415.64352
31
0.0
0
LINE
8
0
10
628.43054
20
415.64352
30
0.0
11
625.6959
21
419.68976
31
0.0
0
LINE
8
0
10
625.6959
20
419.68976
30
0.0
11
622.3926
21
423.2705
31
0.0
0
LINE
8
0
10
622.3926
20
423.2705
30
0.0
11
618.5977
21
426.3072
31
0.0
0
LINE
8
0
10
618.5977
20
426.3072
30
0.0
11
614.4001
21
428.73334
31
0.0
0
LINE
8
0
10
614.4001
20
428.73334
30
0.0
11
609.8962
21
430.49722
31
0.0
0
LINE
8
0
10
609.8962
20
430.49722
30
0.0
11
605.18994
21
431.56186
31
0.0
0
LINE
8
0
10
605.18994
20
431.56186
30
0.0
11
600.38855
21
431.9066
31
0.0
0
LINE
8
0
10
600.38855
20
431.9066
30
0.0
11
595.60156
21
431.52704
31
0.0
0
LINE
8
0
10
595.60156
20
431.52704
30
0.0
11
590.93695
21
430.43524
31
0.0
0
LINE
8
0
10
590.93695
20
430.43524
30
0.0
11
586.5001
21
428.65942
31
0.0
0
LINE
8
0
10
586.5001
20
428.65942
30
0.0
11
582.3902
21
426.24292
31
0.0
0
LINE
8
0
10
582.3902
20
426.24292
30
0.0
11
578.6989
21
423.24377
31
0.0
0
LINE
8
0
10
578.6989
20
423.24377
30
0.0
11
575.5076
21
419.73242
31
0.0
0
LINE
8
0
10
575.5076
20
419.73242
30
0.0
11
572.88654
21
415.79114
31
0.0
0
LINE
8
0
10
572.88654
20
415.79114
30
0.0
11
570.89197
21
411.51096
31
0.0
0
LINE
8
0
10
570.89197
20
411.51096
30
0.0
11
569.5663
21
406.99075
31
0.0
0
LINE
8
0
10
569.5663
20
406.99075
30
0.0
11
568.93616
21
402.3337
31
0.0
0
LINE
8
0
10
568.93616
20
402.3337
30
0.0
11
569.01263
21
397.64633
31
0.0
0
LINE
8
0
10
569.01263
20
397.64633
30
0.0
11
569.7906
21
393.03455
31
0.0
0
LINE
8
0
10
569.7906
20
393.03455
30
0.0
11
571.24896
21
388.6028
31
0.0
0
LINE
8
0
10
571.24896
20
388.6028
30
0.0
11
573.35156
21
384.45026
31
0.0
0
LINE
8
0
10
573.35156
20
384.45026
30
0.0
11
576.04755
21
380.66998
31
0.0
0
LINE
8
0
10
576.04755
20
380.66998
30
0.0
11
579.27325
21
377.34546
31
0.0
0
LINE
8
0
10
579.27325
20
377.34546
30
0.0
11
582.95276
21
374.5501
31
0.0
0
LINE
8
0
10
582.95276
20
374.5501
30
0.0
11
587.00085
21
372.34442
31
0.0
0
LINE
8
0
10
587.00085
20
372.34442
30
0.0
11
591.3238
21
370.7758
31
0.0
0
LINE
8
0
10
591.3238
20
370.7758
30
0.0
11
595.8227
21
369.8765
31
0.0
0
LINE
8
0
10
595.8227
20
369.8765
30
0.0
11
600.3944
21
369.6638
31
0.0
0
LINE
8
0
10
600.3944
20
369.6638
30
0.0
11
604.93555
21
370.13916
31
0.0
0
LINE
8
0
10
604.93555
20
370.13916
30
0.0
11
609.3429
21
371.28854
31
0.0
0
LINE
8
0
10
609.3429
20
371.28854
30
0.0
11
613.5177
21
373.08273
31
0.0
0
LINE
8
0
10
613.5177
20
373.08273
30
0.0
11
617.36615
21
375.47787
31
0.0
0
LINE
8
0
10
617.36615
20
375.47787
30
0.0
11
620.803
21
378.41705
31
0.0
0
LINE
8
0
10
620.803
20
378.41705
30
0.0
11
623.7521
21
381.8308
31
0.0
0
LINE
8
0
10
623.7521
20
381.8308
30
0.0
11
626.1492
21
385.63986
31
0.0
0
LINE
8
0
10
626.1492
20
385.63986
30
0.0
11
627.94244
21
389.7557
31
0.0
0
LINE
8
0
10
627.94244
20
389.7557
30
0.0
11
629.09436
21
394.08405
31
0.0
0
LINE
8
0
10
629.09436
20
394.08405
30
0.0
11
629.5817
21
398.5254
31
0.0
0
LINE
8
0
10
629.5817
20
398.5254
30
0.0
11
629.39685
21
402.9791
31
0.0
0
LINE
8
0
10
629.39685
20
402.9791
30
0.0
11
628.547
21
407.34372
31
0.0
0
LINE
8
0
10
628.547
20
407.34372
30
0.0
11
627.0547
21
411.52133
31
0.0
0
LINE
8
0
10
627.0547
20
411.52133
30
0.0
11
624.95685
21
415.41776
31
0.0
0
LINE
8
0
10
624.95685
20
415.41776
30
0.0
11
622.3037
21
418.9465
31
0.0
0
LINE
8
0
10
622.3037
20
418.9465
30
0.0
11
619.1583
21
422.02905
31
0.0
0
LINE
8
0
10
619.1583
20
422.02905
30
0.0
11
615.5939
21
424.59805
31
0.0
0
LINE
8
0
10
615.5939
20
424.59805
30
0.0
11
611.69354
21
426.5975
31
0.0
0
LINE
8
0
10
611.69354
20
426.5975
30
0.0
11
607.54694
21
427.98508
31
0.0
0
LINE
8
0
10
607.54694
20
427.98508
30
0.0
11
603.24945
21
428.7321
31
0.0
0
LINE
8
0
10
603.24945
20
428.7321
30
0.0
11
598.89874
21
428.82483
31
0.0
0
LINE
8
0
10
598.89874
20
428.82483
30
0.0
11
594.59406
21
428.26428
31
0.0
0
LINE
8
0
10
594.59406
20
428.26428
30
0.0
11
590.4322
21
427.06625
31
0.0
0
LINE
8
0
10
590.4322
20
427.06625
30
0.0
11
586.50726
21
425.26102
31
0.0
0
LINE
8
0
10
586.50726
20
425.26102
30
0.0
11
582.9065
21
422.8922
31
0.0
0
LINE
8
0
10
582.9065
20
422.8922
30
0.0
11
579.71014
21
420.01627
31
0.0
0
LINE
8
0
10
579.71014
20
420.01627
30
0.0
11
576.98895
21
416.7011
31
0.0
0
LINE
8
0
10
576.98895
20
416.7011
30
0.0
11
574.8017
21
413.02325
31
0.0
0
LINE
8
0
10
574.8017
20
413.02325
30
0.0
11
573.1957
21
409.06805
31
0.0
0
LINE
8
0
10
573.1957
20
409.06805
30
0.0
11
572.20447
21
404.92642
31
0.0
0
LINE
8
0
10
572.20447
20
404.92642
30
0.0
11
571.84753
21
400.69348
31
0.0
0
LINE
8
0
10
571.84753
20
400.69348
30
0.0
11
572.12994
21
396.46475
31
0.0
0
LINE
8
0
10
572.12994
20
396.46475
30
0.0
11
573.0422
21
392.33633
31
0.0
0
LINE
8
0
10
573.0422
20
392.33633
30
0.0
11
574.56067
21
388.4013
31
0.0
0
LINE
8
0
10
574.56067
20
388.4013
30
0.0
11
576.6478
21
384.74817
31
0.0
0
LINE
8
0
10
576.6478
20
384.74817
30
0.0
11
579.254
21
381.45764
31
0.0
0
LINE
8
0
10
579.254
20
381.45764
30
0.0
11
582.3177
21
378.60287
31
0.0
0
LINE
8
0
10
582.3177
20
378.60287
30
0.0
11
585.76715
21
376.2464
31
0.0
0
LINE
8
0
10
585.76715
20
376.2464
30
0.0
11
589.52203
21
374.43942
31
0.0
0
LINE
8
0
10
589.52203
20
374.43942
30
0.0
11
593.4966
21
373.21982
31
0.0
0
LINE
8
0
10
593.4966
20
373.21982
30
0.0
11
597.5994
21
372.6126
31
0.0
0
LINE
8
0
10
597.5994
20
372.6126
30
0.0
11
601.73694
21
372.62866
31
0.0
0
LINE
8
0
10
601.73694
20
372.62866
30
0.0
11
605.8153
21
373.26456
31
0.0
0
LINE
8
0
10
605.8153
20
373.26456
30
0.0
11
609.74194
21
374.5028
31
0.0
0
LINE
8
0
10
609.74194
20
374.5028
30
0.0
11
613.42957
21
376.3127
31
0.0
0
LINE
8
0
10
613.42957
20
376.3127
30
0.0
11
616.79535
21
378.65045
31
0.0
0
LINE
8
0
10
616.79535
20
378.65045
30
0.0
11
619.7645
21
381.46054
31
0.0
0
LINE
8
0
10
619.7645
20
381.46054
30
0.0
11
622.27167
21
384.67676
31
0.0
0
LINE
8
0
10
622.27167
20
384.67676
30
0.0
11
624.2626
21
388.22488
31
0.0
0
LINE
8
0
10
624.2626
20
388.22488
30
0.0
11
625.69434
21
392.0227
31
0.0
0
LINE
8
0
10
625.69434
20
392.0227
30
0.0
11
626.53735
21
395.98303
31
0.0
0
LINE
8
0
10
626.53735
20
395.98303
30
0.0
11
626.77527
21
400.01492
31
0.0
0
LINE
8
0
10
626.77527
20
400.01492
30
0.0
11
626.4056
21
404.02756
31
0.0
0
LINE
8
0
10
626.4056
20
404.02756
30
0.0
11
625.43964
21
407.92972
31
0.0
0
LINE
8
0
10
625.43964
20
407.92972
30
0.0
11
623.9021
21
411.63358
31
0.0
0
LINE
8
0
10
623.9021
20
411.63358
30
0.0
11
621.8308
21
415.05585
31
0.0
0
LINE
8
0
10
621.8308
20
415.05585
30
0.0
11
619.27484
21
418.12106
31
0.0
0
LINE
8
0
10
619.27484
20
418.12106
30
0.0
11
616.29456
21
420.76117
31
0.0
0
LINE
8
0
10
616.29456
20
420.76117
30
0.0
11
612.9594
21
422.91833
31
0.0
0
LINE
8
0
10
612.9594
20
422.91833
30
0.0
11
609.34717
21
424.54596
31
0.0
0
LINE
8
0
10
609.34717
20
424.54596
30
0.0
11
605.54016
21
425.61002
31
0.0
0
LINE
8
0
10
605.54016
20
425.61002
30
0.0
11
601.626
21
426.08893
31
0.0
0
LINE
8
0
10
601.626
20
426.08893
30
0.0
11
597.69366
21
425.9746
31
0.0
0
LINE
8
0
10
597.69366
20
425.9746
30
0.0
11
593.8329
21
425.27264
31
0.0
0
LINE
8
0
10
593.8329
20
425.27264
30
0.0
11
590.1298
21
424.0016
31
0.0
0
LINE
8
0
10
590.1298
20
424.0016
30
0.0
11
586.66815
21
422.19296
31
0.0
0
LINE
8
0
10
586.66815
20
422.19296
30
0.0
11
583.525
21
419.89038
31
0.0
0
LINE
8
0
10
583.525
20
419.89038
30
0.0
11
580.7703
21
417.14862
31
0.0
0
LINE
8
0
10
580.7703
20
417.14862
30
0.0
11
578.4641
21
414.03134
31
0.0
0
LINE
8
0
10
578.4641
20
414.03134
30
0.0
11
576.65674
21
410.61118
31
0.0
0
LINE
8
0
10
576.65674
20
410.61118
30
0.0
11
575.3867
21
406.9671
31
0.0
0
LINE
8
0
10
575.3867
20
406.9671
30
0.0
11
574.68036
21
403.18307
31
0.0
0
LINE
8
0
10
574.68036
20
403.18307
30
0.0
11
574.5508
21
399.3447
31
0.0
0
LINE
8
0
10
574.5508
20
399.3447
30
0.0
11
574.99817
21
395.53958
31
0.0
0
LINE
8
0
10
574.99817
20
395.53958
30
0.0
11
576.00977
21
391.85376
31
0.0
0
LINE
8
0
10
576.00977
20
391.85376
30
0.0
11
577.55963
21
388.37042
31
0.0
0
LINE
8
0
10
577.55963
20
388.37042
30
0.0
11
579.6105
21
385.16684
31
0.0
0
LINE
8
0
10
579.6105
20
385.16684
30
0.0
11
582.11334
21
382.31458
31
0.0
0
LINE
8
0
10
582.11334
20
382.31458
30
0.0
11
585.00934
21
379.87656
31
0.0
0
LINE
8
0
10
585.00934
20
379.87656
30
0.0
11
588.2306
21
377.90622
31
0.0
0
LINE
8
0
10
588.2306
20
377.90622
30
0.0
11
591.7033
21
376.4455
31
0.0
0
LINE
8
0
10
591.7033
20
376.4455
30
0.0
11
595.3473
21
375.52527
31
0.0
0
LINE
8
0
10
595.3473
20
375.52527
30
0.0
11
599.0792
21
375.16382
31
0.0
0
LINE
8
0
10
599.0792
20
375.16382
30
0.0
11
602.8137
21
375.36658
31
0.0
0
LINE
8
0
10
602.8137
20
375.36658
30
0.0
11
606.4669
21
376.12628
31
0.0
0
LINE
8
0
10
606.4669
20
376.12628
30
0.0
11
609.9562
21
377.42307
31
0.0
0
LINE
8
0
10
609.9562
20
377.42307
30
0.0
11
613.2032
21
379.225
31
0.0
0
LINE
8
0
10
613.2032
20
379.225
30
0.0
11
616.1353
21
381.48862
31
0.0
0
LINE
8
0
10
616.1353
20
381.48862
30
0.0
11
618.68823
21
384.16083
31
0.0
0
LINE
8
0
10
618.68823
20
384.16083
30
0.0
11
620.8056
21
387.17902
31
0.0
0
LINE
8
0
10
620.8056
20
387.17902
30
0.0
11
622.4416
21
390.4731
31
0.0
0
LINE
8
0
10
622.4416
20
390.4731
30
0.0
11
623.5614
21
393.96683
31
0.0
0
LINE
8
0
10
623.5614
20
393.96683
30
0.0
11
624.1423
21
397.58078
31
0.0
0
LINE
8
0
10
624.1423
20
397.58078
30
0.0
11
624.1736
21
401.2322
31
0.0
0
LINE
8
0
10
624.1736
20
401.2322
30
0.0
11
623.65717
21
404.83823
31
0.0
0
LINE
8
0
10
623.65717
20
404.83823
30
0.0
11
622.6076
21
408.31702
31
0.0
0
LINE
8
0
10
622.6076
20
408.31702
30
0.0
11
621.0509
21
411.5911
31
0.0
0
LINE
8
0
10
621.0509
20
411.5911
30
0.0
11
619.02484
21
414.58698
31
0.0
0
LINE
8
0
10
619.02484
20
414.58698
30
0.0
11
616.57764
21
417.2381
31
0.0
0
LINE
8
0
10
616.57764
20
417.2381
30
0.0
11
613.76697
21
419.48584
31
0.0
0
LINE
8
0
10
613.76697
20
419.48584
30
0.0
11
610.65765
21
421.28174
31
0.0
0
LINE
8
0
10
610.65765
20
421.28174
30
0.0
11
607.3219
21
422.58698
31
0.0
0
LINE
8
0
10
607.3219
20
422.58698
30
0.0
11
603.8363
21
423.3744
31
0.0
0
LINE
8
0
10
603.8363
20
423.3744
30
0.0
11
600.2809
21
423.6286
31
0.0
0
LINE
8
0
10
600.2809
20
423.6286
30
0.0
11
596.7358
21
423.34647
31
0.0
0
LINE
8
0
10
596.7358
20
423.34647
30
0.0
11
593.2816
21
422.5369
31
0.0
0
LINE
8
0
10
593.2816
20
422.5369
30
0.0
11
589.99615
21
421.22076
31
0.0
0
LINE
8
0
10
589.99615
20
421.22076
30
0.0
11
586.95337
21
419.43048
31
0.0
0
LINE
8
0
10
586.95337
20
419.43048
30
0.0
11
584.22034
21
417.20856
31
0.0
0
LINE
8
0
10
584.22034
20
417.20856
30
0.0
11
581.8578
21
414.60748
31
0.0
0
LINE
8
0
10
581.8578
20
414.60748
30
0.0
11
579.9175
21
411.68805
31
0.0
0
LINE
8
0
10
579.9175
20
411.68805
30
0.0
11
578.44147
21
408.51822
31
0.0
0
LINE
8
0
10
578.44147
20
408.51822
30
0.0
11
577.4607
21
405.17032
31
0.0
0
LINE
8
0
10
577.4607
20
405.17032
30
0.0
11
576.99506
21
401.72137
31
0.0
0
LINE
8
0
10
576.99506
20
401.72137
30
0.0
11
577.05273
21
398.25
31
0.0
0
LINE
8
0
10
577.05273
20
398.25
30
0.0
11
577.6298
21
394.8352
31
0.0
0
LINE
8
0
10
577.6298
20
394.8352
30
0.0
11
578.7109
21
391.55344
31
0.0
0
LINE
8
0
10
578.7109
20
391.55344
30
0.0
11
580.26886
21
388.47873
31
0.0
0
LINE
8
0
10
580.26886
20
388.47873
30
0.0
11
582.26636
21
385.6797
31
0.0
0
LINE
8
0
10
582.26636
20
385.6797
30
0.0
11
584.65564
21
383.21866
31
0.0
0
LINE
8
0
10
584.65564
20
383.21866
30
0.0
11
587.3812
21
381.14926
31
0.0
0
LINE
8
0
10
587.3812
20
381.14926
30
0.0
11
590.3795
21
379.51672
31
0.0
0
LINE
8
0
10
590.3795
20
379.51672
30
0.0
11
593.5814
21
378.35596
31
0.0
0
LINE
8
0
10
593.5814
20
378.35596
30
0.0
11
596.91296
21
377.69104
31
0.0
0
LINE
8
0
10
596.91296
20
377.69104
30
0.0
11
600.29877
21
377.53452
31
0.0
0
LINE
8
0
10
600.29877
20
377.53452
30
0.0
11
603.6616
21
377.88757
31
0.0
0
LINE
8
0
10
603.6616
20
377.88757
30
0.0
11
606.92505
21
378.73965
31
0.0
0
LINE
8
0
10
606.92505
20
378.73965
30
0.0
11
610.01605
21
380.0691
31
0.0
0
LINE
8
0
10
610.01605
20
380.0691
30
0.0
11
612.86566
21
381.84372
31
0.0
0
LINE
8
0
10
612.86566
20
381.84372
30
0.0
11
615.41
21
384.0208
31
0.0
0
LINE
8
0
10
615.41
20
384.0208
30
0.0
11
617.59314
21
386.54932
31
0.0
0
LINE
8
0
10
617.59314
20
386.54932
30
0.0
11
619.36743
21
389.3703
31
0.0
0
LINE
8
0
10
619.36743
20
389.3703
30
0.0
11
620.69464
21
392.41846
31
0.0
0
LINE
8
0
10
620.69464
20
392.41846
30
0.0
11
621.5469
21
395.6237
31
0.0
0
LINE
8
0
10
621.5469
20
395.6237
30
0.0
11
621.9071
21
398.913
31
0.0
0
LINE
8
0
10
621.9071
20
398.913
30
0.0
11
621.7694
21
402.21082
31
0.0
0
LINE
8
0
10
621.7694
20
402.21082
30
0.0
11
621.13947
21
405.44278
31
0.0
0
LINE
8
0
10
621.13947
20
405.44278
30
0.0
11
620.0338
21
408.53598
31
0.0
0
LINE
8
0
10
620.0338
20
408.53598
30
0.0
11
618.4798
21
411.42105
31
0.0
0
LINE
8
0
10
618.4798
20
411.42105
30
0.0
11
616.5145
21
414.0339
31
0.0
0
LINE
8
0
10
616.5145
20
414.0339
30
0.0
11
614.1849
21
416.31616
31
0.0
0
LINE
8
0
10
614.1849
20
416.31616
30
0.0
11
611.54517
21
418.21802
31
0.0
0
LINE
8
0
10
611.54517
20
418.21802
30
0.0
11
608.6567
21
419.69818
31
0.0
0
LINE
8
0
10
608.6567
20
419.69818
30
0.0
11
605.58606
21
420.7252
31
0.0
0
LINE
8
0
10
605.58606
20
420.7252
30
0.0
11
602.40326
21
421.27798
31
0.0
0
LINE
8
0
10
602.40326
20
421.27798
30
0.0
11
599.1817
21
421.3462
31
0.0
0
LINE
8
0
10
599.1817
20
421.3462
30
0.0
11
595.994
21
420.93073
31
0.0
0
LINE
8
0
10
595.994
20
420.93073
30
0.0
11
592.9124
21
420.04324
31
0.0
0
LINE
8
0
10
592.9124
20
420.04324
30
0.0
11
590.00604
21
418.70612
31
0.0
0
LINE
8
0
10
590.00604
20
418.70612
30
0.0
11
587.33966
21
416.95163
31
0.0
0
LINE
8
0
10
587.33966
20
416.95163
30
0.0
11
584.9731
21
414.82184
31
0.0
0
LINE
8
0
10
584.9731
20
414.82184
30
0.0
11
582.95807
21
412.3666
31
0.0
0
LINE
8
0
10
582.95807
20
412.3666
30
0.0
11
581.3387
21
409.64313
31
0.0
0
LINE
8
0
10
581.3387
20
409.64313
30
0.0
11
580.14966
21
406.7143
31
0.0
0
LINE
8
0
10
580.14966
20
406.7143
30
0.0
11
579.4157
21
403.6472
31
0.0
0
LINE
8
0
10
579.4157
20
403.6472
30
0.0
11
579.1516
21
400.51245
31
0.0
0
LINE
8
0
10
579.1516
20
400.51245
30
0.0
11
579.36084
21
397.38116
31
0.0
0
LINE
8
0
10
579.36084
20
397.38116
30
0.0
11
580.03644
21
394.3242
31
0.0
0
LINE
8
0
10
580.03644
20
394.3242
30
0.0
11
581.1609
21
391.4104
31
0.0
0
LINE
8
0
10
581.1609
20
391.4104
30
0.0
11
582.7067
21
388.70483
31
0.0
0
LINE
8
0
10
582.7067
20
388.70483
30
0.0
11
584.63666
21
386.26828
31
0.0
0
LINE
8
0
10
584.63666
20
386.26828
30
0.0
11
586.9052
21
384.1544
31
0.0
0
LINE
8
0
10
586.9052
20
384.1544
30
0.0
11
589.4594
21
382.40945
31
0.0
0
LINE
8
0
10
589.4594
20
382.40945
30
0.0
11
592.24005
21
381.07123
31
0.0
0
LINE
8
0
10
592.24005
20
381.07123
30
0.0
11
595.1831
21
380.16803
31
0.0
0
LINE
8
0
10
595.1831
20
380.16803
30
0.0
11
598.2215
21
379.71826
31
0.0
0
LINE
8
0
10
598.2215
20
379.71826
30
0.0
11
601.2852
21
379.72998
31
0.0
0
LINE
8
0
10
601.2852
20
379.72998
30
0.0
11
604.3052
21
380.20068
31
0.0
0
LINE
8
0
10
604.3052
20
380.20068
30
0.0
11
607.21313
21
381.1175
31
0.0
0
LINE
8
0
10
607.21313
20
381.1175
30
0.0
11
609.94385
21
382.4575
31
0.0
0
LINE
8
0
10
609.94385
20
382.4575
30
0.0
11
612.4365
21
384.18848
31
0.0
0
LINE
8
0
10
612.4365
20
384.18848
30
0.0
11
614.6353
21
386.2691
31
0.0
0
LINE
8
0
10
614.6353
20
386.2691
30
0.0
11
616.4922
21
388.6507
31
0.0
0
LINE
8
0
10
616.4922
20
388.6507
30
0.0
11
617.9667
21
391.27786
31
0.0
0
LINE
8
0
10
617.9667
20
391.27786
30
0.0
11
619.0273
21
394.08994
31
0.0
0
LINE
8
0
10
619.0273
20
394.08994
30
0.0
11
619.6519
21
397.02267
31
0.0
0
LINE
8
0
10
619.6519
20
397.02267
30
0.0
11
619.8285
21
400.00848
31
0.0
0
ENDSEC
0
EOF
