0
SECTION
2
ENTITIES
0
LINE
8
0
10
1043.2
20
400.0
30
0.0
11
935.08154
21
515.9014
31
0.0
0
LINE
8
0
10
935.08154
20
515.9014
30
0.0
11
823.0292
21
575.2547
31
0.0
0
LINE
8
0
10
823.0292
20
575.2547
30
0.0
11
722.7904
21
590.82587
31
0.0
0
LINE
8
0
10
722.7904
20
590.82587
30
0.0
11
642.93274
21
576.38495
31
0.0
0
LINE
8
0
10
642.93274
20
576.38495
30
0.0
11
586.3328
21
544.58325
31
0.0
0
LINE
8
0
10
586.3328
20
544.58325
30
0.0
11
551.8569
21
505.73816
31
0.0
0
LINE
8
0
10
551.8569
20
505.73816
30
0.0
11
535.94977
21
467.35345
31
0.0
0
LINE
8
0
10
535.94977
20
467.35345
30
0.0
11
533.9611
21
434.1728
31
0.0
0
LINE
8
0
10
1019.1862
20
543.9068
30
0.0
11
879.29285
21
618.42236
31
0.0
0
LINE
8
0
10
879.29285
20
618.42236
30
0.0
11
754.03973
21
638.17633
31
0.0
0
LINE
8
0
10
754.03973
20
638.17633
30
0.0
11
654.1762
21
620.3563
31
0.0
0
LINE
8
0
10
654.1762
20
620.3563
30
0.0
11
583.3345
21
580.7682
31
0.0
0
LINE
8
0
10
583.3345
20
580.7682
30
0.0
11
540.12726
21
532.31165
31
0.0
0
LINE
8
0
10
540.12726
20
532.31165
30
0.0
11
520.1323
21
484.37692
31
0.0
0
LINE
8
0
10
520.1323
20
484.37692
30
0.0
11
517.55054
21
442.90695
31
0.0
0
LINE
8
0
10
517.55054
20
442.90695
30
0.0
11
526.4434
21
410.87845
31
0.0
0
LINE
8
0
10
949.7471
20
672.2191
30
0.0
11
793.2383
21
697.2739
31
0.0
0
LINE
8
0
10
793.2383
20
697.2739
30
0.0
11
668.3577
21
675.2879
31
0.0
0
LINE
8
0
10
668.3577
20
675.2879
30
0.0
11
579.6912
21
626.0078
31
0.0
0
LINE
8
0
10
579.6912
20
626.0078
30
0.0
11
525.5421
21
565.5624
31
0.0
0
LINE
8
0
10
525.5421
20
565.5624
30
0.0
11
500.40982
21
505.702
31
0.0
0
LINE
8
0
10
500.40982
20
505.702
30
0.0
11
497.06262
21
453.87216
31
0.0
0
LINE
8
0
10
497.06262
20
453.87216
30
0.0
11
508.086
21
413.81088
31
0.0
0
LINE
8
0
10
508.086
20
413.81088
30
0.0
11
526.8967
21
386.40524
31
0.0
0
LINE
8
0
10
842.4075
20
771.0322
30
0.0
11
686.24347
21
743.91113
31
0.0
0
LINE
8
0
10
686.24347
20
743.91113
30
0.0
11
575.26807
21
682.56775
31
0.0
0
LINE
8
0
10
575.26807
20
682.56775
30
0.0
11
507.40698
21
607.16785
31
0.0
0
LINE
8
0
10
507.40698
20
607.16785
30
0.0
11
475.81845
21
532.4153
31
0.0
0
LINE
8
0
10
475.81845
20
532.4153
30
0.0
11
471.4845
21
467.63788
31
0.0
0
LINE
8
0
10
471.4845
20
467.63788
30
0.0
11
485.14777
21
417.5295
31
0.0
0
LINE
8
0
10
485.14777
20
417.5295
30
0.0
11
508.5818
21
383.21814
31
0.0
0
LINE
8
0
10
508.5818
20
383.21814
30
0.0
11
535.27185
21
363.40524
31
0.0
0
LINE
8
0
10
708.7992
20
829.6382
30
0.0
11
569.9028
21
753.2803
31
0.0
0
LINE
8
0
10
569.9028
20
753.2803
30
0.0
11
484.85846
21
659.227
31
0.0
0
LINE
8
0
10
484.85846
20
659.227
30
0.0
11
445.15662
21
565.878
31
0.0
0
LINE
8
0
10
445.15662
20
565.878
30
0.0
11
439.55176
21
484.919
31
0.0
0
LINE
8
0
10
439.55176
20
484.919
30
0.0
11
456.48584
21
422.24414
31
0.0
0
LINE
8
0
10
456.48584
20
422.24414
30
0.0
11
485.679
21
379.28723
31
0.0
0
LINE
8
0
10
485.679
20
379.28723
30
0.0
11
518.98413
21
354.44397
31
0.0
0
LINE
8
0
10
518.98413
20
354.44397
30
0.0
11
550.6613
21
344.37085
31
0.0
0
LINE
8
0
10
563.40076
20
841.6863
30
0.0
11
456.8236
21
724.3661
31
0.0
0
LINE
8
0
10
456.8236
20
724.3661
30
0.0
11
406.92627
21
607.795
31
0.0
0
LINE
8
0
10
406.92627
20
607.795
30
0.0
11
399.68597
21
506.61273
31
0.0
0
LINE
8
0
10
399.68597
20
506.61273
30
0.0
11
420.67212
21
428.22037
31
0.0
0
LINE
8
0
10
420.67212
20
428.22037
30
0.0
11
457.03918
21
374.4399
31
0.0
0
LINE
8
0
10
457.03918
20
374.4399
30
0.0
11
498.59863
21
343.28955
31
0.0
0
LINE
8
0
10
498.59863
20
343.28955
30
0.0
11
538.16583
21
330.6065
31
0.0
0
LINE
8
0
10
538.16583
20
330.6065
30
0.0
11
571.39734
21
331.36475
31
0.0
0
LINE
8
0
10
421.9686
20
805.8707
30
0.0
11
359.25977
21
660.30164
31
0.0
0
LINE
8
0
10
359.25977
20
660.30164
30
0.0
11
349.91663
21
533.84515
31
0.0
0
LINE
8
0
10
349.91663
20
533.84515
30
0.0
11
375.92242
21
435.79425
31
0.0
0
LINE
8
0
10
375.92242
20
435.79425
30
0.0
11
421.22546
21
368.46365
31
0.0
0
LINE
8
0
10
421.22546
20
368.46365
30
0.0
11
473.08453
21
329.40552
31
0.0
0
LINE
8
0
10
473.08453
20
329.40552
30
0.0
11
522.5067
21
313.4373
31
0.0
0
LINE
8
0
10
522.5067
20
313.4373
30
0.0
11
564.0482
21
314.2889
31
0.0
0
LINE
8
0
10
564.0482
20
314.2889
30
0.0
11
595.233
21
325.79633
31
0.0
0
LINE
8
0
10
299.8288
20
726.0729
30
0.0
11
287.78397
21
568.02966
31
0.0
0
LINE
8
0
10
287.78397
20
568.02966
30
0.0
11
320.0074
21
445.3911
31
0.0
0
LINE
8
0
10
320.0074
20
445.3911
30
0.0
11
376.4412
21
361.097
31
0.0
0
LINE
8
0
10
376.4412
20
361.097
30
0.0
11
441.1518
21
312.12442
31
0.0
0
LINE
8
0
10
441.1518
20
312.12442
30
0.0
11
502.88315
21
292.02115
31
0.0
0
LINE
8
0
10
502.88315
20
292.02115
30
0.0
11
554.8123
21
292.96548
31
0.0
0
LINE
8
0
10
554.8123
20
292.96548
30
0.0
11
593.82654
21
307.25946
31
0.0
0
LINE
8
0
10
593.82654
20
307.25946
30
0.0
11
619.58514
21
328.26904
31
0.0
0
LINE
8
0
10
210.21722
20
610.9399
30
0.0
11
250.14157
21
457.54898
31
0.0
0
LINE
8
0
10
250.14157
20
457.54898
30
0.0
11
320.4397
21
352.01825
31
0.0
0
LINE
8
0
10
320.4397
20
352.01825
30
0.0
11
401.18604
21
290.61545
31
0.0
0
LINE
8
0
10
401.18604
20
290.61545
30
0.0
11
478.2918
21
265.3078
31
0.0
0
LINE
8
0
10
478.2918
20
265.3078
30
0.0
11
543.2059
21
266.33795
31
0.0
0
LINE
8
0
10
543.2059
20
266.33795
30
0.0
11
592.0148
21
284.09247
31
0.0
0
LINE
8
0
10
592.0148
20
284.09247
30
0.0
11
624.27386
21
310.27985
31
0.0
0
LINE
8
0
10
624.27386
20
310.27985
30
0.0
11
641.815
21
338.51492
31
0.0
0
LINE
8
0
10
162.84464
20
472.94833
30
0.0
11
250.41174
21
340.83188
31
0.0
0
LINE
8
0
10
250.41174
20
340.83188
30
0.0
11
351.1667
21
263.84494
31
0.0
0
LINE
8
0
10
351.1667
20
263.84494
30
0.0
11
447.47546
21
231.98738
31
0.0
0
LINE
8
0
10
447.47546
20
231.98738
30
0.0
11
528.6207
21
233.08723
31
0.0
0
LINE
8
0
10
528.6207
20
233.08723
30
0.0
11
589.68317
21
255.1391
31
0.0
0
LINE
8
0
10
589.68317
20
255.1391
30
0.0
11
630.0826
21
287.7799
31
0.0
0
LINE
8
0
10
630.0826
20
287.7799
30
0.0
11
652.0907
21
323.02286
31
0.0
0
LINE
8
0
10
652.0907
20
323.02286
30
0.0
11
659.51355
21
355.4237
31
0.0
0
LINE
8
0
10
162.84467
20
327.05157
30
0.0
11
288.56525
21
230.52666
31
0.0
0
LINE
8
0
10
288.56525
20
230.52666
30
0.0
11
408.85864
21
190.42616
31
0.0
0
LINE
8
0
10
408.85864
20
190.42616
30
0.0
11
510.29327
21
191.56612
31
0.0
0
LINE
8
0
10
510.29327
20
191.56612
30
0.0
11
586.6848
21
218.95422
31
0.0
0
LINE
8
0
10
586.6848
20
218.95422
30
0.0
11
637.27844
21
259.63818
31
0.0
0
LINE
8
0
10
637.27844
20
259.63818
30
0.0
11
664.8905
21
303.6281
31
0.0
0
LINE
8
0
10
664.8905
20
303.6281
30
0.0
11
674.26276
21
344.10754
31
0.0
0
LINE
8
0
10
674.26276
20
344.10754
30
0.0
11
670.7629
21
377.163
31
0.0
0
LINE
8
0
10
210.21722
20
189.06013
30
0.0
11
360.46747
21
138.58655
31
0.0
0
LINE
8
0
10
360.46747
20
138.58655
30
0.0
11
487.26373
21
139.71796
31
0.0
0
LINE
8
0
10
487.26373
20
139.71796
30
0.0
11
582.8323
21
173.73192
31
0.0
0
LINE
8
0
10
582.8323
20
173.73192
30
0.0
11
646.1918
21
224.44035
31
0.0
0
LINE
8
0
10
646.1918
20
224.44035
30
0.0
11
680.83405
21
279.34772
31
0.0
0
LINE
8
0
10
680.83405
20
279.34772
30
0.0
11
692.6665
21
329.91977
31
0.0
0
LINE
8
0
10
692.6665
20
329.91977
30
0.0
11
688.38727
21
371.24905
31
0.0
0
LINE
8
0
10
688.38727
20
371.24905
30
0.0
11
674.3439
21
401.37704
31
0.0
0
LINE
8
0
10
299.82877
20
73.927155
30
0.0
11
458.32684
21
74.97458
31
0.0
0
LINE
8
0
10
458.32684
20
74.97458
30
0.0
11
577.8856
21
117.21533
31
0.0
0
LINE
8
0
10
577.8856
20
117.21533
30
0.0
11
657.2316
21
180.41739
31
0.0
0
LINE
8
0
10
657.2316
20
180.41739
30
0.0
11
700.6931
21
248.95113
31
0.0
0
LINE
8
0
10
700.6931
20
248.95113
30
0.0
11
715.63
21
312.13177
31
0.0
0
LINE
8
0
10
715.63
20
312.13177
30
0.0
11
710.4006
21
363.8057
31
0.0
0
LINE
8
0
10
710.4006
20
363.8057
30
0.0
11
692.9336
21
401.5062
31
0.0
0
LINE
8
0
10
692.9336
20
401.5062
30
0.0
11
669.8686
21
425.44186
31
0.0
0
LINE
8
0
10
421.96866
20
-5.8707886
30
0.0
11
571.53876
21
46.584137
31
0.0
0
LINE
8
0
10
571.53876
20
46.584137
30
0.0
11
670.90393
21
125.35687
31
0.0
0
LINE
8
0
10
670.90393
20
125.35687
30
0.0
11
725.4291
21
210.8981
31
0.0
0
LINE
8
0
10
725.4291
20
210.8981
30
0.0
11
744.28284
21
289.83047
31
0.0
0
LINE
8
0
10
744.28284
20
289.83047
30
0.0
11
737.8956
21
354.43774
31
0.0
0
LINE
8
0
10
737.8956
20
354.43774
30
0.0
11
716.171
21
401.61383
31
0.0
0
LINE
8
0
10
716.171
20
401.61383
30
0.0
11
687.4091
21
431.6001
31
0.0
0
LINE
8
0
10
687.4091
20
431.6001
30
0.0
11
657.82196
21
446.7497
31
0.0
0
LINE
8
0
10
563.4008
20
-41.68625
30
0.0
11
687.83453
21
56.49176
31
0.0
0
LINE
8
0
10
687.83453
20
56.49176
30
0.0
11
756.2384
21
163.26015
31
0.0
0
LINE
8
0
10
756.2384
20
163.26015
30
0.0
11
780.0342
21
261.8708
31
0.0
0
LINE
8
0
10
780.0342
20
261.8708
30
0.0
11
772.2372
21
342.64822
31
0.0
0
LINE
8
0
10
772.2372
20
342.64822
30
0.0
11
745.2181
21
401.68097
31
0.0
0
LINE
8
0
10
745.2181
20
401.68097
30
0.0
11
709.3526
21
439.24698
31
0.0
0
LINE
8
0
10
709.3526
20
439.24698
30
0.0
11
672.41254
21
458.26956
31
0.0
0
LINE
8
0
10
672.41254
20
458.26956
30
0.0
11
639.5094
21
462.9914
31
0.0
0
LINE
8
0
10
708.79926
20
-29.638184
30
0.0
11
794.6126
21
103.62396
31
0.0
0
LINE
8
0
10
794.6126
20
103.62396
30
0.0
11
824.64233
21
226.81795
31
0.0
0
LINE
8
0
10
824.64233
20
226.81795
30
0.0
11
815.1299
21
327.81204
31
0.0
0
LINE
8
0
10
815.1299
20
327.81204
30
0.0
11
781.527
21
401.68106
31
0.0
0
LINE
8
0
10
781.527
20
401.68106
30
0.0
11
736.80396
21
448.74222
31
0.0
0
LINE
8
0
10
736.80396
20
448.74222
30
0.0
11
690.6841
21
472.62723
31
0.0
0
LINE
8
0
10
690.6841
20
472.62723
30
0.0
11
649.5689
21
478.6247
31
0.0
0
LINE
8
0
10
649.5689
20
478.6247
30
0.0
11
616.9154
21
472.40704
31
0.0
0
LINE
8
0
10
842.4074
20
28.967804
30
0.0
11
880.30115
21
182.87311
31
0.0
0
LINE
8
0
10
880.30115
20
182.87311
30
0.0
11
868.70276
21
309.14288
31
0.0
0
LINE
8
0
10
868.70276
20
309.14288
30
0.0
11
826.91296
21
401.57602
31
0.0
0
LINE
8
0
10
826.91296
20
401.57602
30
0.0
11
771.1455
21
460.5317
31
0.0
0
LINE
8
0
10
771.1455
20
460.5317
30
0.0
11
713.56494
21
490.52142
31
0.0
0
LINE
8
0
10
713.56494
20
490.52142
30
0.0
11
662.1885
21
498.1372
31
0.0
0
LINE
8
0
10
662.1885
20
498.1372
30
0.0
11
621.35376
21
490.4596
31
0.0
0
LINE
8
0
10
621.35376
20
490.4596
30
0.0
11
592.48834
21
473.97626
31
0.0
0
LINE
8
0
10
949.747
20
127.78082
30
0.0
11
935.6145
21
285.65103
31
0.0
0
LINE
8
0
10
935.6145
20
285.65103
30
0.0
11
883.645
21
401.31323
31
0.0
0
LINE
8
0
10
883.645
20
401.31323
30
0.0
11
814.1065
21
475.16898
31
0.0
0
LINE
8
0
10
814.1065
20
475.16898
30
0.0
11
742.21783
21
512.8227
31
0.0
0
LINE
8
0
10
742.21783
20
512.8227
30
0.0
11
678.0195
21
522.49115
31
0.0
0
LINE
8
0
10
678.0195
20
522.49115
30
0.0
11
626.9539
21
513.0124
31
0.0
0
LINE
8
0
10
626.9539
20
513.0124
30
0.0
11
590.8246
21
492.49182
31
0.0
0
LINE
8
0
10
590.8246
20
492.49182
30
0.0
11
568.87537
21
467.529
31
0.0
0
LINE
8
0
10
1019.1862
20
256.09317
30
0.0
11
954.5591
21
400.8207
31
0.0
0
LINE
8
0
10
954.5591
20
400.8207
30
0.0
11
867.8499
21
493.34152
31
0.0
0
LINE
8
0
10
867.8499
20
493.34152
30
0.0
11
778.0982
21
540.6165
31
0.0
0
LINE
8
0
10
778.0982
20
540.6165
30
0.0
11
697.87854
21
552.8877
31
0.0
0
LINE
8
0
10
697.87854
20
552.8877
30
0.0
11
634.01935
21
541.18713
31
0.0
0
LINE
8
0
10
634.01935
20
541.18713
30
0.0
11
588.7984
21
515.641
31
0.0
0
LINE
8
0
10
588.7984
20
515.641
30
0.0
11
561.2897
21
484.50107
31
0.0
0
LINE
8
0
10
561.2897
20
484.50107
30
0.0
11
548.63513
21
453.76392
31
0.0
0
LINE
8
0
10
1043.2
20
400.0
30
0.0
11
935.08154
21
284.09857
31
0.0
0
LINE
8
0
10
935.08154
20
284.09857
30
0.0
11
823.0292
21
224.74532
31
0.0
0
LINE
8
0
10
823.0292
20
224.74532
30
0.0
11
722.7904
21
209.17415
31
0.0
0
LINE
8
0
10
722.7904
20
209.17415
30
0.0
11
642.93274
21
223.61507
31
0.0
0
LINE
8
0
10
642.93274
20
223.61507
30
0.0
11
586.3328
21
255.41672
31
0.0
0
LINE
8
0
10
586.3328
20
255.41672
30
0.0
11
551.8569
21
294.26184
31
0.0
0
LINE
8
0
10
551.8569
20
294.26184
30
0.0
11
535.94977
21
332.64655
31
0.0
0
LINE
8
0
10
535.94977
20
332.64655
30
0.0
11
533.9611
21
365.8272
31
0.0
0
LINE
8
0
10
1019.1862
20
543.9068
30
0.0
11
954.5591
21
399.17923
31
0.0
0
LINE
8
0
10
954.5591
20
399.17923
30
0.0
11
867.8499
21
306.65854
31
0.0
0
LINE
8
0
10
867.8499
20
306.65854
30
0.0
11
778.0983
21
259.3836
31
0.0
0
LINE
8
0
10
778.0983
20
259.3836
30
0.0
11
697.87866
21
247.11232
31
0.0
0
LINE
8
0
10
697.87866
20
247.11232
30
0.0
11
634.0195
21
258.81293
31
0.0
0
LINE
8
0
10
634.0195
20
258.81293
30
0.0
11
588.7985
21
284.359
31
0.0
0
LINE
8
0
10
588.7985
20
284.359
30
0.0
11
561.2898
21
315.49884
31
0.0
0
LINE
8
0
10
561.2898
20
315.49884
30
0.0
11
548.6352
21
346.236
31
0.0
0
LINE
8
0
10
949.7471
20
672.2191
30
0.0
11
935.6146
21
514.3489
31
0.0
0
LINE
8
0
10
935.6146
20
514.3489
30
0.0
11
883.645
21
398.68677
31
0.0
0
LINE
8
0
10
883.645
20
398.68677
30
0.0
11
814.1065
21
324.831
31
0.0
0
LINE
8
0
10
814.1065
20
324.831
30
0.0
11
742.2179
21
287.17734
31
0.0
0
LINE
8
0
10
742.2179
20
287.17734
30
0.0
11
678.0196
21
277.50894
31
0.0
0
LINE
8
0
10
678.0196
20
277.50894
30
0.0
11
626.95404
21
286.98764
31
0.0
0
LINE
8
0
10
626.95404
20
286.98764
30
0.0
11
590.8247
21
307.50818
31
0.0
0
LINE
8
0
10
590.8247
20
307.50818
30
0.0
11
568.8754
21
332.47095
31
0.0
0
LINE
8
0
10
842.4075
20
771.0322
30
0.0
11
880.301
21
617.127
31
0.0
0
LINE
8
0
10
880.301
20
617.127
30
0.0
11
868.70276
21
490.8573
31
0.0
0
LINE
8
0
10
868.70276
20
490.8573
30
0.0
11
826.91296
21
398.42413
31
0.0
0
LINE
8
0
10
826.91296
20
398.42413
30
0.0
11
771.14557
21
339.46844
31
0.0
0
LINE
8
0
10
771.14557
20
339.46844
30
0.0
11
713.56506
21
309.47876
31
0.0
0
LINE
8
0
10
713.56506
20
309.47876
30
0.0
11
662.18866
21
301.8629
31
0.0
0
LINE
8
0
10
662.18866
20
301.8629
30
0.0
11
621.3539
21
309.54044
31
0.0
0
LINE
8
0
10
621.3539
20
309.54044
30
0.0
11
592.48846
21
326.02374
31
0.0
0
LINE
8
0
10
708.7992
20
829.6382
30
0.0
11
794.61255
21
696.3761
31
0.0
0
LINE
8
0
10
794.61255
20
696.3761
30
0.0
11
824.64233
21
573.18207
31
0.0
0
LINE
8
0
10
824.64233
20
573.18207
30
0.0
11
815.1299
21
472.18805
31
0.0
0
LINE
8
0
10
815.1299
20
472.18805
30
0.0
11
781.527
21
398.3191
31
0.0
0
LINE
8
0
10
781.527
20
398.3191
30
0.0
11
736.80396
21
351.25793
31
0.0
0
LINE
8
0
10
736.80396
20
351.25793
30
0.0
11
690.68414
21
327.37286
31
0.0
0
LINE
8
0
10
690.68414
20
327.37286
30
0.0
11
649.56903
21
321.37537
31
0.0
0
LINE
8
0
10
649.56903
20
321.37537
30
0.0
11
616.9155
21
327.593
31
0.0
0
LINE
8
0
10
563.40076
20
841.6863
30
0.0
11
687.8347
21
743.5082
31
0.0
0
LINE
8
0
10
687.8347
20
743.5082
30
0.0
11
756.23846
21
636.73987
31
0.0
0
LINE
8
0
10
756.23846
20
636.73987
30
0.0
11
780.0341
21
538.1293
31
0.0
0
LINE
8
0
10
780.0341
20
538.1293
30
0.0
11
772.2371
21
457.3519
31
0.0
0
LINE
8
0
10
772.2371
20
457.3519
30
0.0
11
745.2181
21
398.31912
31
0.0
0
LINE
8
0
10
745.2181
20
398.31912
30
0.0
11
709.35266
21
360.7531
31
0.0
0
LINE
8
0
10
709.35266
20
360.7531
30
0.0
11
672.41266
21
341.73053
31
0.0
0
LINE
8
0
10
672.41266
20
341.73053
30
0.0
11
639.5095
21
337.00867
31
0.0
0
LINE
8
0
10
421.9686
20
805.8707
30
0.0
11
571.5387
21
753.4159
31
0.0
0
LINE
8
0
10
571.5387
20
753.4159
30
0.0
11
670.90375
21
674.6432
31
0.0
0
LINE
8
0
10
670.90375
20
674.6432
30
0.0
11
725.4289
21
589.10205
31
0.0
0
LINE
8
0
10
725.4289
20
589.10205
30
0.0
11
744.2827
21
510.1697
31
0.0
0
LINE
8
0
10
744.2827
20
510.1697
30
0.0
11
737.89557
21
445.5624
31
0.0
0
LINE
8
0
10
737.89557
20
445.5624
30
0.0
11
716.171
21
398.38635
31
0.0
0
LINE
8
0
10
716.171
20
398.38635
30
0.0
11
687.4092
21
368.40005
31
0.0
0
LINE
8
0
10
687.4092
20
368.40005
30
0.0
11
657.822
21
353.25043
31
0.0
0
LINE
8
0
10
299.8288
20
726.0729
30
0.0
11
458.3269
21
725.02545
31
0.0
0
LINE
8
0
10
458.3269
20
725.02545
30
0.0
11
577.88556
21
682.78467
31
0.0
0
LINE
8
0
10
577.88556
20
682.78467
30
0.0
11
657.2315
21
619.58264
31
0.0
0
LINE
8
0
10
657.2315
20
619.58264
30
0.0
11
700.69305
21
551.04895
31
0.0
0
LINE
8
0
10
700.69305
20
551.04895
30
0.0
11
715.6299
21
487.86832
31
0.0
0
LINE
8
0
10
715.6299
20
487.86832
30
0.0
11
710.4005
21
436.19446
31
0.0
0
LINE
8
0
10
710.4005
20
436.19446
30
0.0
11
692.9336
21
398.49396
31
0.0
0
LINE
8
0
10
692.9336
20
398.49396
30
0.0
11
669.86865
21
374.55823
31
0.0
0
LINE
8
0
10
210.21722
20
610.9399
30
0.0
11
360.46753
21
661.41345
31
0.0
0
LINE
8
0
10
360.46753
20
661.41345
30
0.0
11
487.2637
21
660.28204
31
0.0
0
LINE
8
0
10
487.2637
20
660.28204
30
0.0
11
582.83215
21
626.26807
31
0.0
0
LINE
8
0
10
582.83215
20
626.26807
30
0.0
11
646.1917
21
575.5597
31
0.0
0
LINE
8
0
10
646.1917
20
575.5597
30
0.0
11
680.834
21
520.65234
31
0.0
0
LINE
8
0
10
680.834
20
520.65234
30
0.0
11
692.6664
21
470.08035
31
0.0
0
LINE
8
0
10
692.6664
20
470.08035
30
0.0
11
688.3872
21
428.75104
31
0.0
0
LINE
8
0
10
688.3872
20
428.75104
30
0.0
11
674.3439
21
398.62305
31
0.0
0
LINE
8
0
10
162.84464
20
472.94833
30
0.0
11
288.56525
21
569.47327
31
0.0
0
LINE
8
0
10
288.56525
20
569.47327
30
0.0
11
408.8586
21
609.5738
31
0.0
0
LINE
8
0
10
408.8586
20
609.5738
30
0.0
11
510.2932
21
608.43384
31
0.0
0
LINE
8
0
10
510.2932
20
608.43384
30
0.0
11
586.68475
21
581.0458
31
0.0
0
LINE
8
0
10
586.68475
20
581.0458
30
0.0
11
637.2784
21
540.3618
31
0.0
0
LINE
8
0
10
637.2784
20
540.3618
30
0.0
11
664.89044
21
496.37195
31
0.0
0
LINE
8
0
10
664.89044
20
496.37195
30
0.0
11
674.2627
21
455.89252
31
0.0
0
LINE
8
0
10
674.2627
20
455.89252
30
0.0
11
670.7628
21
422.8371
31
0.0
0
LINE
8
0
10
162.84467
20
327.05157
30
0.0
11
250.41174
21
459.16806
31
0.0
0
LINE
8
0
10
250.41174
20
459.16806
30
0.0
11
351.1667
21
536.155
31
0.0
0
LINE
8
0
10
351.1667
20
536.155
30
0.0
11
447.4754
21
568.0126
31
0.0
0
LINE
8
0
10
447.4754
20
568.0126
30
0.0
11
528.6207
21
566.9128
31
0.0
0
LINE
8
0
10
528.6207
20
566.9128
30
0.0
11
589.6831
21
544.8609
31
0.0
0
LINE
8
0
10
589.6831
20
544.8609
30
0.0
11
630.0826
21
512.2201
31
0.0
0
LINE
8
0
10
630.0826
20
512.2201
30
0.0
11
652.09064
21
476.97717
31
0.0
0
LINE
8
0
10
652.09064
20
476.97717
30
0.0
11
659.5135
21
444.5764
31
0.0
0
LINE
8
0
10
210.21722
20
189.06013
30
0.0
11
250.14154
21
342.45105
31
0.0
0
LINE
8
0
10
250.14154
20
342.45105
30
0.0
11
320.4397
21
447.98178
31
0.0
0
LINE
8
0
10
320.4397
20
447.98178
30
0.0
11
401.18604
21
509.38458
31
0.0
0
LINE
8
0
10
401.18604
20
509.38458
30
0.0
11
478.2918
21
534.6922
31
0.0
0
LINE
8
0
10
478.2918
20
534.6922
30
0.0
11
543.2059
21
533.66205
31
0.0
0
LINE
8
0
10
543.2059
20
533.66205
30
0.0
11
592.0148
21
515.90753
31
0.0
0
LINE
8
0
10
592.0148
20
515.90753
30
0.0
11
624.2738
21
489.72015
31
0.0
0
LINE
8
0
10
624.2738
20
489.72015
30
0.0
11
641.815
21
461.4851
31
0.0
0
LINE
8
0
10
299.82877
20
73.927155
30
0.0
11
287.78397
21
231.97037
31
0.0
0
LINE
8
0
10
287.78397
20
231.97037
30
0.0
11
320.0074
21
354.60883
31
0.0
0
LINE
8
0
10
320.0074
20
354.60883
30
0.0
11
376.44122
21
438.903
31
0.0
0
LINE
8
0
10
376.44122
20
438.903
30
0.0
11
441.1518
21
487.8756
31
0.0
0
LINE
8
0
10
441.1518
20
487.8756
30
0.0
11
502.88315
21
507.97885
31
0.0
0
LINE
8
0
10
502.88315
20
507.97885
30
0.0
11
554.8124
21
507.03455
31
0.0
0
LINE
8
0
10
554.8124
20
507.03455
30
0.0
11
593.82654
21
492.74054
31
0.0
0
LINE
8
0
10
593.82654
20
492.74054
30
0.0
11
619.58514
21
471.73096
31
0.0
0
LINE
8
0
10
421.96866
20
-5.8707886
30
0.0
11
359.25983
21
139.69827
31
0.0
0
LINE
8
0
10
359.25983
20
139.69827
30
0.0
11
349.91666
21
266.15482
31
0.0
0
LINE
8
0
10
349.91666
20
266.15482
30
0.0
11
375.92242
21
364.20572
31
0.0
0
LINE
8
0
10
375.92242
20
364.20572
30
0.0
11
421.22546
21
431.53632
31
0.0
0
LINE
8
0
10
421.22546
20
431.53632
30
0.0
11
473.0845
21
470.59445
31
0.0
0
LINE
8
0
10
473.0845
20
470.59445
30
0.0
11
522.5067
21
486.5627
31
0.0
0
LINE
8
0
10
522.5067
20
486.5627
30
0.0
11
564.0482
21
485.7111
31
0.0
0
LINE
8
0
10
564.0482
20
485.7111
30
0.0
11
595.233
21
474.20367
31
0.0
0
LINE
8
0
10
563.4008
20
-41.68625
30
0.0
11
456.8236
21
75.63394
31
0.0
0
LINE
8
0
10
456.8236
20
75.63394
30
0.0
11
406.92627
21
192.20503
31
0.0
0
LINE
8
0
10
406.92627
20
192.20503
30
0.0
11
399.68597
21
293.3873
31
0.0
0
LINE
8
0
10
399.68597
20
293.3873
30
0.0
11
420.67212
21
371.77966
31
0.0
0
LINE
8
0
10
420.67212
20
371.77966
30
0.0
11
457.03918
21
425.5601
31
0.0
0
LINE
8
0
10
457.03918
20
425.5601
30
0.0
11
498.59863
21
456.71045
31
0.0
0
LINE
8
0
10
498.59863
20
456.71045
30
0.0
11
538.16583
21
469.3935
31
0.0
0
LINE
8
0
10
538.16583
20
469.3935
30
0.0
11
571.39734
21
468.63525
31
0.0
0
LINE
8
0
10
708.79926
20
-29.638184
30
0.0
11
569.9029
21
46.719696
31
0.0
0
LINE
8
0
10
569.9029
20
46.719696
30
0.0
11
484.85858
21
140.77295
31
0.0
0
LINE
8
0
10
484.85858
20
140.77295
30
0.0
11
445.1567
21
234.12193
31
0.0
0
LINE
8
0
10
445.1567
20
234.12193
30
0.0
11
439.55182
21
315.08093
31
0.0
0
LINE
8
0
10
439.55182
20
315.08093
30
0.0
11
456.48584
21
377.7558
31
0.0
0
LINE
8
0
10
456.48584
20
377.7558
30
0.0
11
485.67896
21
420.7127
31
0.0
0
LINE
8
0
10
485.67896
20
420.7127
30
0.0
11
518.98413
21
445.556
31
0.0
0
LINE
8
0
10
518.98413
20
445.556
30
0.0
11
550.66125
21
455.62915
31
0.0
0
LINE
8
0
10
842.4074
20
28.967804
30
0.0
11
686.2433
21
56.088806
31
0.0
0
LINE
8
0
10
686.2433
20
56.088806
30
0.0
11
575.26794
21
117.43225
31
0.0
0
LINE
8
0
10
575.26794
20
117.43225
30
0.0
11
507.4068
21
192.83224
31
0.0
0
LINE
8
0
10
507.4068
20
192.83224
30
0.0
11
475.8184
21
267.58478
31
0.0
0
LINE
8
0
10
475.8184
20
267.58478
30
0.0
11
471.48444
21
332.3622
31
0.0
0
LINE
8
0
10
471.48444
20
332.3622
30
0.0
11
485.14777
21
382.47055
31
0.0
0
LINE
8
0
10
485.14777
20
382.47055
30
0.0
11
508.5818
21
416.78192
31
0.0
0
LINE
8
0
10
508.5818
20
416.78192
30
0.0
11
535.27185
21
436.5948
31
0.0
0
LINE
8
0
10
949.747
20
127.78082
30
0.0
11
793.2384
21
102.726166
31
0.0
0
LINE
8
0
10
793.2384
20
102.726166
30
0.0
11
668.35767
21
124.71207
31
0.0
0
LINE
8
0
10
668.35767
20
124.71207
30
0.0
11
579.6911
21
173.9922
31
0.0
0
LINE
8
0
10
579.6911
20
173.9922
30
0.0
11
525.54205
21
234.43768
31
0.0
0
LINE
8
0
10
525.54205
20
234.43768
30
0.0
11
500.40976
21
294.29803
31
0.0
0
LINE
8
0
10
500.40976
20
294.29803
30
0.0
11
497.0626
21
346.1279
31
0.0
0
LINE
8
0
10
497.0626
20
346.1279
30
0.0
11
508.086
21
386.18918
31
0.0
0
LINE
8
0
10
508.086
20
386.18918
30
0.0
11
526.8967
21
413.5948
31
0.0
0
LINE
8
0
10
1019.1862
20
256.09317
30
0.0
11
879.2929
21
181.57776
31
0.0
0
LINE
8
0
10
879.2929
20
181.57776
30
0.0
11
754.03973
21
161.82367
31
0.0
0
LINE
8
0
10
754.03973
20
161.82367
30
0.0
11
654.17615
21
179.64365
31
0.0
0
LINE
8
0
10
654.17615
20
179.64365
30
0.0
11
583.3344
21
219.23184
31
0.0
0
LINE
8
0
10
583.3344
20
219.23184
30
0.0
11
540.1272
21
267.68842
31
0.0
0
LINE
8
0
10
540.1272
20
267.68842
30
0.0
11
520.13226
21
315.6231
31
0.0
0
LINE
8
0
10
520.13226
20
315.6231
30
0.0
11
517.55054
21
357.09305
31
0.0
0
LINE
8
0
10
517.55054
20
357.09305
30
0.0
11
526.4434
21
389.12158
31
0.0
0
ENDSEC
0
EOF
