0
SECTION
2
ENTITIES
0
LINE
8
0
10
1154.1676
20
741.9938
30
0.0
11
130.67044
21
-112.542786
31
0.0
0
LINE
8
0
10
130.67044
20
-112.542786
30
0.0
11
932.54834
21
1062.9285
31
0.0
0
LINE
8
0
10
932.54834
20
1062.9285
30
0.0
11
451.68854
21
-377.48236
31
0.0
0
LINE
8
0
10
451.68854
20
-377.48236
30
0.0
11
525.79175
21
1241.4248
31
0.0
0
LINE
8
0
10
525.79175
20
1241.4248
30
0.0
11
921.29083
21
-442.2539
31
0.0
0
LINE
8
0
10
921.29083
20
-442.2539
30
0.0
11
24.794739
21
1171.1318
31
0.0
0
LINE
8
0
10
24.794739
20
1171.1318
30
0.0
11
1415.1744
21
-224.15009
31
0.0
0
LINE
8
0
10
1415.1744
20
-224.15009
30
0.0
11
-418.73138
21
803.34436
31
0.0
0
LINE
8
0
10
-418.73138
20
803.34436
30
0.0
11
1763.3989
21
282.6465
31
0.0
0
LINE
8
0
10
1763.3989
20
282.6465
30
0.0
11
-628.6183
21
181.59265
31
0.0
0
LINE
8
0
10
-628.6183
20
181.59265
30
0.0
11
1797.7722
21
982.123
31
0.0
0
LINE
8
0
10
1797.7722
20
982.123
30
0.0
11
-460.1549
21
-546.55566
31
0.0
0
LINE
8
0
10
-460.1549
20
-546.55566
30
0.0
11
1412.7046
21
1680.6262
31
0.0
0
LINE
8
0
10
1412.7046
20
1680.6262
30
0.0
11
138.65466
21
-1151.5243
31
0.0
0
LINE
8
0
10
138.65466
20
-1151.5243
30
0.0
11
621.7022
21
2127.2998
31
0.0
0
LINE
8
0
10
621.7022
20
2127.2998
30
0.0
11
1080.878
21
-1379.6974
31
0.0
0
LINE
8
0
10
1080.878
20
-1379.6974
30
0.0
11
-412.12146
21
2087.0957
31
0.0
0
LINE
8
0
10
-412.12146
20
2087.0957
30
0.0
11
2130.5674
21
-1037.2697
31
0.0
0
LINE
8
0
10
804.6877
20
1018.1945
30
0.0
11
569.9288
21
-294.30975
31
0.0
0
LINE
8
0
10
569.9288
20
-294.30975
30
0.0
11
428.62466
21
1121.5907
31
0.0
0
LINE
8
0
10
428.62466
20
1121.5907
30
0.0
11
986.1428
21
-290.91888
31
0.0
0
LINE
8
0
10
986.1428
20
-290.91888
30
0.0
11
2.2958374
21
996.8687
31
0.0
0
LINE
8
0
10
2.2958374
20
996.8687
30
0.0
11
1387.5134
21
-38.682312
31
0.0
0
LINE
8
0
10
1387.5134
20
-38.682312
30
0.0
11
-336.3067
21
620.9865
31
0.0
0
LINE
8
0
10
-336.3067
20
620.9865
30
0.0
11
1625.6558
21
445.85718
31
0.0
0
LINE
8
0
10
1625.6558
20
445.85718
30
0.0
11
-439.65833
21
54.151947
31
0.0
0
LINE
8
0
10
-439.65833
20
54.151947
30
0.0
11
1566.6487
21
1057.9203
31
0.0
0
LINE
8
0
10
1566.6487
20
1057.9203
30
0.0
11
-200.78674
21
-557.05023
31
0.0
0
LINE
8
0
10
-200.78674
20
-557.05023
30
0.0
11
1143.3655
21
1615.8451
31
0.0
0
LINE
8
0
10
1143.3655
20
1615.8451
30
0.0
11
396.30835
21
-1006.5581
31
0.0
0
LINE
8
0
10
396.30835
20
-1006.5581
30
0.0
11
399.3974
21
1903.413
31
0.0
0
LINE
8
0
10
399.3974
20
1903.413
30
0.0
11
1243.8894
21
-1085.0837
31
0.0
0
LINE
8
0
10
1243.8894
20
-1085.0837
30
0.0
11
-493.662
21
1737.1387
31
0.0
0
LINE
8
0
10
-493.662
20
1737.1387
30
0.0
11
2112.3413
21
-654.225
31
0.0
0
LINE
8
0
10
2112.3413
20
-654.225
30
0.0
11
-1259.774
21
1041.8113
31
0.0
0
LINE
8
0
10
-1259.774
20
1041.8113
30
0.0
11
2696.3418
21
282.81708
31
0.0
0
LINE
8
0
10
359.43213
20
1005.13513
30
0.0
11
1023.25775
21
-151.2016
31
0.0
0
LINE
8
0
10
1023.25775
20
-151.2016
30
0.0
11
4.8893433
21
842.6127
31
0.0
0
LINE
8
0
10
4.8893433
20
842.6127
30
0.0
11
1339.9166
21
118.933105
31
0.0
0
LINE
8
0
10
1339.9166
20
118.933105
30
0.0
11
-241.52783
21
473.03043
31
0.0
0
LINE
8
0
10
-241.52783
20
473.03043
30
0.0
11
1485.2498
21
570.15356
31
0.0
0
LINE
8
0
10
1485.2498
20
570.15356
30
0.0
11
-259.30005
21
-32.56073
31
0.0
0
LINE
8
0
10
-259.30005
20
-32.56073
30
0.0
11
1356.2202
21
1094.4088
31
0.0
0
LINE
8
0
10
1356.2202
20
1094.4088
30
0.0
11
25.882202
21
-533.2144
31
0.0
0
LINE
8
0
10
25.882202
20
-533.2144
30
0.0
11
917.593
21
1525.346
31
0.0
0
LINE
8
0
10
917.593
20
1525.346
30
0.0
11
601.7416
21
-847.8788
31
0.0
0
LINE
8
0
10
601.7416
20
-847.8788
30
0.0
11
234.70724
21
1680.6586
31
0.0
0
LINE
8
0
10
234.70724
20
1680.6586
30
0.0
11
1348.0857
21
-808.4137
31
0.0
0
LINE
8
0
10
1348.0857
20
-808.4137
30
0.0
11
-520.04944
21
1422.7322
31
0.0
0
LINE
8
0
10
-520.04944
20
1422.7322
30
0.0
11
2047.8439
21
-323.75067
31
0.0
0
LINE
8
0
10
2047.8439
20
-323.75067
30
0.0
11
-1097.2921
21
721.3025
31
0.0
0
LINE
8
0
10
-1097.2921
20
721.3025
30
0.0
11
2436.1626
21
564.5378
31
0.0
0
LINE
8
0
10
2436.1626
20
564.5378
30
0.0
11
-1237.2155
21
-303.79053
31
0.0
0
LINE
8
0
10
-1237.2155
20
-303.79053
30
0.0
11
2281.2102
21
1657.7413
31
0.0
0
LINE
8
0
10
26.740906
20
708.92633
30
0.0
11
1278.5398
21
249.82011
31
0.0
0
LINE
8
0
10
1278.5398
20
249.82011
30
0.0
11
-140.38715
21
356.53137
31
0.0
0
LINE
8
0
10
-140.38715
20
356.53137
30
0.0
11
1347.4753
21
660.2994
31
0.0
0
LINE
8
0
10
1347.4753
20
660.2994
30
0.0
11
-91.59088
21
-84.979034
31
0.0
0
LINE
8
0
10
-91.59088
20
-84.979034
30
0.0
11
1168.7682
21
1099.3728
31
0.0
0
LINE
8
0
10
1168.7682
20
1099.3728
30
0.0
11
219.78253
21
-483.70807
31
0.0
0
LINE
8
0
10
219.78253
20
-483.70807
30
0.0
11
732.9411
21
1418.037
31
0.0
0
LINE
8
0
10
732.9411
20
1418.037
30
0.0
11
760.0588
21
-683.91956
31
0.0
0
LINE
8
0
10
760.0588
20
-683.91956
30
0.0
11
119.93207
21
1466.21
31
0.0
0
LINE
8
0
10
119.93207
20
1466.21
30
0.0
11
1403.4551
21
-554.8112
31
0.0
0
LINE
8
0
10
1403.4551
20
-554.8112
30
0.0
11
-503.02185
21
1146.2358
31
0.0
0
LINE
8
0
10
-503.02185
20
1146.2358
30
0.0
11
1949.8203
21
-44.838593
31
0.0
0
LINE
8
0
10
1949.8203
20
-44.838593
30
0.0
11
-915.4072
21
463.50458
31
0.0
0
LINE
8
0
10
-915.4072
20
463.50458
30
0.0
11
2174.3308
21
776.2307
31
0.0
0
LINE
8
0
10
2174.3308
20
776.2307
30
0.0
11
-906.7307
21
-444.8662
31
0.0
0
LINE
8
0
10
-906.7307
20
-444.8662
30
0.0
11
1900.8196
21
1706.3057
31
0.0
0
LINE
8
0
10
1900.8196
20
1706.3057
30
0.0
11
-355.0011
21
-1320.074
31
0.0
0
LINE
8
0
10
-355.0011
20
-1320.074
30
0.0
11
1079.4214
21
2444.147
31
0.0
0
LINE
8
0
10
-37.715942
20
268.1674
30
0.0
11
1216.3254
21
721.1125
31
0.0
0
LINE
8
0
10
1216.3254
20
721.1125
30
0.0
11
60.772034
21
-109.21103
31
0.0
0
LINE
8
0
10
60.772034
20
-109.21103
30
0.0
11
1005.2822
21
1079.8687
31
0.0
0
LINE
8
0
10
1005.2822
20
1079.8687
30
0.0
11
381.9491
21
-416.06152
31
0.0
0
LINE
8
0
10
381.9491
20
-416.06152
30
0.0
11
586.1537
21
1301.3478
31
0.0
0
LINE
8
0
10
586.1537
20
1301.3478
30
0.0
11
876.773
21
-521.3588
31
0.0
0
LINE
8
0
10
876.773
20
-521.3588
30
0.0
11
47.457336
21
1265.3146
31
0.0
0
LINE
8
0
10
47.457336
20
1265.3146
30
0.0
11
1419.342
21
-327.4469
31
0.0
0
LINE
8
0
10
1419.342
20
-327.4469
30
0.0
11
-453.09985
21
908.1826
31
0.0
0
LINE
8
0
10
-453.09985
20
908.1826
30
0.0
11
1829.2239
21
185.0276
31
0.0
0
LINE
8
0
10
1829.2239
20
185.0276
30
0.0
11
-724.635
21
262.64124
31
0.0
0
LINE
8
0
10
-724.635
20
262.64124
30
0.0
11
1919.9591
21
926.8814
31
0.0
0
LINE
8
0
10
1919.9591
20
926.8814
30
0.0
11
-601.68945
21
-525.4375
31
0.0
0
LINE
8
0
10
-601.68945
20
-525.4375
30
0.0
11
1564.1711
21
1700.1697
31
0.0
0
LINE
8
0
10
1564.1711
20
1700.1697
30
0.0
11
-11.153381
21
-1215.7128
31
0.0
0
LINE
8
0
10
-11.153381
20
-1215.7128
30
0.0
11
756.8088
21
2236.8389
31
0.0
0
LINE
8
0
10
756.8088
20
2236.8389
30
0.0
11
974.07605
21
-1531.5145
31
0.0
0
LINE
8
0
10
974.07605
20
-1531.5145
30
0.0
11
-346.68677
21
2274.0771
31
0.0
0
LINE
8
0
10
196.22168
20
-110.90558
30
0.0
11
865.7257
21
1042.1528
31
0.0
0
LINE
8
0
10
865.7257
20
1042.1528
30
0.0
11
514.2419
21
-336.68732
31
0.0
0
LINE
8
0
10
514.2419
20
-336.68732
30
0.0
11
473.4531
21
1181.3201
31
0.0
0
LINE
8
0
10
473.4531
20
1181.3201
30
0.0
11
957.5174
21
-365.29987
31
0.0
0
LINE
8
0
10
957.5174
20
-365.29987
30
0.0
11
10.018066
21
1081.5723
31
0.0
0
LINE
8
0
10
10.018066
20
1081.5723
30
0.0
11
1404.2583
21
-127.89557
31
0.0
0
LINE
8
0
10
1404.2583
20
-127.89557
30
0.0
11
-379.48566
21
707.702
31
0.0
0
LINE
8
0
10
-379.48566
20
707.702
30
0.0
11
1695.2463
21
369.40823
31
0.0
0
LINE
8
0
10
1695.2463
20
369.40823
30
0.0
11
-533.3749
21
112.371124
31
0.0
0
LINE
8
0
10
-533.3749
20
112.371124
30
0.0
11
1679.8218
21
1025.4513
31
0.0
0
LINE
8
0
10
1679.8218
20
1025.4513
30
0.0
11
-326.4369
21
-556.68176
31
0.0
0
LINE
8
0
10
-326.4369
20
-556.68176
30
0.0
11
1272.4747
21
1652.0679
31
0.0
0
LINE
8
0
10
1272.4747
20
1652.0679
30
0.0
11
274.31207
21
-1081.3573
31
0.0
0
LINE
8
0
10
274.31207
20
-1081.3573
30
0.0
11
502.86523
21
2015.745
31
0.0
0
LINE
8
0
10
502.86523
20
2015.745
30
0.0
11
1170.3893
21
-1230.5497
31
0.0
0
LINE
8
0
10
1170.3893
20
-1230.5497
30
0.0
11
-460.5747
21
1907.8953
31
0.0
0
LINE
8
0
10
-460.5747
20
1907.8953
30
0.0
11
2128.1123
21
-839.1748
31
0.0
0
LINE
8
0
10
2128.1123
20
-839.1748
30
0.0
11
-1329.8408
21
1227.1008
31
0.0
0
LINE
8
0
10
619.09125
20
-250.9201
30
0.0
11
390.78992
21
1062.7228
31
0.0
0
LINE
8
0
10
390.78992
20
1062.7228
30
0.0
11
1007.83887
21
-219.45953
31
0.0
0
LINE
8
0
10
1007.83887
20
-219.45953
30
0.0
11
0.8366699
21
917.1832
31
0.0
0
LINE
8
0
10
0.8366699
20
917.1832
30
0.0
11
1365.7988
21
43.55249
31
0.0
0
LINE
8
0
10
1365.7988
20
43.55249
30
0.0
11
-290.05835
21
542.8834
31
0.0
0
LINE
8
0
10
-290.05835
20
542.8834
30
0.0
11
1555.4226
21
512.57385
31
0.0
0
LINE
8
0
10
1555.4226
20
512.57385
30
0.0
11
-348.11737
21
6.1140747
31
0.0
0
LINE
8
0
10
-348.11737
20
6.1140747
30
0.0
11
1458.6727
21
1080.5743
31
0.0
0
LINE
8
0
10
1458.6727
20
1080.5743
30
0.0
11
-83.3313
21
-548.8557
31
0.0
0
LINE
8
0
10
-83.3313
20
-548.8557
30
0.0
11
1025.1682
21
1573.2163
31
0.0
0
LINE
8
0
10
1025.1682
20
1573.2163
30
0.0
11
505.2461
21
-928.36255
31
0.0
0
LINE
8
0
10
505.2461
20
-928.36255
30
0.0
11
310.3373
21
1791.3992
31
0.0
0
LINE
8
0
10
310.3373
20
1791.3992
30
0.0
11
1302.7014
21
-944.1365
31
0.0
0
LINE
8
0
10
1302.7014
20
-944.1365
30
0.0
11
-512.9857
21
1575.2998
31
0.0
0
LINE
8
0
10
-512.9857
20
1575.2998
30
0.0
11
2085.037
21
-482.44025
31
0.0
0
LINE
8
0
10
2085.037
20
-482.44025
30
0.0
11
-1181.7018
21
873.3976
31
0.0
0
LINE
8
0
10
-1181.7018
20
873.3976
30
0.0
11
2567.1284
21
432.97348
31
0.0
0
LINE
8
0
10
2567.1284
20
432.97348
30
0.0
11
-1409.9962
21
-206.87384
31
0.0
0
LINE
8
0
10
1033.0283
20
-86.36197
30
0.0
11
13.74585
21
773.1976
31
0.0
0
LINE
8
0
10
13.74585
20
773.1976
30
0.0
11
1310.6035
21
187.62012
31
0.0
0
LINE
8
0
10
1310.6035
20
187.62012
30
0.0
11
-191.42468
21
411.0499
31
0.0
0
LINE
8
0
10
-191.42468
20
411.0499
30
0.0
11
1415.7556
21
619.19275
31
0.0
0
LINE
8
0
10
1415.7556
20
619.19275
30
0.0
11
-173.66803
21
-62.6633
31
0.0
0
LINE
8
0
10
-173.66803
20
-62.6633
30
0.0
11
1259.5353
21
1100.3704
31
0.0
0
LINE
8
0
10
1259.5353
20
1100.3704
30
0.0
11
126.884796
21
-511.17218
31
0.0
0
LINE
8
0
10
126.884796
20
-511.17218
30
0.0
11
820.3169
21
1473.2944
31
0.0
0
LINE
8
0
10
820.3169
20
1473.2944
30
0.0
11
686.4503
21
-766.10254
31
0.0
0
LINE
8
0
10
686.4503
20
-766.10254
30
0.0
11
171.56012
21
1572.0255
31
0.0
0
LINE
8
0
10
171.56012
20
1572.0255
30
0.0
11
1381.2732
21
-678.4885
31
0.0
0
LINE
8
0
10
1381.2732
20
-678.4885
30
0.0
11
-516.27185
21
1279.678
31
0.0
0
LINE
8
0
10
-516.27185
20
1279.678
30
0.0
11
2002.2969
21
-177.9754
31
0.0
0
LINE
8
0
10
2002.2969
20
-177.9754
30
0.0
11
-1008.0654
21
584.91254
31
0.0
0
LINE
8
0
10
-1008.0654
20
584.91254
30
0.0
11
2304.8252
21
678.58136
31
0.0
0
LINE
8
0
10
2304.8252
20
678.58136
30
0.0
11
-1069.1539
21
-382.6184
31
0.0
0
LINE
8
0
10
-1069.1539
20
-382.6184
30
0.0
11
2085.7031
21
1689.7161
31
0.0
0
LINE
8
0
10
2085.7031
20
1689.7161
30
0.0
11
-549.64905
21
-1356.8973
31
0.0
0
LINE
8
0
10
1244.3463
20
305.77023
30
0.0
11
-88.98346
21
309.04846
31
0.0
0
LINE
8
0
10
-88.98346
20
309.04846
30
0.0
11
1280.8691
21
694.07465
31
0.0
0
LINE
8
0
10
1280.8691
20
694.07465
30
0.0
11
-13.369263
21
-100.253204
31
0.0
0
LINE
8
0
10
-13.369263
20
-100.253204
30
0.0
11
1084.0107
21
1092.2689
31
0.0
0
LINE
8
0
10
1084.0107
20
1092.2689
30
0.0
11
304.73007
21
-451.7248
31
0.0
0
LINE
8
0
10
304.73007
20
-451.7248
30
0.0
11
655.04407
21
1360.4558
31
0.0
0
LINE
8
0
10
655.04407
20
1360.4558
30
0.0
11
823.26276
21
-602.11096
31
0.0
0
LINE
8
0
10
823.26276
20
-602.11096
30
0.0
11
78.872314
21
1363.8082
31
0.0
0
LINE
8
0
10
78.872314
20
1363.8082
30
0.0
11
1415.781
21
-437.7173
31
0.0
0
LINE
8
0
10
1415.781
20
-437.7173
30
0.0
11
-481.56738
21
1022.4279
31
0.0
0
LINE
8
0
10
-481.56738
20
1022.4279
30
0.0
11
1891.729
21
76.02246
31
0.0
0
LINE
8
0
10
1891.729
20
76.02246
30
0.0
11
-820.5597
21
356.34143
31
0.0
0
LINE
8
0
10
-820.5597
20
356.34143
30
0.0
11
2045.7372
21
858.624
31
0.0
0
LINE
8
0
10
2045.7372
20
858.624
30
0.0
11
-750.7092
21
-491.9931
31
0.0
0
LINE
8
0
10
-750.7092
20
-491.9931
30
0.0
11
1726.9033
21
1709.246
31
0.0
0
LINE
8
0
10
1726.9033
20
1709.246
30
0.0
11
-175.58887
21
-1272.4319
31
0.0
0
LINE
8
0
10
-175.58887
20
-1272.4319
30
0.0
11
909.1089
21
2342.9702
31
0.0
0
LINE
8
0
10
909.1089
20
2342.9702
30
0.0
11
848.6372
21
-1684.8406
31
0.0
0
LINE
8
0
10
1154.1676
20
741.9938
30
0.0
11
-68.57141
21
210.30917
31
0.0
0
LINE
8
0
10
-68.57141
20
210.30917
30
0.0
11
1341.6621
21
399.99988
31
0.0
0
LINE
8
0
10
1341.6621
20
399.99988
30
0.0
11
-161.4466
21
616.04236
31
0.0
0
LINE
8
0
10
-161.4466
20
616.04236
30
0.0
11
1318.827
21
-43.610474
31
0.0
0
LINE
8
0
10
1318.827
20
-43.610474
30
0.0
11
-8.78009
21
1064.8354
31
0.0
0
LINE
8
0
10
-8.78009
20
1064.8354
30
0.0
11
1031.3572
21
-459.9048
31
0.0
0
LINE
8
0
10
1031.3572
20
-459.9048
30
0.0
11
407.62115
21
1408.4954
31
0.0
0
LINE
8
0
10
407.62115
20
1408.4954
30
0.0
11
503.74396
21
-691.43713
31
0.0
0
LINE
8
0
10
503.74396
20
-691.43713
30
0.0
11
1016.75305
21
1492.5135
31
0.0
0
LINE
8
0
10
1016.75305
20
1492.5135
30
0.0
11
-146.11139
21
-600.26117
31
0.0
0
LINE
8
0
10
-146.11139
20
-600.26117
30
0.0
11
1657.3881
21
1209.6023
31
0.0
0
LINE
8
0
10
1657.3881
20
1209.6023
30
0.0
11
-721.42725
21
-123.18823
31
0.0
0
LINE
8
0
10
-721.42725
20
-123.18823
30
0.0
11
2109.08
21
552.21497
31
0.0
0
LINE
8
0
10
2109.08
20
552.21497
30
0.0
11
-993.67566
21
683.3108
31
0.0
0
LINE
8
0
10
-993.67566
20
683.3108
30
0.0
11
2153.6587
21
-355.10272
31
0.0
0
LINE
8
0
10
2153.6587
20
-355.10272
30
0.0
11
-775.14734
21
1627.8177
31
0.0
0
LINE
8
0
10
-775.14734
20
1627.8177
30
0.0
11
1654.1746
21
-1261.1434
31
0.0
0
LINE
8
0
10
1654.1746
20
-1261.1434
30
0.0
11
1.5933228
21
2412.5332
31
0.0
0
LINE
8
0
10
804.6877
20
1018.1945
30
0.0
11
209.77539
21
-175.06097
31
0.0
0
LINE
8
0
10
209.77539
20
-175.06097
30
0.0
11
1168.1462
21
876.7311
31
0.0
0
LINE
8
0
10
1168.1462
20
876.7311
30
0.0
11
-122.171265
21
76.04974
31
0.0
0
LINE
8
0
10
-122.171265
20
76.04974
30
0.0
11
1435.8008
21
522.22766
31
0.0
0
LINE
8
0
10
1435.8008
20
522.22766
30
0.0
11
-293.70074
21
517.97656
31
0.0
0
LINE
8
0
10
-293.70074
20
517.97656
30
0.0
11
1483.1748
21
18.545624
31
0.0
0
LINE
8
0
10
1483.1748
20
18.545624
30
0.0
11
-195.61902
21
1048.8938
31
0.0
0
LINE
8
0
10
-195.61902
20
1048.8938
30
0.0
11
1227.8257
21
-497.96167
31
0.0
0
LINE
8
0
10
1227.8257
20
-497.96167
30
0.0
11
216.99738
21
1504.7977
31
0.0
0
LINE
8
0
10
216.99738
20
1504.7977
30
0.0
11
671.4009
21
-845.8356
31
0.0
0
LINE
8
0
10
671.4009
20
-845.8356
30
0.0
11
889.6041
21
1699.8672
31
0.0
0
LINE
8
0
10
889.6041
20
1699.8672
30
0.0
11
-75.97333
21
-850.1824
31
0.0
0
LINE
8
0
10
-75.97333
20
-850.1824
30
0.0
11
1658.1807
21
1486.6212
31
0.0
0
LINE
8
0
10
1658.1807
20
1486.6212
30
0.0
11
-802.9352
21
-407.3661
31
0.0
0
LINE
8
0
10
-802.9352
20
-407.3661
30
0.0
11
2275.5425
21
820.23016
31
0.0
0
LINE
8
0
10
2275.5425
20
820.23016
30
0.0
11
-1242.65
21
456.63556
31
0.0
0
LINE
8
0
10
-1242.65
20
456.63556
30
0.0
11
2475.3071
21
-194.8996
31
0.0
0
LINE
8
0
10
2475.3071
20
-194.8996
30
0.0
11
-1152.0375
21
1557.0417
31
0.0
0
LINE
8
0
10
359.43213
20
1005.13513
30
0.0
11
670.71265
21
-291.35382
31
0.0
0
LINE
8
0
10
670.71265
20
-291.35382
30
0.0
11
728.7886
21
1130.3945
31
0.0
0
LINE
8
0
10
728.7886
20
1130.3945
30
0.0
11
255.01581
21
-312.36298
31
0.0
0
LINE
8
0
10
255.01581
20
-312.36298
30
0.0
11
1161.6941
21
1030.8741
31
0.0
0
LINE
8
0
10
1161.6941
20
1030.8741
30
0.0
11
-160.44843
21
-84.08441
31
0.0
0
LINE
8
0
10
-160.44843
20
-84.08441
30
0.0
11
1521.7454
21
675.4828
31
0.0
0
LINE
8
0
10
1521.7454
20
675.4828
30
0.0
11
-426.58032
21
385.66556
31
0.0
0
LINE
8
0
10
-426.58032
20
385.66556
30
0.0
11
1658.141
21
115.67993
31
0.0
0
LINE
8
0
10
1658.141
20
115.67993
30
0.0
11
-403.54718
21
1000.13495
31
0.0
0
LINE
8
0
10
-403.54718
20
1000.13495
30
0.0
11
1455.5039
21
-508.47003
31
0.0
0
LINE
8
0
10
1455.5039
20
-508.47003
30
0.0
11
-13.693237
21
1581.9077
31
0.0
0
LINE
8
0
10
-13.693237
20
1581.9077
30
0.0
11
885.78125
21
-992.20154
31
0.0
0
LINE
8
0
10
885.78125
20
-992.20154
30
0.0
11
712.1412
21
1912.586
31
0.0
0
LINE
8
0
10
712.1412
20
1912.586
30
0.0
11
44.259827
21
-1120.2697
31
0.0
0
LINE
8
0
10
44.259827
20
-1120.2697
30
0.0
11
1613.4109
21
1798.9406
31
0.0
0
LINE
8
0
10
1613.4109
20
1798.9406
30
0.0
11
-847.95215
21
-741.0525
31
0.0
0
LINE
8
0
10
-847.95215
20
-741.0525
30
0.0
11
2418.9597
21
1149.7112
31
0.0
0
LINE
8
0
10
2418.9597
20
1149.7112
30
0.0
11
-1485.8699
21
160.14983
31
0.0
0
LINE
8
0
10
26.740906
20
708.92633
30
0.0
11
1098.5627
21
-84.15445
31
0.0
0
LINE
8
0
10
1098.5627
20
-84.15445
30
0.0
11
229.169
21
1042.2983
31
0.0
0
LINE
8
0
10
229.169
20
1042.2983
30
0.0
11
793.6251
21
-367.4532
31
0.0
0
LINE
8
0
10
793.6251
20
-367.4532
30
0.0
11
624.7648
21
1244.3276
31
0.0
0
LINE
8
0
10
624.7648
20
1244.3276
30
0.0
11
328.62604
21
-459.63696
31
0.0
0
LINE
8
0
10
328.62604
20
-459.63696
30
0.0
11
1129.0211
21
1203.5186
31
0.0
0
LINE
8
0
10
1129.0211
20
1203.5186
30
0.0
11
-177.19226
21
-270.85388
31
0.0
0
LINE
8
0
10
-177.19226
20
-270.85388
30
0.0
11
1593.3406
21
862.358
31
0.0
0
LINE
8
0
10
1593.3406
20
862.358
30
0.0
11
-554.5211
21
214.66249
31
0.0
0
LINE
8
0
10
-554.5211
20
214.66249
30
0.0
11
1839.3069
21
253.97632
31
0.0
0
LINE
8
0
10
1839.3069
20
253.97632
30
0.0
11
-629.8319
21
910.91956
31
0.0
0
LINE
8
0
10
-629.8319
20
910.91956
30
0.0
11
1713.8109
21
-482.79175
31
0.0
0
LINE
8
0
10
1713.8109
20
-482.79175
30
0.0
11
-286.37097
21
1630.7877
31
0.0
0
LINE
8
0
10
-286.37097
20
1630.7877
30
0.0
11
1151.4886
21
-1121.8171
31
0.0
0
LINE
8
0
10
1151.4886
20
-1121.8171
30
0.0
11
477.0963
21
2123.0586
31
0.0
0
LINE
8
0
10
477.0963
20
2123.0586
30
0.0
11
224.25845
21
-1404.8226
31
0.0
0
LINE
8
0
10
224.25845
20
-1404.8226
30
0.0
11
1511.4993
21
2143.5168
31
0.0
0
LINE
8
0
10
1511.4993
20
2143.5168
30
0.0
11
-843.6964
21
-1124.507
31
0.0
0
LINE
8
0
10
-37.715942
20
268.1674
30
0.0
11
1293.1296
21
349.58618
31
0.0
0
LINE
8
0
10
1293.1296
20
349.58618
30
0.0
11
-96.93439
21
653.6636
31
0.0
0
LINE
8
0
10
-96.93439
20
653.6636
30
0.0
11
1241.6348
21
-63.443512
31
0.0
0
LINE
8
0
10
1241.6348
20
-63.443512
30
0.0
11
76.24762
21
1062.711
31
0.0
0
LINE
8
0
10
76.24762
20
1062.711
30
0.0
11
944.6793
21
-432.956
31
0.0
0
LINE
8
0
10
944.6793
20
-432.956
30
0.0
11
488.76212
21
1355.5791
31
0.0
0
LINE
8
0
10
488.76212
20
1355.5791
30
0.0
11
435.85257
21
-613.4734
31
0.0
0
LINE
8
0
10
435.85257
20
-613.4734
30
0.0
11
1063.7451
21
1392.6936
31
0.0
0
LINE
8
0
10
1063.7451
20
1392.6936
30
0.0
11
-165.28186
21
-484.08856
31
0.0
0
LINE
8
0
10
-165.28186
20
-484.08856
30
0.0
11
1643.2264
21
1084.7502
31
0.0
0
LINE
8
0
10
1643.2264
20
1084.7502
30
0.0
11
-670.5187
21
0.86660767
31
0.0
0
LINE
8
0
10
-670.5187
20
0.86660767
30
0.0
11
2020.6763
21
439.68597
31
0.0
0
LINE
8
0
10
2020.6763
20
439.68597
30
0.0
11
-870.13464
21
773.0901
31
0.0
0
LINE
8
0
10
-870.13464
20
773.0901
30
0.0
11
2000.6699
21
-411.28967
31
0.0
0
LINE
8
0
10
2000.6699
20
-411.28967
30
0.0
11
-601.7102
21
1640.9386
31
0.0
0
LINE
8
0
10
-601.7102
20
1640.9386
30
0.0
11
1472.2827
21
-1224.0964
31
0.0
0
LINE
8
0
10
1472.2827
20
-1224.0964
30
0.0
11
177.53815
21
2321.5117
31
0.0
0
LINE
8
0
10
177.53815
20
2321.5117
30
0.0
11
473.99823
21
-1695.8303
31
0.0
0
LINE
8
0
10
196.22168
20
-110.90558
30
0.0
11
1163.3735
21
806.916
31
0.0
0
LINE
8
0
10
1163.3735
20
806.916
30
0.0
11
-96.93445
21
146.33672
31
0.0
0
LINE
8
0
10
-96.93445
20
146.33672
30
0.0
11
1389.4165
21
457.41687
31
0.0
0
LINE
8
0
10
1389.4165
20
457.41687
30
0.0
11
-227.20007
21
571.00476
31
0.0
0
LINE
8
0
10
-227.20007
20
571.00476
30
0.0
11
1399.4539
21
-16.525024
31
0.0
0
LINE
8
0
10
1399.4539
20
-16.525024
30
0.0
11
-99.44873
21
1060.5125
31
0.0
0
LINE
8
0
10
-99.44873
20
1060.5125
30
0.0
11
1125.7039
21
-481.8777
31
0.0
0
LINE
8
0
10
1125.7039
20
-481.8777
30
0.0
11
317.15836
21
1458.5371
31
0.0
0
LINE
8
0
10
317.15836
20
1458.5371
30
0.0
11
582.041
21
-769.1648
31
0.0
0
LINE
8
0
10
582.041
20
-769.1648
30
0.0
11
959.0067
21
1595.1229
31
0.0
0
LINE
8
0
10
959.0067
20
1595.1229
30
0.0
11
-116.71594
21
-722.4275
31
0.0
0
LINE
8
0
10
-116.71594
20
-722.4275
30
0.0
11
1662.7916
21
1343.5942
31
0.0
0
LINE
8
0
10
1662.7916
20
1343.5942
30
0.0
11
-766.0062
21
-259.18054
31
0.0
0
LINE
8
0
10
-766.0062
20
-259.18054
30
0.0
11
2194.4624
21
678.84906
31
0.0
0
LINE
8
0
10
2194.4624
20
678.84906
30
0.0
11
-1118.2234
21
578.1699
31
0.0
0
LINE
8
0
10
-1118.2234
20
578.1699
30
0.0
11
2312.1562
21
-283.43787
31
0.0
0
LINE
8
0
10
2312.1562
20
-283.43787
30
0.0
11
-958.7484
21
1600.4105
31
0.0
0
LINE
8
0
10
-958.7484
20
1600.4105
30
0.0
11
1850.6505
21
-1286.4917
31
0.0
0
LINE
8
0
10
619.09125
20
-250.9201
30
0.0
11
770.0088
21
1073.8452
31
0.0
0
LINE
8
0
10
770.0088
20
1073.8452
30
0.0
11
229.16858
21
-242.29803
31
0.0
0
LINE
8
0
10
229.16858
20
-242.29803
30
0.0
11
1167.8214
21
951.41095
31
0.0
0
LINE
8
0
10
1167.8214
20
951.41095
30
0.0
11
-143.5918
21
-0.71661377
31
0.0
0
LINE
8
0
10
-143.5918
20
-0.71661377
30
0.0
11
1480.1543
21
594.8022
31
0.0
0
LINE
8
0
10
1480.1543
20
594.8022
30
0.0
11
-360.378
21
456.386
31
0.0
0
LINE
8
0
10
-360.378
20
456.386
30
0.0
11
1569.5725
21
62.358246
31
0.0
0
LINE
8
0
10
1569.5725
20
62.358246
30
0.0
11
-297.0838
21
1029.0796
31
0.0
0
LINE
8
0
10
-297.0838
20
1029.0796
30
0.0
11
1337.7671
21
-507.17615
31
0.0
0
LINE
8
0
10
1337.7671
20
-507.17615
30
0.0
11
106.805084
21
1546.2823
31
0.0
0
LINE
8
0
10
106.805084
20
1546.2823
30
0.0
11
772.44604
21
-920.5255
31
0.0
0
LINE
8
0
10
772.44604
20
-920.5255
30
0.0
11
807.6152
21
1805.9844
31
0.0
0
LINE
8
0
10
807.6152
20
1805.9844
30
0.0
11
-22.708618
21
-983.0134
31
0.0
0
LINE
8
0
10
-22.708618
20
-983.0134
30
0.0
11
1642.1885
21
1638.5114
31
0.0
0
LINE
8
0
10
1642.1885
20
1638.5114
30
0.0
11
-830.761
21
-567.9664
31
0.0
0
LINE
8
0
10
-830.761
20
-567.9664
30
0.0
11
2350.8933
21
977.0089
31
0.0
0
LINE
8
0
10
2350.8933
20
977.0089
30
0.0
11
-1365.6794
21
317.62387
31
0.0
0
LINE
8
0
10
-1365.6794
20
317.62387
30
0.0
11
2642.1099
21
-88.02518
31
0.0
0
LINE
8
0
10
1033.0283
20
-86.36197
30
0.0
11
297.09497
21
1025.475
31
0.0
0
LINE
8
0
10
297.09497
20
1025.475
30
0.0
11
728.78784
21
-330.39465
31
0.0
0
LINE
8
0
10
728.78784
20
-330.39465
30
0.0
11
680.5364
21
1187.3938
31
0.0
0
LINE
8
0
10
680.5364
20
1187.3938
30
0.0
11
287.95197
21
-384.9386
31
0.0
0
LINE
8
0
10
287.95197
20
-384.9386
30
0.0
11
1149.021
21
1114.9794
31
0.0
0
LINE
8
0
10
1149.021
20
1114.9794
30
0.0
11
-171.93652
21
-174.12482
31
0.0
0
LINE
8
0
10
-171.93652
20
-174.12482
30
0.0
11
1559.7676
21
764.58044
31
0.0
0
LINE
8
0
10
1559.7676
20
764.58044
30
0.0
11
-491.57056
21
305.2687
31
0.0
0
LINE
8
0
10
-491.57056
20
305.2687
30
0.0
11
1748.2839
21
179.2902
31
0.0
0
LINE
8
0
10
1748.2839
20
179.2902
30
0.0
11
-514.62524
21
961.0838
31
0.0
0
LINE
8
0
10
-514.62524
20
961.0838
30
0.0
11
1580.9187
21
-500.73523
31
0.0
0
LINE
8
0
10
1580.9187
20
-500.73523
30
0.0
11
-144.70673
21
1610.4991
31
0.0
0
LINE
8
0
10
-144.70673
20
1610.4991
30
0.0
11
1011.9612
21
-1059.7191
31
0.0
0
LINE
8
0
10
1011.9612
20
-1059.7191
30
0.0
11
602.2632
21
2018.6605
31
0.0
0
LINE
8
0
10
602.2632
20
2018.6605
30
0.0
11
126.170044
21
-1261.1807
31
0.0
0
LINE
8
0
10
126.170044
20
-1261.1807
30
0.0
11
1570.3682
21
1967.4668
31
0.0
0
LINE
8
0
10
1570.3682
20
1967.4668
30
0.0
11
-852.84766
21
-926.61804
31
0.0
0
LINE
8
0
10
-852.84766
20
-926.61804
30
0.0
11
2478.04
21
1338.8008
31
0.0
0
LINE
8
0
10
1244.3463
20
305.77023
30
0.0
11
-34.086304
21
684.438
31
0.0
0
LINE
8
0
10
-34.086304
20
684.438
30
0.0
11
1168.146
21
-76.73151
31
0.0
0
LINE
8
0
10
1168.146
20
-76.73151
30
0.0
11
155.56757
21
1054.9465
31
0.0
0
LINE
8
0
10
155.56757
20
1054.9465
30
0.0
11
865.5056
21
-401.8786
31
0.0
0
LINE
8
0
10
865.5056
20
-401.8786
30
0.0
11
560.99475
21
1300.6099
31
0.0
0
LINE
8
0
10
560.99475
20
1300.6099
30
0.0
11
377.70248
21
-535.99634
31
0.0
0
LINE
8
0
10
377.70248
20
-535.99634
30
0.0
11
1100.8787
21
1296.2104
31
0.0
0
LINE
8
0
10
1100.8787
20
1296.2104
30
0.0
11
-175.30103
21
-374.21484
31
0.0
0
LINE
8
0
10
-175.30103
20
-374.21484
30
0.0
11
1621.5073
21
969.0271
31
0.0
0
LINE
8
0
10
1621.5073
20
969.0271
30
0.0
11
-614.51074
21
113.35031
31
0.0
0
LINE
8
0
10
-614.51074
20
113.35031
30
0.0
11
1930.4086
21
340.51645
31
0.0
0
LINE
8
0
10
1930.4086
20
340.51645
30
0.0
11
-748.57214
21
848.60803
31
0.0
0
LINE
8
0
10
-748.57214
20
848.60803
30
0.0
11
1853.8699
21
-453.40637
31
0.0
0
LINE
8
0
10
1853.8699
20
-453.40637
30
0.0
11
-438.72107
21
1641.4208
31
0.0
0
LINE
8
0
10
-438.72107
20
1641.4208
30
0.0
11
1304.8113
21
-1177.1104
31
0.0
0
LINE
8
0
10
1304.8113
20
-1177.1104
30
0.0
11
335.79715
21
2224.49
31
0.0
0
LINE
8
0
10
335.79715
20
2224.49
30
0.0
11
339.78745
21
-1550.1207
31
0.0
0
LINE
8
0
10
339.78745
20
-1550.1207
30
0.0
11
1435.2129
21
2326.3438
31
0.0
0
ENDSEC
0
EOF
