0
SECTION
2
ENTITIES
0
LINE
8
0
10
1075.2001
20
400.0
30
0.0
11
995.45447
21
483.19116
31
0.0
0
LINE
8
0
10
995.45447
20
483.19116
30
0.0
11
914.52747
21
538.46094
31
0.0
0
LINE
8
0
10
914.52747
20
538.46094
30
0.0
11
837.5054
21
570.2881
31
0.0
0
LINE
8
0
10
837.5054
20
570.2881
30
0.0
11
767.83685
21
583.2902
31
0.0
0
LINE
8
0
10
767.83685
20
583.2902
30
0.0
11
707.58356
21
581.9139
31
0.0
0
LINE
8
0
10
707.58356
20
581.9139
30
0.0
11
657.6826
21
570.2202
31
0.0
0
LINE
8
0
10
657.6826
20
570.2202
30
0.0
11
618.2029
21
551.753
31
0.0
0
LINE
8
0
10
618.2029
20
551.753
30
0.0
11
588.5815
21
529.47327
31
0.0
0
LINE
8
0
10
588.5815
20
529.47327
30
0.0
11
567.83136
21
505.74677
31
0.0
0
LINE
8
0
10
567.83136
20
505.74677
30
0.0
11
554.71716
21
482.3693
31
0.0
0
LINE
8
0
10
554.71716
20
482.3693
30
0.0
11
547.89624
21
460.61902
31
0.0
0
LINE
8
0
10
547.89624
20
460.61902
30
0.0
11
546.0277
21
441.32468
31
0.0
0
LINE
8
0
10
546.0277
20
441.32468
30
0.0
11
547.8505
21
424.9411
31
0.0
0
LINE
8
0
10
547.8505
20
424.9411
30
0.0
11
552.23566
21
411.62604
31
0.0
0
LINE
8
0
10
552.23566
20
411.62604
30
0.0
11
558.2159
21
401.3131
31
0.0
0
LINE
8
0
10
558.2159
20
401.3131
30
0.0
11
564.998
21
393.7778
31
0.0
0
LINE
8
0
10
564.998
20
393.7778
30
0.0
11
571.9611
21
388.69434
31
0.0
0
LINE
8
0
10
571.9611
20
388.69434
30
0.0
11
578.6457
21
385.68295
31
0.0
0
LINE
8
0
10
578.6457
20
385.68295
30
0.0
11
584.7357
21
384.34717
31
0.0
0
LINE
8
0
10
584.7357
20
384.34717
30
0.0
11
590.03754
21
384.30167
31
0.0
0
LINE
8
0
10
590.03754
20
384.30167
30
0.0
11
594.45764
21
385.19202
31
0.0
0
LINE
8
0
10
594.45764
20
385.19202
30
0.0
11
597.9801
21
386.70673
31
0.0
0
LINE
8
0
10
1067.9807
20
482.51764
30
0.0
11
975.0006
21
550.5973
31
0.0
0
LINE
8
0
10
975.0006
20
550.5973
30
0.0
11
885.70557
21
590.9745
31
0.0
0
LINE
8
0
10
885.70557
20
590.9745
30
0.0
11
804.3269
21
608.94336
31
0.0
0
LINE
8
0
10
804.3269
20
608.94336
30
0.0
11
733.45905
21
609.6502
31
0.0
0
LINE
8
0
10
733.45905
20
609.6502
30
0.0
11
674.3601
21
597.8319
31
0.0
0
LINE
8
0
10
674.3601
20
597.8319
30
0.0
11
627.24786
21
577.65063
31
0.0
0
LINE
8
0
10
627.24786
20
577.65063
30
0.0
11
591.57477
21
552.6084
31
0.0
0
LINE
8
0
10
591.57477
20
552.6084
30
0.0
11
566.27216
21
525.5235
31
0.0
0
LINE
8
0
10
566.27216
20
525.5235
30
0.0
11
549.95734
21
498.55423
31
0.0
0
LINE
8
0
10
549.95734
20
498.55423
30
0.0
11
541.1018
21
473.25464
31
0.0
0
LINE
8
0
10
541.1018
20
473.25464
30
0.0
11
538.16144
21
450.65036
31
0.0
0
LINE
8
0
10
538.16144
20
450.65036
30
0.0
11
539.6717
21
431.32468
31
0.0
0
LINE
8
0
10
539.6717
20
431.32468
30
0.0
11
544.3118
21
415.50653
31
0.0
0
LINE
8
0
10
544.3118
20
415.50653
30
0.0
11
550.94244
21
403.1552
31
0.0
0
LINE
8
0
10
550.94244
20
403.1552
30
0.0
11
558.6227
21
394.0374
31
0.0
0
LINE
8
0
10
558.6227
20
394.0374
30
0.0
11
566.6102
21
387.79428
31
0.0
0
LINE
8
0
10
566.6102
20
387.79428
30
0.0
11
574.35034
21
383.9972
31
0.0
0
LINE
8
0
10
574.35034
20
383.9972
30
0.0
11
581.4563
21
382.19232
31
0.0
0
LINE
8
0
10
581.4563
20
382.19232
30
0.0
11
587.68567
21
381.93436
31
0.0
0
LINE
8
0
10
587.68567
20
381.93436
30
0.0
11
592.9149
21
382.8102
31
0.0
0
LINE
8
0
10
592.9149
20
382.8102
30
0.0
11
597.1132
21
384.45456
31
0.0
0
LINE
8
0
10
597.1132
20
384.45456
30
0.0
11
600.31915
21
386.55792
31
0.0
0
LINE
8
0
10
1046.542
20
562.52795
30
0.0
11
943.1526
21
613.4275
31
0.0
0
LINE
8
0
10
943.1526
20
613.4275
30
0.0
11
848.2027
21
637.6854
31
0.0
0
LINE
8
0
10
848.2027
20
637.6854
30
0.0
11
764.94006
21
641.25006
31
0.0
0
LINE
8
0
10
764.94006
20
641.25006
30
0.0
11
695.0261
21
629.6401
31
0.0
0
LINE
8
0
10
695.0261
20
629.6401
30
0.0
11
638.87726
21
607.7389
31
0.0
0
LINE
8
0
10
638.87726
20
607.7389
30
0.0
11
595.98517
21
579.6833
31
0.0
0
LINE
8
0
10
595.98517
20
579.6833
30
0.0
11
565.2026
21
548.8269
31
0.0
0
LINE
8
0
10
565.2026
20
548.8269
30
0.0
11
544.9876
21
517.75977
31
0.0
0
LINE
8
0
10
544.9876
20
517.75977
30
0.0
11
533.6038
21
488.36713
31
0.0
0
LINE
8
0
10
533.6038
20
488.36713
30
0.0
11
529.27606
21
461.91415
31
0.0
0
LINE
8
0
10
529.27606
20
461.91415
30
0.0
11
530.30554
21
439.1427
31
0.0
0
LINE
8
0
10
530.30554
20
439.1427
30
0.0
11
535.14874
21
420.3729
31
0.0
0
LINE
8
0
10
535.14874
20
420.3729
30
0.0
11
542.46515
21
405.6008
31
0.0
0
LINE
8
0
10
542.46515
20
405.6008
30
0.0
11
551.13983
21
394.58853
31
0.0
0
LINE
8
0
10
551.13983
20
394.58853
30
0.0
11
560.2867
21
386.9429
31
0.0
0
LINE
8
0
10
560.2867
20
386.9429
30
0.0
11
569.237
21
382.18164
31
0.0
0
LINE
8
0
10
569.237
20
382.18164
30
0.0
11
577.51886
21
379.7863
31
0.0
0
LINE
8
0
10
577.51886
20
379.7863
30
0.0
11
584.83026
21
379.24277
31
0.0
0
LINE
8
0
10
584.83026
20
379.24277
30
0.0
11
591.0098
21
380.07043
31
0.0
0
LINE
8
0
10
591.0098
20
380.07043
30
0.0
11
596.0075
21
381.84106
31
0.0
0
LINE
8
0
10
596.0075
20
381.84106
30
0.0
11
599.8565
21
384.18945
31
0.0
0
LINE
8
0
10
599.8565
20
384.18945
30
0.0
11
602.6485
21
386.81757
31
0.0
0
LINE
8
0
10
1011.5353
20
637.60004
30
0.0
11
900.87805
21
669.77295
31
0.0
0
LINE
8
0
10
900.87805
20
669.77295
30
0.0
11
803.1583
21
677.17444
31
0.0
0
LINE
8
0
10
803.1583
20
677.17444
30
0.0
11
720.5417
21
666.22644
31
0.0
0
LINE
8
0
10
720.5417
20
666.22644
30
0.0
11
653.70593
21
642.6524
31
0.0
0
LINE
8
0
10
653.70593
20
642.6524
30
0.0
11
602.2132
21
611.3338
31
0.0
0
LINE
8
0
10
602.2132
20
611.3338
30
0.0
11
564.84454
21
576.25635
31
0.0
0
LINE
8
0
10
564.84454
20
576.25635
30
0.0
11
539.8877
21
540.52344
31
0.0
0
LINE
8
0
10
539.8877
20
540.52344
30
0.0
11
525.37463
21
506.4179
31
0.0
0
LINE
8
0
10
525.37463
20
506.4179
30
0.0
11
519.26776
21
475.4951
31
0.0
0
LINE
8
0
10
519.26776
20
475.4951
30
0.0
11
519.59924
21
448.69244
31
0.0
0
LINE
8
0
10
519.59924
20
448.69244
30
0.0
11
524.5673
21
426.44574
31
0.0
0
LINE
8
0
10
524.5673
20
426.44574
30
0.0
11
532.59625
21
408.80206
31
0.0
0
LINE
8
0
10
532.59625
20
408.80206
30
0.0
11
542.3667
21
395.52487
31
0.0
0
LINE
8
0
10
542.3667
20
395.52487
30
0.0
11
552.82184
21
386.18625
31
0.0
0
LINE
8
0
10
552.82184
20
386.18625
30
0.0
11
563.15735
21
380.24512
31
0.0
0
LINE
8
0
10
563.15735
20
380.24512
30
0.0
11
572.79846
21
377.1104
31
0.0
0
LINE
8
0
10
572.79846
20
377.1104
30
0.0
11
581.3705
21
376.18958
31
0.0
0
LINE
8
0
10
581.3705
20
376.18958
30
0.0
11
588.66516
21
376.92392
31
0.0
0
LINE
8
0
10
588.66516
20
376.92392
30
0.0
11
594.6072
21
378.8121
31
0.0
0
LINE
8
0
10
594.6072
20
378.8121
30
0.0
11
599.22144
21
381.42365
31
0.0
0
LINE
8
0
10
599.22144
20
381.42365
30
0.0
11
602.6042
21
384.40472
31
0.0
0
LINE
8
0
10
602.6042
20
384.40472
30
0.0
11
604.89734
21
387.47775
31
0.0
0
LINE
8
0
10
964.02435
20
705.4527
30
0.0
11
849.4614
21
717.9214
31
0.0
0
LINE
8
0
10
849.4614
20
717.9214
30
0.0
11
751.94104
21
708.2416
31
0.0
0
LINE
8
0
10
751.94104
20
708.2416
30
0.0
11
672.4806
21
683.1137
31
0.0
0
LINE
8
0
10
672.4806
20
683.1137
30
0.0
11
610.75385
21
648.29193
31
0.0
0
LINE
8
0
10
610.75385
20
648.29193
30
0.0
11
565.4818
21
608.50745
31
0.0
0
LINE
8
0
10
565.4818
20
608.50745
30
0.0
11
534.77203
21
567.4739
31
0.0
0
LINE
8
0
10
534.77203
20
567.4739
30
0.0
11
516.3993
21
527.95013
31
0.0
0
LINE
8
0
10
516.3993
20
527.95013
30
0.0
11
508.02908
21
491.84262
31
0.0
0
LINE
8
0
10
508.02908
20
491.84262
30
0.0
11
507.38467
21
460.32913
31
0.0
0
LINE
8
0
10
507.38467
20
460.32913
30
0.0
11
512.36536
21
433.99124
31
0.0
0
LINE
8
0
10
512.36536
20
433.99124
30
0.0
11
521.12103
21
412.9452
31
0.0
0
LINE
8
0
10
521.12103
20
412.9452
30
0.0
11
532.0918
21
396.9638
31
0.0
0
LINE
8
0
10
532.0918
20
396.9638
30
0.0
11
544.01935
21
385.58493
31
0.0
0
LINE
8
0
10
544.01935
20
385.58493
30
0.0
11
555.9373
21
378.2037
31
0.0
0
LINE
8
0
10
555.9373
20
378.2037
30
0.0
11
567.14746
21
374.14758
31
0.0
0
LINE
8
0
10
567.14746
20
374.14758
30
0.0
11
577.18646
21
372.73465
31
0.0
0
LINE
8
0
10
577.18646
20
372.73465
30
0.0
11
585.78815
21
373.3163
31
0.0
0
LINE
8
0
10
585.78815
20
373.3163
30
0.0
11
592.8445
21
375.3062
31
0.0
0
LINE
8
0
10
592.8445
20
375.3062
30
0.0
11
598.36835
21
378.19754
31
0.0
0
LINE
8
0
10
598.36835
20
378.19754
30
0.0
11
602.459
21
381.57065
31
0.0
0
LINE
8
0
10
602.459
20
381.57065
30
0.0
11
605.2727
21
385.09387
31
0.0
0
LINE
8
0
10
605.2727
20
385.09387
30
0.0
11
606.99744
21
388.5184
31
0.0
0
LINE
8
0
10
905.4527
20
764.02435
30
0.0
11
790.4651
21
756.4099
31
0.0
0
LINE
8
0
10
790.4651
20
756.4099
30
0.0
11
696.1071
21
729.943
31
0.0
0
LINE
8
0
10
696.1071
20
729.943
30
0.0
11
622.2173
21
691.3987
31
0.0
0
LINE
8
0
10
622.2173
20
691.3987
30
0.0
11
567.47504
21
646.3872
31
0.0
0
LINE
8
0
10
567.47504
20
646.3872
30
0.0
11
529.7993
21
599.34576
31
0.0
0
LINE
8
0
10
529.7993
20
599.34576
30
0.0
11
506.68143
21
553.6029
31
0.0
0
LINE
8
0
10
506.68143
20
553.6029
30
0.0
11
495.4511
21
511.4892
31
0.0
0
LINE
8
0
10
495.4511
20
511.4892
30
0.0
11
493.47803
21
474.47675
31
0.0
0
LINE
8
0
10
493.47803
20
474.47675
30
0.0
11
498.31567
21
443.33008
31
0.0
0
LINE
8
0
10
498.31567
20
443.33008
30
0.0
11
507.7942
21
418.25723
31
0.0
0
LINE
8
0
10
507.7942
20
418.25723
30
0.0
11
520.0715
21
399.05133
31
0.0
0
LINE
8
0
10
520.0715
20
399.05133
30
0.0
11
533.65076
21
385.2178
31
0.0
0
LINE
8
0
10
533.65076
20
385.2178
30
0.0
11
547.373
21
376.08298
31
0.0
0
LINE
8
0
10
547.373
20
376.08298
30
0.0
11
560.3916
21
370.88342
31
0.0
0
LINE
8
0
10
560.3916
20
370.88342
30
0.0
11
572.1358
21
368.83557
31
0.0
0
LINE
8
0
10
572.1358
20
368.83557
30
0.0
11
582.26764
21
369.18735
31
0.0
0
LINE
8
0
10
582.26764
20
369.18735
30
0.0
11
590.63763
21
371.25385
31
0.0
0
LINE
8
0
10
590.63763
20
371.25385
30
0.0
11
597.2412
21
374.43884
31
0.0
0
LINE
8
0
10
597.2412
20
374.43884
30
0.0
11
602.1791
21
378.24542
31
0.0
0
LINE
8
0
10
602.1791
20
378.24542
30
0.0
11
605.6219
21
382.27765
31
0.0
0
LINE
8
0
10
605.6219
20
382.27765
30
0.0
11
607.781
21
386.2359
31
0.0
0
LINE
8
0
10
607.781
20
386.2359
30
0.0
11
608.8849
21
389.90793
31
0.0
0
LINE
8
0
10
837.6
20
811.53534
30
0.0
11
725.6816
21
784.0692
31
0.0
0
LINE
8
0
10
725.6816
20
784.0692
30
0.0
11
637.3531
21
741.61926
31
0.0
0
LINE
8
0
10
637.3531
20
741.61926
30
0.0
11
571.27893
21
690.8297
31
0.0
0
LINE
8
0
10
571.27893
20
690.8297
30
0.0
11
525.1845
21
636.9961
31
0.0
0
LINE
8
0
10
525.1845
20
636.9961
30
0.0
11
496.24982
21
584.1271
31
0.0
0
LINE
8
0
10
496.24982
20
584.1271
30
0.0
11
481.42633
21
535.06476
31
0.0
0
LINE
8
0
10
481.42633
20
535.06476
30
0.0
11
477.67953
21
491.6407
31
0.0
0
LINE
8
0
10
477.67953
20
491.6407
30
0.0
11
482.16357
21
454.84793
31
0.0
0
LINE
8
0
10
482.16357
20
454.84793
30
0.0
11
492.33627
21
425.01453
31
0.0
0
LINE
8
0
10
492.33627
20
425.01453
30
0.0
11
506.02466
21
401.9685
31
0.0
0
LINE
8
0
10
506.02466
20
401.9685
30
0.0
11
521.4505
21
385.1863
31
0.0
0
LINE
8
0
10
521.4505
20
385.1863
30
0.0
11
537.22565
21
373.92096
31
0.0
0
LINE
8
0
10
537.22565
20
373.92096
30
0.0
11
552.3256
21
367.30774
31
0.0
0
LINE
8
0
10
552.3256
20
367.30774
30
0.0
11
566.0494
21
364.44785
31
0.0
0
LINE
8
0
10
566.0494
20
364.44785
30
0.0
11
577.97076
21
364.47046
31
0.0
0
LINE
8
0
10
577.97076
20
364.47046
30
0.0
11
587.8876
21
366.57626
31
0.0
0
LINE
8
0
10
587.8876
20
366.57626
30
0.0
11
595.7716
21
370.06482
31
0.0
0
LINE
8
0
10
595.7716
20
370.06482
30
0.0
11
601.7218
21
374.3481
31
0.0
0
LINE
8
0
10
601.7218
20
374.3481
30
0.0
11
605.92365
21
378.9543
31
0.0
0
LINE
8
0
10
605.92365
20
378.9543
30
0.0
11
608.6139
21
383.5231
31
0.0
0
LINE
8
0
10
608.6139
20
383.5231
30
0.0
11
610.0529
21
387.79617
31
0.0
0
LINE
8
0
10
610.0529
20
387.79617
30
0.0
11
610.5024
21
391.6041
31
0.0
0
LINE
8
0
10
762.52795
20
846.542
30
0.0
11
657.0793
21
800.0587
31
0.0
0
LINE
8
0
10
657.0793
20
800.0587
30
0.0
11
577.46405
21
742.9155
31
0.0
0
LINE
8
0
10
577.46405
20
742.9155
30
0.0
11
521.21326
21
681.424
31
0.0
0
LINE
8
0
10
521.21326
20
681.424
30
0.0
11
485.16718
21
620.40405
31
0.0
0
LINE
8
0
10
485.16718
20
620.40405
30
0.0
11
465.85266
21
563.3137
31
0.0
0
LINE
8
0
10
465.85266
20
563.3137
30
0.0
11
459.77393
21
512.4226
31
0.0
0
LINE
8
0
10
459.77393
20
512.4226
30
0.0
11
463.62463
21
469.00772
31
0.0
0
LINE
8
0
10
463.62463
20
469.00772
30
0.0
11
474.42953
21
433.55255
31
0.0
0
LINE
8
0
10
474.42953
20
433.55255
30
0.0
11
489.62823
21
405.93884
31
0.0
0
LINE
8
0
10
489.62823
20
405.93884
30
0.0
11
507.11053
21
385.6199
31
0.0
0
LINE
8
0
10
507.11053
20
385.6199
30
0.0
11
525.21625
21
371.77136
31
0.0
0
LINE
8
0
10
525.21625
20
371.77136
30
0.0
11
542.7079
21
363.41647
31
0.0
0
LINE
8
0
10
542.7079
20
363.41647
30
0.0
11
558.72687
21
359.52585
31
0.0
0
LINE
8
0
10
558.72687
20
359.52585
30
0.0
11
572.7388
21
359.0925
31
0.0
0
LINE
8
0
10
572.7388
20
359.0925
30
0.0
11
584.4751
21
361.18488
31
0.0
0
LINE
8
0
10
584.4751
20
361.18488
30
0.0
11
593.8756
21
364.98074
31
0.0
0
LINE
8
0
10
593.8756
20
364.98074
30
0.0
11
601.034
21
369.78534
31
0.0
0
LINE
8
0
10
601.034
20
369.78534
30
0.0
11
606.1501
21
375.03683
31
0.0
0
LINE
8
0
10
606.1501
20
375.03683
30
0.0
11
609.48816
21
380.30267
31
0.0
0
LINE
8
0
10
609.48816
20
380.30267
30
0.0
11
611.34424
21
385.26923
31
0.0
0
LINE
8
0
10
611.34424
20
385.26923
30
0.0
11
612.01935
21
389.72726
31
0.0
0
LINE
8
0
10
612.01935
20
389.72726
30
0.0
11
611.8007
21
393.55536
31
0.0
0
LINE
8
0
10
682.51764
20
867.9807
30
0.0
11
586.7427
21
803.8926
31
0.0
0
LINE
8
0
10
586.7427
20
803.8926
30
0.0
11
518.25977
21
733.7926
31
0.0
0
LINE
8
0
10
518.25977
20
733.7926
30
0.0
11
473.5414
21
663.46735
31
0.0
0
LINE
8
0
10
473.5414
20
663.46735
30
0.0
11
448.63898
21
597.1151
31
0.0
0
LINE
8
0
10
448.63898
20
597.1151
30
0.0
11
439.5315
21
537.53815
31
0.0
0
LINE
8
0
10
439.5315
20
537.53815
30
0.0
11
442.3823
21
486.3647
31
0.0
0
LINE
8
0
10
442.3823
20
486.3647
30
0.0
11
453.71338
21
444.278
31
0.0
0
LINE
8
0
10
453.71338
20
444.278
30
0.0
11
470.5109
21
411.23773
31
0.0
0
LINE
8
0
10
470.5109
20
411.23773
30
0.0
11
490.27374
21
386.68277
31
0.0
0
LINE
8
0
10
490.27374
20
386.68277
30
0.0
11
511.0188
21
369.7083
31
0.0
0
LINE
8
0
10
511.0188
20
369.7083
30
0.0
11
531.2542
21
359.21414
31
0.0
0
LINE
8
0
10
531.2542
20
359.21414
30
0.0
11
549.93097
21
354.0236
31
0.0
0
LINE
8
0
10
549.93097
20
354.0236
30
0.0
11
566.3822
21
352.97375
31
0.0
0
LINE
8
0
10
566.3822
20
352.97375
30
0.0
11
580.2564
21
354.98013
31
0.0
0
LINE
8
0
10
580.2564
20
354.98013
30
0.0
11
591.4511
21
359.0787
31
0.0
0
LINE
8
0
10
591.4511
20
359.0787
30
0.0
11
600.0497
21
364.44928
31
0.0
0
LINE
8
0
10
600.0497
20
364.44928
30
0.0
11
606.265
21
370.42392
31
0.0
0
LINE
8
0
10
606.265
20
370.42392
30
0.0
11
610.3914
21
376.484
31
0.0
0
LINE
8
0
10
610.3914
20
376.484
30
0.0
11
612.7644
21
382.2495
31
0.0
0
LINE
8
0
10
612.7644
20
382.2495
30
0.0
11
613.72986
21
387.46292
31
0.0
0
LINE
8
0
10
613.72986
20
387.46292
30
0.0
11
613.6206
21
391.97046
31
0.0
0
LINE
8
0
10
613.6206
20
391.97046
30
0.0
11
612.74054
21
395.70245
31
0.0
0
LINE
8
0
10
600.0
20
875.2001
30
0.0
11
516.80884
21
795.45447
31
0.0
0
LINE
8
0
10
516.80884
20
795.45447
30
0.0
11
461.53912
21
714.52747
31
0.0
0
LINE
8
0
10
461.53912
20
714.52747
30
0.0
11
429.71198
21
637.5054
31
0.0
0
LINE
8
0
10
429.71198
20
637.5054
30
0.0
11
416.70984
21
567.8369
31
0.0
0
LINE
8
0
10
416.70984
20
567.8369
30
0.0
11
418.08615
21
507.5836
31
0.0
0
LINE
8
0
10
418.08615
20
507.5836
30
0.0
11
429.7798
21
457.6826
31
0.0
0
LINE
8
0
10
429.7798
20
457.6826
30
0.0
11
448.247
21
418.20288
31
0.0
0
LINE
8
0
10
448.247
20
418.20288
30
0.0
11
470.5267
21
388.58145
31
0.0
0
LINE
8
0
10
470.5267
20
388.58145
30
0.0
11
494.25323
21
367.83133
31
0.0
0
LINE
8
0
10
494.25323
20
367.83133
30
0.0
11
517.63074
21
354.71707
31
0.0
0
LINE
8
0
10
517.63074
20
354.71707
30
0.0
11
539.381
21
347.89618
31
0.0
0
LINE
8
0
10
539.381
20
347.89618
30
0.0
11
558.67535
21
346.02768
31
0.0
0
LINE
8
0
10
558.67535
20
346.02768
30
0.0
11
575.05896
21
347.8505
31
0.0
0
LINE
8
0
10
575.05896
20
347.8505
30
0.0
11
588.374
21
352.23563
31
0.0
0
LINE
8
0
10
588.374
20
352.23563
30
0.0
11
598.6869
21
358.21588
31
0.0
0
LINE
8
0
10
598.6869
20
358.21588
30
0.0
11
606.2222
21
364.99802
31
0.0
0
LINE
8
0
10
606.2222
20
364.99802
30
0.0
11
611.30566
21
371.96115
31
0.0
0
LINE
8
0
10
611.30566
20
371.96115
30
0.0
11
614.3171
21
378.64572
31
0.0
0
LINE
8
0
10
614.3171
20
378.64572
30
0.0
11
615.65283
21
384.73572
31
0.0
0
LINE
8
0
10
615.65283
20
384.73572
30
0.0
11
615.6983
21
390.03757
31
0.0
0
LINE
8
0
10
615.6983
20
390.03757
30
0.0
11
614.808
21
394.45764
31
0.0
0
LINE
8
0
10
614.808
20
394.45764
30
0.0
11
613.2933
21
397.9801
31
0.0
0
LINE
8
0
10
517.48236
20
867.9807
30
0.0
11
449.40277
21
775.0006
31
0.0
0
LINE
8
0
10
449.40277
20
775.0006
30
0.0
11
409.0255
21
685.70557
31
0.0
0
LINE
8
0
10
409.0255
20
685.70557
30
0.0
11
391.05664
21
604.3269
31
0.0
0
LINE
8
0
10
391.05664
20
604.3269
30
0.0
11
390.3498
21
533.45905
31
0.0
0
LINE
8
0
10
390.3498
20
533.45905
30
0.0
11
402.16812
21
474.3601
31
0.0
0
LINE
8
0
10
402.16812
20
474.3601
30
0.0
11
422.34933
21
427.2478
31
0.0
0
LINE
8
0
10
422.34933
20
427.2478
30
0.0
11
447.3916
21
391.57468
31
0.0
0
LINE
8
0
10
447.3916
20
391.57468
30
0.0
11
474.4765
21
366.2721
31
0.0
0
LINE
8
0
10
474.4765
20
366.2721
30
0.0
11
501.4458
21
349.9573
31
0.0
0
LINE
8
0
10
501.4458
20
349.9573
30
0.0
11
526.7454
21
341.10175
31
0.0
0
LINE
8
0
10
526.7454
20
341.10175
30
0.0
11
549.3497
21
338.16138
31
0.0
0
LINE
8
0
10
549.3497
20
338.16138
30
0.0
11
568.67535
21
339.6717
31
0.0
0
LINE
8
0
10
568.67535
20
339.6717
30
0.0
11
584.4935
21
344.3118
31
0.0
0
LINE
8
0
10
584.4935
20
344.3118
30
0.0
11
596.8448
21
350.94244
31
0.0
0
LINE
8
0
10
596.8448
20
350.94244
30
0.0
11
605.9626
21
358.62268
31
0.0
0
LINE
8
0
10
605.9626
20
358.62268
30
0.0
11
612.20575
21
366.61023
31
0.0
0
LINE
8
0
10
612.20575
20
366.61023
30
0.0
11
616.0028
21
374.35034
31
0.0
0
LINE
8
0
10
616.0028
20
374.35034
30
0.0
11
617.8077
21
381.45627
31
0.0
0
LINE
8
0
10
617.8077
20
381.45627
30
0.0
11
618.0657
21
387.6857
31
0.0
0
LINE
8
0
10
618.0657
20
387.6857
30
0.0
11
617.1898
21
392.91492
31
0.0
0
LINE
8
0
10
617.1898
20
392.91492
30
0.0
11
615.5455
21
397.11322
31
0.0
0
LINE
8
0
10
615.5455
20
397.11322
30
0.0
11
613.4421
21
400.31915
31
0.0
0
LINE
8
0
10
437.47202
20
846.542
30
0.0
11
386.5725
21
743.1526
31
0.0
0
LINE
8
0
10
386.5725
20
743.1526
30
0.0
11
362.3146
21
648.20276
31
0.0
0
LINE
8
0
10
362.3146
20
648.20276
30
0.0
11
358.74994
21
564.94006
31
0.0
0
LINE
8
0
10
358.74994
20
564.94006
30
0.0
11
370.35992
21
495.0261
31
0.0
0
LINE
8
0
10
370.35992
20
495.0261
30
0.0
11
392.26114
21
438.87726
31
0.0
0
LINE
8
0
10
392.26114
20
438.87726
30
0.0
11
420.3167
21
395.98514
31
0.0
0
LINE
8
0
10
420.3167
20
395.98514
30
0.0
11
451.1731
21
365.2025
31
0.0
0
LINE
8
0
10
451.1731
20
365.2025
30
0.0
11
482.2403
21
344.98755
31
0.0
0
LINE
8
0
10
482.2403
20
344.98755
30
0.0
11
511.6329
21
333.6038
31
0.0
0
LINE
8
0
10
511.6329
20
333.6038
30
0.0
11
538.0859
21
329.276
31
0.0
0
LINE
8
0
10
538.0859
20
329.276
30
0.0
11
560.85736
21
330.3055
31
0.0
0
LINE
8
0
10
560.85736
20
330.3055
30
0.0
11
579.6272
21
335.14874
31
0.0
0
LINE
8
0
10
579.6272
20
335.14874
30
0.0
11
594.39923
21
342.46515
31
0.0
0
LINE
8
0
10
594.39923
20
342.46515
30
0.0
11
605.4115
21
351.13986
31
0.0
0
LINE
8
0
10
605.4115
20
351.13986
30
0.0
11
613.0571
21
360.28668
31
0.0
0
LINE
8
0
10
613.0571
20
360.28668
30
0.0
11
617.81836
21
369.237
31
0.0
0
LINE
8
0
10
617.81836
20
369.237
30
0.0
11
620.21375
21
377.51886
31
0.0
0
LINE
8
0
10
620.21375
20
377.51886
30
0.0
11
620.75726
21
384.83026
31
0.0
0
LINE
8
0
10
620.75726
20
384.83026
30
0.0
11
619.92957
21
391.00986
31
0.0
0
LINE
8
0
10
619.92957
20
391.00986
30
0.0
11
618.15894
21
396.0075
31
0.0
0
LINE
8
0
10
618.15894
20
396.0075
30
0.0
11
615.81055
21
399.85654
31
0.0
0
LINE
8
0
10
615.81055
20
399.85654
30
0.0
11
613.18243
21
402.6485
31
0.0
0
LINE
8
0
10
362.39996
20
811.5353
30
0.0
11
330.2271
21
700.87805
31
0.0
0
LINE
8
0
10
330.2271
20
700.87805
30
0.0
11
322.8256
21
603.15826
31
0.0
0
LINE
8
0
10
322.8256
20
603.15826
30
0.0
11
333.7735
21
520.54156
31
0.0
0
LINE
8
0
10
333.7735
20
520.54156
30
0.0
11
357.34753
21
453.7058
31
0.0
0
LINE
8
0
10
357.34753
20
453.7058
30
0.0
11
388.6662
21
402.21307
31
0.0
0
LINE
8
0
10
388.6662
20
402.21307
30
0.0
11
423.74368
21
364.84442
31
0.0
0
LINE
8
0
10
423.74368
20
364.84442
30
0.0
11
459.47662
21
339.88763
31
0.0
0
LINE
8
0
10
459.47662
20
339.88763
30
0.0
11
493.58215
21
325.37454
31
0.0
0
LINE
8
0
10
493.58215
20
325.37454
30
0.0
11
524.505
21
319.2677
31
0.0
0
LINE
8
0
10
524.505
20
319.2677
30
0.0
11
551.3076
21
319.59918
31
0.0
0
LINE
8
0
10
551.3076
20
319.59918
30
0.0
11
573.5543
21
324.56726
31
0.0
0
LINE
8
0
10
573.5543
20
324.56726
30
0.0
11
591.198
21
332.59625
31
0.0
0
LINE
8
0
10
591.198
20
332.59625
30
0.0
11
604.47516
21
342.3667
31
0.0
0
LINE
8
0
10
604.47516
20
342.3667
30
0.0
11
613.8138
21
352.82184
31
0.0
0
LINE
8
0
10
613.8138
20
352.82184
30
0.0
11
619.7549
21
363.15738
31
0.0
0
LINE
8
0
10
619.7549
20
363.15738
30
0.0
11
622.88965
21
372.7985
31
0.0
0
LINE
8
0
10
622.88965
20
372.7985
30
0.0
11
623.8104
21
381.3705
31
0.0
0
LINE
8
0
10
623.8104
20
381.3705
30
0.0
11
623.0761
21
388.6652
31
0.0
0
LINE
8
0
10
623.0761
20
388.6652
30
0.0
11
621.1879
21
394.60718
31
0.0
0
LINE
8
0
10
621.1879
20
394.60718
30
0.0
11
618.57635
21
399.22147
31
0.0
0
LINE
8
0
10
618.57635
20
399.22147
30
0.0
11
615.5953
21
402.6042
31
0.0
0
LINE
8
0
10
615.5953
20
402.6042
30
0.0
11
612.5223
21
404.89737
31
0.0
0
LINE
8
0
10
294.5473
20
764.02435
30
0.0
11
282.0786
21
649.4614
31
0.0
0
LINE
8
0
10
282.0786
20
649.4614
30
0.0
11
291.75842
21
551.94104
31
0.0
0
LINE
8
0
10
291.75842
20
551.94104
30
0.0
11
316.88626
21
472.48056
31
0.0
0
LINE
8
0
10
316.88626
20
472.48056
30
0.0
11
351.70807
21
410.75375
31
0.0
0
LINE
8
0
10
351.70807
20
410.75375
30
0.0
11
391.49252
21
365.48172
31
0.0
0
LINE
8
0
10
391.49252
20
365.48172
30
0.0
11
432.52612
21
334.7719
31
0.0
0
LINE
8
0
10
432.52612
20
334.7719
30
0.0
11
472.04993
21
316.39923
31
0.0
0
LINE
8
0
10
472.04993
20
316.39923
30
0.0
11
508.15744
21
308.029
31
0.0
0
LINE
8
0
10
508.15744
20
308.029
30
0.0
11
539.6709
21
307.38464
31
0.0
0
LINE
8
0
10
539.6709
20
307.38464
30
0.0
11
566.00885
21
312.3653
31
0.0
0
LINE
8
0
10
566.00885
20
312.3653
30
0.0
11
587.0549
21
321.12103
31
0.0
0
LINE
8
0
10
587.0549
20
321.12103
30
0.0
11
603.03625
21
332.09183
31
0.0
0
LINE
8
0
10
603.03625
20
332.09183
30
0.0
11
614.4151
21
344.01938
31
0.0
0
LINE
8
0
10
614.4151
20
344.01938
30
0.0
11
621.7963
21
355.93732
31
0.0
0
LINE
8
0
10
621.7963
20
355.93732
30
0.0
11
625.8524
21
367.1475
31
0.0
0
LINE
8
0
10
625.8524
20
367.1475
30
0.0
11
627.2654
21
377.1865
31
0.0
0
LINE
8
0
10
627.2654
20
377.1865
30
0.0
11
626.6837
21
385.78818
31
0.0
0
LINE
8
0
10
626.6837
20
385.78818
30
0.0
11
624.6938
21
392.8445
31
0.0
0
LINE
8
0
10
624.6938
20
392.8445
30
0.0
11
621.8025
21
398.36835
31
0.0
0
LINE
8
0
10
621.8025
20
398.36835
30
0.0
11
618.4293
21
402.45905
31
0.0
0
LINE
8
0
10
618.4293
20
402.45905
30
0.0
11
614.9061
21
405.2727
31
0.0
0
LINE
8
0
10
614.9061
20
405.2727
30
0.0
11
611.48157
21
406.99744
31
0.0
0
LINE
8
0
10
235.97565
20
705.4527
30
0.0
11
243.59003
21
590.4651
31
0.0
0
LINE
8
0
10
243.59003
20
590.4651
30
0.0
11
270.057
21
496.10706
31
0.0
0
LINE
8
0
10
270.057
20
496.10706
30
0.0
11
308.6013
21
422.21722
31
0.0
0
LINE
8
0
10
308.6013
20
422.21722
30
0.0
11
353.6128
21
367.47495
31
0.0
0
LINE
8
0
10
353.6128
20
367.47495
30
0.0
11
400.65427
21
329.7992
31
0.0
0
LINE
8
0
10
400.65427
20
329.7992
30
0.0
11
446.39716
21
306.68134
31
0.0
0
LINE
8
0
10
446.39716
20
306.68134
30
0.0
11
488.5109
21
295.451
31
0.0
0
LINE
8
0
10
488.5109
20
295.451
30
0.0
11
525.5233
21
293.47797
31
0.0
0
LINE
8
0
10
525.5233
20
293.47797
30
0.0
11
556.67
21
298.3156
31
0.0
0
LINE
8
0
10
556.67
20
298.3156
30
0.0
11
581.74286
21
307.7942
31
0.0
0
LINE
8
0
10
581.74286
20
307.7942
30
0.0
11
600.9487
21
320.07147
31
0.0
0
LINE
8
0
10
600.9487
20
320.07147
30
0.0
11
614.7823
21
333.65076
31
0.0
0
LINE
8
0
10
614.7823
20
333.65076
30
0.0
11
623.91705
21
347.373
31
0.0
0
LINE
8
0
10
623.91705
20
347.373
30
0.0
11
629.1166
21
360.39166
31
0.0
0
LINE
8
0
10
629.1166
20
360.39166
30
0.0
11
631.1645
21
372.13583
31
0.0
0
LINE
8
0
10
631.1645
20
372.13583
30
0.0
11
630.8127
21
382.26767
31
0.0
0
LINE
8
0
10
630.8127
20
382.26767
30
0.0
11
628.74615
21
390.63766
31
0.0
0
LINE
8
0
10
628.74615
20
390.63766
30
0.0
11
625.56116
21
397.24127
31
0.0
0
LINE
8
0
10
625.56116
20
397.24127
30
0.0
11
621.7546
21
402.1791
31
0.0
0
LINE
8
0
10
621.7546
20
402.1791
30
0.0
11
617.72235
21
405.6219
31
0.0
0
LINE
8
0
10
617.72235
20
405.6219
30
0.0
11
613.7641
21
407.78104
31
0.0
0
LINE
8
0
10
613.7641
20
407.78104
30
0.0
11
610.09204
21
408.8849
31
0.0
0
LINE
8
0
10
188.46469
20
637.60004
30
0.0
11
215.93079
21
525.6815
31
0.0
0
LINE
8
0
10
215.93079
20
525.6815
30
0.0
11
258.38077
21
437.35297
31
0.0
0
LINE
8
0
10
258.38077
20
437.35297
30
0.0
11
309.1703
21
371.27887
31
0.0
0
LINE
8
0
10
309.1703
20
371.27887
30
0.0
11
363.0039
21
325.1844
31
0.0
0
LINE
8
0
10
363.0039
20
325.1844
30
0.0
11
415.87302
21
296.2497
31
0.0
0
LINE
8
0
10
415.87302
20
296.2497
30
0.0
11
464.93536
21
281.4262
31
0.0
0
LINE
8
0
10
464.93536
20
281.4262
30
0.0
11
508.3594
21
277.67947
31
0.0
0
LINE
8
0
10
508.3594
20
277.67947
30
0.0
11
545.15216
21
282.16354
31
0.0
0
LINE
8
0
10
545.15216
20
282.16354
30
0.0
11
574.9856
21
292.33627
31
0.0
0
LINE
8
0
10
574.9856
20
292.33627
30
0.0
11
598.03156
21
306.02466
31
0.0
0
LINE
8
0
10
598.03156
20
306.02466
30
0.0
11
614.8137
21
321.4505
31
0.0
0
LINE
8
0
10
614.8137
20
321.4505
30
0.0
11
626.0791
21
337.22565
31
0.0
0
LINE
8
0
10
626.0791
20
337.22565
30
0.0
11
632.69226
21
352.32568
31
0.0
0
LINE
8
0
10
632.69226
20
352.32568
30
0.0
11
635.5522
21
366.04944
31
0.0
0
LINE
8
0
10
635.5522
20
366.04944
30
0.0
11
635.52954
21
377.9708
31
0.0
0
LINE
8
0
10
635.52954
20
377.9708
30
0.0
11
633.4237
21
387.88763
31
0.0
0
LINE
8
0
10
633.4237
20
387.88763
30
0.0
11
629.9352
21
395.7716
31
0.0
0
LINE
8
0
10
629.9352
20
395.7716
30
0.0
11
625.65186
21
401.72183
31
0.0
0
LINE
8
0
10
625.65186
20
401.72183
30
0.0
11
621.04565
21
405.92365
31
0.0
0
LINE
8
0
10
621.04565
20
405.92365
30
0.0
11
616.47687
21
408.61395
31
0.0
0
LINE
8
0
10
616.47687
20
408.61395
30
0.0
11
612.2038
21
410.05292
31
0.0
0
LINE
8
0
10
612.2038
20
410.05292
30
0.0
11
608.39594
21
410.50238
31
0.0
0
LINE
8
0
10
153.45804
20
562.528
30
0.0
11
199.94128
21
457.07925
31
0.0
0
LINE
8
0
10
199.94128
20
457.07925
30
0.0
11
257.08444
21
377.46396
31
0.0
0
LINE
8
0
10
257.08444
20
377.46396
30
0.0
11
318.57605
21
321.2131
31
0.0
0
LINE
8
0
10
318.57605
20
321.2131
30
0.0
11
379.596
21
285.16708
31
0.0
0
LINE
8
0
10
379.596
20
285.16708
30
0.0
11
436.68637
21
265.85257
31
0.0
0
LINE
8
0
10
436.68637
20
265.85257
30
0.0
11
487.57745
21
259.77386
31
0.0
0
LINE
8
0
10
487.57745
20
259.77386
30
0.0
11
530.9924
21
263.62457
31
0.0
0
LINE
8
0
10
530.9924
20
263.62457
30
0.0
11
566.4475
21
274.4295
31
0.0
0
LINE
8
0
10
566.4475
20
274.4295
30
0.0
11
594.0612
21
289.6282
31
0.0
0
LINE
8
0
10
594.0612
20
289.6282
30
0.0
11
614.3801
21
307.11053
31
0.0
0
LINE
8
0
10
614.3801
20
307.11053
30
0.0
11
628.2287
21
325.21625
31
0.0
0
LINE
8
0
10
628.2287
20
325.21625
30
0.0
11
636.58356
21
342.70792
31
0.0
0
LINE
8
0
10
636.58356
20
342.70792
30
0.0
11
640.4742
21
358.7269
31
0.0
0
LINE
8
0
10
640.4742
20
358.7269
30
0.0
11
640.90753
21
372.73877
31
0.0
0
LINE
8
0
10
640.90753
20
372.73877
30
0.0
11
638.8151
21
384.4751
31
0.0
0
LINE
8
0
10
638.8151
20
384.4751
30
0.0
11
635.0192
21
393.8756
31
0.0
0
LINE
8
0
10
635.0192
20
393.8756
30
0.0
11
630.21466
21
401.03406
31
0.0
0
LINE
8
0
10
630.21466
20
401.03406
30
0.0
11
624.9632
21
406.15005
31
0.0
0
LINE
8
0
10
624.9632
20
406.15005
30
0.0
11
619.6973
21
409.4882
31
0.0
0
LINE
8
0
10
619.6973
20
409.4882
30
0.0
11
614.7308
21
411.34424
31
0.0
0
LINE
8
0
10
614.7308
20
411.34424
30
0.0
11
610.27277
21
412.01938
31
0.0
0
LINE
8
0
10
610.27277
20
412.01938
30
0.0
11
606.44464
21
411.80075
31
0.0
0
LINE
8
0
10
132.01932
20
482.51767
30
0.0
11
196.10739
21
386.74265
31
0.0
0
LINE
8
0
10
196.10739
20
386.74265
30
0.0
11
266.20746
21
318.25967
31
0.0
0
LINE
8
0
10
266.20746
20
318.25967
30
0.0
11
336.5327
21
273.5413
31
0.0
0
LINE
8
0
10
336.5327
20
273.5413
30
0.0
11
402.885
21
248.63885
31
0.0
0
LINE
8
0
10
402.885
20
248.63885
30
0.0
11
462.4619
21
239.53146
31
0.0
0
LINE
8
0
10
462.4619
20
239.53146
30
0.0
11
513.6354
21
242.38223
31
0.0
0
LINE
8
0
10
513.6354
20
242.38223
30
0.0
11
555.7221
21
253.71336
31
0.0
0
LINE
8
0
10
555.7221
20
253.71336
30
0.0
11
588.7623
21
270.51086
31
0.0
0
LINE
8
0
10
588.7623
20
270.51086
30
0.0
11
613.3173
21
290.27374
31
0.0
0
LINE
8
0
10
613.3173
20
290.27374
30
0.0
11
630.29175
21
311.01883
31
0.0
0
LINE
8
0
10
630.29175
20
311.01883
30
0.0
11
640.7859
21
331.25424
31
0.0
0
LINE
8
0
10
640.7859
20
331.25424
30
0.0
11
645.97644
21
349.931
31
0.0
0
LINE
8
0
10
645.97644
20
349.931
30
0.0
11
647.02625
21
366.3822
31
0.0
0
LINE
8
0
10
647.02625
20
366.3822
30
0.0
11
645.0199
21
380.25647
31
0.0
0
LINE
8
0
10
645.0199
20
380.25647
30
0.0
11
640.9213
21
391.45114
31
0.0
0
LINE
8
0
10
640.9213
20
391.45114
30
0.0
11
635.5507
21
400.04968
31
0.0
0
LINE
8
0
10
635.5507
20
400.04968
30
0.0
11
629.5761
21
406.26505
31
0.0
0
LINE
8
0
10
629.5761
20
406.26505
30
0.0
11
623.516
21
410.39145
31
0.0
0
LINE
8
0
10
623.516
20
410.39145
30
0.0
11
617.7505
21
412.76443
31
0.0
0
LINE
8
0
10
617.7505
20
412.76443
30
0.0
11
612.53705
21
413.7299
31
0.0
0
LINE
8
0
10
612.53705
20
413.7299
30
0.0
11
608.02954
21
413.6206
31
0.0
0
LINE
8
0
10
608.02954
20
413.6206
30
0.0
11
604.29755
21
412.74057
31
0.0
0
LINE
8
0
10
124.79996
20
399.99997
30
0.0
11
204.54553
21
316.80884
31
0.0
0
LINE
8
0
10
204.54553
20
316.80884
30
0.0
11
285.47256
21
261.53906
31
0.0
0
LINE
8
0
10
285.47256
20
261.53906
30
0.0
11
362.4947
21
229.7119
31
0.0
0
LINE
8
0
10
362.4947
20
229.7119
30
0.0
11
432.1632
21
216.70972
31
0.0
0
LINE
8
0
10
432.1632
20
216.70972
30
0.0
11
492.4165
21
218.0861
31
0.0
0
LINE
8
0
10
492.4165
20
218.0861
30
0.0
11
542.3175
21
229.77975
31
0.0
0
LINE
8
0
10
542.3175
20
229.77975
30
0.0
11
581.7972
21
248.24701
31
0.0
0
LINE
8
0
10
581.7972
20
248.24701
30
0.0
11
611.4186
21
270.52673
31
0.0
0
LINE
8
0
10
611.4186
20
270.52673
30
0.0
11
632.16876
21
294.25327
31
0.0
0
LINE
8
0
10
632.16876
20
294.25327
30
0.0
11
645.28296
21
317.63074
31
0.0
0
LINE
8
0
10
645.28296
20
317.63074
30
0.0
11
652.1038
21
339.38104
31
0.0
0
LINE
8
0
10
652.1038
20
339.38104
30
0.0
11
653.97235
21
358.67538
31
0.0
0
LINE
8
0
10
653.97235
20
358.67538
30
0.0
11
652.1495
21
375.05896
31
0.0
0
LINE
8
0
10
652.1495
20
375.05896
30
0.0
11
647.76434
21
388.37402
31
0.0
0
LINE
8
0
10
647.76434
20
388.37402
30
0.0
11
641.7841
21
398.68692
31
0.0
0
LINE
8
0
10
641.7841
20
398.68692
30
0.0
11
635.002
21
406.22226
31
0.0
0
LINE
8
0
10
635.002
20
406.22226
30
0.0
11
628.0388
21
411.3057
31
0.0
0
LINE
8
0
10
628.0388
20
411.3057
30
0.0
11
621.35425
21
414.31708
31
0.0
0
LINE
8
0
10
621.35425
20
414.31708
30
0.0
11
615.2643
21
415.65286
31
0.0
0
LINE
8
0
10
615.2643
20
415.65286
30
0.0
11
609.9624
21
415.69833
31
0.0
0
LINE
8
0
10
609.9624
20
415.69833
30
0.0
11
605.54236
21
414.80798
31
0.0
0
LINE
8
0
10
605.54236
20
414.80798
30
0.0
11
602.0199
21
413.29327
31
0.0
0
LINE
8
0
10
132.01932
20
317.48236
30
0.0
11
224.99936
21
249.40277
31
0.0
0
LINE
8
0
10
224.99936
20
249.40277
30
0.0
11
314.2944
21
209.02548
31
0.0
0
LINE
8
0
10
314.2944
20
209.02548
30
0.0
11
395.67316
21
191.05658
31
0.0
0
LINE
8
0
10
395.67316
20
191.05658
30
0.0
11
466.54102
21
190.34976
31
0.0
0
LINE
8
0
10
466.54102
20
190.34976
30
0.0
11
525.63995
21
202.1681
31
0.0
0
LINE
8
0
10
525.63995
20
202.1681
30
0.0
11
572.75226
21
222.34932
31
0.0
0
LINE
8
0
10
572.75226
20
222.34932
30
0.0
11
608.42535
21
247.39159
31
0.0
0
LINE
8
0
10
608.42535
20
247.39159
30
0.0
11
633.72797
21
274.47653
31
0.0
0
LINE
8
0
10
633.72797
20
274.47653
30
0.0
11
650.0427
21
301.44583
31
0.0
0
LINE
8
0
10
650.0427
20
301.44583
30
0.0
11
658.89825
21
326.74542
31
0.0
0
LINE
8
0
10
658.89825
20
326.74542
30
0.0
11
661.8386
21
349.3497
31
0.0
0
LINE
8
0
10
661.8386
20
349.3497
30
0.0
11
660.3283
21
368.67538
31
0.0
0
LINE
8
0
10
660.3283
20
368.67538
30
0.0
11
655.68823
21
384.49356
31
0.0
0
LINE
8
0
10
655.68823
20
384.49356
30
0.0
11
649.05756
21
396.84485
31
0.0
0
LINE
8
0
10
649.05756
20
396.84485
30
0.0
11
641.3773
21
405.96262
31
0.0
0
LINE
8
0
10
641.3773
20
405.96262
30
0.0
11
633.3898
21
412.20575
31
0.0
0
LINE
8
0
10
633.3898
20
412.20575
30
0.0
11
625.64966
21
416.00284
31
0.0
0
LINE
8
0
10
625.64966
20
416.00284
30
0.0
11
618.5437
21
417.8077
31
0.0
0
LINE
8
0
10
618.5437
20
417.8077
30
0.0
11
612.3143
21
418.06567
31
0.0
0
LINE
8
0
10
612.3143
20
418.06567
30
0.0
11
607.0851
21
417.1898
31
0.0
0
LINE
8
0
10
607.0851
20
417.1898
30
0.0
11
602.8868
21
415.54544
31
0.0
0
LINE
8
0
10
602.8868
20
415.54544
30
0.0
11
599.68085
21
413.44208
31
0.0
0
LINE
8
0
10
153.45804
20
237.47202
30
0.0
11
256.84744
21
186.57242
31
0.0
0
LINE
8
0
10
256.84744
20
186.57242
30
0.0
11
351.7973
21
162.31456
31
0.0
0
LINE
8
0
10
351.7973
20
162.31456
30
0.0
11
435.06
21
158.7499
31
0.0
0
LINE
8
0
10
435.06
20
158.7499
30
0.0
11
504.97394
21
170.35991
31
0.0
0
LINE
8
0
10
504.97394
20
170.35991
30
0.0
11
561.12274
21
192.26114
31
0.0
0
LINE
8
0
10
561.12274
20
192.26114
30
0.0
11
604.01495
21
220.31673
31
0.0
0
LINE
8
0
10
604.01495
20
220.31673
30
0.0
11
634.7975
21
251.17311
31
0.0
0
LINE
8
0
10
634.7975
20
251.17311
30
0.0
11
655.01245
21
282.24033
31
0.0
0
LINE
8
0
10
655.01245
20
282.24033
30
0.0
11
666.39624
21
311.6329
31
0.0
0
LINE
8
0
10
666.39624
20
311.6329
30
0.0
11
670.724
21
338.0859
31
0.0
0
LINE
8
0
10
670.724
20
338.0859
30
0.0
11
669.6945
21
360.85736
31
0.0
0
LINE
8
0
10
669.6945
20
360.85736
30
0.0
11
664.85126
21
379.62717
31
0.0
0
LINE
8
0
10
664.85126
20
379.62717
30
0.0
11
657.53485
21
394.3993
31
0.0
0
LINE
8
0
10
657.53485
20
394.3993
30
0.0
11
648.86017
21
405.41153
31
0.0
0
LINE
8
0
10
648.86017
20
405.41153
30
0.0
11
639.7133
21
413.05713
31
0.0
0
LINE
8
0
10
639.7133
20
413.05713
30
0.0
11
630.763
21
417.8184
31
0.0
0
LINE
8
0
10
630.763
20
417.8184
30
0.0
11
622.48114
21
420.21375
31
0.0
0
LINE
8
0
10
622.48114
20
420.21375
30
0.0
11
615.16974
21
420.75723
31
0.0
0
LINE
8
0
10
615.16974
20
420.75723
30
0.0
11
608.9901
21
419.92957
31
0.0
0
LINE
8
0
10
608.9901
20
419.92957
30
0.0
11
603.9925
21
418.15897
31
0.0
0
LINE
8
0
10
603.9925
20
418.15897
30
0.0
11
600.1435
21
415.81055
31
0.0
0
LINE
8
0
10
600.1435
20
415.81055
30
0.0
11
597.3515
21
413.18243
31
0.0
0
LINE
8
0
10
188.46469
20
162.4
30
0.0
11
299.12198
21
130.22705
31
0.0
0
LINE
8
0
10
299.12198
20
130.22705
30
0.0
11
396.84167
21
122.82559
31
0.0
0
LINE
8
0
10
396.84167
20
122.82559
30
0.0
11
479.45847
21
133.7735
31
0.0
0
LINE
8
0
10
479.45847
20
133.7735
30
0.0
11
546.2942
21
157.34755
31
0.0
0
LINE
8
0
10
546.2942
20
157.34755
30
0.0
11
597.78687
21
188.6662
31
0.0
0
LINE
8
0
10
597.78687
20
188.6662
30
0.0
11
635.1556
21
223.74368
31
0.0
0
LINE
8
0
10
635.1556
20
223.74368
30
0.0
11
660.11237
21
259.47662
31
0.0
0
LINE
8
0
10
660.11237
20
259.47662
30
0.0
11
674.6255
21
293.58215
31
0.0
0
LINE
8
0
10
674.6255
20
293.58215
30
0.0
11
680.7323
21
324.505
31
0.0
0
LINE
8
0
10
680.7323
20
324.505
30
0.0
11
680.4008
21
351.30762
31
0.0
0
LINE
8
0
10
680.4008
20
351.30762
30
0.0
11
675.43274
21
373.55435
31
0.0
0
LINE
8
0
10
675.43274
20
373.55435
30
0.0
11
667.40375
21
391.198
31
0.0
0
LINE
8
0
10
667.40375
20
391.198
30
0.0
11
657.6333
21
404.4752
31
0.0
0
LINE
8
0
10
657.6333
20
404.4752
30
0.0
11
647.17816
21
413.81378
31
0.0
0
LINE
8
0
10
647.17816
20
413.81378
30
0.0
11
636.84265
21
419.75488
31
0.0
0
LINE
8
0
10
636.84265
20
419.75488
30
0.0
11
627.2015
21
422.88962
31
0.0
0
LINE
8
0
10
627.2015
20
422.88962
30
0.0
11
618.6295
21
423.81046
31
0.0
0
LINE
8
0
10
618.6295
20
423.81046
30
0.0
11
611.3348
21
423.07608
31
0.0
0
LINE
8
0
10
611.3348
20
423.07608
30
0.0
11
605.3928
21
421.18793
31
0.0
0
LINE
8
0
10
605.3928
20
421.18793
30
0.0
11
600.77856
21
418.57635
31
0.0
0
LINE
8
0
10
600.77856
20
418.57635
30
0.0
11
597.3958
21
415.59528
31
0.0
0
LINE
8
0
10
597.3958
20
415.59528
30
0.0
11
595.10266
21
412.52225
31
0.0
0
LINE
8
0
10
235.97562
20
94.5473
30
0.0
11
350.53857
21
82.07861
31
0.0
0
LINE
8
0
10
350.53857
20
82.07861
30
0.0
11
448.05896
21
91.75845
31
0.0
0
LINE
8
0
10
448.05896
20
91.75845
30
0.0
11
527.5195
21
116.88626
31
0.0
0
LINE
8
0
10
527.5195
20
116.88626
30
0.0
11
589.2462
21
151.70808
31
0.0
0
LINE
8
0
10
589.2462
20
151.70808
30
0.0
11
634.5183
21
191.49252
31
0.0
0
LINE
8
0
10
634.5183
20
191.49252
30
0.0
11
665.2281
21
232.52614
31
0.0
0
LINE
8
0
10
665.2281
20
232.52614
30
0.0
11
683.60077
21
272.0499
31
0.0
0
LINE
8
0
10
683.60077
20
272.0499
30
0.0
11
691.971
21
308.15747
31
0.0
0
LINE
8
0
10
691.971
20
308.15747
30
0.0
11
692.61536
21
339.67096
31
0.0
0
LINE
8
0
10
692.61536
20
339.67096
30
0.0
11
687.6347
21
366.00885
31
0.0
0
LINE
8
0
10
687.6347
20
366.00885
30
0.0
11
678.87897
21
387.05487
31
0.0
0
LINE
8
0
10
678.87897
20
387.05487
30
0.0
11
667.9082
21
403.03625
31
0.0
0
LINE
8
0
10
667.9082
20
403.03625
30
0.0
11
655.98065
21
414.41513
31
0.0
0
LINE
8
0
10
655.98065
20
414.41513
30
0.0
11
644.0627
21
421.79633
31
0.0
0
LINE
8
0
10
644.0627
20
421.79633
30
0.0
11
632.8525
21
425.85245
31
0.0
0
LINE
8
0
10
632.8525
20
425.85245
30
0.0
11
622.8135
21
427.26538
31
0.0
0
LINE
8
0
10
622.8135
20
427.26538
30
0.0
11
614.21185
21
426.6837
31
0.0
0
LINE
8
0
10
614.21185
20
426.6837
30
0.0
11
607.15546
21
424.6938
31
0.0
0
LINE
8
0
10
607.15546
20
424.6938
30
0.0
11
601.63165
21
421.80246
31
0.0
0
LINE
8
0
10
601.63165
20
421.80246
30
0.0
11
597.54095
21
418.42935
31
0.0
0
LINE
8
0
10
597.54095
20
418.42935
30
0.0
11
594.7273
21
414.90613
31
0.0
0
LINE
8
0
10
594.7273
20
414.90613
30
0.0
11
593.00256
21
411.4816
31
0.0
0
LINE
8
0
10
294.54733
20
35.975586
30
0.0
11
409.5349
21
43.590057
31
0.0
0
LINE
8
0
10
409.5349
20
43.590057
30
0.0
11
503.89285
21
70.05704
31
0.0
0
LINE
8
0
10
503.89285
20
70.05704
30
0.0
11
577.78284
21
108.60129
31
0.0
0
LINE
8
0
10
577.78284
20
108.60129
30
0.0
11
632.525
21
153.61281
31
0.0
0
LINE
8
0
10
632.525
20
153.61281
30
0.0
11
670.2008
21
200.65427
31
0.0
0
LINE
8
0
10
670.2008
20
200.65427
30
0.0
11
693.31866
21
246.39717
31
0.0
0
LINE
8
0
10
693.31866
20
246.39717
30
0.0
11
704.54895
21
288.51086
31
0.0
0
LINE
8
0
10
704.54895
20
288.51086
30
0.0
11
706.52203
21
325.52335
31
0.0
0
LINE
8
0
10
706.52203
20
325.52335
30
0.0
11
701.6844
21
356.66998
31
0.0
0
LINE
8
0
10
701.6844
20
356.66998
30
0.0
11
692.2058
21
381.74286
31
0.0
0
LINE
8
0
10
692.2058
20
381.74286
30
0.0
11
679.9285
21
400.94873
31
0.0
0
LINE
8
0
10
679.9285
20
400.94873
30
0.0
11
666.34924
21
414.78226
31
0.0
0
LINE
8
0
10
666.34924
20
414.78226
30
0.0
11
652.627
21
423.91705
31
0.0
0
LINE
8
0
10
652.627
20
423.91705
30
0.0
11
639.60834
21
429.11658
31
0.0
0
LINE
8
0
10
639.60834
20
429.11658
30
0.0
11
627.8642
21
431.16446
31
0.0
0
LINE
8
0
10
627.8642
20
431.16446
30
0.0
11
617.7323
21
430.81265
31
0.0
0
LINE
8
0
10
617.7323
20
430.81265
30
0.0
11
609.36237
21
428.74615
31
0.0
0
LINE
8
0
10
609.36237
20
428.74615
30
0.0
11
602.7587
21
425.56116
31
0.0
0
LINE
8
0
10
602.7587
20
425.56116
30
0.0
11
597.8209
21
421.75458
31
0.0
0
LINE
8
0
10
597.8209
20
421.75458
30
0.0
11
594.3781
21
417.72235
31
0.0
0
LINE
8
0
10
594.3781
20
417.72235
30
0.0
11
592.219
21
413.76407
31
0.0
0
LINE
8
0
10
592.219
20
413.76407
30
0.0
11
591.1151
21
410.09207
31
0.0
0
LINE
8
0
10
362.40002
20
-11.535339
30
0.0
11
474.31842
21
15.930817
31
0.0
0
LINE
8
0
10
474.31842
20
15.930817
30
0.0
11
562.6469
21
58.380768
31
0.0
0
LINE
8
0
10
562.6469
20
58.380768
30
0.0
11
628.7212
21
109.17029
31
0.0
0
LINE
8
0
10
628.7212
20
109.17029
30
0.0
11
674.8156
21
163.0039
31
0.0
0
LINE
8
0
10
674.8156
20
163.0039
30
0.0
11
703.75037
21
215.87303
31
0.0
0
LINE
8
0
10
703.75037
20
215.87303
30
0.0
11
718.5738
21
264.93536
31
0.0
0
LINE
8
0
10
718.5738
20
264.93536
30
0.0
11
722.3205
21
308.35938
31
0.0
0
LINE
8
0
10
722.3205
20
308.35938
30
0.0
11
717.8365
21
345.15216
31
0.0
0
LINE
8
0
10
717.8365
20
345.15216
30
0.0
11
707.6637
21
374.98553
31
0.0
0
LINE
8
0
10
707.6637
20
374.98553
30
0.0
11
693.97534
21
398.0316
31
0.0
0
LINE
8
0
10
693.97534
20
398.0316
30
0.0
11
678.5495
21
414.81375
31
0.0
0
LINE
8
0
10
678.5495
20
414.81375
30
0.0
11
662.77435
21
426.0791
31
0.0
0
LINE
8
0
10
662.77435
20
426.0791
30
0.0
11
647.6743
21
432.6923
31
0.0
0
LINE
8
0
10
647.6743
20
432.6923
30
0.0
11
633.95056
21
435.55215
31
0.0
0
LINE
8
0
10
633.95056
20
435.55215
30
0.0
11
622.0292
21
435.52957
31
0.0
0
LINE
8
0
10
622.0292
20
435.52957
30
0.0
11
612.11237
21
433.42374
31
0.0
0
LINE
8
0
10
612.11237
20
433.42374
30
0.0
11
604.2284
21
429.9352
31
0.0
0
LINE
8
0
10
604.2284
20
429.9352
30
0.0
11
598.2782
21
425.6519
31
0.0
0
LINE
8
0
10
598.2782
20
425.6519
30
0.0
11
594.07635
21
421.0457
31
0.0
0
LINE
8
0
10
594.07635
20
421.0457
30
0.0
11
591.38605
21
416.47687
31
0.0
0
LINE
8
0
10
591.38605
20
416.47687
30
0.0
11
589.9471
21
412.2038
31
0.0
0
LINE
8
0
10
589.9471
20
412.2038
30
0.0
11
589.4976
21
408.3959
31
0.0
0
LINE
8
0
10
437.47205
20
-46.541992
30
0.0
11
542.9207
21
-0.05871582
31
0.0
0
LINE
8
0
10
542.9207
20
-0.05871582
30
0.0
11
622.5361
21
57.084442
31
0.0
0
LINE
8
0
10
622.5361
20
57.084442
30
0.0
11
678.78687
21
118.57605
31
0.0
0
LINE
8
0
10
678.78687
20
118.57605
30
0.0
11
714.8329
21
179.596
31
0.0
0
LINE
8
0
10
714.8329
20
179.596
30
0.0
11
734.14746
21
236.68639
31
0.0
0
LINE
8
0
10
734.14746
20
236.68639
30
0.0
11
740.2261
21
287.5774
31
0.0
0
LINE
8
0
10
740.2261
20
287.5774
30
0.0
11
736.3754
21
330.9924
31
0.0
0
LINE
8
0
10
736.3754
20
330.9924
30
0.0
11
725.5705
21
366.4475
31
0.0
0
LINE
8
0
10
725.5705
20
366.4475
30
0.0
11
710.37177
21
394.0612
31
0.0
0
LINE
8
0
10
710.37177
20
394.0612
30
0.0
11
692.88947
21
414.38013
31
0.0
0
LINE
8
0
10
692.88947
20
414.38013
30
0.0
11
674.78375
21
428.22867
31
0.0
0
LINE
8
0
10
674.78375
20
428.22867
30
0.0
11
657.29205
21
436.58356
31
0.0
0
LINE
8
0
10
657.29205
20
436.58356
30
0.0
11
641.2731
21
440.47418
31
0.0
0
LINE
8
0
10
641.2731
20
440.47418
30
0.0
11
627.2612
21
440.9075
31
0.0
0
LINE
8
0
10
627.2612
20
440.9075
30
0.0
11
615.5249
21
438.81512
31
0.0
0
LINE
8
0
10
615.5249
20
438.81512
30
0.0
11
606.1244
21
435.01926
31
0.0
0
LINE
8
0
10
606.1244
20
435.01926
30
0.0
11
598.96594
21
430.21466
31
0.0
0
LINE
8
0
10
598.96594
20
430.21466
30
0.0
11
593.85
21
424.96317
31
0.0
0
LINE
8
0
10
593.85
20
424.96317
30
0.0
11
590.5118
21
419.69733
31
0.0
0
LINE
8
0
10
590.5118
20
419.69733
30
0.0
11
588.65576
21
414.73077
31
0.0
0
LINE
8
0
10
588.65576
20
414.73077
30
0.0
11
587.98065
21
410.27274
31
0.0
0
LINE
8
0
10
587.98065
20
410.27274
30
0.0
11
588.1993
21
406.44464
31
0.0
0
LINE
8
0
10
517.4824
20
-67.98071
30
0.0
11
613.2573
21
-3.8926086
31
0.0
0
LINE
8
0
10
613.2573
20
-3.8926086
30
0.0
11
681.74036
21
66.20746
31
0.0
0
LINE
8
0
10
681.74036
20
66.20746
30
0.0
11
726.4587
21
136.53271
31
0.0
0
LINE
8
0
10
726.4587
20
136.53271
30
0.0
11
751.3611
21
202.88495
31
0.0
0
LINE
8
0
10
751.3611
20
202.88495
30
0.0
11
760.46857
21
262.4619
31
0.0
0
LINE
8
0
10
760.46857
20
262.4619
30
0.0
11
757.61774
21
313.63538
31
0.0
0
LINE
8
0
10
757.61774
20
313.63538
30
0.0
11
746.2866
21
355.7221
31
0.0
0
LINE
8
0
10
746.2866
20
355.7221
30
0.0
11
729.48914
21
388.76233
31
0.0
0
LINE
8
0
10
729.48914
20
388.76233
30
0.0
11
709.72626
21
413.31726
31
0.0
0
LINE
8
0
10
709.72626
20
413.31726
30
0.0
11
688.98114
21
430.29175
31
0.0
0
LINE
8
0
10
688.98114
20
430.29175
30
0.0
11
668.7458
21
440.7859
31
0.0
0
LINE
8
0
10
668.7458
20
440.7859
30
0.0
11
650.06903
21
445.97644
31
0.0
0
LINE
8
0
10
650.06903
20
445.97644
30
0.0
11
633.6178
21
447.02628
31
0.0
0
LINE
8
0
10
633.6178
20
447.02628
30
0.0
11
619.7435
21
445.0199
31
0.0
0
LINE
8
0
10
619.7435
20
445.0199
30
0.0
11
608.5488
21
440.9213
31
0.0
0
LINE
8
0
10
608.5488
20
440.9213
30
0.0
11
599.9503
21
435.55072
31
0.0
0
LINE
8
0
10
599.9503
20
435.55072
30
0.0
11
593.7349
21
429.57608
31
0.0
0
LINE
8
0
10
593.7349
20
429.57608
30
0.0
11
589.6086
21
423.516
31
0.0
0
LINE
8
0
10
589.6086
20
423.516
30
0.0
11
587.23553
21
417.75046
31
0.0
0
LINE
8
0
10
587.23553
20
417.75046
30
0.0
11
586.27014
21
412.53705
31
0.0
0
LINE
8
0
10
586.27014
20
412.53705
30
0.0
11
586.3794
21
408.02954
31
0.0
0
LINE
8
0
10
586.3794
20
408.02954
30
0.0
11
587.25946
21
404.29755
31
0.0
0
LINE
8
0
10
600.0
20
-75.20004
30
0.0
11
683.19116
21
4.5455017
31
0.0
0
LINE
8
0
10
683.19116
20
4.5455017
30
0.0
11
738.461
21
85.472595
31
0.0
0
LINE
8
0
10
738.461
20
85.472595
30
0.0
11
770.2881
21
162.49467
31
0.0
0
LINE
8
0
10
770.2881
20
162.49467
30
0.0
11
783.2902
21
232.16313
31
0.0
0
LINE
8
0
10
783.2902
20
232.16313
30
0.0
11
781.91394
21
292.4165
31
0.0
0
LINE
8
0
10
781.91394
20
292.4165
30
0.0
11
770.2202
21
342.31744
31
0.0
0
LINE
8
0
10
770.2202
20
342.31744
30
0.0
11
751.753
21
381.7972
31
0.0
0
LINE
8
0
10
751.753
20
381.7972
30
0.0
11
729.47327
21
411.4186
31
0.0
0
LINE
8
0
10
729.47327
20
411.4186
30
0.0
11
705.74677
21
432.1687
31
0.0
0
LINE
8
0
10
705.74677
20
432.1687
30
0.0
11
682.36926
21
445.28296
31
0.0
0
LINE
8
0
10
682.36926
20
445.28296
30
0.0
11
660.61896
21
452.10382
31
0.0
0
LINE
8
0
10
660.61896
20
452.10382
30
0.0
11
641.32465
21
453.97235
31
0.0
0
LINE
8
0
10
641.32465
20
453.97235
30
0.0
11
624.94104
21
452.1495
31
0.0
0
LINE
8
0
10
624.94104
20
452.1495
30
0.0
11
611.626
21
447.76437
31
0.0
0
LINE
8
0
10
611.626
20
447.76437
30
0.0
11
601.31305
21
441.78412
31
0.0
0
LINE
8
0
10
601.31305
20
441.78412
30
0.0
11
593.7778
21
435.00198
31
0.0
0
LINE
8
0
10
593.7778
20
435.00198
30
0.0
11
588.6943
21
428.03885
31
0.0
0
LINE
8
0
10
588.6943
20
428.03885
30
0.0
11
585.6829
21
421.35425
31
0.0
0
LINE
8
0
10
585.6829
20
421.35425
30
0.0
11
584.3471
21
415.26428
31
0.0
0
LINE
8
0
10
584.3471
20
415.26428
30
0.0
11
584.3017
21
409.96243
31
0.0
0
LINE
8
0
10
584.3017
20
409.96243
30
0.0
11
585.192
21
405.54236
31
0.0
0
LINE
8
0
10
585.192
20
405.54236
30
0.0
11
586.7067
21
402.0199
31
0.0
0
LINE
8
0
10
682.5176
20
-67.98068
30
0.0
11
750.59717
21
24.99936
31
0.0
0
LINE
8
0
10
750.59717
20
24.99936
30
0.0
11
790.9746
21
114.294464
31
0.0
0
LINE
8
0
10
790.9746
20
114.294464
30
0.0
11
808.94336
21
195.67313
31
0.0
0
LINE
8
0
10
808.94336
20
195.67313
30
0.0
11
809.65027
21
266.54108
31
0.0
0
LINE
8
0
10
809.65027
20
266.54108
30
0.0
11
797.8319
21
325.63995
31
0.0
0
LINE
8
0
10
797.8319
20
325.63995
30
0.0
11
777.65063
21
372.7522
31
0.0
0
LINE
8
0
10
777.65063
20
372.7522
30
0.0
11
752.6084
21
408.42535
31
0.0
0
LINE
8
0
10
752.6084
20
408.42535
30
0.0
11
725.5235
21
433.72794
31
0.0
0
LINE
8
0
10
725.5235
20
433.72794
30
0.0
11
698.55414
21
450.04276
31
0.0
0
LINE
8
0
10
698.55414
20
450.04276
30
0.0
11
673.2546
21
458.8983
31
0.0
0
LINE
8
0
10
673.2546
20
458.8983
30
0.0
11
650.6503
21
461.83862
31
0.0
0
LINE
8
0
10
650.6503
20
461.83862
30
0.0
11
631.3246
21
460.32834
31
0.0
0
LINE
8
0
10
631.3246
20
460.32834
30
0.0
11
615.5065
21
455.6882
31
0.0
0
LINE
8
0
10
615.5065
20
455.6882
30
0.0
11
603.15515
21
449.05756
31
0.0
0
LINE
8
0
10
603.15515
20
449.05756
30
0.0
11
594.03735
21
441.37732
31
0.0
0
LINE
8
0
10
594.03735
20
441.37732
30
0.0
11
587.79425
21
433.38977
31
0.0
0
LINE
8
0
10
587.79425
20
433.38977
30
0.0
11
583.9972
21
425.64966
31
0.0
0
LINE
8
0
10
583.9972
20
425.64966
30
0.0
11
582.19226
21
418.5437
31
0.0
0
LINE
8
0
10
582.19226
20
418.5437
30
0.0
11
581.9343
21
412.31427
31
0.0
0
LINE
8
0
10
581.9343
20
412.31427
30
0.0
11
582.8102
21
407.08508
31
0.0
0
LINE
8
0
10
582.8102
20
407.08508
30
0.0
11
584.4545
21
402.88678
31
0.0
0
LINE
8
0
10
584.4545
20
402.88678
30
0.0
11
586.5579
21
399.68085
31
0.0
0
LINE
8
0
10
762.52795
20
-46.54196
30
0.0
11
813.4275
21
56.84738
31
0.0
0
LINE
8
0
10
813.4275
20
56.84738
30
0.0
11
837.6855
21
151.79733
31
0.0
0
LINE
8
0
10
837.6855
20
151.79733
30
0.0
11
841.25006
21
235.05995
31
0.0
0
LINE
8
0
10
841.25006
20
235.05995
30
0.0
11
829.64014
21
304.97397
31
0.0
0
LINE
8
0
10
829.64014
20
304.97397
30
0.0
11
807.7389
21
361.1228
31
0.0
0
LINE
8
0
10
807.7389
20
361.1228
30
0.0
11
779.6833
21
404.0149
31
0.0
0
LINE
8
0
10
779.6833
20
404.0149
30
0.0
11
748.8269
21
434.79755
31
0.0
0
LINE
8
0
10
748.8269
20
434.79755
30
0.0
11
717.7597
21
455.01245
31
0.0
0
LINE
8
0
10
717.7597
20
455.01245
30
0.0
11
688.36707
21
466.39624
31
0.0
0
LINE
8
0
10
688.36707
20
466.39624
30
0.0
11
661.91406
21
470.724
31
0.0
0
LINE
8
0
10
661.91406
20
470.724
30
0.0
11
639.14264
21
469.6945
31
0.0
0
LINE
8
0
10
639.14264
20
469.6945
30
0.0
11
620.3728
21
464.85126
31
0.0
0
LINE
8
0
10
620.3728
20
464.85126
30
0.0
11
605.6007
21
457.53485
31
0.0
0
LINE
8
0
10
605.6007
20
457.53485
30
0.0
11
594.58844
21
448.86014
31
0.0
0
LINE
8
0
10
594.58844
20
448.86014
30
0.0
11
586.9429
21
439.71332
31
0.0
0
LINE
8
0
10
586.9429
20
439.71332
30
0.0
11
582.18164
21
430.76297
31
0.0
0
LINE
8
0
10
582.18164
20
430.76297
30
0.0
11
579.78625
21
422.4811
31
0.0
0
LINE
8
0
10
579.78625
20
422.4811
30
0.0
11
579.24274
21
415.1697
31
0.0
0
LINE
8
0
10
579.24274
20
415.1697
30
0.0
11
580.07043
21
408.99014
31
0.0
0
LINE
8
0
10
580.07043
20
408.99014
30
0.0
11
581.84106
21
403.99246
31
0.0
0
LINE
8
0
10
581.84106
20
403.99246
30
0.0
11
584.18945
21
400.14346
31
0.0
0
LINE
8
0
10
584.18945
20
400.14346
30
0.0
11
586.81757
21
397.3515
31
0.0
0
LINE
8
0
10
837.6
20
-11.535339
30
0.0
11
869.77295
21
99.12204
31
0.0
0
LINE
8
0
10
869.77295
20
99.12204
30
0.0
11
877.17444
21
196.84174
31
0.0
0
LINE
8
0
10
877.17444
20
196.84174
30
0.0
11
866.22644
21
279.45837
31
0.0
0
LINE
8
0
10
866.22644
20
279.45837
30
0.0
11
842.65247
21
346.29422
31
0.0
0
LINE
8
0
10
842.65247
20
346.29422
30
0.0
11
811.3338
21
397.7869
31
0.0
0
LINE
8
0
10
811.3338
20
397.7869
30
0.0
11
776.25635
21
435.15555
31
0.0
0
LINE
8
0
10
776.25635
20
435.15555
30
0.0
11
740.5234
21
460.1124
31
0.0
0
LINE
8
0
10
740.5234
20
460.1124
30
0.0
11
706.41785
21
474.62543
31
0.0
0
LINE
8
0
10
706.41785
20
474.62543
30
0.0
11
675.495
21
480.7323
31
0.0
0
LINE
8
0
10
675.495
20
480.7323
30
0.0
11
648.6924
21
480.40082
31
0.0
0
LINE
8
0
10
648.6924
20
480.40082
30
0.0
11
626.4457
21
475.43274
31
0.0
0
LINE
8
0
10
626.4457
20
475.43274
30
0.0
11
608.802
21
467.40375
31
0.0
0
LINE
8
0
10
608.802
20
467.40375
30
0.0
11
595.52484
21
457.63333
31
0.0
0
LINE
8
0
10
595.52484
20
457.63333
30
0.0
11
586.1862
21
447.17813
31
0.0
0
LINE
8
0
10
586.1862
20
447.17813
30
0.0
11
580.2451
21
436.84265
31
0.0
0
LINE
8
0
10
580.2451
20
436.84265
30
0.0
11
577.1104
21
427.2015
31
0.0
0
LINE
8
0
10
577.1104
20
427.2015
30
0.0
11
576.1896
21
418.62952
31
0.0
0
LINE
8
0
10
576.1896
20
418.62952
30
0.0
11
576.9239
21
411.33478
31
0.0
0
LINE
8
0
10
576.9239
20
411.33478
30
0.0
11
578.8121
21
405.39282
31
0.0
0
LINE
8
0
10
578.8121
20
405.39282
30
0.0
11
581.42365
21
400.77856
31
0.0
0
LINE
8
0
10
581.42365
20
400.77856
30
0.0
11
584.4047
21
397.3958
31
0.0
0
LINE
8
0
10
584.4047
20
397.3958
30
0.0
11
587.4777
21
395.10263
31
0.0
0
LINE
8
0
10
905.45264
20
35.975616
30
0.0
11
917.9214
21
150.53864
31
0.0
0
LINE
8
0
10
917.9214
20
150.53864
30
0.0
11
908.2416
21
248.05899
31
0.0
0
LINE
8
0
10
908.2416
20
248.05899
30
0.0
11
883.1137
21
327.5194
31
0.0
0
LINE
8
0
10
883.1137
20
327.5194
30
0.0
11
848.29193
21
389.24628
31
0.0
0
LINE
8
0
10
848.29193
20
389.24628
30
0.0
11
808.50745
21
434.51825
31
0.0
0
LINE
8
0
10
808.50745
20
434.51825
30
0.0
11
767.4739
21
465.22812
31
0.0
0
LINE
8
0
10
767.4739
20
465.22812
30
0.0
11
727.9501
21
483.60077
31
0.0
0
LINE
8
0
10
727.9501
20
483.60077
30
0.0
11
691.8426
21
491.97098
31
0.0
0
LINE
8
0
10
691.8426
20
491.97098
30
0.0
11
660.32904
21
492.6154
31
0.0
0
LINE
8
0
10
660.32904
20
492.6154
30
0.0
11
633.9912
21
487.63467
31
0.0
0
LINE
8
0
10
633.9912
20
487.63467
30
0.0
11
612.9451
21
478.87897
31
0.0
0
LINE
8
0
10
612.9451
20
478.87897
30
0.0
11
596.96375
21
467.90817
31
0.0
0
LINE
8
0
10
596.96375
20
467.90817
30
0.0
11
585.5849
21
455.98062
31
0.0
0
LINE
8
0
10
585.5849
20
455.98062
30
0.0
11
578.2037
21
444.06265
31
0.0
0
LINE
8
0
10
578.2037
20
444.06265
30
0.0
11
574.1476
21
432.8525
31
0.0
0
LINE
8
0
10
574.1476
20
432.8525
30
0.0
11
572.7346
21
422.8135
31
0.0
0
LINE
8
0
10
572.7346
20
422.8135
30
0.0
11
573.3163
21
414.21185
31
0.0
0
LINE
8
0
10
573.3163
20
414.21185
30
0.0
11
575.3062
21
407.15546
31
0.0
0
LINE
8
0
10
575.3062
20
407.15546
30
0.0
11
578.1975
21
401.63165
31
0.0
0
LINE
8
0
10
578.1975
20
401.63165
30
0.0
11
581.5707
21
397.541
31
0.0
0
LINE
8
0
10
581.5707
20
397.541
30
0.0
11
585.0939
21
394.7273
31
0.0
0
LINE
8
0
10
585.0939
20
394.7273
30
0.0
11
588.51843
21
393.0026
31
0.0
0
LINE
8
0
10
964.0243
20
94.54724
30
0.0
11
956.41
21
209.53497
31
0.0
0
LINE
8
0
10
956.41
20
209.53497
30
0.0
11
929.943
21
303.89288
31
0.0
0
LINE
8
0
10
929.943
20
303.89288
30
0.0
11
891.3987
21
377.7827
31
0.0
0
LINE
8
0
10
891.3987
20
377.7827
30
0.0
11
846.3872
21
432.5251
31
0.0
0
LINE
8
0
10
846.3872
20
432.5251
30
0.0
11
799.34576
21
470.20078
31
0.0
0
LINE
8
0
10
799.34576
20
470.20078
30
0.0
11
753.6028
21
493.3187
31
0.0
0
LINE
8
0
10
753.6028
20
493.3187
30
0.0
11
711.48914
21
504.54898
31
0.0
0
LINE
8
0
10
711.48914
20
504.54898
30
0.0
11
674.4767
21
506.52203
31
0.0
0
LINE
8
0
10
674.4767
20
506.52203
30
0.0
11
643.33
21
501.6844
31
0.0
0
LINE
8
0
10
643.33
20
501.6844
30
0.0
11
618.2572
21
492.2058
31
0.0
0
LINE
8
0
10
618.2572
20
492.2058
30
0.0
11
599.0513
21
479.92853
31
0.0
0
LINE
8
0
10
599.0513
20
479.92853
30
0.0
11
585.2177
21
466.34924
31
0.0
0
LINE
8
0
10
585.2177
20
466.34924
30
0.0
11
576.08295
21
452.62698
31
0.0
0
LINE
8
0
10
576.08295
20
452.62698
30
0.0
11
570.8834
21
439.60837
31
0.0
0
LINE
8
0
10
570.8834
20
439.60837
30
0.0
11
568.8356
21
427.86417
31
0.0
0
LINE
8
0
10
568.8356
20
427.86417
30
0.0
11
569.1873
21
417.73233
31
0.0
0
LINE
8
0
10
569.1873
20
417.73233
30
0.0
11
571.25385
21
409.36234
31
0.0
0
LINE
8
0
10
571.25385
20
409.36234
30
0.0
11
574.43884
21
402.75873
31
0.0
0
LINE
8
0
10
574.43884
20
402.75873
30
0.0
11
578.2454
21
397.8209
31
0.0
0
LINE
8
0
10
578.2454
20
397.8209
30
0.0
11
582.27765
21
394.3781
31
0.0
0
LINE
8
0
10
582.27765
20
394.3781
30
0.0
11
586.2359
21
392.21896
31
0.0
0
LINE
8
0
10
586.2359
20
392.21896
30
0.0
11
589.90796
21
391.1151
31
0.0
0
LINE
8
0
10
1011.5353
20
162.39989
30
0.0
11
984.0692
21
274.31848
31
0.0
0
LINE
8
0
10
984.0692
20
274.31848
30
0.0
11
941.61926
21
362.64697
31
0.0
0
LINE
8
0
10
941.61926
20
362.64697
30
0.0
11
890.8297
21
428.72122
31
0.0
0
LINE
8
0
10
890.8297
20
428.72122
30
0.0
11
836.9961
21
474.8156
31
0.0
0
LINE
8
0
10
836.9961
20
474.8156
30
0.0
11
784.127
21
503.7503
31
0.0
0
LINE
8
0
10
784.127
20
503.7503
30
0.0
11
735.06464
21
518.5738
31
0.0
0
LINE
8
0
10
735.06464
20
518.5738
30
0.0
11
691.6406
21
522.32056
31
0.0
0
LINE
8
0
10
691.6406
20
522.32056
30
0.0
11
654.8478
21
517.8365
31
0.0
0
LINE
8
0
10
654.8478
20
517.8365
30
0.0
11
625.01447
21
507.66373
31
0.0
0
LINE
8
0
10
625.01447
20
507.66373
30
0.0
11
601.96844
21
493.97534
31
0.0
0
LINE
8
0
10
601.96844
20
493.97534
30
0.0
11
585.1863
21
478.5495
31
0.0
0
LINE
8
0
10
585.1863
20
478.5495
30
0.0
11
573.92084
21
462.77435
31
0.0
0
LINE
8
0
10
573.92084
20
462.77435
30
0.0
11
567.30774
21
447.67432
31
0.0
0
LINE
8
0
10
567.30774
20
447.67432
30
0.0
11
564.4478
21
433.95056
31
0.0
0
LINE
8
0
10
564.4478
20
433.95056
30
0.0
11
564.47046
21
422.0292
31
0.0
0
LINE
8
0
10
564.47046
20
422.0292
30
0.0
11
566.5763
21
412.1124
31
0.0
0
LINE
8
0
10
566.5763
20
412.1124
30
0.0
11
570.0648
21
404.22836
31
0.0
0
LINE
8
0
10
570.0648
20
404.22836
30
0.0
11
574.34814
21
398.27817
31
0.0
0
LINE
8
0
10
574.34814
20
398.27817
30
0.0
11
578.95435
21
394.07635
31
0.0
0
LINE
8
0
10
578.95435
20
394.07635
30
0.0
11
583.52313
21
391.38608
31
0.0
0
LINE
8
0
10
583.52313
20
391.38608
30
0.0
11
587.7962
21
389.94708
31
0.0
0
LINE
8
0
10
587.7962
20
389.94708
30
0.0
11
591.6041
21
389.49762
31
0.0
0
LINE
8
0
10
1046.542
20
237.47191
30
0.0
11
1000.0587
21
342.92078
31
0.0
0
LINE
8
0
10
1000.0587
20
342.92078
30
0.0
11
942.9155
21
422.53598
31
0.0
0
LINE
8
0
10
942.9155
20
422.53598
30
0.0
11
881.42395
21
478.78693
31
0.0
0
LINE
8
0
10
881.42395
20
478.78693
30
0.0
11
820.404
21
514.83295
31
0.0
0
LINE
8
0
10
820.404
20
514.83295
30
0.0
11
763.31366
21
534.1474
31
0.0
0
LINE
8
0
10
763.31366
20
534.1474
30
0.0
11
712.4226
21
540.22614
31
0.0
0
LINE
8
0
10
712.4226
20
540.22614
30
0.0
11
669.0076
21
536.3754
31
0.0
0
LINE
8
0
10
669.0076
20
536.3754
30
0.0
11
633.5525
21
525.5705
31
0.0
0
LINE
8
0
10
633.5525
20
525.5705
30
0.0
11
605.9388
21
510.3718
31
0.0
0
LINE
8
0
10
605.9388
20
510.3718
30
0.0
11
585.6199
21
492.88947
31
0.0
0
LINE
8
0
10
585.6199
20
492.88947
30
0.0
11
571.77136
21
474.78378
31
0.0
0
LINE
8
0
10
571.77136
20
474.78378
30
0.0
11
563.41644
21
457.29205
31
0.0
0
LINE
8
0
10
563.41644
20
457.29205
30
0.0
11
559.5258
21
441.27307
31
0.0
0
LINE
8
0
10
559.5258
20
441.27307
30
0.0
11
559.09247
21
427.26123
31
0.0
0
LINE
8
0
10
559.09247
20
427.26123
30
0.0
11
561.1849
21
415.5249
31
0.0
0
LINE
8
0
10
561.1849
20
415.5249
30
0.0
11
564.9808
21
406.1244
31
0.0
0
LINE
8
0
10
564.9808
20
406.1244
30
0.0
11
569.78534
21
398.96594
31
0.0
0
LINE
8
0
10
569.78534
20
398.96594
30
0.0
11
575.0368
21
393.8499
31
0.0
0
LINE
8
0
10
575.0368
20
393.8499
30
0.0
11
580.3027
21
390.5118
31
0.0
0
LINE
8
0
10
580.3027
20
390.5118
30
0.0
11
585.2692
21
388.65576
31
0.0
0
LINE
8
0
10
585.2692
20
388.65576
30
0.0
11
589.72723
21
387.98062
31
0.0
0
LINE
8
0
10
589.72723
20
387.98062
30
0.0
11
593.55536
21
388.19925
31
0.0
0
LINE
8
0
10
1067.9807
20
317.48224
30
0.0
11
1003.8926
21
413.25742
31
0.0
0
LINE
8
0
10
1003.8926
20
413.25742
30
0.0
11
933.79254
21
481.74026
31
0.0
0
LINE
8
0
10
933.79254
20
481.74026
30
0.0
11
863.4673
21
526.45874
31
0.0
0
LINE
8
0
10
863.4673
20
526.45874
30
0.0
11
797.11505
21
551.3611
31
0.0
0
LINE
8
0
10
797.11505
20
551.3611
30
0.0
11
737.5381
21
560.4685
31
0.0
0
LINE
8
0
10
737.5381
20
560.4685
30
0.0
11
686.3646
21
557.61774
31
0.0
0
LINE
8
0
10
686.3646
20
557.61774
30
0.0
11
644.27795
21
546.2866
31
0.0
0
LINE
8
0
10
644.27795
20
546.2866
30
0.0
11
611.2376
21
529.48914
31
0.0
0
LINE
8
0
10
611.2376
20
529.48914
30
0.0
11
586.68274
21
509.72626
31
0.0
0
LINE
8
0
10
586.68274
20
509.72626
30
0.0
11
569.70825
21
488.98117
31
0.0
0
LINE
8
0
10
569.70825
20
488.98117
30
0.0
11
559.2142
21
468.7458
31
0.0
0
LINE
8
0
10
559.2142
20
468.7458
30
0.0
11
554.02356
21
450.069
31
0.0
0
LINE
8
0
10
554.02356
20
450.069
30
0.0
11
552.9737
21
433.6178
31
0.0
0
LINE
8
0
10
552.9737
20
433.6178
30
0.0
11
554.9801
21
419.74356
31
0.0
0
LINE
8
0
10
554.9801
20
419.74356
30
0.0
11
559.0787
21
408.54886
31
0.0
0
LINE
8
0
10
559.0787
20
408.54886
30
0.0
11
564.4493
21
399.95032
31
0.0
0
LINE
8
0
10
564.4493
20
399.95032
30
0.0
11
570.42395
21
393.73492
31
0.0
0
LINE
8
0
10
570.42395
20
393.73492
30
0.0
11
576.484
21
389.60855
31
0.0
0
LINE
8
0
10
576.484
20
389.60855
30
0.0
11
582.2495
21
387.23557
31
0.0
0
LINE
8
0
10
582.2495
20
387.23557
30
0.0
11
587.46295
21
386.2701
31
0.0
0
LINE
8
0
10
587.46295
20
386.2701
30
0.0
11
591.97046
21
386.3794
31
0.0
0
LINE
8
0
10
591.97046
20
386.3794
30
0.0
11
595.70245
21
387.25943
31
0.0
0
LINE
8
0
10
1075.2001
20
400.0
30
0.0
11
995.45447
21
316.80884
31
0.0
0
LINE
8
0
10
995.45447
20
316.80884
30
0.0
11
914.52747
21
261.53906
31
0.0
0
LINE
8
0
10
914.52747
20
261.53906
30
0.0
11
837.5054
21
229.71194
31
0.0
0
LINE
8
0
10
837.5054
20
229.71194
30
0.0
11
767.83685
21
216.70978
31
0.0
0
LINE
8
0
10
767.83685
20
216.70978
30
0.0
11
707.58356
21
218.08614
31
0.0
0
LINE
8
0
10
707.58356
20
218.08614
30
0.0
11
657.6826
21
229.77979
31
0.0
0
LINE
8
0
10
657.6826
20
229.77979
30
0.0
11
618.2029
21
248.24702
31
0.0
0
LINE
8
0
10
618.2029
20
248.24702
30
0.0
11
588.5815
21
270.5267
31
0.0
0
LINE
8
0
10
588.5815
20
270.5267
30
0.0
11
567.83136
21
294.25323
31
0.0
0
LINE
8
0
10
567.83136
20
294.25323
30
0.0
11
554.71716
21
317.6307
31
0.0
0
LINE
8
0
10
554.71716
20
317.6307
30
0.0
11
547.89624
21
339.38098
31
0.0
0
LINE
8
0
10
547.89624
20
339.38098
30
0.0
11
546.0277
21
358.67532
31
0.0
0
LINE
8
0
10
546.0277
20
358.67532
30
0.0
11
547.8505
21
375.0589
31
0.0
0
LINE
8
0
10
547.8505
20
375.0589
30
0.0
11
552.23566
21
388.37396
31
0.0
0
LINE
8
0
10
552.23566
20
388.37396
30
0.0
11
558.2159
21
398.6869
31
0.0
0
LINE
8
0
10
558.2159
20
398.6869
30
0.0
11
564.998
21
406.2222
31
0.0
0
LINE
8
0
10
564.998
20
406.2222
30
0.0
11
571.9611
21
411.30566
31
0.0
0
LINE
8
0
10
571.9611
20
411.30566
30
0.0
11
578.6457
21
414.31705
31
0.0
0
LINE
8
0
10
578.6457
20
414.31705
30
0.0
11
584.7357
21
415.65283
31
0.0
0
LINE
8
0
10
584.7357
20
415.65283
30
0.0
11
590.03754
21
415.69833
31
0.0
0
LINE
8
0
10
590.03754
20
415.69833
30
0.0
11
594.45764
21
414.80798
31
0.0
0
LINE
8
0
10
594.45764
20
414.80798
30
0.0
11
597.9801
21
413.29327
31
0.0
0
LINE
8
0
10
1067.9807
20
482.51764
30
0.0
11
1003.8926
21
386.74265
31
0.0
0
LINE
8
0
10
1003.8926
20
386.74265
30
0.0
11
933.79254
21
318.25974
31
0.0
0
LINE
8
0
10
933.79254
20
318.25974
30
0.0
11
863.46735
21
273.54138
31
0.0
0
LINE
8
0
10
863.46735
20
273.54138
30
0.0
11
797.11505
21
248.63893
31
0.0
0
LINE
8
0
10
797.11505
20
248.63893
30
0.0
11
737.53815
21
239.5315
31
0.0
0
LINE
8
0
10
737.53815
20
239.5315
30
0.0
11
686.3647
21
242.3823
31
0.0
0
LINE
8
0
10
686.3647
20
242.3823
30
0.0
11
644.278
21
253.7134
31
0.0
0
LINE
8
0
10
644.278
20
253.7134
30
0.0
11
611.23773
21
270.5109
31
0.0
0
LINE
8
0
10
611.23773
20
270.5109
30
0.0
11
586.6828
21
290.27374
31
0.0
0
LINE
8
0
10
586.6828
20
290.27374
30
0.0
11
569.7083
21
311.0188
31
0.0
0
LINE
8
0
10
569.7083
20
311.0188
30
0.0
11
559.2142
21
331.25418
31
0.0
0
LINE
8
0
10
559.2142
20
331.25418
30
0.0
11
554.0236
21
349.93094
31
0.0
0
LINE
8
0
10
554.0236
20
349.93094
30
0.0
11
552.97375
21
366.38214
31
0.0
0
LINE
8
0
10
552.97375
20
366.38214
30
0.0
11
554.9801
21
380.2564
31
0.0
0
LINE
8
0
10
554.9801
20
380.2564
30
0.0
11
559.07874
21
391.4511
31
0.0
0
LINE
8
0
10
559.07874
20
391.4511
30
0.0
11
564.4493
21
400.04965
31
0.0
0
LINE
8
0
10
564.4493
20
400.04965
30
0.0
11
570.4239
21
406.265
31
0.0
0
LINE
8
0
10
570.4239
20
406.265
30
0.0
11
576.484
21
410.39142
31
0.0
0
LINE
8
0
10
576.484
20
410.39142
30
0.0
11
582.2495
21
412.76443
31
0.0
0
LINE
8
0
10
582.2495
20
412.76443
30
0.0
11
587.46295
21
413.72986
31
0.0
0
LINE
8
0
10
587.46295
20
413.72986
30
0.0
11
591.97046
21
413.6206
31
0.0
0
LINE
8
0
10
591.97046
20
413.6206
30
0.0
11
595.70245
21
412.74057
31
0.0
0
LINE
8
0
10
1046.542
20
562.52795
30
0.0
11
1000.0587
21
457.07925
31
0.0
0
LINE
8
0
10
1000.0587
20
457.07925
30
0.0
11
942.9155
21
377.46402
31
0.0
0
LINE
8
0
10
942.9155
20
377.46402
30
0.0
11
881.42395
21
321.2132
31
0.0
0
LINE
8
0
10
881.42395
20
321.2132
30
0.0
11
820.40405
21
285.1671
31
0.0
0
LINE
8
0
10
820.40405
20
285.1671
30
0.0
11
763.3137
21
265.85263
31
0.0
0
LINE
8
0
10
763.3137
20
265.85263
30
0.0
11
712.42267
21
259.77393
31
0.0
0
LINE
8
0
10
712.42267
20
259.77393
30
0.0
11
669.0077
21
263.6246
31
0.0
0
LINE
8
0
10
669.0077
20
263.6246
30
0.0
11
633.55255
21
274.42953
31
0.0
0
LINE
8
0
10
633.55255
20
274.42953
30
0.0
11
605.9389
21
289.62823
31
0.0
0
LINE
8
0
10
605.9389
20
289.62823
30
0.0
11
585.61993
21
307.11053
31
0.0
0
LINE
8
0
10
585.61993
20
307.11053
30
0.0
11
571.7714
21
325.2162
31
0.0
0
LINE
8
0
10
571.7714
20
325.2162
30
0.0
11
563.4165
21
342.7079
31
0.0
0
LINE
8
0
10
563.4165
20
342.7079
30
0.0
11
559.5259
21
358.72684
31
0.0
0
LINE
8
0
10
559.5259
20
358.72684
30
0.0
11
559.0925
21
372.7387
31
0.0
0
LINE
8
0
10
559.0925
20
372.7387
30
0.0
11
561.1849
21
384.47507
31
0.0
0
LINE
8
0
10
561.1849
20
384.47507
30
0.0
11
564.9808
21
393.87558
31
0.0
0
LINE
8
0
10
564.9808
20
393.87558
30
0.0
11
569.78534
21
401.034
31
0.0
0
LINE
8
0
10
569.78534
20
401.034
30
0.0
11
575.0368
21
406.15002
31
0.0
0
LINE
8
0
10
575.0368
20
406.15002
30
0.0
11
580.3027
21
409.48816
31
0.0
0
LINE
8
0
10
580.3027
20
409.48816
30
0.0
11
585.2692
21
411.34424
31
0.0
0
LINE
8
0
10
585.2692
20
411.34424
30
0.0
11
589.72723
21
412.01935
31
0.0
0
LINE
8
0
10
589.72723
20
412.01935
30
0.0
11
593.55536
21
411.80075
31
0.0
0
LINE
8
0
10
1011.5353
20
637.60004
30
0.0
11
984.0692
21
525.6816
31
0.0
0
LINE
8
0
10
984.0692
20
525.6816
30
0.0
11
941.61926
21
437.35306
31
0.0
0
LINE
8
0
10
941.61926
20
437.35306
30
0.0
11
890.8297
21
371.2789
31
0.0
0
LINE
8
0
10
890.8297
20
371.2789
30
0.0
11
836.9961
21
325.18445
31
0.0
0
LINE
8
0
10
836.9961
20
325.18445
30
0.0
11
784.127
21
296.24976
31
0.0
0
LINE
8
0
10
784.127
20
296.24976
30
0.0
11
735.0647
21
281.42627
31
0.0
0
LINE
8
0
10
735.0647
20
281.42627
30
0.0
11
691.6407
21
277.6795
31
0.0
0
LINE
8
0
10
691.6407
20
277.6795
30
0.0
11
654.8479
21
282.16357
31
0.0
0
LINE
8
0
10
654.8479
20
282.16357
30
0.0
11
625.0145
21
292.3363
31
0.0
0
LINE
8
0
10
625.0145
20
292.3363
30
0.0
11
601.9685
21
306.02466
31
0.0
0
LINE
8
0
10
601.9685
20
306.02466
30
0.0
11
585.18634
21
321.4505
31
0.0
0
LINE
8
0
10
585.18634
20
321.4505
30
0.0
11
573.92096
21
337.22562
31
0.0
0
LINE
8
0
10
573.92096
20
337.22562
30
0.0
11
567.3078
21
352.32562
31
0.0
0
LINE
8
0
10
567.3078
20
352.32562
30
0.0
11
564.4479
21
366.04938
31
0.0
0
LINE
8
0
10
564.4479
20
366.04938
30
0.0
11
564.47046
21
377.97076
31
0.0
0
LINE
8
0
10
564.47046
20
377.97076
30
0.0
11
566.5763
21
387.88757
31
0.0
0
LINE
8
0
10
566.5763
20
387.88757
30
0.0
11
570.0648
21
395.77158
31
0.0
0
LINE
8
0
10
570.0648
20
395.77158
30
0.0
11
574.34814
21
401.7218
31
0.0
0
LINE
8
0
10
574.34814
20
401.7218
30
0.0
11
578.9543
21
405.9236
31
0.0
0
LINE
8
0
10
578.9543
20
405.9236
30
0.0
11
583.52313
21
408.61392
31
0.0
0
LINE
8
0
10
583.52313
20
408.61392
30
0.0
11
587.7962
21
410.05292
31
0.0
0
LINE
8
0
10
587.7962
20
410.05292
30
0.0
11
591.60406
21
410.50235
31
0.0
0
LINE
8
0
10
964.02435
20
705.4527
30
0.0
11
956.4099
21
590.4651
31
0.0
0
LINE
8
0
10
956.4099
20
590.4651
30
0.0
11
929.943
21
496.10712
31
0.0
0
LINE
8
0
10
929.943
20
496.10712
30
0.0
11
891.3987
21
422.2173
31
0.0
0
LINE
8
0
10
891.3987
20
422.2173
30
0.0
11
846.3872
21
367.475
31
0.0
0
LINE
8
0
10
846.3872
20
367.475
30
0.0
11
799.34576
21
329.79926
31
0.0
0
LINE
8
0
10
799.34576
20
329.79926
30
0.0
11
753.6029
21
306.6814
31
0.0
0
LINE
8
0
10
753.6029
20
306.6814
30
0.0
11
711.48914
21
295.45108
31
0.0
0
LINE
8
0
10
711.48914
20
295.45108
30
0.0
11
674.4767
21
293.47803
31
0.0
0
LINE
8
0
10
674.4767
20
293.47803
30
0.0
11
643.3301
21
298.31567
31
0.0
0
LINE
8
0
10
643.3301
20
298.31567
30
0.0
11
618.25726
21
307.7942
31
0.0
0
LINE
8
0
10
618.25726
20
307.7942
30
0.0
11
599.05133
21
320.07147
31
0.0
0
LINE
8
0
10
599.05133
20
320.07147
30
0.0
11
585.21783
21
333.65073
31
0.0
0
LINE
8
0
10
585.21783
20
333.65073
30
0.0
11
576.083
21
347.373
31
0.0
0
LINE
8
0
10
576.083
20
347.373
30
0.0
11
570.8835
21
360.3916
31
0.0
0
LINE
8
0
10
570.8835
20
360.3916
30
0.0
11
568.8356
21
372.13577
31
0.0
0
LINE
8
0
10
568.8356
20
372.13577
30
0.0
11
569.1874
21
382.26764
31
0.0
0
LINE
8
0
10
569.1874
20
382.26764
30
0.0
11
571.25385
21
390.6376
31
0.0
0
LINE
8
0
10
571.25385
20
390.6376
30
0.0
11
574.43884
21
397.24124
31
0.0
0
LINE
8
0
10
574.43884
20
397.24124
30
0.0
11
578.2454
21
402.17908
31
0.0
0
LINE
8
0
10
578.2454
20
402.17908
30
0.0
11
582.27765
21
405.62186
31
0.0
0
LINE
8
0
10
582.27765
20
405.62186
30
0.0
11
586.2359
21
407.781
31
0.0
0
LINE
8
0
10
586.2359
20
407.781
30
0.0
11
589.9079
21
408.88486
31
0.0
0
LINE
8
0
10
905.4527
20
764.02435
30
0.0
11
917.9214
21
649.4614
31
0.0
0
LINE
8
0
10
917.9214
20
649.4614
30
0.0
11
908.2416
21
551.94104
31
0.0
0
LINE
8
0
10
908.2416
20
551.94104
30
0.0
11
883.1137
21
472.4806
31
0.0
0
LINE
8
0
10
883.1137
20
472.4806
30
0.0
11
848.29193
21
410.7538
31
0.0
0
LINE
8
0
10
848.29193
20
410.7538
30
0.0
11
808.50745
21
365.4818
31
0.0
0
LINE
8
0
10
808.50745
20
365.4818
30
0.0
11
767.4739
21
334.77197
31
0.0
0
LINE
8
0
10
767.4739
20
334.77197
30
0.0
11
727.95013
21
316.3993
31
0.0
0
LINE
8
0
10
727.95013
20
316.3993
30
0.0
11
691.8426
21
308.02905
31
0.0
0
LINE
8
0
10
691.8426
20
308.02905
30
0.0
11
660.3291
21
307.38467
31
0.0
0
LINE
8
0
10
660.3291
20
307.38467
30
0.0
11
633.9912
21
312.36536
31
0.0
0
LINE
8
0
10
633.9912
20
312.36536
30
0.0
11
612.9452
21
321.12103
31
0.0
0
LINE
8
0
10
612.9452
20
321.12103
30
0.0
11
596.9638
21
332.09183
31
0.0
0
LINE
8
0
10
596.9638
20
332.09183
30
0.0
11
585.58496
21
344.01935
31
0.0
0
LINE
8
0
10
585.58496
20
344.01935
30
0.0
11
578.20374
21
355.93732
31
0.0
0
LINE
8
0
10
578.20374
20
355.93732
30
0.0
11
574.1476
21
367.14746
31
0.0
0
LINE
8
0
10
574.1476
20
367.14746
30
0.0
11
572.7347
21
377.18646
31
0.0
0
LINE
8
0
10
572.7347
20
377.18646
30
0.0
11
573.31635
21
385.78815
31
0.0
0
LINE
8
0
10
573.31635
20
385.78815
30
0.0
11
575.3062
21
392.84448
31
0.0
0
LINE
8
0
10
575.3062
20
392.84448
30
0.0
11
578.1975
21
398.36832
31
0.0
0
LINE
8
0
10
578.1975
20
398.36832
30
0.0
11
581.5707
21
402.459
31
0.0
0
LINE
8
0
10
581.5707
20
402.459
30
0.0
11
585.0939
21
405.2727
31
0.0
0
LINE
8
0
10
585.0939
20
405.2727
30
0.0
11
588.5184
21
406.9974
31
0.0
0
LINE
8
0
10
837.6
20
811.53534
30
0.0
11
869.77295
21
700.87805
31
0.0
0
LINE
8
0
10
869.77295
20
700.87805
30
0.0
11
877.17444
21
603.15826
31
0.0
0
LINE
8
0
10
877.17444
20
603.15826
30
0.0
11
866.22644
21
520.5416
31
0.0
0
LINE
8
0
10
866.22644
20
520.5416
30
0.0
11
842.65247
21
453.70587
31
0.0
0
LINE
8
0
10
842.65247
20
453.70587
30
0.0
11
811.3338
21
402.21317
31
0.0
0
LINE
8
0
10
811.3338
20
402.21317
30
0.0
11
776.25635
21
364.84448
31
0.0
0
LINE
8
0
10
776.25635
20
364.84448
30
0.0
11
740.5234
21
339.8877
31
0.0
0
LINE
8
0
10
740.5234
20
339.8877
30
0.0
11
706.4179
21
325.3746
31
0.0
0
LINE
8
0
10
706.4179
20
325.3746
30
0.0
11
675.49506
21
319.26773
31
0.0
0
LINE
8
0
10
675.49506
20
319.26773
30
0.0
11
648.69244
21
319.5992
31
0.0
0
LINE
8
0
10
648.69244
20
319.5992
30
0.0
11
626.44574
21
324.5673
31
0.0
0
LINE
8
0
10
626.44574
20
324.5673
30
0.0
11
608.80206
21
332.59628
31
0.0
0
LINE
8
0
10
608.80206
20
332.59628
30
0.0
11
595.5249
21
342.36667
31
0.0
0
LINE
8
0
10
595.5249
20
342.36667
30
0.0
11
586.1863
21
352.82184
31
0.0
0
LINE
8
0
10
586.1863
20
352.82184
30
0.0
11
580.2451
21
363.15735
31
0.0
0
LINE
8
0
10
580.2451
20
363.15735
30
0.0
11
577.1104
21
372.79846
31
0.0
0
LINE
8
0
10
577.1104
20
372.79846
30
0.0
11
576.1896
21
381.37048
31
0.0
0
LINE
8
0
10
576.1896
20
381.37048
30
0.0
11
576.92395
21
388.66516
31
0.0
0
LINE
8
0
10
576.92395
20
388.66516
30
0.0
11
578.8121
21
394.60715
31
0.0
0
LINE
8
0
10
578.8121
20
394.60715
30
0.0
11
581.42365
21
399.22144
31
0.0
0
LINE
8
0
10
581.42365
20
399.22144
30
0.0
11
584.4047
21
402.60416
31
0.0
0
LINE
8
0
10
584.4047
20
402.60416
30
0.0
11
587.4777
21
404.89734
31
0.0
0
LINE
8
0
10
762.52795
20
846.542
30
0.0
11
813.4275
21
743.1526
31
0.0
0
LINE
8
0
10
813.4275
20
743.1526
30
0.0
11
837.6854
21
648.2027
31
0.0
0
LINE
8
0
10
837.6854
20
648.2027
30
0.0
11
841.25006
21
564.94006
31
0.0
0
LINE
8
0
10
841.25006
20
564.94006
30
0.0
11
829.6401
21
495.02612
31
0.0
0
LINE
8
0
10
829.6401
20
495.02612
30
0.0
11
807.7389
21
438.87726
31
0.0
0
LINE
8
0
10
807.7389
20
438.87726
30
0.0
11
779.6833
21
395.98517
31
0.0
0
LINE
8
0
10
779.6833
20
395.98517
30
0.0
11
748.8269
21
365.20255
31
0.0
0
LINE
8
0
10
748.8269
20
365.20255
30
0.0
11
717.7597
21
344.9876
31
0.0
0
LINE
8
0
10
717.7597
20
344.9876
30
0.0
11
688.3671
21
333.60382
31
0.0
0
LINE
8
0
10
688.3671
20
333.60382
30
0.0
11
661.9141
21
329.27603
31
0.0
0
LINE
8
0
10
661.9141
20
329.27603
30
0.0
11
639.1427
21
330.30554
31
0.0
0
LINE
8
0
10
639.1427
20
330.30554
30
0.0
11
620.37286
21
335.14874
31
0.0
0
LINE
8
0
10
620.37286
20
335.14874
30
0.0
11
605.60077
21
342.46515
31
0.0
0
LINE
8
0
10
605.60077
20
342.46515
30
0.0
11
594.5885
21
351.13986
31
0.0
0
LINE
8
0
10
594.5885
20
351.13986
30
0.0
11
586.94293
21
360.28668
31
0.0
0
LINE
8
0
10
586.94293
20
360.28668
30
0.0
11
582.18164
21
369.237
31
0.0
0
LINE
8
0
10
582.18164
20
369.237
30
0.0
11
579.7863
21
377.51886
31
0.0
0
LINE
8
0
10
579.7863
20
377.51886
30
0.0
11
579.2428
21
384.83026
31
0.0
0
LINE
8
0
10
579.2428
20
384.83026
30
0.0
11
580.07043
21
391.00983
31
0.0
0
LINE
8
0
10
580.07043
20
391.00983
30
0.0
11
581.84106
21
396.0075
31
0.0
0
LINE
8
0
10
581.84106
20
396.0075
30
0.0
11
584.18945
21
399.8565
31
0.0
0
LINE
8
0
10
584.18945
20
399.8565
30
0.0
11
586.81757
21
402.64847
31
0.0
0
LINE
8
0
10
682.51764
20
867.9807
30
0.0
11
750.5972
21
775.0006
31
0.0
0
LINE
8
0
10
750.5972
20
775.0006
30
0.0
11
790.9745
21
685.70557
31
0.0
0
LINE
8
0
10
790.9745
20
685.70557
30
0.0
11
808.94336
21
604.3269
31
0.0
0
LINE
8
0
10
808.94336
20
604.3269
30
0.0
11
809.6502
21
533.45905
31
0.0
0
LINE
8
0
10
809.6502
20
533.45905
30
0.0
11
797.8319
21
474.3601
31
0.0
0
LINE
8
0
10
797.8319
20
474.3601
30
0.0
11
777.65063
21
427.24783
31
0.0
0
LINE
8
0
10
777.65063
20
427.24783
30
0.0
11
752.6084
21
391.57474
31
0.0
0
LINE
8
0
10
752.6084
20
391.57474
30
0.0
11
725.5235
21
366.27213
31
0.0
0
LINE
8
0
10
725.5235
20
366.27213
30
0.0
11
698.5542
21
349.95734
31
0.0
0
LINE
8
0
10
698.5542
20
349.95734
30
0.0
11
673.25464
21
341.10178
31
0.0
0
LINE
8
0
10
673.25464
20
341.10178
30
0.0
11
650.6503
21
338.1614
31
0.0
0
LINE
8
0
10
650.6503
20
338.1614
30
0.0
11
631.32465
21
339.6717
31
0.0
0
LINE
8
0
10
631.32465
20
339.6717
30
0.0
11
615.50653
21
344.3118
31
0.0
0
LINE
8
0
10
615.50653
20
344.3118
30
0.0
11
603.1552
21
350.94244
31
0.0
0
LINE
8
0
10
603.1552
20
350.94244
30
0.0
11
594.0374
21
358.62268
31
0.0
0
LINE
8
0
10
594.0374
20
358.62268
30
0.0
11
587.7943
21
366.61023
31
0.0
0
LINE
8
0
10
587.7943
20
366.61023
30
0.0
11
583.9972
21
374.35034
31
0.0
0
LINE
8
0
10
583.9972
20
374.35034
30
0.0
11
582.1923
21
381.45627
31
0.0
0
LINE
8
0
10
582.1923
20
381.45627
30
0.0
11
581.9343
21
387.68567
31
0.0
0
LINE
8
0
10
581.9343
20
387.68567
30
0.0
11
582.81024
21
392.9149
31
0.0
0
LINE
8
0
10
582.81024
20
392.9149
30
0.0
11
584.4545
21
397.11322
31
0.0
0
LINE
8
0
10
584.4545
20
397.11322
30
0.0
11
586.5579
21
400.31912
31
0.0
0
LINE
8
0
10
600.0
20
875.2001
30
0.0
11
683.19116
21
795.45447
31
0.0
0
LINE
8
0
10
683.19116
20
795.45447
30
0.0
11
738.4609
21
714.52747
31
0.0
0
LINE
8
0
10
738.4609
20
714.52747
30
0.0
11
770.288
21
637.5054
31
0.0
0
LINE
8
0
10
770.288
20
637.5054
30
0.0
11
783.2902
21
567.8369
31
0.0
0
LINE
8
0
10
783.2902
20
567.8369
30
0.0
11
781.9139
21
507.58356
31
0.0
0
LINE
8
0
10
781.9139
20
507.58356
30
0.0
11
770.2202
21
457.6826
31
0.0
0
LINE
8
0
10
770.2202
20
457.6826
30
0.0
11
751.753
21
418.2029
31
0.0
0
LINE
8
0
10
751.753
20
418.2029
30
0.0
11
729.47327
21
388.58148
31
0.0
0
LINE
8
0
10
729.47327
20
388.58148
30
0.0
11
705.74677
21
367.83136
31
0.0
0
LINE
8
0
10
705.74677
20
367.83136
30
0.0
11
682.36926
21
354.7171
31
0.0
0
LINE
8
0
10
682.36926
20
354.7171
30
0.0
11
660.619
21
347.8962
31
0.0
0
LINE
8
0
10
660.619
20
347.8962
30
0.0
11
641.3247
21
346.0277
31
0.0
0
LINE
8
0
10
641.3247
20
346.0277
30
0.0
11
624.9411
21
347.85052
31
0.0
0
LINE
8
0
10
624.9411
20
347.85052
30
0.0
11
611.62604
21
352.23566
31
0.0
0
LINE
8
0
10
611.62604
20
352.23566
30
0.0
11
601.3131
21
358.21588
31
0.0
0
LINE
8
0
10
601.3131
20
358.21588
30
0.0
11
593.77783
21
364.998
31
0.0
0
LINE
8
0
10
593.77783
20
364.998
30
0.0
11
588.69434
21
371.96115
31
0.0
0
LINE
8
0
10
588.69434
20
371.96115
30
0.0
11
585.683
21
378.64572
31
0.0
0
LINE
8
0
10
585.683
20
378.64572
30
0.0
11
584.34717
21
384.7357
31
0.0
0
LINE
8
0
10
584.34717
20
384.7357
30
0.0
11
584.3017
21
390.03754
31
0.0
0
LINE
8
0
10
584.3017
20
390.03754
30
0.0
11
585.192
21
394.45764
31
0.0
0
LINE
8
0
10
585.192
20
394.45764
30
0.0
11
586.7067
21
397.9801
31
0.0
0
LINE
8
0
10
517.48236
20
867.9807
30
0.0
11
613.2574
21
803.8926
31
0.0
0
LINE
8
0
10
613.2574
20
803.8926
30
0.0
11
681.74023
21
733.7926
31
0.0
0
LINE
8
0
10
681.74023
20
733.7926
30
0.0
11
726.4586
21
663.46735
31
0.0
0
LINE
8
0
10
726.4586
20
663.46735
30
0.0
11
751.361
21
597.1151
31
0.0
0
LINE
8
0
10
751.361
20
597.1151
30
0.0
11
760.4685
21
537.53815
31
0.0
0
LINE
8
0
10
760.4685
20
537.53815
30
0.0
11
757.6177
21
486.36472
31
0.0
0
LINE
8
0
10
757.6177
20
486.36472
30
0.0
11
746.2866
21
444.278
31
0.0
0
LINE
8
0
10
746.2866
20
444.278
30
0.0
11
729.48914
21
411.23776
31
0.0
0
LINE
8
0
10
729.48914
20
411.23776
30
0.0
11
709.72626
21
386.6828
31
0.0
0
LINE
8
0
10
709.72626
20
386.6828
30
0.0
11
688.9812
21
369.70834
31
0.0
0
LINE
8
0
10
688.9812
20
369.70834
30
0.0
11
668.7458
21
359.21417
31
0.0
0
LINE
8
0
10
668.7458
20
359.21417
30
0.0
11
650.06903
21
354.02362
31
0.0
0
LINE
8
0
10
650.06903
20
354.02362
30
0.0
11
633.61786
21
352.97375
31
0.0
0
LINE
8
0
10
633.61786
20
352.97375
30
0.0
11
619.7436
21
354.98013
31
0.0
0
LINE
8
0
10
619.7436
20
354.98013
30
0.0
11
608.5489
21
359.0787
31
0.0
0
LINE
8
0
10
608.5489
20
359.0787
30
0.0
11
599.9504
21
364.44928
31
0.0
0
LINE
8
0
10
599.9504
20
364.44928
30
0.0
11
593.735
21
370.42392
31
0.0
0
LINE
8
0
10
593.735
20
370.42392
30
0.0
11
589.6086
21
376.484
31
0.0
0
LINE
8
0
10
589.6086
20
376.484
30
0.0
11
587.2356
21
382.2495
31
0.0
0
LINE
8
0
10
587.2356
20
382.2495
30
0.0
11
586.27014
21
387.46292
31
0.0
0
LINE
8
0
10
586.27014
20
387.46292
30
0.0
11
586.3794
21
391.97046
31
0.0
0
LINE
8
0
10
586.3794
20
391.97046
30
0.0
11
587.25946
21
395.70242
31
0.0
0
LINE
8
0
10
437.47202
20
846.542
30
0.0
11
542.9207
21
800.0587
31
0.0
0
LINE
8
0
10
542.9207
20
800.0587
30
0.0
11
622.53595
21
742.9155
31
0.0
0
LINE
8
0
10
622.53595
20
742.9155
30
0.0
11
678.78674
21
681.42395
31
0.0
0
LINE
8
0
10
678.78674
20
681.42395
30
0.0
11
714.8328
21
620.40405
31
0.0
0
LINE
8
0
10
714.8328
20
620.40405
30
0.0
11
734.14734
21
563.3137
31
0.0
0
LINE
8
0
10
734.14734
20
563.3137
30
0.0
11
740.2261
21
512.42267
31
0.0
0
LINE
8
0
10
740.2261
20
512.42267
30
0.0
11
736.37537
21
469.00772
31
0.0
0
LINE
8
0
10
736.37537
20
469.00772
30
0.0
11
725.57043
21
433.55258
31
0.0
0
LINE
8
0
10
725.57043
20
433.55258
30
0.0
11
710.37177
21
405.9389
31
0.0
0
LINE
8
0
10
710.37177
20
405.9389
30
0.0
11
692.88947
21
385.61996
31
0.0
0
LINE
8
0
10
692.88947
20
385.61996
30
0.0
11
674.7838
21
371.7714
31
0.0
0
LINE
8
0
10
674.7838
20
371.7714
30
0.0
11
657.2921
21
363.4165
31
0.0
0
LINE
8
0
10
657.2921
20
363.4165
30
0.0
11
641.27313
21
359.52588
31
0.0
0
LINE
8
0
10
641.27313
20
359.52588
30
0.0
11
627.2613
21
359.09253
31
0.0
0
LINE
8
0
10
627.2613
20
359.09253
30
0.0
11
615.52496
21
361.1849
31
0.0
0
LINE
8
0
10
615.52496
20
361.1849
30
0.0
11
606.12445
21
364.98077
31
0.0
0
LINE
8
0
10
606.12445
20
364.98077
30
0.0
11
598.966
21
369.78534
31
0.0
0
LINE
8
0
10
598.966
20
369.78534
30
0.0
11
593.85
21
375.0368
31
0.0
0
LINE
8
0
10
593.85
20
375.0368
30
0.0
11
590.51184
21
380.30267
31
0.0
0
LINE
8
0
10
590.51184
20
380.30267
30
0.0
11
588.65576
21
385.26923
31
0.0
0
LINE
8
0
10
588.65576
20
385.26923
30
0.0
11
587.98065
21
389.72723
31
0.0
0
LINE
8
0
10
587.98065
20
389.72723
30
0.0
11
588.1993
21
393.55533
31
0.0
0
LINE
8
0
10
362.39996
20
811.5353
30
0.0
11
474.31842
21
784.0692
31
0.0
0
LINE
8
0
10
474.31842
20
784.0692
30
0.0
11
562.6469
21
741.61926
31
0.0
0
LINE
8
0
10
562.6469
20
741.61926
30
0.0
11
628.72107
21
690.8297
31
0.0
0
LINE
8
0
10
628.72107
20
690.8297
30
0.0
11
674.8155
21
636.9961
31
0.0
0
LINE
8
0
10
674.8155
20
636.9961
30
0.0
11
703.75024
21
584.1271
31
0.0
0
LINE
8
0
10
703.75024
20
584.1271
30
0.0
11
718.5737
21
535.0647
31
0.0
0
LINE
8
0
10
718.5737
20
535.0647
30
0.0
11
722.32043
21
491.6407
31
0.0
0
LINE
8
0
10
722.32043
20
491.6407
30
0.0
11
717.8364
21
454.84793
31
0.0
0
LINE
8
0
10
717.8364
20
454.84793
30
0.0
11
707.6637
21
425.01453
31
0.0
0
LINE
8
0
10
707.6637
20
425.01453
30
0.0
11
693.97534
21
401.9685
31
0.0
0
LINE
8
0
10
693.97534
20
401.9685
30
0.0
11
678.5495
21
385.1863
31
0.0
0
LINE
8
0
10
678.5495
20
385.1863
30
0.0
11
662.77435
21
373.92096
31
0.0
0
LINE
8
0
10
662.77435
20
373.92096
30
0.0
11
647.6744
21
367.30777
31
0.0
0
LINE
8
0
10
647.6744
20
367.30777
30
0.0
11
633.9506
21
364.44788
31
0.0
0
LINE
8
0
10
633.9506
20
364.44788
30
0.0
11
622.02924
21
364.47046
31
0.0
0
LINE
8
0
10
622.02924
20
364.47046
30
0.0
11
612.1124
21
366.5763
31
0.0
0
LINE
8
0
10
612.1124
20
366.5763
30
0.0
11
604.22845
21
370.06482
31
0.0
0
LINE
8
0
10
604.22845
20
370.06482
30
0.0
11
598.2782
21
374.3481
31
0.0
0
LINE
8
0
10
598.2782
20
374.3481
30
0.0
11
594.0764
21
378.9543
31
0.0
0
LINE
8
0
10
594.0764
20
378.9543
30
0.0
11
591.3861
21
383.5231
31
0.0
0
LINE
8
0
10
591.3861
20
383.5231
30
0.0
11
589.9471
21
387.79617
31
0.0
0
LINE
8
0
10
589.9471
20
387.79617
30
0.0
11
589.4977
21
391.60406
31
0.0
0
LINE
8
0
10
294.5473
20
764.02435
30
0.0
11
409.53485
21
756.4099
31
0.0
0
LINE
8
0
10
409.53485
20
756.4099
30
0.0
11
503.89282
21
729.943
31
0.0
0
LINE
8
0
10
503.89282
20
729.943
30
0.0
11
577.7827
21
691.3987
31
0.0
0
LINE
8
0
10
577.7827
20
691.3987
30
0.0
11
632.52496
21
646.3872
31
0.0
0
LINE
8
0
10
632.52496
20
646.3872
30
0.0
11
670.2007
21
599.34576
31
0.0
0
LINE
8
0
10
670.2007
20
599.34576
30
0.0
11
693.31854
21
553.6029
31
0.0
0
LINE
8
0
10
693.31854
20
553.6029
30
0.0
11
704.5489
21
511.4892
31
0.0
0
LINE
8
0
10
704.5489
20
511.4892
30
0.0
11
706.522
21
474.47675
31
0.0
0
LINE
8
0
10
706.522
20
474.47675
30
0.0
11
701.6843
21
443.3301
31
0.0
0
LINE
8
0
10
701.6843
20
443.3301
30
0.0
11
692.2058
21
418.25726
31
0.0
0
LINE
8
0
10
692.2058
20
418.25726
30
0.0
11
679.9285
21
399.05136
31
0.0
0
LINE
8
0
10
679.9285
20
399.05136
30
0.0
11
666.34924
21
385.21783
31
0.0
0
LINE
8
0
10
666.34924
20
385.21783
30
0.0
11
652.627
21
376.083
31
0.0
0
LINE
8
0
10
652.627
20
376.083
30
0.0
11
639.6084
21
370.88345
31
0.0
0
LINE
8
0
10
639.6084
20
370.88345
30
0.0
11
627.8642
21
368.83557
31
0.0
0
LINE
8
0
10
627.8642
20
368.83557
30
0.0
11
617.73236
21
369.18735
31
0.0
0
LINE
8
0
10
617.73236
20
369.18735
30
0.0
11
609.36237
21
371.25385
31
0.0
0
LINE
8
0
10
609.36237
20
371.25385
30
0.0
11
602.7588
21
374.43884
31
0.0
0
LINE
8
0
10
602.7588
20
374.43884
30
0.0
11
597.8209
21
378.24542
31
0.0
0
LINE
8
0
10
597.8209
20
378.24542
30
0.0
11
594.3781
21
382.27765
31
0.0
0
LINE
8
0
10
594.3781
20
382.27765
30
0.0
11
592.219
21
386.2359
31
0.0
0
LINE
8
0
10
592.219
20
386.2359
30
0.0
11
591.1152
21
389.9079
31
0.0
0
LINE
8
0
10
235.97565
20
705.4527
30
0.0
11
350.5386
21
717.9214
31
0.0
0
LINE
8
0
10
350.5386
20
717.9214
30
0.0
11
448.05896
21
708.2416
31
0.0
0
LINE
8
0
10
448.05896
20
708.2416
30
0.0
11
527.5194
21
683.1137
31
0.0
0
LINE
8
0
10
527.5194
20
683.1137
30
0.0
11
589.24615
21
648.29193
31
0.0
0
LINE
8
0
10
589.24615
20
648.29193
30
0.0
11
634.5182
21
608.50745
31
0.0
0
LINE
8
0
10
634.5182
20
608.50745
30
0.0
11
665.22797
21
567.4739
31
0.0
0
LINE
8
0
10
665.22797
20
567.4739
30
0.0
11
683.6007
21
527.95013
31
0.0
0
LINE
8
0
10
683.6007
20
527.95013
30
0.0
11
691.97095
21
491.84262
31
0.0
0
LINE
8
0
10
691.97095
20
491.84262
30
0.0
11
692.6153
21
460.32913
31
0.0
0
LINE
8
0
10
692.6153
20
460.32913
30
0.0
11
687.63464
21
433.99124
31
0.0
0
LINE
8
0
10
687.63464
20
433.99124
30
0.0
11
678.87897
21
412.9452
31
0.0
0
LINE
8
0
10
678.87897
20
412.9452
30
0.0
11
667.9082
21
396.9638
31
0.0
0
LINE
8
0
10
667.9082
20
396.9638
30
0.0
11
655.98065
21
385.58496
31
0.0
0
LINE
8
0
10
655.98065
20
385.58496
30
0.0
11
644.0627
21
378.20374
31
0.0
0
LINE
8
0
10
644.0627
20
378.20374
30
0.0
11
632.85254
21
374.1476
31
0.0
0
LINE
8
0
10
632.85254
20
374.1476
30
0.0
11
622.81354
21
372.73468
31
0.0
0
LINE
8
0
10
622.81354
20
372.73468
30
0.0
11
614.21185
21
373.3163
31
0.0
0
LINE
8
0
10
614.21185
20
373.3163
30
0.0
11
607.1555
21
375.30624
31
0.0
0
LINE
8
0
10
607.1555
20
375.30624
30
0.0
11
601.6317
21
378.19754
31
0.0
0
LINE
8
0
10
601.6317
20
378.19754
30
0.0
11
597.541
21
381.57065
31
0.0
0
LINE
8
0
10
597.541
20
381.57065
30
0.0
11
594.7273
21
385.09384
31
0.0
0
LINE
8
0
10
594.7273
20
385.09384
30
0.0
11
593.0026
21
388.5184
31
0.0
0
LINE
8
0
10
188.46469
20
637.60004
30
0.0
11
299.122
21
669.77295
31
0.0
0
LINE
8
0
10
299.122
20
669.77295
30
0.0
11
396.84174
21
677.17444
31
0.0
0
LINE
8
0
10
396.84174
20
677.17444
30
0.0
11
479.45834
21
666.22644
31
0.0
0
LINE
8
0
10
479.45834
20
666.22644
30
0.0
11
546.2941
21
642.6524
31
0.0
0
LINE
8
0
10
546.2941
20
642.6524
30
0.0
11
597.7868
21
611.3338
31
0.0
0
LINE
8
0
10
597.7868
20
611.3338
30
0.0
11
635.1555
21
576.25635
31
0.0
0
LINE
8
0
10
635.1555
20
576.25635
30
0.0
11
660.1123
21
540.52344
31
0.0
0
LINE
8
0
10
660.1123
20
540.52344
30
0.0
11
674.62537
21
506.4179
31
0.0
0
LINE
8
0
10
674.62537
20
506.4179
30
0.0
11
680.73224
21
475.4951
31
0.0
0
LINE
8
0
10
680.73224
20
475.4951
30
0.0
11
680.40076
21
448.69244
31
0.0
0
LINE
8
0
10
680.40076
20
448.69244
30
0.0
11
675.4327
21
426.44574
31
0.0
0
LINE
8
0
10
675.4327
20
426.44574
30
0.0
11
667.4037
21
408.80206
31
0.0
0
LINE
8
0
10
667.4037
20
408.80206
30
0.0
11
657.6333
21
395.5249
31
0.0
0
LINE
8
0
10
657.6333
20
395.5249
30
0.0
11
647.17816
21
386.18628
31
0.0
0
LINE
8
0
10
647.17816
20
386.18628
30
0.0
11
636.84265
21
380.24515
31
0.0
0
LINE
8
0
10
636.84265
20
380.24515
30
0.0
11
627.20154
21
377.1104
31
0.0
0
LINE
8
0
10
627.20154
20
377.1104
30
0.0
11
618.6295
21
376.18958
31
0.0
0
LINE
8
0
10
618.6295
20
376.18958
30
0.0
11
611.33484
21
376.92392
31
0.0
0
LINE
8
0
10
611.33484
20
376.92392
30
0.0
11
605.3929
21
378.8121
31
0.0
0
LINE
8
0
10
605.3929
20
378.8121
30
0.0
11
600.77856
21
381.42365
31
0.0
0
LINE
8
0
10
600.77856
20
381.42365
30
0.0
11
597.3959
21
384.40472
31
0.0
0
LINE
8
0
10
597.3959
20
384.40472
30
0.0
11
595.10266
21
387.47772
31
0.0
0
LINE
8
0
10
153.45804
20
562.528
30
0.0
11
256.84747
21
613.4276
31
0.0
0
LINE
8
0
10
256.84747
20
613.4276
30
0.0
11
351.7973
21
637.6854
31
0.0
0
LINE
8
0
10
351.7973
20
637.6854
30
0.0
11
435.05997
21
641.2501
31
0.0
0
LINE
8
0
10
435.05997
20
641.2501
30
0.0
11
504.9739
21
629.6401
31
0.0
0
LINE
8
0
10
504.9739
20
629.6401
30
0.0
11
561.12274
21
607.7389
31
0.0
0
LINE
8
0
10
561.12274
20
607.7389
30
0.0
11
604.01483
21
579.6833
31
0.0
0
LINE
8
0
10
604.01483
20
579.6833
30
0.0
11
634.7974
21
548.8269
31
0.0
0
LINE
8
0
10
634.7974
20
548.8269
30
0.0
11
655.0124
21
517.75977
31
0.0
0
LINE
8
0
10
655.0124
20
517.75977
30
0.0
11
666.3962
21
488.36713
31
0.0
0
LINE
8
0
10
666.3962
20
488.36713
30
0.0
11
670.72394
21
461.91415
31
0.0
0
LINE
8
0
10
670.72394
20
461.91415
30
0.0
11
669.69446
21
439.1427
31
0.0
0
LINE
8
0
10
669.69446
20
439.1427
30
0.0
11
664.85126
21
420.3729
31
0.0
0
LINE
8
0
10
664.85126
20
420.3729
30
0.0
11
657.53485
21
405.6008
31
0.0
0
LINE
8
0
10
657.53485
20
405.6008
30
0.0
11
648.86017
21
394.58853
31
0.0
0
LINE
8
0
10
648.86017
20
394.58853
30
0.0
11
639.7133
21
386.94293
31
0.0
0
LINE
8
0
10
639.7133
20
386.94293
30
0.0
11
630.763
21
382.18164
31
0.0
0
LINE
8
0
10
630.763
20
382.18164
30
0.0
11
622.48114
21
379.7863
31
0.0
0
LINE
8
0
10
622.48114
20
379.7863
30
0.0
11
615.16974
21
379.24277
31
0.0
0
LINE
8
0
10
615.16974
20
379.24277
30
0.0
11
608.9902
21
380.07043
31
0.0
0
LINE
8
0
10
608.9902
20
380.07043
30
0.0
11
603.9925
21
381.84106
31
0.0
0
LINE
8
0
10
603.9925
20
381.84106
30
0.0
11
600.1435
21
384.18945
31
0.0
0
LINE
8
0
10
600.1435
20
384.18945
30
0.0
11
597.35156
21
386.81757
31
0.0
0
LINE
8
0
10
132.01932
20
482.51767
30
0.0
11
224.99936
21
550.5973
31
0.0
0
LINE
8
0
10
224.99936
20
550.5973
30
0.0
11
314.29443
21
590.97455
31
0.0
0
LINE
8
0
10
314.29443
20
590.97455
30
0.0
11
395.67316
21
608.9434
31
0.0
0
LINE
8
0
10
395.67316
20
608.9434
30
0.0
11
466.54102
21
609.6502
31
0.0
0
LINE
8
0
10
466.54102
20
609.6502
30
0.0
11
525.6399
21
597.8319
31
0.0
0
LINE
8
0
10
525.6399
20
597.8319
30
0.0
11
572.7522
21
577.65063
31
0.0
0
LINE
8
0
10
572.7522
20
577.65063
30
0.0
11
608.4253
21
552.6084
31
0.0
0
LINE
8
0
10
608.4253
20
552.6084
30
0.0
11
633.72784
21
525.5235
31
0.0
0
LINE
8
0
10
633.72784
20
525.5235
30
0.0
11
650.04266
21
498.5542
31
0.0
0
LINE
8
0
10
650.04266
20
498.5542
30
0.0
11
658.8982
21
473.2546
31
0.0
0
LINE
8
0
10
658.8982
20
473.2546
30
0.0
11
661.8386
21
450.65036
31
0.0
0
LINE
8
0
10
661.8386
20
450.65036
30
0.0
11
660.3283
21
431.32468
31
0.0
0
LINE
8
0
10
660.3283
20
431.32468
30
0.0
11
655.6882
21
415.50653
31
0.0
0
LINE
8
0
10
655.6882
20
415.50653
30
0.0
11
649.05756
21
403.1552
31
0.0
0
LINE
8
0
10
649.05756
20
403.1552
30
0.0
11
641.3773
21
394.03745
31
0.0
0
LINE
8
0
10
641.3773
20
394.03745
30
0.0
11
633.3898
21
387.79428
31
0.0
0
LINE
8
0
10
633.3898
20
387.79428
30
0.0
11
625.64966
21
383.9972
31
0.0
0
LINE
8
0
10
625.64966
20
383.9972
30
0.0
11
618.54376
21
382.19232
31
0.0
0
LINE
8
0
10
618.54376
20
382.19232
30
0.0
11
612.31433
21
381.93436
31
0.0
0
LINE
8
0
10
612.31433
20
381.93436
30
0.0
11
607.08514
21
382.8102
31
0.0
0
LINE
8
0
10
607.08514
20
382.8102
30
0.0
11
602.8868
21
384.45456
31
0.0
0
LINE
8
0
10
602.8868
20
384.45456
30
0.0
11
599.68085
21
386.55792
31
0.0
0
LINE
8
0
10
124.79996
20
399.99997
30
0.0
11
204.54553
21
483.1912
31
0.0
0
LINE
8
0
10
204.54553
20
483.1912
30
0.0
11
285.47256
21
538.461
31
0.0
0
LINE
8
0
10
285.47256
20
538.461
30
0.0
11
362.4947
21
570.28815
31
0.0
0
LINE
8
0
10
362.4947
20
570.28815
30
0.0
11
432.1632
21
583.2903
31
0.0
0
LINE
8
0
10
432.1632
20
583.2903
30
0.0
11
492.4165
21
581.91394
31
0.0
0
LINE
8
0
10
492.4165
20
581.91394
30
0.0
11
542.31744
21
570.2202
31
0.0
0
LINE
8
0
10
542.31744
20
570.2202
30
0.0
11
581.7971
21
551.753
31
0.0
0
LINE
8
0
10
581.7971
20
551.753
30
0.0
11
611.4186
21
529.47327
31
0.0
0
LINE
8
0
10
611.4186
20
529.47327
30
0.0
11
632.16864
21
505.74677
31
0.0
0
LINE
8
0
10
632.16864
20
505.74677
30
0.0
11
645.2829
21
482.36926
31
0.0
0
LINE
8
0
10
645.2829
20
482.36926
30
0.0
11
652.10376
21
460.61902
31
0.0
0
LINE
8
0
10
652.10376
20
460.61902
30
0.0
11
653.9723
21
441.32468
31
0.0
0
LINE
8
0
10
653.9723
20
441.32468
30
0.0
11
652.1495
21
424.9411
31
0.0
0
LINE
8
0
10
652.1495
20
424.9411
30
0.0
11
647.76434
21
411.62604
31
0.0
0
LINE
8
0
10
647.76434
20
411.62604
30
0.0
11
641.7841
21
401.3131
31
0.0
0
LINE
8
0
10
641.7841
20
401.3131
30
0.0
11
635.002
21
393.7778
31
0.0
0
LINE
8
0
10
635.002
20
393.7778
30
0.0
11
628.0389
21
388.69434
31
0.0
0
LINE
8
0
10
628.0389
20
388.69434
30
0.0
11
621.3543
21
385.68295
31
0.0
0
LINE
8
0
10
621.3543
20
385.68295
30
0.0
11
615.2643
21
384.34717
31
0.0
0
LINE
8
0
10
615.2643
20
384.34717
30
0.0
11
609.96246
21
384.3017
31
0.0
0
LINE
8
0
10
609.96246
20
384.3017
30
0.0
11
605.54236
21
385.19202
31
0.0
0
LINE
8
0
10
605.54236
20
385.19202
30
0.0
11
602.0199
21
386.70673
31
0.0
0
LINE
8
0
10
132.01932
20
317.48236
30
0.0
11
196.10739
21
413.2574
31
0.0
0
LINE
8
0
10
196.10739
20
413.2574
30
0.0
11
266.20746
21
481.74036
31
0.0
0
LINE
8
0
10
266.20746
20
481.74036
30
0.0
11
336.5327
21
526.45874
31
0.0
0
LINE
8
0
10
336.5327
20
526.45874
30
0.0
11
402.885
21
551.36115
31
0.0
0
LINE
8
0
10
402.885
20
551.36115
30
0.0
11
462.4619
21
560.46857
31
0.0
0
LINE
8
0
10
462.4619
20
560.46857
30
0.0
11
513.6354
21
557.61774
31
0.0
0
LINE
8
0
10
513.6354
20
557.61774
30
0.0
11
555.72205
21
546.2866
31
0.0
0
LINE
8
0
10
555.72205
20
546.2866
30
0.0
11
588.76227
21
529.48914
31
0.0
0
LINE
8
0
10
588.76227
20
529.48914
30
0.0
11
613.31726
21
509.72626
31
0.0
0
LINE
8
0
10
613.31726
20
509.72626
30
0.0
11
630.2917
21
488.9812
31
0.0
0
LINE
8
0
10
630.2917
20
488.9812
30
0.0
11
640.7858
21
468.7458
31
0.0
0
LINE
8
0
10
640.7858
20
468.7458
30
0.0
11
645.9764
21
450.06903
31
0.0
0
LINE
8
0
10
645.9764
20
450.06903
30
0.0
11
647.02625
21
433.61783
31
0.0
0
LINE
8
0
10
647.02625
20
433.61783
30
0.0
11
645.0199
21
419.7436
31
0.0
0
LINE
8
0
10
645.0199
20
419.7436
30
0.0
11
640.9213
21
408.5489
31
0.0
0
LINE
8
0
10
640.9213
20
408.5489
30
0.0
11
635.5507
21
399.95035
31
0.0
0
LINE
8
0
10
635.5507
20
399.95035
30
0.0
11
629.5761
21
393.735
31
0.0
0
LINE
8
0
10
629.5761
20
393.735
30
0.0
11
623.516
21
389.60858
31
0.0
0
LINE
8
0
10
623.516
20
389.60858
30
0.0
11
617.7505
21
387.23557
31
0.0
0
LINE
8
0
10
617.7505
20
387.23557
30
0.0
11
612.5371
21
386.27014
31
0.0
0
LINE
8
0
10
612.5371
20
386.27014
30
0.0
11
608.02954
21
386.3794
31
0.0
0
LINE
8
0
10
608.02954
20
386.3794
30
0.0
11
604.29755
21
387.25943
31
0.0
0
LINE
8
0
10
153.45804
20
237.47202
30
0.0
11
199.94128
21
342.92078
31
0.0
0
LINE
8
0
10
199.94128
20
342.92078
30
0.0
11
257.08444
21
422.53607
31
0.0
0
LINE
8
0
10
257.08444
20
422.53607
30
0.0
11
318.57605
21
478.78693
31
0.0
0
LINE
8
0
10
318.57605
20
478.78693
30
0.0
11
379.596
21
514.83295
31
0.0
0
LINE
8
0
10
379.596
20
514.83295
30
0.0
11
436.68637
21
534.14746
31
0.0
0
LINE
8
0
10
436.68637
20
534.14746
30
0.0
11
487.57742
21
540.22614
31
0.0
0
LINE
8
0
10
487.57742
20
540.22614
30
0.0
11
530.9924
21
536.3754
31
0.0
0
LINE
8
0
10
530.9924
20
536.3754
30
0.0
11
566.4475
21
525.5705
31
0.0
0
LINE
8
0
10
566.4475
20
525.5705
30
0.0
11
594.06116
21
510.37177
31
0.0
0
LINE
8
0
10
594.06116
20
510.37177
30
0.0
11
614.38007
21
492.88947
31
0.0
0
LINE
8
0
10
614.38007
20
492.88947
30
0.0
11
628.22864
21
474.78378
31
0.0
0
LINE
8
0
10
628.22864
20
474.78378
30
0.0
11
636.5835
21
457.2921
31
0.0
0
LINE
8
0
10
636.5835
20
457.2921
30
0.0
11
640.4741
21
441.27313
31
0.0
0
LINE
8
0
10
640.4741
20
441.27313
30
0.0
11
640.9075
21
427.26126
31
0.0
0
LINE
8
0
10
640.9075
20
427.26126
30
0.0
11
638.8151
21
415.52493
31
0.0
0
LINE
8
0
10
638.8151
20
415.52493
30
0.0
11
635.0192
21
406.12442
31
0.0
0
LINE
8
0
10
635.0192
20
406.12442
30
0.0
11
630.21466
21
398.966
31
0.0
0
LINE
8
0
10
630.21466
20
398.966
30
0.0
11
624.9632
21
393.84998
31
0.0
0
LINE
8
0
10
624.9632
20
393.84998
30
0.0
11
619.6973
21
390.51184
31
0.0
0
LINE
8
0
10
619.6973
20
390.51184
30
0.0
11
614.7308
21
388.65576
31
0.0
0
LINE
8
0
10
614.7308
20
388.65576
30
0.0
11
610.27277
21
387.98065
31
0.0
0
LINE
8
0
10
610.27277
20
387.98065
30
0.0
11
606.44464
21
388.19928
31
0.0
0
LINE
8
0
10
188.46469
20
162.4
30
0.0
11
215.93079
21
274.31848
31
0.0
0
LINE
8
0
10
215.93079
20
274.31848
30
0.0
11
258.38077
21
362.64703
31
0.0
0
LINE
8
0
10
258.38077
20
362.64703
30
0.0
11
309.1703
21
428.72116
31
0.0
0
LINE
8
0
10
309.1703
20
428.72116
30
0.0
11
363.0039
21
474.8156
31
0.0
0
LINE
8
0
10
363.0039
20
474.8156
30
0.0
11
415.87302
21
503.75034
31
0.0
0
LINE
8
0
10
415.87302
20
503.75034
30
0.0
11
464.93536
21
518.5738
31
0.0
0
LINE
8
0
10
464.93536
20
518.5738
30
0.0
11
508.35938
21
522.3205
31
0.0
0
LINE
8
0
10
508.35938
20
522.3205
30
0.0
11
545.15216
21
517.8364
31
0.0
0
LINE
8
0
10
545.15216
20
517.8364
30
0.0
11
574.98553
21
507.66373
31
0.0
0
LINE
8
0
10
574.98553
20
507.66373
30
0.0
11
598.03156
21
493.97534
31
0.0
0
LINE
8
0
10
598.03156
20
493.97534
30
0.0
11
614.8137
21
478.5495
31
0.0
0
LINE
8
0
10
614.8137
20
478.5495
30
0.0
11
626.07904
21
462.77435
31
0.0
0
LINE
8
0
10
626.07904
20
462.77435
30
0.0
11
632.69226
21
447.67435
31
0.0
0
LINE
8
0
10
632.69226
20
447.67435
30
0.0
11
635.5521
21
433.95062
31
0.0
0
LINE
8
0
10
635.5521
20
433.95062
30
0.0
11
635.52954
21
422.02924
31
0.0
0
LINE
8
0
10
635.52954
20
422.02924
30
0.0
11
633.4237
21
412.1124
31
0.0
0
LINE
8
0
10
633.4237
20
412.1124
30
0.0
11
629.9352
21
404.22842
31
0.0
0
LINE
8
0
10
629.9352
20
404.22842
30
0.0
11
625.65186
21
398.2782
31
0.0
0
LINE
8
0
10
625.65186
20
398.2782
30
0.0
11
621.0457
21
394.0764
31
0.0
0
LINE
8
0
10
621.0457
20
394.0764
30
0.0
11
616.47687
21
391.38608
31
0.0
0
LINE
8
0
10
616.47687
20
391.38608
30
0.0
11
612.2038
21
389.94708
31
0.0
0
LINE
8
0
10
612.2038
20
389.94708
30
0.0
11
608.39594
21
389.49765
31
0.0
0
LINE
8
0
10
235.97562
20
94.5473
30
0.0
11
243.59003
21
209.53496
31
0.0
0
LINE
8
0
10
243.59003
20
209.53496
30
0.0
11
270.05704
21
303.89288
31
0.0
0
LINE
8
0
10
270.05704
20
303.89288
30
0.0
11
308.6013
21
377.78278
31
0.0
0
LINE
8
0
10
308.6013
20
377.78278
30
0.0
11
353.61282
21
432.5251
31
0.0
0
LINE
8
0
10
353.61282
20
432.5251
30
0.0
11
400.65427
21
470.2008
31
0.0
0
LINE
8
0
10
400.65427
20
470.2008
30
0.0
11
446.39716
21
493.3187
31
0.0
0
LINE
8
0
10
446.39716
20
493.3187
30
0.0
11
488.5109
21
504.54898
31
0.0
0
LINE
8
0
10
488.5109
20
504.54898
30
0.0
11
525.5233
21
506.52203
31
0.0
0
LINE
8
0
10
525.5233
20
506.52203
30
0.0
11
556.67
21
501.68436
31
0.0
0
LINE
8
0
10
556.67
20
501.68436
30
0.0
11
581.7428
21
492.2058
31
0.0
0
LINE
8
0
10
581.7428
20
492.2058
30
0.0
11
600.94867
21
479.92853
31
0.0
0
LINE
8
0
10
600.94867
20
479.92853
30
0.0
11
614.7822
21
466.34924
31
0.0
0
LINE
8
0
10
614.7822
20
466.34924
30
0.0
11
623.917
21
452.627
31
0.0
0
LINE
8
0
10
623.917
20
452.627
30
0.0
11
629.1166
21
439.6084
31
0.0
0
LINE
8
0
10
629.1166
20
439.6084
30
0.0
11
631.1644
21
427.8642
31
0.0
0
LINE
8
0
10
631.1644
20
427.8642
30
0.0
11
630.8126
21
417.73236
31
0.0
0
LINE
8
0
10
630.8126
20
417.73236
30
0.0
11
628.74615
21
409.36237
31
0.0
0
LINE
8
0
10
628.74615
20
409.36237
30
0.0
11
625.56116
21
402.75876
31
0.0
0
LINE
8
0
10
625.56116
20
402.75876
30
0.0
11
621.7546
21
397.82092
31
0.0
0
LINE
8
0
10
621.7546
20
397.82092
30
0.0
11
617.72235
21
394.37814
31
0.0
0
LINE
8
0
10
617.72235
20
394.37814
30
0.0
11
613.7641
21
392.219
31
0.0
0
LINE
8
0
10
613.7641
20
392.219
30
0.0
11
610.0921
21
391.11514
31
0.0
0
LINE
8
0
10
294.54733
20
35.975586
30
0.0
11
282.07858
21
150.53864
31
0.0
0
LINE
8
0
10
282.07858
20
150.53864
30
0.0
11
291.75842
21
248.05899
31
0.0
0
LINE
8
0
10
291.75842
20
248.05899
30
0.0
11
316.88626
21
327.51947
31
0.0
0
LINE
8
0
10
316.88626
20
327.51947
30
0.0
11
351.70807
21
389.24628
31
0.0
0
LINE
8
0
10
351.70807
20
389.24628
30
0.0
11
391.49252
21
434.5183
31
0.0
0
LINE
8
0
10
391.49252
20
434.5183
30
0.0
11
432.52612
21
465.22812
31
0.0
0
LINE
8
0
10
432.52612
20
465.22812
30
0.0
11
472.04993
21
483.60077
31
0.0
0
LINE
8
0
10
472.04993
20
483.60077
30
0.0
11
508.15747
21
491.971
31
0.0
0
LINE
8
0
10
508.15747
20
491.971
30
0.0
11
539.67096
21
492.61536
31
0.0
0
LINE
8
0
10
539.67096
20
492.61536
30
0.0
11
566.0088
21
487.63467
31
0.0
0
LINE
8
0
10
566.0088
20
487.63467
30
0.0
11
587.0549
21
478.87897
31
0.0
0
LINE
8
0
10
587.0549
20
478.87897
30
0.0
11
603.0362
21
467.90817
31
0.0
0
LINE
8
0
10
603.0362
20
467.90817
30
0.0
11
614.4151
21
455.98065
31
0.0
0
LINE
8
0
10
614.4151
20
455.98065
30
0.0
11
621.7963
21
444.06268
31
0.0
0
LINE
8
0
10
621.7963
20
444.06268
30
0.0
11
625.8524
21
432.85254
31
0.0
0
LINE
8
0
10
625.8524
20
432.85254
30
0.0
11
627.2653
21
422.8135
31
0.0
0
LINE
8
0
10
627.2653
20
422.8135
30
0.0
11
626.68365
21
414.21185
31
0.0
0
LINE
8
0
10
626.68365
20
414.21185
30
0.0
11
624.6938
21
407.1555
31
0.0
0
LINE
8
0
10
624.6938
20
407.1555
30
0.0
11
621.8025
21
401.63168
31
0.0
0
LINE
8
0
10
621.8025
20
401.63168
30
0.0
11
618.4293
21
397.541
31
0.0
0
LINE
8
0
10
618.4293
20
397.541
30
0.0
11
614.9061
21
394.7273
31
0.0
0
LINE
8
0
10
614.9061
20
394.7273
30
0.0
11
611.4816
21
393.0026
31
0.0
0
LINE
8
0
10
362.40002
20
-11.535339
30
0.0
11
330.22708
21
99.12198
31
0.0
0
LINE
8
0
10
330.22708
20
99.12198
30
0.0
11
322.82556
21
196.84174
31
0.0
0
LINE
8
0
10
322.82556
20
196.84174
30
0.0
11
333.7735
21
279.45844
31
0.0
0
LINE
8
0
10
333.7735
20
279.45844
30
0.0
11
357.34753
21
346.29422
31
0.0
0
LINE
8
0
10
357.34753
20
346.29422
30
0.0
11
388.6662
21
397.78696
31
0.0
0
LINE
8
0
10
388.6662
20
397.78696
30
0.0
11
423.74368
21
435.15558
31
0.0
0
LINE
8
0
10
423.74368
20
435.15558
30
0.0
11
459.47662
21
460.1124
31
0.0
0
LINE
8
0
10
459.47662
20
460.1124
30
0.0
11
493.58215
21
474.62546
31
0.0
0
LINE
8
0
10
493.58215
20
474.62546
30
0.0
11
524.505
21
480.7323
31
0.0
0
LINE
8
0
10
524.505
20
480.7323
30
0.0
11
551.3076
21
480.40082
31
0.0
0
LINE
8
0
10
551.3076
20
480.40082
30
0.0
11
573.5543
21
475.43274
31
0.0
0
LINE
8
0
10
573.5543
20
475.43274
30
0.0
11
591.198
21
467.40375
31
0.0
0
LINE
8
0
10
591.198
20
467.40375
30
0.0
11
604.47516
21
457.63333
31
0.0
0
LINE
8
0
10
604.47516
20
457.63333
30
0.0
11
613.8138
21
447.17816
31
0.0
0
LINE
8
0
10
613.8138
20
447.17816
30
0.0
11
619.7549
21
436.84265
31
0.0
0
LINE
8
0
10
619.7549
20
436.84265
30
0.0
11
622.8896
21
427.2015
31
0.0
0
LINE
8
0
10
622.8896
20
427.2015
30
0.0
11
623.8104
21
418.62952
31
0.0
0
LINE
8
0
10
623.8104
20
418.62952
30
0.0
11
623.07605
21
411.3348
31
0.0
0
LINE
8
0
10
623.07605
20
411.3348
30
0.0
11
621.1879
21
405.39285
31
0.0
0
LINE
8
0
10
621.1879
20
405.39285
30
0.0
11
618.57635
21
400.77856
31
0.0
0
LINE
8
0
10
618.57635
20
400.77856
30
0.0
11
615.5953
21
397.39584
31
0.0
0
LINE
8
0
10
615.5953
20
397.39584
30
0.0
11
612.5223
21
395.10266
31
0.0
0
LINE
8
0
10
437.47205
20
-46.541992
30
0.0
11
386.5724
21
56.847473
31
0.0
0
LINE
8
0
10
386.5724
20
56.847473
30
0.0
11
362.3145
21
151.79733
31
0.0
0
LINE
8
0
10
362.3145
20
151.79733
30
0.0
11
358.7499
21
235.06
31
0.0
0
LINE
8
0
10
358.7499
20
235.06
30
0.0
11
370.3599
21
304.97397
31
0.0
0
LINE
8
0
10
370.3599
20
304.97397
30
0.0
11
392.2611
21
361.1228
31
0.0
0
LINE
8
0
10
392.2611
20
361.1228
30
0.0
11
420.3167
21
404.01492
31
0.0
0
LINE
8
0
10
420.3167
20
404.01492
30
0.0
11
451.1731
21
434.79752
31
0.0
0
LINE
8
0
10
451.1731
20
434.79752
30
0.0
11
482.2403
21
455.01248
31
0.0
0
LINE
8
0
10
482.2403
20
455.01248
30
0.0
11
511.63293
21
466.39624
31
0.0
0
LINE
8
0
10
511.63293
20
466.39624
30
0.0
11
538.08594
21
470.724
31
0.0
0
LINE
8
0
10
538.08594
20
470.724
30
0.0
11
560.85736
21
469.6945
31
0.0
0
LINE
8
0
10
560.85736
20
469.6945
30
0.0
11
579.6272
21
464.85126
31
0.0
0
LINE
8
0
10
579.6272
20
464.85126
30
0.0
11
594.39923
21
457.53485
31
0.0
0
LINE
8
0
10
594.39923
20
457.53485
30
0.0
11
605.4115
21
448.86014
31
0.0
0
LINE
8
0
10
605.4115
20
448.86014
30
0.0
11
613.0571
21
439.71332
31
0.0
0
LINE
8
0
10
613.0571
20
439.71332
30
0.0
11
617.81836
21
430.763
31
0.0
0
LINE
8
0
10
617.81836
20
430.763
30
0.0
11
620.21375
21
422.48114
31
0.0
0
LINE
8
0
10
620.21375
20
422.48114
30
0.0
11
620.7572
21
415.16974
31
0.0
0
LINE
8
0
10
620.7572
20
415.16974
30
0.0
11
619.92957
21
408.99014
31
0.0
0
LINE
8
0
10
619.92957
20
408.99014
30
0.0
11
618.15894
21
403.9925
31
0.0
0
LINE
8
0
10
618.15894
20
403.9925
30
0.0
11
615.81055
21
400.1435
31
0.0
0
LINE
8
0
10
615.81055
20
400.1435
30
0.0
11
613.18243
21
397.35153
31
0.0
0
LINE
8
0
10
517.4824
20
-67.98071
30
0.0
11
449.40262
21
24.99942
31
0.0
0
LINE
8
0
10
449.40262
20
24.99942
30
0.0
11
409.02545
21
114.294464
31
0.0
0
LINE
8
0
10
409.02545
20
114.294464
30
0.0
11
391.05655
21
195.67316
31
0.0
0
LINE
8
0
10
391.05655
20
195.67316
30
0.0
11
390.34973
21
266.54108
31
0.0
0
LINE
8
0
10
390.34973
20
266.54108
30
0.0
11
402.1681
21
325.63995
31
0.0
0
LINE
8
0
10
402.1681
20
325.63995
30
0.0
11
422.3493
21
372.75226
31
0.0
0
LINE
8
0
10
422.3493
20
372.75226
30
0.0
11
447.3916
21
408.42535
31
0.0
0
LINE
8
0
10
447.3916
20
408.42535
30
0.0
11
474.47653
21
433.72797
31
0.0
0
LINE
8
0
10
474.47653
20
433.72797
30
0.0
11
501.44583
21
450.04276
31
0.0
0
LINE
8
0
10
501.44583
20
450.04276
30
0.0
11
526.7454
21
458.8983
31
0.0
0
LINE
8
0
10
526.7454
20
458.8983
30
0.0
11
549.34973
21
461.83862
31
0.0
0
LINE
8
0
10
549.34973
20
461.83862
30
0.0
11
568.67535
21
460.3283
31
0.0
0
LINE
8
0
10
568.67535
20
460.3283
30
0.0
11
584.4935
21
455.6882
31
0.0
0
LINE
8
0
10
584.4935
20
455.6882
30
0.0
11
596.84485
21
449.05756
31
0.0
0
LINE
8
0
10
596.84485
20
449.05756
30
0.0
11
605.9626
21
441.37732
31
0.0
0
LINE
8
0
10
605.9626
20
441.37732
30
0.0
11
612.20575
21
433.38977
31
0.0
0
LINE
8
0
10
612.20575
20
433.38977
30
0.0
11
616.0028
21
425.64966
31
0.0
0
LINE
8
0
10
616.0028
20
425.64966
30
0.0
11
617.8077
21
418.54373
31
0.0
0
LINE
8
0
10
617.8077
20
418.54373
30
0.0
11
618.0657
21
412.3143
31
0.0
0
LINE
8
0
10
618.0657
20
412.3143
30
0.0
11
617.18976
21
407.0851
31
0.0
0
LINE
8
0
10
617.18976
20
407.0851
30
0.0
11
615.5455
21
402.88678
31
0.0
0
LINE
8
0
10
615.5455
20
402.88678
30
0.0
11
613.4421
21
399.68085
31
0.0
0
LINE
8
0
10
600.0
20
-75.20004
30
0.0
11
516.8089
21
4.5455017
31
0.0
0
LINE
8
0
10
516.8089
20
4.5455017
30
0.0
11
461.539
21
85.472595
31
0.0
0
LINE
8
0
10
461.539
20
85.472595
30
0.0
11
429.7119
21
162.49467
31
0.0
0
LINE
8
0
10
429.7119
20
162.49467
30
0.0
11
416.70972
21
232.16318
31
0.0
0
LINE
8
0
10
416.70972
20
232.16318
30
0.0
11
418.0861
21
292.4165
31
0.0
0
LINE
8
0
10
418.0861
20
292.4165
30
0.0
11
429.77975
21
342.3175
31
0.0
0
LINE
8
0
10
429.77975
20
342.3175
30
0.0
11
448.247
21
381.7972
31
0.0
0
LINE
8
0
10
448.247
20
381.7972
30
0.0
11
470.52673
21
411.41864
31
0.0
0
LINE
8
0
10
470.52673
20
411.41864
30
0.0
11
494.25327
21
432.16873
31
0.0
0
LINE
8
0
10
494.25327
20
432.16873
30
0.0
11
517.63074
21
445.28296
31
0.0
0
LINE
8
0
10
517.63074
20
445.28296
30
0.0
11
539.38104
21
452.10382
31
0.0
0
LINE
8
0
10
539.38104
20
452.10382
30
0.0
11
558.67535
21
453.97235
31
0.0
0
LINE
8
0
10
558.67535
20
453.97235
30
0.0
11
575.05896
21
452.1495
31
0.0
0
LINE
8
0
10
575.05896
20
452.1495
30
0.0
11
588.374
21
447.76437
31
0.0
0
LINE
8
0
10
588.374
20
447.76437
30
0.0
11
598.6869
21
441.78412
31
0.0
0
LINE
8
0
10
598.6869
20
441.78412
30
0.0
11
606.2222
21
435.002
31
0.0
0
LINE
8
0
10
606.2222
20
435.002
30
0.0
11
611.30566
21
428.03885
31
0.0
0
LINE
8
0
10
611.30566
20
428.03885
30
0.0
11
614.3171
21
421.35428
31
0.0
0
LINE
8
0
10
614.3171
20
421.35428
30
0.0
11
615.65283
21
415.26428
31
0.0
0
LINE
8
0
10
615.65283
20
415.26428
30
0.0
11
615.6983
21
409.96243
31
0.0
0
LINE
8
0
10
615.6983
20
409.96243
30
0.0
11
614.808
21
405.54236
31
0.0
0
LINE
8
0
10
614.808
20
405.54236
30
0.0
11
613.2933
21
402.0199
31
0.0
0
LINE
8
0
10
682.5176
20
-67.98068
30
0.0
11
586.7427
21
-3.8926086
31
0.0
0
LINE
8
0
10
586.7427
20
-3.8926086
30
0.0
11
518.25964
21
66.20746
31
0.0
0
LINE
8
0
10
518.25964
20
66.20746
30
0.0
11
473.54132
21
136.53271
31
0.0
0
LINE
8
0
10
473.54132
20
136.53271
30
0.0
11
448.63882
21
202.88501
31
0.0
0
LINE
8
0
10
448.63882
20
202.88501
30
0.0
11
439.53143
21
262.4619
31
0.0
0
LINE
8
0
10
439.53143
20
262.4619
30
0.0
11
442.38226
21
313.6354
31
0.0
0
LINE
8
0
10
442.38226
20
313.6354
30
0.0
11
453.71338
21
355.7221
31
0.0
0
LINE
8
0
10
453.71338
20
355.7221
30
0.0
11
470.51086
21
388.76233
31
0.0
0
LINE
8
0
10
470.51086
20
388.76233
30
0.0
11
490.27374
21
413.3173
31
0.0
0
LINE
8
0
10
490.27374
20
413.3173
30
0.0
11
511.01883
21
430.29175
31
0.0
0
LINE
8
0
10
511.01883
20
430.29175
30
0.0
11
531.2542
21
440.7859
31
0.0
0
LINE
8
0
10
531.2542
20
440.7859
30
0.0
11
549.93097
21
445.97644
31
0.0
0
LINE
8
0
10
549.93097
20
445.97644
30
0.0
11
566.3822
21
447.02628
31
0.0
0
LINE
8
0
10
566.3822
20
447.02628
30
0.0
11
580.2565
21
445.0199
31
0.0
0
LINE
8
0
10
580.2565
20
445.0199
30
0.0
11
591.4511
21
440.9213
31
0.0
0
LINE
8
0
10
591.4511
20
440.9213
30
0.0
11
600.0497
21
435.55072
31
0.0
0
LINE
8
0
10
600.0497
20
435.55072
30
0.0
11
606.265
21
429.57608
31
0.0
0
LINE
8
0
10
606.265
20
429.57608
30
0.0
11
610.3914
21
423.516
31
0.0
0
LINE
8
0
10
610.3914
20
423.516
30
0.0
11
612.7644
21
417.7505
31
0.0
0
LINE
8
0
10
612.7644
20
417.7505
30
0.0
11
613.72986
21
412.53708
31
0.0
0
LINE
8
0
10
613.72986
20
412.53708
30
0.0
11
613.6206
21
408.02954
31
0.0
0
LINE
8
0
10
613.6206
20
408.02954
30
0.0
11
612.74054
21
404.29758
31
0.0
0
LINE
8
0
10
762.52795
20
-46.54196
30
0.0
11
657.0793
21
-0.058685303
31
0.0
0
LINE
8
0
10
657.0793
20
-0.058685303
30
0.0
11
577.4639
21
57.084442
31
0.0
0
LINE
8
0
10
577.4639
20
57.084442
30
0.0
11
521.21313
21
118.57605
31
0.0
0
LINE
8
0
10
521.21313
20
118.57605
30
0.0
11
485.167
21
179.59604
31
0.0
0
LINE
8
0
10
485.167
20
179.59604
30
0.0
11
465.85254
21
236.68639
31
0.0
0
LINE
8
0
10
465.85254
20
236.68639
30
0.0
11
459.77386
21
287.57742
31
0.0
0
LINE
8
0
10
459.77386
20
287.57742
30
0.0
11
463.62457
21
330.99237
31
0.0
0
LINE
8
0
10
463.62457
20
330.99237
30
0.0
11
474.4295
21
366.4475
31
0.0
0
LINE
8
0
10
474.4295
20
366.4475
30
0.0
11
489.6282
21
394.0612
31
0.0
0
LINE
8
0
10
489.6282
20
394.0612
30
0.0
11
507.11053
21
414.38013
31
0.0
0
LINE
8
0
10
507.11053
20
414.38013
30
0.0
11
525.21625
21
428.2287
31
0.0
0
LINE
8
0
10
525.21625
20
428.2287
30
0.0
11
542.70795
21
436.58356
31
0.0
0
LINE
8
0
10
542.70795
20
436.58356
30
0.0
11
558.7269
21
440.47418
31
0.0
0
LINE
8
0
10
558.7269
20
440.47418
30
0.0
11
572.7388
21
440.9075
31
0.0
0
LINE
8
0
10
572.7388
20
440.9075
30
0.0
11
584.4751
21
438.81512
31
0.0
0
LINE
8
0
10
584.4751
20
438.81512
30
0.0
11
593.8756
21
435.01926
31
0.0
0
LINE
8
0
10
593.8756
20
435.01926
30
0.0
11
601.034
21
430.21466
31
0.0
0
LINE
8
0
10
601.034
20
430.21466
30
0.0
11
606.15
21
424.96317
31
0.0
0
LINE
8
0
10
606.15
20
424.96317
30
0.0
11
609.48816
21
419.69733
31
0.0
0
LINE
8
0
10
609.48816
20
419.69733
30
0.0
11
611.34424
21
414.73077
31
0.0
0
LINE
8
0
10
611.34424
20
414.73077
30
0.0
11
612.01935
21
410.27274
31
0.0
0
LINE
8
0
10
612.01935
20
410.27274
30
0.0
11
611.8007
21
406.44464
31
0.0
0
LINE
8
0
10
837.6
20
-11.535339
30
0.0
11
725.6816
21
15.930817
31
0.0
0
LINE
8
0
10
725.6816
20
15.930817
30
0.0
11
637.3529
21
58.380768
31
0.0
0
LINE
8
0
10
637.3529
20
58.380768
30
0.0
11
571.2788
21
109.17029
31
0.0
0
LINE
8
0
10
571.2788
20
109.17029
30
0.0
11
525.18445
21
163.00389
31
0.0
0
LINE
8
0
10
525.18445
20
163.00389
30
0.0
11
496.24966
21
215.87303
31
0.0
0
LINE
8
0
10
496.24966
20
215.87303
30
0.0
11
481.42618
21
264.93536
31
0.0
0
LINE
8
0
10
481.42618
20
264.93536
30
0.0
11
477.67947
21
308.3594
31
0.0
0
LINE
8
0
10
477.67947
20
308.3594
30
0.0
11
482.16354
21
345.15216
31
0.0
0
LINE
8
0
10
482.16354
20
345.15216
30
0.0
11
492.33627
21
374.98557
31
0.0
0
LINE
8
0
10
492.33627
20
374.98557
30
0.0
11
506.02466
21
398.0316
31
0.0
0
LINE
8
0
10
506.02466
20
398.0316
30
0.0
11
521.4505
21
414.81378
31
0.0
0
LINE
8
0
10
521.4505
20
414.81378
30
0.0
11
537.22565
21
426.0791
31
0.0
0
LINE
8
0
10
537.22565
20
426.0791
30
0.0
11
552.3257
21
432.6923
31
0.0
0
LINE
8
0
10
552.3257
20
432.6923
30
0.0
11
566.04944
21
435.5522
31
0.0
0
LINE
8
0
10
566.04944
20
435.5522
30
0.0
11
577.97076
21
435.52957
31
0.0
0
LINE
8
0
10
577.97076
20
435.52957
30
0.0
11
587.88763
21
433.42374
31
0.0
0
LINE
8
0
10
587.88763
20
433.42374
30
0.0
11
595.7716
21
429.9352
31
0.0
0
LINE
8
0
10
595.7716
20
429.9352
30
0.0
11
601.7218
21
425.6519
31
0.0
0
LINE
8
0
10
601.7218
20
425.6519
30
0.0
11
605.92365
21
421.0457
31
0.0
0
LINE
8
0
10
605.92365
20
421.0457
30
0.0
11
608.61395
21
416.4769
31
0.0
0
LINE
8
0
10
608.61395
20
416.4769
30
0.0
11
610.0529
21
412.20383
31
0.0
0
LINE
8
0
10
610.0529
20
412.20383
30
0.0
11
610.5024
21
408.3959
31
0.0
0
LINE
8
0
10
905.45264
20
35.975616
30
0.0
11
790.4651
21
43.590057
31
0.0
0
LINE
8
0
10
790.4651
20
43.590057
30
0.0
11
696.107
21
70.05698
31
0.0
0
LINE
8
0
10
696.107
20
70.05698
30
0.0
11
622.2172
21
108.60129
31
0.0
0
LINE
8
0
10
622.2172
20
108.60129
30
0.0
11
567.475
21
153.61281
31
0.0
0
LINE
8
0
10
567.475
20
153.61281
30
0.0
11
529.7992
21
200.65427
31
0.0
0
LINE
8
0
10
529.7992
20
200.65427
30
0.0
11
506.68134
21
246.39717
31
0.0
0
LINE
8
0
10
506.68134
20
246.39717
30
0.0
11
495.45102
21
288.5109
31
0.0
0
LINE
8
0
10
495.45102
20
288.5109
30
0.0
11
493.47797
21
325.52335
31
0.0
0
LINE
8
0
10
493.47797
20
325.52335
30
0.0
11
498.3156
21
356.66998
31
0.0
0
LINE
8
0
10
498.3156
20
356.66998
30
0.0
11
507.79416
21
381.74286
31
0.0
0
LINE
8
0
10
507.79416
20
381.74286
30
0.0
11
520.0715
21
400.94873
31
0.0
0
LINE
8
0
10
520.0715
20
400.94873
30
0.0
11
533.65076
21
414.78226
31
0.0
0
LINE
8
0
10
533.65076
20
414.78226
30
0.0
11
547.373
21
423.91705
31
0.0
0
LINE
8
0
10
547.373
20
423.91705
30
0.0
11
560.39166
21
429.1166
31
0.0
0
LINE
8
0
10
560.39166
20
429.1166
30
0.0
11
572.1358
21
431.16446
31
0.0
0
LINE
8
0
10
572.1358
20
431.16446
30
0.0
11
582.2677
21
430.81265
31
0.0
0
LINE
8
0
10
582.2677
20
430.81265
30
0.0
11
590.63763
21
428.74615
31
0.0
0
LINE
8
0
10
590.63763
20
428.74615
30
0.0
11
597.2413
21
425.56116
31
0.0
0
LINE
8
0
10
597.2413
20
425.56116
30
0.0
11
602.1791
21
421.75458
31
0.0
0
LINE
8
0
10
602.1791
20
421.75458
30
0.0
11
605.6219
21
417.72235
31
0.0
0
LINE
8
0
10
605.6219
20
417.72235
30
0.0
11
607.781
21
413.7641
31
0.0
0
LINE
8
0
10
607.781
20
413.7641
30
0.0
11
608.8849
21
410.09207
31
0.0
0
LINE
8
0
10
964.0243
20
94.54724
30
0.0
11
849.4614
21
82.07861
31
0.0
0
LINE
8
0
10
849.4614
20
82.07861
30
0.0
11
751.9409
21
91.75836
31
0.0
0
LINE
8
0
10
751.9409
20
91.75836
30
0.0
11
672.4805
21
116.88626
31
0.0
0
LINE
8
0
10
672.4805
20
116.88626
30
0.0
11
610.7538
21
151.70808
31
0.0
0
LINE
8
0
10
610.7538
20
151.70808
30
0.0
11
565.4817
21
191.49252
31
0.0
0
LINE
8
0
10
565.4817
20
191.49252
30
0.0
11
534.7719
21
232.52614
31
0.0
0
LINE
8
0
10
534.7719
20
232.52614
30
0.0
11
516.3992
21
272.04993
31
0.0
0
LINE
8
0
10
516.3992
20
272.04993
30
0.0
11
508.029
21
308.15747
31
0.0
0
LINE
8
0
10
508.029
20
308.15747
30
0.0
11
507.3846
21
339.67096
31
0.0
0
LINE
8
0
10
507.3846
20
339.67096
30
0.0
11
512.3653
21
366.00882
31
0.0
0
LINE
8
0
10
512.3653
20
366.00882
30
0.0
11
521.12103
21
387.05487
31
0.0
0
LINE
8
0
10
521.12103
20
387.05487
30
0.0
11
532.09186
21
403.03625
31
0.0
0
LINE
8
0
10
532.09186
20
403.03625
30
0.0
11
544.01935
21
414.41513
31
0.0
0
LINE
8
0
10
544.01935
20
414.41513
30
0.0
11
555.9373
21
421.79633
31
0.0
0
LINE
8
0
10
555.9373
20
421.79633
30
0.0
11
567.14746
21
425.85245
31
0.0
0
LINE
8
0
10
567.14746
20
425.85245
30
0.0
11
577.1865
21
427.26538
31
0.0
0
LINE
8
0
10
577.1865
20
427.26538
30
0.0
11
585.78815
21
426.6837
31
0.0
0
LINE
8
0
10
585.78815
20
426.6837
30
0.0
11
592.84454
21
424.6938
31
0.0
0
LINE
8
0
10
592.84454
20
424.6938
30
0.0
11
598.36835
21
421.80246
31
0.0
0
LINE
8
0
10
598.36835
20
421.80246
30
0.0
11
602.45905
21
418.42935
31
0.0
0
LINE
8
0
10
602.45905
20
418.42935
30
0.0
11
605.2727
21
414.90613
31
0.0
0
LINE
8
0
10
605.2727
20
414.90613
30
0.0
11
606.99744
21
411.4816
31
0.0
0
LINE
8
0
10
1011.5353
20
162.39989
30
0.0
11
900.87805
21
130.22705
31
0.0
0
LINE
8
0
10
900.87805
20
130.22705
30
0.0
11
803.1583
21
122.82562
31
0.0
0
LINE
8
0
10
803.1583
20
122.82562
30
0.0
11
720.54156
21
133.7735
31
0.0
0
LINE
8
0
10
720.54156
20
133.7735
30
0.0
11
653.7058
21
157.34756
31
0.0
0
LINE
8
0
10
653.7058
20
157.34756
30
0.0
11
602.213
21
188.6662
31
0.0
0
LINE
8
0
10
602.213
20
188.6662
30
0.0
11
564.8444
21
223.74368
31
0.0
0
LINE
8
0
10
564.8444
20
223.74368
30
0.0
11
539.88763
21
259.47662
31
0.0
0
LINE
8
0
10
539.88763
20
259.47662
30
0.0
11
525.3745
21
293.58215
31
0.0
0
LINE
8
0
10
525.3745
20
293.58215
30
0.0
11
519.2677
21
324.505
31
0.0
0
LINE
8
0
10
519.2677
20
324.505
30
0.0
11
519.5992
21
351.30762
31
0.0
0
LINE
8
0
10
519.5992
20
351.30762
30
0.0
11
524.56726
21
373.55435
31
0.0
0
LINE
8
0
10
524.56726
20
373.55435
30
0.0
11
532.59625
21
391.198
31
0.0
0
LINE
8
0
10
532.59625
20
391.198
30
0.0
11
542.3667
21
404.4752
31
0.0
0
LINE
8
0
10
542.3667
20
404.4752
30
0.0
11
552.82184
21
413.8138
31
0.0
0
LINE
8
0
10
552.82184
20
413.8138
30
0.0
11
563.15735
21
419.7549
31
0.0
0
LINE
8
0
10
563.15735
20
419.7549
30
0.0
11
572.7985
21
422.88962
31
0.0
0
LINE
8
0
10
572.7985
20
422.88962
30
0.0
11
581.3705
21
423.81046
31
0.0
0
LINE
8
0
10
581.3705
20
423.81046
30
0.0
11
588.6652
21
423.07608
31
0.0
0
LINE
8
0
10
588.6652
20
423.07608
30
0.0
11
594.6072
21
421.18793
31
0.0
0
LINE
8
0
10
594.6072
20
421.18793
30
0.0
11
599.22144
21
418.57635
31
0.0
0
LINE
8
0
10
599.22144
20
418.57635
30
0.0
11
602.6042
21
415.59528
31
0.0
0
LINE
8
0
10
602.6042
20
415.59528
30
0.0
11
604.89734
21
412.52225
31
0.0
0
LINE
8
0
10
1046.542
20
237.47191
30
0.0
11
943.1526
21
186.57245
31
0.0
0
LINE
8
0
10
943.1526
20
186.57245
30
0.0
11
848.2027
21
162.31456
31
0.0
0
LINE
8
0
10
848.2027
20
162.31456
30
0.0
11
764.94
21
158.7499
31
0.0
0
LINE
8
0
10
764.94
20
158.7499
30
0.0
11
695.02606
21
170.35992
31
0.0
0
LINE
8
0
10
695.02606
20
170.35992
30
0.0
11
638.87714
21
192.26111
31
0.0
0
LINE
8
0
10
638.87714
20
192.26111
30
0.0
11
595.98505
21
220.31673
31
0.0
0
LINE
8
0
10
595.98505
20
220.31673
30
0.0
11
565.2025
21
251.17311
31
0.0
0
LINE
8
0
10
565.2025
20
251.17311
30
0.0
11
544.98755
21
282.24033
31
0.0
0
LINE
8
0
10
544.98755
20
282.24033
30
0.0
11
533.60376
21
311.6329
31
0.0
0
LINE
8
0
10
533.60376
20
311.6329
30
0.0
11
529.276
21
338.0859
31
0.0
0
LINE
8
0
10
529.276
20
338.0859
30
0.0
11
530.3055
21
360.85736
31
0.0
0
LINE
8
0
10
530.3055
20
360.85736
30
0.0
11
535.14874
21
379.6272
31
0.0
0
LINE
8
0
10
535.14874
20
379.6272
30
0.0
11
542.46515
21
394.3993
31
0.0
0
LINE
8
0
10
542.46515
20
394.3993
30
0.0
11
551.13983
21
405.41153
31
0.0
0
LINE
8
0
10
551.13983
20
405.41153
30
0.0
11
560.2867
21
413.05713
31
0.0
0
LINE
8
0
10
560.2867
20
413.05713
30
0.0
11
569.237
21
417.8184
31
0.0
0
LINE
8
0
10
569.237
20
417.8184
30
0.0
11
577.5189
21
420.21375
31
0.0
0
LINE
8
0
10
577.5189
20
420.21375
30
0.0
11
584.83026
21
420.75723
31
0.0
0
LINE
8
0
10
584.83026
20
420.75723
30
0.0
11
591.0099
21
419.92957
31
0.0
0
LINE
8
0
10
591.0099
20
419.92957
30
0.0
11
596.0075
21
418.15897
31
0.0
0
LINE
8
0
10
596.0075
20
418.15897
30
0.0
11
599.8565
21
415.81055
31
0.0
0
LINE
8
0
10
599.8565
20
415.81055
30
0.0
11
602.6485
21
413.18243
31
0.0
0
LINE
8
0
10
1067.9807
20
317.48224
30
0.0
11
975.0006
21
249.40268
31
0.0
0
LINE
8
0
10
975.0006
20
249.40268
30
0.0
11
885.70557
21
209.02548
31
0.0
0
LINE
8
0
10
885.70557
20
209.02548
30
0.0
11
804.32684
21
191.05655
31
0.0
0
LINE
8
0
10
804.32684
20
191.05655
30
0.0
11
733.459
21
190.34976
31
0.0
0
LINE
8
0
10
733.459
20
190.34976
30
0.0
11
674.36
21
202.16808
31
0.0
0
LINE
8
0
10
674.36
20
202.16808
30
0.0
11
627.24774
21
222.34932
31
0.0
0
LINE
8
0
10
627.24774
20
222.34932
30
0.0
11
591.57465
21
247.39159
31
0.0
0
LINE
8
0
10
591.57465
20
247.39159
30
0.0
11
566.27203
21
274.47653
31
0.0
0
LINE
8
0
10
566.27203
20
274.47653
30
0.0
11
549.9573
21
301.44583
31
0.0
0
LINE
8
0
10
549.9573
20
301.44583
30
0.0
11
541.1017
21
326.74545
31
0.0
0
LINE
8
0
10
541.1017
20
326.74545
30
0.0
11
538.1614
21
349.3497
31
0.0
0
LINE
8
0
10
538.1614
20
349.3497
30
0.0
11
539.6717
21
368.67538
31
0.0
0
LINE
8
0
10
539.6717
20
368.67538
30
0.0
11
544.31177
21
384.49353
31
0.0
0
LINE
8
0
10
544.31177
20
384.49353
30
0.0
11
550.94244
21
396.84485
31
0.0
0
LINE
8
0
10
550.94244
20
396.84485
30
0.0
11
558.6227
21
405.96262
31
0.0
0
LINE
8
0
10
558.6227
20
405.96262
30
0.0
11
566.6102
21
412.20575
31
0.0
0
LINE
8
0
10
566.6102
20
412.20575
30
0.0
11
574.35034
21
416.00284
31
0.0
0
LINE
8
0
10
574.35034
20
416.00284
30
0.0
11
581.4563
21
417.8077
31
0.0
0
LINE
8
0
10
581.4563
20
417.8077
30
0.0
11
587.6857
21
418.06567
31
0.0
0
LINE
8
0
10
587.6857
20
418.06567
30
0.0
11
592.9149
21
417.1898
31
0.0
0
LINE
8
0
10
592.9149
20
417.1898
30
0.0
11
597.1132
21
415.54544
31
0.0
0
LINE
8
0
10
597.1132
20
415.54544
30
0.0
11
600.31915
21
413.44208
31
0.0
0
ENDSEC
0
EOF
