0
SECTION
2
ENTITIES
0
LINE
8
0
10
1075.2001
20
400.0
30
0.0
11
997.42017
21
473.22708
31
0.0
0
LINE
8
0
10
997.42017
20
473.22708
30
0.0
11
921.08704
21
522.48285
31
0.0
0
LINE
8
0
10
921.08704
20
522.48285
30
0.0
11
849.65784
21
551.9137
31
0.0
0
LINE
8
0
10
849.65784
20
551.9137
30
0.0
11
785.38477
21
565.5204
31
0.0
0
LINE
8
0
10
785.38477
20
565.5204
30
0.0
11
729.53503
21
566.9956
31
0.0
0
LINE
8
0
10
729.53503
20
566.9956
30
0.0
11
682.5994
21
559.6231
31
0.0
0
LINE
8
0
10
682.5994
20
559.6231
30
0.0
11
644.4822
21
546.2247
31
0.0
0
LINE
8
0
10
644.4822
20
546.2247
30
0.0
11
614.6686
21
529.14545
31
0.0
0
LINE
8
0
10
614.6686
20
529.14545
30
0.0
11
592.36664
21
510.26755
31
0.0
0
LINE
8
0
10
592.36664
20
510.26755
30
0.0
11
576.62415
21
491.04288
31
0.0
0
LINE
8
0
10
576.62415
20
491.04288
30
0.0
11
566.4208
21
472.539
31
0.0
0
LINE
8
0
10
566.4208
20
472.539
30
0.0
11
560.7389
21
455.49146
31
0.0
0
LINE
8
0
10
560.7389
20
455.49146
30
0.0
11
558.614
21
440.3587
31
0.0
0
LINE
8
0
10
558.614
20
440.3587
30
0.0
11
559.1688
21
427.37537
31
0.0
0
LINE
8
0
10
1067.9807
20
482.51764
30
0.0
11
978.66675
21
541.1259
31
0.0
0
LINE
8
0
10
978.66675
20
541.1259
30
0.0
11
894.9401
21
576.37823
31
0.0
0
LINE
8
0
10
894.9401
20
576.37823
30
0.0
11
819.4854
21
592.95844
31
0.0
0
LINE
8
0
10
819.4854
20
592.95844
30
0.0
11
753.82605
21
595.1975
31
0.0
0
LINE
8
0
10
753.82605
20
595.1975
30
0.0
11
698.56866
21
586.95215
31
0.0
0
LINE
8
0
10
698.56866
20
586.95215
30
0.0
11
653.6263
21
571.5413
31
0.0
0
LINE
8
0
10
653.6263
20
571.5413
30
0.0
11
618.41473
21
551.7274
31
0.0
0
LINE
8
0
10
618.41473
20
551.7274
30
0.0
11
592.01984
21
529.7306
31
0.0
0
LINE
8
0
10
592.01984
20
529.7306
30
0.0
11
573.3349
21
507.26685
31
0.0
0
LINE
8
0
10
573.3349
20
507.26685
30
0.0
11
561.16986
21
485.60056
31
0.0
0
LINE
8
0
10
561.16986
20
485.60056
30
0.0
11
554.33466
21
465.606
31
0.0
0
LINE
8
0
10
554.33466
20
465.606
30
0.0
11
551.69934
21
447.8308
31
0.0
0
LINE
8
0
10
551.69934
20
447.8308
30
0.0
11
552.2345
21
432.55896
31
0.0
0
LINE
8
0
10
552.2345
20
432.55896
30
0.0
11
555.03546
21
419.86923
31
0.0
0
LINE
8
0
10
1046.542
20
562.52795
30
0.0
11
948.40765
21
604.7367
31
0.0
0
LINE
8
0
10
948.40765
20
604.7367
30
0.0
11
859.83154
21
624.9144
31
0.0
0
LINE
8
0
10
859.83154
20
624.9144
30
0.0
11
782.64404
21
628.1402
31
0.0
0
LINE
8
0
10
782.64404
20
628.1402
30
0.0
11
717.5934
21
618.9436
31
0.0
0
LINE
8
0
10
717.5934
20
618.9436
30
0.0
11
664.6073
21
601.22815
31
0.0
0
LINE
8
0
10
664.6073
20
601.22815
30
0.0
11
623.02374
21
578.2473
31
0.0
0
LINE
8
0
10
623.02374
20
578.2473
30
0.0
11
591.7878
21
552.62
31
0.0
0
LINE
8
0
10
591.7878
20
552.62
30
0.0
11
569.6136
21
526.37396
31
0.0
0
LINE
8
0
10
569.6136
20
526.37396
30
0.0
11
555.1133
21
501.00684
31
0.0
0
LINE
8
0
10
555.1133
20
501.00684
30
0.0
11
546.8954
21
477.5573
31
0.0
0
LINE
8
0
10
546.8954
20
477.5573
30
0.0
11
543.63605
21
456.6796
31
0.0
0
LINE
8
0
10
543.63605
20
456.6796
30
0.0
11
544.12744
21
438.71686
31
0.0
0
LINE
8
0
10
544.12744
20
438.71686
30
0.0
11
547.3064
21
423.76993
31
0.0
0
LINE
8
0
10
547.3064
20
423.76993
30
0.0
11
552.2683
21
411.75934
31
0.0
0
LINE
8
0
10
1011.5353
20
637.60004
30
0.0
11
907.5624
21
662.1266
31
0.0
0
LINE
8
0
10
907.5624
20
662.1266
30
0.0
11
816.8281
21
666.6168
31
0.0
0
LINE
8
0
10
816.8281
20
666.6168
30
0.0
11
740.2532
21
656.3901
31
0.0
0
LINE
8
0
10
740.2532
20
656.3901
30
0.0
11
677.7877
21
636.0373
31
0.0
0
LINE
8
0
10
677.7877
20
636.0373
30
0.0
11
628.68286
21
609.39
31
0.0
0
LINE
8
0
10
628.68286
20
609.39
30
0.0
11
591.7216
21
579.53735
31
0.0
0
LINE
8
0
10
591.7216
20
579.53735
30
0.0
11
565.41034
21
548.87537
31
0.0
0
LINE
8
0
10
565.41034
20
548.87537
30
0.0
11
548.1306
21
519.17755
31
0.0
0
LINE
8
0
10
548.1306
20
519.17755
30
0.0
11
538.25555
21
491.67783
31
0.0
0
LINE
8
0
10
538.25555
20
491.67783
30
0.0
11
534.23444
21
467.1575
31
0.0
0
LINE
8
0
10
534.23444
20
467.1575
30
0.0
11
534.65
21
446.031
31
0.0
0
LINE
8
0
10
534.65
20
446.031
30
0.0
11
538.2531
21
428.42645
31
0.0
0
LINE
8
0
10
538.2531
20
428.42645
30
0.0
11
543.9793
21
414.25864
31
0.0
0
LINE
8
0
10
543.9793
20
414.25864
30
0.0
11
550.9515
21
403.29218
31
0.0
0
LINE
8
0
10
964.02435
20
705.4527
30
0.0
11
857.3721
21
711.552
31
0.0
0
LINE
8
0
10
857.3721
20
711.552
30
0.0
11
767.2365
21
700.2181
31
0.0
0
LINE
8
0
10
767.2365
20
700.2181
30
0.0
11
693.6007
21
676.8496
31
0.0
0
LINE
8
0
10
693.6007
20
676.8496
30
0.0
11
635.61847
21
645.95905
31
0.0
0
LINE
8
0
10
635.61847
20
645.95905
30
0.0
11
591.88684
21
611.18964
31
0.0
0
LINE
8
0
10
591.88684
20
611.18964
30
0.0
11
560.671
21
575.3723
31
0.0
0
LINE
8
0
10
560.671
20
575.3723
30
0.0
11
540.0839
21
540.6072
31
0.0
0
LINE
8
0
10
540.0839
20
540.6072
30
0.0
11
528.22363
21
508.35992
31
0.0
0
LINE
8
0
10
528.22363
20
508.35992
30
0.0
11
523.2739
21
479.56323
31
0.0
0
LINE
8
0
10
523.2739
20
479.56323
30
0.0
11
523.5718
21
454.71716
31
0.0
0
LINE
8
0
10
523.5718
20
454.71716
30
0.0
11
527.64966
21
433.98376
31
0.0
0
LINE
8
0
10
527.64966
20
433.98376
30
0.0
11
534.255
21
417.27237
31
0.0
0
LINE
8
0
10
534.255
20
417.27237
30
0.0
11
542.3544
21
404.31412
31
0.0
0
LINE
8
0
10
542.3544
20
404.31412
30
0.0
11
551.12494
21
394.72498
31
0.0
0
LINE
8
0
10
905.4527
20
764.02435
30
0.0
11
799.3616
21
751.511
31
0.0
0
LINE
8
0
10
799.3616
20
751.511
30
0.0
11
712.5635
21
724.6974
31
0.0
0
LINE
8
0
10
712.5635
20
724.6974
30
0.0
11
644.10425
21
688.8973
31
0.0
0
LINE
8
0
10
644.10425
20
688.8973
30
0.0
11
592.36707
21
648.4075
31
0.0
0
LINE
8
0
10
592.36707
20
648.4075
30
0.0
11
555.33746
21
606.5723
31
0.0
0
LINE
8
0
10
555.33746
20
606.5723
30
0.0
11
530.8154
21
565.87854
31
0.0
0
LINE
8
0
10
530.8154
20
565.87854
30
0.0
11
516.578
21
528.0667
31
0.0
0
LINE
8
0
10
516.578
20
528.0667
30
0.0
11
510.49762
21
494.24988
31
0.0
0
LINE
8
0
10
510.49762
20
494.24988
30
0.0
11
510.62354
21
465.03113
31
0.0
0
LINE
8
0
10
510.62354
20
465.03113
30
0.0
11
515.2314
21
440.6143
31
0.0
0
LINE
8
0
10
515.2314
20
440.6143
30
0.0
11
522.8476
21
420.90396
31
0.0
0
LINE
8
0
10
522.8476
20
420.90396
30
0.0
11
532.2545
21
405.59348
31
0.0
0
LINE
8
0
10
532.2545
20
405.59348
30
0.0
11
542.481
21
394.23853
31
0.0
0
LINE
8
0
10
542.481
20
394.23853
30
0.0
11
552.78345
21
386.31805
31
0.0
0
LINE
8
0
10
837.6
20
811.53534
30
0.0
11
735.2936
21
780.78955
31
0.0
0
LINE
8
0
10
735.2936
20
780.78955
30
0.0
11
654.4703
21
739.311
31
0.0
0
LINE
8
0
10
654.4703
20
739.311
30
0.0
11
593.26776
21
692.1669
31
0.0
0
LINE
8
0
10
593.26776
20
692.1669
30
0.0
11
549.3475
21
643.3081
31
0.0
0
LINE
8
0
10
549.3475
20
643.3081
30
0.0
11
520.1451
21
595.67847
31
0.0
0
LINE
8
0
10
520.1451
20
595.67847
30
0.0
11
503.062
21
551.3447
31
0.0
0
LINE
8
0
10
503.062
20
551.3447
30
0.0
11
495.6068
21
511.635
31
0.0
0
LINE
8
0
10
495.6068
20
511.635
30
0.0
11
495.49103
21
477.27606
31
0.0
0
LINE
8
0
10
495.49103
20
477.27606
30
0.0
11
500.68884
21
448.5231
31
0.0
0
LINE
8
0
10
500.68884
20
448.5231
30
0.0
11
509.4666
21
425.27734
31
0.0
0
LINE
8
0
10
509.4666
20
425.27734
30
0.0
11
520.3898
21
407.18903
31
0.0
0
LINE
8
0
10
520.3898
20
407.18903
30
0.0
11
532.31244
21
393.7446
31
0.0
0
LINE
8
0
10
532.31244
20
393.7446
30
0.0
11
544.35535
21
384.338
31
0.0
0
LINE
8
0
10
544.35535
20
384.338
30
0.0
11
555.87665
21
378.3268
31
0.0
0
LINE
8
0
10
762.52795
20
846.542
30
0.0
11
667.11475
21
798.4979
31
0.0
0
LINE
8
0
10
667.11475
20
798.4979
30
0.0
11
594.72205
21
743.61475
31
0.0
0
LINE
8
0
10
594.72205
20
743.61475
30
0.0
11
542.63574
21
686.5592
31
0.0
0
LINE
8
0
10
542.63574
20
686.5592
30
0.0
11
507.867
21
630.81604
31
0.0
0
LINE
8
0
10
507.867
20
630.81604
30
0.0
11
487.37903
21
578.839
31
0.0
0
LINE
8
0
10
487.37903
20
578.839
30
0.0
11
478.25397
21
532.21234
31
0.0
0
LINE
8
0
10
478.25397
20
532.21234
30
0.0
11
477.80756
21
491.81134
31
0.0
0
LINE
8
0
10
477.80756
20
491.81134
30
0.0
11
483.6599
21
457.95428
31
0.0
0
LINE
8
0
10
483.6599
20
457.95428
30
0.0
11
493.77164
21
430.54074
31
0.0
0
LINE
8
0
10
493.77164
20
430.54074
30
0.0
11
506.45264
21
409.17236
31
0.0
0
LINE
8
0
10
506.45264
20
409.17236
30
0.0
11
520.3509
21
393.25565
31
0.0
0
LINE
8
0
10
520.3509
20
393.25565
30
0.0
11
534.427
21
382.08582
31
0.0
0
LINE
8
0
10
534.427
20
382.08582
30
0.0
11
547.9204
21
374.91336
31
0.0
0
LINE
8
0
10
547.9204
20
374.91336
30
0.0
11
560.3105
21
370.99414
31
0.0
0
LINE
8
0
10
682.51764
20
867.9807
30
0.0
11
596.89667
21
804.0982
31
0.0
0
LINE
8
0
10
596.89667
20
804.0982
30
0.0
11
535.13416
21
737.47797
31
0.0
0
LINE
8
0
10
535.13416
20
737.47797
30
0.0
11
493.74677
21
672.2445
31
0.0
0
LINE
8
0
10
493.74677
20
672.2445
30
0.0
11
469.18594
21
611.31067
31
0.0
0
LINE
8
0
10
469.18594
20
611.31067
30
0.0
11
458.0349
21
556.5656
31
0.0
0
LINE
8
0
10
458.0349
20
556.5656
30
0.0
11
457.14514
21
509.06277
31
0.0
0
LINE
8
0
10
457.14514
20
509.06277
30
0.0
11
463.72107
21
469.19803
31
0.0
0
LINE
8
0
10
463.72107
20
469.19803
30
0.0
11
475.3637
21
436.87158
31
0.0
0
LINE
8
0
10
475.3637
20
436.87158
30
0.0
11
490.08215
21
411.6304
31
0.0
0
LINE
8
0
10
490.08215
20
411.6304
30
0.0
11
506.28107
21
392.78867
31
0.0
0
LINE
8
0
10
506.28107
20
392.78867
30
0.0
11
522.73206
21
379.52716
31
0.0
0
LINE
8
0
10
522.73206
20
379.52716
30
0.0
11
538.53394
21
370.97134
31
0.0
0
LINE
8
0
10
538.53394
20
370.97134
30
0.0
11
553.0679
21
366.25092
31
0.0
0
LINE
8
0
10
553.0679
20
366.25092
30
0.0
11
565.95026
21
364.5428
31
0.0
0
LINE
8
0
10
600.0
20
875.2001
30
0.0
11
526.7729
21
797.42017
31
0.0
0
LINE
8
0
10
526.7729
20
797.42017
30
0.0
11
477.51715
21
721.08704
31
0.0
0
LINE
8
0
10
477.51715
20
721.08704
30
0.0
11
448.08624
21
649.65784
31
0.0
0
LINE
8
0
10
448.08624
20
649.65784
30
0.0
11
434.4796
21
585.38477
31
0.0
0
LINE
8
0
10
434.4796
20
585.38477
30
0.0
11
433.00433
21
529.53503
31
0.0
0
LINE
8
0
10
433.00433
20
529.53503
30
0.0
11
440.3769
21
482.5994
31
0.0
0
LINE
8
0
10
440.3769
20
482.5994
30
0.0
11
453.77533
21
444.48218
31
0.0
0
LINE
8
0
10
453.77533
20
444.48218
30
0.0
11
470.85455
21
414.66858
31
0.0
0
LINE
8
0
10
470.85455
20
414.66858
30
0.0
11
489.73245
21
392.36664
31
0.0
0
LINE
8
0
10
489.73245
20
392.36664
30
0.0
11
508.95712
21
376.6241
31
0.0
0
LINE
8
0
10
508.95712
20
376.6241
30
0.0
11
527.461
21
366.42078
31
0.0
0
LINE
8
0
10
527.461
20
366.42078
30
0.0
11
544.50854
21
360.7389
31
0.0
0
LINE
8
0
10
544.50854
20
360.7389
30
0.0
11
559.6413
21
358.61398
31
0.0
0
LINE
8
0
10
559.6413
20
358.61398
30
0.0
11
572.62463
21
359.1688
31
0.0
0
LINE
8
0
10
517.48236
20
867.9807
30
0.0
11
458.8741
21
778.66675
31
0.0
0
LINE
8
0
10
458.8741
20
778.66675
30
0.0
11
423.62177
21
694.94006
31
0.0
0
LINE
8
0
10
423.62177
20
694.94006
30
0.0
11
407.04156
21
619.4854
31
0.0
0
LINE
8
0
10
407.04156
20
619.4854
30
0.0
11
404.8025
21
553.82605
31
0.0
0
LINE
8
0
10
404.8025
20
553.82605
30
0.0
11
413.04785
21
498.5686
31
0.0
0
LINE
8
0
10
413.04785
20
498.5686
30
0.0
11
428.45868
21
453.62625
31
0.0
0
LINE
8
0
10
428.45868
20
453.62625
30
0.0
11
448.27258
21
418.41473
31
0.0
0
LINE
8
0
10
448.27258
20
418.41473
30
0.0
11
470.26938
21
392.01987
31
0.0
0
LINE
8
0
10
470.26938
20
392.01987
30
0.0
11
492.7332
21
373.33487
31
0.0
0
LINE
8
0
10
492.7332
20
373.33487
30
0.0
11
514.3994
21
361.16983
31
0.0
0
LINE
8
0
10
514.3994
20
361.16983
30
0.0
11
534.39404
21
354.33466
31
0.0
0
LINE
8
0
10
534.39404
20
354.33466
30
0.0
11
552.1692
21
351.69934
31
0.0
0
LINE
8
0
10
552.1692
20
351.69934
30
0.0
11
567.44104
21
352.23453
31
0.0
0
LINE
8
0
10
567.44104
20
352.23453
30
0.0
11
580.1308
21
355.03543
31
0.0
0
LINE
8
0
10
437.47202
20
846.542
30
0.0
11
395.2633
21
748.40765
31
0.0
0
LINE
8
0
10
395.2633
20
748.40765
30
0.0
11
375.08554
21
659.83154
31
0.0
0
LINE
8
0
10
375.08554
20
659.83154
30
0.0
11
371.85977
21
582.64404
31
0.0
0
LINE
8
0
10
371.85977
20
582.64404
30
0.0
11
381.05634
21
517.5934
31
0.0
0
LINE
8
0
10
381.05634
20
517.5934
30
0.0
11
398.77182
21
464.60724
31
0.0
0
LINE
8
0
10
398.77182
20
464.60724
30
0.0
11
421.7527
21
423.0237
31
0.0
0
LINE
8
0
10
421.7527
20
423.0237
30
0.0
11
447.37997
21
391.78778
31
0.0
0
LINE
8
0
10
447.37997
20
391.78778
30
0.0
11
473.62604
21
369.6136
31
0.0
0
LINE
8
0
10
473.62604
20
369.6136
30
0.0
11
498.99316
21
355.11328
31
0.0
0
LINE
8
0
10
498.99316
20
355.11328
30
0.0
11
522.4427
21
346.89536
31
0.0
0
LINE
8
0
10
522.4427
20
346.89536
30
0.0
11
543.32043
21
343.63605
31
0.0
0
LINE
8
0
10
543.32043
20
343.63605
30
0.0
11
561.28314
21
344.12744
31
0.0
0
LINE
8
0
10
561.28314
20
344.12744
30
0.0
11
576.2301
21
347.3064
31
0.0
0
LINE
8
0
10
576.2301
20
347.3064
30
0.0
11
588.24066
21
352.26828
31
0.0
0
LINE
8
0
10
362.39996
20
811.5353
30
0.0
11
337.87338
21
707.5624
31
0.0
0
LINE
8
0
10
337.87338
20
707.5624
30
0.0
11
333.38324
21
616.8281
31
0.0
0
LINE
8
0
10
333.38324
20
616.8281
30
0.0
11
343.60992
21
540.2532
31
0.0
0
LINE
8
0
10
343.60992
20
540.2532
30
0.0
11
363.9627
21
477.7877
31
0.0
0
LINE
8
0
10
363.9627
20
477.7877
30
0.0
11
390.61
21
428.68283
31
0.0
0
LINE
8
0
10
390.61
20
428.68283
30
0.0
11
420.46265
21
391.72162
31
0.0
0
LINE
8
0
10
420.46265
20
391.72162
30
0.0
11
451.12466
21
365.41034
31
0.0
0
LINE
8
0
10
451.12466
20
365.41034
30
0.0
11
480.82248
21
348.1306
31
0.0
0
LINE
8
0
10
480.82248
20
348.1306
30
0.0
11
508.32217
21
338.25555
31
0.0
0
LINE
8
0
10
508.32217
20
338.25555
30
0.0
11
532.84247
21
334.23447
31
0.0
0
LINE
8
0
10
532.84247
20
334.23447
30
0.0
11
553.969
21
334.65002
31
0.0
0
LINE
8
0
10
553.969
20
334.65002
30
0.0
11
571.57355
21
338.25314
31
0.0
0
LINE
8
0
10
571.57355
20
338.25314
30
0.0
11
585.7414
21
343.9793
31
0.0
0
LINE
8
0
10
585.7414
20
343.9793
30
0.0
11
596.7078
21
350.95145
31
0.0
0
LINE
8
0
10
294.5473
20
764.02435
30
0.0
11
288.44803
21
657.3721
31
0.0
0
LINE
8
0
10
288.44803
20
657.3721
30
0.0
11
299.78192
21
567.2365
31
0.0
0
LINE
8
0
10
299.78192
20
567.2365
30
0.0
11
323.15036
21
493.60068
31
0.0
0
LINE
8
0
10
323.15036
20
493.60068
30
0.0
11
354.04095
21
435.6185
31
0.0
0
LINE
8
0
10
354.04095
20
435.6185
30
0.0
11
388.81036
21
391.88687
31
0.0
0
LINE
8
0
10
388.81036
20
391.88687
30
0.0
11
424.62772
21
360.67105
31
0.0
0
LINE
8
0
10
424.62772
20
360.67105
30
0.0
11
459.39282
21
340.0839
31
0.0
0
LINE
8
0
10
459.39282
20
340.0839
30
0.0
11
491.64008
21
328.22366
31
0.0
0
LINE
8
0
10
491.64008
20
328.22366
30
0.0
11
520.43677
21
323.2739
31
0.0
0
LINE
8
0
10
520.43677
20
323.2739
30
0.0
11
545.28284
21
323.5718
31
0.0
0
LINE
8
0
10
545.28284
20
323.5718
30
0.0
11
566.01624
21
327.64966
31
0.0
0
LINE
8
0
10
566.01624
20
327.64966
30
0.0
11
582.7276
21
334.255
31
0.0
0
LINE
8
0
10
582.7276
20
334.255
30
0.0
11
595.68585
21
342.3544
31
0.0
0
LINE
8
0
10
595.68585
20
342.3544
30
0.0
11
605.275
21
351.12494
31
0.0
0
LINE
8
0
10
235.97565
20
705.4527
30
0.0
11
248.48901
21
599.3616
31
0.0
0
LINE
8
0
10
248.48901
20
599.3616
30
0.0
11
275.3026
21
512.56354
31
0.0
0
LINE
8
0
10
275.3026
20
512.56354
30
0.0
11
311.10272
21
444.10425
31
0.0
0
LINE
8
0
10
311.10272
20
444.10425
30
0.0
11
351.59256
21
392.36703
31
0.0
0
LINE
8
0
10
351.59256
20
392.36703
30
0.0
11
393.42767
21
355.33746
31
0.0
0
LINE
8
0
10
393.42767
20
355.33746
30
0.0
11
434.12143
21
330.81543
31
0.0
0
LINE
8
0
10
434.12143
20
330.81543
30
0.0
11
471.9333
21
316.578
31
0.0
0
LINE
8
0
10
471.9333
20
316.578
30
0.0
11
505.75012
21
310.49762
31
0.0
0
LINE
8
0
10
505.75012
20
310.49762
30
0.0
11
534.9689
21
310.62354
31
0.0
0
LINE
8
0
10
534.9689
20
310.62354
30
0.0
11
559.38574
21
315.23138
31
0.0
0
LINE
8
0
10
559.38574
20
315.23138
30
0.0
11
579.096
21
322.8476
31
0.0
0
LINE
8
0
10
579.096
20
322.8476
30
0.0
11
594.40656
21
332.25452
31
0.0
0
LINE
8
0
10
594.40656
20
332.25452
30
0.0
11
605.7615
21
342.48102
31
0.0
0
LINE
8
0
10
605.7615
20
342.48102
30
0.0
11
613.68195
21
352.78345
31
0.0
0
LINE
8
0
10
188.46469
20
637.60004
30
0.0
11
219.21051
21
535.2936
31
0.0
0
LINE
8
0
10
219.21051
20
535.2936
30
0.0
11
260.68903
21
454.47025
31
0.0
0
LINE
8
0
10
260.68903
20
454.47025
30
0.0
11
307.8331
21
393.26773
31
0.0
0
LINE
8
0
10
307.8331
20
393.26773
30
0.0
11
356.6919
21
349.3475
31
0.0
0
LINE
8
0
10
356.6919
20
349.3475
30
0.0
11
404.32153
21
320.14508
31
0.0
0
LINE
8
0
10
404.32153
20
320.14508
30
0.0
11
448.65527
21
303.062
31
0.0
0
LINE
8
0
10
448.65527
20
303.062
30
0.0
11
488.365
21
295.6068
31
0.0
0
LINE
8
0
10
488.365
20
295.6068
30
0.0
11
522.72394
21
295.49103
31
0.0
0
LINE
8
0
10
522.72394
20
295.49103
30
0.0
11
551.47687
21
300.68884
31
0.0
0
LINE
8
0
10
551.47687
20
300.68884
30
0.0
11
574.72266
21
309.4666
31
0.0
0
LINE
8
0
10
574.72266
20
309.4666
30
0.0
11
592.811
21
320.38977
31
0.0
0
LINE
8
0
10
592.811
20
320.38977
30
0.0
11
606.2554
21
332.31244
31
0.0
0
LINE
8
0
10
606.2554
20
332.31244
30
0.0
11
615.662
21
344.35535
31
0.0
0
LINE
8
0
10
615.662
20
344.35535
30
0.0
11
621.67316
21
355.87662
31
0.0
0
LINE
8
0
10
153.45804
20
562.528
30
0.0
11
201.50204
21
467.1147
31
0.0
0
LINE
8
0
10
201.50204
20
467.1147
30
0.0
11
256.38525
21
394.72202
31
0.0
0
LINE
8
0
10
256.38525
20
394.72202
30
0.0
11
313.44083
21
342.63577
31
0.0
0
LINE
8
0
10
313.44083
20
342.63577
30
0.0
11
369.18396
21
307.86703
31
0.0
0
LINE
8
0
10
369.18396
20
307.86703
30
0.0
11
421.161
21
287.379
31
0.0
0
LINE
8
0
10
421.161
20
287.379
30
0.0
11
467.78766
21
278.25397
31
0.0
0
LINE
8
0
10
467.78766
20
278.25397
30
0.0
11
508.18866
21
277.80756
31
0.0
0
LINE
8
0
10
508.18866
20
277.80756
30
0.0
11
542.0457
21
283.6599
31
0.0
0
LINE
8
0
10
542.0457
20
283.6599
30
0.0
11
569.4592
21
293.77164
31
0.0
0
LINE
8
0
10
569.4592
20
293.77164
30
0.0
11
590.82764
21
306.45267
31
0.0
0
LINE
8
0
10
590.82764
20
306.45267
30
0.0
11
606.7444
21
320.3509
31
0.0
0
LINE
8
0
10
606.7444
20
320.3509
30
0.0
11
617.9142
21
334.427
31
0.0
0
LINE
8
0
10
617.9142
20
334.427
30
0.0
11
625.0867
21
347.92038
31
0.0
0
LINE
8
0
10
625.0867
20
347.92038
30
0.0
11
629.00586
21
360.3105
31
0.0
0
LINE
8
0
10
132.01932
20
482.51767
30
0.0
11
195.9018
21
396.89664
31
0.0
0
LINE
8
0
10
195.9018
20
396.89664
30
0.0
11
262.52203
21
335.13412
31
0.0
0
LINE
8
0
10
262.52203
20
335.13412
30
0.0
11
327.7555
21
293.7468
31
0.0
0
LINE
8
0
10
327.7555
20
293.7468
30
0.0
11
388.6893
21
269.18597
31
0.0
0
LINE
8
0
10
388.6893
20
269.18597
30
0.0
11
443.4344
21
258.0349
31
0.0
0
LINE
8
0
10
443.4344
20
258.0349
30
0.0
11
490.93723
21
257.14514
31
0.0
0
LINE
8
0
10
490.93723
20
257.14514
30
0.0
11
530.802
21
263.72107
31
0.0
0
LINE
8
0
10
530.802
20
263.72107
30
0.0
11
563.1284
21
275.3637
31
0.0
0
LINE
8
0
10
563.1284
20
275.3637
30
0.0
11
588.36957
21
290.08215
31
0.0
0
LINE
8
0
10
588.36957
20
290.08215
30
0.0
11
607.21136
21
306.28107
31
0.0
0
LINE
8
0
10
607.21136
20
306.28107
30
0.0
11
620.47284
21
322.73206
31
0.0
0
LINE
8
0
10
620.47284
20
322.73206
30
0.0
11
629.0287
21
338.53394
31
0.0
0
LINE
8
0
10
629.0287
20
338.53394
30
0.0
11
633.7491
21
353.06784
31
0.0
0
LINE
8
0
10
633.7491
20
353.06784
30
0.0
11
635.4572
21
365.95026
31
0.0
0
LINE
8
0
10
124.79996
20
399.99997
30
0.0
11
202.57983
21
326.7729
31
0.0
0
LINE
8
0
10
202.57983
20
326.7729
30
0.0
11
278.91293
21
277.51715
31
0.0
0
LINE
8
0
10
278.91293
20
277.51715
30
0.0
11
350.34216
21
248.08627
31
0.0
0
LINE
8
0
10
350.34216
20
248.08627
30
0.0
11
414.61523
21
234.47957
31
0.0
0
LINE
8
0
10
414.61523
20
234.47957
30
0.0
11
470.46497
21
233.00433
31
0.0
0
LINE
8
0
10
470.46497
20
233.00433
30
0.0
11
517.40063
21
240.37688
31
0.0
0
LINE
8
0
10
517.40063
20
240.37688
30
0.0
11
555.5178
21
253.77534
31
0.0
0
LINE
8
0
10
555.5178
20
253.77534
30
0.0
11
585.3314
21
270.85455
31
0.0
0
LINE
8
0
10
585.3314
20
270.85455
30
0.0
11
607.6333
21
289.73245
31
0.0
0
LINE
8
0
10
607.6333
20
289.73245
30
0.0
11
623.3759
21
308.95712
31
0.0
0
LINE
8
0
10
623.3759
20
308.95712
30
0.0
11
633.5792
21
327.461
31
0.0
0
LINE
8
0
10
633.5792
20
327.461
30
0.0
11
639.2611
21
344.50854
31
0.0
0
LINE
8
0
10
639.2611
20
344.50854
30
0.0
11
641.38605
21
359.6413
31
0.0
0
LINE
8
0
10
641.38605
20
359.6413
30
0.0
11
640.8312
21
372.62463
31
0.0
0
LINE
8
0
10
132.01932
20
317.48236
30
0.0
11
221.33328
21
258.87408
31
0.0
0
LINE
8
0
10
221.33328
20
258.87408
30
0.0
11
305.05988
21
223.62178
31
0.0
0
LINE
8
0
10
305.05988
20
223.62178
30
0.0
11
380.5146
21
207.04156
31
0.0
0
LINE
8
0
10
380.5146
20
207.04156
30
0.0
11
446.17398
21
204.80246
31
0.0
0
LINE
8
0
10
446.17398
20
204.80246
30
0.0
11
501.43137
21
213.04785
31
0.0
0
LINE
8
0
10
501.43137
20
213.04785
30
0.0
11
546.3737
21
228.45868
31
0.0
0
LINE
8
0
10
546.3737
20
228.45868
30
0.0
11
581.58527
21
248.27258
31
0.0
0
LINE
8
0
10
581.58527
20
248.27258
30
0.0
11
607.98016
21
270.26938
31
0.0
0
LINE
8
0
10
607.98016
20
270.26938
30
0.0
11
626.66516
21
292.7332
31
0.0
0
LINE
8
0
10
626.66516
20
292.7332
30
0.0
11
638.8302
21
314.39944
31
0.0
0
LINE
8
0
10
638.8302
20
314.39944
30
0.0
11
645.66534
21
334.394
31
0.0
0
LINE
8
0
10
645.66534
20
334.394
30
0.0
11
648.30066
21
352.1692
31
0.0
0
LINE
8
0
10
648.30066
20
352.1692
30
0.0
11
647.7655
21
367.44104
31
0.0
0
LINE
8
0
10
647.7655
20
367.44104
30
0.0
11
644.9646
21
380.13077
31
0.0
0
LINE
8
0
10
153.45804
20
237.47202
30
0.0
11
251.59232
21
195.26334
31
0.0
0
LINE
8
0
10
251.59232
20
195.26334
30
0.0
11
340.16843
21
175.08554
31
0.0
0
LINE
8
0
10
340.16843
20
175.08554
30
0.0
11
417.356
21
171.85976
31
0.0
0
LINE
8
0
10
417.356
20
171.85976
30
0.0
11
482.40662
21
181.05637
31
0.0
0
LINE
8
0
10
482.40662
20
181.05637
30
0.0
11
535.3927
21
198.77184
31
0.0
0
LINE
8
0
10
535.3927
20
198.77184
30
0.0
11
576.97626
21
221.75267
31
0.0
0
LINE
8
0
10
576.97626
20
221.75267
30
0.0
11
608.2122
21
247.37997
31
0.0
0
LINE
8
0
10
608.2122
20
247.37997
30
0.0
11
630.38635
21
273.626
31
0.0
0
LINE
8
0
10
630.38635
20
273.626
30
0.0
11
644.8867
21
298.99316
31
0.0
0
LINE
8
0
10
644.8867
20
298.99316
30
0.0
11
653.1047
21
322.4427
31
0.0
0
LINE
8
0
10
653.1047
20
322.4427
30
0.0
11
656.36395
21
343.32043
31
0.0
0
LINE
8
0
10
656.36395
20
343.32043
30
0.0
11
655.87256
21
361.28317
31
0.0
0
LINE
8
0
10
655.87256
20
361.28317
30
0.0
11
652.6936
21
376.23007
31
0.0
0
LINE
8
0
10
652.6936
20
376.23007
30
0.0
11
647.7317
21
388.24066
31
0.0
0
LINE
8
0
10
188.46469
20
162.4
30
0.0
11
292.43756
21
137.87341
31
0.0
0
LINE
8
0
10
292.43756
20
137.87341
30
0.0
11
383.1719
21
133.38318
31
0.0
0
LINE
8
0
10
383.1719
20
133.38318
30
0.0
11
459.7469
21
143.60992
31
0.0
0
LINE
8
0
10
459.7469
20
143.60992
30
0.0
11
522.2123
21
163.96272
31
0.0
0
LINE
8
0
10
522.2123
20
163.96272
30
0.0
11
571.31714
21
190.61
31
0.0
0
LINE
8
0
10
571.31714
20
190.61
30
0.0
11
608.2784
21
220.46262
31
0.0
0
LINE
8
0
10
608.2784
20
220.46262
30
0.0
11
634.5896
21
251.12465
31
0.0
0
LINE
8
0
10
634.5896
20
251.12465
30
0.0
11
651.8694
21
280.82248
31
0.0
0
LINE
8
0
10
651.8694
20
280.82248
30
0.0
11
661.74445
21
308.32217
31
0.0
0
LINE
8
0
10
661.74445
20
308.32217
30
0.0
11
665.76556
21
332.8425
31
0.0
0
LINE
8
0
10
665.76556
20
332.8425
30
0.0
11
665.35
21
353.969
31
0.0
0
LINE
8
0
10
665.35
20
353.969
30
0.0
11
661.7468
21
371.57355
31
0.0
0
LINE
8
0
10
661.7468
20
371.57355
30
0.0
11
656.0207
21
385.74136
31
0.0
0
LINE
8
0
10
656.0207
20
385.74136
30
0.0
11
649.0485
21
396.70782
31
0.0
0
LINE
8
0
10
235.97562
20
94.5473
30
0.0
11
342.62802
21
88.44797
31
0.0
0
LINE
8
0
10
342.62802
20
88.44797
30
0.0
11
432.76352
21
99.78192
31
0.0
0
LINE
8
0
10
432.76352
20
99.78192
30
0.0
11
506.3993
21
123.15036
31
0.0
0
LINE
8
0
10
506.3993
20
123.15036
30
0.0
11
564.3815
21
154.04097
31
0.0
0
LINE
8
0
10
564.3815
20
154.04097
30
0.0
11
608.1131
21
188.81038
31
0.0
0
LINE
8
0
10
608.1131
20
188.81038
30
0.0
11
639.3289
21
224.62772
31
0.0
0
LINE
8
0
10
639.3289
20
224.62772
30
0.0
11
659.9161
21
259.39282
31
0.0
0
LINE
8
0
10
659.9161
20
259.39282
30
0.0
11
671.77637
21
291.64008
31
0.0
0
LINE
8
0
10
671.77637
20
291.64008
30
0.0
11
676.7261
21
320.43677
31
0.0
0
LINE
8
0
10
676.7261
20
320.43677
30
0.0
11
676.4282
21
345.28284
31
0.0
0
LINE
8
0
10
676.4282
20
345.28284
30
0.0
11
672.35034
21
366.01624
31
0.0
0
LINE
8
0
10
672.35034
20
366.01624
30
0.0
11
665.745
21
382.72763
31
0.0
0
LINE
8
0
10
665.745
20
382.72763
30
0.0
11
657.6456
21
395.68585
31
0.0
0
LINE
8
0
10
657.6456
20
395.68585
30
0.0
11
648.87506
21
405.27502
31
0.0
0
LINE
8
0
10
294.54733
20
35.975586
30
0.0
11
400.6385
21
48.488983
31
0.0
0
LINE
8
0
10
400.6385
20
48.488983
30
0.0
11
487.43652
21
75.30258
31
0.0
0
LINE
8
0
10
487.43652
20
75.30258
30
0.0
11
555.89575
21
111.10272
31
0.0
0
LINE
8
0
10
555.89575
20
111.10272
30
0.0
11
607.63293
21
151.59256
31
0.0
0
LINE
8
0
10
607.63293
20
151.59256
30
0.0
11
644.66254
21
193.42766
31
0.0
0
LINE
8
0
10
644.66254
20
193.42766
30
0.0
11
669.1845
21
234.12141
31
0.0
0
LINE
8
0
10
669.1845
20
234.12141
30
0.0
11
683.422
21
271.9333
31
0.0
0
LINE
8
0
10
683.422
20
271.9333
30
0.0
11
689.5024
21
305.75015
31
0.0
0
LINE
8
0
10
689.5024
20
305.75015
30
0.0
11
689.37646
21
334.96887
31
0.0
0
LINE
8
0
10
689.37646
20
334.96887
30
0.0
11
684.7686
21
359.38574
31
0.0
0
LINE
8
0
10
684.7686
20
359.38574
30
0.0
11
677.1524
21
379.096
31
0.0
0
LINE
8
0
10
677.1524
20
379.096
30
0.0
11
667.7455
21
394.40652
31
0.0
0
LINE
8
0
10
667.7455
20
394.40652
30
0.0
11
657.519
21
405.76144
31
0.0
0
LINE
8
0
10
657.519
20
405.76144
30
0.0
11
647.21655
21
413.68195
31
0.0
0
LINE
8
0
10
362.40002
20
-11.535339
30
0.0
11
464.70648
21
19.21048
31
0.0
0
LINE
8
0
10
464.70648
20
19.21048
30
0.0
11
545.5297
21
60.689026
31
0.0
0
LINE
8
0
10
545.5297
20
60.689026
30
0.0
11
606.73224
21
107.8331
31
0.0
0
LINE
8
0
10
606.73224
20
107.8331
30
0.0
11
650.65247
21
156.69186
31
0.0
0
LINE
8
0
10
650.65247
20
156.69186
30
0.0
11
679.8549
21
204.3215
31
0.0
0
LINE
8
0
10
679.8549
20
204.3215
30
0.0
11
696.9379
21
248.65524
31
0.0
0
LINE
8
0
10
696.9379
20
248.65524
30
0.0
11
704.3932
21
288.365
31
0.0
0
LINE
8
0
10
704.3932
20
288.365
30
0.0
11
704.509
21
322.72394
31
0.0
0
LINE
8
0
10
704.509
20
322.72394
30
0.0
11
699.31116
21
351.4769
31
0.0
0
LINE
8
0
10
699.31116
20
351.4769
30
0.0
11
690.5334
21
374.72266
31
0.0
0
LINE
8
0
10
690.5334
20
374.72266
30
0.0
11
679.6102
21
392.81097
31
0.0
0
LINE
8
0
10
679.6102
20
392.81097
30
0.0
11
667.68756
21
406.25537
31
0.0
0
LINE
8
0
10
667.68756
20
406.25537
30
0.0
11
655.64465
21
415.662
31
0.0
0
LINE
8
0
10
655.64465
20
415.662
30
0.0
11
644.12335
21
421.6732
31
0.0
0
LINE
8
0
10
437.47205
20
-46.541992
30
0.0
11
532.88525
21
1.5020447
31
0.0
0
LINE
8
0
10
532.88525
20
1.5020447
30
0.0
11
605.27795
21
56.385254
31
0.0
0
LINE
8
0
10
605.27795
20
56.385254
30
0.0
11
657.3642
21
113.44083
31
0.0
0
LINE
8
0
10
657.3642
20
113.44083
30
0.0
11
692.13293
21
169.18398
31
0.0
0
LINE
8
0
10
692.13293
20
169.18398
30
0.0
11
712.621
21
221.16096
31
0.0
0
LINE
8
0
10
712.621
20
221.16096
30
0.0
11
721.74603
21
267.78766
31
0.0
0
LINE
8
0
10
721.74603
20
267.78766
30
0.0
11
722.19244
21
308.1887
31
0.0
0
LINE
8
0
10
722.19244
20
308.1887
30
0.0
11
716.3401
21
342.04572
31
0.0
0
LINE
8
0
10
716.3401
20
342.04572
30
0.0
11
706.2284
21
369.45926
31
0.0
0
LINE
8
0
10
706.2284
20
369.45926
30
0.0
11
693.54736
21
390.82764
31
0.0
0
LINE
8
0
10
693.54736
20
390.82764
30
0.0
11
679.6491
21
406.74435
31
0.0
0
LINE
8
0
10
679.6491
20
406.74435
30
0.0
11
665.573
21
417.91418
31
0.0
0
LINE
8
0
10
665.573
20
417.91418
30
0.0
11
652.0796
21
425.08664
31
0.0
0
LINE
8
0
10
652.0796
20
425.08664
30
0.0
11
639.6895
21
429.00586
31
0.0
0
LINE
8
0
10
517.4824
20
-67.98071
30
0.0
11
603.10333
21
-4.0982056
31
0.0
0
LINE
8
0
10
603.10333
20
-4.0982056
30
0.0
11
664.86584
21
62.522034
31
0.0
0
LINE
8
0
10
664.86584
20
62.522034
30
0.0
11
706.2532
21
127.75549
31
0.0
0
LINE
8
0
10
706.2532
20
127.75549
30
0.0
11
730.814
21
188.6893
31
0.0
0
LINE
8
0
10
730.814
20
188.6893
30
0.0
11
741.9651
21
243.43436
31
0.0
0
LINE
8
0
10
741.9651
20
243.43436
30
0.0
11
742.85486
21
290.93723
31
0.0
0
LINE
8
0
10
742.85486
20
290.93723
30
0.0
11
736.27893
21
330.802
31
0.0
0
LINE
8
0
10
736.27893
20
330.802
30
0.0
11
724.6363
21
363.12842
31
0.0
0
LINE
8
0
10
724.6363
20
363.12842
30
0.0
11
709.91785
21
388.36963
31
0.0
0
LINE
8
0
10
709.91785
20
388.36963
30
0.0
11
693.71893
21
407.2113
31
0.0
0
LINE
8
0
10
693.71893
20
407.2113
30
0.0
11
677.26794
21
420.4728
31
0.0
0
LINE
8
0
10
677.26794
20
420.4728
30
0.0
11
661.46606
21
429.02866
31
0.0
0
LINE
8
0
10
661.46606
20
429.02866
30
0.0
11
646.9321
21
433.74908
31
0.0
0
LINE
8
0
10
646.9321
20
433.74908
30
0.0
11
634.04974
21
435.4572
31
0.0
0
LINE
8
0
10
600.0
20
-75.20004
30
0.0
11
673.22705
21
2.5798035
31
0.0
0
LINE
8
0
10
673.22705
20
2.5798035
30
0.0
11
722.4828
21
78.91293
31
0.0
0
LINE
8
0
10
722.4828
20
78.91293
30
0.0
11
751.9137
21
150.34216
31
0.0
0
LINE
8
0
10
751.9137
20
150.34216
30
0.0
11
765.5204
21
214.61519
31
0.0
0
LINE
8
0
10
765.5204
20
214.61519
30
0.0
11
766.99567
21
270.46497
31
0.0
0
LINE
8
0
10
766.99567
20
270.46497
30
0.0
11
759.62317
21
317.40063
31
0.0
0
LINE
8
0
10
759.62317
20
317.40063
30
0.0
11
746.2247
21
355.51785
31
0.0
0
LINE
8
0
10
746.2247
20
355.51785
30
0.0
11
729.14545
21
385.33145
31
0.0
0
LINE
8
0
10
729.14545
20
385.33145
30
0.0
11
710.2676
21
407.63333
31
0.0
0
LINE
8
0
10
710.2676
20
407.63333
30
0.0
11
691.0429
21
423.37585
31
0.0
0
LINE
8
0
10
691.0429
20
423.37585
30
0.0
11
672.539
21
433.57922
31
0.0
0
LINE
8
0
10
672.539
20
433.57922
30
0.0
11
655.49146
21
439.2611
31
0.0
0
LINE
8
0
10
655.49146
20
439.2611
30
0.0
11
640.3587
21
441.38602
31
0.0
0
LINE
8
0
10
640.3587
20
441.38602
30
0.0
11
627.37537
21
440.8312
31
0.0
0
LINE
8
0
10
682.5176
20
-67.98068
30
0.0
11
741.12585
21
21.333282
31
0.0
0
LINE
8
0
10
741.12585
20
21.333282
30
0.0
11
776.3782
21
105.059875
31
0.0
0
LINE
8
0
10
776.3782
20
105.059875
30
0.0
11
792.95844
21
180.51454
31
0.0
0
LINE
8
0
10
792.95844
20
180.51454
30
0.0
11
795.1975
21
246.1739
31
0.0
0
LINE
8
0
10
795.1975
20
246.1739
30
0.0
11
786.95215
21
301.4314
31
0.0
0
LINE
8
0
10
786.95215
20
301.4314
30
0.0
11
771.5413
21
346.37375
31
0.0
0
LINE
8
0
10
771.5413
20
346.37375
30
0.0
11
751.7274
21
381.58527
31
0.0
0
LINE
8
0
10
751.7274
20
381.58527
30
0.0
11
729.7306
21
407.98016
31
0.0
0
LINE
8
0
10
729.7306
20
407.98016
30
0.0
11
707.26685
21
426.66513
31
0.0
0
LINE
8
0
10
707.26685
20
426.66513
30
0.0
11
685.6006
21
438.83017
31
0.0
0
LINE
8
0
10
685.6006
20
438.83017
30
0.0
11
665.606
21
445.66534
31
0.0
0
LINE
8
0
10
665.606
20
445.66534
30
0.0
11
647.8308
21
448.30066
31
0.0
0
LINE
8
0
10
647.8308
20
448.30066
30
0.0
11
632.55896
21
447.7655
31
0.0
0
LINE
8
0
10
632.55896
20
447.7655
30
0.0
11
619.8692
21
444.96457
31
0.0
0
LINE
8
0
10
762.52795
20
-46.54196
30
0.0
11
804.73663
21
51.592316
31
0.0
0
LINE
8
0
10
804.73663
20
51.592316
30
0.0
11
824.9144
21
140.16843
31
0.0
0
LINE
8
0
10
824.9144
20
140.16843
30
0.0
11
828.1402
21
217.3559
31
0.0
0
LINE
8
0
10
828.1402
20
217.3559
30
0.0
11
818.94366
21
282.40668
31
0.0
0
LINE
8
0
10
818.94366
20
282.40668
30
0.0
11
801.22815
21
335.39276
31
0.0
0
LINE
8
0
10
801.22815
20
335.39276
30
0.0
11
778.2473
21
376.9763
31
0.0
0
LINE
8
0
10
778.2473
20
376.9763
30
0.0
11
752.62
21
408.21222
31
0.0
0
LINE
8
0
10
752.62
20
408.21222
30
0.0
11
726.37396
21
430.3864
31
0.0
0
LINE
8
0
10
726.37396
20
430.3864
30
0.0
11
701.00684
21
444.88672
31
0.0
0
LINE
8
0
10
701.00684
20
444.88672
30
0.0
11
677.5573
21
453.1046
31
0.0
0
LINE
8
0
10
677.5573
20
453.1046
30
0.0
11
656.67957
21
456.36395
31
0.0
0
LINE
8
0
10
656.67957
20
456.36395
30
0.0
11
638.7168
21
455.8726
31
0.0
0
LINE
8
0
10
638.7168
20
455.8726
30
0.0
11
623.7699
21
452.69363
31
0.0
0
LINE
8
0
10
623.7699
20
452.69363
30
0.0
11
611.75934
21
447.73172
31
0.0
0
LINE
8
0
10
837.6
20
-11.535339
30
0.0
11
862.1266
21
92.43753
31
0.0
0
LINE
8
0
10
862.1266
20
92.43753
30
0.0
11
866.61676
21
183.17181
31
0.0
0
LINE
8
0
10
866.61676
20
183.17181
30
0.0
11
856.39014
21
259.74692
31
0.0
0
LINE
8
0
10
856.39014
20
259.74692
30
0.0
11
836.0373
21
322.21234
31
0.0
0
LINE
8
0
10
836.0373
20
322.21234
30
0.0
11
809.39
21
371.3172
31
0.0
0
LINE
8
0
10
809.39
20
371.3172
30
0.0
11
779.53735
21
408.27838
31
0.0
0
LINE
8
0
10
779.53735
20
408.27838
30
0.0
11
748.87537
21
434.58963
31
0.0
0
LINE
8
0
10
748.87537
20
434.58963
30
0.0
11
719.17755
21
451.8694
31
0.0
0
LINE
8
0
10
719.17755
20
451.8694
30
0.0
11
691.67786
21
461.74445
31
0.0
0
LINE
8
0
10
691.67786
20
461.74445
30
0.0
11
667.15753
21
465.76553
31
0.0
0
LINE
8
0
10
667.15753
20
465.76553
30
0.0
11
646.031
21
465.34998
31
0.0
0
LINE
8
0
10
646.031
20
465.34998
30
0.0
11
628.42645
21
461.74686
31
0.0
0
LINE
8
0
10
628.42645
20
461.74686
30
0.0
11
614.25867
21
456.0207
31
0.0
0
LINE
8
0
10
614.25867
20
456.0207
30
0.0
11
603.2922
21
449.04855
31
0.0
0
LINE
8
0
10
905.45264
20
35.975616
30
0.0
11
911.5519
21
142.6279
31
0.0
0
LINE
8
0
10
911.5519
20
142.6279
30
0.0
11
900.218
21
232.76343
31
0.0
0
LINE
8
0
10
900.218
20
232.76343
30
0.0
11
876.8497
21
306.39935
31
0.0
0
LINE
8
0
10
876.8497
20
306.39935
30
0.0
11
845.95905
21
364.38153
31
0.0
0
LINE
8
0
10
845.95905
20
364.38153
30
0.0
11
811.18964
21
408.11313
31
0.0
0
LINE
8
0
10
811.18964
20
408.11313
30
0.0
11
775.37225
21
439.32895
31
0.0
0
LINE
8
0
10
775.37225
20
439.32895
30
0.0
11
740.6072
21
459.91608
31
0.0
0
LINE
8
0
10
740.6072
20
459.91608
30
0.0
11
708.3599
21
471.7763
31
0.0
0
LINE
8
0
10
708.3599
20
471.7763
30
0.0
11
679.56323
21
476.72607
31
0.0
0
LINE
8
0
10
679.56323
20
476.72607
30
0.0
11
654.71716
21
476.4282
31
0.0
0
LINE
8
0
10
654.71716
20
476.4282
30
0.0
11
633.98376
21
472.35034
31
0.0
0
LINE
8
0
10
633.98376
20
472.35034
30
0.0
11
617.27234
21
465.745
31
0.0
0
LINE
8
0
10
617.27234
20
465.745
30
0.0
11
604.31415
21
457.6456
31
0.0
0
LINE
8
0
10
604.31415
20
457.6456
30
0.0
11
594.725
21
448.87506
31
0.0
0
LINE
8
0
10
964.0243
20
94.54724
30
0.0
11
951.511
21
200.63837
31
0.0
0
LINE
8
0
10
951.511
20
200.63837
30
0.0
11
924.6974
21
287.43658
31
0.0
0
LINE
8
0
10
924.6974
20
287.43658
30
0.0
11
888.8973
21
355.89578
31
0.0
0
LINE
8
0
10
888.8973
20
355.89578
30
0.0
11
848.4075
21
407.633
31
0.0
0
LINE
8
0
10
848.4075
20
407.633
30
0.0
11
806.5723
21
444.66257
31
0.0
0
LINE
8
0
10
806.5723
20
444.66257
30
0.0
11
765.87854
21
469.18454
31
0.0
0
LINE
8
0
10
765.87854
20
469.18454
30
0.0
11
728.0667
21
483.422
31
0.0
0
LINE
8
0
10
728.0667
20
483.422
30
0.0
11
694.2499
21
489.50238
31
0.0
0
LINE
8
0
10
694.2499
20
489.50238
30
0.0
11
665.0311
21
489.37646
31
0.0
0
LINE
8
0
10
665.0311
20
489.37646
30
0.0
11
640.61426
21
484.76862
31
0.0
0
LINE
8
0
10
640.61426
20
484.76862
30
0.0
11
620.904
21
477.1524
31
0.0
0
LINE
8
0
10
620.904
20
477.1524
30
0.0
11
605.59344
21
467.74548
31
0.0
0
LINE
8
0
10
605.59344
20
467.74548
30
0.0
11
594.2385
21
457.51898
31
0.0
0
LINE
8
0
10
594.2385
20
457.51898
30
0.0
11
586.31805
21
447.21655
31
0.0
0
LINE
8
0
10
1011.5353
20
162.39989
30
0.0
11
980.7895
21
264.70636
31
0.0
0
LINE
8
0
10
980.7895
20
264.70636
30
0.0
11
939.311
21
345.5298
31
0.0
0
LINE
8
0
10
939.311
20
345.5298
30
0.0
11
892.1669
21
406.7323
31
0.0
0
LINE
8
0
10
892.1669
20
406.7323
30
0.0
11
843.3081
21
450.65253
31
0.0
0
LINE
8
0
10
843.3081
20
450.65253
30
0.0
11
795.67847
21
479.85495
31
0.0
0
LINE
8
0
10
795.67847
20
479.85495
30
0.0
11
751.3447
21
496.938
31
0.0
0
LINE
8
0
10
751.3447
20
496.938
30
0.0
11
711.635
21
504.3932
31
0.0
0
LINE
8
0
10
711.635
20
504.3932
30
0.0
11
677.2761
21
504.50894
31
0.0
0
LINE
8
0
10
677.2761
20
504.50894
30
0.0
11
648.52313
21
499.31116
31
0.0
0
LINE
8
0
10
648.52313
20
499.31116
30
0.0
11
625.27734
21
490.5334
31
0.0
0
LINE
8
0
10
625.27734
20
490.5334
30
0.0
11
607.189
21
479.61023
31
0.0
0
LINE
8
0
10
607.189
20
479.61023
30
0.0
11
593.7446
21
467.68756
31
0.0
0
LINE
8
0
10
593.7446
20
467.68756
30
0.0
11
584.33795
21
455.64465
31
0.0
0
LINE
8
0
10
584.33795
20
455.64465
30
0.0
11
578.32684
21
444.12338
31
0.0
0
LINE
8
0
10
1046.542
20
237.47191
30
0.0
11
998.4979
21
332.88535
31
0.0
0
LINE
8
0
10
998.4979
20
332.88535
30
0.0
11
943.61475
21
405.278
31
0.0
0
LINE
8
0
10
943.61475
20
405.278
30
0.0
11
886.5592
21
457.36426
31
0.0
0
LINE
8
0
10
886.5592
20
457.36426
30
0.0
11
830.81604
21
492.133
31
0.0
0
LINE
8
0
10
830.81604
20
492.133
30
0.0
11
778.839
21
512.621
31
0.0
0
LINE
8
0
10
778.839
20
512.621
30
0.0
11
732.2124
21
521.746
31
0.0
0
LINE
8
0
10
732.2124
20
521.746
30
0.0
11
691.81134
21
522.1924
31
0.0
0
LINE
8
0
10
691.81134
20
522.1924
30
0.0
11
657.95435
21
516.3401
31
0.0
0
LINE
8
0
10
657.95435
20
516.3401
30
0.0
11
630.5407
21
506.22836
31
0.0
0
LINE
8
0
10
630.5407
20
506.22836
30
0.0
11
609.17236
21
493.54736
31
0.0
0
LINE
8
0
10
609.17236
20
493.54736
30
0.0
11
593.2556
21
479.6491
31
0.0
0
LINE
8
0
10
593.2556
20
479.6491
30
0.0
11
582.0858
21
465.573
31
0.0
0
LINE
8
0
10
582.0858
20
465.573
30
0.0
11
574.9133
21
452.07962
31
0.0
0
LINE
8
0
10
574.9133
20
452.07962
30
0.0
11
570.99414
21
439.68954
31
0.0
0
LINE
8
0
10
1067.9807
20
317.48224
30
0.0
11
1004.0982
21
403.1034
31
0.0
0
LINE
8
0
10
1004.0982
20
403.1034
30
0.0
11
937.4779
21
464.8659
31
0.0
0
LINE
8
0
10
937.4779
20
464.8659
30
0.0
11
872.2445
21
506.25323
31
0.0
0
LINE
8
0
10
872.2445
20
506.25323
30
0.0
11
811.31067
21
530.8141
31
0.0
0
LINE
8
0
10
811.31067
20
530.8141
30
0.0
11
756.5656
21
541.9651
31
0.0
0
LINE
8
0
10
756.5656
20
541.9651
30
0.0
11
709.0628
21
542.85486
31
0.0
0
LINE
8
0
10
709.0628
20
542.85486
30
0.0
11
669.19806
21
536.27893
31
0.0
0
LINE
8
0
10
669.19806
20
536.27893
30
0.0
11
636.8716
21
524.6363
31
0.0
0
LINE
8
0
10
636.8716
20
524.6363
30
0.0
11
611.6304
21
509.91785
31
0.0
0
LINE
8
0
10
611.6304
20
509.91785
30
0.0
11
592.7887
21
493.71893
31
0.0
0
LINE
8
0
10
592.7887
20
493.71893
30
0.0
11
579.5272
21
477.26794
31
0.0
0
LINE
8
0
10
579.5272
20
477.26794
30
0.0
11
570.9713
21
461.46606
31
0.0
0
LINE
8
0
10
570.9713
20
461.46606
30
0.0
11
566.2509
21
446.93216
31
0.0
0
LINE
8
0
10
566.2509
20
446.93216
30
0.0
11
564.5428
21
434.04974
31
0.0
0
LINE
8
0
10
1075.2001
20
400.0
30
0.0
11
997.42017
21
326.77292
31
0.0
0
LINE
8
0
10
997.42017
20
326.77292
30
0.0
11
921.08704
21
277.51715
31
0.0
0
LINE
8
0
10
921.08704
20
277.51715
30
0.0
11
849.65784
21
248.08627
31
0.0
0
LINE
8
0
10
849.65784
20
248.08627
30
0.0
11
785.38477
21
234.47961
31
0.0
0
LINE
8
0
10
785.38477
20
234.47961
30
0.0
11
729.53503
21
233.00436
31
0.0
0
LINE
8
0
10
729.53503
20
233.00436
30
0.0
11
682.5994
21
240.37688
31
0.0
0
LINE
8
0
10
682.5994
20
240.37688
30
0.0
11
644.4822
21
253.77534
31
0.0
0
LINE
8
0
10
644.4822
20
253.77534
30
0.0
11
614.6686
21
270.85455
31
0.0
0
LINE
8
0
10
614.6686
20
270.85455
30
0.0
11
592.36664
21
289.73245
31
0.0
0
LINE
8
0
10
592.36664
20
289.73245
30
0.0
11
576.62415
21
308.95712
31
0.0
0
LINE
8
0
10
576.62415
20
308.95712
30
0.0
11
566.4208
21
327.461
31
0.0
0
LINE
8
0
10
566.4208
20
327.461
30
0.0
11
560.7389
21
344.50854
31
0.0
0
LINE
8
0
10
560.7389
20
344.50854
30
0.0
11
558.614
21
359.6413
31
0.0
0
LINE
8
0
10
558.614
20
359.6413
30
0.0
11
559.1688
21
372.62463
31
0.0
0
LINE
8
0
10
1067.9807
20
482.51764
30
0.0
11
1004.0982
21
396.8967
31
0.0
0
LINE
8
0
10
1004.0982
20
396.8967
30
0.0
11
937.47797
21
335.13416
31
0.0
0
LINE
8
0
10
937.47797
20
335.13416
30
0.0
11
872.2445
21
293.7468
31
0.0
0
LINE
8
0
10
872.2445
20
293.7468
30
0.0
11
811.31067
21
269.18597
31
0.0
0
LINE
8
0
10
811.31067
20
269.18597
30
0.0
11
756.5656
21
258.03494
31
0.0
0
LINE
8
0
10
756.5656
20
258.03494
30
0.0
11
709.0628
21
257.14514
31
0.0
0
LINE
8
0
10
709.0628
20
257.14514
30
0.0
11
669.19806
21
263.72107
31
0.0
0
LINE
8
0
10
669.19806
20
263.72107
30
0.0
11
636.8716
21
275.3637
31
0.0
0
LINE
8
0
10
636.8716
20
275.3637
30
0.0
11
611.6304
21
290.08215
31
0.0
0
LINE
8
0
10
611.6304
20
290.08215
30
0.0
11
592.7887
21
306.28107
31
0.0
0
LINE
8
0
10
592.7887
20
306.28107
30
0.0
11
579.52716
21
322.73206
31
0.0
0
LINE
8
0
10
579.52716
20
322.73206
30
0.0
11
570.9714
21
338.53394
31
0.0
0
LINE
8
0
10
570.9714
20
338.53394
30
0.0
11
566.2509
21
353.06784
31
0.0
0
LINE
8
0
10
566.2509
20
353.06784
30
0.0
11
564.5428
21
365.95026
31
0.0
0
LINE
8
0
10
1046.542
20
562.52795
30
0.0
11
998.4979
21
467.11475
31
0.0
0
LINE
8
0
10
998.4979
20
467.11475
30
0.0
11
943.61475
21
394.72205
31
0.0
0
LINE
8
0
10
943.61475
20
394.72205
30
0.0
11
886.5592
21
342.6358
31
0.0
0
LINE
8
0
10
886.5592
20
342.6358
30
0.0
11
830.81604
21
307.86703
31
0.0
0
LINE
8
0
10
830.81604
20
307.86703
30
0.0
11
778.839
21
287.37903
31
0.0
0
LINE
8
0
10
778.839
20
287.37903
30
0.0
11
732.2124
21
278.254
31
0.0
0
LINE
8
0
10
732.2124
20
278.254
30
0.0
11
691.81134
21
277.8076
31
0.0
0
LINE
8
0
10
691.81134
20
277.8076
30
0.0
11
657.9543
21
283.6599
31
0.0
0
LINE
8
0
10
657.9543
20
283.6599
30
0.0
11
630.5407
21
293.77164
31
0.0
0
LINE
8
0
10
630.5407
20
293.77164
30
0.0
11
609.17236
21
306.45264
31
0.0
0
LINE
8
0
10
609.17236
20
306.45264
30
0.0
11
593.2557
21
320.3509
31
0.0
0
LINE
8
0
10
593.2557
20
320.3509
30
0.0
11
582.0858
21
334.42697
31
0.0
0
LINE
8
0
10
582.0858
20
334.42697
30
0.0
11
574.9133
21
347.92038
31
0.0
0
LINE
8
0
10
574.9133
20
347.92038
30
0.0
11
570.99414
21
360.31046
31
0.0
0
LINE
8
0
10
1011.5353
20
637.60004
30
0.0
11
980.78955
21
535.2936
31
0.0
0
LINE
8
0
10
980.78955
20
535.2936
30
0.0
11
939.311
21
454.4703
31
0.0
0
LINE
8
0
10
939.311
20
454.4703
30
0.0
11
892.1669
21
393.26776
31
0.0
0
LINE
8
0
10
892.1669
20
393.26776
30
0.0
11
843.3081
21
349.34753
31
0.0
0
LINE
8
0
10
843.3081
20
349.34753
30
0.0
11
795.67847
21
320.14508
31
0.0
0
LINE
8
0
10
795.67847
20
320.14508
30
0.0
11
751.3447
21
303.06204
31
0.0
0
LINE
8
0
10
751.3447
20
303.06204
30
0.0
11
711.635
21
295.60684
31
0.0
0
LINE
8
0
10
711.635
20
295.60684
30
0.0
11
677.2761
21
295.49106
31
0.0
0
LINE
8
0
10
677.2761
20
295.49106
30
0.0
11
648.52313
21
300.68884
31
0.0
0
LINE
8
0
10
648.52313
20
300.68884
30
0.0
11
625.27734
21
309.4666
31
0.0
0
LINE
8
0
10
625.27734
20
309.4666
30
0.0
11
607.189
21
320.38977
31
0.0
0
LINE
8
0
10
607.189
20
320.38977
30
0.0
11
593.7446
21
332.3124
31
0.0
0
LINE
8
0
10
593.7446
20
332.3124
30
0.0
11
584.338
21
344.35535
31
0.0
0
LINE
8
0
10
584.338
20
344.35535
30
0.0
11
578.32684
21
355.87662
31
0.0
0
LINE
8
0
10
964.02435
20
705.4527
30
0.0
11
951.511
21
599.3616
31
0.0
0
LINE
8
0
10
951.511
20
599.3616
30
0.0
11
924.6974
21
512.5635
31
0.0
0
LINE
8
0
10
924.6974
20
512.5635
30
0.0
11
888.8972
21
444.10428
31
0.0
0
LINE
8
0
10
888.8972
20
444.10428
30
0.0
11
848.4075
21
392.36707
31
0.0
0
LINE
8
0
10
848.4075
20
392.36707
30
0.0
11
806.5723
21
355.33746
31
0.0
0
LINE
8
0
10
806.5723
20
355.33746
30
0.0
11
765.8786
21
330.8155
31
0.0
0
LINE
8
0
10
765.8786
20
330.8155
30
0.0
11
728.0667
21
316.57803
31
0.0
0
LINE
8
0
10
728.0667
20
316.57803
30
0.0
11
694.2499
21
310.49762
31
0.0
0
LINE
8
0
10
694.2499
20
310.49762
30
0.0
11
665.0311
21
310.62354
31
0.0
0
LINE
8
0
10
665.0311
20
310.62354
30
0.0
11
640.6143
21
315.23138
31
0.0
0
LINE
8
0
10
640.6143
20
315.23138
30
0.0
11
620.904
21
322.8476
31
0.0
0
LINE
8
0
10
620.904
20
322.8476
30
0.0
11
605.5935
21
332.25452
31
0.0
0
LINE
8
0
10
605.5935
20
332.25452
30
0.0
11
594.2385
21
342.48102
31
0.0
0
LINE
8
0
10
594.2385
20
342.48102
30
0.0
11
586.31805
21
352.78345
31
0.0
0
LINE
8
0
10
905.4527
20
764.02435
30
0.0
11
911.552
21
657.3721
31
0.0
0
LINE
8
0
10
911.552
20
657.3721
30
0.0
11
900.2181
21
567.2365
31
0.0
0
LINE
8
0
10
900.2181
20
567.2365
30
0.0
11
876.8496
21
493.6007
31
0.0
0
LINE
8
0
10
876.8496
20
493.6007
30
0.0
11
845.95905
21
435.6185
31
0.0
0
LINE
8
0
10
845.95905
20
435.6185
30
0.0
11
811.18964
21
391.8869
31
0.0
0
LINE
8
0
10
811.18964
20
391.8869
30
0.0
11
775.3723
21
360.67105
31
0.0
0
LINE
8
0
10
775.3723
20
360.67105
30
0.0
11
740.6072
21
340.08395
31
0.0
0
LINE
8
0
10
740.6072
20
340.08395
30
0.0
11
708.36
21
328.2237
31
0.0
0
LINE
8
0
10
708.36
20
328.2237
30
0.0
11
679.56323
21
323.27393
31
0.0
0
LINE
8
0
10
679.56323
20
323.27393
30
0.0
11
654.71716
21
323.5718
31
0.0
0
LINE
8
0
10
654.71716
20
323.5718
30
0.0
11
633.98376
21
327.64966
31
0.0
0
LINE
8
0
10
633.98376
20
327.64966
30
0.0
11
617.2724
21
334.255
31
0.0
0
LINE
8
0
10
617.2724
20
334.255
30
0.0
11
604.31415
21
342.3544
31
0.0
0
LINE
8
0
10
604.31415
20
342.3544
30
0.0
11
594.725
21
351.12494
31
0.0
0
LINE
8
0
10
837.6
20
811.53534
30
0.0
11
862.1266
21
707.5624
31
0.0
0
LINE
8
0
10
862.1266
20
707.5624
30
0.0
11
866.6168
21
616.8281
31
0.0
0
LINE
8
0
10
866.6168
20
616.8281
30
0.0
11
856.3901
21
540.2532
31
0.0
0
LINE
8
0
10
856.3901
20
540.2532
30
0.0
11
836.0373
21
477.78772
31
0.0
0
LINE
8
0
10
836.0373
20
477.78772
30
0.0
11
809.39
21
428.68283
31
0.0
0
LINE
8
0
10
809.39
20
428.68283
30
0.0
11
779.53735
21
391.72162
31
0.0
0
LINE
8
0
10
779.53735
20
391.72162
30
0.0
11
748.87537
21
365.41037
31
0.0
0
LINE
8
0
10
748.87537
20
365.41037
30
0.0
11
719.17755
21
348.13065
31
0.0
0
LINE
8
0
10
719.17755
20
348.13065
30
0.0
11
691.67786
21
338.25558
31
0.0
0
LINE
8
0
10
691.67786
20
338.25558
30
0.0
11
667.15753
21
334.23447
31
0.0
0
LINE
8
0
10
667.15753
20
334.23447
30
0.0
11
646.031
21
334.65005
31
0.0
0
LINE
8
0
10
646.031
20
334.65005
30
0.0
11
628.42645
21
338.25314
31
0.0
0
LINE
8
0
10
628.42645
20
338.25314
30
0.0
11
614.25867
21
343.9793
31
0.0
0
LINE
8
0
10
614.25867
20
343.9793
30
0.0
11
603.2922
21
350.95145
31
0.0
0
LINE
8
0
10
762.52795
20
846.542
30
0.0
11
804.7367
21
748.40765
31
0.0
0
LINE
8
0
10
804.7367
20
748.40765
30
0.0
11
824.9145
21
659.83154
31
0.0
0
LINE
8
0
10
824.9145
20
659.83154
30
0.0
11
828.14026
21
582.64404
31
0.0
0
LINE
8
0
10
828.14026
20
582.64404
30
0.0
11
818.9436
21
517.5934
31
0.0
0
LINE
8
0
10
818.9436
20
517.5934
30
0.0
11
801.22815
21
464.60727
31
0.0
0
LINE
8
0
10
801.22815
20
464.60727
30
0.0
11
778.2473
21
423.02374
31
0.0
0
LINE
8
0
10
778.2473
20
423.02374
30
0.0
11
752.62
21
391.7878
31
0.0
0
LINE
8
0
10
752.62
20
391.7878
30
0.0
11
726.37396
21
369.61362
31
0.0
0
LINE
8
0
10
726.37396
20
369.61362
30
0.0
11
701.00684
21
355.11328
31
0.0
0
LINE
8
0
10
701.00684
20
355.11328
30
0.0
11
677.5573
21
346.8954
31
0.0
0
LINE
8
0
10
677.5573
20
346.8954
30
0.0
11
656.67957
21
343.63605
31
0.0
0
LINE
8
0
10
656.67957
20
343.63605
30
0.0
11
638.71686
21
344.12744
31
0.0
0
LINE
8
0
10
638.71686
20
344.12744
30
0.0
11
623.7699
21
347.3064
31
0.0
0
LINE
8
0
10
623.7699
20
347.3064
30
0.0
11
611.75934
21
352.26828
31
0.0
0
LINE
8
0
10
682.51764
20
867.9807
30
0.0
11
741.1259
21
778.66675
31
0.0
0
LINE
8
0
10
741.1259
20
778.66675
30
0.0
11
776.3783
21
694.94006
31
0.0
0
LINE
8
0
10
776.3783
20
694.94006
30
0.0
11
792.9585
21
619.4854
31
0.0
0
LINE
8
0
10
792.9585
20
619.4854
30
0.0
11
795.1975
21
553.82605
31
0.0
0
LINE
8
0
10
795.1975
20
553.82605
30
0.0
11
786.95215
21
498.56863
31
0.0
0
LINE
8
0
10
786.95215
20
498.56863
30
0.0
11
771.5413
21
453.62628
31
0.0
0
LINE
8
0
10
771.5413
20
453.62628
30
0.0
11
751.7274
21
418.41473
31
0.0
0
LINE
8
0
10
751.7274
20
418.41473
30
0.0
11
729.7306
21
392.01987
31
0.0
0
LINE
8
0
10
729.7306
20
392.01987
30
0.0
11
707.26685
21
373.33487
31
0.0
0
LINE
8
0
10
707.26685
20
373.33487
30
0.0
11
685.6006
21
361.16983
31
0.0
0
LINE
8
0
10
685.6006
20
361.16983
30
0.0
11
665.606
21
354.33466
31
0.0
0
LINE
8
0
10
665.606
20
354.33466
30
0.0
11
647.8308
21
351.69937
31
0.0
0
LINE
8
0
10
647.8308
20
351.69937
30
0.0
11
632.55896
21
352.23453
31
0.0
0
LINE
8
0
10
632.55896
20
352.23453
30
0.0
11
619.8692
21
355.03543
31
0.0
0
LINE
8
0
10
600.0
20
875.2001
30
0.0
11
673.2271
21
797.42017
31
0.0
0
LINE
8
0
10
673.2271
20
797.42017
30
0.0
11
722.48285
21
721.08704
31
0.0
0
LINE
8
0
10
722.48285
20
721.08704
30
0.0
11
751.91376
21
649.65784
31
0.0
0
LINE
8
0
10
751.91376
20
649.65784
30
0.0
11
765.5204
21
585.38477
31
0.0
0
LINE
8
0
10
765.5204
20
585.38477
30
0.0
11
766.99567
21
529.53503
31
0.0
0
LINE
8
0
10
766.99567
20
529.53503
30
0.0
11
759.6231
21
482.5994
31
0.0
0
LINE
8
0
10
759.6231
20
482.5994
30
0.0
11
746.2247
21
444.48218
31
0.0
0
LINE
8
0
10
746.2247
20
444.48218
30
0.0
11
729.14545
21
414.66858
31
0.0
0
LINE
8
0
10
729.14545
20
414.66858
30
0.0
11
710.2676
21
392.36667
31
0.0
0
LINE
8
0
10
710.2676
20
392.36667
30
0.0
11
691.0429
21
376.62415
31
0.0
0
LINE
8
0
10
691.0429
20
376.62415
30
0.0
11
672.539
21
366.42078
31
0.0
0
LINE
8
0
10
672.539
20
366.42078
30
0.0
11
655.49146
21
360.7389
31
0.0
0
LINE
8
0
10
655.49146
20
360.7389
30
0.0
11
640.3587
21
358.61398
31
0.0
0
LINE
8
0
10
640.3587
20
358.61398
30
0.0
11
627.37537
21
359.1688
31
0.0
0
LINE
8
0
10
517.48236
20
867.9807
30
0.0
11
603.10333
21
804.0982
31
0.0
0
LINE
8
0
10
603.10333
20
804.0982
30
0.0
11
664.86584
21
737.47797
31
0.0
0
LINE
8
0
10
664.86584
20
737.47797
30
0.0
11
706.25323
21
672.2445
31
0.0
0
LINE
8
0
10
706.25323
20
672.2445
30
0.0
11
730.8141
21
611.31067
31
0.0
0
LINE
8
0
10
730.8141
20
611.31067
30
0.0
11
741.9651
21
556.5656
31
0.0
0
LINE
8
0
10
741.9651
20
556.5656
30
0.0
11
742.85486
21
509.06277
31
0.0
0
LINE
8
0
10
742.85486
20
509.06277
30
0.0
11
736.27893
21
469.19803
31
0.0
0
LINE
8
0
10
736.27893
20
469.19803
30
0.0
11
724.6363
21
436.87158
31
0.0
0
LINE
8
0
10
724.6363
20
436.87158
30
0.0
11
709.91785
21
411.6304
31
0.0
0
LINE
8
0
10
709.91785
20
411.6304
30
0.0
11
693.71893
21
392.7887
31
0.0
0
LINE
8
0
10
693.71893
20
392.7887
30
0.0
11
677.26794
21
379.5272
31
0.0
0
LINE
8
0
10
677.26794
20
379.5272
30
0.0
11
661.46606
21
370.97134
31
0.0
0
LINE
8
0
10
661.46606
20
370.97134
30
0.0
11
646.9322
21
366.25095
31
0.0
0
LINE
8
0
10
646.9322
20
366.25095
30
0.0
11
634.04974
21
364.54282
31
0.0
0
LINE
8
0
10
437.47202
20
846.542
30
0.0
11
532.88525
21
798.4979
31
0.0
0
LINE
8
0
10
532.88525
20
798.4979
30
0.0
11
605.278
21
743.61475
31
0.0
0
LINE
8
0
10
605.278
20
743.61475
30
0.0
11
657.36426
21
686.5592
31
0.0
0
LINE
8
0
10
657.36426
20
686.5592
30
0.0
11
692.133
21
630.81604
31
0.0
0
LINE
8
0
10
692.133
20
630.81604
30
0.0
11
712.621
21
578.839
31
0.0
0
LINE
8
0
10
712.621
20
578.839
30
0.0
11
721.74603
21
532.21234
31
0.0
0
LINE
8
0
10
721.74603
20
532.21234
30
0.0
11
722.19244
21
491.81134
31
0.0
0
LINE
8
0
10
722.19244
20
491.81134
30
0.0
11
716.3401
21
457.95428
31
0.0
0
LINE
8
0
10
716.3401
20
457.95428
30
0.0
11
706.2284
21
430.54074
31
0.0
0
LINE
8
0
10
706.2284
20
430.54074
30
0.0
11
693.54736
21
409.17236
31
0.0
0
LINE
8
0
10
693.54736
20
409.17236
30
0.0
11
679.6491
21
393.25565
31
0.0
0
LINE
8
0
10
679.6491
20
393.25565
30
0.0
11
665.573
21
382.08582
31
0.0
0
LINE
8
0
10
665.573
20
382.08582
30
0.0
11
652.0796
21
374.91336
31
0.0
0
LINE
8
0
10
652.0796
20
374.91336
30
0.0
11
639.6895
21
370.99417
31
0.0
0
LINE
8
0
10
362.39996
20
811.5353
30
0.0
11
464.70642
21
780.78955
31
0.0
0
LINE
8
0
10
464.70642
20
780.78955
30
0.0
11
545.5297
21
739.311
31
0.0
0
LINE
8
0
10
545.5297
20
739.311
30
0.0
11
606.73224
21
692.1669
31
0.0
0
LINE
8
0
10
606.73224
20
692.1669
30
0.0
11
650.6525
21
643.3081
31
0.0
0
LINE
8
0
10
650.6525
20
643.3081
30
0.0
11
679.855
21
595.67847
31
0.0
0
LINE
8
0
10
679.855
20
595.67847
30
0.0
11
696.938
21
551.3447
31
0.0
0
LINE
8
0
10
696.938
20
551.3447
30
0.0
11
704.3932
21
511.635
31
0.0
0
LINE
8
0
10
704.3932
20
511.635
30
0.0
11
704.509
21
477.27606
31
0.0
0
LINE
8
0
10
704.509
20
477.27606
30
0.0
11
699.31116
21
448.5231
31
0.0
0
LINE
8
0
10
699.31116
20
448.5231
30
0.0
11
690.5334
21
425.27734
31
0.0
0
LINE
8
0
10
690.5334
20
425.27734
30
0.0
11
679.6102
21
407.18903
31
0.0
0
LINE
8
0
10
679.6102
20
407.18903
30
0.0
11
667.68756
21
393.74463
31
0.0
0
LINE
8
0
10
667.68756
20
393.74463
30
0.0
11
655.64465
21
384.338
31
0.0
0
LINE
8
0
10
655.64465
20
384.338
30
0.0
11
644.12335
21
378.32684
31
0.0
0
LINE
8
0
10
294.5473
20
764.02435
30
0.0
11
400.63843
21
751.511
31
0.0
0
LINE
8
0
10
400.63843
20
751.511
30
0.0
11
487.43652
21
724.6974
31
0.0
0
LINE
8
0
10
487.43652
20
724.6974
30
0.0
11
555.89575
21
688.8973
31
0.0
0
LINE
8
0
10
555.89575
20
688.8973
30
0.0
11
607.63293
21
648.4075
31
0.0
0
LINE
8
0
10
607.63293
20
648.4075
30
0.0
11
644.6626
21
606.5723
31
0.0
0
LINE
8
0
10
644.6626
20
606.5723
30
0.0
11
669.1846
21
565.87854
31
0.0
0
LINE
8
0
10
669.1846
20
565.87854
30
0.0
11
683.422
21
528.0667
31
0.0
0
LINE
8
0
10
683.422
20
528.0667
30
0.0
11
689.5024
21
494.24988
31
0.0
0
LINE
8
0
10
689.5024
20
494.24988
30
0.0
11
689.37646
21
465.03113
31
0.0
0
LINE
8
0
10
689.37646
20
465.03113
30
0.0
11
684.7686
21
440.6143
31
0.0
0
LINE
8
0
10
684.7686
20
440.6143
30
0.0
11
677.1524
21
420.904
31
0.0
0
LINE
8
0
10
677.1524
20
420.904
30
0.0
11
667.7455
21
405.59348
31
0.0
0
LINE
8
0
10
667.7455
20
405.59348
30
0.0
11
657.519
21
394.23853
31
0.0
0
LINE
8
0
10
657.519
20
394.23853
30
0.0
11
647.21655
21
386.31805
31
0.0
0
LINE
8
0
10
235.97565
20
705.4527
30
0.0
11
342.62793
21
711.552
31
0.0
0
LINE
8
0
10
342.62793
20
711.552
30
0.0
11
432.76355
21
700.21814
31
0.0
0
LINE
8
0
10
432.76355
20
700.21814
30
0.0
11
506.39932
21
676.8496
31
0.0
0
LINE
8
0
10
506.39932
20
676.8496
30
0.0
11
564.38153
21
645.95905
31
0.0
0
LINE
8
0
10
564.38153
20
645.95905
30
0.0
11
608.11316
21
611.18964
31
0.0
0
LINE
8
0
10
608.11316
20
611.18964
30
0.0
11
639.329
21
575.37225
31
0.0
0
LINE
8
0
10
639.329
20
575.37225
30
0.0
11
659.9161
21
540.6072
31
0.0
0
LINE
8
0
10
659.9161
20
540.6072
30
0.0
11
671.7763
21
508.35992
31
0.0
0
LINE
8
0
10
671.7763
20
508.35992
30
0.0
11
676.7261
21
479.56323
31
0.0
0
LINE
8
0
10
676.7261
20
479.56323
30
0.0
11
676.4282
21
454.71716
31
0.0
0
LINE
8
0
10
676.4282
20
454.71716
30
0.0
11
672.35034
21
433.98376
31
0.0
0
LINE
8
0
10
672.35034
20
433.98376
30
0.0
11
665.745
21
417.27237
31
0.0
0
LINE
8
0
10
665.745
20
417.27237
30
0.0
11
657.6456
21
404.31415
31
0.0
0
LINE
8
0
10
657.6456
20
404.31415
30
0.0
11
648.87506
21
394.72498
31
0.0
0
LINE
8
0
10
188.46469
20
637.60004
30
0.0
11
292.4376
21
662.1266
31
0.0
0
LINE
8
0
10
292.4376
20
662.1266
30
0.0
11
383.17188
21
666.61676
31
0.0
0
LINE
8
0
10
383.17188
20
666.61676
30
0.0
11
459.7469
21
656.39014
31
0.0
0
LINE
8
0
10
459.7469
20
656.39014
30
0.0
11
522.2123
21
636.0373
31
0.0
0
LINE
8
0
10
522.2123
20
636.0373
30
0.0
11
571.3172
21
609.39
31
0.0
0
LINE
8
0
10
571.3172
20
609.39
30
0.0
11
608.2784
21
579.53735
31
0.0
0
LINE
8
0
10
608.2784
20
579.53735
30
0.0
11
634.58966
21
548.87537
31
0.0
0
LINE
8
0
10
634.58966
20
548.87537
30
0.0
11
651.8694
21
519.1775
31
0.0
0
LINE
8
0
10
651.8694
20
519.1775
30
0.0
11
661.74445
21
491.67783
31
0.0
0
LINE
8
0
10
661.74445
20
491.67783
30
0.0
11
665.76556
21
467.1575
31
0.0
0
LINE
8
0
10
665.76556
20
467.1575
30
0.0
11
665.35
21
446.031
31
0.0
0
LINE
8
0
10
665.35
20
446.031
30
0.0
11
661.7468
21
428.42645
31
0.0
0
LINE
8
0
10
661.7468
20
428.42645
30
0.0
11
656.0207
21
414.25864
31
0.0
0
LINE
8
0
10
656.0207
20
414.25864
30
0.0
11
649.0485
21
403.29218
31
0.0
0
LINE
8
0
10
153.45804
20
562.528
30
0.0
11
251.59235
21
604.7367
31
0.0
0
LINE
8
0
10
251.59235
20
604.7367
30
0.0
11
340.16846
21
624.9144
31
0.0
0
LINE
8
0
10
340.16846
20
624.9144
30
0.0
11
417.356
21
628.14026
31
0.0
0
LINE
8
0
10
417.356
20
628.14026
30
0.0
11
482.40665
21
618.94366
31
0.0
0
LINE
8
0
10
482.40665
20
618.94366
30
0.0
11
535.39276
21
601.22815
31
0.0
0
LINE
8
0
10
535.39276
20
601.22815
30
0.0
11
576.9763
21
578.2473
31
0.0
0
LINE
8
0
10
576.9763
20
578.2473
30
0.0
11
608.2122
21
552.62
31
0.0
0
LINE
8
0
10
608.2122
20
552.62
30
0.0
11
630.3864
21
526.37396
31
0.0
0
LINE
8
0
10
630.3864
20
526.37396
30
0.0
11
644.8867
21
501.00684
31
0.0
0
LINE
8
0
10
644.8867
20
501.00684
30
0.0
11
653.1046
21
477.5573
31
0.0
0
LINE
8
0
10
653.1046
20
477.5573
30
0.0
11
656.36395
21
456.67957
31
0.0
0
LINE
8
0
10
656.36395
20
456.67957
30
0.0
11
655.87256
21
438.71683
31
0.0
0
LINE
8
0
10
655.87256
20
438.71683
30
0.0
11
652.6936
21
423.7699
31
0.0
0
LINE
8
0
10
652.6936
20
423.7699
30
0.0
11
647.7317
21
411.75934
31
0.0
0
LINE
8
0
10
132.01932
20
482.51767
30
0.0
11
221.33331
21
541.1259
31
0.0
0
LINE
8
0
10
221.33331
20
541.1259
30
0.0
11
305.0599
21
576.37823
31
0.0
0
LINE
8
0
10
305.0599
20
576.37823
30
0.0
11
380.5146
21
592.95844
31
0.0
0
LINE
8
0
10
380.5146
20
592.95844
30
0.0
11
446.17398
21
595.1975
31
0.0
0
LINE
8
0
10
446.17398
20
595.1975
30
0.0
11
501.4314
21
586.95215
31
0.0
0
LINE
8
0
10
501.4314
20
586.95215
30
0.0
11
546.3737
21
571.5413
31
0.0
0
LINE
8
0
10
546.3737
20
571.5413
30
0.0
11
581.58527
21
551.7274
31
0.0
0
LINE
8
0
10
581.58527
20
551.7274
30
0.0
11
607.98016
21
529.7306
31
0.0
0
LINE
8
0
10
607.98016
20
529.7306
30
0.0
11
626.66516
21
507.2668
31
0.0
0
LINE
8
0
10
626.66516
20
507.2668
30
0.0
11
638.8302
21
485.60056
31
0.0
0
LINE
8
0
10
638.8302
20
485.60056
30
0.0
11
645.66534
21
465.606
31
0.0
0
LINE
8
0
10
645.66534
20
465.606
30
0.0
11
648.30066
21
447.8308
31
0.0
0
LINE
8
0
10
648.30066
20
447.8308
30
0.0
11
647.7655
21
432.55893
31
0.0
0
LINE
8
0
10
647.7655
20
432.55893
30
0.0
11
644.9646
21
419.8692
31
0.0
0
LINE
8
0
10
124.79996
20
399.99997
30
0.0
11
202.57983
21
473.22714
31
0.0
0
LINE
8
0
10
202.57983
20
473.22714
30
0.0
11
278.91293
21
522.48285
31
0.0
0
LINE
8
0
10
278.91293
20
522.48285
30
0.0
11
350.34216
21
551.91376
31
0.0
0
LINE
8
0
10
350.34216
20
551.91376
30
0.0
11
414.61526
21
565.52045
31
0.0
0
LINE
8
0
10
414.61526
20
565.52045
30
0.0
11
470.46497
21
566.99567
31
0.0
0
LINE
8
0
10
470.46497
20
566.99567
30
0.0
11
517.40063
21
559.6231
31
0.0
0
LINE
8
0
10
517.40063
20
559.6231
30
0.0
11
555.5178
21
546.2247
31
0.0
0
LINE
8
0
10
555.5178
20
546.2247
30
0.0
11
585.3314
21
529.14545
31
0.0
0
LINE
8
0
10
585.3314
20
529.14545
30
0.0
11
607.63336
21
510.26755
31
0.0
0
LINE
8
0
10
607.63336
20
510.26755
30
0.0
11
623.37585
21
491.04288
31
0.0
0
LINE
8
0
10
623.37585
20
491.04288
30
0.0
11
633.5792
21
472.539
31
0.0
0
LINE
8
0
10
633.5792
20
472.539
30
0.0
11
639.2611
21
455.49146
31
0.0
0
LINE
8
0
10
639.2611
20
455.49146
30
0.0
11
641.38605
21
440.3587
31
0.0
0
LINE
8
0
10
641.38605
20
440.3587
30
0.0
11
640.8312
21
427.37537
31
0.0
0
LINE
8
0
10
132.01932
20
317.48236
30
0.0
11
195.9018
21
403.1034
31
0.0
0
LINE
8
0
10
195.9018
20
403.1034
30
0.0
11
262.52206
21
464.8659
31
0.0
0
LINE
8
0
10
262.52206
20
464.8659
30
0.0
11
327.7555
21
506.25323
31
0.0
0
LINE
8
0
10
327.7555
20
506.25323
30
0.0
11
388.68933
21
530.8141
31
0.0
0
LINE
8
0
10
388.68933
20
530.8141
30
0.0
11
443.4344
21
541.9651
31
0.0
0
LINE
8
0
10
443.4344
20
541.9651
30
0.0
11
490.93723
21
542.85486
31
0.0
0
LINE
8
0
10
490.93723
20
542.85486
30
0.0
11
530.802
21
536.27893
31
0.0
0
LINE
8
0
10
530.802
20
536.27893
30
0.0
11
563.1284
21
524.6363
31
0.0
0
LINE
8
0
10
563.1284
20
524.6363
30
0.0
11
588.3696
21
509.91785
31
0.0
0
LINE
8
0
10
588.3696
20
509.91785
30
0.0
11
607.2113
21
493.71893
31
0.0
0
LINE
8
0
10
607.2113
20
493.71893
30
0.0
11
620.47284
21
477.26794
31
0.0
0
LINE
8
0
10
620.47284
20
477.26794
30
0.0
11
629.0287
21
461.46606
31
0.0
0
LINE
8
0
10
629.0287
20
461.46606
30
0.0
11
633.7491
21
446.93216
31
0.0
0
LINE
8
0
10
633.7491
20
446.93216
30
0.0
11
635.4572
21
434.04974
31
0.0
0
LINE
8
0
10
153.45804
20
237.47202
30
0.0
11
201.50204
21
332.88522
31
0.0
0
LINE
8
0
10
201.50204
20
332.88522
30
0.0
11
256.38525
21
405.278
31
0.0
0
LINE
8
0
10
256.38525
20
405.278
30
0.0
11
313.44083
21
457.36426
31
0.0
0
LINE
8
0
10
313.44083
20
457.36426
30
0.0
11
369.184
21
492.133
31
0.0
0
LINE
8
0
10
369.184
20
492.133
30
0.0
11
421.16098
21
512.621
31
0.0
0
LINE
8
0
10
421.16098
20
512.621
30
0.0
11
467.78766
21
521.74603
31
0.0
0
LINE
8
0
10
467.78766
20
521.74603
30
0.0
11
508.18866
21
522.19244
31
0.0
0
LINE
8
0
10
508.18866
20
522.19244
30
0.0
11
542.0457
21
516.3401
31
0.0
0
LINE
8
0
10
542.0457
20
516.3401
30
0.0
11
569.4593
21
506.22836
31
0.0
0
LINE
8
0
10
569.4593
20
506.22836
30
0.0
11
590.82764
21
493.54736
31
0.0
0
LINE
8
0
10
590.82764
20
493.54736
30
0.0
11
606.7444
21
479.6491
31
0.0
0
LINE
8
0
10
606.7444
20
479.6491
30
0.0
11
617.9142
21
465.573
31
0.0
0
LINE
8
0
10
617.9142
20
465.573
30
0.0
11
625.0867
21
452.07962
31
0.0
0
LINE
8
0
10
625.0867
20
452.07962
30
0.0
11
629.00586
21
439.6895
31
0.0
0
LINE
8
0
10
188.46469
20
162.4
30
0.0
11
219.21048
21
264.70642
31
0.0
0
LINE
8
0
10
219.21048
20
264.70642
30
0.0
11
260.68903
21
345.5298
31
0.0
0
LINE
8
0
10
260.68903
20
345.5298
30
0.0
11
307.8331
21
406.7323
31
0.0
0
LINE
8
0
10
307.8331
20
406.7323
30
0.0
11
356.6919
21
450.65253
31
0.0
0
LINE
8
0
10
356.6919
20
450.65253
30
0.0
11
404.32153
21
479.85495
31
0.0
0
LINE
8
0
10
404.32153
20
479.85495
30
0.0
11
448.65527
21
496.938
31
0.0
0
LINE
8
0
10
448.65527
20
496.938
30
0.0
11
488.365
21
504.3932
31
0.0
0
LINE
8
0
10
488.365
20
504.3932
30
0.0
11
522.72394
21
504.50897
31
0.0
0
LINE
8
0
10
522.72394
20
504.50897
30
0.0
11
551.47687
21
499.31116
31
0.0
0
LINE
8
0
10
551.47687
20
499.31116
30
0.0
11
574.72266
21
490.5334
31
0.0
0
LINE
8
0
10
574.72266
20
490.5334
30
0.0
11
592.811
21
479.61023
31
0.0
0
LINE
8
0
10
592.811
20
479.61023
30
0.0
11
606.2554
21
467.6876
31
0.0
0
LINE
8
0
10
606.2554
20
467.6876
30
0.0
11
615.662
21
455.64465
31
0.0
0
LINE
8
0
10
615.662
20
455.64465
30
0.0
11
621.67316
21
444.12338
31
0.0
0
LINE
8
0
10
235.97562
20
94.5473
30
0.0
11
248.48901
21
200.63844
31
0.0
0
LINE
8
0
10
248.48901
20
200.63844
30
0.0
11
275.30258
21
287.4365
31
0.0
0
LINE
8
0
10
275.30258
20
287.4365
30
0.0
11
311.10272
21
355.89578
31
0.0
0
LINE
8
0
10
311.10272
20
355.89578
30
0.0
11
351.59256
21
407.633
31
0.0
0
LINE
8
0
10
351.59256
20
407.633
30
0.0
11
393.42767
21
444.66257
31
0.0
0
LINE
8
0
10
393.42767
20
444.66257
30
0.0
11
434.12143
21
469.18454
31
0.0
0
LINE
8
0
10
434.12143
20
469.18454
30
0.0
11
471.9333
21
483.422
31
0.0
0
LINE
8
0
10
471.9333
20
483.422
30
0.0
11
505.75012
21
489.50238
31
0.0
0
LINE
8
0
10
505.75012
20
489.50238
30
0.0
11
534.9689
21
489.37646
31
0.0
0
LINE
8
0
10
534.9689
20
489.37646
30
0.0
11
559.38574
21
484.76862
31
0.0
0
LINE
8
0
10
559.38574
20
484.76862
30
0.0
11
579.096
21
477.1524
31
0.0
0
LINE
8
0
10
579.096
20
477.1524
30
0.0
11
594.40656
21
467.74548
31
0.0
0
LINE
8
0
10
594.40656
20
467.74548
30
0.0
11
605.7615
21
457.51898
31
0.0
0
LINE
8
0
10
605.7615
20
457.51898
30
0.0
11
613.68195
21
447.21655
31
0.0
0
LINE
8
0
10
294.54733
20
35.975586
30
0.0
11
288.448
21
142.62796
31
0.0
0
LINE
8
0
10
288.448
20
142.62796
30
0.0
11
299.78192
21
232.76349
31
0.0
0
LINE
8
0
10
299.78192
20
232.76349
30
0.0
11
323.15036
21
306.39935
31
0.0
0
LINE
8
0
10
323.15036
20
306.39935
30
0.0
11
354.04095
21
364.38153
31
0.0
0
LINE
8
0
10
354.04095
20
364.38153
30
0.0
11
388.81036
21
408.11313
31
0.0
0
LINE
8
0
10
388.81036
20
408.11313
30
0.0
11
424.62772
21
439.32895
31
0.0
0
LINE
8
0
10
424.62772
20
439.32895
30
0.0
11
459.39282
21
459.9161
31
0.0
0
LINE
8
0
10
459.39282
20
459.9161
30
0.0
11
491.64008
21
471.77634
31
0.0
0
LINE
8
0
10
491.64008
20
471.77634
30
0.0
11
520.43677
21
476.7261
31
0.0
0
LINE
8
0
10
520.43677
20
476.7261
30
0.0
11
545.28284
21
476.4282
31
0.0
0
LINE
8
0
10
545.28284
20
476.4282
30
0.0
11
566.01624
21
472.35034
31
0.0
0
LINE
8
0
10
566.01624
20
472.35034
30
0.0
11
582.72766
21
465.745
31
0.0
0
LINE
8
0
10
582.72766
20
465.745
30
0.0
11
595.68585
21
457.6456
31
0.0
0
LINE
8
0
10
595.68585
20
457.6456
30
0.0
11
605.275
21
448.87506
31
0.0
0
LINE
8
0
10
362.40002
20
-11.535339
30
0.0
11
337.87344
21
92.43753
31
0.0
0
LINE
8
0
10
337.87344
20
92.43753
30
0.0
11
333.3832
21
183.17188
31
0.0
0
LINE
8
0
10
333.3832
20
183.17188
30
0.0
11
343.60992
21
259.74686
31
0.0
0
LINE
8
0
10
343.60992
20
259.74686
30
0.0
11
363.9627
21
322.2123
31
0.0
0
LINE
8
0
10
363.9627
20
322.2123
30
0.0
11
390.61
21
371.3172
31
0.0
0
LINE
8
0
10
390.61
20
371.3172
30
0.0
11
420.46265
21
408.27838
31
0.0
0
LINE
8
0
10
420.46265
20
408.27838
30
0.0
11
451.12463
21
434.58963
31
0.0
0
LINE
8
0
10
451.12463
20
434.58963
30
0.0
11
480.82248
21
451.8694
31
0.0
0
LINE
8
0
10
480.82248
20
451.8694
30
0.0
11
508.32217
21
461.74445
31
0.0
0
LINE
8
0
10
508.32217
20
461.74445
30
0.0
11
532.84247
21
465.76556
31
0.0
0
LINE
8
0
10
532.84247
20
465.76556
30
0.0
11
553.969
21
465.34998
31
0.0
0
LINE
8
0
10
553.969
20
465.34998
30
0.0
11
571.57355
21
461.74686
31
0.0
0
LINE
8
0
10
571.57355
20
461.74686
30
0.0
11
585.74133
21
456.0207
31
0.0
0
LINE
8
0
10
585.74133
20
456.0207
30
0.0
11
596.7078
21
449.04855
31
0.0
0
LINE
8
0
10
437.47205
20
-46.541992
30
0.0
11
395.26337
21
51.592316
31
0.0
0
LINE
8
0
10
395.26337
20
51.592316
30
0.0
11
375.0855
21
140.16849
31
0.0
0
LINE
8
0
10
375.0855
20
140.16849
30
0.0
11
371.85977
21
217.35594
31
0.0
0
LINE
8
0
10
371.85977
20
217.35594
30
0.0
11
381.05634
21
282.40668
31
0.0
0
LINE
8
0
10
381.05634
20
282.40668
30
0.0
11
398.77182
21
335.39276
31
0.0
0
LINE
8
0
10
398.77182
20
335.39276
30
0.0
11
421.7527
21
376.9763
31
0.0
0
LINE
8
0
10
421.7527
20
376.9763
30
0.0
11
447.37997
21
408.21222
31
0.0
0
LINE
8
0
10
447.37997
20
408.21222
30
0.0
11
473.62604
21
430.3864
31
0.0
0
LINE
8
0
10
473.62604
20
430.3864
30
0.0
11
498.99316
21
444.88672
31
0.0
0
LINE
8
0
10
498.99316
20
444.88672
30
0.0
11
522.4427
21
453.10464
31
0.0
0
LINE
8
0
10
522.4427
20
453.10464
30
0.0
11
543.32043
21
456.36395
31
0.0
0
LINE
8
0
10
543.32043
20
456.36395
30
0.0
11
561.2832
21
455.8726
31
0.0
0
LINE
8
0
10
561.2832
20
455.8726
30
0.0
11
576.2301
21
452.69363
31
0.0
0
LINE
8
0
10
576.2301
20
452.69363
30
0.0
11
588.24066
21
447.73172
31
0.0
0
LINE
8
0
10
517.4824
20
-67.98071
30
0.0
11
458.87415
21
21.333282
31
0.0
0
LINE
8
0
10
458.87415
20
21.333282
30
0.0
11
423.6218
21
105.059875
31
0.0
0
LINE
8
0
10
423.6218
20
105.059875
30
0.0
11
407.0415
21
180.5146
31
0.0
0
LINE
8
0
10
407.0415
20
180.5146
30
0.0
11
404.8025
21
246.17395
31
0.0
0
LINE
8
0
10
404.8025
20
246.17395
30
0.0
11
413.04785
21
301.4314
31
0.0
0
LINE
8
0
10
413.04785
20
301.4314
30
0.0
11
428.45868
21
346.37375
31
0.0
0
LINE
8
0
10
428.45868
20
346.37375
30
0.0
11
448.27258
21
381.58527
31
0.0
0
LINE
8
0
10
448.27258
20
381.58527
30
0.0
11
470.26938
21
407.98016
31
0.0
0
LINE
8
0
10
470.26938
20
407.98016
30
0.0
11
492.7332
21
426.66516
31
0.0
0
LINE
8
0
10
492.7332
20
426.66516
30
0.0
11
514.3994
21
438.83017
31
0.0
0
LINE
8
0
10
514.3994
20
438.83017
30
0.0
11
534.39404
21
445.66534
31
0.0
0
LINE
8
0
10
534.39404
20
445.66534
30
0.0
11
552.1692
21
448.30063
31
0.0
0
LINE
8
0
10
552.1692
20
448.30063
30
0.0
11
567.44104
21
447.7655
31
0.0
0
LINE
8
0
10
567.44104
20
447.7655
30
0.0
11
580.1308
21
444.96457
31
0.0
0
LINE
8
0
10
600.0
20
-75.20004
30
0.0
11
526.77295
21
2.5798035
31
0.0
0
LINE
8
0
10
526.77295
20
2.5798035
30
0.0
11
477.5172
21
78.91293
31
0.0
0
LINE
8
0
10
477.5172
20
78.91293
30
0.0
11
448.0863
21
150.34215
31
0.0
0
LINE
8
0
10
448.0863
20
150.34215
30
0.0
11
434.47958
21
214.61523
31
0.0
0
LINE
8
0
10
434.47958
20
214.61523
30
0.0
11
433.00433
21
270.46497
31
0.0
0
LINE
8
0
10
433.00433
20
270.46497
30
0.0
11
440.37686
21
317.40063
31
0.0
0
LINE
8
0
10
440.37686
20
317.40063
30
0.0
11
453.77533
21
355.51785
31
0.0
0
LINE
8
0
10
453.77533
20
355.51785
30
0.0
11
470.85455
21
385.33142
31
0.0
0
LINE
8
0
10
470.85455
20
385.33142
30
0.0
11
489.73245
21
407.63336
31
0.0
0
LINE
8
0
10
489.73245
20
407.63336
30
0.0
11
508.95712
21
423.3759
31
0.0
0
LINE
8
0
10
508.95712
20
423.3759
30
0.0
11
527.461
21
433.57922
31
0.0
0
LINE
8
0
10
527.461
20
433.57922
30
0.0
11
544.50854
21
439.2611
31
0.0
0
LINE
8
0
10
544.50854
20
439.2611
30
0.0
11
559.6413
21
441.38602
31
0.0
0
LINE
8
0
10
559.6413
20
441.38602
30
0.0
11
572.62463
21
440.8312
31
0.0
0
LINE
8
0
10
682.5176
20
-67.98068
30
0.0
11
596.89667
21
-4.0982056
31
0.0
0
LINE
8
0
10
596.89667
20
-4.0982056
30
0.0
11
535.13416
21
62.522034
31
0.0
0
LINE
8
0
10
535.13416
20
62.522034
30
0.0
11
493.74683
21
127.75549
31
0.0
0
LINE
8
0
10
493.74683
20
127.75549
30
0.0
11
469.18588
21
188.68936
31
0.0
0
LINE
8
0
10
469.18588
20
188.68936
30
0.0
11
458.0349
21
243.43437
31
0.0
0
LINE
8
0
10
458.0349
20
243.43437
30
0.0
11
457.14514
21
290.93723
31
0.0
0
LINE
8
0
10
457.14514
20
290.93723
30
0.0
11
463.72107
21
330.802
31
0.0
0
LINE
8
0
10
463.72107
20
330.802
30
0.0
11
475.3637
21
363.12842
31
0.0
0
LINE
8
0
10
475.3637
20
363.12842
30
0.0
11
490.08215
21
388.3696
31
0.0
0
LINE
8
0
10
490.08215
20
388.3696
30
0.0
11
506.28107
21
407.21133
31
0.0
0
LINE
8
0
10
506.28107
20
407.21133
30
0.0
11
522.73206
21
420.47284
31
0.0
0
LINE
8
0
10
522.73206
20
420.47284
30
0.0
11
538.53394
21
429.02866
31
0.0
0
LINE
8
0
10
538.53394
20
429.02866
30
0.0
11
553.0679
21
433.74905
31
0.0
0
LINE
8
0
10
553.0679
20
433.74905
30
0.0
11
565.95026
21
435.4572
31
0.0
0
LINE
8
0
10
762.52795
20
-46.54196
30
0.0
11
667.11475
21
1.5020447
31
0.0
0
LINE
8
0
10
667.11475
20
1.5020447
30
0.0
11
594.72205
21
56.385254
31
0.0
0
LINE
8
0
10
594.72205
20
56.385254
30
0.0
11
542.6358
21
113.44083
31
0.0
0
LINE
8
0
10
542.6358
20
113.44083
30
0.0
11
507.86703
21
169.18398
31
0.0
0
LINE
8
0
10
507.86703
20
169.18398
30
0.0
11
487.37897
21
221.16101
31
0.0
0
LINE
8
0
10
487.37897
20
221.16101
30
0.0
11
478.254
21
267.78763
31
0.0
0
LINE
8
0
10
478.254
20
267.78763
30
0.0
11
477.80756
21
308.1887
31
0.0
0
LINE
8
0
10
477.80756
20
308.1887
30
0.0
11
483.6599
21
342.04572
31
0.0
0
LINE
8
0
10
483.6599
20
342.04572
30
0.0
11
493.77164
21
369.45926
31
0.0
0
LINE
8
0
10
493.77164
20
369.45926
30
0.0
11
506.45264
21
390.82767
31
0.0
0
LINE
8
0
10
506.45264
20
390.82767
30
0.0
11
520.3509
21
406.74435
31
0.0
0
LINE
8
0
10
520.3509
20
406.74435
30
0.0
11
534.427
21
417.91418
31
0.0
0
LINE
8
0
10
534.427
20
417.91418
30
0.0
11
547.9204
21
425.08664
31
0.0
0
LINE
8
0
10
547.9204
20
425.08664
30
0.0
11
560.3105
21
429.00586
31
0.0
0
LINE
8
0
10
837.6
20
-11.535339
30
0.0
11
735.2936
21
19.21048
31
0.0
0
LINE
8
0
10
735.2936
20
19.21048
30
0.0
11
654.4703
21
60.689026
31
0.0
0
LINE
8
0
10
654.4703
20
60.689026
30
0.0
11
593.26776
21
107.8331
31
0.0
0
LINE
8
0
10
593.26776
20
107.8331
30
0.0
11
549.34753
21
156.69186
31
0.0
0
LINE
8
0
10
549.34753
20
156.69186
30
0.0
11
520.145
21
204.32155
31
0.0
0
LINE
8
0
10
520.145
20
204.32155
30
0.0
11
503.06198
21
248.65529
31
0.0
0
LINE
8
0
10
503.06198
20
248.65529
30
0.0
11
495.6068
21
288.365
31
0.0
0
LINE
8
0
10
495.6068
20
288.365
30
0.0
11
495.49103
21
322.72394
31
0.0
0
LINE
8
0
10
495.49103
20
322.72394
30
0.0
11
500.68884
21
351.4769
31
0.0
0
LINE
8
0
10
500.68884
20
351.4769
30
0.0
11
509.4666
21
374.72266
31
0.0
0
LINE
8
0
10
509.4666
20
374.72266
30
0.0
11
520.3898
21
392.81097
31
0.0
0
LINE
8
0
10
520.3898
20
392.81097
30
0.0
11
532.31244
21
406.2554
31
0.0
0
LINE
8
0
10
532.31244
20
406.2554
30
0.0
11
544.35535
21
415.662
31
0.0
0
LINE
8
0
10
544.35535
20
415.662
30
0.0
11
555.87665
21
421.67316
31
0.0
0
LINE
8
0
10
905.45264
20
35.975616
30
0.0
11
799.3615
21
48.488983
31
0.0
0
LINE
8
0
10
799.3615
20
48.488983
30
0.0
11
712.5635
21
75.30258
31
0.0
0
LINE
8
0
10
712.5635
20
75.30258
30
0.0
11
644.10425
21
111.10275
31
0.0
0
LINE
8
0
10
644.10425
20
111.10275
30
0.0
11
592.36707
21
151.59256
31
0.0
0
LINE
8
0
10
592.36707
20
151.59256
30
0.0
11
555.33746
21
193.42764
31
0.0
0
LINE
8
0
10
555.33746
20
193.42764
30
0.0
11
530.8154
21
234.12144
31
0.0
0
LINE
8
0
10
530.8154
20
234.12144
30
0.0
11
516.578
21
271.9333
31
0.0
0
LINE
8
0
10
516.578
20
271.9333
30
0.0
11
510.4976
21
305.75015
31
0.0
0
LINE
8
0
10
510.4976
20
305.75015
30
0.0
11
510.62354
21
334.96887
31
0.0
0
LINE
8
0
10
510.62354
20
334.96887
30
0.0
11
515.2314
21
359.3857
31
0.0
0
LINE
8
0
10
515.2314
20
359.3857
30
0.0
11
522.8476
21
379.09604
31
0.0
0
LINE
8
0
10
522.8476
20
379.09604
30
0.0
11
532.2545
21
394.40652
31
0.0
0
LINE
8
0
10
532.2545
20
394.40652
30
0.0
11
542.481
21
405.76147
31
0.0
0
LINE
8
0
10
542.481
20
405.76147
30
0.0
11
552.78345
21
413.68198
31
0.0
0
LINE
8
0
10
964.0243
20
94.54724
30
0.0
11
857.372
21
88.448
31
0.0
0
LINE
8
0
10
857.372
20
88.448
30
0.0
11
767.23645
21
99.78192
31
0.0
0
LINE
8
0
10
767.23645
20
99.78192
30
0.0
11
693.6007
21
123.15036
31
0.0
0
LINE
8
0
10
693.6007
20
123.15036
30
0.0
11
635.6185
21
154.04097
31
0.0
0
LINE
8
0
10
635.6185
20
154.04097
30
0.0
11
591.8869
21
188.81038
31
0.0
0
LINE
8
0
10
591.8869
20
188.81038
30
0.0
11
560.671
21
224.62775
31
0.0
0
LINE
8
0
10
560.671
20
224.62775
30
0.0
11
540.08386
21
259.39285
31
0.0
0
LINE
8
0
10
540.08386
20
259.39285
30
0.0
11
528.22363
21
291.64008
31
0.0
0
LINE
8
0
10
528.22363
20
291.64008
30
0.0
11
523.2739
21
320.43677
31
0.0
0
LINE
8
0
10
523.2739
20
320.43677
30
0.0
11
523.5718
21
345.28284
31
0.0
0
LINE
8
0
10
523.5718
20
345.28284
30
0.0
11
527.64966
21
366.01624
31
0.0
0
LINE
8
0
10
527.64966
20
366.01624
30
0.0
11
534.255
21
382.72763
31
0.0
0
LINE
8
0
10
534.255
20
382.72763
30
0.0
11
542.3544
21
395.68588
31
0.0
0
LINE
8
0
10
542.3544
20
395.68588
30
0.0
11
551.12494
21
405.27502
31
0.0
0
LINE
8
0
10
1011.5353
20
162.39989
30
0.0
11
907.5624
21
137.87332
31
0.0
0
LINE
8
0
10
907.5624
20
137.87332
30
0.0
11
816.8281
21
133.38318
31
0.0
0
LINE
8
0
10
816.8281
20
133.38318
30
0.0
11
740.2531
21
143.60992
31
0.0
0
LINE
8
0
10
740.2531
20
143.60992
30
0.0
11
677.7877
21
163.96272
31
0.0
0
LINE
8
0
10
677.7877
20
163.96272
30
0.0
11
628.68286
21
190.61
31
0.0
0
LINE
8
0
10
628.68286
20
190.61
30
0.0
11
591.7216
21
220.46262
31
0.0
0
LINE
8
0
10
591.7216
20
220.46262
30
0.0
11
565.41034
21
251.12466
31
0.0
0
LINE
8
0
10
565.41034
20
251.12466
30
0.0
11
548.1306
21
280.82248
31
0.0
0
LINE
8
0
10
548.1306
20
280.82248
30
0.0
11
538.25555
21
308.32217
31
0.0
0
LINE
8
0
10
538.25555
20
308.32217
30
0.0
11
534.23444
21
332.8425
31
0.0
0
LINE
8
0
10
534.23444
20
332.8425
30
0.0
11
534.65
21
353.969
31
0.0
0
LINE
8
0
10
534.65
20
353.969
30
0.0
11
538.2532
21
371.57355
31
0.0
0
LINE
8
0
10
538.2532
20
371.57355
30
0.0
11
543.9793
21
385.74136
31
0.0
0
LINE
8
0
10
543.9793
20
385.74136
30
0.0
11
550.9515
21
396.70782
31
0.0
0
LINE
8
0
10
1046.542
20
237.47191
30
0.0
11
948.4076
21
195.26328
31
0.0
0
LINE
8
0
10
948.4076
20
195.26328
30
0.0
11
859.83154
21
175.08551
31
0.0
0
LINE
8
0
10
859.83154
20
175.08551
30
0.0
11
782.64404
21
171.85976
31
0.0
0
LINE
8
0
10
782.64404
20
171.85976
30
0.0
11
717.5934
21
181.05637
31
0.0
0
LINE
8
0
10
717.5934
20
181.05637
30
0.0
11
664.6073
21
198.77184
31
0.0
0
LINE
8
0
10
664.6073
20
198.77184
30
0.0
11
623.02374
21
221.75267
31
0.0
0
LINE
8
0
10
623.02374
20
221.75267
30
0.0
11
591.7877
21
247.37997
31
0.0
0
LINE
8
0
10
591.7877
20
247.37997
30
0.0
11
569.6136
21
273.62604
31
0.0
0
LINE
8
0
10
569.6136
20
273.62604
30
0.0
11
555.1133
21
298.99316
31
0.0
0
LINE
8
0
10
555.1133
20
298.99316
30
0.0
11
546.8954
21
322.4427
31
0.0
0
LINE
8
0
10
546.8954
20
322.4427
30
0.0
11
543.63605
21
343.32043
31
0.0
0
LINE
8
0
10
543.63605
20
343.32043
30
0.0
11
544.12744
21
361.28317
31
0.0
0
LINE
8
0
10
544.12744
20
361.28317
30
0.0
11
547.3064
21
376.2301
31
0.0
0
LINE
8
0
10
547.3064
20
376.2301
30
0.0
11
552.2683
21
388.24066
31
0.0
0
LINE
8
0
10
1067.9807
20
317.48224
30
0.0
11
978.6667
21
258.87402
31
0.0
0
LINE
8
0
10
978.6667
20
258.87402
30
0.0
11
894.94006
21
223.62172
31
0.0
0
LINE
8
0
10
894.94006
20
223.62172
30
0.0
11
819.48535
21
207.0415
31
0.0
0
LINE
8
0
10
819.48535
20
207.0415
30
0.0
11
753.82605
21
204.80247
31
0.0
0
LINE
8
0
10
753.82605
20
204.80247
30
0.0
11
698.56866
21
213.04787
31
0.0
0
LINE
8
0
10
698.56866
20
213.04787
30
0.0
11
653.6263
21
228.45868
31
0.0
0
LINE
8
0
10
653.6263
20
228.45868
30
0.0
11
618.41473
21
248.27258
31
0.0
0
LINE
8
0
10
618.41473
20
248.27258
30
0.0
11
592.0198
21
270.26938
31
0.0
0
LINE
8
0
10
592.0198
20
270.26938
30
0.0
11
573.33484
21
292.7332
31
0.0
0
LINE
8
0
10
573.33484
20
292.7332
30
0.0
11
561.1698
21
314.39944
31
0.0
0
LINE
8
0
10
561.1698
20
314.39944
30
0.0
11
554.33466
21
334.394
31
0.0
0
LINE
8
0
10
554.33466
20
334.394
30
0.0
11
551.69934
21
352.1692
31
0.0
0
LINE
8
0
10
551.69934
20
352.1692
30
0.0
11
552.2345
21
367.44104
31
0.0
0
LINE
8
0
10
552.2345
20
367.44104
30
0.0
11
555.0354
21
380.1308
31
0.0
0
ENDSEC
0
EOF
