0
SECTION
2
ENTITIES
0
LINE
8
0
10
1075.2001
20
400.0
30
0.0
11
992.64624
21
495.57166
31
0.0
0
LINE
8
0
10
992.64624
20
495.57166
30
0.0
11
905.21277
21
557.9371
31
0.0
0
LINE
8
0
10
905.21277
20
557.9371
30
0.0
11
820.4258
21
591.88354
31
0.0
0
LINE
8
0
10
820.4258
20
591.88354
30
0.0
11
743.5411
21
602.8805
31
0.0
0
LINE
8
0
10
743.5411
20
602.8805
30
0.0
11
677.8014
21
596.504
31
0.0
0
LINE
8
0
10
677.8014
20
596.504
30
0.0
11
624.7648
21
578.0138
31
0.0
0
LINE
8
0
10
624.7648
20
578.0138
30
0.0
11
584.6606
21
552.0691
31
0.0
0
LINE
8
0
10
584.6606
20
552.0691
30
0.0
11
556.74146
21
522.566
31
0.0
0
LINE
8
0
10
556.74146
20
522.566
30
0.0
11
539.6062
21
492.57318
31
0.0
0
LINE
8
0
10
539.6062
20
492.57318
30
0.0
11
531.47986
21
464.34464
31
0.0
0
LINE
8
0
10
531.47986
20
464.34464
30
0.0
11
530.44257
21
439.3857
31
0.0
0
LINE
8
0
10
530.44257
20
439.3857
30
0.0
11
534.60516
21
418.55414
31
0.0
0
LINE
8
0
10
534.60516
20
418.55414
30
0.0
11
542.23425
21
402.1787
31
0.0
0
LINE
8
0
10
542.23425
20
402.1787
30
0.0
11
551.8314
21
390.18243
31
0.0
0
LINE
8
0
10
551.8314
20
390.18243
30
0.0
11
562.17395
21
382.20038
31
0.0
0
LINE
8
0
10
562.17395
20
382.20038
30
0.0
11
572.32513
21
377.68506
31
0.0
0
LINE
8
0
10
572.32513
20
377.68506
30
0.0
11
581.62085
21
375.9958
31
0.0
0
LINE
8
0
10
581.62085
20
375.9958
30
0.0
11
589.6415
21
376.4695
31
0.0
0
LINE
8
0
10
589.6415
20
376.4695
30
0.0
11
596.1734
21
378.47403
31
0.0
0
LINE
8
0
10
596.1734
20
378.47403
30
0.0
11
601.1675
21
381.44403
31
0.0
0
LINE
8
0
10
601.1675
20
381.44403
30
0.0
11
604.6966
21
384.90244
31
0.0
0
LINE
8
0
10
604.6966
20
384.90244
30
0.0
11
606.9171
21
388.46982
31
0.0
0
LINE
8
0
10
606.9171
20
388.46982
30
0.0
11
608.03436
21
391.86404
31
0.0
0
LINE
8
0
10
1067.9807
20
482.51764
30
0.0
11
970.0852
21
562.302
31
0.0
0
LINE
8
0
10
970.0852
20
562.302
30
0.0
11
873.1504
21
608.5373
31
0.0
0
LINE
8
0
10
873.1504
20
608.5373
30
0.0
11
783.7568
21
627.24493
31
0.0
0
LINE
8
0
10
783.7568
20
627.24493
30
0.0
11
706.1305
21
624.7239
31
0.0
0
LINE
8
0
10
706.1305
20
624.7239
30
0.0
11
642.4969
21
607.0287
31
0.0
0
LINE
8
0
10
642.4969
20
607.0287
30
0.0
11
593.4768
21
579.60974
31
0.0
0
LINE
8
0
10
593.4768
20
579.60974
30
0.0
11
558.4871
21
547.0952
31
0.0
0
LINE
8
0
10
558.4871
20
547.0952
30
0.0
11
536.11536
21
513.19214
31
0.0
0
LINE
8
0
10
536.11536
20
513.19214
30
0.0
11
524.4486
21
480.6795
31
0.0
0
LINE
8
0
10
524.4486
20
480.6795
30
0.0
11
521.34753
21
451.4687
31
0.0
0
LINE
8
0
10
521.34753
20
451.4687
30
0.0
11
524.66003
21
426.70883
31
0.0
0
LINE
8
0
10
524.66003
20
426.70883
30
0.0
11
532.3768
21
406.9166
31
0.0
0
LINE
8
0
10
532.3768
20
406.9166
30
0.0
11
542.7335
21
392.1147
31
0.0
0
LINE
8
0
10
542.7335
20
392.1147
30
0.0
11
554.268
21
381.9672
31
0.0
0
LINE
8
0
10
554.268
20
381.9672
30
0.0
11
565.8395
21
375.90237
31
0.0
0
LINE
8
0
10
565.8395
20
375.90237
30
0.0
11
576.6205
21
373.21838
31
0.0
0
LINE
8
0
10
576.6205
20
373.21838
30
0.0
11
586.06836
21
373.16895
31
0.0
0
LINE
8
0
10
586.06836
20
373.16895
30
0.0
11
593.8849
21
375.02823
31
0.0
0
LINE
8
0
10
593.8849
20
375.02823
30
0.0
11
599.9695
21
378.13657
31
0.0
0
LINE
8
0
10
599.9695
20
378.13657
30
0.0
11
604.37195
21
381.92865
31
0.0
0
LINE
8
0
10
604.37195
20
381.92865
30
0.0
11
607.2469
21
385.94736
31
0.0
0
LINE
8
0
10
607.2469
20
385.94736
30
0.0
11
608.8142
21
389.84613
31
0.0
0
LINE
8
0
10
608.8142
20
389.84613
30
0.0
11
609.3251
21
393.3828
31
0.0
0
LINE
8
0
10
1046.542
20
562.52795
30
0.0
11
936.2793
21
624.1009
31
0.0
0
LINE
8
0
10
936.2793
20
624.1009
30
0.0
11
832.7886
21
652.8012
31
0.0
0
LINE
8
0
10
832.7886
20
652.8012
30
0.0
11
741.50446
21
655.7016
31
0.0
0
LINE
8
0
10
741.50446
20
655.7016
30
0.0
11
665.4953
21
639.7392
31
0.0
0
LINE
8
0
10
665.4953
20
639.7392
30
0.0
11
605.9011
21
611.263
31
0.0
0
LINE
8
0
10
605.9011
20
611.263
30
0.0
11
562.387
21
575.7483
31
0.0
0
LINE
8
0
10
562.387
20
575.7483
30
0.0
11
533.575
21
537.65186
31
0.0
0
LINE
8
0
10
533.575
20
537.65186
30
0.0
11
517.43024
21
500.37906
31
0.0
0
LINE
8
0
10
517.43024
20
500.37906
30
0.0
11
511.58652
21
466.33444
31
0.0
0
LINE
8
0
10
511.58652
20
466.33444
30
0.0
11
513.605
21
437.02893
31
0.0
0
LINE
8
0
10
513.605
20
437.02893
30
0.0
11
521.1667
21
413.22043
31
0.0
0
LINE
8
0
10
521.1667
20
413.22043
30
0.0
11
532.20306
21
395.06885
31
0.0
0
LINE
8
0
10
532.20306
20
395.06885
30
0.0
11
544.9728
21
382.29028
31
0.0
0
LINE
8
0
10
544.9728
20
382.29028
30
0.0
11
558.0941
21
374.29987
31
0.0
0
LINE
8
0
10
558.0941
20
374.29987
30
0.0
11
570.54297
21
370.33655
31
0.0
0
LINE
8
0
10
570.54297
20
370.33655
30
0.0
11
581.6263
21
369.56546
31
0.0
0
LINE
8
0
10
581.6263
20
369.56546
30
0.0
11
590.9392
21
371.15738
31
0.0
0
LINE
8
0
10
590.9392
20
371.15738
30
0.0
11
598.3141
21
374.34573
31
0.0
0
LINE
8
0
10
598.3141
20
374.34573
30
0.0
11
603.76654
21
378.46344
31
0.0
0
LINE
8
0
10
603.76654
20
378.46344
30
0.0
11
607.4436
21
382.96237
31
0.0
0
LINE
8
0
10
607.4436
20
382.96237
30
0.0
11
609.577
21
387.41928
31
0.0
0
LINE
8
0
10
609.577
20
387.41928
30
0.0
11
610.4435
21
391.53098
31
0.0
0
LINE
8
0
10
610.4435
20
391.53098
30
0.0
11
610.33246
21
395.10263
31
0.0
0
LINE
8
0
10
1011.5353
20
637.60004
30
0.0
11
892.2558
21
679.0906
31
0.0
0
LINE
8
0
10
892.2558
20
679.0906
30
0.0
11
785.3535
21
689.38385
31
0.0
0
LINE
8
0
10
785.3535
20
689.38385
30
0.0
11
694.9526
21
676.3889
31
0.0
0
LINE
8
0
10
694.9526
20
676.3889
30
0.0
11
622.87
21
647.47015
31
0.0
0
LINE
8
0
10
622.87
20
647.47015
30
0.0
11
569.12604
21
609.0781
31
0.0
0
LINE
8
0
10
569.12604
20
609.0781
30
0.0
11
532.44006
21
566.5469
31
0.0
0
LINE
8
0
10
532.44006
20
566.5469
30
0.0
11
510.68115
21
524.026
31
0.0
0
LINE
8
0
10
510.68115
20
524.026
30
0.0
11
501.25403
21
484.516
31
0.0
0
LINE
8
0
10
501.25403
20
484.516
30
0.0
11
501.41086
21
449.97382
31
0.0
0
LINE
8
0
10
501.41086
20
449.97382
30
0.0
11
508.48752
21
421.46402
31
0.0
0
LINE
8
0
10
508.48752
20
421.46402
30
0.0
11
520.06866
21
399.33032
31
0.0
0
LINE
8
0
10
520.06866
20
399.33032
30
0.0
11
534.08936
21
383.37094
31
0.0
0
LINE
8
0
10
534.08936
20
383.37094
30
0.0
11
548.88403
21
373.00394
31
0.0
0
LINE
8
0
10
548.88403
20
373.00394
30
0.0
11
563.19354
21
367.41345
31
0.0
0
LINE
8
0
10
563.19354
20
367.41345
30
0.0
11
576.1415
21
365.67206
31
0.0
0
LINE
8
0
10
576.1415
20
365.67206
30
0.0
11
587.1903
21
366.83725
31
0.0
0
LINE
8
0
10
587.1903
20
366.83725
30
0.0
11
596.0853
21
370.02216
31
0.0
0
LINE
8
0
10
596.0853
20
370.02216
30
0.0
11
602.7945
21
374.44272
31
0.0
0
LINE
8
0
10
602.7945
20
374.44272
30
0.0
11
607.44904
21
379.44467
31
0.0
0
LINE
8
0
10
607.44904
20
379.44467
30
0.0
11
610.28906
21
384.51376
31
0.0
0
LINE
8
0
10
610.28906
20
384.51376
30
0.0
11
611.61615
21
389.27344
31
0.0
0
LINE
8
0
10
611.61615
20
389.27344
30
0.0
11
611.75543
21
393.4731
31
0.0
0
LINE
8
0
10
611.75543
20
393.4731
30
0.0
11
611.02594
21
396.97122
31
0.0
0
LINE
8
0
10
964.02435
20
705.4527
30
0.0
11
839.3522
21
725.6002
31
0.0
0
LINE
8
0
10
839.3522
20
725.6002
30
0.0
11
732.28656
21
717.1738
31
0.0
0
LINE
8
0
10
732.28656
20
717.1738
30
0.0
11
645.51556
21
688.6783
31
0.0
0
LINE
8
0
10
645.51556
20
688.6783
30
0.0
11
579.5498
21
647.6819
31
0.0
0
LINE
8
0
10
579.5498
20
647.6819
30
0.0
11
533.28906
21
600.5406
31
0.0
0
LINE
8
0
10
533.28906
20
600.5406
30
0.0
11
504.54587
21
552.285
31
0.0
0
LINE
8
0
10
504.54587
20
552.285
30
0.0
11
490.50122
21
506.6317
31
0.0
0
LINE
8
0
10
490.50122
20
506.6317
30
0.0
11
488.07816
21
466.08493
31
0.0
0
LINE
8
0
10
488.07816
20
466.08493
30
0.0
11
494.23077
21
432.09476
31
0.0
0
LINE
8
0
10
494.23077
20
432.09476
30
0.0
11
506.1506
21
405.24695
31
0.0
0
LINE
8
0
10
506.1506
20
405.24695
30
0.0
11
521.3993
21
385.46054
31
0.0
0
LINE
8
0
10
521.3993
20
385.46054
30
0.0
11
537.9783
21
372.1783
31
0.0
0
LINE
8
0
10
537.9783
20
372.1783
30
0.0
11
554.34845
21
364.53787
31
0.0
0
LINE
8
0
10
554.34845
20
364.53787
30
0.0
11
569.4113
21
361.51712
31
0.0
0
LINE
8
0
10
569.4113
20
361.51712
30
0.0
11
582.46497
21
362.05057
31
0.0
0
LINE
8
0
10
582.46497
20
362.05057
30
0.0
11
593.14355
21
365.1167
31
0.0
0
LINE
8
0
10
593.14355
20
365.1167
30
0.0
11
601.3504
21
369.79782
31
0.0
0
LINE
8
0
10
601.3504
20
369.79782
30
0.0
11
607.19
21
375.31625
31
0.0
0
LINE
8
0
10
607.19
20
375.31625
30
0.0
11
610.9053
21
381.05048
31
0.0
0
LINE
8
0
10
610.9053
20
381.05048
30
0.0
11
612.8219
21
386.5357
31
0.0
0
LINE
8
0
10
612.8219
20
386.5357
30
0.0
11
613.3023
21
391.45352
31
0.0
0
LINE
8
0
10
613.3023
20
391.45352
30
0.0
11
612.71027
21
395.6136
31
0.0
0
LINE
8
0
10
612.71027
20
395.6136
30
0.0
11
611.38434
21
398.9319
31
0.0
0
LINE
8
0
10
905.4527
20
764.02435
30
0.0
11
779.176
21
762.21674
31
0.0
0
LINE
8
0
10
779.176
20
762.21674
30
0.0
11
675.2002
21
735.32654
31
0.0
0
LINE
8
0
10
675.2002
20
735.32654
30
0.0
11
594.6956
21
692.1963
31
0.0
0
LINE
8
0
10
594.6956
20
692.1963
30
0.0
11
536.85095
21
640.3679
31
0.0
0
LINE
8
0
10
536.85095
20
640.3679
30
0.0
11
499.479
21
585.90967
31
0.0
0
LINE
8
0
10
499.479
20
585.90967
30
0.0
11
479.55203
21
533.396
31
0.0
0
LINE
8
0
10
479.55203
20
533.396
30
0.0
11
473.64832
21
485.9975
31
0.0
0
LINE
8
0
10
473.64832
20
485.9975
30
0.0
11
478.30298
21
445.64594
31
0.0
0
LINE
8
0
10
478.30298
20
445.64594
30
0.0
11
490.26447
21
413.24054
31
0.0
0
LINE
8
0
10
490.26447
20
413.24054
30
0.0
11
506.66528
21
388.87045
31
0.0
0
LINE
8
0
10
506.66528
20
388.87045
30
0.0
11
525.11816
21
372.03256
31
0.0
0
LINE
8
0
10
525.11816
20
372.03256
30
0.0
11
543.7517
21
361.83102
31
0.0
0
LINE
8
0
10
543.7517
20
361.83102
30
0.0
11
561.19995
21
357.14932
31
0.0
0
LINE
8
0
10
561.19995
20
357.14932
30
0.0
11
576.55853
21
356.7901
31
0.0
0
LINE
8
0
10
576.55853
20
356.7901
30
0.0
11
589.3212
21
359.58218
31
0.0
0
LINE
8
0
10
589.3212
20
359.58218
30
0.0
11
599.3052
21
364.45605
31
0.0
0
LINE
8
0
10
599.3052
20
364.45605
30
0.0
11
606.5744
21
370.49115
31
0.0
0
LINE
8
0
10
606.5744
20
370.49115
30
0.0
11
611.36707
21
376.9398
31
0.0
0
LINE
8
0
10
611.36707
20
376.9398
30
0.0
11
614.03015
21
383.23203
31
0.0
0
LINE
8
0
10
614.03015
20
383.23203
30
0.0
11
614.96515
21
388.96677
31
0.0
0
LINE
8
0
10
614.96515
20
388.96677
30
0.0
11
614.5843
21
393.89328
31
0.0
0
LINE
8
0
10
614.5843
20
393.89328
30
0.0
11
613.2789
21
397.88733
31
0.0
0
LINE
8
0
10
613.2789
20
397.88733
30
0.0
11
611.39685
21
400.925
31
0.0
0
LINE
8
0
10
837.6
20
811.53534
30
0.0
11
713.55566
21
787.8274
31
0.0
0
LINE
8
0
10
713.55566
20
787.8274
30
0.0
11
615.8289
21
743.2905
31
0.0
0
LINE
8
0
10
615.8289
20
743.2905
30
0.0
11
544.03687
21
686.83606
31
0.0
0
LINE
8
0
10
544.03687
20
686.83606
30
0.0
11
496.07092
21
625.7505
31
0.0
0
LINE
8
0
10
496.07092
20
625.7505
30
0.0
11
468.72327
21
565.63
31
0.0
0
LINE
8
0
10
468.72327
20
565.63
30
0.0
11
458.2179
21
510.4538
31
0.0
0
LINE
8
0
10
458.2179
20
510.4538
30
0.0
11
460.63458
21
462.75024
31
0.0
0
LINE
8
0
10
460.63458
20
462.75024
30
0.0
11
472.2255
21
423.81998
31
0.0
0
LINE
8
0
10
472.2255
20
423.81998
30
0.0
11
489.6324
21
393.984
31
0.0
0
LINE
8
0
10
489.6324
20
393.984
30
0.0
11
510.01587
21
372.83212
31
0.0
0
LINE
8
0
10
510.01587
20
372.83212
30
0.0
11
531.1123
21
359.45435
31
0.0
0
LINE
8
0
10
531.1123
20
359.45435
30
0.0
11
551.23425
21
352.6435
31
0.0
0
LINE
8
0
10
551.23425
20
352.6435
30
0.0
11
569.23035
21
351.06274
31
0.0
0
LINE
8
0
10
569.23035
20
351.06274
30
0.0
11
584.41797
21
353.37598
31
0.0
0
LINE
8
0
10
584.41797
20
353.37598
30
0.0
11
596.5019
21
358.34186
31
0.0
0
LINE
8
0
10
596.5019
20
358.34186
30
0.0
11
605.48785
21
364.87537
31
0.0
0
LINE
8
0
10
605.48785
20
364.87537
30
0.0
11
611.5987
21
372.0811
31
0.0
0
LINE
8
0
10
611.5987
20
372.0811
30
0.0
11
615.1987
21
379.264
31
0.0
0
LINE
8
0
10
615.1987
20
379.264
30
0.0
11
616.72876
21
385.9231
31
0.0
0
LINE
8
0
10
616.72876
20
385.9231
30
0.0
11
616.6537
21
391.73306
31
0.0
0
LINE
8
0
10
616.6537
20
391.73306
30
0.0
11
615.42316
21
396.5186
31
0.0
0
LINE
8
0
10
615.42316
20
396.5186
30
0.0
11
613.444
21
400.22528
31
0.0
0
LINE
8
0
10
613.444
20
400.22528
30
0.0
11
611.0631
21
402.88998
31
0.0
0
LINE
8
0
10
762.52795
20
846.542
30
0.0
11
644.4849
21
801.6542
31
0.0
0
LINE
8
0
10
644.4849
20
801.6542
30
0.0
11
555.9766
21
740.82385
31
0.0
0
LINE
8
0
10
555.9766
20
740.82385
30
0.0
11
495.07852
21
672.7605
31
0.0
0
LINE
8
0
10
495.07852
20
672.7605
30
0.0
11
458.44867
21
604.2737
31
0.0
0
LINE
8
0
10
458.44867
20
604.2737
30
0.0
11
441.9563
21
540.3177
31
0.0
0
LINE
8
0
10
441.9563
20
540.3177
30
0.0
11
441.19177
21
484.15552
31
0.0
0
LINE
8
0
10
441.19177
20
484.15552
30
0.0
11
451.85538
21
437.59634
31
0.0
0
LINE
8
0
10
451.85538
20
437.59634
30
0.0
11
470.0304
21
401.2703
31
0.0
0
LINE
8
0
10
470.0304
20
401.2703
30
0.0
11
492.3538
21
374.91028
31
0.0
0
LINE
8
0
10
492.3538
20
374.91028
30
0.0
11
516.1006
21
357.61926
31
0.0
0
LINE
8
0
10
516.1006
20
357.61926
30
0.0
11
539.1995
21
348.1081
31
0.0
0
LINE
8
0
10
539.1995
20
348.1081
30
0.0
11
560.1985
21
344.89484
31
0.0
0
LINE
8
0
10
560.1985
20
344.89484
30
0.0
11
578.1957
21
346.4631
31
0.0
0
LINE
8
0
10
578.1957
20
346.4631
30
0.0
11
592.7509
21
351.3785
31
0.0
0
LINE
8
0
10
592.7509
20
351.3785
30
0.0
11
603.78894
21
358.3673
31
0.0
0
LINE
8
0
10
603.78894
20
358.3673
30
0.0
11
611.5038
21
366.36194
31
0.0
0
LINE
8
0
10
611.5038
20
366.36194
30
0.0
11
616.27057
21
374.51932
31
0.0
0
LINE
8
0
10
616.27057
20
374.51932
30
0.0
11
618.5686
21
382.21826
31
0.0
0
LINE
8
0
10
618.5686
20
382.21826
30
0.0
11
618.919
21
389.04187
31
0.0
0
LINE
8
0
10
618.919
20
389.04187
30
0.0
11
617.83624
21
394.75052
31
0.0
0
LINE
8
0
10
617.83624
20
394.75052
30
0.0
11
615.7934
21
399.2497
31
0.0
0
LINE
8
0
10
615.7934
20
399.2497
30
0.0
11
613.2006
21
402.5564
31
0.0
0
LINE
8
0
10
613.2006
20
402.5564
30
0.0
11
610.3932
21
404.76715
31
0.0
0
LINE
8
0
10
682.51764
20
867.9807
30
0.0
11
574.0626
21
803.2769
31
0.0
0
LINE
8
0
10
574.0626
20
803.2769
30
0.0
11
497.46204
21
728.0014
31
0.0
0
LINE
8
0
10
497.46204
20
728.0014
30
0.0
11
449.30817
21
650.3973
31
0.0
0
LINE
8
0
10
449.30817
20
650.3973
30
0.0
11
425.12738
21
576.5902
31
0.0
0
LINE
8
0
10
425.12738
20
576.5902
30
0.0
11
419.9914
21
510.74197
31
0.0
0
LINE
8
0
10
419.9914
20
510.74197
30
0.0
11
428.99097
21
455.30026
31
0.0
0
LINE
8
0
10
428.99097
20
455.30026
30
0.0
11
447.5775
21
411.3001
31
0.0
0
LINE
8
0
10
447.5775
20
411.3001
30
0.0
11
471.78433
21
378.68198
31
0.0
0
LINE
8
0
10
471.78433
20
378.68198
30
0.0
11
498.34598
21
356.59885
31
0.0
0
LINE
8
0
10
498.34598
20
356.59885
30
0.0
11
524.73456
21
343.69415
31
0.0
0
LINE
8
0
10
524.73456
20
343.69415
30
0.0
11
549.13416
21
338.33853
31
0.0
0
LINE
8
0
10
549.13416
20
338.33853
30
0.0
11
570.3721
21
338.82056
31
0.0
0
LINE
8
0
10
570.3721
20
338.82056
30
0.0
11
587.8235
21
343.49017
31
0.0
0
LINE
8
0
10
587.8235
20
343.49017
30
0.0
11
601.304
21
350.8584
31
0.0
0
LINE
8
0
10
601.304
20
350.8584
30
0.0
11
610.96075
21
359.65775
31
0.0
0
LINE
8
0
10
610.96075
20
359.65775
30
0.0
11
617.1702
21
368.8706
31
0.0
0
LINE
8
0
10
617.1702
20
368.8706
30
0.0
11
620.448
21
377.73178
31
0.0
0
LINE
8
0
10
620.448
20
377.73178
30
0.0
11
621.37427
21
385.7128
31
0.0
0
LINE
8
0
10
621.37427
20
385.7128
30
0.0
11
620.5345
21
392.4936
31
0.0
0
LINE
8
0
10
620.5345
20
392.4936
30
0.0
11
618.4768
21
397.9275
31
0.0
0
LINE
8
0
10
618.4768
20
397.9275
30
0.0
11
615.6838
21
402.00357
31
0.0
0
LINE
8
0
10
615.6838
20
402.00357
30
0.0
11
612.55615
21
404.80978
31
0.0
0
LINE
8
0
10
612.55615
20
404.80978
30
0.0
11
609.4075
21
406.49948
31
0.0
0
LINE
8
0
10
600.0
20
875.2001
30
0.0
11
504.42838
21
792.64624
31
0.0
0
LINE
8
0
10
504.42838
20
792.64624
30
0.0
11
442.063
21
705.21277
31
0.0
0
LINE
8
0
10
442.063
20
705.21277
30
0.0
11
408.11642
21
620.4258
31
0.0
0
LINE
8
0
10
408.11642
20
620.4258
30
0.0
11
397.1195
21
543.541
31
0.0
0
LINE
8
0
10
397.1195
20
543.541
30
0.0
11
403.49597
21
477.80133
31
0.0
0
LINE
8
0
10
403.49597
20
477.80133
30
0.0
11
421.9862
21
424.76468
31
0.0
0
LINE
8
0
10
421.9862
20
424.76468
30
0.0
11
447.9309
21
384.66052
31
0.0
0
LINE
8
0
10
447.9309
20
384.66052
30
0.0
11
477.43405
21
356.7414
31
0.0
0
LINE
8
0
10
477.43405
20
356.7414
30
0.0
11
507.42688
21
339.60614
31
0.0
0
LINE
8
0
10
507.42688
20
339.60614
30
0.0
11
535.6554
21
331.47983
31
0.0
0
LINE
8
0
10
535.6554
20
331.47983
30
0.0
11
560.6143
21
330.44257
31
0.0
0
LINE
8
0
10
560.6143
20
330.44257
30
0.0
11
581.4459
21
334.60516
31
0.0
0
LINE
8
0
10
581.4459
20
334.60516
30
0.0
11
597.82135
21
342.23425
31
0.0
0
LINE
8
0
10
597.82135
20
342.23425
30
0.0
11
609.81757
21
351.83142
31
0.0
0
LINE
8
0
10
609.81757
20
351.83142
30
0.0
11
617.7996
21
362.17395
31
0.0
0
LINE
8
0
10
617.7996
20
362.17395
30
0.0
11
622.31494
21
372.3251
31
0.0
0
LINE
8
0
10
622.31494
20
372.3251
30
0.0
11
624.0042
21
381.62085
31
0.0
0
LINE
8
0
10
624.0042
20
381.62085
30
0.0
11
623.5305
21
389.64145
31
0.0
0
LINE
8
0
10
623.5305
20
389.64145
30
0.0
11
621.526
21
396.1734
31
0.0
0
LINE
8
0
10
621.526
20
396.1734
30
0.0
11
618.55597
21
401.16745
31
0.0
0
LINE
8
0
10
618.55597
20
401.16745
30
0.0
11
615.09753
21
404.6966
31
0.0
0
LINE
8
0
10
615.09753
20
404.6966
30
0.0
11
611.53015
21
406.91708
31
0.0
0
LINE
8
0
10
611.53015
20
406.91708
30
0.0
11
608.1359
21
408.03436
31
0.0
0
LINE
8
0
10
517.48236
20
867.9807
30
0.0
11
437.698
21
770.0852
31
0.0
0
LINE
8
0
10
437.698
20
770.0852
30
0.0
11
391.46274
21
673.15045
31
0.0
0
LINE
8
0
10
391.46274
20
673.15045
30
0.0
11
372.75507
21
583.7568
31
0.0
0
LINE
8
0
10
372.75507
20
583.7568
30
0.0
11
375.27606
21
506.1305
31
0.0
0
LINE
8
0
10
375.27606
20
506.1305
30
0.0
11
392.97125
21
442.49683
31
0.0
0
LINE
8
0
10
392.97125
20
442.49683
30
0.0
11
420.3903
21
393.47668
31
0.0
0
LINE
8
0
10
420.3903
20
393.47668
30
0.0
11
452.90485
21
358.48706
31
0.0
0
LINE
8
0
10
452.90485
20
358.48706
30
0.0
11
486.8079
21
336.11523
31
0.0
0
LINE
8
0
10
486.8079
20
336.11523
30
0.0
11
519.32056
21
324.44852
31
0.0
0
LINE
8
0
10
519.32056
20
324.44852
30
0.0
11
548.5314
21
321.34747
31
0.0
0
LINE
8
0
10
548.5314
20
321.34747
30
0.0
11
573.2912
21
324.66003
31
0.0
0
LINE
8
0
10
573.2912
20
324.66003
30
0.0
11
593.08344
21
332.37677
31
0.0
0
LINE
8
0
10
593.08344
20
332.37677
30
0.0
11
607.8853
21
342.73352
31
0.0
0
LINE
8
0
10
607.8853
20
342.73352
30
0.0
11
618.0328
21
354.268
31
0.0
0
LINE
8
0
10
618.0328
20
354.268
30
0.0
11
624.0976
21
365.83948
31
0.0
0
LINE
8
0
10
624.0976
20
365.83948
30
0.0
11
626.7816
21
376.62048
31
0.0
0
LINE
8
0
10
626.7816
20
376.62048
30
0.0
11
626.83105
21
386.06836
31
0.0
0
LINE
8
0
10
626.83105
20
386.06836
30
0.0
11
624.97174
21
393.88483
31
0.0
0
LINE
8
0
10
624.97174
20
393.88483
30
0.0
11
621.8634
21
399.96948
31
0.0
0
LINE
8
0
10
621.8634
20
399.96948
30
0.0
11
618.07135
21
404.37192
31
0.0
0
LINE
8
0
10
618.07135
20
404.37192
30
0.0
11
614.0526
21
407.2469
31
0.0
0
LINE
8
0
10
614.0526
20
407.2469
30
0.0
11
610.1539
21
408.81418
31
0.0
0
LINE
8
0
10
610.1539
20
408.81418
30
0.0
11
606.6172
21
409.32507
31
0.0
0
LINE
8
0
10
437.47202
20
846.542
30
0.0
11
375.8991
21
736.27936
31
0.0
0
LINE
8
0
10
375.8991
20
736.27936
30
0.0
11
347.19882
21
632.7886
31
0.0
0
LINE
8
0
10
347.19882
20
632.7886
30
0.0
11
344.2984
21
541.5044
31
0.0
0
LINE
8
0
10
344.2984
20
541.5044
30
0.0
11
360.2608
21
465.49524
31
0.0
0
LINE
8
0
10
360.2608
20
465.49524
30
0.0
11
388.737
21
405.90103
31
0.0
0
LINE
8
0
10
388.737
20
405.90103
30
0.0
11
424.2517
21
362.3869
31
0.0
0
LINE
8
0
10
424.2517
20
362.3869
30
0.0
11
462.3482
21
333.57492
31
0.0
0
LINE
8
0
10
462.3482
20
333.57492
30
0.0
11
499.621
21
317.4302
31
0.0
0
LINE
8
0
10
499.621
20
317.4302
30
0.0
11
533.66565
21
311.58646
31
0.0
0
LINE
8
0
10
533.66565
20
311.58646
30
0.0
11
562.9711
21
313.60498
31
0.0
0
LINE
8
0
10
562.9711
20
313.60498
30
0.0
11
586.77966
21
321.1667
31
0.0
0
LINE
8
0
10
586.77966
20
321.1667
30
0.0
11
604.93115
21
332.2031
31
0.0
0
LINE
8
0
10
604.93115
20
332.2031
30
0.0
11
617.7097
21
344.9728
31
0.0
0
LINE
8
0
10
617.7097
20
344.9728
30
0.0
11
625.70013
21
358.09412
31
0.0
0
LINE
8
0
10
625.70013
20
358.09412
30
0.0
11
629.66345
21
370.54297
31
0.0
0
LINE
8
0
10
629.66345
20
370.54297
30
0.0
11
630.4345
21
381.62625
31
0.0
0
LINE
8
0
10
630.4345
20
381.62625
30
0.0
11
628.84265
21
390.93918
31
0.0
0
LINE
8
0
10
628.84265
20
390.93918
30
0.0
11
625.65424
21
398.31406
31
0.0
0
LINE
8
0
10
625.65424
20
398.31406
30
0.0
11
621.53656
21
403.76648
31
0.0
0
LINE
8
0
10
621.53656
20
403.76648
30
0.0
11
617.03766
21
407.44357
31
0.0
0
LINE
8
0
10
617.03766
20
407.44357
30
0.0
11
612.58075
21
409.57703
31
0.0
0
LINE
8
0
10
612.58075
20
409.57703
30
0.0
11
608.46906
21
410.44348
31
0.0
0
LINE
8
0
10
608.46906
20
410.44348
30
0.0
11
604.8974
21
410.3325
31
0.0
0
LINE
8
0
10
362.39996
20
811.5353
30
0.0
11
320.90936
21
692.25574
31
0.0
0
LINE
8
0
10
320.90936
20
692.25574
30
0.0
11
310.61606
21
585.3534
31
0.0
0
LINE
8
0
10
310.61606
20
585.3534
30
0.0
11
323.61105
21
494.95242
31
0.0
0
LINE
8
0
10
323.61105
20
494.95242
30
0.0
11
352.52982
21
422.86984
31
0.0
0
LINE
8
0
10
352.52982
20
422.86984
30
0.0
11
390.92188
21
369.12585
31
0.0
0
LINE
8
0
10
390.92188
20
369.12585
30
0.0
11
433.4532
21
332.43994
31
0.0
0
LINE
8
0
10
433.4532
20
332.43994
30
0.0
11
475.97403
21
310.68106
31
0.0
0
LINE
8
0
10
475.97403
20
310.68106
30
0.0
11
515.48413
21
301.25397
31
0.0
0
LINE
8
0
10
515.48413
20
301.25397
30
0.0
11
550.02625
21
301.41083
31
0.0
0
LINE
8
0
10
550.02625
20
301.41083
30
0.0
11
578.5361
21
308.4875
31
0.0
0
LINE
8
0
10
578.5361
20
308.4875
30
0.0
11
600.66974
21
320.06866
31
0.0
0
LINE
8
0
10
600.66974
20
320.06866
30
0.0
11
616.6291
21
334.08936
31
0.0
0
LINE
8
0
10
616.6291
20
334.08936
30
0.0
11
626.99603
21
348.88406
31
0.0
0
LINE
8
0
10
626.99603
20
348.88406
30
0.0
11
632.58655
21
363.19354
31
0.0
0
LINE
8
0
10
632.58655
20
363.19354
30
0.0
11
634.32794
21
376.14148
31
0.0
0
LINE
8
0
10
634.32794
20
376.14148
30
0.0
11
633.1627
21
387.19028
31
0.0
0
LINE
8
0
10
633.1627
20
387.19028
30
0.0
11
629.97784
21
396.0853
31
0.0
0
LINE
8
0
10
629.97784
20
396.0853
30
0.0
11
625.55725
21
402.79446
31
0.0
0
LINE
8
0
10
625.55725
20
402.79446
30
0.0
11
620.55536
21
407.44904
31
0.0
0
LINE
8
0
10
620.55536
20
407.44904
30
0.0
11
615.4862
21
410.28903
31
0.0
0
LINE
8
0
10
615.4862
20
410.28903
30
0.0
11
610.72656
21
411.61615
31
0.0
0
LINE
8
0
10
610.72656
20
411.61615
30
0.0
11
606.5269
21
411.75546
31
0.0
0
LINE
8
0
10
606.5269
20
411.75546
30
0.0
11
603.02875
21
411.0259
31
0.0
0
LINE
8
0
10
294.5473
20
764.02435
30
0.0
11
274.3997
21
639.3522
31
0.0
0
LINE
8
0
10
274.3997
20
639.3522
30
0.0
11
282.82617
21
532.2865
31
0.0
0
LINE
8
0
10
282.82617
20
532.2865
30
0.0
11
311.32172
21
445.51544
31
0.0
0
LINE
8
0
10
311.32172
20
445.51544
30
0.0
11
352.31815
21
379.54965
31
0.0
0
LINE
8
0
10
352.31815
20
379.54965
30
0.0
11
399.45947
21
333.28888
31
0.0
0
LINE
8
0
10
399.45947
20
333.28888
30
0.0
11
447.7151
21
304.54575
31
0.0
0
LINE
8
0
10
447.7151
20
304.54575
30
0.0
11
493.36838
21
290.5011
31
0.0
0
LINE
8
0
10
493.36838
20
290.5011
30
0.0
11
533.91516
21
288.0781
31
0.0
0
LINE
8
0
10
533.91516
20
288.0781
30
0.0
11
567.9053
21
294.23077
31
0.0
0
LINE
8
0
10
567.9053
20
294.23077
30
0.0
11
594.7531
21
306.1506
31
0.0
0
LINE
8
0
10
594.7531
20
306.1506
30
0.0
11
614.5395
21
321.3993
31
0.0
0
LINE
8
0
10
614.5395
20
321.3993
30
0.0
11
627.8217
21
337.9783
31
0.0
0
LINE
8
0
10
627.8217
20
337.9783
30
0.0
11
635.46216
21
354.34845
31
0.0
0
LINE
8
0
10
635.46216
20
354.34845
30
0.0
11
638.48285
21
369.41132
31
0.0
0
LINE
8
0
10
638.48285
20
369.41132
30
0.0
11
637.9494
21
382.46494
31
0.0
0
LINE
8
0
10
637.9494
20
382.46494
30
0.0
11
634.8833
21
393.14352
31
0.0
0
LINE
8
0
10
634.8833
20
393.14352
30
0.0
11
630.2022
21
401.35034
31
0.0
0
LINE
8
0
10
630.2022
20
401.35034
30
0.0
11
624.6838
21
407.19
31
0.0
0
LINE
8
0
10
624.6838
20
407.19
30
0.0
11
618.9495
21
410.90527
31
0.0
0
LINE
8
0
10
618.9495
20
410.90527
30
0.0
11
613.4643
21
412.82187
31
0.0
0
LINE
8
0
10
613.4643
20
412.82187
30
0.0
11
608.5465
21
413.3023
31
0.0
0
LINE
8
0
10
608.5465
20
413.3023
30
0.0
11
604.3864
21
412.71024
31
0.0
0
LINE
8
0
10
604.3864
20
412.71024
30
0.0
11
601.0681
21
411.38437
31
0.0
0
LINE
8
0
10
235.97565
20
705.4527
30
0.0
11
237.78323
21
579.17596
31
0.0
0
LINE
8
0
10
237.78323
20
579.17596
30
0.0
11
264.67346
21
475.2001
31
0.0
0
LINE
8
0
10
264.67346
20
475.2001
30
0.0
11
307.8037
21
394.69553
31
0.0
0
LINE
8
0
10
307.8037
20
394.69553
30
0.0
11
359.63214
21
336.85083
31
0.0
0
LINE
8
0
10
359.63214
20
336.85083
30
0.0
11
414.0904
21
299.47888
31
0.0
0
LINE
8
0
10
414.0904
20
299.47888
30
0.0
11
466.60413
21
279.5519
31
0.0
0
LINE
8
0
10
466.60413
20
279.5519
30
0.0
11
514.00256
21
273.6483
31
0.0
0
LINE
8
0
10
514.00256
20
273.6483
30
0.0
11
554.3542
21
278.30292
31
0.0
0
LINE
8
0
10
554.3542
20
278.30292
30
0.0
11
586.7595
21
290.26447
31
0.0
0
LINE
8
0
10
586.7595
20
290.26447
30
0.0
11
611.1296
21
306.66528
31
0.0
0
LINE
8
0
10
611.1296
20
306.66528
30
0.0
11
627.96747
21
325.11816
31
0.0
0
LINE
8
0
10
627.96747
20
325.11816
30
0.0
11
638.16895
21
343.75174
31
0.0
0
LINE
8
0
10
638.16895
20
343.75174
30
0.0
11
642.85065
21
361.1999
31
0.0
0
LINE
8
0
10
642.85065
20
361.1999
30
0.0
11
643.2099
21
376.55847
31
0.0
0
LINE
8
0
10
643.2099
20
376.55847
30
0.0
11
640.4178
21
389.32117
31
0.0
0
LINE
8
0
10
640.4178
20
389.32117
30
0.0
11
635.54395
21
399.3051
31
0.0
0
LINE
8
0
10
635.54395
20
399.3051
30
0.0
11
629.50885
21
406.57437
31
0.0
0
LINE
8
0
10
629.50885
20
406.57437
30
0.0
11
623.06024
21
411.36703
31
0.0
0
LINE
8
0
10
623.06024
20
411.36703
30
0.0
11
616.768
21
414.03015
31
0.0
0
LINE
8
0
10
616.768
20
414.03015
30
0.0
11
611.03326
21
414.96512
31
0.0
0
LINE
8
0
10
611.03326
20
414.96512
30
0.0
11
606.10675
21
414.58432
31
0.0
0
LINE
8
0
10
606.10675
20
414.58432
30
0.0
11
602.1127
21
413.27884
31
0.0
0
LINE
8
0
10
602.1127
20
413.27884
30
0.0
11
599.075
21
411.39688
31
0.0
0
LINE
8
0
10
188.46469
20
637.60004
30
0.0
11
212.17255
21
513.5556
31
0.0
0
LINE
8
0
10
212.17255
20
513.5556
30
0.0
11
256.70944
21
415.82883
31
0.0
0
LINE
8
0
10
256.70944
20
415.82883
30
0.0
11
313.16394
21
344.03674
31
0.0
0
LINE
8
0
10
313.16394
20
344.03674
30
0.0
11
374.2496
21
296.0708
31
0.0
0
LINE
8
0
10
374.2496
20
296.0708
30
0.0
11
434.3701
21
268.72318
31
0.0
0
LINE
8
0
10
434.3701
20
268.72318
30
0.0
11
489.5463
21
258.21783
31
0.0
0
LINE
8
0
10
489.5463
20
258.21783
30
0.0
11
537.2498
21
260.63455
31
0.0
0
LINE
8
0
10
537.2498
20
260.63455
30
0.0
11
576.1801
21
272.22546
31
0.0
0
LINE
8
0
10
576.1801
20
272.22546
30
0.0
11
606.01605
21
289.6324
31
0.0
0
LINE
8
0
10
606.01605
20
289.6324
30
0.0
11
627.1679
21
310.01587
31
0.0
0
LINE
8
0
10
627.1679
20
310.01587
30
0.0
11
640.54565
21
331.11227
31
0.0
0
LINE
8
0
10
640.54565
20
331.11227
30
0.0
11
647.3565
21
351.23425
31
0.0
0
LINE
8
0
10
647.3565
20
351.23425
30
0.0
11
648.93726
21
369.23032
31
0.0
0
LINE
8
0
10
648.93726
20
369.23032
30
0.0
11
646.624
21
384.41794
31
0.0
0
LINE
8
0
10
646.624
20
384.41794
30
0.0
11
641.65814
21
396.50186
31
0.0
0
LINE
8
0
10
641.65814
20
396.50186
30
0.0
11
635.12463
21
405.4878
31
0.0
0
LINE
8
0
10
635.12463
20
405.4878
30
0.0
11
627.91895
21
411.59866
31
0.0
0
LINE
8
0
10
627.91895
20
411.59866
30
0.0
11
620.736
21
415.1987
31
0.0
0
LINE
8
0
10
620.736
20
415.1987
30
0.0
11
614.0769
21
416.72873
31
0.0
0
LINE
8
0
10
614.0769
20
416.72873
30
0.0
11
608.26697
21
416.6537
31
0.0
0
LINE
8
0
10
608.26697
20
416.6537
30
0.0
11
603.48145
21
415.42316
31
0.0
0
LINE
8
0
10
603.48145
20
415.42316
30
0.0
11
599.7747
21
413.44397
31
0.0
0
LINE
8
0
10
599.7747
20
413.44397
30
0.0
11
597.11005
21
411.0631
31
0.0
0
LINE
8
0
10
153.45804
20
562.528
30
0.0
11
198.3458
21
444.48492
31
0.0
0
LINE
8
0
10
198.3458
20
444.48492
30
0.0
11
259.17618
21
355.97656
31
0.0
0
LINE
8
0
10
259.17618
20
355.97656
30
0.0
11
327.23953
21
295.0784
31
0.0
0
LINE
8
0
10
327.23953
20
295.0784
30
0.0
11
395.72638
21
258.44855
31
0.0
0
LINE
8
0
10
395.72638
20
258.44855
30
0.0
11
459.68237
21
241.95622
31
0.0
0
LINE
8
0
10
459.68237
20
241.95622
30
0.0
11
515.84454
21
241.19176
31
0.0
0
LINE
8
0
10
515.84454
20
241.19176
30
0.0
11
562.40375
21
251.85536
31
0.0
0
LINE
8
0
10
562.40375
20
251.85536
30
0.0
11
598.7298
21
270.0304
31
0.0
0
LINE
8
0
10
598.7298
20
270.0304
30
0.0
11
625.0898
21
292.35382
31
0.0
0
LINE
8
0
10
625.0898
20
292.35382
30
0.0
11
642.38074
21
316.1006
31
0.0
0
LINE
8
0
10
642.38074
20
316.1006
30
0.0
11
651.8919
21
339.19952
31
0.0
0
LINE
8
0
10
651.8919
20
339.19952
30
0.0
11
655.10516
21
360.19846
31
0.0
0
LINE
8
0
10
655.10516
20
360.19846
30
0.0
11
653.53687
21
378.19565
31
0.0
0
LINE
8
0
10
653.53687
20
378.19565
30
0.0
11
648.62146
21
392.75085
31
0.0
0
LINE
8
0
10
648.62146
20
392.75085
30
0.0
11
641.6327
21
403.78888
31
0.0
0
LINE
8
0
10
641.6327
20
403.78888
30
0.0
11
633.63806
21
411.50375
31
0.0
0
LINE
8
0
10
633.63806
20
411.50375
30
0.0
11
625.4807
21
416.2705
31
0.0
0
LINE
8
0
10
625.4807
20
416.2705
30
0.0
11
617.7818
21
418.56857
31
0.0
0
LINE
8
0
10
617.7818
20
418.56857
30
0.0
11
610.9581
21
418.919
31
0.0
0
LINE
8
0
10
610.9581
20
418.919
30
0.0
11
605.2495
21
417.8362
31
0.0
0
LINE
8
0
10
605.2495
20
417.8362
30
0.0
11
600.7503
21
415.7934
31
0.0
0
LINE
8
0
10
600.7503
20
415.7934
30
0.0
11
597.44366
21
413.2006
31
0.0
0
LINE
8
0
10
597.44366
20
413.2006
30
0.0
11
595.23285
21
410.39322
31
0.0
0
LINE
8
0
10
132.01932
20
482.51767
30
0.0
11
196.72308
21
374.0626
31
0.0
0
LINE
8
0
10
196.72308
20
374.0626
30
0.0
11
271.99863
21
297.46198
31
0.0
0
LINE
8
0
10
271.99863
20
297.46198
30
0.0
11
349.6028
21
249.30806
31
0.0
0
LINE
8
0
10
349.6028
20
249.30806
30
0.0
11
423.4099
21
225.12732
31
0.0
0
LINE
8
0
10
423.4099
20
225.12732
30
0.0
11
489.25815
21
219.99135
31
0.0
0
LINE
8
0
10
489.25815
20
219.99135
30
0.0
11
544.6998
21
228.99097
31
0.0
0
LINE
8
0
10
544.6998
20
228.99097
30
0.0
11
588.6999
21
247.5775
31
0.0
0
LINE
8
0
10
588.6999
20
247.5775
30
0.0
11
621.318
21
271.78433
31
0.0
0
LINE
8
0
10
621.318
20
271.78433
30
0.0
11
643.4011
21
298.34595
31
0.0
0
LINE
8
0
10
643.4011
20
298.34595
30
0.0
11
656.3058
21
324.73453
31
0.0
0
LINE
8
0
10
656.3058
20
324.73453
30
0.0
11
661.66144
21
349.13412
31
0.0
0
LINE
8
0
10
661.66144
20
349.13412
30
0.0
11
661.17944
21
370.372
31
0.0
0
LINE
8
0
10
661.17944
20
370.372
30
0.0
11
656.5098
21
387.82346
31
0.0
0
LINE
8
0
10
656.5098
20
387.82346
30
0.0
11
649.1416
21
401.30396
31
0.0
0
LINE
8
0
10
649.1416
20
401.30396
30
0.0
11
640.3423
21
410.96072
31
0.0
0
LINE
8
0
10
640.3423
20
410.96072
30
0.0
11
631.12946
21
417.17017
31
0.0
0
LINE
8
0
10
631.12946
20
417.17017
30
0.0
11
622.26825
21
420.448
31
0.0
0
LINE
8
0
10
622.26825
20
420.448
30
0.0
11
614.28723
21
421.37424
31
0.0
0
LINE
8
0
10
614.28723
20
421.37424
30
0.0
11
607.5064
21
420.53445
31
0.0
0
LINE
8
0
10
607.5064
20
420.53445
30
0.0
11
602.0725
21
418.4768
31
0.0
0
LINE
8
0
10
602.0725
20
418.4768
30
0.0
11
597.99646
21
415.68375
31
0.0
0
LINE
8
0
10
597.99646
20
415.68375
30
0.0
11
595.19025
21
412.55615
31
0.0
0
LINE
8
0
10
595.19025
20
412.55615
30
0.0
11
593.50055
21
409.4075
31
0.0
0
LINE
8
0
10
124.79996
20
399.99997
30
0.0
11
207.35379
21
304.42834
31
0.0
0
LINE
8
0
10
207.35379
20
304.42834
30
0.0
11
294.78726
21
242.06291
31
0.0
0
LINE
8
0
10
294.78726
20
242.06291
30
0.0
11
379.57428
21
208.1164
31
0.0
0
LINE
8
0
10
379.57428
20
208.1164
30
0.0
11
456.459
21
197.11948
31
0.0
0
LINE
8
0
10
456.459
20
197.11948
30
0.0
11
522.1987
21
203.49596
31
0.0
0
LINE
8
0
10
522.1987
20
203.49596
30
0.0
11
575.23535
21
221.98619
31
0.0
0
LINE
8
0
10
575.23535
20
221.98619
30
0.0
11
615.3395
21
247.9309
31
0.0
0
LINE
8
0
10
615.3395
20
247.9309
30
0.0
11
643.25854
21
277.43405
31
0.0
0
LINE
8
0
10
643.25854
20
277.43405
30
0.0
11
660.3938
21
307.42685
31
0.0
0
LINE
8
0
10
660.3938
20
307.42685
30
0.0
11
668.52014
21
335.65536
31
0.0
0
LINE
8
0
10
668.52014
20
335.65536
30
0.0
11
669.55743
21
360.61426
31
0.0
0
LINE
8
0
10
669.55743
20
360.61426
30
0.0
11
665.3948
21
381.44583
31
0.0
0
LINE
8
0
10
665.3948
20
381.44583
30
0.0
11
657.76575
21
397.82126
31
0.0
0
LINE
8
0
10
657.76575
20
397.82126
30
0.0
11
648.1686
21
409.81754
31
0.0
0
LINE
8
0
10
648.1686
20
409.81754
30
0.0
11
637.82605
21
417.79956
31
0.0
0
LINE
8
0
10
637.82605
20
417.79956
30
0.0
11
627.6749
21
422.31488
31
0.0
0
LINE
8
0
10
627.6749
20
422.31488
30
0.0
11
618.3792
21
424.00418
31
0.0
0
LINE
8
0
10
618.3792
20
424.00418
30
0.0
11
610.3586
21
423.5305
31
0.0
0
LINE
8
0
10
610.3586
20
423.5305
30
0.0
11
603.8266
21
421.52597
31
0.0
0
LINE
8
0
10
603.8266
20
421.52597
30
0.0
11
598.8326
21
418.55597
31
0.0
0
LINE
8
0
10
598.8326
20
418.55597
30
0.0
11
595.3034
21
415.09756
31
0.0
0
LINE
8
0
10
595.3034
20
415.09756
30
0.0
11
593.08295
21
411.53018
31
0.0
0
LINE
8
0
10
593.08295
20
411.53018
30
0.0
11
591.96564
21
408.13596
31
0.0
0
LINE
8
0
10
132.01932
20
317.48236
30
0.0
11
229.91483
21
237.69792
31
0.0
0
LINE
8
0
10
229.91483
20
237.69792
30
0.0
11
326.84964
21
191.46265
31
0.0
0
LINE
8
0
10
326.84964
20
191.46265
30
0.0
11
416.24332
21
172.75497
31
0.0
0
LINE
8
0
10
416.24332
20
172.75497
30
0.0
11
493.86954
21
175.27606
31
0.0
0
LINE
8
0
10
493.86954
20
175.27606
30
0.0
11
557.5032
21
192.97127
31
0.0
0
LINE
8
0
10
557.5032
20
192.97127
30
0.0
11
606.52325
21
220.39029
31
0.0
0
LINE
8
0
10
606.52325
20
220.39029
30
0.0
11
641.5129
21
252.90482
31
0.0
0
LINE
8
0
10
641.5129
20
252.90482
30
0.0
11
663.88464
21
286.80783
31
0.0
0
LINE
8
0
10
663.88464
20
286.80783
30
0.0
11
675.5514
21
319.32047
31
0.0
0
LINE
8
0
10
675.5514
20
319.32047
30
0.0
11
678.65247
21
348.53125
31
0.0
0
LINE
8
0
10
678.65247
20
348.53125
30
0.0
11
675.3399
21
373.2911
31
0.0
0
LINE
8
0
10
675.3399
20
373.2911
30
0.0
11
667.6232
21
393.08337
31
0.0
0
LINE
8
0
10
667.6232
20
393.08337
30
0.0
11
657.2665
21
407.88525
31
0.0
0
LINE
8
0
10
657.2665
20
407.88525
30
0.0
11
645.73206
21
418.03275
31
0.0
0
LINE
8
0
10
645.73206
20
418.03275
30
0.0
11
634.1605
21
424.09756
31
0.0
0
LINE
8
0
10
634.1605
20
424.09756
30
0.0
11
623.3796
21
426.78156
31
0.0
0
LINE
8
0
10
623.3796
20
426.78156
30
0.0
11
613.9317
21
426.83102
31
0.0
0
LINE
8
0
10
613.9317
20
426.83102
30
0.0
11
606.1152
21
424.97174
31
0.0
0
LINE
8
0
10
606.1152
20
424.97174
30
0.0
11
600.0306
21
421.86343
31
0.0
0
LINE
8
0
10
600.0306
20
421.86343
30
0.0
11
595.6281
21
418.07135
31
0.0
0
LINE
8
0
10
595.6281
20
418.07135
30
0.0
11
592.7531
21
414.05264
31
0.0
0
LINE
8
0
10
592.7531
20
414.05264
30
0.0
11
591.18585
21
410.15387
31
0.0
0
LINE
8
0
10
591.18585
20
410.15387
30
0.0
11
590.6749
21
406.61722
31
0.0
0
LINE
8
0
10
153.45804
20
237.47202
30
0.0
11
263.7207
21
175.89906
31
0.0
0
LINE
8
0
10
263.7207
20
175.89906
30
0.0
11
367.21155
21
147.19875
31
0.0
0
LINE
8
0
10
367.21155
20
147.19875
30
0.0
11
458.49567
21
144.29834
31
0.0
0
LINE
8
0
10
458.49567
20
144.29834
30
0.0
11
534.5048
21
160.26077
31
0.0
0
LINE
8
0
10
534.5048
20
160.26077
30
0.0
11
594.09894
21
188.737
31
0.0
0
LINE
8
0
10
594.09894
20
188.737
30
0.0
11
637.61304
21
224.25171
31
0.0
0
LINE
8
0
10
637.61304
20
224.25171
30
0.0
11
666.425
21
262.34814
31
0.0
0
LINE
8
0
10
666.425
20
262.34814
30
0.0
11
682.5697
21
299.6209
31
0.0
0
LINE
8
0
10
682.5697
20
299.6209
30
0.0
11
688.41345
21
333.66553
31
0.0
0
LINE
8
0
10
688.41345
20
333.66553
30
0.0
11
686.395
21
362.97104
31
0.0
0
LINE
8
0
10
686.395
20
362.97104
30
0.0
11
678.8333
21
386.7795
31
0.0
0
LINE
8
0
10
678.8333
20
386.7795
30
0.0
11
667.79694
21
404.9311
31
0.0
0
LINE
8
0
10
667.79694
20
404.9311
30
0.0
11
655.0272
21
417.70966
31
0.0
0
LINE
8
0
10
655.0272
20
417.70966
30
0.0
11
641.9059
21
425.70007
31
0.0
0
LINE
8
0
10
641.9059
20
425.70007
30
0.0
11
629.4571
21
429.6634
31
0.0
0
LINE
8
0
10
629.4571
20
429.6634
30
0.0
11
618.3738
21
430.4345
31
0.0
0
LINE
8
0
10
618.3738
20
430.4345
30
0.0
11
609.0609
21
428.8426
31
0.0
0
LINE
8
0
10
609.0609
20
428.8426
30
0.0
11
601.686
21
425.65427
31
0.0
0
LINE
8
0
10
601.686
20
425.65427
30
0.0
11
596.2336
21
421.53656
31
0.0
0
LINE
8
0
10
596.2336
20
421.53656
30
0.0
11
592.55646
21
417.03766
31
0.0
0
LINE
8
0
10
592.55646
20
417.03766
30
0.0
11
590.423
21
412.58075
31
0.0
0
LINE
8
0
10
590.423
20
412.58075
30
0.0
11
589.5565
21
408.46906
31
0.0
0
LINE
8
0
10
589.5565
20
408.46906
30
0.0
11
589.66754
21
404.8974
31
0.0
0
LINE
8
0
10
188.46469
20
162.4
30
0.0
11
307.74423
21
120.90939
31
0.0
0
LINE
8
0
10
307.74423
20
120.90939
30
0.0
11
414.64648
21
110.61612
31
0.0
0
LINE
8
0
10
414.64648
20
110.61612
30
0.0
11
505.04758
21
123.61105
31
0.0
0
LINE
8
0
10
505.04758
20
123.61105
30
0.0
11
577.13007
21
152.52982
31
0.0
0
LINE
8
0
10
577.13007
20
152.52982
30
0.0
11
630.874
21
190.92186
31
0.0
0
LINE
8
0
10
630.874
20
190.92186
30
0.0
11
667.56
21
233.45316
31
0.0
0
LINE
8
0
10
667.56
20
233.45316
30
0.0
11
689.31885
21
275.97397
31
0.0
0
LINE
8
0
10
689.31885
20
275.97397
30
0.0
11
698.746
21
315.484
31
0.0
0
LINE
8
0
10
698.746
20
315.484
30
0.0
11
698.5891
21
350.02612
31
0.0
0
LINE
8
0
10
698.5891
20
350.02612
30
0.0
11
691.51245
21
378.53592
31
0.0
0
LINE
8
0
10
691.51245
20
378.53592
30
0.0
11
679.93134
21
400.66962
31
0.0
0
LINE
8
0
10
679.93134
20
400.66962
30
0.0
11
665.91064
21
416.62897
31
0.0
0
LINE
8
0
10
665.91064
20
416.62897
30
0.0
11
651.11597
21
426.99597
31
0.0
0
LINE
8
0
10
651.11597
20
426.99597
30
0.0
11
636.8065
21
432.58652
31
0.0
0
LINE
8
0
10
636.8065
20
432.58652
30
0.0
11
623.8586
21
434.3279
31
0.0
0
LINE
8
0
10
623.8586
20
434.3279
30
0.0
11
612.80975
21
433.16272
31
0.0
0
LINE
8
0
10
612.80975
20
433.16272
30
0.0
11
603.9148
21
429.9778
31
0.0
0
LINE
8
0
10
603.9148
20
429.9778
30
0.0
11
597.20557
21
425.55728
31
0.0
0
LINE
8
0
10
597.20557
20
425.55728
30
0.0
11
592.55096
21
420.55536
31
0.0
0
LINE
8
0
10
592.55096
20
420.55536
30
0.0
11
589.711
21
415.48624
31
0.0
0
LINE
8
0
10
589.711
20
415.48624
30
0.0
11
588.38385
21
410.7266
31
0.0
0
LINE
8
0
10
588.38385
20
410.7266
30
0.0
11
588.24457
21
406.52692
31
0.0
0
LINE
8
0
10
588.24457
20
406.52692
30
0.0
11
588.97406
21
403.02878
31
0.0
0
LINE
8
0
10
235.97562
20
94.5473
30
0.0
11
360.64783
21
74.39972
31
0.0
0
LINE
8
0
10
360.64783
20
74.39972
30
0.0
11
467.71356
21
82.82617
31
0.0
0
LINE
8
0
10
467.71356
20
82.82617
30
0.0
11
554.4844
21
111.32172
31
0.0
0
LINE
8
0
10
554.4844
20
111.32172
30
0.0
11
620.45013
21
152.31813
31
0.0
0
LINE
8
0
10
620.45013
20
152.31813
30
0.0
11
666.71094
21
199.45941
31
0.0
0
LINE
8
0
10
666.71094
20
199.45941
30
0.0
11
695.4541
21
247.715
31
0.0
0
LINE
8
0
10
695.4541
20
247.715
30
0.0
11
709.4987
21
293.3682
31
0.0
0
LINE
8
0
10
709.4987
20
293.3682
30
0.0
11
711.92175
21
333.91498
31
0.0
0
LINE
8
0
10
711.92175
20
333.91498
30
0.0
11
705.76917
21
367.90512
31
0.0
0
LINE
8
0
10
705.76917
20
367.90512
30
0.0
11
693.84937
21
394.75293
31
0.0
0
LINE
8
0
10
693.84937
20
394.75293
30
0.0
11
678.60077
21
414.53934
31
0.0
0
LINE
8
0
10
678.60077
20
414.53934
30
0.0
11
662.0217
21
427.8216
31
0.0
0
LINE
8
0
10
662.0217
20
427.8216
30
0.0
11
645.6516
21
435.46204
31
0.0
0
LINE
8
0
10
645.6516
20
435.46204
30
0.0
11
630.58875
21
438.48282
31
0.0
0
LINE
8
0
10
630.58875
20
438.48282
30
0.0
11
617.53516
21
437.94937
31
0.0
0
LINE
8
0
10
617.53516
20
437.94937
30
0.0
11
606.85657
21
434.8833
31
0.0
0
LINE
8
0
10
606.85657
20
434.8833
30
0.0
11
598.6497
21
430.20218
31
0.0
0
LINE
8
0
10
598.6497
20
430.20218
30
0.0
11
592.81006
21
424.68378
31
0.0
0
LINE
8
0
10
592.81006
20
424.68378
30
0.0
11
589.0947
21
418.94955
31
0.0
0
LINE
8
0
10
589.0947
20
418.94955
30
0.0
11
587.17816
21
413.46432
31
0.0
0
LINE
8
0
10
587.17816
20
413.46432
30
0.0
11
586.6977
21
408.5465
31
0.0
0
LINE
8
0
10
586.6977
20
408.5465
30
0.0
11
587.2898
21
404.38644
31
0.0
0
LINE
8
0
10
587.2898
20
404.38644
30
0.0
11
588.61566
21
401.06815
31
0.0
0
LINE
8
0
10
294.54733
20
35.975586
30
0.0
11
420.824
21
37.783264
31
0.0
0
LINE
8
0
10
420.824
20
37.783264
30
0.0
11
524.7999
21
64.67343
31
0.0
0
LINE
8
0
10
524.7999
20
64.67343
30
0.0
11
605.30444
21
107.80371
31
0.0
0
LINE
8
0
10
605.30444
20
107.80371
30
0.0
11
663.149
21
159.6321
31
0.0
0
LINE
8
0
10
663.149
20
159.6321
30
0.0
11
700.52094
21
214.09029
31
0.0
0
LINE
8
0
10
700.52094
20
214.09029
30
0.0
11
720.44794
21
266.60394
31
0.0
0
LINE
8
0
10
720.44794
20
266.60394
30
0.0
11
726.3516
21
314.00244
31
0.0
0
LINE
8
0
10
726.3516
20
314.00244
30
0.0
11
721.69696
21
354.35397
31
0.0
0
LINE
8
0
10
721.69696
20
354.35397
30
0.0
11
709.73553
21
386.75934
31
0.0
0
LINE
8
0
10
709.73553
20
386.75934
30
0.0
11
693.3347
21
411.12943
31
0.0
0
LINE
8
0
10
693.3347
20
411.12943
30
0.0
11
674.8819
21
427.96735
31
0.0
0
LINE
8
0
10
674.8819
20
427.96735
30
0.0
11
656.24835
21
438.16888
31
0.0
0
LINE
8
0
10
656.24835
20
438.16888
30
0.0
11
638.8002
21
442.8506
31
0.0
0
LINE
8
0
10
638.8002
20
442.8506
30
0.0
11
623.4416
21
443.20984
31
0.0
0
LINE
8
0
10
623.4416
20
443.20984
30
0.0
11
610.6789
21
440.4178
31
0.0
0
LINE
8
0
10
610.6789
20
440.4178
30
0.0
11
600.69495
21
435.54395
31
0.0
0
LINE
8
0
10
600.69495
20
435.54395
30
0.0
11
593.42566
21
429.50888
31
0.0
0
LINE
8
0
10
593.42566
20
429.50888
30
0.0
11
588.633
21
423.06024
31
0.0
0
LINE
8
0
10
588.633
20
423.06024
30
0.0
11
585.96985
21
416.768
31
0.0
0
LINE
8
0
10
585.96985
20
416.768
30
0.0
11
585.0349
21
411.03326
31
0.0
0
LINE
8
0
10
585.0349
20
411.03326
30
0.0
11
585.4157
21
406.10675
31
0.0
0
LINE
8
0
10
585.4157
20
406.10675
30
0.0
11
586.7212
21
402.1127
31
0.0
0
LINE
8
0
10
586.7212
20
402.1127
30
0.0
11
588.60315
21
399.07504
31
0.0
0
LINE
8
0
10
362.40002
20
-11.535339
30
0.0
11
486.44437
21
12.172577
31
0.0
0
LINE
8
0
10
486.44437
20
12.172577
30
0.0
11
584.17126
21
56.709442
31
0.0
0
LINE
8
0
10
584.17126
20
56.709442
30
0.0
11
655.9632
21
113.16394
31
0.0
0
LINE
8
0
10
655.9632
20
113.16394
30
0.0
11
703.92914
21
174.24957
31
0.0
0
LINE
8
0
10
703.92914
20
174.24957
30
0.0
11
731.2767
21
234.36995
31
0.0
0
LINE
8
0
10
731.2767
20
234.36995
30
0.0
11
741.782
21
289.5461
31
0.0
0
LINE
8
0
10
741.782
20
289.5461
30
0.0
11
739.36536
21
337.24963
31
0.0
0
LINE
8
0
10
739.36536
20
337.24963
30
0.0
11
727.7745
21
376.1799
31
0.0
0
LINE
8
0
10
727.7745
20
376.1799
30
0.0
11
710.3676
21
406.01587
31
0.0
0
LINE
8
0
10
710.3676
20
406.01587
30
0.0
11
689.9842
21
427.16776
31
0.0
0
LINE
8
0
10
689.9842
20
427.16776
30
0.0
11
668.8878
21
440.54553
31
0.0
0
LINE
8
0
10
668.8878
20
440.54553
30
0.0
11
648.76587
21
447.3564
31
0.0
0
LINE
8
0
10
648.76587
20
447.3564
30
0.0
11
630.7698
21
448.9372
31
0.0
0
LINE
8
0
10
630.7698
20
448.9372
30
0.0
11
615.58215
21
446.624
31
0.0
0
LINE
8
0
10
615.58215
20
446.624
30
0.0
11
603.49817
21
441.6581
31
0.0
0
LINE
8
0
10
603.49817
20
441.6581
30
0.0
11
594.51227
21
435.12463
31
0.0
0
LINE
8
0
10
594.51227
20
435.12463
30
0.0
11
588.40137
21
427.91895
31
0.0
0
LINE
8
0
10
588.40137
20
427.91895
30
0.0
11
584.80133
21
420.73605
31
0.0
0
LINE
8
0
10
584.80133
20
420.73605
30
0.0
11
583.2713
21
414.07693
31
0.0
0
LINE
8
0
10
583.2713
20
414.07693
30
0.0
11
583.3463
21
408.267
31
0.0
0
LINE
8
0
10
583.3463
20
408.267
30
0.0
11
584.57684
21
403.48145
31
0.0
0
LINE
8
0
10
584.57684
20
403.48145
30
0.0
11
586.556
21
399.77475
31
0.0
0
LINE
8
0
10
586.556
20
399.77475
30
0.0
11
588.9369
21
397.11005
31
0.0
0
LINE
8
0
10
437.47205
20
-46.541992
30
0.0
11
555.515
21
-1.6542053
31
0.0
0
LINE
8
0
10
555.515
20
-1.6542053
30
0.0
11
644.0233
21
59.176147
31
0.0
0
LINE
8
0
10
644.0233
20
59.176147
30
0.0
11
704.92145
21
127.23947
31
0.0
0
LINE
8
0
10
704.92145
20
127.23947
30
0.0
11
741.55115
21
195.7262
31
0.0
0
LINE
8
0
10
741.55115
20
195.7262
30
0.0
11
758.0436
21
259.68213
31
0.0
0
LINE
8
0
10
758.0436
20
259.68213
30
0.0
11
758.8081
21
315.84424
31
0.0
0
LINE
8
0
10
758.8081
20
315.84424
30
0.0
11
748.14453
21
362.40344
31
0.0
0
LINE
8
0
10
748.14453
20
362.40344
30
0.0
11
729.9696
21
398.72952
31
0.0
0
LINE
8
0
10
729.9696
20
398.72952
30
0.0
11
707.64624
21
425.08954
31
0.0
0
LINE
8
0
10
707.64624
20
425.08954
30
0.0
11
683.89954
21
442.38055
31
0.0
0
LINE
8
0
10
683.89954
20
442.38055
30
0.0
11
660.8006
21
451.89178
31
0.0
0
LINE
8
0
10
660.8006
20
451.89178
30
0.0
11
639.80164
21
455.10504
31
0.0
0
LINE
8
0
10
639.80164
20
455.10504
30
0.0
11
621.8045
21
453.5368
31
0.0
0
LINE
8
0
10
621.8045
20
453.5368
30
0.0
11
607.24927
21
448.62146
31
0.0
0
LINE
8
0
10
607.24927
20
448.62146
30
0.0
11
596.2112
21
441.6327
31
0.0
0
LINE
8
0
10
596.2112
20
441.6327
30
0.0
11
588.49634
21
433.6381
31
0.0
0
LINE
8
0
10
588.49634
20
433.6381
30
0.0
11
583.72955
21
425.4807
31
0.0
0
LINE
8
0
10
583.72955
20
425.4807
30
0.0
11
581.43146
21
417.7818
31
0.0
0
LINE
8
0
10
581.43146
20
417.7818
30
0.0
11
581.081
21
410.9582
31
0.0
0
LINE
8
0
10
581.081
20
410.9582
30
0.0
11
582.1638
21
405.24954
31
0.0
0
LINE
8
0
10
582.1638
20
405.24954
30
0.0
11
584.2066
21
400.75037
31
0.0
0
LINE
8
0
10
584.2066
20
400.75037
30
0.0
11
586.7994
21
397.44366
31
0.0
0
LINE
8
0
10
586.7994
20
397.44366
30
0.0
11
589.6068
21
395.23288
31
0.0
0
LINE
8
0
10
517.4824
20
-67.98071
30
0.0
11
625.9374
21
-3.2769165
31
0.0
0
LINE
8
0
10
625.9374
20
-3.2769165
30
0.0
11
702.53796
21
71.9986
31
0.0
0
LINE
8
0
10
702.53796
20
71.9986
30
0.0
11
750.6918
21
149.60272
31
0.0
0
LINE
8
0
10
750.6918
20
149.60272
30
0.0
11
774.87256
21
223.40976
31
0.0
0
LINE
8
0
10
774.87256
20
223.40976
30
0.0
11
780.0085
21
289.2578
31
0.0
0
LINE
8
0
10
780.0085
20
289.2578
30
0.0
11
771.0089
21
344.6995
31
0.0
0
LINE
8
0
10
771.0089
20
344.6995
30
0.0
11
752.4225
21
388.69965
31
0.0
0
LINE
8
0
10
752.4225
20
388.69965
30
0.0
11
728.2157
21
421.31778
31
0.0
0
LINE
8
0
10
728.2157
20
421.31778
30
0.0
11
701.6541
21
443.40094
31
0.0
0
LINE
8
0
10
701.6541
20
443.40094
30
0.0
11
675.26556
21
456.3057
31
0.0
0
LINE
8
0
10
675.26556
20
456.3057
30
0.0
11
650.86597
21
461.66135
31
0.0
0
LINE
8
0
10
650.86597
20
461.66135
30
0.0
11
629.6281
21
461.17938
31
0.0
0
LINE
8
0
10
629.6281
20
461.17938
30
0.0
11
612.17664
21
456.5098
31
0.0
0
LINE
8
0
10
612.17664
20
456.5098
30
0.0
11
598.6961
21
449.1416
31
0.0
0
LINE
8
0
10
598.6961
20
449.1416
30
0.0
11
589.03937
21
440.3423
31
0.0
0
LINE
8
0
10
589.03937
20
440.3423
30
0.0
11
582.8299
21
431.12946
31
0.0
0
LINE
8
0
10
582.8299
20
431.12946
30
0.0
11
579.55206
21
422.26828
31
0.0
0
LINE
8
0
10
579.55206
20
422.26828
30
0.0
11
578.6258
21
414.28726
31
0.0
0
LINE
8
0
10
578.6258
20
414.28726
30
0.0
11
579.4656
21
407.50647
31
0.0
0
LINE
8
0
10
579.4656
20
407.50647
30
0.0
11
581.5232
21
402.07257
31
0.0
0
LINE
8
0
10
581.5232
20
402.07257
30
0.0
11
584.3162
21
397.99646
31
0.0
0
LINE
8
0
10
584.3162
20
397.99646
30
0.0
11
587.44385
21
395.19025
31
0.0
0
LINE
8
0
10
587.44385
20
395.19025
30
0.0
11
590.59247
21
393.50052
31
0.0
0
LINE
8
0
10
600.0
20
-75.20004
30
0.0
11
695.5716
21
7.35376
31
0.0
0
LINE
8
0
10
695.5716
20
7.35376
30
0.0
11
757.937
21
94.7872
31
0.0
0
LINE
8
0
10
757.937
20
94.7872
30
0.0
11
791.8835
21
179.57417
31
0.0
0
LINE
8
0
10
791.8835
20
179.57417
30
0.0
11
802.8804
21
256.45886
31
0.0
0
LINE
8
0
10
802.8804
20
256.45886
30
0.0
11
796.50397
21
322.1985
31
0.0
0
LINE
8
0
10
796.50397
20
322.1985
30
0.0
11
778.0138
21
375.23502
31
0.0
0
LINE
8
0
10
778.0138
20
375.23502
30
0.0
11
752.06915
21
415.3392
31
0.0
0
LINE
8
0
10
752.06915
20
415.3392
30
0.0
11
722.56604
21
443.25836
31
0.0
0
LINE
8
0
10
722.56604
20
443.25836
30
0.0
11
692.57324
21
460.39365
31
0.0
0
LINE
8
0
10
692.57324
20
460.39365
30
0.0
11
664.3447
21
468.52002
31
0.0
0
LINE
8
0
10
664.3447
20
468.52002
30
0.0
11
639.38586
21
469.55734
31
0.0
0
LINE
8
0
10
639.38586
20
469.55734
30
0.0
11
618.55426
21
465.39478
31
0.0
0
LINE
8
0
10
618.55426
20
465.39478
30
0.0
11
602.17883
21
457.76572
31
0.0
0
LINE
8
0
10
602.17883
20
457.76572
30
0.0
11
590.18256
21
448.16864
31
0.0
0
LINE
8
0
10
590.18256
20
448.16864
30
0.0
11
582.2005
21
437.8261
31
0.0
0
LINE
8
0
10
582.2005
20
437.8261
30
0.0
11
577.6852
21
427.675
31
0.0
0
LINE
8
0
10
577.6852
20
427.675
30
0.0
11
575.99585
21
418.37924
31
0.0
0
LINE
8
0
10
575.99585
20
418.37924
30
0.0
11
576.46954
21
410.3586
31
0.0
0
LINE
8
0
10
576.46954
20
410.3586
30
0.0
11
578.47406
21
403.82666
31
0.0
0
LINE
8
0
10
578.47406
20
403.82666
30
0.0
11
581.44403
21
398.8326
31
0.0
0
LINE
8
0
10
581.44403
20
398.8326
30
0.0
11
584.9024
21
395.30347
31
0.0
0
LINE
8
0
10
584.9024
20
395.30347
30
0.0
11
588.4698
21
393.08295
31
0.0
0
LINE
8
0
10
588.4698
20
393.08295
30
0.0
11
591.864
21
391.96567
31
0.0
0
LINE
8
0
10
682.5176
20
-67.98068
30
0.0
11
762.30194
21
29.914764
31
0.0
0
LINE
8
0
10
762.30194
20
29.914764
30
0.0
11
808.53723
21
126.84952
31
0.0
0
LINE
8
0
10
808.53723
20
126.84952
30
0.0
11
827.2449
21
216.24315
31
0.0
0
LINE
8
0
10
827.2449
20
216.24315
30
0.0
11
824.7239
21
293.8694
31
0.0
0
LINE
8
0
10
824.7239
20
293.8694
30
0.0
11
807.0287
21
357.503
31
0.0
0
LINE
8
0
10
807.0287
20
357.503
30
0.0
11
779.60974
21
406.5231
31
0.0
0
LINE
8
0
10
779.60974
20
406.5231
30
0.0
11
747.0952
21
441.5127
31
0.0
0
LINE
8
0
10
747.0952
20
441.5127
30
0.0
11
713.19226
21
463.88452
31
0.0
0
LINE
8
0
10
713.19226
20
463.88452
30
0.0
11
680.6796
21
475.5513
31
0.0
0
LINE
8
0
10
680.6796
20
475.5513
30
0.0
11
651.4689
21
478.65237
31
0.0
0
LINE
8
0
10
651.4689
20
478.65237
30
0.0
11
626.709
21
475.3399
31
0.0
0
LINE
8
0
10
626.709
20
475.3399
30
0.0
11
606.91675
21
467.6232
31
0.0
0
LINE
8
0
10
606.91675
20
467.6232
30
0.0
11
592.1148
21
457.26648
31
0.0
0
LINE
8
0
10
592.1148
20
457.26648
30
0.0
11
581.96735
21
445.73206
31
0.0
0
LINE
8
0
10
581.96735
20
445.73206
30
0.0
11
575.90247
21
434.16058
31
0.0
0
LINE
8
0
10
575.90247
20
434.16058
30
0.0
11
573.21844
21
423.3796
31
0.0
0
LINE
8
0
10
573.21844
20
423.3796
30
0.0
11
573.169
21
413.93173
31
0.0
0
LINE
8
0
10
573.169
20
413.93173
30
0.0
11
575.02826
21
406.11523
31
0.0
0
LINE
8
0
10
575.02826
20
406.11523
30
0.0
11
578.1366
21
400.03058
31
0.0
0
LINE
8
0
10
578.1366
20
400.03058
30
0.0
11
581.92865
21
395.62814
31
0.0
0
LINE
8
0
10
581.92865
20
395.62814
30
0.0
11
585.9473
21
392.75314
31
0.0
0
LINE
8
0
10
585.9473
20
392.75314
30
0.0
11
589.8461
21
391.18585
31
0.0
0
LINE
8
0
10
589.8461
20
391.18585
30
0.0
11
593.38275
21
390.67493
31
0.0
0
LINE
8
0
10
762.52795
20
-46.54196
30
0.0
11
824.1008
21
63.72061
31
0.0
0
LINE
8
0
10
824.1008
20
63.72061
30
0.0
11
852.80115
21
167.2114
31
0.0
0
LINE
8
0
10
852.80115
20
167.2114
30
0.0
11
855.70154
21
258.49548
31
0.0
0
LINE
8
0
10
855.70154
20
258.49548
30
0.0
11
839.7392
21
334.5046
31
0.0
0
LINE
8
0
10
839.7392
20
334.5046
30
0.0
11
811.263
21
394.0988
31
0.0
0
LINE
8
0
10
811.263
20
394.0988
30
0.0
11
775.7483
21
437.6129
31
0.0
0
LINE
8
0
10
775.7483
20
437.6129
30
0.0
11
737.6519
21
466.4249
31
0.0
0
LINE
8
0
10
737.6519
20
466.4249
30
0.0
11
700.37915
21
482.56958
31
0.0
0
LINE
8
0
10
700.37915
20
482.56958
30
0.0
11
666.3346
21
488.4134
31
0.0
0
LINE
8
0
10
666.3346
20
488.4134
30
0.0
11
637.02905
21
486.39496
31
0.0
0
LINE
8
0
10
637.02905
20
486.39496
30
0.0
11
613.2206
21
478.83328
31
0.0
0
LINE
8
0
10
613.2206
20
478.83328
30
0.0
11
595.06903
21
467.79694
31
0.0
0
LINE
8
0
10
595.06903
20
467.79694
30
0.0
11
582.2904
21
455.02722
31
0.0
0
LINE
8
0
10
582.2904
20
455.02722
30
0.0
11
574.3
21
441.90594
31
0.0
0
LINE
8
0
10
574.3
20
441.90594
30
0.0
11
570.3367
21
429.45712
31
0.0
0
LINE
8
0
10
570.3367
20
429.45712
30
0.0
11
569.56555
21
418.37384
31
0.0
0
LINE
8
0
10
569.56555
20
418.37384
30
0.0
11
571.1574
21
409.0609
31
0.0
0
LINE
8
0
10
571.1574
20
409.0609
30
0.0
11
574.34576
21
401.68604
31
0.0
0
LINE
8
0
10
574.34576
20
401.68604
30
0.0
11
578.46344
21
396.23358
31
0.0
0
LINE
8
0
10
578.46344
20
396.23358
30
0.0
11
582.96234
21
392.5565
31
0.0
0
LINE
8
0
10
582.96234
20
392.5565
30
0.0
11
587.41925
21
390.42303
31
0.0
0
LINE
8
0
10
587.41925
20
390.42303
30
0.0
11
591.53094
21
389.55655
31
0.0
0
LINE
8
0
10
591.53094
20
389.55655
30
0.0
11
595.1026
21
389.66754
31
0.0
0
LINE
8
0
10
837.6
20
-11.535339
30
0.0
11
879.0906
21
107.74417
31
0.0
0
LINE
8
0
10
879.0906
20
107.74417
30
0.0
11
889.3838
21
214.64642
31
0.0
0
LINE
8
0
10
889.3838
20
214.64642
30
0.0
11
876.3889
21
305.04733
31
0.0
0
LINE
8
0
10
876.3889
20
305.04733
30
0.0
11
847.47015
21
377.12988
31
0.0
0
LINE
8
0
10
847.47015
20
377.12988
30
0.0
11
809.0782
21
430.87387
31
0.0
0
LINE
8
0
10
809.0782
20
430.87387
30
0.0
11
766.5469
21
467.55984
31
0.0
0
LINE
8
0
10
766.5469
20
467.55984
30
0.0
11
724.0261
21
489.31876
31
0.0
0
LINE
8
0
10
724.0261
20
489.31876
30
0.0
11
684.5161
21
498.74588
31
0.0
0
LINE
8
0
10
684.5161
20
498.74588
30
0.0
11
649.974
21
498.58905
31
0.0
0
LINE
8
0
10
649.974
20
498.58905
30
0.0
11
621.4642
21
491.51245
31
0.0
0
LINE
8
0
10
621.4642
20
491.51245
30
0.0
11
599.3305
21
479.93134
31
0.0
0
LINE
8
0
10
599.3305
20
479.93134
30
0.0
11
583.3711
21
465.91068
31
0.0
0
LINE
8
0
10
583.3711
20
465.91068
30
0.0
11
573.004
21
451.116
31
0.0
0
LINE
8
0
10
573.004
20
451.116
30
0.0
11
567.4135
21
436.80652
31
0.0
0
LINE
8
0
10
567.4135
20
436.80652
30
0.0
11
565.6721
21
423.8586
31
0.0
0
LINE
8
0
10
565.6721
20
423.8586
30
0.0
11
566.8373
21
412.8098
31
0.0
0
LINE
8
0
10
566.8373
20
412.8098
30
0.0
11
570.02216
21
403.9148
31
0.0
0
LINE
8
0
10
570.02216
20
403.9148
30
0.0
11
574.4427
21
397.2056
31
0.0
0
LINE
8
0
10
574.4427
20
397.2056
30
0.0
11
579.44464
21
392.55103
31
0.0
0
LINE
8
0
10
579.44464
20
392.55103
30
0.0
11
584.51373
21
389.71103
31
0.0
0
LINE
8
0
10
584.51373
20
389.71103
30
0.0
11
589.2734
21
388.38388
31
0.0
0
LINE
8
0
10
589.2734
20
388.38388
30
0.0
11
593.4731
21
388.24457
31
0.0
0
LINE
8
0
10
593.4731
20
388.24457
30
0.0
11
596.9712
21
388.9741
31
0.0
0
LINE
8
0
10
905.45264
20
35.975616
30
0.0
11
925.6002
21
160.64774
31
0.0
0
LINE
8
0
10
925.6002
20
160.64774
30
0.0
11
917.1737
21
267.71332
31
0.0
0
LINE
8
0
10
917.1737
20
267.71332
30
0.0
11
888.6782
21
354.4843
31
0.0
0
LINE
8
0
10
888.6782
20
354.4843
30
0.0
11
847.6819
21
420.45007
31
0.0
0
LINE
8
0
10
847.6819
20
420.45007
30
0.0
11
800.54065
21
466.71085
31
0.0
0
LINE
8
0
10
800.54065
20
466.71085
30
0.0
11
752.28503
21
495.454
31
0.0
0
LINE
8
0
10
752.28503
20
495.454
30
0.0
11
706.63184
21
509.4987
31
0.0
0
LINE
8
0
10
706.63184
20
509.4987
30
0.0
11
666.0851
21
511.92175
31
0.0
0
LINE
8
0
10
666.0851
20
511.92175
30
0.0
11
632.095
21
505.76917
31
0.0
0
LINE
8
0
10
632.095
20
505.76917
30
0.0
11
605.24713
21
493.84937
31
0.0
0
LINE
8
0
10
605.24713
20
493.84937
30
0.0
11
585.4607
21
478.60077
31
0.0
0
LINE
8
0
10
585.4607
20
478.60077
30
0.0
11
572.17847
21
462.02176
31
0.0
0
LINE
8
0
10
572.17847
20
462.02176
30
0.0
11
564.53796
21
445.65164
31
0.0
0
LINE
8
0
10
564.53796
20
445.65164
30
0.0
11
561.5172
21
430.58878
31
0.0
0
LINE
8
0
10
561.5172
20
430.58878
30
0.0
11
562.05066
21
417.53516
31
0.0
0
LINE
8
0
10
562.05066
20
417.53516
30
0.0
11
565.1167
21
406.85657
31
0.0
0
LINE
8
0
10
565.1167
20
406.85657
30
0.0
11
569.7978
21
398.64975
31
0.0
0
LINE
8
0
10
569.7978
20
398.64975
30
0.0
11
575.3162
21
392.8101
31
0.0
0
LINE
8
0
10
575.3162
20
392.8101
30
0.0
11
581.0504
21
389.0948
31
0.0
0
LINE
8
0
10
581.0504
20
389.0948
30
0.0
11
586.53564
21
387.17816
31
0.0
0
LINE
8
0
10
586.53564
20
387.17816
30
0.0
11
591.4535
21
386.6977
31
0.0
0
LINE
8
0
10
591.4535
20
386.6977
30
0.0
11
595.6135
21
387.28976
31
0.0
0
LINE
8
0
10
595.6135
20
387.28976
30
0.0
11
598.9318
21
388.61566
31
0.0
0
LINE
8
0
10
964.0243
20
94.54724
30
0.0
11
962.2167
21
220.8239
31
0.0
0
LINE
8
0
10
962.2167
20
220.8239
30
0.0
11
935.32654
21
324.79968
31
0.0
0
LINE
8
0
10
935.32654
20
324.79968
30
0.0
11
892.1963
21
405.30423
31
0.0
0
LINE
8
0
10
892.1963
20
405.30423
30
0.0
11
840.3679
21
463.1489
31
0.0
0
LINE
8
0
10
840.3679
20
463.1489
30
0.0
11
785.9097
21
500.52087
31
0.0
0
LINE
8
0
10
785.9097
20
500.52087
30
0.0
11
733.39606
21
520.4479
31
0.0
0
LINE
8
0
10
733.39606
20
520.4479
30
0.0
11
685.9976
21
526.35156
31
0.0
0
LINE
8
0
10
685.9976
20
526.35156
30
0.0
11
645.64606
21
521.69696
31
0.0
0
LINE
8
0
10
645.64606
20
521.69696
30
0.0
11
613.2407
21
509.73553
31
0.0
0
LINE
8
0
10
613.2407
20
509.73553
30
0.0
11
588.87067
21
493.33475
31
0.0
0
LINE
8
0
10
588.87067
20
493.33475
30
0.0
11
572.0327
21
474.8819
31
0.0
0
LINE
8
0
10
572.0327
20
474.8819
30
0.0
11
561.8311
21
456.24835
31
0.0
0
LINE
8
0
10
561.8311
20
456.24835
30
0.0
11
557.1494
21
438.80017
31
0.0
0
LINE
8
0
10
557.1494
20
438.80017
30
0.0
11
556.79016
21
423.4416
31
0.0
0
LINE
8
0
10
556.79016
20
423.4416
30
0.0
11
559.5822
21
410.6789
31
0.0
0
LINE
8
0
10
559.5822
20
410.6789
30
0.0
11
564.45605
21
400.69495
31
0.0
0
LINE
8
0
10
564.45605
20
400.69495
30
0.0
11
570.4911
21
393.4257
31
0.0
0
LINE
8
0
10
570.4911
20
393.4257
30
0.0
11
576.93976
21
388.63303
31
0.0
0
LINE
8
0
10
576.93976
20
388.63303
30
0.0
11
583.232
21
385.9699
31
0.0
0
LINE
8
0
10
583.232
20
385.9699
30
0.0
11
588.96674
21
385.0349
31
0.0
0
LINE
8
0
10
588.96674
20
385.0349
30
0.0
11
593.89325
21
385.4157
31
0.0
0
LINE
8
0
10
593.89325
20
385.4157
30
0.0
11
597.88727
21
386.72116
31
0.0
0
LINE
8
0
10
597.88727
20
386.72116
30
0.0
11
600.9249
21
388.60312
31
0.0
0
LINE
8
0
10
1011.5353
20
162.39989
30
0.0
11
987.8274
21
286.44424
31
0.0
0
LINE
8
0
10
987.8274
20
286.44424
30
0.0
11
943.2905
21
384.17096
31
0.0
0
LINE
8
0
10
943.2905
20
384.17096
30
0.0
11
886.8361
21
455.96298
31
0.0
0
LINE
8
0
10
886.8361
20
455.96298
30
0.0
11
825.7505
21
503.92896
31
0.0
0
LINE
8
0
10
825.7505
20
503.92896
30
0.0
11
765.63007
21
531.2766
31
0.0
0
LINE
8
0
10
765.63007
20
531.2766
30
0.0
11
710.4539
21
541.782
31
0.0
0
LINE
8
0
10
710.4539
20
541.782
30
0.0
11
662.75037
21
539.36536
31
0.0
0
LINE
8
0
10
662.75037
20
539.36536
30
0.0
11
623.8201
21
527.7745
31
0.0
0
LINE
8
0
10
623.8201
20
527.7745
30
0.0
11
593.9842
21
510.3676
31
0.0
0
LINE
8
0
10
593.9842
20
510.3676
30
0.0
11
572.8323
21
489.9842
31
0.0
0
LINE
8
0
10
572.8323
20
489.9842
30
0.0
11
559.45447
21
468.88782
31
0.0
0
LINE
8
0
10
559.45447
20
468.88782
30
0.0
11
552.6436
21
448.76587
31
0.0
0
LINE
8
0
10
552.6436
20
448.76587
30
0.0
11
551.0628
21
430.76978
31
0.0
0
LINE
8
0
10
551.0628
20
430.76978
30
0.0
11
553.37604
21
415.58215
31
0.0
0
LINE
8
0
10
553.37604
20
415.58215
30
0.0
11
558.34186
21
403.4982
31
0.0
0
LINE
8
0
10
558.34186
20
403.4982
30
0.0
11
564.87537
21
394.51224
31
0.0
0
LINE
8
0
10
564.87537
20
394.51224
30
0.0
11
572.08105
21
388.4014
31
0.0
0
LINE
8
0
10
572.08105
20
388.4014
30
0.0
11
579.2639
21
384.80133
31
0.0
0
LINE
8
0
10
579.2639
20
384.80133
30
0.0
11
585.92303
21
383.2713
31
0.0
0
LINE
8
0
10
585.92303
20
383.2713
30
0.0
11
591.733
21
383.34634
31
0.0
0
LINE
8
0
10
591.733
20
383.34634
30
0.0
11
596.51855
21
384.57684
31
0.0
0
LINE
8
0
10
596.51855
20
384.57684
30
0.0
11
600.2252
21
386.55603
31
0.0
0
LINE
8
0
10
600.2252
20
386.55603
30
0.0
11
602.88995
21
388.9369
31
0.0
0
LINE
8
0
10
1046.542
20
237.47191
30
0.0
11
1001.6542
21
355.51492
31
0.0
0
LINE
8
0
10
1001.6542
20
355.51492
30
0.0
11
940.82385
21
444.02322
31
0.0
0
LINE
8
0
10
940.82385
20
444.02322
30
0.0
11
872.76056
21
504.92136
31
0.0
0
LINE
8
0
10
872.76056
20
504.92136
30
0.0
11
804.2738
21
541.5512
31
0.0
0
LINE
8
0
10
804.2738
20
541.5512
30
0.0
11
740.3179
21
558.0436
31
0.0
0
LINE
8
0
10
740.3179
20
558.0436
30
0.0
11
684.1557
21
558.8081
31
0.0
0
LINE
8
0
10
684.1557
20
558.8081
30
0.0
11
637.59656
21
548.14453
31
0.0
0
LINE
8
0
10
637.59656
20
548.14453
30
0.0
11
601.27045
21
529.9696
31
0.0
0
LINE
8
0
10
601.27045
20
529.9696
30
0.0
11
574.91046
21
507.64624
31
0.0
0
LINE
8
0
10
574.91046
20
507.64624
30
0.0
11
557.61945
21
483.8995
31
0.0
0
LINE
8
0
10
557.61945
20
483.8995
30
0.0
11
548.1082
21
460.8006
31
0.0
0
LINE
8
0
10
548.1082
20
460.8006
30
0.0
11
544.89496
21
439.80164
31
0.0
0
LINE
8
0
10
544.89496
20
439.80164
30
0.0
11
546.4632
21
421.80447
31
0.0
0
LINE
8
0
10
546.4632
20
421.80447
30
0.0
11
551.37854
21
407.24927
31
0.0
0
LINE
8
0
10
551.37854
20
407.24927
30
0.0
11
558.3673
21
396.21118
31
0.0
0
LINE
8
0
10
558.3673
20
396.21118
30
0.0
11
566.36194
21
388.49628
31
0.0
0
LINE
8
0
10
566.36194
20
388.49628
30
0.0
11
574.5193
21
383.72952
31
0.0
0
LINE
8
0
10
574.5193
20
383.72952
30
0.0
11
582.2182
21
381.43146
31
0.0
0
LINE
8
0
10
582.2182
20
381.43146
30
0.0
11
589.0418
21
381.08102
31
0.0
0
LINE
8
0
10
589.0418
20
381.08102
30
0.0
11
594.7505
21
382.16382
31
0.0
0
LINE
8
0
10
594.7505
20
382.16382
30
0.0
11
599.24963
21
384.2066
31
0.0
0
LINE
8
0
10
599.24963
20
384.2066
30
0.0
11
602.55634
21
386.79938
31
0.0
0
LINE
8
0
10
602.55634
20
386.79938
30
0.0
11
604.76715
21
389.60678
31
0.0
0
LINE
8
0
10
1067.9807
20
317.48224
30
0.0
11
1003.2769
21
425.93726
31
0.0
0
LINE
8
0
10
1003.2769
20
425.93726
30
0.0
11
928.00146
21
502.53784
31
0.0
0
LINE
8
0
10
928.00146
20
502.53784
30
0.0
11
850.39734
21
550.6917
31
0.0
0
LINE
8
0
10
850.39734
20
550.6917
30
0.0
11
776.59033
21
574.8725
31
0.0
0
LINE
8
0
10
776.59033
20
574.8725
30
0.0
11
710.7421
21
580.0085
31
0.0
0
LINE
8
0
10
710.7421
20
580.0085
30
0.0
11
655.3005
21
571.009
31
0.0
0
LINE
8
0
10
655.3005
20
571.009
30
0.0
11
611.30035
21
552.4225
31
0.0
0
LINE
8
0
10
611.30035
20
552.4225
30
0.0
11
578.6822
21
528.2157
31
0.0
0
LINE
8
0
10
578.6822
20
528.2157
30
0.0
11
556.59906
21
501.6541
31
0.0
0
LINE
8
0
10
556.59906
20
501.6541
30
0.0
11
543.6943
21
475.26556
31
0.0
0
LINE
8
0
10
543.6943
20
475.26556
30
0.0
11
538.3386
21
450.866
31
0.0
0
LINE
8
0
10
538.3386
20
450.866
30
0.0
11
538.8206
21
429.62808
31
0.0
0
LINE
8
0
10
538.8206
20
429.62808
30
0.0
11
543.49023
21
412.17664
31
0.0
0
LINE
8
0
10
543.49023
20
412.17664
30
0.0
11
550.8584
21
398.6961
31
0.0
0
LINE
8
0
10
550.8584
20
398.6961
30
0.0
11
559.6577
21
389.0393
31
0.0
0
LINE
8
0
10
559.6577
20
389.0393
30
0.0
11
568.87054
21
382.82986
31
0.0
0
LINE
8
0
10
568.87054
20
382.82986
30
0.0
11
577.73175
21
379.55203
31
0.0
0
LINE
8
0
10
577.73175
20
379.55203
30
0.0
11
585.71277
21
378.62576
31
0.0
0
LINE
8
0
10
585.71277
20
378.62576
30
0.0
11
592.4935
21
379.46555
31
0.0
0
LINE
8
0
10
592.4935
20
379.46555
30
0.0
11
597.9274
21
381.5232
31
0.0
0
LINE
8
0
10
597.9274
20
381.5232
30
0.0
11
602.00354
21
384.31625
31
0.0
0
LINE
8
0
10
602.00354
20
384.31625
30
0.0
11
604.80975
21
387.44385
31
0.0
0
LINE
8
0
10
604.80975
20
387.44385
30
0.0
11
606.49945
21
390.59247
31
0.0
0
LINE
8
0
10
1075.2001
20
400.0
30
0.0
11
992.64624
21
304.42834
31
0.0
0
LINE
8
0
10
992.64624
20
304.42834
30
0.0
11
905.21277
21
242.06294
31
0.0
0
LINE
8
0
10
905.21277
20
242.06294
30
0.0
11
820.4258
21
208.11644
31
0.0
0
LINE
8
0
10
820.4258
20
208.11644
30
0.0
11
743.5411
21
197.11952
31
0.0
0
LINE
8
0
10
743.5411
20
197.11952
30
0.0
11
677.8014
21
203.496
31
0.0
0
LINE
8
0
10
677.8014
20
203.496
30
0.0
11
624.7648
21
221.9862
31
0.0
0
LINE
8
0
10
624.7648
20
221.9862
30
0.0
11
584.6606
21
247.9309
31
0.0
0
LINE
8
0
10
584.6606
20
247.9309
30
0.0
11
556.74146
21
277.43402
31
0.0
0
LINE
8
0
10
556.74146
20
277.43402
30
0.0
11
539.6062
21
307.42682
31
0.0
0
LINE
8
0
10
539.6062
20
307.42682
30
0.0
11
531.47986
21
335.65536
31
0.0
0
LINE
8
0
10
531.47986
20
335.65536
30
0.0
11
530.44257
21
360.6143
31
0.0
0
LINE
8
0
10
530.44257
20
360.6143
30
0.0
11
534.60516
21
381.44586
31
0.0
0
LINE
8
0
10
534.60516
20
381.44586
30
0.0
11
542.23425
21
397.8213
31
0.0
0
LINE
8
0
10
542.23425
20
397.8213
30
0.0
11
551.8314
21
409.81757
31
0.0
0
LINE
8
0
10
551.8314
20
409.81757
30
0.0
11
562.17395
21
417.79962
31
0.0
0
LINE
8
0
10
562.17395
20
417.79962
30
0.0
11
572.32513
21
422.31494
31
0.0
0
LINE
8
0
10
572.32513
20
422.31494
30
0.0
11
581.62085
21
424.0042
31
0.0
0
LINE
8
0
10
581.62085
20
424.0042
30
0.0
11
589.6415
21
423.5305
31
0.0
0
LINE
8
0
10
589.6415
20
423.5305
30
0.0
11
596.1734
21
421.52597
31
0.0
0
LINE
8
0
10
596.1734
20
421.52597
30
0.0
11
601.1675
21
418.55597
31
0.0
0
LINE
8
0
10
601.1675
20
418.55597
30
0.0
11
604.6966
21
415.09756
31
0.0
0
LINE
8
0
10
604.6966
20
415.09756
30
0.0
11
606.9171
21
411.53018
31
0.0
0
LINE
8
0
10
606.9171
20
411.53018
30
0.0
11
608.03436
21
408.13596
31
0.0
0
LINE
8
0
10
1067.9807
20
482.51764
30
0.0
11
1003.2769
21
374.0626
31
0.0
0
LINE
8
0
10
1003.2769
20
374.0626
30
0.0
11
928.0014
21
297.462
31
0.0
0
LINE
8
0
10
928.0014
20
297.462
30
0.0
11
850.3972
21
249.30814
31
0.0
0
LINE
8
0
10
850.3972
20
249.30814
30
0.0
11
776.59015
21
225.12738
31
0.0
0
LINE
8
0
10
776.59015
20
225.12738
30
0.0
11
710.742
21
219.99142
31
0.0
0
LINE
8
0
10
710.742
20
219.99142
30
0.0
11
655.3003
21
228.991
31
0.0
0
LINE
8
0
10
655.3003
20
228.991
30
0.0
11
611.3002
21
247.5775
31
0.0
0
LINE
8
0
10
611.3002
20
247.5775
30
0.0
11
578.68207
21
271.7843
31
0.0
0
LINE
8
0
10
578.68207
20
271.7843
30
0.0
11
556.59894
21
298.34595
31
0.0
0
LINE
8
0
10
556.59894
20
298.34595
30
0.0
11
543.6942
21
324.7345
31
0.0
0
LINE
8
0
10
543.6942
20
324.7345
30
0.0
11
538.33856
21
349.1341
31
0.0
0
LINE
8
0
10
538.33856
20
349.1341
30
0.0
11
538.82056
21
370.37204
31
0.0
0
LINE
8
0
10
538.82056
20
370.37204
30
0.0
11
543.4902
21
387.82346
31
0.0
0
LINE
8
0
10
543.4902
20
387.82346
30
0.0
11
550.8584
21
401.30402
31
0.0
0
LINE
8
0
10
550.8584
20
401.30402
30
0.0
11
559.6577
21
410.9608
31
0.0
0
LINE
8
0
10
559.6577
20
410.9608
30
0.0
11
568.8706
21
417.17023
31
0.0
0
LINE
8
0
10
568.8706
20
417.17023
30
0.0
11
577.7318
21
420.44803
31
0.0
0
LINE
8
0
10
577.7318
20
420.44803
30
0.0
11
585.7128
21
421.37427
31
0.0
0
LINE
8
0
10
585.7128
20
421.37427
30
0.0
11
592.4936
21
420.53445
31
0.0
0
LINE
8
0
10
592.4936
20
420.53445
30
0.0
11
597.9275
21
418.4768
31
0.0
0
LINE
8
0
10
597.9275
20
418.4768
30
0.0
11
602.0036
21
415.68375
31
0.0
0
LINE
8
0
10
602.0036
20
415.68375
30
0.0
11
604.8098
21
412.55615
31
0.0
0
LINE
8
0
10
604.8098
20
412.55615
30
0.0
11
606.4995
21
409.4075
31
0.0
0
LINE
8
0
10
1046.542
20
562.52795
30
0.0
11
1001.6542
21
444.48495
31
0.0
0
LINE
8
0
10
1001.6542
20
444.48495
30
0.0
11
940.82385
21
355.97662
31
0.0
0
LINE
8
0
10
940.82385
20
355.97662
30
0.0
11
872.7605
21
295.0785
31
0.0
0
LINE
8
0
10
872.7605
20
295.0785
30
0.0
11
804.2737
21
258.44867
31
0.0
0
LINE
8
0
10
804.2737
20
258.44867
30
0.0
11
740.31775
21
241.9563
31
0.0
0
LINE
8
0
10
740.31775
20
241.9563
30
0.0
11
684.1556
21
241.19182
31
0.0
0
LINE
8
0
10
684.1556
20
241.19182
30
0.0
11
637.5964
21
251.85541
31
0.0
0
LINE
8
0
10
637.5964
20
251.85541
30
0.0
11
601.2703
21
270.0304
31
0.0
0
LINE
8
0
10
601.2703
20
270.0304
30
0.0
11
574.9103
21
292.3538
31
0.0
0
LINE
8
0
10
574.9103
20
292.3538
30
0.0
11
557.6193
21
316.10056
31
0.0
0
LINE
8
0
10
557.6193
20
316.10056
30
0.0
11
548.10815
21
339.1995
31
0.0
0
LINE
8
0
10
548.10815
20
339.1995
30
0.0
11
544.8949
21
360.19846
31
0.0
0
LINE
8
0
10
544.8949
20
360.19846
30
0.0
11
546.46313
21
378.19562
31
0.0
0
LINE
8
0
10
546.46313
20
378.19562
30
0.0
11
551.37854
21
392.75085
31
0.0
0
LINE
8
0
10
551.37854
20
392.75085
30
0.0
11
558.3673
21
403.7889
31
0.0
0
LINE
8
0
10
558.3673
20
403.7889
30
0.0
11
566.36194
21
411.50378
31
0.0
0
LINE
8
0
10
566.36194
20
411.50378
30
0.0
11
574.51935
21
416.27057
31
0.0
0
LINE
8
0
10
574.51935
20
416.27057
30
0.0
11
582.21826
21
418.5686
31
0.0
0
LINE
8
0
10
582.21826
20
418.5686
30
0.0
11
589.0419
21
418.91904
31
0.0
0
LINE
8
0
10
589.0419
20
418.91904
30
0.0
11
594.75055
21
417.8362
31
0.0
0
LINE
8
0
10
594.75055
20
417.8362
30
0.0
11
599.2497
21
415.7934
31
0.0
0
LINE
8
0
10
599.2497
20
415.7934
30
0.0
11
602.5564
21
413.2006
31
0.0
0
LINE
8
0
10
602.5564
20
413.2006
30
0.0
11
604.76715
21
410.3932
31
0.0
0
LINE
8
0
10
1011.5353
20
637.60004
30
0.0
11
987.8274
21
513.55566
31
0.0
0
LINE
8
0
10
987.8274
20
513.55566
30
0.0
11
943.2905
21
415.8289
31
0.0
0
LINE
8
0
10
943.2905
20
415.8289
30
0.0
11
886.83606
21
344.03687
31
0.0
0
LINE
8
0
10
886.83606
20
344.03687
30
0.0
11
825.7504
21
296.0709
31
0.0
0
LINE
8
0
10
825.7504
20
296.0709
30
0.0
11
765.63
21
268.72327
31
0.0
0
LINE
8
0
10
765.63
20
268.72327
30
0.0
11
710.4538
21
258.21793
31
0.0
0
LINE
8
0
10
710.4538
20
258.21793
30
0.0
11
662.75024
21
260.63458
31
0.0
0
LINE
8
0
10
662.75024
20
260.63458
30
0.0
11
623.82
21
272.2255
31
0.0
0
LINE
8
0
10
623.82
20
272.2255
30
0.0
11
593.9841
21
289.6324
31
0.0
0
LINE
8
0
10
593.9841
20
289.6324
30
0.0
11
572.83215
21
310.01587
31
0.0
0
LINE
8
0
10
572.83215
20
310.01587
30
0.0
11
559.45435
21
331.11224
31
0.0
0
LINE
8
0
10
559.45435
20
331.11224
30
0.0
11
552.6435
21
351.23422
31
0.0
0
LINE
8
0
10
552.6435
20
351.23422
30
0.0
11
551.06274
21
369.23032
31
0.0
0
LINE
8
0
10
551.06274
20
369.23032
30
0.0
11
553.376
21
384.41797
31
0.0
0
LINE
8
0
10
553.376
20
384.41797
30
0.0
11
558.34186
21
396.5019
31
0.0
0
LINE
8
0
10
558.34186
20
396.5019
30
0.0
11
564.87537
21
405.48782
31
0.0
0
LINE
8
0
10
564.87537
20
405.48782
30
0.0
11
572.08105
21
411.5987
31
0.0
0
LINE
8
0
10
572.08105
20
411.5987
30
0.0
11
579.264
21
415.19873
31
0.0
0
LINE
8
0
10
579.264
20
415.19873
30
0.0
11
585.9231
21
416.72876
31
0.0
0
LINE
8
0
10
585.9231
20
416.72876
30
0.0
11
591.7331
21
416.6537
31
0.0
0
LINE
8
0
10
591.7331
20
416.6537
30
0.0
11
596.5186
21
415.42316
31
0.0
0
LINE
8
0
10
596.5186
20
415.42316
30
0.0
11
600.2253
21
413.44397
31
0.0
0
LINE
8
0
10
600.2253
20
413.44397
30
0.0
11
602.89
21
411.0631
31
0.0
0
LINE
8
0
10
964.02435
20
705.4527
30
0.0
11
962.21674
21
579.176
31
0.0
0
LINE
8
0
10
962.21674
20
579.176
30
0.0
11
935.32654
21
475.2002
31
0.0
0
LINE
8
0
10
935.32654
20
475.2002
30
0.0
11
892.1963
21
394.69562
31
0.0
0
LINE
8
0
10
892.1963
20
394.69562
30
0.0
11
840.3679
21
336.85095
31
0.0
0
LINE
8
0
10
840.3679
20
336.85095
30
0.0
11
785.90967
21
299.479
31
0.0
0
LINE
8
0
10
785.90967
20
299.479
30
0.0
11
733.396
21
279.552
31
0.0
0
LINE
8
0
10
733.396
20
279.552
30
0.0
11
685.9975
21
273.64835
31
0.0
0
LINE
8
0
10
685.9975
20
273.64835
30
0.0
11
645.64594
21
278.30298
31
0.0
0
LINE
8
0
10
645.64594
20
278.30298
30
0.0
11
613.2406
21
290.26447
31
0.0
0
LINE
8
0
10
613.2406
20
290.26447
30
0.0
11
588.8705
21
306.66528
31
0.0
0
LINE
8
0
10
588.8705
20
306.66528
30
0.0
11
572.0326
21
325.11813
31
0.0
0
LINE
8
0
10
572.0326
20
325.11813
30
0.0
11
561.83105
21
343.7517
31
0.0
0
LINE
8
0
10
561.83105
20
343.7517
30
0.0
11
557.14935
21
361.1999
31
0.0
0
LINE
8
0
10
557.14935
20
361.1999
30
0.0
11
556.7901
21
376.5585
31
0.0
0
LINE
8
0
10
556.7901
20
376.5585
30
0.0
11
559.5822
21
389.32117
31
0.0
0
LINE
8
0
10
559.5822
20
389.32117
30
0.0
11
564.45605
21
399.3051
31
0.0
0
LINE
8
0
10
564.45605
20
399.3051
30
0.0
11
570.49115
21
406.5744
31
0.0
0
LINE
8
0
10
570.49115
20
406.5744
30
0.0
11
576.93976
21
411.36707
31
0.0
0
LINE
8
0
10
576.93976
20
411.36707
30
0.0
11
583.23206
21
414.03018
31
0.0
0
LINE
8
0
10
583.23206
20
414.03018
30
0.0
11
588.9668
21
414.96515
31
0.0
0
LINE
8
0
10
588.9668
20
414.96515
30
0.0
11
593.8933
21
414.58432
31
0.0
0
LINE
8
0
10
593.8933
20
414.58432
30
0.0
11
597.8873
21
413.27884
31
0.0
0
LINE
8
0
10
597.8873
20
413.27884
30
0.0
11
600.925
21
411.39688
31
0.0
0
LINE
8
0
10
905.4527
20
764.02435
30
0.0
11
925.6002
21
639.3522
31
0.0
0
LINE
8
0
10
925.6002
20
639.3522
30
0.0
11
917.17377
21
532.28656
31
0.0
0
LINE
8
0
10
917.17377
20
532.28656
30
0.0
11
888.6783
21
445.51556
31
0.0
0
LINE
8
0
10
888.6783
20
445.51556
30
0.0
11
847.6819
21
379.54977
31
0.0
0
LINE
8
0
10
847.6819
20
379.54977
30
0.0
11
800.5406
21
333.289
31
0.0
0
LINE
8
0
10
800.5406
20
333.289
30
0.0
11
752.285
21
304.54587
31
0.0
0
LINE
8
0
10
752.285
20
304.54587
30
0.0
11
706.6317
21
290.50122
31
0.0
0
LINE
8
0
10
706.6317
20
290.50122
30
0.0
11
666.08496
21
288.07816
31
0.0
0
LINE
8
0
10
666.08496
20
288.07816
30
0.0
11
632.0948
21
294.2308
31
0.0
0
LINE
8
0
10
632.0948
20
294.2308
30
0.0
11
605.24695
21
306.1506
31
0.0
0
LINE
8
0
10
605.24695
20
306.1506
30
0.0
11
585.4606
21
321.39926
31
0.0
0
LINE
8
0
10
585.4606
20
321.39926
30
0.0
11
572.17834
21
337.97827
31
0.0
0
LINE
8
0
10
572.17834
20
337.97827
30
0.0
11
564.5379
21
354.34842
31
0.0
0
LINE
8
0
10
564.5379
20
354.34842
30
0.0
11
561.51715
21
369.41132
31
0.0
0
LINE
8
0
10
561.51715
20
369.41132
30
0.0
11
562.0506
21
382.46494
31
0.0
0
LINE
8
0
10
562.0506
20
382.46494
30
0.0
11
565.1167
21
393.14355
31
0.0
0
LINE
8
0
10
565.1167
20
393.14355
30
0.0
11
569.7978
21
401.35037
31
0.0
0
LINE
8
0
10
569.7978
20
401.35037
30
0.0
11
575.3163
21
407.19
31
0.0
0
LINE
8
0
10
575.3163
20
407.19
30
0.0
11
581.0505
21
410.9053
31
0.0
0
LINE
8
0
10
581.0505
20
410.9053
30
0.0
11
586.5357
21
412.8219
31
0.0
0
LINE
8
0
10
586.5357
20
412.8219
30
0.0
11
591.4535
21
413.30234
31
0.0
0
LINE
8
0
10
591.4535
20
413.30234
30
0.0
11
595.6136
21
412.71024
31
0.0
0
LINE
8
0
10
595.6136
20
412.71024
30
0.0
11
598.9319
21
411.38437
31
0.0
0
LINE
8
0
10
837.6
20
811.53534
30
0.0
11
879.0906
21
692.2558
31
0.0
0
LINE
8
0
10
879.0906
20
692.2558
30
0.0
11
889.3839
21
585.3535
31
0.0
0
LINE
8
0
10
889.3839
20
585.3535
30
0.0
11
876.3889
21
494.95255
31
0.0
0
LINE
8
0
10
876.3889
20
494.95255
30
0.0
11
847.47015
21
422.87
31
0.0
0
LINE
8
0
10
847.47015
20
422.87
30
0.0
11
809.0781
21
369.126
31
0.0
0
LINE
8
0
10
809.0781
20
369.126
30
0.0
11
766.5469
21
332.44003
31
0.0
0
LINE
8
0
10
766.5469
20
332.44003
30
0.0
11
724.026
21
310.68115
31
0.0
0
LINE
8
0
10
724.026
20
310.68115
30
0.0
11
684.516
21
301.25403
31
0.0
0
LINE
8
0
10
684.516
20
301.25403
30
0.0
11
649.9739
21
301.4109
31
0.0
0
LINE
8
0
10
649.9739
20
301.4109
30
0.0
11
621.46405
21
308.48752
31
0.0
0
LINE
8
0
10
621.46405
20
308.48752
30
0.0
11
599.3303
21
320.06866
31
0.0
0
LINE
8
0
10
599.3303
20
320.06866
30
0.0
11
583.371
21
334.08936
31
0.0
0
LINE
8
0
10
583.371
20
334.08936
30
0.0
11
573.00397
21
348.88403
31
0.0
0
LINE
8
0
10
573.00397
20
348.88403
30
0.0
11
567.41345
21
363.19354
31
0.0
0
LINE
8
0
10
567.41345
20
363.19354
30
0.0
11
565.67206
21
376.14148
31
0.0
0
LINE
8
0
10
565.67206
20
376.14148
30
0.0
11
566.8373
21
387.19028
31
0.0
0
LINE
8
0
10
566.8373
20
387.19028
30
0.0
11
570.02216
21
396.0853
31
0.0
0
LINE
8
0
10
570.02216
20
396.0853
30
0.0
11
574.44275
21
402.7945
31
0.0
0
LINE
8
0
10
574.44275
20
402.7945
30
0.0
11
579.44464
21
407.44907
31
0.0
0
LINE
8
0
10
579.44464
20
407.44907
30
0.0
11
584.5138
21
410.28903
31
0.0
0
LINE
8
0
10
584.5138
20
410.28903
30
0.0
11
589.27344
21
411.61615
31
0.0
0
LINE
8
0
10
589.27344
20
411.61615
30
0.0
11
593.47314
21
411.75546
31
0.0
0
LINE
8
0
10
593.47314
20
411.75546
30
0.0
11
596.97125
21
411.02594
31
0.0
0
LINE
8
0
10
762.52795
20
846.542
30
0.0
11
824.1009
21
736.2793
31
0.0
0
LINE
8
0
10
824.1009
20
736.2793
30
0.0
11
852.8012
21
632.7886
31
0.0
0
LINE
8
0
10
852.8012
20
632.7886
30
0.0
11
855.7016
21
541.5044
31
0.0
0
LINE
8
0
10
855.7016
20
541.5044
30
0.0
11
839.7392
21
465.49527
31
0.0
0
LINE
8
0
10
839.7392
20
465.49527
30
0.0
11
811.263
21
405.9011
31
0.0
0
LINE
8
0
10
811.263
20
405.9011
30
0.0
11
775.7483
21
362.38696
31
0.0
0
LINE
8
0
10
775.7483
20
362.38696
30
0.0
11
737.65186
21
333.575
31
0.0
0
LINE
8
0
10
737.65186
20
333.575
30
0.0
11
700.3791
21
317.43027
31
0.0
0
LINE
8
0
10
700.3791
20
317.43027
30
0.0
11
666.3345
21
311.58652
31
0.0
0
LINE
8
0
10
666.3345
20
311.58652
30
0.0
11
637.02893
21
313.60498
31
0.0
0
LINE
8
0
10
637.02893
20
313.60498
30
0.0
11
613.22046
21
321.1667
31
0.0
0
LINE
8
0
10
613.22046
20
321.1667
30
0.0
11
595.06885
21
332.20306
31
0.0
0
LINE
8
0
10
595.06885
20
332.20306
30
0.0
11
582.2903
21
344.9728
31
0.0
0
LINE
8
0
10
582.2903
20
344.9728
30
0.0
11
574.2999
21
358.09412
31
0.0
0
LINE
8
0
10
574.2999
20
358.09412
30
0.0
11
570.33655
21
370.54297
31
0.0
0
LINE
8
0
10
570.33655
20
370.54297
30
0.0
11
569.5655
21
381.62625
31
0.0
0
LINE
8
0
10
569.5655
20
381.62625
30
0.0
11
571.15735
21
390.93918
31
0.0
0
LINE
8
0
10
571.15735
20
390.93918
30
0.0
11
574.34576
21
398.31406
31
0.0
0
LINE
8
0
10
574.34576
20
398.31406
30
0.0
11
578.46344
21
403.7665
31
0.0
0
LINE
8
0
10
578.46344
20
403.7665
30
0.0
11
582.9624
21
407.44357
31
0.0
0
LINE
8
0
10
582.9624
20
407.44357
30
0.0
11
587.41925
21
409.57703
31
0.0
0
LINE
8
0
10
587.41925
20
409.57703
30
0.0
11
591.53094
21
410.44348
31
0.0
0
LINE
8
0
10
591.53094
20
410.44348
30
0.0
11
595.10266
21
410.3325
31
0.0
0
LINE
8
0
10
682.51764
20
867.9807
30
0.0
11
762.302
21
770.0852
31
0.0
0
LINE
8
0
10
762.302
20
770.0852
30
0.0
11
808.5373
21
673.1504
31
0.0
0
LINE
8
0
10
808.5373
20
673.1504
30
0.0
11
827.24493
21
583.7568
31
0.0
0
LINE
8
0
10
827.24493
20
583.7568
30
0.0
11
824.7239
21
506.13055
31
0.0
0
LINE
8
0
10
824.7239
20
506.13055
30
0.0
11
807.02875
21
442.4969
31
0.0
0
LINE
8
0
10
807.02875
20
442.4969
30
0.0
11
779.60974
21
393.47678
31
0.0
0
LINE
8
0
10
779.60974
20
393.47678
30
0.0
11
747.0952
21
358.48712
31
0.0
0
LINE
8
0
10
747.0952
20
358.48712
30
0.0
11
713.19214
21
336.11533
31
0.0
0
LINE
8
0
10
713.19214
20
336.11533
30
0.0
11
680.6795
21
324.44858
31
0.0
0
LINE
8
0
10
680.6795
20
324.44858
30
0.0
11
651.4687
21
321.34753
31
0.0
0
LINE
8
0
10
651.4687
20
321.34753
30
0.0
11
626.70886
21
324.66006
31
0.0
0
LINE
8
0
10
626.70886
20
324.66006
30
0.0
11
606.9166
21
332.37677
31
0.0
0
LINE
8
0
10
606.9166
20
332.37677
30
0.0
11
592.11475
21
342.73352
31
0.0
0
LINE
8
0
10
592.11475
20
342.73352
30
0.0
11
581.9672
21
354.26797
31
0.0
0
LINE
8
0
10
581.9672
20
354.26797
30
0.0
11
575.9024
21
365.83948
31
0.0
0
LINE
8
0
10
575.9024
20
365.83948
30
0.0
11
573.2184
21
376.62048
31
0.0
0
LINE
8
0
10
573.2184
20
376.62048
30
0.0
11
573.16895
21
386.06836
31
0.0
0
LINE
8
0
10
573.16895
20
386.06836
30
0.0
11
575.02826
21
393.88486
31
0.0
0
LINE
8
0
10
575.02826
20
393.88486
30
0.0
11
578.1366
21
399.96948
31
0.0
0
LINE
8
0
10
578.1366
20
399.96948
30
0.0
11
581.92865
21
404.37195
31
0.0
0
LINE
8
0
10
581.92865
20
404.37195
30
0.0
11
585.9474
21
407.24692
31
0.0
0
LINE
8
0
10
585.9474
20
407.24692
30
0.0
11
589.8461
21
408.8142
31
0.0
0
LINE
8
0
10
589.8461
20
408.8142
30
0.0
11
593.3828
21
409.3251
31
0.0
0
LINE
8
0
10
600.0
20
875.2001
30
0.0
11
695.57166
21
792.64624
31
0.0
0
LINE
8
0
10
695.57166
20
792.64624
30
0.0
11
757.937
21
705.21277
31
0.0
0
LINE
8
0
10
757.937
20
705.21277
30
0.0
11
791.88354
21
620.4258
31
0.0
0
LINE
8
0
10
791.88354
20
620.4258
30
0.0
11
802.8805
21
543.5411
31
0.0
0
LINE
8
0
10
802.8805
20
543.5411
30
0.0
11
796.50397
21
477.80142
31
0.0
0
LINE
8
0
10
796.50397
20
477.80142
30
0.0
11
778.0138
21
424.76477
31
0.0
0
LINE
8
0
10
778.0138
20
424.76477
30
0.0
11
752.0691
21
384.6606
31
0.0
0
LINE
8
0
10
752.0691
20
384.6606
30
0.0
11
722.566
21
356.7415
31
0.0
0
LINE
8
0
10
722.566
20
356.7415
30
0.0
11
692.5732
21
339.60623
31
0.0
0
LINE
8
0
10
692.5732
20
339.60623
30
0.0
11
664.34467
21
331.4799
31
0.0
0
LINE
8
0
10
664.34467
20
331.4799
30
0.0
11
639.38574
21
330.4426
31
0.0
0
LINE
8
0
10
639.38574
20
330.4426
30
0.0
11
618.5542
21
334.6052
31
0.0
0
LINE
8
0
10
618.5542
20
334.6052
30
0.0
11
602.1787
21
342.23425
31
0.0
0
LINE
8
0
10
602.1787
20
342.23425
30
0.0
11
590.1825
21
351.8314
31
0.0
0
LINE
8
0
10
590.1825
20
351.8314
30
0.0
11
582.2004
21
362.17395
31
0.0
0
LINE
8
0
10
582.2004
20
362.17395
30
0.0
11
577.6851
21
372.32507
31
0.0
0
LINE
8
0
10
577.6851
20
372.32507
30
0.0
11
575.9958
21
381.62085
31
0.0
0
LINE
8
0
10
575.9958
20
381.62085
30
0.0
11
576.4695
21
389.64145
31
0.0
0
LINE
8
0
10
576.4695
20
389.64145
30
0.0
11
578.474
21
396.1734
31
0.0
0
LINE
8
0
10
578.474
20
396.1734
30
0.0
11
581.44403
21
401.16745
31
0.0
0
LINE
8
0
10
581.44403
20
401.16745
30
0.0
11
584.90247
21
404.6966
31
0.0
0
LINE
8
0
10
584.90247
20
404.6966
30
0.0
11
588.46985
21
406.91708
31
0.0
0
LINE
8
0
10
588.46985
20
406.91708
30
0.0
11
591.8641
21
408.03436
31
0.0
0
LINE
8
0
10
517.48236
20
867.9807
30
0.0
11
625.9374
21
803.2769
31
0.0
0
LINE
8
0
10
625.9374
20
803.2769
30
0.0
11
702.53796
21
728.0014
31
0.0
0
LINE
8
0
10
702.53796
20
728.0014
30
0.0
11
750.6919
21
650.3972
31
0.0
0
LINE
8
0
10
750.6919
20
650.3972
30
0.0
11
774.8726
21
576.5902
31
0.0
0
LINE
8
0
10
774.8726
20
576.5902
30
0.0
11
780.00854
21
510.742
31
0.0
0
LINE
8
0
10
780.00854
20
510.742
30
0.0
11
771.009
21
455.30032
31
0.0
0
LINE
8
0
10
771.009
20
455.30032
30
0.0
11
752.4225
21
411.3002
31
0.0
0
LINE
8
0
10
752.4225
20
411.3002
30
0.0
11
728.2157
21
378.68204
31
0.0
0
LINE
8
0
10
728.2157
20
378.68204
30
0.0
11
701.65405
21
356.5989
31
0.0
0
LINE
8
0
10
701.65405
20
356.5989
30
0.0
11
675.2655
21
343.6942
31
0.0
0
LINE
8
0
10
675.2655
20
343.6942
30
0.0
11
650.8659
21
338.3386
31
0.0
0
LINE
8
0
10
650.8659
20
338.3386
30
0.0
11
629.628
21
338.8206
31
0.0
0
LINE
8
0
10
629.628
20
338.8206
30
0.0
11
612.1766
21
343.4902
31
0.0
0
LINE
8
0
10
612.1766
20
343.4902
30
0.0
11
598.696
21
350.8584
31
0.0
0
LINE
8
0
10
598.696
20
350.8584
30
0.0
11
589.03925
21
359.65775
31
0.0
0
LINE
8
0
10
589.03925
20
359.65775
30
0.0
11
582.82983
21
368.87057
31
0.0
0
LINE
8
0
10
582.82983
20
368.87057
30
0.0
11
579.552
21
377.73178
31
0.0
0
LINE
8
0
10
579.552
20
377.73178
30
0.0
11
578.62573
21
385.7128
31
0.0
0
LINE
8
0
10
578.62573
20
385.7128
30
0.0
11
579.4655
21
392.4936
31
0.0
0
LINE
8
0
10
579.4655
20
392.4936
30
0.0
11
581.5232
21
397.92752
31
0.0
0
LINE
8
0
10
581.5232
20
397.92752
30
0.0
11
584.3162
21
402.00357
31
0.0
0
LINE
8
0
10
584.3162
20
402.00357
30
0.0
11
587.44385
21
404.8098
31
0.0
0
LINE
8
0
10
587.44385
20
404.8098
30
0.0
11
590.5925
21
406.4995
31
0.0
0
LINE
8
0
10
437.47202
20
846.542
30
0.0
11
555.5151
21
801.6542
31
0.0
0
LINE
8
0
10
555.5151
20
801.6542
30
0.0
11
644.0234
21
740.82385
31
0.0
0
LINE
8
0
10
644.0234
20
740.82385
30
0.0
11
704.9215
21
672.7605
31
0.0
0
LINE
8
0
10
704.9215
20
672.7605
30
0.0
11
741.55133
21
604.2737
31
0.0
0
LINE
8
0
10
741.55133
20
604.2737
30
0.0
11
758.0437
21
540.31775
31
0.0
0
LINE
8
0
10
758.0437
20
540.31775
30
0.0
11
758.80817
21
484.15558
31
0.0
0
LINE
8
0
10
758.80817
20
484.15558
30
0.0
11
748.1446
21
437.5964
31
0.0
0
LINE
8
0
10
748.1446
20
437.5964
30
0.0
11
729.9696
21
401.27032
31
0.0
0
LINE
8
0
10
729.9696
20
401.27032
30
0.0
11
707.64624
21
374.9103
31
0.0
0
LINE
8
0
10
707.64624
20
374.9103
30
0.0
11
683.8994
21
357.61932
31
0.0
0
LINE
8
0
10
683.8994
20
357.61932
30
0.0
11
660.80054
21
348.10812
31
0.0
0
LINE
8
0
10
660.80054
20
348.10812
30
0.0
11
639.8016
21
344.8949
31
0.0
0
LINE
8
0
10
639.8016
20
344.8949
30
0.0
11
621.8044
21
346.46313
31
0.0
0
LINE
8
0
10
621.8044
20
346.46313
30
0.0
11
607.24915
21
351.37854
31
0.0
0
LINE
8
0
10
607.24915
20
351.37854
30
0.0
11
596.2111
21
358.3673
31
0.0
0
LINE
8
0
10
596.2111
20
358.3673
30
0.0
11
588.4962
21
366.36194
31
0.0
0
LINE
8
0
10
588.4962
20
366.36194
30
0.0
11
583.7295
21
374.51932
31
0.0
0
LINE
8
0
10
583.7295
20
374.51932
30
0.0
11
581.4314
21
382.21823
31
0.0
0
LINE
8
0
10
581.4314
20
382.21823
30
0.0
11
581.081
21
389.04187
31
0.0
0
LINE
8
0
10
581.081
20
389.04187
30
0.0
11
582.16376
21
394.75052
31
0.0
0
LINE
8
0
10
582.16376
20
394.75052
30
0.0
11
584.2066
21
399.2497
31
0.0
0
LINE
8
0
10
584.2066
20
399.2497
30
0.0
11
586.7994
21
402.5564
31
0.0
0
LINE
8
0
10
586.7994
20
402.5564
30
0.0
11
589.6068
21
404.76718
31
0.0
0
LINE
8
0
10
362.39996
20
811.5353
30
0.0
11
486.44434
21
787.8274
31
0.0
0
LINE
8
0
10
486.44434
20
787.8274
30
0.0
11
584.1711
21
743.2905
31
0.0
0
LINE
8
0
10
584.1711
20
743.2905
30
0.0
11
655.96313
21
686.83606
31
0.0
0
LINE
8
0
10
655.96313
20
686.83606
30
0.0
11
703.9291
21
625.7505
31
0.0
0
LINE
8
0
10
703.9291
20
625.7505
30
0.0
11
731.27673
21
565.63
31
0.0
0
LINE
8
0
10
731.27673
20
565.63
30
0.0
11
741.78204
21
510.45383
31
0.0
0
LINE
8
0
10
741.78204
20
510.45383
30
0.0
11
739.3654
21
462.75027
31
0.0
0
LINE
8
0
10
739.3654
20
462.75027
30
0.0
11
727.7745
21
423.82004
31
0.0
0
LINE
8
0
10
727.7745
20
423.82004
30
0.0
11
710.3676
21
393.98407
31
0.0
0
LINE
8
0
10
710.3676
20
393.98407
30
0.0
11
689.98413
21
372.83218
31
0.0
0
LINE
8
0
10
689.98413
20
372.83218
30
0.0
11
668.88776
21
359.45438
31
0.0
0
LINE
8
0
10
668.88776
20
359.45438
30
0.0
11
648.7658
21
352.64352
31
0.0
0
LINE
8
0
10
648.7658
20
352.64352
30
0.0
11
630.7697
21
351.06277
31
0.0
0
LINE
8
0
10
630.7697
20
351.06277
30
0.0
11
615.5821
21
353.376
31
0.0
0
LINE
8
0
10
615.5821
20
353.376
30
0.0
11
603.4981
21
358.3419
31
0.0
0
LINE
8
0
10
603.4981
20
358.3419
30
0.0
11
594.5122
21
364.87537
31
0.0
0
LINE
8
0
10
594.5122
20
364.87537
30
0.0
11
588.4013
21
372.0811
31
0.0
0
LINE
8
0
10
588.4013
20
372.0811
30
0.0
11
584.8013
21
379.26398
31
0.0
0
LINE
8
0
10
584.8013
20
379.26398
30
0.0
11
583.27124
21
385.9231
31
0.0
0
LINE
8
0
10
583.27124
20
385.9231
30
0.0
11
583.3463
21
391.73306
31
0.0
0
LINE
8
0
10
583.3463
20
391.73306
30
0.0
11
584.57684
21
396.5186
31
0.0
0
LINE
8
0
10
584.57684
20
396.5186
30
0.0
11
586.556
21
400.22528
31
0.0
0
LINE
8
0
10
586.556
20
400.22528
30
0.0
11
588.9369
21
402.88998
31
0.0
0
LINE
8
0
10
294.5473
20
764.02435
30
0.0
11
420.82404
21
762.2168
31
0.0
0
LINE
8
0
10
420.82404
20
762.2168
30
0.0
11
524.7998
21
735.32654
31
0.0
0
LINE
8
0
10
524.7998
20
735.32654
30
0.0
11
605.3044
21
692.1963
31
0.0
0
LINE
8
0
10
605.3044
20
692.1963
30
0.0
11
663.14905
21
640.3679
31
0.0
0
LINE
8
0
10
663.14905
20
640.3679
30
0.0
11
700.521
21
585.90967
31
0.0
0
LINE
8
0
10
700.521
20
585.90967
30
0.0
11
720.448
21
533.396
31
0.0
0
LINE
8
0
10
720.448
20
533.396
30
0.0
11
726.3517
21
485.9975
31
0.0
0
LINE
8
0
10
726.3517
20
485.9975
30
0.0
11
721.697
21
445.64597
31
0.0
0
LINE
8
0
10
721.697
20
445.64597
30
0.0
11
709.73553
21
413.2406
31
0.0
0
LINE
8
0
10
709.73553
20
413.2406
30
0.0
11
693.3347
21
388.87048
31
0.0
0
LINE
8
0
10
693.3347
20
388.87048
30
0.0
11
674.88184
21
372.0326
31
0.0
0
LINE
8
0
10
674.88184
20
372.0326
30
0.0
11
656.2483
21
361.83105
31
0.0
0
LINE
8
0
10
656.2483
20
361.83105
30
0.0
11
638.8001
21
357.14935
31
0.0
0
LINE
8
0
10
638.8001
20
357.14935
30
0.0
11
623.4415
21
356.79013
31
0.0
0
LINE
8
0
10
623.4415
20
356.79013
30
0.0
11
610.67883
21
359.5822
31
0.0
0
LINE
8
0
10
610.67883
20
359.5822
30
0.0
11
600.6949
21
364.45605
31
0.0
0
LINE
8
0
10
600.6949
20
364.45605
30
0.0
11
593.4256
21
370.49115
31
0.0
0
LINE
8
0
10
593.4256
20
370.49115
30
0.0
11
588.63293
21
376.9398
31
0.0
0
LINE
8
0
10
588.63293
20
376.9398
30
0.0
11
585.96985
21
383.23203
31
0.0
0
LINE
8
0
10
585.96985
20
383.23203
30
0.0
11
585.03485
21
388.96677
31
0.0
0
LINE
8
0
10
585.03485
20
388.96677
30
0.0
11
585.4157
21
393.89328
31
0.0
0
LINE
8
0
10
585.4157
20
393.89328
30
0.0
11
586.7211
21
397.88733
31
0.0
0
LINE
8
0
10
586.7211
20
397.88733
30
0.0
11
588.60315
21
400.925
31
0.0
0
LINE
8
0
10
235.97565
20
705.4527
30
0.0
11
360.64777
21
725.6002
31
0.0
0
LINE
8
0
10
360.64777
20
725.6002
30
0.0
11
467.71344
21
717.1738
31
0.0
0
LINE
8
0
10
467.71344
20
717.1738
30
0.0
11
554.48444
21
688.6783
31
0.0
0
LINE
8
0
10
554.48444
20
688.6783
30
0.0
11
620.4502
21
647.6819
31
0.0
0
LINE
8
0
10
620.4502
20
647.6819
30
0.0
11
666.711
21
600.5406
31
0.0
0
LINE
8
0
10
666.711
20
600.5406
30
0.0
11
695.4541
21
552.285
31
0.0
0
LINE
8
0
10
695.4541
20
552.285
30
0.0
11
709.4988
21
506.63174
31
0.0
0
LINE
8
0
10
709.4988
20
506.63174
30
0.0
11
711.9218
21
466.08496
31
0.0
0
LINE
8
0
10
711.9218
20
466.08496
30
0.0
11
705.7692
21
432.09482
31
0.0
0
LINE
8
0
10
705.7692
20
432.09482
30
0.0
11
693.84937
21
405.24698
31
0.0
0
LINE
8
0
10
693.84937
20
405.24698
30
0.0
11
678.6007
21
385.46057
31
0.0
0
LINE
8
0
10
678.6007
20
385.46057
30
0.0
11
662.0217
21
372.17834
31
0.0
0
LINE
8
0
10
662.0217
20
372.17834
30
0.0
11
645.6516
21
364.5379
31
0.0
0
LINE
8
0
10
645.6516
20
364.5379
30
0.0
11
630.5887
21
361.51715
31
0.0
0
LINE
8
0
10
630.5887
20
361.51715
30
0.0
11
617.5351
21
362.0506
31
0.0
0
LINE
8
0
10
617.5351
20
362.0506
30
0.0
11
606.85645
21
365.1167
31
0.0
0
LINE
8
0
10
606.85645
20
365.1167
30
0.0
11
598.64966
21
369.79782
31
0.0
0
LINE
8
0
10
598.64966
20
369.79782
30
0.0
11
592.81
21
375.31625
31
0.0
0
LINE
8
0
10
592.81
20
375.31625
30
0.0
11
589.0947
21
381.05045
31
0.0
0
LINE
8
0
10
589.0947
20
381.05045
30
0.0
11
587.1781
21
386.5357
31
0.0
0
LINE
8
0
10
587.1781
20
386.5357
30
0.0
11
586.6977
21
391.45352
31
0.0
0
LINE
8
0
10
586.6977
20
391.45352
30
0.0
11
587.28973
21
395.6136
31
0.0
0
LINE
8
0
10
587.28973
20
395.6136
30
0.0
11
588.61566
21
398.9319
31
0.0
0
LINE
8
0
10
188.46469
20
637.60004
30
0.0
11
307.74426
21
679.09064
31
0.0
0
LINE
8
0
10
307.74426
20
679.09064
30
0.0
11
414.64655
21
689.3839
31
0.0
0
LINE
8
0
10
414.64655
20
689.3839
30
0.0
11
505.0475
21
676.3889
31
0.0
0
LINE
8
0
10
505.0475
20
676.3889
30
0.0
11
577.13007
21
647.4702
31
0.0
0
LINE
8
0
10
577.13007
20
647.4702
30
0.0
11
630.874
21
609.0781
31
0.0
0
LINE
8
0
10
630.874
20
609.0781
30
0.0
11
667.56
21
566.5469
31
0.0
0
LINE
8
0
10
667.56
20
566.5469
30
0.0
11
689.31885
21
524.026
31
0.0
0
LINE
8
0
10
689.31885
20
524.026
30
0.0
11
698.746
21
484.516
31
0.0
0
LINE
8
0
10
698.746
20
484.516
30
0.0
11
698.5891
21
449.97385
31
0.0
0
LINE
8
0
10
698.5891
20
449.97385
30
0.0
11
691.51245
21
421.46405
31
0.0
0
LINE
8
0
10
691.51245
20
421.46405
30
0.0
11
679.93134
21
399.33032
31
0.0
0
LINE
8
0
10
679.93134
20
399.33032
30
0.0
11
665.91064
21
383.37097
31
0.0
0
LINE
8
0
10
665.91064
20
383.37097
30
0.0
11
651.11597
21
373.00397
31
0.0
0
LINE
8
0
10
651.11597
20
373.00397
30
0.0
11
636.80646
21
367.41345
31
0.0
0
LINE
8
0
10
636.80646
20
367.41345
30
0.0
11
623.8585
21
365.67206
31
0.0
0
LINE
8
0
10
623.8585
20
365.67206
30
0.0
11
612.8097
21
366.83728
31
0.0
0
LINE
8
0
10
612.8097
20
366.83728
30
0.0
11
603.91473
21
370.02216
31
0.0
0
LINE
8
0
10
603.91473
20
370.02216
30
0.0
11
597.2055
21
374.44272
31
0.0
0
LINE
8
0
10
597.2055
20
374.44272
30
0.0
11
592.55096
21
379.44467
31
0.0
0
LINE
8
0
10
592.55096
20
379.44467
30
0.0
11
589.71094
21
384.51376
31
0.0
0
LINE
8
0
10
589.71094
20
384.51376
30
0.0
11
588.38385
21
389.27344
31
0.0
0
LINE
8
0
10
588.38385
20
389.27344
30
0.0
11
588.24457
21
393.4731
31
0.0
0
LINE
8
0
10
588.24457
20
393.4731
30
0.0
11
588.97406
21
396.97125
31
0.0
0
LINE
8
0
10
153.45804
20
562.528
30
0.0
11
263.72073
21
624.10095
31
0.0
0
LINE
8
0
10
263.72073
20
624.10095
30
0.0
11
367.21155
21
652.8013
31
0.0
0
LINE
8
0
10
367.21155
20
652.8013
30
0.0
11
458.49564
21
655.70166
31
0.0
0
LINE
8
0
10
458.49564
20
655.70166
30
0.0
11
534.50476
21
639.73926
31
0.0
0
LINE
8
0
10
534.50476
20
639.73926
30
0.0
11
594.09894
21
611.263
31
0.0
0
LINE
8
0
10
594.09894
20
611.263
30
0.0
11
637.6131
21
575.7483
31
0.0
0
LINE
8
0
10
637.6131
20
575.7483
30
0.0
11
666.42505
21
537.65186
31
0.0
0
LINE
8
0
10
666.42505
20
537.65186
30
0.0
11
682.56976
21
500.37903
31
0.0
0
LINE
8
0
10
682.56976
20
500.37903
30
0.0
11
688.41345
21
466.33444
31
0.0
0
LINE
8
0
10
688.41345
20
466.33444
30
0.0
11
686.395
21
437.02893
31
0.0
0
LINE
8
0
10
686.395
20
437.02893
30
0.0
11
678.8333
21
413.22043
31
0.0
0
LINE
8
0
10
678.8333
20
413.22043
30
0.0
11
667.79694
21
395.06888
31
0.0
0
LINE
8
0
10
667.79694
20
395.06888
30
0.0
11
655.0272
21
382.29028
31
0.0
0
LINE
8
0
10
655.0272
20
382.29028
30
0.0
11
641.9059
21
374.2999
31
0.0
0
LINE
8
0
10
641.9059
20
374.2999
30
0.0
11
629.45703
21
370.33658
31
0.0
0
LINE
8
0
10
629.45703
20
370.33658
30
0.0
11
618.3738
21
369.56546
31
0.0
0
LINE
8
0
10
618.3738
20
369.56546
30
0.0
11
609.06085
21
371.15738
31
0.0
0
LINE
8
0
10
609.06085
20
371.15738
30
0.0
11
601.686
21
374.34573
31
0.0
0
LINE
8
0
10
601.686
20
374.34573
30
0.0
11
596.2335
21
378.46344
31
0.0
0
LINE
8
0
10
596.2335
20
378.46344
30
0.0
11
592.55646
21
382.96237
31
0.0
0
LINE
8
0
10
592.55646
20
382.96237
30
0.0
11
590.423
21
387.41925
31
0.0
0
LINE
8
0
10
590.423
20
387.41925
30
0.0
11
589.5565
21
391.53098
31
0.0
0
LINE
8
0
10
589.5565
20
391.53098
30
0.0
11
589.66754
21
395.10263
31
0.0
0
LINE
8
0
10
132.01932
20
482.51767
30
0.0
11
229.91483
21
562.3021
31
0.0
0
LINE
8
0
10
229.91483
20
562.3021
30
0.0
11
326.84967
21
608.53735
31
0.0
0
LINE
8
0
10
326.84967
20
608.53735
30
0.0
11
416.24335
21
627.245
31
0.0
0
LINE
8
0
10
416.24335
20
627.245
30
0.0
11
493.86957
21
624.72394
31
0.0
0
LINE
8
0
10
493.86957
20
624.72394
30
0.0
11
557.50323
21
607.02875
31
0.0
0
LINE
8
0
10
557.50323
20
607.02875
30
0.0
11
606.52325
21
579.60974
31
0.0
0
LINE
8
0
10
606.52325
20
579.60974
30
0.0
11
641.51294
21
547.09515
31
0.0
0
LINE
8
0
10
641.51294
20
547.09515
30
0.0
11
663.8847
21
513.19214
31
0.0
0
LINE
8
0
10
663.8847
20
513.19214
30
0.0
11
675.55145
21
480.6795
31
0.0
0
LINE
8
0
10
675.55145
20
480.6795
30
0.0
11
678.65247
21
451.4687
31
0.0
0
LINE
8
0
10
678.65247
20
451.4687
30
0.0
11
675.33997
21
426.70883
31
0.0
0
LINE
8
0
10
675.33997
20
426.70883
30
0.0
11
667.6232
21
406.9166
31
0.0
0
LINE
8
0
10
667.6232
20
406.9166
30
0.0
11
657.2665
21
392.11472
31
0.0
0
LINE
8
0
10
657.2665
20
392.11472
30
0.0
11
645.732
21
381.96722
31
0.0
0
LINE
8
0
10
645.732
20
381.96722
30
0.0
11
634.1605
21
375.90237
31
0.0
0
LINE
8
0
10
634.1605
20
375.90237
30
0.0
11
623.3795
21
373.2184
31
0.0
0
LINE
8
0
10
623.3795
20
373.2184
30
0.0
11
613.93164
21
373.16895
31
0.0
0
LINE
8
0
10
613.93164
20
373.16895
30
0.0
11
606.1152
21
375.02826
31
0.0
0
LINE
8
0
10
606.1152
20
375.02826
30
0.0
11
600.0305
21
378.13657
31
0.0
0
LINE
8
0
10
600.0305
20
378.13657
30
0.0
11
595.62805
21
381.92865
31
0.0
0
LINE
8
0
10
595.62805
20
381.92865
30
0.0
11
592.7531
21
385.94736
31
0.0
0
LINE
8
0
10
592.7531
20
385.94736
30
0.0
11
591.1858
21
389.84613
31
0.0
0
LINE
8
0
10
591.1858
20
389.84613
30
0.0
11
590.6749
21
393.3828
31
0.0
0
LINE
8
0
10
124.79996
20
399.99997
30
0.0
11
207.35379
21
495.57166
31
0.0
0
LINE
8
0
10
207.35379
20
495.57166
30
0.0
11
294.78726
21
557.93713
31
0.0
0
LINE
8
0
10
294.78726
20
557.93713
30
0.0
11
379.57428
21
591.8836
31
0.0
0
LINE
8
0
10
379.57428
20
591.8836
30
0.0
11
456.45905
21
602.88055
31
0.0
0
LINE
8
0
10
456.45905
20
602.88055
30
0.0
11
522.19867
21
596.504
31
0.0
0
LINE
8
0
10
522.19867
20
596.504
30
0.0
11
575.2353
21
578.0138
31
0.0
0
LINE
8
0
10
575.2353
20
578.0138
30
0.0
11
615.3394
21
552.0691
31
0.0
0
LINE
8
0
10
615.3394
20
552.0691
30
0.0
11
643.25854
21
522.566
31
0.0
0
LINE
8
0
10
643.25854
20
522.566
30
0.0
11
660.3938
21
492.57315
31
0.0
0
LINE
8
0
10
660.3938
20
492.57315
30
0.0
11
668.52014
21
464.3446
31
0.0
0
LINE
8
0
10
668.52014
20
464.3446
30
0.0
11
669.55743
21
439.3857
31
0.0
0
LINE
8
0
10
669.55743
20
439.3857
30
0.0
11
665.39484
21
418.55414
31
0.0
0
LINE
8
0
10
665.39484
20
418.55414
30
0.0
11
657.76575
21
402.1787
31
0.0
0
LINE
8
0
10
657.76575
20
402.1787
30
0.0
11
648.1686
21
390.18243
31
0.0
0
LINE
8
0
10
648.1686
20
390.18243
30
0.0
11
637.82605
21
382.20038
31
0.0
0
LINE
8
0
10
637.82605
20
382.20038
30
0.0
11
627.6749
21
377.6851
31
0.0
0
LINE
8
0
10
627.6749
20
377.6851
30
0.0
11
618.37915
21
375.9958
31
0.0
0
LINE
8
0
10
618.37915
20
375.9958
30
0.0
11
610.3585
21
376.4695
31
0.0
0
LINE
8
0
10
610.3585
20
376.4695
30
0.0
11
603.8266
21
378.47403
31
0.0
0
LINE
8
0
10
603.8266
20
378.47403
30
0.0
11
598.8325
21
381.44403
31
0.0
0
LINE
8
0
10
598.8325
20
381.44403
30
0.0
11
595.3034
21
384.90244
31
0.0
0
LINE
8
0
10
595.3034
20
384.90244
30
0.0
11
593.0829
21
388.46982
31
0.0
0
LINE
8
0
10
593.0829
20
388.46982
30
0.0
11
591.96564
21
391.86404
31
0.0
0
LINE
8
0
10
132.01932
20
317.48236
30
0.0
11
196.72308
21
425.93744
31
0.0
0
LINE
8
0
10
196.72308
20
425.93744
30
0.0
11
271.99863
21
502.53806
31
0.0
0
LINE
8
0
10
271.99863
20
502.53806
30
0.0
11
349.6028
21
550.69196
31
0.0
0
LINE
8
0
10
349.6028
20
550.69196
30
0.0
11
423.4099
21
574.8727
31
0.0
0
LINE
8
0
10
423.4099
20
574.8727
30
0.0
11
489.25812
21
580.00867
31
0.0
0
LINE
8
0
10
489.25812
20
580.00867
30
0.0
11
544.69977
21
571.00903
31
0.0
0
LINE
8
0
10
544.69977
20
571.00903
30
0.0
11
588.6999
21
552.4225
31
0.0
0
LINE
8
0
10
588.6999
20
552.4225
30
0.0
11
621.31805
21
528.2157
31
0.0
0
LINE
8
0
10
621.31805
20
528.2157
30
0.0
11
643.4011
21
501.65405
31
0.0
0
LINE
8
0
10
643.4011
20
501.65405
30
0.0
11
656.30585
21
475.26547
31
0.0
0
LINE
8
0
10
656.30585
20
475.26547
30
0.0
11
661.66144
21
450.86588
31
0.0
0
LINE
8
0
10
661.66144
20
450.86588
30
0.0
11
661.17944
21
429.62796
31
0.0
0
LINE
8
0
10
661.17944
20
429.62796
30
0.0
11
656.5098
21
412.1765
31
0.0
0
LINE
8
0
10
656.5098
20
412.1765
30
0.0
11
649.1416
21
398.69598
31
0.0
0
LINE
8
0
10
649.1416
20
398.69598
30
0.0
11
640.3423
21
389.0392
31
0.0
0
LINE
8
0
10
640.3423
20
389.0392
30
0.0
11
631.1294
21
382.8298
31
0.0
0
LINE
8
0
10
631.1294
20
382.8298
30
0.0
11
622.2682
21
379.55197
31
0.0
0
LINE
8
0
10
622.2682
20
379.55197
30
0.0
11
614.28723
21
378.62573
31
0.0
0
LINE
8
0
10
614.28723
20
378.62573
30
0.0
11
607.5064
21
379.46555
31
0.0
0
LINE
8
0
10
607.5064
20
379.46555
30
0.0
11
602.0725
21
381.5232
31
0.0
0
LINE
8
0
10
602.0725
20
381.5232
30
0.0
11
597.9964
21
384.31625
31
0.0
0
LINE
8
0
10
597.9964
20
384.31625
30
0.0
11
595.1902
21
387.44385
31
0.0
0
LINE
8
0
10
595.1902
20
387.44385
30
0.0
11
593.5005
21
390.5925
31
0.0
0
LINE
8
0
10
153.45804
20
237.47202
30
0.0
11
198.3458
21
355.5151
31
0.0
0
LINE
8
0
10
198.3458
20
355.5151
30
0.0
11
259.17618
21
444.02344
31
0.0
0
LINE
8
0
10
259.17618
20
444.02344
30
0.0
11
327.23953
21
504.9216
31
0.0
0
LINE
8
0
10
327.23953
20
504.9216
30
0.0
11
395.72638
21
541.55145
31
0.0
0
LINE
8
0
10
395.72638
20
541.55145
30
0.0
11
459.68237
21
558.04376
31
0.0
0
LINE
8
0
10
459.68237
20
558.04376
30
0.0
11
515.8445
21
558.8082
31
0.0
0
LINE
8
0
10
515.8445
20
558.8082
30
0.0
11
562.4037
21
548.14465
31
0.0
0
LINE
8
0
10
562.4037
20
548.14465
30
0.0
11
598.72974
21
529.9696
31
0.0
0
LINE
8
0
10
598.72974
20
529.9696
30
0.0
11
625.0897
21
507.6462
31
0.0
0
LINE
8
0
10
625.0897
20
507.6462
30
0.0
11
642.38074
21
483.8994
31
0.0
0
LINE
8
0
10
642.38074
20
483.8994
30
0.0
11
651.8919
21
460.80048
31
0.0
0
LINE
8
0
10
651.8919
20
460.80048
30
0.0
11
655.10516
21
439.80154
31
0.0
0
LINE
8
0
10
655.10516
20
439.80154
30
0.0
11
653.53687
21
421.80435
31
0.0
0
LINE
8
0
10
653.53687
20
421.80435
30
0.0
11
648.62146
21
407.24915
31
0.0
0
LINE
8
0
10
648.62146
20
407.24915
30
0.0
11
641.6327
21
396.2111
31
0.0
0
LINE
8
0
10
641.6327
20
396.2111
30
0.0
11
633.63806
21
388.49622
31
0.0
0
LINE
8
0
10
633.63806
20
388.49622
30
0.0
11
625.48065
21
383.72946
31
0.0
0
LINE
8
0
10
625.48065
20
383.72946
30
0.0
11
617.78174
21
381.4314
31
0.0
0
LINE
8
0
10
617.78174
20
381.4314
30
0.0
11
610.9581
21
381.08096
31
0.0
0
LINE
8
0
10
610.9581
20
381.08096
30
0.0
11
605.24945
21
382.1638
31
0.0
0
LINE
8
0
10
605.24945
20
382.1638
30
0.0
11
600.7503
21
384.2066
31
0.0
0
LINE
8
0
10
600.7503
20
384.2066
30
0.0
11
597.4436
21
386.7994
31
0.0
0
LINE
8
0
10
597.4436
20
386.7994
30
0.0
11
595.23285
21
389.6068
31
0.0
0
LINE
8
0
10
188.46469
20
162.4
30
0.0
11
212.17255
21
286.44443
31
0.0
0
LINE
8
0
10
212.17255
20
286.44443
30
0.0
11
256.70944
21
384.1712
31
0.0
0
LINE
8
0
10
256.70944
20
384.1712
30
0.0
11
313.16394
21
455.96326
31
0.0
0
LINE
8
0
10
313.16394
20
455.96326
30
0.0
11
374.2496
21
503.92923
31
0.0
0
LINE
8
0
10
374.2496
20
503.92923
30
0.0
11
434.3701
21
531.27686
31
0.0
0
LINE
8
0
10
434.3701
20
531.27686
30
0.0
11
489.54626
21
541.7821
31
0.0
0
LINE
8
0
10
489.54626
20
541.7821
30
0.0
11
537.2498
21
539.3655
31
0.0
0
LINE
8
0
10
537.2498
20
539.3655
30
0.0
11
576.18005
21
527.77454
31
0.0
0
LINE
8
0
10
576.18005
20
527.77454
30
0.0
11
606.016
21
510.3676
31
0.0
0
LINE
8
0
10
606.016
20
510.3676
30
0.0
11
627.1679
21
489.98413
31
0.0
0
LINE
8
0
10
627.1679
20
489.98413
30
0.0
11
640.54565
21
468.88773
31
0.0
0
LINE
8
0
10
640.54565
20
468.88773
30
0.0
11
647.3565
21
448.76575
31
0.0
0
LINE
8
0
10
647.3565
20
448.76575
30
0.0
11
648.93726
21
430.76968
31
0.0
0
LINE
8
0
10
648.93726
20
430.76968
30
0.0
11
646.624
21
415.58203
31
0.0
0
LINE
8
0
10
646.624
20
415.58203
30
0.0
11
641.65814
21
403.4981
31
0.0
0
LINE
8
0
10
641.65814
20
403.4981
30
0.0
11
635.12463
21
394.51218
31
0.0
0
LINE
8
0
10
635.12463
20
394.51218
30
0.0
11
627.91895
21
388.4013
31
0.0
0
LINE
8
0
10
627.91895
20
388.4013
30
0.0
11
620.736
21
384.80127
31
0.0
0
LINE
8
0
10
620.736
20
384.80127
30
0.0
11
614.0769
21
383.27127
31
0.0
0
LINE
8
0
10
614.0769
20
383.27127
30
0.0
11
608.26697
21
383.3463
31
0.0
0
LINE
8
0
10
608.26697
20
383.3463
30
0.0
11
603.4814
21
384.57684
31
0.0
0
LINE
8
0
10
603.4814
20
384.57684
30
0.0
11
599.7747
21
386.55603
31
0.0
0
LINE
8
0
10
599.7747
20
386.55603
30
0.0
11
597.11
21
388.9369
31
0.0
0
LINE
8
0
10
235.97562
20
94.5473
30
0.0
11
237.78323
21
220.82405
31
0.0
0
LINE
8
0
10
237.78323
20
220.82405
30
0.0
11
264.67343
21
324.79993
31
0.0
0
LINE
8
0
10
264.67343
20
324.79993
30
0.0
11
307.8037
21
405.3045
31
0.0
0
LINE
8
0
10
307.8037
20
405.3045
30
0.0
11
359.63214
21
463.14917
31
0.0
0
LINE
8
0
10
359.63214
20
463.14917
30
0.0
11
414.0904
21
500.52112
31
0.0
0
LINE
8
0
10
414.0904
20
500.52112
30
0.0
11
466.60413
21
520.4481
31
0.0
0
LINE
8
0
10
466.60413
20
520.4481
30
0.0
11
514.00256
21
526.35175
31
0.0
0
LINE
8
0
10
514.00256
20
526.35175
30
0.0
11
554.3541
21
521.697
31
0.0
0
LINE
8
0
10
554.3541
20
521.697
30
0.0
11
586.7595
21
509.73553
31
0.0
0
LINE
8
0
10
586.7595
20
509.73553
30
0.0
11
611.1296
21
493.33472
31
0.0
0
LINE
8
0
10
611.1296
20
493.33472
30
0.0
11
627.96747
21
474.88184
31
0.0
0
LINE
8
0
10
627.96747
20
474.88184
30
0.0
11
638.169
21
456.24826
31
0.0
0
LINE
8
0
10
638.169
20
456.24826
30
0.0
11
642.8507
21
438.80008
31
0.0
0
LINE
8
0
10
642.8507
20
438.80008
30
0.0
11
643.2099
21
423.4415
31
0.0
0
LINE
8
0
10
643.2099
20
423.4415
30
0.0
11
640.4178
21
410.6788
31
0.0
0
LINE
8
0
10
640.4178
20
410.6788
30
0.0
11
635.54395
21
400.69485
31
0.0
0
LINE
8
0
10
635.54395
20
400.69485
30
0.0
11
629.50885
21
393.4256
31
0.0
0
LINE
8
0
10
629.50885
20
393.4256
30
0.0
11
623.0602
21
388.63293
31
0.0
0
LINE
8
0
10
623.0602
20
388.63293
30
0.0
11
616.76794
21
385.96982
31
0.0
0
LINE
8
0
10
616.76794
20
385.96982
30
0.0
11
611.0332
21
385.03485
31
0.0
0
LINE
8
0
10
611.0332
20
385.03485
30
0.0
11
606.1067
21
385.41568
31
0.0
0
LINE
8
0
10
606.1067
20
385.41568
30
0.0
11
602.1127
21
386.72116
31
0.0
0
LINE
8
0
10
602.1127
20
386.72116
30
0.0
11
599.075
21
388.60312
31
0.0
0
LINE
8
0
10
294.54733
20
35.975586
30
0.0
11
274.3997
21
160.64787
31
0.0
0
LINE
8
0
10
274.3997
20
160.64787
30
0.0
11
282.82617
21
267.71356
31
0.0
0
LINE
8
0
10
282.82617
20
267.71356
30
0.0
11
311.32172
21
354.48456
31
0.0
0
LINE
8
0
10
311.32172
20
354.48456
30
0.0
11
352.31815
21
420.45038
31
0.0
0
LINE
8
0
10
352.31815
20
420.45038
30
0.0
11
399.45947
21
466.71112
31
0.0
0
LINE
8
0
10
399.45947
20
466.71112
30
0.0
11
447.71512
21
495.45428
31
0.0
0
LINE
8
0
10
447.71512
20
495.45428
30
0.0
11
493.36838
21
509.4989
31
0.0
0
LINE
8
0
10
493.36838
20
509.4989
30
0.0
11
533.91516
21
511.92188
31
0.0
0
LINE
8
0
10
533.91516
20
511.92188
30
0.0
11
567.9053
21
505.76923
31
0.0
0
LINE
8
0
10
567.9053
20
505.76923
30
0.0
11
594.7531
21
493.8494
31
0.0
0
LINE
8
0
10
594.7531
20
493.8494
30
0.0
11
614.5395
21
478.6007
31
0.0
0
LINE
8
0
10
614.5395
20
478.6007
30
0.0
11
627.8217
21
462.0217
31
0.0
0
LINE
8
0
10
627.8217
20
462.0217
30
0.0
11
635.4621
21
445.65155
31
0.0
0
LINE
8
0
10
635.4621
20
445.65155
30
0.0
11
638.48285
21
430.58868
31
0.0
0
LINE
8
0
10
638.48285
20
430.58868
30
0.0
11
637.9494
21
417.53503
31
0.0
0
LINE
8
0
10
637.9494
20
417.53503
30
0.0
11
634.8833
21
406.85645
31
0.0
0
LINE
8
0
10
634.8833
20
406.85645
30
0.0
11
630.2022
21
398.64963
31
0.0
0
LINE
8
0
10
630.2022
20
398.64963
30
0.0
11
624.6837
21
392.81
31
0.0
0
LINE
8
0
10
624.6837
20
392.81
30
0.0
11
618.9495
21
389.0947
31
0.0
0
LINE
8
0
10
618.9495
20
389.0947
30
0.0
11
613.4643
21
387.1781
31
0.0
0
LINE
8
0
10
613.4643
20
387.1781
30
0.0
11
608.5465
21
386.69766
31
0.0
0
LINE
8
0
10
608.5465
20
386.69766
30
0.0
11
604.3864
21
387.28976
31
0.0
0
LINE
8
0
10
604.3864
20
387.28976
30
0.0
11
601.0681
21
388.61563
31
0.0
0
LINE
8
0
10
362.40002
20
-11.535339
30
0.0
11
320.90933
21
107.74429
31
0.0
0
LINE
8
0
10
320.90933
20
107.74429
30
0.0
11
310.61603
21
214.64662
31
0.0
0
LINE
8
0
10
310.61603
20
214.64662
30
0.0
11
323.61102
21
305.0476
31
0.0
0
LINE
8
0
10
323.61102
20
305.0476
30
0.0
11
352.52982
21
377.13013
31
0.0
0
LINE
8
0
10
352.52982
20
377.13013
30
0.0
11
390.92188
21
430.8741
31
0.0
0
LINE
8
0
10
390.92188
20
430.8741
30
0.0
11
433.4532
21
467.5601
31
0.0
0
LINE
8
0
10
433.4532
20
467.5601
30
0.0
11
475.97406
21
489.31894
31
0.0
0
LINE
8
0
10
475.97406
20
489.31894
30
0.0
11
515.48413
21
498.74603
31
0.0
0
LINE
8
0
10
515.48413
20
498.74603
30
0.0
11
550.02625
21
498.58917
31
0.0
0
LINE
8
0
10
550.02625
20
498.58917
30
0.0
11
578.5361
21
491.5125
31
0.0
0
LINE
8
0
10
578.5361
20
491.5125
30
0.0
11
600.66974
21
479.93134
31
0.0
0
LINE
8
0
10
600.66974
20
479.93134
30
0.0
11
616.6291
21
465.91064
31
0.0
0
LINE
8
0
10
616.6291
20
465.91064
30
0.0
11
626.9961
21
451.11594
31
0.0
0
LINE
8
0
10
626.9961
20
451.11594
30
0.0
11
632.58655
21
436.80643
31
0.0
0
LINE
8
0
10
632.58655
20
436.80643
30
0.0
11
634.32794
21
423.8585
31
0.0
0
LINE
8
0
10
634.32794
20
423.8585
30
0.0
11
633.1627
21
412.8097
31
0.0
0
LINE
8
0
10
633.1627
20
412.8097
30
0.0
11
629.97784
21
403.9147
31
0.0
0
LINE
8
0
10
629.97784
20
403.9147
30
0.0
11
625.55725
21
397.2055
31
0.0
0
LINE
8
0
10
625.55725
20
397.2055
30
0.0
11
620.5553
21
392.55093
31
0.0
0
LINE
8
0
10
620.5553
20
392.55093
30
0.0
11
615.4862
21
389.71094
31
0.0
0
LINE
8
0
10
615.4862
20
389.71094
30
0.0
11
610.72656
21
388.38385
31
0.0
0
LINE
8
0
10
610.72656
20
388.38385
30
0.0
11
606.52686
21
388.24454
31
0.0
0
LINE
8
0
10
606.52686
20
388.24454
30
0.0
11
603.02875
21
388.97406
31
0.0
0
LINE
8
0
10
437.47205
20
-46.541992
30
0.0
11
375.89902
21
63.720734
31
0.0
0
LINE
8
0
10
375.89902
20
63.720734
30
0.0
11
347.19876
21
167.2115
31
0.0
0
LINE
8
0
10
347.19876
20
167.2115
30
0.0
11
344.29834
21
258.49567
31
0.0
0
LINE
8
0
10
344.29834
20
258.49567
30
0.0
11
360.26074
21
334.50482
31
0.0
0
LINE
8
0
10
360.26074
20
334.50482
30
0.0
11
388.737
21
394.09903
31
0.0
0
LINE
8
0
10
388.737
20
394.09903
30
0.0
11
424.25174
21
437.61316
31
0.0
0
LINE
8
0
10
424.25174
20
437.61316
30
0.0
11
462.3482
21
466.4251
31
0.0
0
LINE
8
0
10
462.3482
20
466.4251
30
0.0
11
499.62103
21
482.56982
31
0.0
0
LINE
8
0
10
499.62103
20
482.56982
30
0.0
11
533.66565
21
488.41354
31
0.0
0
LINE
8
0
10
533.66565
20
488.41354
30
0.0
11
562.9711
21
486.39505
31
0.0
0
LINE
8
0
10
562.9711
20
486.39505
30
0.0
11
586.7796
21
478.8333
31
0.0
0
LINE
8
0
10
586.7796
20
478.8333
30
0.0
11
604.9312
21
467.7969
31
0.0
0
LINE
8
0
10
604.9312
20
467.7969
30
0.0
11
617.7098
21
455.0272
31
0.0
0
LINE
8
0
10
617.7098
20
455.0272
30
0.0
11
625.70013
21
441.90585
31
0.0
0
LINE
8
0
10
625.70013
20
441.90585
30
0.0
11
629.66345
21
429.457
31
0.0
0
LINE
8
0
10
629.66345
20
429.457
30
0.0
11
630.4346
21
418.37375
31
0.0
0
LINE
8
0
10
630.4346
20
418.37375
30
0.0
11
628.84265
21
409.06082
31
0.0
0
LINE
8
0
10
628.84265
20
409.06082
30
0.0
11
625.65424
21
401.68594
31
0.0
0
LINE
8
0
10
625.65424
20
401.68594
30
0.0
11
621.53656
21
396.2335
31
0.0
0
LINE
8
0
10
621.53656
20
396.2335
30
0.0
11
617.0376
21
392.55643
31
0.0
0
LINE
8
0
10
617.0376
20
392.55643
30
0.0
11
612.58075
21
390.42297
31
0.0
0
LINE
8
0
10
612.58075
20
390.42297
30
0.0
11
608.46906
21
389.55652
31
0.0
0
LINE
8
0
10
608.46906
20
389.55652
30
0.0
11
604.89734
21
389.6675
31
0.0
0
LINE
8
0
10
517.4824
20
-67.98071
30
0.0
11
437.69788
21
29.914825
31
0.0
0
LINE
8
0
10
437.69788
20
29.914825
30
0.0
11
391.46265
21
126.84961
31
0.0
0
LINE
8
0
10
391.46265
20
126.84961
30
0.0
11
372.755
21
216.2433
31
0.0
0
LINE
8
0
10
372.755
20
216.2433
30
0.0
11
375.27606
21
293.86957
31
0.0
0
LINE
8
0
10
375.27606
20
293.86957
30
0.0
11
392.97125
21
357.50323
31
0.0
0
LINE
8
0
10
392.97125
20
357.50323
30
0.0
11
420.3903
21
406.52335
31
0.0
0
LINE
8
0
10
420.3903
20
406.52335
30
0.0
11
452.90485
21
441.513
31
0.0
0
LINE
8
0
10
452.90485
20
441.513
30
0.0
11
486.8079
21
463.8848
31
0.0
0
LINE
8
0
10
486.8079
20
463.8848
30
0.0
11
519.32056
21
475.5515
31
0.0
0
LINE
8
0
10
519.32056
20
475.5515
30
0.0
11
548.5314
21
478.65253
31
0.0
0
LINE
8
0
10
548.5314
20
478.65253
30
0.0
11
573.29126
21
475.33997
31
0.0
0
LINE
8
0
10
573.29126
20
475.33997
30
0.0
11
593.0835
21
467.62323
31
0.0
0
LINE
8
0
10
593.0835
20
467.62323
30
0.0
11
607.8853
21
457.26648
31
0.0
0
LINE
8
0
10
607.8853
20
457.26648
30
0.0
11
618.03284
21
445.732
31
0.0
0
LINE
8
0
10
618.03284
20
445.732
30
0.0
11
624.09766
21
434.1605
31
0.0
0
LINE
8
0
10
624.09766
20
434.1605
30
0.0
11
626.7816
21
423.3795
31
0.0
0
LINE
8
0
10
626.7816
20
423.3795
30
0.0
11
626.83105
21
413.93164
31
0.0
0
LINE
8
0
10
626.83105
20
413.93164
30
0.0
11
624.97174
21
406.11514
31
0.0
0
LINE
8
0
10
624.97174
20
406.11514
30
0.0
11
621.8634
21
400.0305
31
0.0
0
LINE
8
0
10
621.8634
20
400.0305
30
0.0
11
618.07135
21
395.62805
31
0.0
0
LINE
8
0
10
618.07135
20
395.62805
30
0.0
11
614.0526
21
392.75308
31
0.0
0
LINE
8
0
10
614.0526
20
392.75308
30
0.0
11
610.1539
21
391.1858
31
0.0
0
LINE
8
0
10
610.1539
20
391.1858
30
0.0
11
606.6172
21
390.6749
31
0.0
0
LINE
8
0
10
600.0
20
-75.20004
30
0.0
11
504.4284
21
7.35376
31
0.0
0
LINE
8
0
10
504.4284
20
7.35376
30
0.0
11
442.06287
21
94.78726
31
0.0
0
LINE
8
0
10
442.06287
20
94.78726
30
0.0
11
408.11642
21
179.57426
31
0.0
0
LINE
8
0
10
408.11642
20
179.57426
30
0.0
11
397.1195
21
256.45898
31
0.0
0
LINE
8
0
10
397.1195
20
256.45898
30
0.0
11
403.49597
21
322.19867
31
0.0
0
LINE
8
0
10
403.49597
20
322.19867
30
0.0
11
421.9862
21
375.23532
31
0.0
0
LINE
8
0
10
421.9862
20
375.23532
30
0.0
11
447.9309
21
415.33948
31
0.0
0
LINE
8
0
10
447.9309
20
415.33948
30
0.0
11
477.43405
21
443.2586
31
0.0
0
LINE
8
0
10
477.43405
20
443.2586
30
0.0
11
507.42688
21
460.39386
31
0.0
0
LINE
8
0
10
507.42688
20
460.39386
30
0.0
11
535.6554
21
468.52017
31
0.0
0
LINE
8
0
10
535.6554
20
468.52017
30
0.0
11
560.6143
21
469.55743
31
0.0
0
LINE
8
0
10
560.6143
20
469.55743
30
0.0
11
581.44586
21
465.39484
31
0.0
0
LINE
8
0
10
581.44586
20
465.39484
30
0.0
11
597.8213
21
457.76575
31
0.0
0
LINE
8
0
10
597.8213
20
457.76575
30
0.0
11
609.81757
21
448.16858
31
0.0
0
LINE
8
0
10
609.81757
20
448.16858
30
0.0
11
617.7996
21
437.82605
31
0.0
0
LINE
8
0
10
617.7996
20
437.82605
30
0.0
11
622.31494
21
427.6749
31
0.0
0
LINE
8
0
10
622.31494
20
427.6749
30
0.0
11
624.0042
21
418.37915
31
0.0
0
LINE
8
0
10
624.0042
20
418.37915
30
0.0
11
623.5305
21
410.35852
31
0.0
0
LINE
8
0
10
623.5305
20
410.35852
30
0.0
11
621.526
21
403.82657
31
0.0
0
LINE
8
0
10
621.526
20
403.82657
30
0.0
11
618.55597
21
398.83252
31
0.0
0
LINE
8
0
10
618.55597
20
398.83252
30
0.0
11
615.09753
21
395.3034
31
0.0
0
LINE
8
0
10
615.09753
20
395.3034
30
0.0
11
611.53015
21
393.08292
31
0.0
0
LINE
8
0
10
611.53015
20
393.08292
30
0.0
11
608.1359
21
391.96564
31
0.0
0
LINE
8
0
10
682.5176
20
-67.98068
30
0.0
11
574.0626
21
-3.2769165
31
0.0
0
LINE
8
0
10
574.0626
20
-3.2769165
30
0.0
11
497.46207
21
71.9986
31
0.0
0
LINE
8
0
10
497.46207
20
71.9986
30
0.0
11
449.30807
21
149.6028
31
0.0
0
LINE
8
0
10
449.30807
20
149.6028
30
0.0
11
425.12732
21
223.40988
31
0.0
0
LINE
8
0
10
425.12732
20
223.40988
30
0.0
11
419.9914
21
289.2581
31
0.0
0
LINE
8
0
10
419.9914
20
289.2581
30
0.0
11
428.99097
21
344.69977
31
0.0
0
LINE
8
0
10
428.99097
20
344.69977
30
0.0
11
447.57748
21
388.69992
31
0.0
0
LINE
8
0
10
447.57748
20
388.69992
30
0.0
11
471.78433
21
421.31805
31
0.0
0
LINE
8
0
10
471.78433
20
421.31805
30
0.0
11
498.346
21
443.40118
31
0.0
0
LINE
8
0
10
498.346
20
443.40118
30
0.0
11
524.73456
21
456.30588
31
0.0
0
LINE
8
0
10
524.73456
20
456.30588
30
0.0
11
549.13416
21
461.66147
31
0.0
0
LINE
8
0
10
549.13416
20
461.66147
30
0.0
11
570.3721
21
461.17944
31
0.0
0
LINE
8
0
10
570.3721
20
461.17944
30
0.0
11
587.8235
21
456.50983
31
0.0
0
LINE
8
0
10
587.8235
20
456.50983
30
0.0
11
601.3041
21
449.1416
31
0.0
0
LINE
8
0
10
601.3041
20
449.1416
30
0.0
11
610.9608
21
440.34225
31
0.0
0
LINE
8
0
10
610.9608
20
440.34225
30
0.0
11
617.1702
21
431.1294
31
0.0
0
LINE
8
0
10
617.1702
20
431.1294
30
0.0
11
620.44806
21
422.26822
31
0.0
0
LINE
8
0
10
620.44806
20
422.26822
30
0.0
11
621.37427
21
414.2872
31
0.0
0
LINE
8
0
10
621.37427
20
414.2872
30
0.0
11
620.5345
21
407.50638
31
0.0
0
LINE
8
0
10
620.5345
20
407.50638
30
0.0
11
618.4768
21
402.07248
31
0.0
0
LINE
8
0
10
618.4768
20
402.07248
30
0.0
11
615.6838
21
397.9964
31
0.0
0
LINE
8
0
10
615.6838
20
397.9964
30
0.0
11
612.55615
21
395.1902
31
0.0
0
LINE
8
0
10
612.55615
20
395.1902
30
0.0
11
609.4075
21
393.5005
31
0.0
0
LINE
8
0
10
762.52795
20
-46.54196
30
0.0
11
644.485
21
-1.6542053
31
0.0
0
LINE
8
0
10
644.485
20
-1.6542053
30
0.0
11
555.9767
21
59.176147
31
0.0
0
LINE
8
0
10
555.9767
20
59.176147
30
0.0
11
495.07855
21
127.23947
31
0.0
0
LINE
8
0
10
495.07855
20
127.23947
30
0.0
11
458.44864
21
195.72633
31
0.0
0
LINE
8
0
10
458.44864
20
195.72633
30
0.0
11
441.9563
21
259.6823
31
0.0
0
LINE
8
0
10
441.9563
20
259.6823
30
0.0
11
441.1918
21
315.84445
31
0.0
0
LINE
8
0
10
441.1918
20
315.84445
30
0.0
11
451.8554
21
362.40363
31
0.0
0
LINE
8
0
10
451.8554
20
362.40363
30
0.0
11
470.0304
21
398.72974
31
0.0
0
LINE
8
0
10
470.0304
20
398.72974
30
0.0
11
492.3538
21
425.08975
31
0.0
0
LINE
8
0
10
492.3538
20
425.08975
30
0.0
11
516.1006
21
442.38074
31
0.0
0
LINE
8
0
10
516.1006
20
442.38074
30
0.0
11
539.1995
21
451.8919
31
0.0
0
LINE
8
0
10
539.1995
20
451.8919
30
0.0
11
560.1985
21
455.10516
31
0.0
0
LINE
8
0
10
560.1985
20
455.10516
30
0.0
11
578.1957
21
453.53687
31
0.0
0
LINE
8
0
10
578.1957
20
453.53687
30
0.0
11
592.75085
21
448.6215
31
0.0
0
LINE
8
0
10
592.75085
20
448.6215
30
0.0
11
603.78894
21
441.6327
31
0.0
0
LINE
8
0
10
603.78894
20
441.6327
30
0.0
11
611.5038
21
433.63806
31
0.0
0
LINE
8
0
10
611.5038
20
433.63806
30
0.0
11
616.27057
21
425.48068
31
0.0
0
LINE
8
0
10
616.27057
20
425.48068
30
0.0
11
618.5686
21
417.78174
31
0.0
0
LINE
8
0
10
618.5686
20
417.78174
30
0.0
11
618.919
21
410.95813
31
0.0
0
LINE
8
0
10
618.919
20
410.95813
30
0.0
11
617.83624
21
405.24945
31
0.0
0
LINE
8
0
10
617.83624
20
405.24945
30
0.0
11
615.7934
21
400.7503
31
0.0
0
LINE
8
0
10
615.7934
20
400.7503
30
0.0
11
613.2006
21
397.4436
31
0.0
0
LINE
8
0
10
613.2006
20
397.4436
30
0.0
11
610.3932
21
395.23282
31
0.0
0
LINE
8
0
10
837.6
20
-11.535339
30
0.0
11
713.55566
21
12.172577
31
0.0
0
LINE
8
0
10
713.55566
20
12.172577
30
0.0
11
615.8289
21
56.709442
31
0.0
0
LINE
8
0
10
615.8289
20
56.709442
30
0.0
11
544.0369
21
113.16391
31
0.0
0
LINE
8
0
10
544.0369
20
113.16391
30
0.0
11
496.07098
21
174.24953
31
0.0
0
LINE
8
0
10
496.07098
20
174.24953
30
0.0
11
468.72327
21
234.37001
31
0.0
0
LINE
8
0
10
468.72327
20
234.37001
30
0.0
11
458.21796
21
289.54617
31
0.0
0
LINE
8
0
10
458.21796
20
289.54617
30
0.0
11
460.63458
21
337.24976
31
0.0
0
LINE
8
0
10
460.63458
20
337.24976
30
0.0
11
472.2255
21
376.18
31
0.0
0
LINE
8
0
10
472.2255
20
376.18
30
0.0
11
489.6324
21
406.016
31
0.0
0
LINE
8
0
10
489.6324
20
406.016
30
0.0
11
510.01587
21
427.16788
31
0.0
0
LINE
8
0
10
510.01587
20
427.16788
30
0.0
11
531.11224
21
440.54565
31
0.0
0
LINE
8
0
10
531.11224
20
440.54565
30
0.0
11
551.23425
21
447.3565
31
0.0
0
LINE
8
0
10
551.23425
20
447.3565
30
0.0
11
569.23035
21
448.93726
31
0.0
0
LINE
8
0
10
569.23035
20
448.93726
30
0.0
11
584.41797
21
446.62402
31
0.0
0
LINE
8
0
10
584.41797
20
446.62402
30
0.0
11
596.5019
21
441.6581
31
0.0
0
LINE
8
0
10
596.5019
20
441.6581
30
0.0
11
605.48785
21
435.12463
31
0.0
0
LINE
8
0
10
605.48785
20
435.12463
30
0.0
11
611.5987
21
427.9189
31
0.0
0
LINE
8
0
10
611.5987
20
427.9189
30
0.0
11
615.1987
21
420.73602
31
0.0
0
LINE
8
0
10
615.1987
20
420.73602
30
0.0
11
616.72876
21
414.0769
31
0.0
0
LINE
8
0
10
616.72876
20
414.0769
30
0.0
11
616.6537
21
408.26694
31
0.0
0
LINE
8
0
10
616.6537
20
408.26694
30
0.0
11
615.42316
21
403.4814
31
0.0
0
LINE
8
0
10
615.42316
20
403.4814
30
0.0
11
613.444
21
399.77472
31
0.0
0
LINE
8
0
10
613.444
20
399.77472
30
0.0
11
611.0631
21
397.11002
31
0.0
0
LINE
8
0
10
905.45264
20
35.975616
30
0.0
11
779.176
21
37.783264
31
0.0
0
LINE
8
0
10
779.176
20
37.783264
30
0.0
11
675.2002
21
64.67349
31
0.0
0
LINE
8
0
10
675.2002
20
64.67349
30
0.0
11
594.6957
21
107.80371
31
0.0
0
LINE
8
0
10
594.6957
20
107.80371
30
0.0
11
536.851
21
159.6321
31
0.0
0
LINE
8
0
10
536.851
20
159.6321
30
0.0
11
499.479
21
214.09033
31
0.0
0
LINE
8
0
10
499.479
20
214.09033
30
0.0
11
479.55203
21
266.604
31
0.0
0
LINE
8
0
10
479.55203
20
266.604
30
0.0
11
473.64832
21
314.0025
31
0.0
0
LINE
8
0
10
473.64832
20
314.0025
30
0.0
11
478.30298
21
354.35406
31
0.0
0
LINE
8
0
10
478.30298
20
354.35406
30
0.0
11
490.26447
21
386.75946
31
0.0
0
LINE
8
0
10
490.26447
20
386.75946
30
0.0
11
506.66528
21
411.12955
31
0.0
0
LINE
8
0
10
506.66528
20
411.12955
30
0.0
11
525.11816
21
427.96747
31
0.0
0
LINE
8
0
10
525.11816
20
427.96747
30
0.0
11
543.7517
21
438.16898
31
0.0
0
LINE
8
0
10
543.7517
20
438.16898
30
0.0
11
561.19995
21
442.85068
31
0.0
0
LINE
8
0
10
561.19995
20
442.85068
30
0.0
11
576.55853
21
443.2099
31
0.0
0
LINE
8
0
10
576.55853
20
443.2099
30
0.0
11
589.32117
21
440.41782
31
0.0
0
LINE
8
0
10
589.32117
20
440.41782
30
0.0
11
599.3052
21
435.54395
31
0.0
0
LINE
8
0
10
599.3052
20
435.54395
30
0.0
11
606.5744
21
429.50885
31
0.0
0
LINE
8
0
10
606.5744
20
429.50885
30
0.0
11
611.36707
21
423.0602
31
0.0
0
LINE
8
0
10
611.36707
20
423.0602
30
0.0
11
614.03015
21
416.76797
31
0.0
0
LINE
8
0
10
614.03015
20
416.76797
30
0.0
11
614.96515
21
411.03323
31
0.0
0
LINE
8
0
10
614.96515
20
411.03323
30
0.0
11
614.5843
21
406.10672
31
0.0
0
LINE
8
0
10
614.5843
20
406.10672
30
0.0
11
613.2789
21
402.11264
31
0.0
0
LINE
8
0
10
613.2789
20
402.11264
30
0.0
11
611.39685
21
399.075
31
0.0
0
LINE
8
0
10
964.0243
20
94.54724
30
0.0
11
839.3522
21
74.39972
31
0.0
0
LINE
8
0
10
839.3522
20
74.39972
30
0.0
11
732.28656
21
82.82623
31
0.0
0
LINE
8
0
10
732.28656
20
82.82623
30
0.0
11
645.5156
21
111.32172
31
0.0
0
LINE
8
0
10
645.5156
20
111.32172
30
0.0
11
579.55
21
152.31812
31
0.0
0
LINE
8
0
10
579.55
20
152.31812
30
0.0
11
533.28906
21
199.45941
31
0.0
0
LINE
8
0
10
533.28906
20
199.45941
30
0.0
11
504.54596
21
247.715
31
0.0
0
LINE
8
0
10
504.54596
20
247.715
30
0.0
11
490.50122
21
293.36826
31
0.0
0
LINE
8
0
10
490.50122
20
293.36826
30
0.0
11
488.07816
21
333.91504
31
0.0
0
LINE
8
0
10
488.07816
20
333.91504
30
0.0
11
494.23077
21
367.9052
31
0.0
0
LINE
8
0
10
494.23077
20
367.9052
30
0.0
11
506.1506
21
394.75305
31
0.0
0
LINE
8
0
10
506.1506
20
394.75305
30
0.0
11
521.3993
21
414.53946
31
0.0
0
LINE
8
0
10
521.3993
20
414.53946
30
0.0
11
537.9783
21
427.8217
31
0.0
0
LINE
8
0
10
537.9783
20
427.8217
30
0.0
11
554.34845
21
435.46213
31
0.0
0
LINE
8
0
10
554.34845
20
435.46213
30
0.0
11
569.4113
21
438.48288
31
0.0
0
LINE
8
0
10
569.4113
20
438.48288
30
0.0
11
582.46497
21
437.9494
31
0.0
0
LINE
8
0
10
582.46497
20
437.9494
30
0.0
11
593.14355
21
434.8833
31
0.0
0
LINE
8
0
10
593.14355
20
434.8833
30
0.0
11
601.3504
21
430.20218
31
0.0
0
LINE
8
0
10
601.3504
20
430.20218
30
0.0
11
607.19
21
424.68375
31
0.0
0
LINE
8
0
10
607.19
20
424.68375
30
0.0
11
610.9053
21
418.94952
31
0.0
0
LINE
8
0
10
610.9053
20
418.94952
30
0.0
11
612.8219
21
413.46426
31
0.0
0
LINE
8
0
10
612.8219
20
413.46426
30
0.0
11
613.3023
21
408.54648
31
0.0
0
LINE
8
0
10
613.3023
20
408.54648
30
0.0
11
612.71027
21
404.3864
31
0.0
0
LINE
8
0
10
612.71027
20
404.3864
30
0.0
11
611.38434
21
401.0681
31
0.0
0
LINE
8
0
10
1011.5353
20
162.39989
30
0.0
11
892.25574
21
120.90939
31
0.0
0
LINE
8
0
10
892.25574
20
120.90939
30
0.0
11
785.3535
21
110.61612
31
0.0
0
LINE
8
0
10
785.3535
20
110.61612
30
0.0
11
694.9527
21
123.611145
31
0.0
0
LINE
8
0
10
694.9527
20
123.611145
30
0.0
11
622.8702
21
152.52985
31
0.0
0
LINE
8
0
10
622.8702
20
152.52985
30
0.0
11
569.12616
21
190.92183
31
0.0
0
LINE
8
0
10
569.12616
20
190.92183
30
0.0
11
532.4401
21
233.45311
31
0.0
0
LINE
8
0
10
532.4401
20
233.45311
30
0.0
11
510.6812
21
275.97394
31
0.0
0
LINE
8
0
10
510.6812
20
275.97394
30
0.0
11
501.2541
21
315.48395
31
0.0
0
LINE
8
0
10
501.2541
20
315.48395
30
0.0
11
501.4109
21
350.02612
31
0.0
0
LINE
8
0
10
501.4109
20
350.02612
30
0.0
11
508.48755
21
378.53595
31
0.0
0
LINE
8
0
10
508.48755
20
378.53595
30
0.0
11
520.06866
21
400.66965
31
0.0
0
LINE
8
0
10
520.06866
20
400.66965
30
0.0
11
534.08936
21
416.62903
31
0.0
0
LINE
8
0
10
534.08936
20
416.62903
30
0.0
11
548.88403
21
426.99603
31
0.0
0
LINE
8
0
10
548.88403
20
426.99603
30
0.0
11
563.19354
21
432.58655
31
0.0
0
LINE
8
0
10
563.19354
20
432.58655
30
0.0
11
576.1415
21
434.32794
31
0.0
0
LINE
8
0
10
576.1415
20
434.32794
30
0.0
11
587.1903
21
433.16272
31
0.0
0
LINE
8
0
10
587.1903
20
433.16272
30
0.0
11
596.08527
21
429.97784
31
0.0
0
LINE
8
0
10
596.08527
20
429.97784
30
0.0
11
602.7945
21
425.55728
31
0.0
0
LINE
8
0
10
602.7945
20
425.55728
30
0.0
11
607.44904
21
420.55533
31
0.0
0
LINE
8
0
10
607.44904
20
420.55533
30
0.0
11
610.28906
21
415.48624
31
0.0
0
LINE
8
0
10
610.28906
20
415.48624
30
0.0
11
611.61615
21
410.72656
31
0.0
0
LINE
8
0
10
611.61615
20
410.72656
30
0.0
11
611.75543
21
406.5269
31
0.0
0
LINE
8
0
10
611.75543
20
406.5269
30
0.0
11
611.02594
21
403.02875
31
0.0
0
LINE
8
0
10
1046.542
20
237.47191
30
0.0
11
936.2793
21
175.89906
31
0.0
0
LINE
8
0
10
936.2793
20
175.89906
30
0.0
11
832.7887
21
147.19891
31
0.0
0
LINE
8
0
10
832.7887
20
147.19891
30
0.0
11
741.5046
21
144.29848
31
0.0
0
LINE
8
0
10
741.5046
20
144.29848
30
0.0
11
665.4954
21
160.26083
31
0.0
0
LINE
8
0
10
665.4954
20
160.26083
30
0.0
11
605.90125
21
188.73701
31
0.0
0
LINE
8
0
10
605.90125
20
188.73701
30
0.0
11
562.38715
21
224.25168
31
0.0
0
LINE
8
0
10
562.38715
20
224.25168
30
0.0
11
533.5751
21
262.3481
31
0.0
0
LINE
8
0
10
533.5751
20
262.3481
30
0.0
11
517.4303
21
299.62088
31
0.0
0
LINE
8
0
10
517.4303
20
299.62088
30
0.0
11
511.58655
21
333.6655
31
0.0
0
LINE
8
0
10
511.58655
20
333.6655
30
0.0
11
513.605
21
362.97104
31
0.0
0
LINE
8
0
10
513.605
20
362.97104
30
0.0
11
521.1667
21
386.77954
31
0.0
0
LINE
8
0
10
521.1667
20
386.77954
30
0.0
11
532.20306
21
404.93112
31
0.0
0
LINE
8
0
10
532.20306
20
404.93112
30
0.0
11
544.9728
21
417.70972
31
0.0
0
LINE
8
0
10
544.9728
20
417.70972
30
0.0
11
558.0941
21
425.7001
31
0.0
0
LINE
8
0
10
558.0941
20
425.7001
30
0.0
11
570.54297
21
429.66342
31
0.0
0
LINE
8
0
10
570.54297
20
429.66342
30
0.0
11
581.6262
21
430.43454
31
0.0
0
LINE
8
0
10
581.6262
20
430.43454
30
0.0
11
590.93915
21
428.84262
31
0.0
0
LINE
8
0
10
590.93915
20
428.84262
30
0.0
11
598.314
21
425.65427
31
0.0
0
LINE
8
0
10
598.314
20
425.65427
30
0.0
11
603.7665
21
421.53656
31
0.0
0
LINE
8
0
10
603.7665
20
421.53656
30
0.0
11
607.44354
21
417.03763
31
0.0
0
LINE
8
0
10
607.44354
20
417.03763
30
0.0
11
609.577
21
412.58075
31
0.0
0
LINE
8
0
10
609.577
20
412.58075
30
0.0
11
610.4435
21
408.46902
31
0.0
0
LINE
8
0
10
610.4435
20
408.46902
30
0.0
11
610.33246
21
404.89737
31
0.0
0
LINE
8
0
10
1067.9807
20
317.48224
30
0.0
11
970.08527
21
237.69812
31
0.0
0
LINE
8
0
10
970.08527
20
237.69812
30
0.0
11
873.1505
21
191.46284
31
0.0
0
LINE
8
0
10
873.1505
20
191.46284
30
0.0
11
783.7569
21
172.75516
31
0.0
0
LINE
8
0
10
783.7569
20
172.75516
30
0.0
11
706.1307
21
175.27617
31
0.0
0
LINE
8
0
10
706.1307
20
175.27617
30
0.0
11
642.497
21
192.97131
31
0.0
0
LINE
8
0
10
642.497
20
192.97131
30
0.0
11
593.4769
21
220.39029
31
0.0
0
LINE
8
0
10
593.4769
20
220.39029
30
0.0
11
558.4872
21
252.9048
31
0.0
0
LINE
8
0
10
558.4872
20
252.9048
30
0.0
11
536.1154
21
286.8078
31
0.0
0
LINE
8
0
10
536.1154
20
286.8078
30
0.0
11
524.4486
21
319.32043
31
0.0
0
LINE
8
0
10
524.4486
20
319.32043
30
0.0
11
521.34753
21
348.53125
31
0.0
0
LINE
8
0
10
521.34753
20
348.53125
30
0.0
11
524.66003
21
373.29114
31
0.0
0
LINE
8
0
10
524.66003
20
373.29114
30
0.0
11
532.3768
21
393.0834
31
0.0
0
LINE
8
0
10
532.3768
20
393.0834
30
0.0
11
542.7335
21
407.88528
31
0.0
0
LINE
8
0
10
542.7335
20
407.88528
30
0.0
11
554.268
21
418.03278
31
0.0
0
LINE
8
0
10
554.268
20
418.03278
30
0.0
11
565.8395
21
424.09763
31
0.0
0
LINE
8
0
10
565.8395
20
424.09763
30
0.0
11
576.6205
21
426.78162
31
0.0
0
LINE
8
0
10
576.6205
20
426.78162
30
0.0
11
586.06836
21
426.83105
31
0.0
0
LINE
8
0
10
586.06836
20
426.83105
30
0.0
11
593.8848
21
424.97174
31
0.0
0
LINE
8
0
10
593.8848
20
424.97174
30
0.0
11
599.9695
21
421.86343
31
0.0
0
LINE
8
0
10
599.9695
20
421.86343
30
0.0
11
604.37195
21
418.07135
31
0.0
0
LINE
8
0
10
604.37195
20
418.07135
30
0.0
11
607.2469
21
414.05264
31
0.0
0
LINE
8
0
10
607.2469
20
414.05264
30
0.0
11
608.8142
21
410.15387
31
0.0
0
LINE
8
0
10
608.8142
20
410.15387
30
0.0
11
609.3251
21
406.6172
31
0.0
0
ENDSEC
0
EOF
