0
SECTION
2
ENTITIES
0
LINE
8
0
10
1336.1854
20
713.09894
30
0.0
11
-198.29071
21
95.48163
31
0.0
0
LINE
8
0
10
-198.29071
20
95.48163
30
0.0
11
1464.2264
21
692.8612
31
0.0
0
LINE
8
0
10
1464.2264
20
692.8612
30
0.0
11
-334.12665
21
122.23401
31
0.0
0
LINE
8
0
10
-334.12665
20
122.23401
30
0.0
11
1608.1193
21
658.8425
31
0.0
0
LINE
8
0
10
1608.1193
20
658.8425
30
0.0
11
-486.32544
21
164.33176
31
0.0
0
LINE
8
0
10
-486.32544
20
164.33176
30
0.0
11
1768.8579
21
607.78546
31
0.0
0
LINE
8
0
10
1768.8579
20
607.78546
30
0.0
11
-655.8175
21
225.29332
31
0.0
0
LINE
8
0
10
-655.8175
20
225.29332
30
0.0
11
1947.2927
21
535.90326
31
0.0
0
LINE
8
0
10
1947.2927
20
535.90326
30
0.0
11
-843.35693
21
309.19153
31
0.0
0
LINE
8
0
10
-843.35693
20
309.19153
30
0.0
11
2144.0654
21
438.81155
31
0.0
0
LINE
8
0
10
2144.0654
20
438.81155
30
0.0
11
-1049.4526
21
420.72943
31
0.0
0
LINE
8
0
10
-1049.4526
20
420.72943
30
0.0
11
2359.5293
21
311.48062
31
0.0
0
LINE
8
0
10
2359.5293
20
311.48062
30
0.0
11
-1274.279
21
565.2986
31
0.0
0
LINE
8
0
10
-1274.279
20
565.2986
30
0.0
11
2593.654
21
148.14046
31
0.0
0
LINE
8
0
10
2593.654
20
148.14046
30
0.0
11
-1517.573
21
749.0381
31
0.0
0
LINE
8
0
10
-1517.573
20
749.0381
30
0.0
11
2845.9111
21
-57.747375
31
0.0
0
LINE
8
0
10
2845.9111
20
-57.747375
30
0.0
11
-1778.5051
21
978.92334
31
0.0
0
LINE
8
0
10
-1778.5051
20
978.92334
30
0.0
11
3115.135
21
-313.59375
31
0.0
0
LINE
8
0
10
3115.135
20
-313.59375
30
0.0
11
-2055.5344
21
1262.8093
31
0.0
0
LINE
8
0
10
-2055.5344
20
1262.8093
30
0.0
11
3399.365
21
-627.71985
31
0.0
0
LINE
8
0
10
3399.365
20
-627.71985
30
0.0
11
-2346.233
21
1609.4978
31
0.0
0
LINE
8
0
10
-2346.233
20
1609.4978
30
0.0
11
3695.6604
21
-1009.41003
31
0.0
0
LINE
8
0
10
3695.6604
20
-1009.41003
30
0.0
11
-2647.0767
21
2028.8036
31
0.0
0
LINE
8
0
10
-2647.0767
20
2028.8036
30
0.0
11
3999.842
21
-1469.0452
31
0.0
0
LINE
8
0
10
3999.842
20
-1469.0452
30
0.0
11
-2953.2239
21
2531.5635
31
0.0
0
LINE
8
0
10
-2953.2239
20
2531.5635
30
0.0
11
4306.335
21
-2017.9358
31
0.0
0
LINE
8
0
10
4306.335
20
-2017.9358
30
0.0
11
-3258.2131
21
3129.7285
31
0.0
0
LINE
8
0
10
-3258.2131
20
3129.7285
30
0.0
11
4607.752
21
-2668.6
31
0.0
0
LINE
8
0
10
4607.752
20
-2668.6
30
0.0
11
-3553.7031
21
3836.2778
31
0.0
0
LINE
8
0
10
-3553.7031
20
3836.2778
30
0.0
11
4894.696
21
-3434.5217
31
0.0
0
LINE
8
0
10
4894.696
20
-3434.5217
30
0.0
11
-3829.1074
21
4665.2524
31
0.0
0
LINE
8
0
10
-3829.1074
20
4665.2524
30
0.0
11
5155.2173
21
-4330.357
31
0.0
0
LINE
8
0
10
5155.2173
20
-4330.357
30
0.0
11
-4071.0825
21
5631.813
31
0.0
0
LINE
8
0
10
-4071.0825
20
5631.813
30
0.0
11
5374.552
21
-5371.6514
31
0.0
0
LINE
8
0
10
5374.552
20
-5371.6514
30
0.0
11
-4263.2456
21
6751.955
31
0.0
0
LINE
8
0
10
-4263.2456
20
6751.955
30
0.0
11
5534.595
21
-6574.812
31
0.0
0
LINE
8
0
10
5534.595
20
-6574.812
30
0.0
11
-4385.6147
21
8042.4604
31
0.0
0
LINE
8
0
10
-4385.6147
20
8042.4604
30
0.0
11
5613.1865
21
-7957.0557
31
0.0
0
LINE
8
0
10
5613.1865
20
-7957.0557
30
0.0
11
-4413.8447
21
9520.812
31
0.0
0
LINE
8
0
10
-4413.8447
20
9520.812
30
0.0
11
5583.8003
21
-9535.949
31
0.0
0
LINE
8
0
10
5583.8003
20
-9535.949
30
0.0
11
-4318.92
21
11204.6875
31
0.0
0
LINE
8
0
10
-4318.92
20
11204.6875
30
0.0
11
5414.704
21
-11329.23
31
0.0
0
LINE
8
0
10
5414.704
20
-11329.23
30
0.0
11
-4066.358
21
13111.709
31
0.0
0
LINE
8
0
10
-4066.358
20
13111.709
30
0.0
11
5068.2827
21
-13354.348
31
0.0
0
LINE
8
0
10
5068.2827
20
-13354.348
30
0.0
11
-3615.1333
21
15259.055
31
0.0
0
LINE
8
0
10
-3615.1333
20
15259.055
30
0.0
11
4500.497
21
-15627.854
31
0.0
0
LINE
8
0
10
4500.497
20
-15627.854
30
0.0
11
-2917.6619
21
17662.582
31
0.0
0
LINE
8
0
10
-2917.6619
20
17662.582
30
0.0
11
3659.1035
21
-18164.97
31
0.0
0
LINE
8
0
10
3659.1035
20
-18164.97
30
0.0
11
-1917.5745
21
20336.434
31
0.0
0
LINE
8
0
10
-1917.5745
20
20336.434
30
0.0
11
2484.4316
21
-20978.316
31
0.0
0
LINE
8
0
10
2484.4316
20
-20978.316
30
0.0
11
-550.3312
21
23291.688
31
0.0
0
LINE
8
0
10
-550.3312
20
23291.688
30
0.0
11
906.3061
21
-24077.258
31
0.0
0
LINE
8
0
10
906.3061
20
-24077.258
30
0.0
11
1258.6895
21
26535.46
31
0.0
0
LINE
8
0
10
1258.6895
20
26535.46
30
0.0
11
-1154.9152
21
-27466.332
31
0.0
0
LINE
8
0
10
-1154.9152
20
-27466.332
30
0.0
11
3594.972
21
30069.422
31
0.0
0
LINE
8
0
10
3594.972
20
30069.422
30
0.0
11
-3790.5317
21
-31143.89
31
0.0
0
LINE
8
0
10
-3790.5317
20
-31143.89
30
0.0
11
6555.378
21
33888.23
31
0.0
0
LINE
8
0
10
899.16736
20
1141.956
30
0.0
11
250.85028
21
-379.80383
31
0.0
0
LINE
8
0
10
250.85028
20
-379.80383
30
0.0
11
1004.01636
21
1218.1846
31
0.0
0
LINE
8
0
10
1004.01636
20
1218.1846
30
0.0
11
135.88324
21
-456.93762
31
0.0
0
LINE
8
0
10
135.88324
20
-456.93762
30
0.0
11
1129.8184
21
1295.8774
31
0.0
0
LINE
8
0
10
1129.8184
20
1295.8774
30
0.0
11
-1.5060425
21
-534.79034
31
0.0
0
LINE
8
0
10
-1.5060425
20
-534.79034
30
0.0
11
1279.5806
21
1373.4341
31
0.0
0
LINE
8
0
10
1279.5806
20
1373.4341
30
0.0
11
-164.46045
21
-611.53357
31
0.0
0
LINE
8
0
10
-164.46045
20
-611.53357
30
0.0
11
1456.5813
21
1448.7782
31
0.0
0
LINE
8
0
10
1456.5813
20
1448.7782
30
0.0
11
-356.39795
21
-684.81726
31
0.0
0
LINE
8
0
10
-356.39795
20
-684.81726
30
0.0
11
1664.3749
21
1519.2634
31
0.0
0
LINE
8
0
10
1664.3749
20
1519.2634
30
0.0
11
-580.9989
21
-751.6793
31
0.0
0
LINE
8
0
10
-580.9989
20
-751.6793
30
0.0
11
1906.7698
21
1581.5804
31
0.0
0
LINE
8
0
10
1906.7698
20
1581.5804
30
0.0
11
-842.20105
21
-808.42944
31
0.0
0
LINE
8
0
10
-842.20105
20
-808.42944
30
0.0
11
2187.8152
21
1631.6382
31
0.0
0
LINE
8
0
10
2187.8152
20
1631.6382
30
0.0
11
-1144.1593
21
-850.54016
31
0.0
0
LINE
8
0
10
-1144.1593
20
-850.54016
30
0.0
11
2511.7725
21
1664.4269
31
0.0
0
LINE
8
0
10
2511.7725
20
1664.4269
30
0.0
11
-1491.2197
21
-872.49316
31
0.0
0
LINE
8
0
10
-1491.2197
20
-872.49316
30
0.0
11
2883.0532
21
1673.8871
31
0.0
0
LINE
8
0
10
2883.0532
20
1673.8871
30
0.0
11
-1887.8467
21
-867.64417
31
0.0
0
LINE
8
0
10
-1887.8467
20
-867.64417
30
0.0
11
3306.1548
21
1652.7482
31
0.0
0
LINE
8
0
10
3306.1548
20
1652.7482
30
0.0
11
-2338.5425
21
-828.06384
31
0.0
0
LINE
8
0
10
-2338.5425
20
-828.06384
30
0.0
11
3785.5723
21
1592.3419
31
0.0
0
LINE
8
0
10
3785.5723
20
1592.3419
30
0.0
11
-2847.7651
21
-744.29944
31
0.0
0
LINE
8
0
10
-2847.7651
20
-744.29944
30
0.0
11
4325.6636
21
1482.4451
31
0.0
0
LINE
8
0
10
4325.6636
20
1482.4451
30
0.0
11
-3419.7573
21
-605.24396
31
0.0
0
LINE
8
0
10
-3419.7573
20
-605.24396
30
0.0
11
4930.5117
21
1311.0454
31
0.0
0
LINE
8
0
10
4930.5117
20
1311.0454
30
0.0
11
-4058.3765
21
-397.96967
31
0.0
0
LINE
8
0
10
-4058.3765
20
-397.96967
30
0.0
11
5603.735
21
1064.0916
31
0.0
0
LINE
8
0
10
5603.735
20
1064.0916
30
0.0
11
-4766.926
21
-107.308105
31
0.0
0
LINE
8
0
10
-4766.926
20
-107.308105
30
0.0
11
6348.2266
21
725.3612
31
0.0
0
LINE
8
0
10
6348.2266
20
725.3612
30
0.0
11
-5547.8413
21
284.17023
31
0.0
0
LINE
8
0
10
-5547.8413
20
284.17023
30
0.0
11
7165.893
21
276.17184
31
0.0
0
LINE
8
0
10
7165.893
20
276.17184
30
0.0
11
-6402.4053
21
796.4807
31
0.0
0
LINE
8
0
10
-6402.4053
20
796.4807
30
0.0
11
8057.2935
21
-305.0396
31
0.0
0
LINE
8
0
10
8057.2935
20
-305.0396
30
0.0
11
-7330.347
21
1452.659
31
0.0
0
LINE
8
0
10
-7330.347
20
1452.659
30
0.0
11
9021.215
21
-1042.6967
31
0.0
0
LINE
8
0
10
9021.215
20
-1042.6967
30
0.0
11
-8329.388
21
2278.7222
31
0.0
0
LINE
8
0
10
-8329.388
20
2278.7222
30
0.0
11
10054.194
21
-1964.4517
31
0.0
0
LINE
8
0
10
10054.194
20
-1964.4517
30
0.0
11
-9394.718
21
3304.042
31
0.0
0
LINE
8
0
10
-9394.718
20
3304.042
30
0.0
11
11149.863
21
-3101.6746
31
0.0
0
LINE
8
0
10
11149.863
20
-3101.6746
30
0.0
11
-10518.312
21
4561.757
31
0.0
0
LINE
8
0
10
-10518.312
20
4561.757
30
0.0
11
12298.339
21
-4489.282
31
0.0
0
LINE
8
0
10
12298.339
20
-4489.282
30
0.0
11
-11688.161
21
6088.8945
31
0.0
0
LINE
8
0
10
-11688.161
20
6088.8945
30
0.0
11
13485.36
21
-6166.211
31
0.0
0
LINE
8
0
10
13485.36
20
-6166.211
30
0.0
11
-12887.504
21
7926.3594
31
0.0
0
LINE
8
0
10
-12887.504
20
7926.3594
30
0.0
11
14691.49
21
-8175.3037
31
0.0
0
LINE
8
0
10
14691.49
20
-8175.3037
30
0.0
11
-14093.872
21
10119.094
31
0.0
0
LINE
8
0
10
-14093.872
20
10119.094
30
0.0
11
15890.555
21
-10564.2705
31
0.0
0
LINE
8
0
10
15890.555
20
-10564.2705
30
0.0
11
-15277.408
21
12716.958
31
0.0
0
LINE
8
0
10
-15277.408
20
12716.958
30
0.0
11
17049.068
21
-13384.472
31
0.0
0
LINE
8
0
10
17049.068
20
-13384.472
30
0.0
11
-16400.309
21
15773.423
31
0.0
0
LINE
8
0
10
-16400.309
20
15773.423
30
0.0
11
18124.664
21
-16691.404
31
0.0
0
LINE
8
0
10
18124.664
20
-16691.404
30
0.0
11
-17414.84
21
19346.285
31
0.0
0
LINE
8
0
10
-17414.84
20
19346.285
30
0.0
11
19063.607
21
-20545.346
31
0.0
0
LINE
8
0
10
19063.607
20
-20545.346
30
0.0
11
-18261.736
21
23497.174
31
0.0
0
LINE
8
0
10
-18261.736
20
23497.174
30
0.0
11
19800.38
21
-25009.43
31
0.0
0
LINE
8
0
10
19800.38
20
-25009.43
30
0.0
11
-18868.729
21
28290.799
31
0.0
0
LINE
8
0
10
286.90106
20
1136.1855
30
0.0
11
904.5183
21
-398.29077
31
0.0
0
LINE
8
0
10
904.5183
20
-398.29077
30
0.0
11
307.13858
21
1264.2263
31
0.0
0
LINE
8
0
10
307.13858
20
1264.2263
30
0.0
11
877.7666
21
-534.12646
31
0.0
0
LINE
8
0
10
877.7666
20
-534.12646
30
0.0
11
341.15778
21
1408.1194
31
0.0
0
LINE
8
0
10
341.15778
20
1408.1194
30
0.0
11
835.6679
21
-686.32556
31
0.0
0
LINE
8
0
10
835.6679
20
-686.32556
30
0.0
11
392.2138
21
1568.8578
31
0.0
0
LINE
8
0
10
392.2138
20
1568.8578
30
0.0
11
774.7075
21
-855.81726
31
0.0
0
LINE
8
0
10
774.7075
20
-855.81726
30
0.0
11
464.09845
21
1747.293
31
0.0
0
LINE
8
0
10
464.09845
20
1747.293
30
0.0
11
690.80664
21
-1043.357
31
0.0
0
LINE
8
0
10
690.80664
20
-1043.357
30
0.0
11
561.1845
21
1944.0653
31
0.0
0
LINE
8
0
10
561.1845
20
1944.0653
30
0.0
11
579.2716
21
-1249.4526
31
0.0
0
LINE
8
0
10
579.2716
20
-1249.4526
30
0.0
11
688.51825
21
2159.5295
31
0.0
0
LINE
8
0
10
688.51825
20
2159.5295
30
0.0
11
434.70978
21
-1474.2798
31
0.0
0
LINE
8
0
10
434.70978
20
-1474.2798
30
0.0
11
851.85065
21
2393.6553
31
0.0
0
LINE
8
0
10
851.85065
20
2393.6553
30
0.0
11
250.97131
21
-1717.5745
31
0.0
0
LINE
8
0
10
250.97131
20
-1717.5745
30
0.0
11
1057.7373
21
2645.913
31
0.0
0
LINE
8
0
10
1057.7373
20
2645.913
30
0.0
11
21.08728
21
-1978.5076
31
0.0
0
LINE
8
0
10
21.08728
20
-1978.5076
30
0.0
11
1313.5825
21
2915.1382
31
0.0
0
LINE
8
0
10
1313.5825
20
2915.1382
30
0.0
11
-262.79742
21
-2255.5383
31
0.0
0
LINE
8
0
10
-262.79742
20
-2255.5383
30
0.0
11
1627.7074
21
3199.3694
31
0.0
0
LINE
8
0
10
1627.7074
20
3199.3694
30
0.0
11
-609.4846
21
-2546.2383
31
0.0
0
LINE
8
0
10
-609.4846
20
-2546.2383
30
0.0
11
2009.3962
21
3495.6667
31
0.0
0
LINE
8
0
10
2009.3962
20
3495.6667
30
0.0
11
-1028.7892
21
-2847.0837
31
0.0
0
LINE
8
0
10
-1028.7892
20
-2847.0837
30
0.0
11
2469.03
21
3799.8503
31
0.0
0
LINE
8
0
10
2469.03
20
3799.8503
30
0.0
11
-1531.575
21
-3153.2173
31
0.0
0
LINE
8
0
10
-1531.575
20
-3153.2173
30
0.0
11
3017.9478
21
4106.3276
31
0.0
0
LINE
8
0
10
3017.9478
20
4106.3276
30
0.0
11
-2129.7405
21
-3458.2046
31
0.0
0
LINE
8
0
10
-2129.7405
20
-3458.2046
30
0.0
11
3668.5823
21
4407.7656
31
0.0
0
LINE
8
0
10
3668.5823
20
4407.7656
30
0.0
11
-2836.2595
21
-3753.7183
31
0.0
0
LINE
8
0
10
-2836.2595
20
-3753.7183
30
0.0
11
4434.535
21
4694.6836
31
0.0
0
LINE
8
0
10
4434.535
20
4694.6836
30
0.0
11
-3665.2666
21
-4029.0938
31
0.0
0
LINE
8
0
10
-3665.2666
20
-4029.0938
30
0.0
11
5330.3716
21
4955.202
31
0.0
0
LINE
8
0
10
5330.3716
20
4955.202
30
0.0
11
-4631.828
21
-4271.066
31
0.0
0
LINE
8
0
10
-4631.828
20
-4271.066
30
0.0
11
6371.6304
21
5174.577
31
0.0
0
LINE
8
0
10
6371.6304
20
5174.577
30
0.0
11
-5751.9336
21
-4463.274
31
0.0
0
LINE
8
0
10
-5751.9336
20
-4463.274
30
0.0
11
7574.8276
21
5334.5728
31
0.0
0
LINE
8
0
10
7574.8276
20
5334.5728
30
0.0
11
-7042.4766
21
-4585.5903
31
0.0
0
LINE
8
0
10
-7042.4766
20
-4585.5903
30
0.0
11
8957.072
21
5413.16
31
0.0
0
LINE
8
0
10
8957.072
20
5413.16
30
0.0
11
-8520.789
21
-4613.8853
31
0.0
0
LINE
8
0
10
-8520.789
20
-4613.8853
30
0.0
11
10535.927
21
5383.844
31
0.0
0
LINE
8
0
10
10535.927
20
5383.844
30
0.0
11
-10204.703
21
-4518.8857
31
0.0
0
LINE
8
0
10
-10204.703
20
-4518.8857
30
0.0
11
12329.209
21
5214.7563
31
0.0
0
LINE
8
0
10
12329.209
20
5214.7563
30
0.0
11
-12111.6875
21
-4266.414
31
0.0
0
LINE
8
0
10
-12111.6875
20
-4266.414
30
0.0
11
14354.328
21
4868.344
31
0.0
0
LINE
8
0
10
14354.328
20
4868.344
30
0.0
11
-14259.036
21
-3815.1992
31
0.0
0
LINE
8
0
10
-14259.036
20
-3815.1992
30
0.0
11
16627.836
21
4300.5684
31
0.0
0
LINE
8
0
10
16627.836
20
4300.5684
30
0.0
11
-16662.566
21
-3117.7385
31
0.0
0
LINE
8
0
10
-16662.566
20
-3117.7385
30
0.0
11
19164.957
21
3459.1863
31
0.0
0
LINE
8
0
10
19164.957
20
3459.1863
30
0.0
11
-19336.422
21
-2117.663
31
0.0
0
LINE
8
0
10
-19336.422
20
-2117.663
30
0.0
11
21978.336
21
2284.2007
31
0.0
0
LINE
8
0
10
21978.336
20
2284.2007
30
0.0
11
-22291.684
21
-750.4332
31
0.0
0
LINE
8
0
10
-22291.684
20
-750.4332
30
0.0
11
25077.262
21
706.0416
31
0.0
0
LINE
8
0
10
25077.262
20
706.0416
30
0.0
11
-25535.463
21
1058.573
31
0.0
0
LINE
8
0
10
-25535.463
20
1058.573
30
0.0
11
28466.34
21
-1354.7911
31
0.0
0
LINE
8
0
10
28466.34
20
-1354.7911
30
0.0
11
-29069.438
21
3394.8398
31
0.0
0
LINE
8
0
10
-29069.438
20
3394.8398
30
0.0
11
32143.908
21
-3990.3916
31
0.0
0
LINE
8
0
10
32143.908
20
-3990.3916
30
0.0
11
-32888.164
21
6355.7397
31
0.0
0
LINE
8
0
10
-141.95612
20
699.1673
30
0.0
11
1379.8037
21
50.850067
31
0.0
0
LINE
8
0
10
1379.8037
20
50.850067
30
0.0
11
-218.18439
21
804.0166
31
0.0
0
LINE
8
0
10
-218.18439
20
804.0166
30
0.0
11
1456.9375
21
-64.117035
31
0.0
0
LINE
8
0
10
1456.9375
20
-64.117035
30
0.0
11
-295.87726
21
929.8186
31
0.0
0
LINE
8
0
10
-295.87726
20
929.8186
30
0.0
11
1534.7908
21
-201.5055
31
0.0
0
LINE
8
0
10
1534.7908
20
-201.5055
30
0.0
11
-373.4345
21
1079.58
31
0.0
0
LINE
8
0
10
-373.4345
20
1079.58
30
0.0
11
1611.5326
21
-364.46173
31
0.0
0
LINE
8
0
10
1611.5326
20
-364.46173
30
0.0
11
-448.7771
21
1256.5828
31
0.0
0
LINE
8
0
10
-448.7771
20
1256.5828
30
0.0
11
1684.8179
21
-556.3972
31
0.0
0
LINE
8
0
10
1684.8179
20
-556.3972
30
0.0
11
-519.26404
21
1464.3741
31
0.0
0
LINE
8
0
10
-519.26404
20
1464.3741
30
0.0
11
1751.6802
21
-780.99817
31
0.0
0
LINE
8
0
10
1751.6802
20
-780.99817
30
0.0
11
-581.5863
21
1706.7644
31
0.0
0
LINE
8
0
10
-581.5863
20
1706.7644
30
0.0
11
1808.4358
21
-1042.1957
31
0.0
0
LINE
8
0
10
1808.4358
20
-1042.1957
30
0.0
11
-631.6454
21
1987.8097
31
0.0
0
LINE
8
0
10
-631.6454
20
1987.8097
30
0.0
11
1850.548
21
-1344.1538
31
0.0
0
LINE
8
0
10
1850.548
20
-1344.1538
30
0.0
11
-664.4354
21
2311.7666
31
0.0
0
LINE
8
0
10
-664.4354
20
2311.7666
30
0.0
11
1872.5026
21
-1691.2141
31
0.0
0
LINE
8
0
10
1872.5026
20
-1691.2141
30
0.0
11
-673.8972
21
2683.0474
31
0.0
0
LINE
8
0
10
-673.8972
20
2683.0474
30
0.0
11
1867.6553
21
-2087.841
31
0.0
0
LINE
8
0
10
1867.6553
20
-2087.841
30
0.0
11
-652.76025
21
3106.1492
31
0.0
0
LINE
8
0
10
-652.76025
20
3106.1492
30
0.0
11
1828.0769
21
-2538.5374
31
0.0
0
LINE
8
0
10
1828.0769
20
-2538.5374
30
0.0
11
-592.3561
21
3585.567
31
0.0
0
LINE
8
0
10
-592.3561
20
3585.567
30
0.0
11
1744.2885
21
-3047.769
31
0.0
0
LINE
8
0
10
1744.2885
20
-3047.769
30
0.0
11
-482.46167
21
4125.6587
31
0.0
0
LINE
8
0
10
-482.46167
20
4125.6587
30
0.0
11
1605.262
21
-3619.753
31
0.0
0
LINE
8
0
10
1605.262
20
-3619.753
30
0.0
11
-311.03168
21
4730.5146
31
0.0
0
LINE
8
0
10
-311.03168
20
4730.5146
30
0.0
11
1397.9548
21
-4258.379
31
0.0
0
LINE
8
0
10
1397.9548
20
-4258.379
30
0.0
11
-64.07568
21
5403.737
31
0.0
0
LINE
8
0
10
-64.07568
20
5403.737
30
0.0
11
1107.291
21
-4966.9277
31
0.0
0
LINE
8
0
10
1107.291
20
-4966.9277
30
0.0
11
274.6132
21
6148.225
31
0.0
0
LINE
8
0
10
274.6132
20
6148.225
30
0.0
11
715.8572
21
-5747.8413
31
0.0
0
LINE
8
0
10
715.8572
20
-5747.8413
30
0.0
11
723.849
21
6965.8926
31
0.0
0
LINE
8
0
10
723.849
20
6965.8926
30
0.0
11
203.49704
21
-6602.4043
31
0.0
0
LINE
8
0
10
203.49704
20
-6602.4043
30
0.0
11
1305.0632
21
7857.291
31
0.0
0
LINE
8
0
10
1305.0632
20
7857.291
30
0.0
11
-452.62366
21
-7530.3516
31
0.0
0
LINE
8
0
10
-452.62366
20
-7530.3516
30
0.0
11
2042.6592
21
8821.221
31
0.0
0
LINE
8
0
10
2042.6592
20
8821.221
30
0.0
11
-1278.6823
21
-8529.3955
31
0.0
0
LINE
8
0
10
-1278.6823
20
-8529.3955
30
0.0
11
2964.4817
21
9854.187
31
0.0
0
LINE
8
0
10
2964.4817
20
9854.187
30
0.0
11
-2304.0737
21
-9594.709
31
0.0
0
LINE
8
0
10
-2304.0737
20
-9594.709
30
0.0
11
4101.7085
21
10949.853
31
0.0
0
LINE
8
0
10
4101.7085
20
10949.853
30
0.0
11
-3561.877
21
-10718.266
31
0.0
0
LINE
8
0
10
-3561.877
20
-10718.266
30
0.0
11
5489.2305
21
12098.361
31
0.0
0
LINE
8
0
10
5489.2305
20
12098.361
30
0.0
11
-5089.0273
21
-11888.101
31
0.0
0
LINE
8
0
10
-5089.0273
20
-11888.101
30
0.0
11
7166.154
21
13285.39
31
0.0
0
LINE
8
0
10
7166.154
20
13285.39
30
0.0
11
-6926.299
21
-13087.537
31
0.0
0
LINE
8
0
10
-6926.299
20
-13087.537
30
0.0
11
9175.242
21
14491.529
31
0.0
0
LINE
8
0
10
9175.242
20
14491.529
30
0.0
11
-9119.252
21
-14293.768
31
0.0
0
LINE
8
0
10
-9119.252
20
-14293.768
30
0.0
11
11564.202
21
15690.604
31
0.0
0
LINE
8
0
10
11564.202
20
15690.604
30
0.0
11
-11716.887
21
-15477.463
31
0.0
0
LINE
8
0
10
-11716.887
20
-15477.463
30
0.0
11
14384.399
21
16849.129
31
0.0
0
LINE
8
0
10
14384.399
20
16849.129
30
0.0
11
-14773.348
21
-16600.377
31
0.0
0
LINE
8
0
10
-14773.348
20
-16600.377
30
0.0
11
17691.594
21
17924.479
31
0.0
0
LINE
8
0
10
17691.594
20
17924.479
30
0.0
11
-18346.205
21
-17614.924
31
0.0
0
LINE
8
0
10
-18346.205
20
-17614.924
30
0.0
11
21545.543
21
18863.38
31
0.0
0
LINE
8
0
10
21545.543
20
18863.38
30
0.0
11
-22497.09
21
-18461.84
31
0.0
0
LINE
8
0
10
-22497.09
20
-18461.84
30
0.0
11
26009.344
21
19600.492
31
0.0
0
LINE
8
0
10
26009.344
20
19600.492
30
0.0
11
-27291.01
21
-19068.426
31
0.0
0
LINE
8
0
10
-136.18542
20
86.90094
30
0.0
11
1398.2908
21
704.51843
31
0.0
0
LINE
8
0
10
1398.2908
20
704.51843
30
0.0
11
-264.22644
21
107.138855
31
0.0
0
LINE
8
0
10
-264.22644
20
107.138855
30
0.0
11
1534.1265
21
677.76636
31
0.0
0
LINE
8
0
10
1534.1265
20
677.76636
30
0.0
11
-408.1192
21
141.15714
31
0.0
0
LINE
8
0
10
-408.1192
20
141.15714
30
0.0
11
1686.3254
21
635.6686
31
0.0
0
LINE
8
0
10
1686.3254
20
635.6686
30
0.0
11
-568.85815
21
192.21529
31
0.0
0
LINE
8
0
10
-568.85815
20
192.21529
30
0.0
11
1855.8175
21
574.7059
31
0.0
0
LINE
8
0
10
1855.8175
20
574.7059
30
0.0
11
-747.29285
21
264.0976
31
0.0
0
LINE
8
0
10
-747.29285
20
264.0976
30
0.0
11
2043.357
21
490.80756
31
0.0
0
LINE
8
0
10
2043.357
20
490.80756
30
0.0
11
-944.0654
21
361.1894
31
0.0
0
LINE
8
0
10
-944.0654
20
361.1894
30
0.0
11
2249.4526
21
379.27267
31
0.0
0
LINE
8
0
10
2249.4526
20
379.27267
30
0.0
11
-1159.5295
21
488.51712
31
0.0
0
LINE
8
0
10
-1159.5295
20
488.51712
30
0.0
11
2474.2798
21
234.71098
31
0.0
0
LINE
8
0
10
2474.2798
20
234.71098
30
0.0
11
-1393.6554
21
651.84937
31
0.0
0
LINE
8
0
10
-1393.6554
20
651.84937
30
0.0
11
2717.5747
21
50.972656
31
0.0
0
LINE
8
0
10
2717.5747
20
50.972656
30
0.0
11
-1645.9133
21
857.73596
31
0.0
0
LINE
8
0
10
-1645.9133
20
857.73596
30
0.0
11
2978.508
21
-178.91125
31
0.0
0
LINE
8
0
10
2978.508
20
-178.91125
30
0.0
11
-1915.1387
21
1113.5808
31
0.0
0
LINE
8
0
10
-1915.1387
20
1113.5808
30
0.0
11
3255.5388
21
-462.79565
31
0.0
0
LINE
8
0
10
3255.5388
20
-462.79565
30
0.0
11
-2199.374
21
1427.695
31
0.0
0
LINE
8
0
10
-2199.374
20
1427.695
30
0.0
11
3546.2346
21
-809.494
31
0.0
0
LINE
8
0
10
3546.2346
20
-809.494
30
0.0
11
-2495.662
21
1809.406
31
0.0
0
LINE
8
0
10
-2495.662
20
1809.406
30
0.0
11
3847.0786
21
-1228.7994
31
0.0
0
LINE
8
0
10
3847.0786
20
-1228.7994
30
0.0
11
-2799.8442
21
2269.041
31
0.0
0
LINE
8
0
10
-2799.8442
20
2269.041
30
0.0
11
4153.211
21
-1731.5862
31
0.0
0
LINE
8
0
10
4153.211
20
-1731.5862
30
0.0
11
-3106.3384
21
2817.9312
31
0.0
0
LINE
8
0
10
-3106.3384
20
2817.9312
30
0.0
11
4458.217
21
-2329.7234
31
0.0
0
LINE
8
0
10
4458.217
20
-2329.7234
30
0.0
11
-3407.7556
21
3468.595
31
0.0
0
LINE
8
0
10
-3407.7556
20
3468.595
30
0.0
11
4753.7075
21
-3036.2727
31
0.0
0
LINE
8
0
10
4753.7075
20
-3036.2727
30
0.0
11
-3694.6714
21
4234.549
31
0.0
0
LINE
8
0
10
-3694.6714
20
4234.549
30
0.0
11
5029.113
21
-3865.2466
31
0.0
0
LINE
8
0
10
5029.113
20
-3865.2466
30
0.0
11
-3955.2231
21
5130.3516
31
0.0
0
LINE
8
0
10
-3955.2231
20
5130.3516
30
0.0
11
5271.0894
21
-4831.807
31
0.0
0
LINE
8
0
10
5271.0894
20
-4831.807
30
0.0
11
-4174.559
21
6171.6455
31
0.0
0
LINE
8
0
10
-4174.559
20
6171.6455
30
0.0
11
5463.2534
21
-5951.9487
31
0.0
0
LINE
8
0
10
5463.2534
20
-5951.9487
30
0.0
11
-4334.551
21
7374.8433
31
0.0
0
LINE
8
0
10
-4334.551
20
7374.8433
30
0.0
11
5585.6245
21
-7242.454
31
0.0
0
LINE
8
0
10
5585.6245
20
-7242.454
30
0.0
11
-4413.1973
21
8757.05
31
0.0
0
LINE
8
0
10
-4413.1973
20
8757.05
30
0.0
11
5613.8564
21
-8720.806
31
0.0
0
LINE
8
0
10
5613.8564
20
-8720.806
30
0.0
11
-4383.813
21
10335.942
31
0.0
0
LINE
8
0
10
-4383.813
20
10335.942
30
0.0
11
5518.9336
21
-10404.682
31
0.0
0
LINE
8
0
10
5518.9336
20
-10404.682
30
0.0
11
-4214.8086
21
12129.188
31
0.0
0
LINE
8
0
10
-4214.8086
20
12129.188
30
0.0
11
5266.277
21
-12311.738
31
0.0
0
LINE
8
0
10
5266.277
20
-12311.738
30
0.0
11
-3868.4053
21
14154.309
31
0.0
0
LINE
8
0
10
-3868.4053
20
14154.309
30
0.0
11
4815.265
21
-14459.018
31
0.0
0
LINE
8
0
10
4815.265
20
-14459.018
30
0.0
11
-3300.64
21
16427.818
31
0.0
0
LINE
8
0
10
-3300.64
20
16427.818
30
0.0
11
4117.5522
21
-16862.604
31
0.0
0
LINE
8
0
10
4117.5522
20
-16862.604
30
0.0
11
-2459.269
21
18964.943
31
0.0
0
LINE
8
0
10
-2459.269
20
18964.943
30
0.0
11
3117.448
21
-19536.45
31
0.0
0
LINE
8
0
10
3117.448
20
-19536.45
30
0.0
11
-1284.2958
21
21778.328
31
0.0
0
LINE
8
0
10
-1284.2958
20
21778.328
30
0.0
11
1750.5352
21
-22491.678
31
0.0
0
LINE
8
0
10
1750.5352
20
-22491.678
30
0.0
11
293.84933
21
24877.26
31
0.0
0
LINE
8
0
10
293.84933
20
24877.26
30
0.0
11
-58.456543
21
-25735.467
31
0.0
0
LINE
8
0
10
-58.456543
20
-25735.467
30
0.0
11
2355.0923
21
28266.322
31
0.0
0
LINE
8
0
10
2355.0923
20
28266.322
30
0.0
11
-2394.7075
21
-29269.45
31
0.0
0
LINE
8
0
10
-2394.7075
20
-29269.45
30
0.0
11
4990.7324
21
31943.861
31
0.0
0
LINE
8
0
10
4990.7324
20
31943.861
30
0.0
11
-5355.5903
21
-33088.19
31
0.0
0
LINE
8
0
10
300.83282
20
-341.95618
30
0.0
11
949.1498
21
1179.8037
31
0.0
0
LINE
8
0
10
949.1498
20
1179.8037
30
0.0
11
195.98395
21
-418.18457
31
0.0
0
LINE
8
0
10
195.98395
20
-418.18457
30
0.0
11
1064.1165
21
1256.9377
31
0.0
0
LINE
8
0
10
1064.1165
20
1256.9377
30
0.0
11
70.18109
21
-495.87708
31
0.0
0
LINE
8
0
10
70.18109
20
-495.87708
30
0.0
11
1201.5049
21
1334.7911
31
0.0
0
LINE
8
0
10
1201.5049
20
1334.7911
30
0.0
11
-79.58124
21
-573.43365
31
0.0
0
LINE
8
0
10
-79.58124
20
-573.43365
30
0.0
11
1364.461
21
1411.5331
31
0.0
0
LINE
8
0
10
1364.461
20
1411.5331
30
0.0
11
-256.5821
21
-648.7777
31
0.0
0
LINE
8
0
10
-256.5821
20
-648.7777
30
0.0
11
1556.3965
21
1484.8185
31
0.0
0
LINE
8
0
10
1556.3965
20
1484.8185
30
0.0
11
-464.3734
21
-719.2648
31
0.0
0
LINE
8
0
10
-464.3734
20
-719.2648
30
0.0
11
1780.9974
21
1551.6808
31
0.0
0
LINE
8
0
10
1780.9974
20
1551.6808
30
0.0
11
-706.7637
21
-781.58716
31
0.0
0
LINE
8
0
10
-706.7637
20
-781.58716
30
0.0
11
2042.195
21
1608.4368
31
0.0
0
LINE
8
0
10
2042.195
20
1608.4368
30
0.0
11
-987.80884
21
-831.64636
31
0.0
0
LINE
8
0
10
-987.80884
20
-831.64636
30
0.0
11
2344.1528
21
1650.5491
31
0.0
0
LINE
8
0
10
2344.1528
20
1650.5491
30
0.0
11
-1311.7659
21
-864.4365
31
0.0
0
LINE
8
0
10
-1311.7659
20
-864.4365
30
0.0
11
2691.2131
21
1672.5038
31
0.0
0
LINE
8
0
10
2691.2131
20
1672.5038
30
0.0
11
-1683.0515
21
-873.89
31
0.0
0
LINE
8
0
10
-1683.0515
20
-873.89
30
0.0
11
3087.84
21
1667.6569
31
0.0
0
LINE
8
0
10
3087.84
20
1667.6569
30
0.0
11
-2106.153
21
-852.7517
31
0.0
0
LINE
8
0
10
-2106.153
20
-852.7517
30
0.0
11
3538.541
21
1628.0676
31
0.0
0
LINE
8
0
10
3538.541
20
1628.0676
30
0.0
11
-2585.5615
21
-792.37024
31
0.0
0
LINE
8
0
10
-2585.5615
20
-792.37024
30
0.0
11
4047.764
21
1544.3038
31
0.0
0
LINE
8
0
10
4047.764
20
1544.3038
30
0.0
11
-3125.662
21
-682.4498
31
0.0
0
LINE
8
0
10
-3125.662
20
-682.4498
30
0.0
11
4619.756
21
1405.249
31
0.0
0
LINE
8
0
10
4619.756
20
1405.249
30
0.0
11
-3730.5176
21
-511.01794
31
0.0
0
LINE
8
0
10
-3730.5176
20
-511.01794
30
0.0
11
5258.3755
21
1197.9756
31
0.0
0
LINE
8
0
10
5258.3755
20
1197.9756
30
0.0
11
-4403.734
21
-264.09796
31
0.0
0
LINE
8
0
10
-4403.734
20
-264.09796
30
0.0
11
5966.9253
21
907.31494
31
0.0
0
LINE
8
0
10
5966.9253
20
907.31494
30
0.0
11
-5148.226
21
74.63147
31
0.0
0
LINE
8
0
10
-5148.226
20
74.63147
30
0.0
11
6747.8413
21
515.83765
31
0.0
0
LINE
8
0
10
6747.8413
20
515.83765
30
0.0
11
-5965.892
21
523.8699
31
0.0
0
LINE
8
0
10
-5965.892
20
523.8699
30
0.0
11
7602.4062
21
3.5282288
31
0.0
0
LINE
8
0
10
7602.4062
20
3.5282288
30
0.0
11
-6857.2944
21
1105.03
31
0.0
0
LINE
8
0
10
-6857.2944
20
1105.03
30
0.0
11
8530.349
21
-652.6489
31
0.0
0
LINE
8
0
10
8530.349
20
-652.6489
30
0.0
11
-7821.217
21
1842.6859
31
0.0
0
LINE
8
0
10
-7821.217
20
1842.6859
30
0.0
11
9529.39
21
-1478.7106
31
0.0
0
LINE
8
0
10
9529.39
20
-1478.7106
30
0.0
11
-8854.18
21
2764.5117
31
0.0
0
LINE
8
0
10
-8854.18
20
2764.5117
30
0.0
11
10594.722
21
-2504.029
31
0.0
0
LINE
8
0
10
10594.722
20
-2504.029
30
0.0
11
-9949.842
21
3901.742
31
0.0
0
LINE
8
0
10
-9949.842
20
3901.742
30
0.0
11
11718.284
21
-3761.8276
31
0.0
0
LINE
8
0
10
11718.284
20
-3761.8276
30
0.0
11
-11098.383
21
5289.178
31
0.0
0
LINE
8
0
10
-11098.383
20
5289.178
30
0.0
11
12888.125
21
-5288.973
31
0.0
0
LINE
8
0
10
12888.125
20
-5288.973
30
0.0
11
-12285.419
21
6966.096
31
0.0
0
LINE
8
0
10
-12285.419
20
6966.096
30
0.0
11
14087.571
21
-7126.2393
31
0.0
0
LINE
8
0
10
14087.571
20
-7126.2393
30
0.0
11
-13491.437
21
8975.394
31
0.0
0
LINE
8
0
10
-13491.437
20
8975.394
30
0.0
11
15293.811
21
-9319.186
31
0.0
0
LINE
8
0
10
15293.811
20
-9319.186
30
0.0
11
-14690.651
21
11364.134
31
0.0
0
LINE
8
0
10
-14690.651
20
11364.134
30
0.0
11
16477.33
21
-11917.059
31
0.0
0
LINE
8
0
10
16477.33
20
-11917.059
30
0.0
11
-15849.189
21
14184.326
31
0.0
0
LINE
8
0
10
-15849.189
20
14184.326
30
0.0
11
17600.21
21
-14973.53
31
0.0
0
LINE
8
0
10
17600.21
20
-14973.53
30
0.0
11
-16924.557
21
17491.516
31
0.0
0
LINE
8
0
10
-16924.557
20
17491.516
30
0.0
11
18615.008
21
-18546.125
31
0.0
0
LINE
8
0
10
18615.008
20
-18546.125
30
0.0
11
-17863.475
21
21345.46
31
0.0
0
LINE
8
0
10
-17863.475
20
21345.46
30
0.0
11
19461.943
21
-22697.004
31
0.0
0
LINE
8
0
10
19461.943
20
-22697.004
30
0.0
11
-18600.219
21
25809.553
31
0.0
0
LINE
8
0
10
-18600.219
20
25809.553
30
0.0
11
20068.55
21
-27490.922
31
0.0
0
LINE
8
0
10
913.099
20
-336.18542
30
0.0
11
295.48145
21
1198.2906
31
0.0
0
LINE
8
0
10
295.48145
20
1198.2906
30
0.0
11
892.86084
21
-464.22656
31
0.0
0
LINE
8
0
10
892.86084
20
-464.22656
30
0.0
11
322.23398
21
1334.1267
31
0.0
0
LINE
8
0
10
322.23398
20
1334.1267
30
0.0
11
858.8425
21
-608.11926
31
0.0
0
LINE
8
0
10
858.8425
20
-608.11926
30
0.0
11
364.3328
21
1486.3257
31
0.0
0
LINE
8
0
10
364.3328
20
1486.3257
30
0.0
11
807.78546
21
-768.8579
31
0.0
0
LINE
8
0
10
807.78546
20
-768.8579
30
0.0
11
425.29327
21
1655.8175
31
0.0
0
LINE
8
0
10
425.29327
20
1655.8175
30
0.0
11
735.9033
21
-947.2927
31
0.0
0
LINE
8
0
10
735.9033
20
-947.2927
30
0.0
11
509.19427
21
1843.357
31
0.0
0
LINE
8
0
10
509.19427
20
1843.357
30
0.0
11
638.8116
21
-1144.0653
31
0.0
0
LINE
8
0
10
638.8116
20
-1144.0653
30
0.0
11
620.72626
21
2049.4526
31
0.0
0
LINE
8
0
10
620.72626
20
2049.4526
30
0.0
11
511.484
21
-1359.5297
31
0.0
0
LINE
8
0
10
511.484
20
-1359.5297
30
0.0
11
765.28784
21
2274.28
31
0.0
0
LINE
8
0
10
765.28784
20
2274.28
30
0.0
11
348.1519
21
-1593.6555
31
0.0
0
LINE
8
0
10
348.1519
20
-1593.6555
30
0.0
11
949.026
21
2517.575
31
0.0
0
LINE
8
0
10
949.026
20
2517.575
30
0.0
11
142.2655
21
-1845.9136
31
0.0
0
LINE
8
0
10
142.2655
20
-1845.9136
30
0.0
11
1178.9187
21
2778.506
31
0.0
0
LINE
8
0
10
1178.9187
20
2778.506
30
0.0
11
-113.579346
21
-2115.1392
31
0.0
0
LINE
8
0
10
-113.579346
20
-2115.1392
30
0.0
11
1462.8042
21
3055.5361
31
0.0
0
LINE
8
0
10
1462.8042
20
3055.5361
30
0.0
11
-427.70386
21
-2399.3708
31
0.0
0
LINE
8
0
10
-427.70386
20
-2399.3708
30
0.0
11
1809.4808
21
3346.2397
31
0.0
0
LINE
8
0
10
1809.4808
20
3346.2397
30
0.0
11
-809.4159
21
-2695.6577
31
0.0
0
LINE
8
0
10
-809.4159
20
-2695.6577
30
0.0
11
2228.785
21
3647.086
31
0.0
0
LINE
8
0
10
2228.785
20
3647.086
30
0.0
11
-1269.0256
21
-2999.8525
31
0.0
0
LINE
8
0
10
-1269.0256
20
-2999.8525
30
0.0
11
2731.5703
21
3953.22
31
0.0
0
LINE
8
0
10
2731.5703
20
3953.22
30
0.0
11
-1817.9431
21
-3306.3303
31
0.0
0
LINE
8
0
10
-1817.9431
20
-3306.3303
30
0.0
11
3329.7358
21
4258.208
31
0.0
0
LINE
8
0
10
3329.7358
20
4258.208
30
0.0
11
-2468.6077
21
-3607.7458
31
0.0
0
LINE
8
0
10
-2468.6077
20
-3607.7458
30
0.0
11
4036.254
21
4553.7227
31
0.0
0
LINE
8
0
10
4036.254
20
4553.7227
30
0.0
11
-3234.53
21
-3894.6885
31
0.0
0
LINE
8
0
10
-3234.53
20
-3894.6885
30
0.0
11
4865.261
21
4829.0996
31
0.0
0
LINE
8
0
10
4865.261
20
4829.0996
30
0.0
11
-4130.3657
21
-4155.2085
31
0.0
0
LINE
8
0
10
-4130.3657
20
-4155.2085
30
0.0
11
5831.822
21
5071.0728
31
0.0
0
LINE
8
0
10
5831.822
20
5071.0728
30
0.0
11
-5171.661
21
-4374.5405
31
0.0
0
LINE
8
0
10
-5171.661
20
-4374.5405
30
0.0
11
6951.9272
21
5263.282
31
0.0
0
LINE
8
0
10
6951.9272
20
5263.282
30
0.0
11
-6374.822
21
-4534.582
31
0.0
0
LINE
8
0
10
-6374.822
20
-4534.582
30
0.0
11
8242.47
21
5385.6
31
0.0
0
LINE
8
0
10
8242.47
20
5385.6
30
0.0
11
-7757.0664
21
-4613.171
31
0.0
0
LINE
8
0
10
-7757.0664
20
-4613.171
30
0.0
11
9720.821
21
5413.8276
31
0.0
0
LINE
8
0
10
9720.821
20
5413.8276
30
0.0
11
-9335.959
21
-4583.7812
31
0.0
0
LINE
8
0
10
-9335.959
20
-4583.7812
30
0.0
11
11404.659
21
5318.982
31
0.0
0
LINE
8
0
10
11404.659
20
5318.982
30
0.0
11
-11129.239
21
-4414.6816
31
0.0
0
LINE
8
0
10
-11129.239
20
-4414.6816
30
0.0
11
13311.718
21
5066.3335
31
0.0
0
LINE
8
0
10
13311.718
20
5066.3335
30
0.0
11
-13154.288
21
-4068.4663
31
0.0
0
LINE
8
0
10
-13154.288
20
-4068.4663
30
0.0
11
15458.998
21
4615.3315
31
0.0
0
LINE
8
0
10
15458.998
20
4615.3315
30
0.0
11
-15427.86
21
-3500.4668
31
0.0
0
LINE
8
0
10
-15427.86
20
-3500.4668
30
0.0
11
17862.588
21
3917.6292
31
0.0
0
LINE
8
0
10
17862.588
20
3917.6292
30
0.0
11
-17964.932
21
-2659.3516
31
0.0
0
LINE
8
0
10
-17964.932
20
-2659.3516
30
0.0
11
20536.438
21
2917.5366
31
0.0
0
LINE
8
0
10
20536.438
20
2917.5366
30
0.0
11
-20778.32
21
-1484.3911
31
0.0
0
LINE
8
0
10
-20778.32
20
-1484.3911
30
0.0
11
23491.69
21
1550.2878
31
0.0
0
LINE
8
0
10
23491.69
20
1550.2878
30
0.0
11
-23877.258
21
93.740295
31
0.0
0
LINE
8
0
10
-23877.258
20
93.740295
30
0.0
11
26735.459
21
-258.73895
31
0.0
0
LINE
8
0
10
26735.459
20
-258.73895
30
0.0
11
-27266.328
21
2154.968
31
0.0
0
LINE
8
0
10
-27266.328
20
2154.968
30
0.0
11
30269.463
21
-2594.5754
31
0.0
0
LINE
8
0
10
30269.463
20
-2594.5754
30
0.0
11
-30943.88
21
4790.592
31
0.0
0
LINE
8
0
10
-30943.88
20
4790.592
30
0.0
11
34088.22
21
-5555.4414
31
0.0
0
LINE
8
0
10
1341.956
20
100.83258
30
0.0
11
-179.80365
21
749.15
31
0.0
0
LINE
8
0
10
-179.80365
20
749.15
30
0.0
11
1418.1846
21
-4.0162964
31
0.0
0
LINE
8
0
10
1418.1846
20
-4.0162964
30
0.0
11
-256.93762
21
864.11676
31
0.0
0
LINE
8
0
10
-256.93762
20
864.11676
30
0.0
11
1495.8765
21
-129.82
31
0.0
0
LINE
8
0
10
1495.8765
20
-129.82
30
0.0
11
-334.78918
21
1001.5079
31
0.0
0
LINE
8
0
10
-334.78918
20
1001.5079
30
0.0
11
1573.4329
21
-279.5824
31
0.0
0
LINE
8
0
10
1573.4329
20
-279.5824
30
0.0
11
-411.5321
21
1164.4624
31
0.0
0
LINE
8
0
10
-411.5321
20
1164.4624
30
0.0
11
1648.775
21
-456.5854
31
0.0
0
LINE
8
0
10
1648.775
20
-456.5854
30
0.0
11
-484.81543
21
1356.4
31
0.0
0
LINE
8
0
10
-484.81543
20
1356.4
30
0.0
11
1719.2654
21
-664.3727
31
0.0
0
LINE
8
0
10
1719.2654
20
-664.3727
30
0.0
11
-551.68164
21
1580.9967
31
0.0
0
LINE
8
0
10
-551.68164
20
1580.9967
30
0.0
11
1781.588
21
-906.76294
31
0.0
0
LINE
8
0
10
1781.588
20
-906.76294
30
0.0
11
-608.43774
21
1842.1941
31
0.0
0
LINE
8
0
10
-608.43774
20
1842.1941
30
0.0
11
1831.6414
21
-1187.8127
31
0.0
0
LINE
8
0
10
1831.6414
20
-1187.8127
30
0.0
11
-650.5502
21
2144.1523
31
0.0
0
LINE
8
0
10
-650.5502
20
2144.1523
30
0.0
11
1864.4305
21
-1511.7699
31
0.0
0
LINE
8
0
10
1864.4305
20
-1511.7699
30
0.0
11
-672.5051
21
2491.2124
31
0.0
0
LINE
8
0
10
-672.5051
20
2491.2124
30
0.0
11
1873.8915
21
-1883.0508
31
0.0
0
LINE
8
0
10
1873.8915
20
-1883.0508
30
0.0
11
-667.65845
21
2887.8394
31
0.0
0
LINE
8
0
10
-667.65845
20
2887.8394
30
0.0
11
1852.7637
21
-2306.1475
31
0.0
0
LINE
8
0
10
1852.7637
20
-2306.1475
30
0.0
11
-628.0582
21
3338.5452
31
0.0
0
LINE
8
0
10
-628.0582
20
3338.5452
30
0.0
11
1792.3601
21
-2785.5654
31
0.0
0
LINE
8
0
10
1792.3601
20
-2785.5654
30
0.0
11
-544.29297
21
3847.7673
31
0.0
0
LINE
8
0
10
-544.29297
20
3847.7673
30
0.0
11
1682.438
21
-3325.6655
31
0.0
0
LINE
8
0
10
1682.438
20
-3325.6655
30
0.0
11
-405.26703
21
4419.752
31
0.0
0
LINE
8
0
10
-405.26703
20
4419.752
30
0.0
11
1511.0371
21
-3930.5137
31
0.0
0
LINE
8
0
10
1511.0371
20
-3930.5137
30
0.0
11
-197.96088
21
5058.378
31
0.0
0
LINE
8
0
10
-197.96088
20
5058.378
30
0.0
11
1264.082
21
-4603.7363
31
0.0
0
LINE
8
0
10
1264.082
20
-4603.7363
30
0.0
11
92.70206
21
5766.927
31
0.0
0
LINE
8
0
10
92.70206
20
5766.927
30
0.0
11
925.3503
21
-5348.227
31
0.0
0
LINE
8
0
10
925.3503
20
-5348.227
30
0.0
11
484.13498
21
6547.841
31
0.0
0
LINE
8
0
10
484.13498
20
6547.841
30
0.0
11
476.1594
21
-6165.893
31
0.0
0
LINE
8
0
10
476.1594
20
-6165.893
30
0.0
11
996.494
21
7402.405
31
0.0
0
LINE
8
0
10
996.494
20
7402.405
30
0.0
11
-105.05377
21
-7057.292
31
0.0
0
LINE
8
0
10
-105.05377
20
-7057.292
30
0.0
11
1652.6741
21
8330.345
31
0.0
0
LINE
8
0
10
1652.6741
20
8330.345
30
0.0
11
-842.64844
21
-8021.2227
31
0.0
0
LINE
8
0
10
-842.64844
20
-8021.2227
30
0.0
11
2478.671
21
9329.398
31
0.0
0
LINE
8
0
10
2478.671
20
9329.398
30
0.0
11
-1764.4697
21
-9054.19
31
0.0
0
LINE
8
0
10
-1764.4697
20
-9054.19
30
0.0
11
3504.061
21
10394.713
31
0.0
0
LINE
8
0
10
3504.061
20
10394.713
30
0.0
11
-2901.6948
21
-10149.857
31
0.0
0
LINE
8
0
10
-2901.6948
20
-10149.857
30
0.0
11
4761.7783
21
11518.303
31
0.0
0
LINE
8
0
10
4761.7783
20
11518.303
30
0.0
11
-4289.3047
21
-11298.33
31
0.0
0
LINE
8
0
10
-4289.3047
20
-11298.33
30
0.0
11
6288.918
21
12688.15
31
0.0
0
LINE
8
0
10
6288.918
20
12688.15
30
0.0
11
-5966.2354
21
-12485.348
31
0.0
0
LINE
8
0
10
-5966.2354
20
-12485.348
30
0.0
11
8126.1787
21
13887.6045
31
0.0
0
LINE
8
0
10
8126.1787
20
13887.6045
30
0.0
11
-7975.332
21
-13691.475
31
0.0
0
LINE
8
0
10
-7975.332
20
-13691.475
30
0.0
11
10319.121
21
15093.8545
31
0.0
0
LINE
8
0
10
10319.121
20
15093.8545
30
0.0
11
-10364.299
21
-14890.534
31
0.0
0
LINE
8
0
10
-10364.299
20
-14890.534
30
0.0
11
12916.987
21
16277.385
31
0.0
0
LINE
8
0
10
12916.987
20
16277.385
30
0.0
11
-13184.252
21
-16049.252
31
0.0
0
LINE
8
0
10
-13184.252
20
-16049.252
30
0.0
11
15973.455
21
17400.28
31
0.0
0
LINE
8
0
10
15973.455
20
17400.28
30
0.0
11
-16491.438
21
-17124.633
31
0.0
0
LINE
8
0
10
-16491.438
20
-17124.633
30
0.0
11
19546.32
21
18414.805
31
0.0
0
LINE
8
0
10
19546.32
20
18414.805
30
0.0
11
-20345.38
21
-18063.566
31
0.0
0
LINE
8
0
10
-20345.38
20
-18063.566
30
0.0
11
23697.209
21
19261.693
31
0.0
0
LINE
8
0
10
23697.209
20
19261.693
30
0.0
11
-24809.467
21
-18800.33
31
0.0
0
LINE
8
0
10
-24809.467
20
-18800.33
30
0.0
11
28490.836
21
19868.676
31
0.0
0
LINE
8
0
10
1336.1854
20
713.09894
30
0.0
11
-173.08447
21
36.214417
31
0.0
0
LINE
8
0
10
-173.08447
20
36.214417
30
0.0
11
1410.4241
21
819.36597
31
0.0
0
LINE
8
0
10
1410.4241
20
819.36597
30
0.0
11
-248.03735
21
-80.186615
31
0.0
0
LINE
8
0
10
-248.03735
20
-80.186615
30
0.0
11
1485.7317
21
946.61053
31
0.0
0
LINE
8
0
10
1485.7317
20
946.61053
30
0.0
11
-323.2871
21
-219.01813
31
0.0
0
LINE
8
0
10
-323.2871
20
-219.01813
30
0.0
11
1560.4525
21
1097.8071
31
0.0
0
LINE
8
0
10
1560.4525
20
1097.8071
30
0.0
11
-396.94537
21
-383.38995
31
0.0
0
LINE
8
0
10
-396.94537
20
-383.38995
30
0.0
11
1632.4471
21
1276.1965
31
0.0
0
LINE
8
0
10
1632.4471
20
1276.1965
30
0.0
11
-466.60022
21
-576.67255
31
0.0
0
LINE
8
0
10
-466.60022
20
-576.67255
30
0.0
11
1699.0033
21
1485.2815
31
0.0
0
LINE
8
0
10
1699.0033
20
1485.2815
30
0.0
11
-529.21533
21
-802.496
31
0.0
0
LINE
8
0
10
-529.21533
20
-802.496
30
0.0
11
1756.7457
21
1728.8035
31
0.0
0
LINE
8
0
10
1756.7457
20
1728.8035
30
0.0
11
-581.03784
21
-1064.7168
31
0.0
0
LINE
8
0
10
-581.03784
20
-1064.7168
30
0.0
11
1801.4924
21
2010.747
31
0.0
0
LINE
8
0
10
1801.4924
20
2010.747
30
0.0
11
-617.4509
21
-1367.415
31
0.0
0
LINE
8
0
10
-617.4509
20
-1367.415
30
0.0
11
1828.1693
21
2335.2646
31
0.0
0
LINE
8
0
10
1828.1693
20
2335.2646
30
0.0
11
-632.85986
21
-1714.8274
31
0.0
0
LINE
8
0
10
-632.85986
20
-1714.8274
30
0.0
11
1830.63
21
2706.6577
31
0.0
0
LINE
8
0
10
1830.63
20
2706.6577
30
0.0
11
-620.53784
21
-2111.2927
31
0.0
0
LINE
8
0
10
-620.53784
20
-2111.2927
30
0.0
11
1801.5201
21
3129.286
31
0.0
0
LINE
8
0
10
1801.5201
20
3129.286
30
0.0
11
-572.4602
21
-2561.1672
31
0.0
0
LINE
8
0
10
-572.4602
20
-2561.1672
30
0.0
11
1732.113
21
3607.471
31
0.0
0
LINE
8
0
10
1732.113
20
3607.471
30
0.0
11
-479.1128
21
-3068.7207
31
0.0
0
LINE
8
0
10
-479.1128
20
-3068.7207
30
0.0
11
1612.0603
21
4145.3955
31
0.0
0
LINE
8
0
10
1612.0603
20
4145.3955
30
0.0
11
-329.3321
21
-3637.9832
31
0.0
0
LINE
8
0
10
-329.3321
20
-3637.9832
30
0.0
11
1429.2623
21
4746.9136
31
0.0
0
LINE
8
0
10
1429.2623
20
4746.9136
30
0.0
11
-110.062805
21
-4272.5835
31
0.0
0
LINE
8
0
10
-110.062805
20
-4272.5835
30
0.0
11
1169.7018
21
5415.3584
31
0.0
0
LINE
8
0
10
1169.7018
20
5415.3584
30
0.0
11
193.89651
21
-4975.5312
31
0.0
0
LINE
8
0
10
193.89651
20
-4975.5312
30
0.0
11
817.005
21
6153.3364
31
0.0
0
LINE
8
0
10
817.005
20
6153.3364
30
0.0
11
600.01807
21
-5748.9326
31
0.0
0
LINE
8
0
10
600.01807
20
-5748.9326
30
0.0
11
352.44025
21
6962.3926
31
0.0
0
LINE
8
0
10
352.44025
20
6962.3926
30
0.0
11
1128.3379
21
-6593.693
31
0.0
0
LINE
8
0
10
1128.3379
20
-6593.693
30
0.0
11
-245.4123
21
7842.6865
31
0.0
0
LINE
8
0
10
-245.4123
20
7842.6865
30
0.0
11
1801.8824
21
-7509.107
31
0.0
0
LINE
8
0
10
1801.8824
20
-7509.107
30
0.0
11
-1001.0989
21
8792.539
31
0.0
0
LINE
8
0
10
-1001.0989
20
8792.539
30
0.0
11
2646.621
21
-8492.406
31
0.0
0
LINE
8
0
10
2646.621
20
-8492.406
30
0.0
11
-1942.1521
21
9807.97
31
0.0
0
LINE
8
0
10
-1942.1521
20
9807.97
30
0.0
11
3691.8303
21
-9538.231
31
0.0
0
LINE
8
0
10
3691.8303
20
-9538.231
30
0.0
11
-3099.8162
21
10882.019
31
0.0
0
LINE
8
0
10
-3099.8162
20
10882.019
30
0.0
11
4970.575
21
-10637.8955
31
0.0
0
LINE
8
0
10
4970.575
20
-10637.8955
30
0.0
11
-4508.7266
21
12004.187
31
0.0
0
LINE
8
0
10
-4508.7266
20
12004.187
30
0.0
11
6519.491
21
-11778.755
31
0.0
0
LINE
8
0
10
6519.491
20
-11778.755
30
0.0
11
-6207.7124
21
13159.416
31
0.0
0
LINE
8
0
10
-6207.7124
20
13159.416
30
0.0
11
8379.234
21
-12943.252
31
0.0
0
LINE
8
0
10
8379.234
20
-12943.252
30
0.0
11
-8239.376
21
14327.361
31
0.0
0
LINE
8
0
10
-8239.376
20
14327.361
30
0.0
11
10594.316
21
-14108.077
31
0.0
0
LINE
8
0
10
10594.316
20
-14108.077
30
0.0
11
-10650.519
21
15481.184
31
0.0
0
LINE
8
0
10
-10650.519
20
15481.184
30
0.0
11
13214.026
21
-15242.438
31
0.0
0
LINE
8
0
10
13214.026
20
-15242.438
30
0.0
11
-13492.056
21
16586.336
31
0.0
0
LINE
8
0
10
-13492.056
20
16586.336
30
0.0
11
16291.112
21
-16307.533
31
0.0
0
LINE
8
0
10
16291.112
20
-16307.533
30
0.0
11
-16818.936
21
17599.148
31
0.0
0
LINE
8
0
10
-16818.936
20
17599.148
30
0.0
11
19882.46
21
-17254.541
31
0.0
0
LINE
8
0
10
19882.46
20
-17254.541
30
0.0
11
-20689.625
21
18465.55
31
0.0
0
LINE
8
0
10
-20689.625
20
18465.55
30
0.0
11
24048.574
21
-18023.05
31
0.0
0
LINE
8
0
10
24048.574
20
-18023.05
30
0.0
11
-25166.805
21
19118.055
31
0.0
0
LINE
8
0
10
-25166.805
20
19118.055
30
0.0
11
28853.078
21
-18539.154
31
0.0
0
LINE
8
0
10
899.16736
20
1141.956
30
0.0
11
310.58215
21
-403.88855
31
0.0
0
LINE
8
0
10
310.58215
20
-403.88855
30
0.0
11
876.51953
21
1269.593
31
0.0
0
LINE
8
0
10
876.51953
20
1269.593
30
0.0
11
339.8906
21
-539.1962
31
0.0
0
LINE
8
0
10
339.8906
20
-539.1962
30
0.0
11
839.7946
21
1412.8191
31
0.0
0
LINE
8
0
10
839.7946
20
1412.8191
30
0.0
11
384.84967
21
-690.5746
31
0.0
0
LINE
8
0
10
384.84967
20
-690.5746
30
0.0
11
785.71796
21
1572.5667
31
0.0
0
LINE
8
0
10
785.71796
20
1572.5667
30
0.0
11
448.99393
21
-858.8872
31
0.0
0
LINE
8
0
10
448.99393
20
-858.8872
30
0.0
11
710.4854
21
1749.6149
31
0.0
0
LINE
8
0
10
710.4854
20
1749.6149
30
0.0
11
536.412
21
-1044.8121
31
0.0
0
LINE
8
0
10
536.412
20
-1044.8121
30
0.0
11
609.70514
21
1944.5226
31
0.0
0
LINE
8
0
10
609.70514
20
1944.5226
30
0.0
11
651.8145
21
-1248.7689
31
0.0
0
LINE
8
0
10
651.8145
20
-1248.7689
30
0.0
11
478.33286
21
2157.5483
31
0.0
0
LINE
8
0
10
478.33286
20
2157.5483
30
0.0
11
800.5884
21
-1470.8314
31
0.0
0
LINE
8
0
10
800.5884
20
-1470.8314
30
0.0
11
310.61652
21
2388.554
31
0.0
0
LINE
8
0
10
310.61652
20
2388.554
30
0.0
11
988.88
21
-1710.6196
31
0.0
0
LINE
8
0
10
988.88
20
-1710.6196
30
0.0
11
100.01166
21
2636.8865
31
0.0
0
LINE
8
0
10
100.01166
20
2636.8865
30
0.0
11
1223.6504
21
-1967.1711
31
0.0
0
LINE
8
0
10
1223.6504
20
-1967.1711
30
0.0
11
-160.86255
21
2901.2412
31
0.0
0
LINE
8
0
10
-160.86255
20
2901.2412
30
0.0
11
1512.7073
21
-2238.8005
31
0.0
0
LINE
8
0
10
1512.7073
20
-2238.8005
30
0.0
11
-480.28894
21
3179.5012
31
0.0
0
LINE
8
0
10
-480.28894
20
3179.5012
30
0.0
11
1864.8132
21
-2522.913
31
0.0
0
LINE
8
0
10
1864.8132
20
-2522.913
30
0.0
11
-867.5065
21
3468.546
31
0.0
0
LINE
8
0
10
-867.5065
20
3468.546
30
0.0
11
2289.6904
21
-2815.813
31
0.0
0
LINE
8
0
10
2289.6904
20
-2815.813
30
0.0
11
-1332.7676
21
3764.0251
31
0.0
0
LINE
8
0
10
-1332.7676
20
3764.0251
30
0.0
11
2798.1292
21
-3112.434
31
0.0
0
LINE
8
0
10
2798.1292
20
-3112.434
30
0.0
11
-1887.3352
21
4060.1226
31
0.0
0
LINE
8
0
10
-1887.3352
20
4060.1226
30
0.0
11
3401.9336
21
-3406.0994
31
0.0
0
LINE
8
0
10
3401.9336
20
-3406.0994
30
0.0
11
-2543.5627
21
4349.2266
31
0.0
0
LINE
8
0
10
-2543.5627
20
4349.2266
30
0.0
11
4113.925
21
-3688.225
31
0.0
0
LINE
8
0
10
4113.925
20
-3688.225
30
0.0
11
-3314.7866
21
4621.66
31
0.0
0
LINE
8
0
10
-3314.7866
20
4621.66
30
0.0
11
4947.9414
21
-3947.9624
31
0.0
0
LINE
8
0
10
4947.9414
20
-3947.9624
30
0.0
11
-4215.3394
21
4865.287
31
0.0
0
LINE
8
0
10
-4215.3394
20
4865.287
30
0.0
11
5918.889
21
-4171.6846
31
0.0
0
LINE
8
0
10
5918.889
20
-4171.6846
30
0.0
11
-5260.5815
21
5064.9644
31
0.0
0
LINE
8
0
10
-5260.5815
20
5064.9644
30
0.0
11
7042.4526
21
-4342.7095
31
0.0
0
LINE
8
0
10
7042.4526
20
-4342.7095
30
0.0
11
-6466.58
21
5202.258
31
0.0
0
LINE
8
0
10
-6466.58
20
5202.258
30
0.0
11
8335.035
21
-4440.743
31
0.0
0
LINE
8
0
10
8335.035
20
-4440.743
30
0.0
11
-7850.0234
21
5254.847
31
0.0
0
LINE
8
0
10
-7850.0234
20
5254.847
30
0.0
11
9813.655
21
-4441.1157
31
0.0
0
LINE
8
0
10
9813.655
20
-4441.1157
30
0.0
11
-9428.082
21
5195.719
31
0.0
0
LINE
8
0
10
-9428.082
20
5195.719
30
0.0
11
11495.444
21
-4314.483
31
0.0
0
LINE
8
0
10
11495.444
20
-4314.483
30
0.0
11
-11217.824
21
4992.957
31
0.0
0
LINE
8
0
10
-11217.824
20
4992.957
30
0.0
11
13397.401
21
-4025.9395
31
0.0
0
LINE
8
0
10
13397.401
20
-4025.9395
30
0.0
11
-13236.059
21
4608.459
31
0.0
0
LINE
8
0
10
-13236.059
20
4608.459
30
0.0
11
15535.802
21
-3534.5496
31
0.0
0
LINE
8
0
10
15535.802
20
-3534.5496
30
0.0
11
-15498.522
21
3997.7122
31
0.0
0
LINE
8
0
10
-15498.522
20
3997.7122
30
0.0
11
17925.816
21
-2791.6729
31
0.0
0
LINE
8
0
10
17925.816
20
-2791.6729
30
0.0
11
-18019.332
21
3108.6487
31
0.0
0
LINE
8
0
10
-18019.332
20
3108.6487
30
0.0
11
20580.342
21
-1741.3665
31
0.0
0
LINE
8
0
10
20580.342
20
-1741.3665
30
0.0
11
-20810.059
21
1880.8328
31
0.0
0
LINE
8
0
10
-20810.059
20
1880.8328
30
0.0
11
23509.303
21
-318.6657
31
0.0
0
LINE
8
0
10
23509.303
20
-318.6657
30
0.0
11
-23878.682
21
244.90573
31
0.0
0
LINE
8
0
10
-23878.682
20
244.90573
30
0.0
11
26718.402
21
1551.1721
31
0.0
0
LINE
8
0
10
26718.402
20
1551.1721
30
0.0
11
-27228.305
21
-1879.8264
31
0.0
0
LINE
8
0
10
-27228.305
20
-1879.8264
30
0.0
11
30207.703
21
3953.6475
31
0.0
0
LINE
8
0
10
30207.703
20
3953.6475
30
0.0
11
-30855.533
21
-4584.2896
31
0.0
0
LINE
8
0
10
-30855.533
20
-4584.2896
30
0.0
11
33970.035
21
6985.5044
31
0.0
0
LINE
8
0
10
286.90106
20
1136.1855
30
0.0
11
963.7857
21
-373.08435
31
0.0
0
LINE
8
0
10
963.7857
20
-373.08435
30
0.0
11
180.63385
21
1210.4241
31
0.0
0
LINE
8
0
10
180.63385
20
1210.4241
30
0.0
11
1080.1864
21
-448.03748
31
0.0
0
LINE
8
0
10
1080.1864
20
-448.03748
30
0.0
11
53.38971
21
1285.7319
31
0.0
0
LINE
8
0
10
53.38971
20
1285.7319
30
0.0
11
1219.0187
21
-523.28674
31
0.0
0
LINE
8
0
10
1219.0187
20
-523.28674
30
0.0
11
-97.80774
21
1360.452
31
0.0
0
LINE
8
0
10
-97.80774
20
1360.452
30
0.0
11
1383.3906
21
-596.9449
31
0.0
0
LINE
8
0
10
1383.3906
20
-596.9449
30
0.0
11
-276.1972
21
1432.4467
31
0.0
0
LINE
8
0
10
-276.1972
20
1432.4467
30
0.0
11
1576.6732
21
-666.5996
31
0.0
0
LINE
8
0
10
1576.6732
20
-666.5996
30
0.0
11
-485.28015
21
1499.0046
31
0.0
0
LINE
8
0
10
-485.28015
20
1499.0046
30
0.0
11
1802.4966
21
-729.2146
31
0.0
0
LINE
8
0
10
1802.4966
20
-729.2146
30
0.0
11
-728.8087
21
1556.7397
31
0.0
0
LINE
8
0
10
-728.8087
20
1556.7397
30
0.0
11
2064.7222
21
-781.0314
31
0.0
0
LINE
8
0
10
2064.7222
20
-781.0314
30
0.0
11
-1010.7478
21
1601.4915
31
0.0
0
LINE
8
0
10
-1010.7478
20
1601.4915
30
0.0
11
2367.4204
21
-817.443
31
0.0
0
LINE
8
0
10
2367.4204
20
-817.443
30
0.0
11
-1335.2701
21
1628.1608
31
0.0
0
LINE
8
0
10
-1335.2701
20
1628.1608
30
0.0
11
2714.833
21
-832.8506
31
0.0
0
LINE
8
0
10
2714.833
20
-832.8506
30
0.0
11
-1706.6633
21
1630.6198
31
0.0
0
LINE
8
0
10
-1706.6633
20
1630.6198
30
0.0
11
3111.2979
21
-820.5266
31
0.0
0
LINE
8
0
10
3111.2979
20
-820.5266
30
0.0
11
-2129.291
21
1601.508
31
0.0
0
LINE
8
0
10
-2129.291
20
1601.508
30
0.0
11
3561.1724
21
-772.4469
31
0.0
0
LINE
8
0
10
3561.1724
20
-772.4469
30
0.0
11
-2607.476
21
1532.0988
31
0.0
0
LINE
8
0
10
-2607.476
20
1532.0988
30
0.0
11
4068.7253
21
-679.0974
31
0.0
0
LINE
8
0
10
4068.7253
20
-679.0974
30
0.0
11
-3145.4001
21
1412.0435
31
0.0
0
LINE
8
0
10
-3145.4001
20
1412.0435
30
0.0
11
4637.9873
21
-529.3141
31
0.0
0
LINE
8
0
10
4637.9873
20
-529.3141
30
0.0
11
-3746.9175
21
1229.243
31
0.0
0
LINE
8
0
10
-3746.9175
20
1229.243
30
0.0
11
5272.5923
21
-310.00635
31
0.0
0
LINE
8
0
10
5272.5923
20
-310.00635
30
0.0
11
-4415.365
21
969.6412
31
0.0
0
LINE
8
0
10
-4415.365
20
969.6412
30
0.0
11
5975.536
21
-6.0385437
31
0.0
0
LINE
8
0
10
5975.536
20
-6.0385437
30
0.0
11
-5153.337
21
616.97943
31
0.0
0
LINE
8
0
10
-5153.337
20
616.97943
30
0.0
11
6748.9326
21
400.04544
31
0.0
0
LINE
8
0
10
6748.9326
20
400.04544
30
0.0
11
-5962.3916
21
152.41104
31
0.0
0
LINE
8
0
10
-5962.3916
20
152.41104
30
0.0
11
7593.6865
21
928.42236
31
0.0
0
LINE
8
0
10
7593.6865
20
928.42236
30
0.0
11
-6842.6763
21
-445.5022
31
0.0
0
LINE
8
0
10
-6842.6763
20
-445.5022
30
0.0
11
8509.092
21
1601.978
31
0.0
0
LINE
8
0
10
8509.092
20
1601.978
30
0.0
11
-7792.532
21
-1201.1364
31
0.0
0
LINE
8
0
10
-7792.532
20
-1201.1364
30
0.0
11
9492.397
21
2446.6606
31
0.0
0
LINE
8
0
10
9492.397
20
2446.6606
30
0.0
11
-8807.938
21
-2142.2656
31
0.0
0
LINE
8
0
10
-8807.938
20
-2142.2656
30
0.0
11
10538.193
21
3491.9502
31
0.0
0
LINE
8
0
10
10538.193
20
3491.9502
30
0.0
11
-9881.974
21
-3299.9426
31
0.0
0
LINE
8
0
10
-9881.974
20
-3299.9426
30
0.0
11
11637.843
21
4770.7085
31
0.0
0
LINE
8
0
10
11637.843
20
4770.7085
30
0.0
11
-11004.085
21
-4708.955
31
0.0
0
LINE
8
0
10
-11004.085
20
-4708.955
30
0.0
11
12778.729
21
6319.545
31
0.0
0
LINE
8
0
10
12778.729
20
6319.545
30
0.0
11
-12159.385
21
-6407.769
31
0.0
0
LINE
8
0
10
-12159.385
20
-6407.769
30
0.0
11
13943.218
21
8179.293
31
0.0
0
LINE
8
0
10
13943.218
20
8179.293
30
0.0
11
-13327.322
21
-8439.439
31
0.0
0
LINE
8
0
10
-13327.322
20
-8439.439
30
0.0
11
15108.033
21
10394.38
31
0.0
0
LINE
8
0
10
15108.033
20
10394.38
30
0.0
11
-14481.135
21
-10850.586
31
0.0
0
LINE
8
0
10
-14481.135
20
-10850.586
30
0.0
11
16242.382
21
13014.096
31
0.0
0
LINE
8
0
10
16242.382
20
13014.096
30
0.0
11
-15586.488
21
-13691.88
31
0.0
0
LINE
8
0
10
-15586.488
20
-13691.88
30
0.0
11
17307.46
21
16091.1875
31
0.0
0
LINE
8
0
10
17307.46
20
16091.1875
30
0.0
11
-16599.336
21
-17018.748
31
0.0
0
LINE
8
0
10
-16599.336
20
-17018.748
30
0.0
11
18254.455
21
19682.541
31
0.0
0
LINE
8
0
10
18254.455
20
19682.541
30
0.0
11
-17465.457
21
-20889.705
31
0.0
0
LINE
8
0
10
-17465.457
20
-20889.705
30
0.0
11
19023.305
21
23848.375
31
0.0
0
LINE
8
0
10
19023.305
20
23848.375
30
0.0
11
-18117.938
21
-25366.889
31
0.0
0
LINE
8
0
10
-18117.938
20
-25366.889
30
0.0
11
19539.459
21
28652.873
31
0.0
0
LINE
8
0
10
-141.95612
20
699.1673
30
0.0
11
1403.8887
21
110.582245
31
0.0
0
LINE
8
0
10
1403.8887
20
110.582245
30
0.0
11
-269.59302
21
676.5196
31
0.0
0
LINE
8
0
10
-269.59302
20
676.5196
30
0.0
11
1539.1962
21
139.89029
31
0.0
0
LINE
8
0
10
1539.1962
20
139.89029
30
0.0
11
-412.81897
21
639.7949
31
0.0
0
LINE
8
0
10
-412.81897
20
639.7949
30
0.0
11
1690.5745
21
184.84932
31
0.0
0
LINE
8
0
10
1690.5745
20
184.84932
30
0.0
11
-572.5665
21
585.7183
31
0.0
0
LINE
8
0
10
-572.5665
20
585.7183
30
0.0
11
1858.8873
21
248.99472
31
0.0
0
LINE
8
0
10
1858.8873
20
248.99472
30
0.0
11
-749.615
21
510.48456
31
0.0
0
LINE
8
0
10
-749.615
20
510.48456
30
0.0
11
2044.8121
21
336.4129
31
0.0
0
LINE
8
0
10
2044.8121
20
336.4129
30
0.0
11
-944.5226
21
409.70416
31
0.0
0
LINE
8
0
10
-944.5226
20
409.70416
30
0.0
11
2248.769
21
451.81558
31
0.0
0
LINE
8
0
10
2248.769
20
451.81558
30
0.0
11
-1157.5485
21
278.33173
31
0.0
0
LINE
8
0
10
-1157.5485
20
278.33173
30
0.0
11
2470.8306
21
600.5967
31
0.0
0
LINE
8
0
10
2470.8306
20
600.5967
30
0.0
11
-1388.5527
21
110.607666
31
0.0
0
LINE
8
0
10
-1388.5527
20
110.607666
30
0.0
11
2710.618
21
788.8894
31
0.0
0
LINE
8
0
10
2710.618
20
788.8894
30
0.0
11
-1636.884
21
-99.99829
31
0.0
0
LINE
8
0
10
-1636.884
20
-99.99829
30
0.0
11
2967.1707
21
1023.6519
31
0.0
0
LINE
8
0
10
2967.1707
20
1023.6519
30
0.0
11
-1901.2378
21
-360.87366
31
0.0
0
LINE
8
0
10
-1901.2378
20
-360.87366
30
0.0
11
3238.7966
21
1312.7191
31
0.0
0
LINE
8
0
10
3238.7966
20
1312.7191
30
0.0
11
-2179.4963
21
-680.3014
31
0.0
0
LINE
8
0
10
-2179.4963
20
-680.3014
30
0.0
11
3522.9075
21
1664.8264
31
0.0
0
LINE
8
0
10
3522.9075
20
1664.8264
30
0.0
11
-2468.5396
21
-1067.5201
31
0.0
0
LINE
8
0
10
-2468.5396
20
-1067.5201
30
0.0
11
3815.8054
21
2089.7048
31
0.0
0
LINE
8
0
10
3815.8054
20
2089.7048
30
0.0
11
-2764.0166
21
-1532.7826
31
0.0
0
LINE
8
0
10
-2764.0166
20
-1532.7826
30
0.0
11
4112.407
21
2598.1716
31
0.0
0
LINE
8
0
10
4112.407
20
2598.1716
30
0.0
11
-3060.0925
21
-2087.3796
31
0.0
0
LINE
8
0
10
-3060.0925
20
-2087.3796
30
0.0
11
4406.0654
21
3201.98
31
0.0
0
LINE
8
0
10
4406.0654
20
3201.98
30
0.0
11
-3349.213
21
-2743.5803
31
0.0
0
LINE
8
0
10
-3349.213
20
-2743.5803
30
0.0
11
4688.21
21
3913.9434
31
0.0
0
LINE
8
0
10
4688.21
20
3913.9434
30
0.0
11
-3621.6426
21
-3514.8057
31
0.0
0
LINE
8
0
10
-3621.6426
20
-3514.8057
30
0.0
11
4947.91
21
4747.9937
31
0.0
0
LINE
8
0
10
4947.91
20
4747.9937
30
0.0
11
-3865.229
21
-4415.3936
31
0.0
0
LINE
8
0
10
-3865.229
20
-4415.3936
30
0.0
11
5171.62
21
5718.9443
31
0.0
0
LINE
8
0
10
5171.62
20
5718.9443
30
0.0
11
-4064.938
21
-5460.602
31
0.0
0
LINE
8
0
10
-4064.938
20
-5460.602
30
0.0
11
5342.681
21
6842.4736
31
0.0
0
LINE
8
0
10
5342.681
20
6842.4736
30
0.0
11
-4202.2266
21
-6666.601
31
0.0
0
LINE
8
0
10
-4202.2266
20
-6666.601
30
0.0
11
5440.65
21
8135.0933
31
0.0
0
LINE
8
0
10
5440.65
20
8135.0933
30
0.0
11
-4254.745
21
-8050.082
31
0.0
0
LINE
8
0
10
-4254.745
20
-8050.082
30
0.0
11
5441.0044
21
9613.714
31
0.0
0
LINE
8
0
10
5441.0044
20
9613.714
30
0.0
11
-4195.6743
21
-9628.104
31
0.0
0
LINE
8
0
10
-4195.6743
20
-9628.104
30
0.0
11
5314.4346
21
11295.466
31
0.0
0
LINE
8
0
10
5314.4346
20
11295.466
30
0.0
11
-3992.8145
21
-11417.88
31
0.0
0
LINE
8
0
10
-3992.8145
20
-11417.88
30
0.0
11
5025.8823
21
13197.422
31
0.0
0
LINE
8
0
10
5025.8823
20
13197.422
30
0.0
11
-3608.397
21
-13436.077
31
0.0
0
LINE
8
0
10
-3608.397
20
-13436.077
30
0.0
11
4534.255
21
15335.88
31
0.0
0
LINE
8
0
10
4534.255
20
15335.88
30
0.0
11
-2997.6406
21
-15698.539
31
0.0
0
LINE
8
0
10
-2997.6406
20
-15698.539
30
0.0
11
3791.5957
21
17725.83
31
0.0
0
LINE
8
0
10
3791.5957
20
17725.83
30
0.0
11
-2108.8499
21
-18219.303
31
0.0
0
LINE
8
0
10
-2108.8499
20
-18219.303
30
0.0
11
2741.2776
21
20380.352
31
0.0
0
LINE
8
0
10
2741.2776
20
20380.352
30
0.0
11
-881.0642
21
-21010.043
31
0.0
0
LINE
8
0
10
-881.0642
20
-21010.043
30
0.0
11
1318.5637
21
23309.305
31
0.0
0
LINE
8
0
10
1318.5637
20
23309.305
30
0.0
11
755.2033
21
-24078.682
31
0.0
0
LINE
8
0
10
755.2033
20
-24078.682
30
0.0
11
-551.2883
21
26518.398
31
0.0
0
LINE
8
0
10
-551.2883
20
26518.398
30
0.0
11
2879.9504
21
-27428.295
31
0.0
0
LINE
8
0
10
2879.9504
20
-27428.295
30
0.0
11
-2953.3276
21
30007.742
31
0.0
0
LINE
8
0
10
-2953.3276
20
30007.742
30
0.0
11
5584.4297
21
-31055.512
31
0.0
0
LINE
8
0
10
5584.4297
20
-31055.512
30
0.0
11
-5985.653
21
33770.004
31
0.0
0
LINE
8
0
10
-136.18542
20
86.90094
30
0.0
11
1373.0842
21
763.78577
31
0.0
0
LINE
8
0
10
1373.0842
20
763.78577
30
0.0
11
-210.42401
21
-19.366089
31
0.0
0
LINE
8
0
10
-210.42401
20
-19.366089
30
0.0
11
1448.0374
21
880.1865
31
0.0
0
LINE
8
0
10
1448.0374
20
880.1865
30
0.0
11
-285.73163
21
-146.61084
31
0.0
0
LINE
8
0
10
-285.73163
20
-146.61084
30
0.0
11
1523.2869
21
1019.01843
31
0.0
0
LINE
8
0
10
1523.2869
20
1019.01843
30
0.0
11
-360.45294
21
-297.80652
31
0.0
0
LINE
8
0
10
-360.45294
20
-297.80652
30
0.0
11
1596.9458
21
1183.3894
31
0.0
0
LINE
8
0
10
1596.9458
20
1183.3894
30
0.0
11
-432.44604
21
-476.1978
31
0.0
0
LINE
8
0
10
-432.44604
20
-476.1978
30
0.0
11
1666.599
21
1376.674
31
0.0
0
LINE
8
0
10
1666.599
20
1376.674
30
0.0
11
-499.0039
21
-685.2809
31
0.0
0
LINE
8
0
10
-499.0039
20
-685.2809
30
0.0
11
1729.2162
21
1602.4951
31
0.0
0
LINE
8
0
10
1729.2162
20
1602.4951
30
0.0
11
-556.7389
21
-928.80945
31
0.0
0
LINE
8
0
10
-556.7389
20
-928.80945
30
0.0
11
1781.0304
21
1864.7228
31
0.0
0
LINE
8
0
10
1781.0304
20
1864.7228
30
0.0
11
-601.49036
21
-1210.7484
31
0.0
0
LINE
8
0
10
-601.49036
20
-1210.7484
30
0.0
11
1817.4419
21
2167.4214
31
0.0
0
LINE
8
0
10
1817.4419
20
2167.4214
30
0.0
11
-628.1669
21
-1535.2661
31
0.0
0
LINE
8
0
10
-628.1669
20
-1535.2661
30
0.0
11
1832.8492
21
2514.8337
31
0.0
0
LINE
8
0
10
1832.8492
20
2514.8337
30
0.0
11
-630.6271
21
-1906.6594
31
0.0
0
LINE
8
0
10
-630.6271
20
-1906.6594
30
0.0
11
1820.525
21
2911.2988
31
0.0
0
LINE
8
0
10
1820.525
20
2911.2988
30
0.0
11
-601.5167
21
-2329.2874
31
0.0
0
LINE
8
0
10
-601.5167
20
-2329.2874
30
0.0
11
1772.4451
21
3361.173
31
0.0
0
LINE
8
0
10
1772.4451
20
3361.173
30
0.0
11
-532.0845
21
-2807.481
31
0.0
0
LINE
8
0
10
-532.0845
20
-2807.481
30
0.0
11
1679.1084
21
3868.722
31
0.0
0
LINE
8
0
10
1679.1084
20
3868.722
30
0.0
11
-412.05542
21
-3345.397
31
0.0
0
LINE
8
0
10
-412.05542
20
-3345.397
30
0.0
11
1529.3269
21
4437.9844
31
0.0
0
LINE
8
0
10
1529.3269
20
4437.9844
30
0.0
11
-229.28998
21
-3946.9087
31
0.0
0
LINE
8
0
10
-229.28998
20
-3946.9087
30
0.0
11
1310.0569
21
5072.5845
31
0.0
0
LINE
8
0
10
1310.0569
20
5072.5845
30
0.0
11
30.304626
21
-4615.359
31
0.0
0
LINE
8
0
10
30.304626
20
-4615.359
30
0.0
11
1006.0966
21
5775.5312
31
0.0
0
LINE
8
0
10
1006.0966
20
5775.5312
30
0.0
11
383.00232
21
-5353.3364
31
0.0
0
LINE
8
0
10
383.00232
20
-5353.3364
30
0.0
11
599.97406
21
6548.9326
31
0.0
0
LINE
8
0
10
599.97406
20
6548.9326
30
0.0
11
847.51807
21
-6162.3945
31
0.0
0
LINE
8
0
10
847.51807
20
-6162.3945
30
0.0
11
71.6532
21
7393.692
31
0.0
0
LINE
8
0
10
71.6532
20
7393.692
30
0.0
11
1445.4218
21
-7042.6855
31
0.0
0
LINE
8
0
10
1445.4218
20
-7042.6855
30
0.0
11
-601.8926
21
8309.105
31
0.0
0
LINE
8
0
10
-601.8926
20
8309.105
30
0.0
11
2201.1099
21
-7992.537
31
0.0
0
LINE
8
0
10
2201.1099
20
-7992.537
30
0.0
11
-1446.5646
21
9292.42
31
0.0
0
LINE
8
0
10
-1446.5646
20
9292.42
30
0.0
11
3142.164
21
-9007.967
31
0.0
0
LINE
8
0
10
3142.164
20
-9007.967
30
0.0
11
-2491.843
21
10338.227
31
0.0
0
LINE
8
0
10
-2491.843
20
10338.227
30
0.0
11
4299.829
21
-10082.014
31
0.0
0
LINE
8
0
10
4299.829
20
-10082.014
30
0.0
11
-3770.5894
21
11437.89
31
0.0
0
LINE
8
0
10
-3770.5894
20
11437.89
30
0.0
11
5708.83
21
-11204.141
31
0.0
0
LINE
8
0
10
5708.83
20
-11204.141
30
0.0
11
-5319.4136
21
12578.792
31
0.0
0
LINE
8
0
10
-5319.4136
20
12578.792
30
0.0
11
7407.826
21
-12359.3545
31
0.0
0
LINE
8
0
10
7407.826
20
-12359.3545
30
0.0
11
-7179.1494
21
13743.301
31
0.0
0
LINE
8
0
10
-7179.1494
20
13743.301
30
0.0
11
9439.288
21
-13527.417
31
0.0
0
LINE
8
0
10
9439.288
20
-13527.417
30
0.0
11
-9394.445
21
14907.988
31
0.0
0
LINE
8
0
10
-9394.445
20
14907.988
30
0.0
11
11850.422
21
-14681.256
31
0.0
0
LINE
8
0
10
11850.422
20
-14681.256
30
0.0
11
-12014.165
21
16042.326
31
0.0
0
LINE
8
0
10
-12014.165
20
16042.326
30
0.0
11
14691.952
21
-15786.426
31
0.0
0
LINE
8
0
10
14691.952
20
-15786.426
30
0.0
11
-15091.261
21
17107.39
31
0.0
0
LINE
8
0
10
-15091.261
20
17107.39
30
0.0
11
18018.826
21
-16799.258
31
0.0
0
LINE
8
0
10
18018.826
20
-16799.258
30
0.0
11
-18682.352
21
18054.664
31
0.0
0
LINE
8
0
10
-18682.352
20
18054.664
30
0.0
11
21889.785
21
-17665.361
31
0.0
0
LINE
8
0
10
21889.785
20
-17665.361
30
0.0
11
-22848.457
21
18823.201
31
0.0
0
LINE
8
0
10
-22848.457
20
18823.201
30
0.0
11
26366.97
21
-18317.824
31
0.0
0
LINE
8
0
10
26366.97
20
-18317.824
30
0.0
11
-27652.959
21
19339.332
31
0.0
0
LINE
8
0
10
300.83282
20
-341.95618
30
0.0
11
889.4178
21
1203.8885
31
0.0
0
LINE
8
0
10
889.4178
20
1203.8885
30
0.0
11
323.48035
21
-469.59296
31
0.0
0
LINE
8
0
10
323.48035
20
-469.59296
30
0.0
11
860.11
21
1339.196
31
0.0
0
LINE
8
0
10
860.11
20
1339.196
30
0.0
11
360.20474
21
-612.8189
31
0.0
0
LINE
8
0
10
360.20474
20
-612.8189
30
0.0
11
815.15
21
1490.5746
31
0.0
0
LINE
8
0
10
815.15
20
1490.5746
30
0.0
11
414.2813
21
-772.5665
31
0.0
0
LINE
8
0
10
414.2813
20
-772.5665
30
0.0
11
751.00684
21
1658.8871
31
0.0
0
LINE
8
0
10
751.00684
20
1658.8871
30
0.0
11
489.51114
21
-949.6146
31
0.0
0
LINE
8
0
10
489.51114
20
-949.6146
30
0.0
11
663.5917
21
1844.8119
31
0.0
0
LINE
8
0
10
663.5917
20
1844.8119
30
0.0
11
590.2939
21
-1144.5226
31
0.0
0
LINE
8
0
10
590.2939
20
-1144.5226
30
0.0
11
548.1865
21
2048.769
31
0.0
0
LINE
8
0
10
548.1865
20
2048.769
30
0.0
11
721.66943
21
-1357.5483
31
0.0
0
LINE
8
0
10
721.66943
20
-1357.5483
30
0.0
11
399.40924
21
2270.831
31
0.0
0
LINE
8
0
10
399.40924
20
2270.831
30
0.0
11
889.386
21
-1588.5537
31
0.0
0
LINE
8
0
10
889.386
20
-1588.5537
30
0.0
11
211.11734
21
2510.6191
31
0.0
0
LINE
8
0
10
211.11734
20
2510.6191
30
0.0
11
1099.9912
21
-1836.8857
31
0.0
0
LINE
8
0
10
1099.9912
20
-1836.8857
30
0.0
11
-23.64441
21
2767.1726
31
0.0
0
LINE
8
0
10
-23.64441
20
2767.1726
30
0.0
11
1360.8657
21
-2101.2405
31
0.0
0
LINE
8
0
10
1360.8657
20
-2101.2405
30
0.0
11
-312.70062
21
3038.8027
31
0.0
0
LINE
8
0
10
-312.70062
20
3038.8027
30
0.0
11
1680.2925
21
-2379.4998
31
0.0
0
LINE
8
0
10
1680.2925
20
-2379.4998
30
0.0
11
-664.8059
21
3322.9163
31
0.0
0
LINE
8
0
10
-664.8059
20
3322.9163
30
0.0
11
2067.5103
21
-2668.5442
31
0.0
0
LINE
8
0
10
2067.5103
20
-2668.5442
30
0.0
11
-1089.6946
21
3615.811
31
0.0
0
LINE
8
0
10
-1089.6946
20
3615.811
30
0.0
11
2532.746
21
-2964.0374
31
0.0
0
LINE
8
0
10
2532.746
20
-2964.0374
30
0.0
11
-1598.1338
21
3912.4312
31
0.0
0
LINE
8
0
10
-1598.1338
20
3912.4312
30
0.0
11
3087.34
21
-3260.1194
31
0.0
0
LINE
8
0
10
3087.34
20
-3260.1194
30
0.0
11
-2201.9387
21
4206.0957
31
0.0
0
LINE
8
0
10
-2201.9387
20
4206.0957
30
0.0
11
3743.5679
21
-3549.223
31
0.0
0
LINE
8
0
10
3743.5679
20
-3549.223
30
0.0
11
-2913.9302
21
4488.2207
31
0.0
0
LINE
8
0
10
-2913.9302
20
4488.2207
30
0.0
11
4514.76
21
-3821.6846
31
0.0
0
LINE
8
0
10
4514.76
20
-3821.6846
30
0.0
11
-3747.9468
21
4747.957
31
0.0
0
LINE
8
0
10
-3747.9468
20
4747.957
30
0.0
11
5415.345
21
-4065.2812
31
0.0
0
LINE
8
0
10
5415.345
20
-4065.2812
30
0.0
11
-4718.895
21
4971.6777
31
0.0
0
LINE
8
0
10
-4718.895
20
4971.6777
30
0.0
11
6460.5874
21
-4264.957
31
0.0
0
LINE
8
0
10
6460.5874
20
-4264.957
30
0.0
11
-5842.459
21
5142.7017
31
0.0
0
LINE
8
0
10
-5842.459
20
5142.7017
30
0.0
11
7666.55
21
-4402.3027
31
0.0
0
LINE
8
0
10
7666.55
20
-4402.3027
30
0.0
11
-7135.041
21
5240.7334
31
0.0
0
LINE
8
0
10
-7135.041
20
5240.7334
30
0.0
11
9050.029
21
-4454.8364
31
0.0
0
LINE
8
0
10
9050.029
20
-4454.8364
30
0.0
11
-8613.662
21
5241.104
31
0.0
0
LINE
8
0
10
-8613.662
20
5241.104
30
0.0
11
10628.088
21
-4395.7065
31
0.0
0
LINE
8
0
10
10628.088
20
-4395.7065
30
0.0
11
-10295.45
21
5114.469
31
0.0
0
LINE
8
0
10
-10295.45
20
5114.469
30
0.0
11
12417.83
21
-4192.942
31
0.0
0
LINE
8
0
10
12417.83
20
-4192.942
30
0.0
11
-12197.374
21
4826.0205
31
0.0
0
LINE
8
0
10
-12197.374
20
4826.0205
30
0.0
11
14436.031
21
-3808.5469
31
0.0
0
LINE
8
0
10
14436.031
20
-3808.5469
30
0.0
11
-14335.836
21
4334.4165
31
0.0
0
LINE
8
0
10
-14335.836
20
4334.4165
30
0.0
11
16698.5
21
-3197.8145
31
0.0
0
LINE
8
0
10
16698.5
20
-3197.8145
30
0.0
11
-16725.844
21
3591.5186
31
0.0
0
LINE
8
0
10
-16725.844
20
3591.5186
30
0.0
11
19219.314
21
-2308.767
31
0.0
0
LINE
8
0
10
19219.314
20
-2308.767
30
0.0
11
-19380.361
21
2541.1885
31
0.0
0
LINE
8
0
10
-19380.361
20
2541.1885
30
0.0
11
22010.049
21
-1080.9689
31
0.0
0
LINE
8
0
10
22010.049
20
-1080.9689
30
0.0
11
-22309.299
21
1118.811
31
0.0
0
LINE
8
0
10
-22309.299
20
1118.811
30
0.0
11
25078.68
21
555.3124
31
0.0
0
LINE
8
0
10
25078.68
20
555.3124
30
0.0
11
-25518.41
21
-751.0062
31
0.0
0
LINE
8
0
10
-25518.41
20
-751.0062
30
0.0
11
28428.285
21
2680.0745
31
0.0
0
LINE
8
0
10
28428.285
20
2680.0745
30
0.0
11
-29007.727
21
-3153.4595
31
0.0
0
LINE
8
0
10
-29007.727
20
-3153.4595
30
0.0
11
32055.564
21
5384.09
31
0.0
0
LINE
8
0
10
32055.564
20
5384.09
30
0.0
11
-32769.973
21
-6185.802
31
0.0
0
LINE
8
0
10
913.099
20
-336.18542
30
0.0
11
236.21423
21
1173.0844
31
0.0
0
LINE
8
0
10
236.21423
20
1173.0844
30
0.0
11
1019.3661
21
-410.424
31
0.0
0
LINE
8
0
10
1019.3661
20
-410.424
30
0.0
11
119.813354
21
1248.0374
31
0.0
0
LINE
8
0
10
119.813354
20
1248.0374
30
0.0
11
1146.611
21
-485.7315
31
0.0
0
LINE
8
0
10
1146.611
20
-485.7315
30
0.0
11
-19.019897
21
1323.2859
31
0.0
0
LINE
8
0
10
-19.019897
20
1323.2859
30
0.0
11
1297.808
21
-560.45184
31
0.0
0
LINE
8
0
10
1297.808
20
-560.45184
30
0.0
11
-183.38995
21
1396.9453
31
0.0
0
LINE
8
0
10
-183.38995
20
1396.9453
30
0.0
11
1476.1965
21
-632.44714
31
0.0
0
LINE
8
0
10
1476.1965
20
-632.44714
30
0.0
11
-376.67255
21
1466.6002
31
0.0
0
LINE
8
0
10
-376.67255
20
1466.6002
30
0.0
11
1685.2815
21
-699.0033
31
0.0
0
LINE
8
0
10
1685.2815
20
-699.0033
30
0.0
11
-602.496
21
1529.2153
31
0.0
0
LINE
8
0
10
-602.496
20
1529.2153
30
0.0
11
1928.8058
21
-756.74316
31
0.0
0
LINE
8
0
10
1928.8058
20
-756.74316
30
0.0
11
-864.72363
21
1581.0294
31
0.0
0
LINE
8
0
10
-864.72363
20
1581.0294
30
0.0
11
2210.7493
21
-801.4894
31
0.0
0
LINE
8
0
10
2210.7493
20
-801.4894
30
0.0
11
-1167.422
21
1617.4408
31
0.0
0
LINE
8
0
10
-1167.422
20
1617.4408
30
0.0
11
2535.267
21
-828.16565
31
0.0
0
LINE
8
0
10
2535.267
20
-828.16565
30
0.0
11
-1514.8345
21
1632.8478
31
0.0
0
LINE
8
0
10
-1514.8345
20
1632.8478
30
0.0
11
2906.6602
21
-830.6256
31
0.0
0
LINE
8
0
10
2906.6602
20
-830.6256
30
0.0
11
-1911.2996
21
1620.5234
31
0.0
0
LINE
8
0
10
-1911.2996
20
1620.5234
30
0.0
11
3329.288
21
-801.5149
31
0.0
0
LINE
8
0
10
3329.288
20
-801.5149
30
0.0
11
-2361.1738
21
1572.4431
31
0.0
0
LINE
8
0
10
-2361.1738
20
1572.4431
30
0.0
11
3807.4775
21
-732.0946
31
0.0
0
LINE
8
0
10
3807.4775
20
-732.0946
30
0.0
11
-2868.7185
21
1479.1194
31
0.0
0
LINE
8
0
10
-2868.7185
20
1479.1194
30
0.0
11
4345.4014
21
-612.0388
31
0.0
0
LINE
8
0
10
4345.4014
20
-612.0388
30
0.0
11
-3437.9812
21
1329.3398
31
0.0
0
LINE
8
0
10
-3437.9812
20
1329.3398
30
0.0
11
4946.912
21
-429.27057
31
0.0
0
LINE
8
0
10
4946.912
20
-429.27057
30
0.0
11
-4072.588
21
1110.0359
31
0.0
0
LINE
8
0
10
-4072.588
20
1110.0359
30
0.0
11
5615.3574
21
-169.7113
31
0.0
0
LINE
8
0
10
5615.3574
20
-169.7113
30
0.0
11
-4775.5303
21
806.11365
31
0.0
0
LINE
8
0
10
-4775.5303
20
806.11365
30
0.0
11
6353.3354
21
182.98404
31
0.0
0
LINE
8
0
10
6353.3354
20
182.98404
30
0.0
11
-5548.9326
21
399.9936
31
0.0
0
LINE
8
0
10
-5548.9326
20
399.9936
30
0.0
11
7162.393
21
647.5473
31
0.0
0
LINE
8
0
10
7162.393
20
647.5473
30
0.0
11
-6393.69
21
-128.37799
31
0.0
0
LINE
8
0
10
-6393.69
20
-128.37799
30
0.0
11
8042.6885
21
1245.3982
31
0.0
0
LINE
8
0
10
8042.6885
20
1245.3982
30
0.0
11
-7309.109
21
-801.8673
31
0.0
0
LINE
8
0
10
-7309.109
20
-801.8673
30
0.0
11
8992.542
21
2001.083
31
0.0
0
LINE
8
0
10
8992.542
20
2001.083
30
0.0
11
-8292.411
21
-1646.6042
31
0.0
0
LINE
8
0
10
-8292.411
20
-1646.6042
30
0.0
11
10007.955
21
2942.2058
31
0.0
0
LINE
8
0
10
10007.955
20
2942.2058
30
0.0
11
-9338.213
21
-2691.887
31
0.0
0
LINE
8
0
10
-9338.213
20
-2691.887
30
0.0
11
11082.025
21
4099.796
31
0.0
0
LINE
8
0
10
11082.025
20
4099.796
30
0.0
11
-10437.903
21
-3970.5537
31
0.0
0
LINE
8
0
10
-10437.903
20
-3970.5537
30
0.0
11
12204.157
21
5508.793
31
0.0
0
LINE
8
0
10
12204.157
20
5508.793
30
0.0
11
-11578.766
21
-5519.468
31
0.0
0
LINE
8
0
10
-11578.766
20
-5519.468
30
0.0
11
13359.429
21
7207.688
31
0.0
0
LINE
8
0
10
13359.429
20
7207.688
30
0.0
11
-12743.267
21
-7379.2085
31
0.0
0
LINE
8
0
10
-12743.267
20
-7379.2085
30
0.0
11
14527.378
21
9239.351
31
0.0
0
LINE
8
0
10
14527.378
20
9239.351
30
0.0
11
-13907.944
21
-9594.51
31
0.0
0
LINE
8
0
10
-13907.944
20
-9594.51
30
0.0
11
15681.205
21
11650.489
31
0.0
0
LINE
8
0
10
15681.205
20
11650.489
30
0.0
11
-15042.463
21
-12213.996
31
0.0
0
LINE
8
0
10
-15042.463
20
-12213.996
30
0.0
11
16786.363
21
14492.024
31
0.0
0
LINE
8
0
10
16786.363
20
14492.024
30
0.0
11
-16107.561
21
-15291.081
31
0.0
0
LINE
8
0
10
-16107.561
20
-15291.081
30
0.0
11
17799.18
21
17818.902
31
0.0
0
LINE
8
0
10
17799.18
20
17818.902
30
0.0
11
-17054.578
21
-18882.43
31
0.0
0
LINE
8
0
10
-17054.578
20
-18882.43
30
0.0
11
18665.592
21
21689.592
31
0.0
0
LINE
8
0
10
18665.592
20
21689.592
30
0.0
11
-17823.096
21
-23048.54
31
0.0
0
LINE
8
0
10
-17823.096
20
-23048.54
30
0.0
11
19318.104
21
26166.77
31
0.0
0
LINE
8
0
10
19318.104
20
26166.77
30
0.0
11
-18339.207
21
-27853.043
31
0.0
0
LINE
8
0
10
1341.956
20
100.83258
30
0.0
11
-203.88861
21
689.4177
31
0.0
0
LINE
8
0
10
-203.88861
20
689.4177
30
0.0
11
1469.593
21
123.480316
31
0.0
0
LINE
8
0
10
1469.593
20
123.480316
30
0.0
11
-339.19617
21
660.1096
31
0.0
0
LINE
8
0
10
-339.19617
20
660.1096
30
0.0
11
1612.8191
21
160.20587
31
0.0
0
LINE
8
0
10
1612.8191
20
160.20587
30
0.0
11
-490.5747
21
615.1493
31
0.0
0
LINE
8
0
10
-490.5747
20
615.1493
30
0.0
11
1772.5667
21
214.28204
31
0.0
0
LINE
8
0
10
1772.5667
20
214.28204
30
0.0
11
-658.8872
21
551.0061
31
0.0
0
LINE
8
0
10
-658.8872
20
551.0061
30
0.0
11
1949.6149
21
289.5146
31
0.0
0
LINE
8
0
10
1949.6149
20
289.5146
30
0.0
11
-844.81213
21
463.588
31
0.0
0
LINE
8
0
10
-844.81213
20
463.588
30
0.0
11
2144.5225
21
390.29486
31
0.0
0
LINE
8
0
10
2144.5225
20
390.29486
30
0.0
11
-1048.7688
21
348.1823
31
0.0
0
LINE
8
0
10
-1048.7688
20
348.1823
30
0.0
11
2357.5483
21
521.67053
31
0.0
0
LINE
8
0
10
2357.5483
20
521.67053
30
0.0
11
-1270.8302
21
199.40091
31
0.0
0
LINE
8
0
10
-1270.8302
20
199.40091
30
0.0
11
2588.5522
21
689.3949
31
0.0
0
LINE
8
0
10
2588.5522
20
689.3949
30
0.0
11
-1510.6172
21
11.10791
31
0.0
0
LINE
8
0
10
-1510.6172
20
11.10791
30
0.0
11
2836.8835
21
900.00116
31
0.0
0
LINE
8
0
10
2836.8835
20
900.00116
30
0.0
11
-1767.1699
21
-223.6549
31
0.0
0
LINE
8
0
10
-1767.1699
20
-223.6549
30
0.0
11
3101.237
21
1160.877
31
0.0
0
LINE
8
0
10
3101.237
20
1160.877
30
0.0
11
-2038.7986
21
-512.7124
31
0.0
0
LINE
8
0
10
-2038.7986
20
-512.7124
30
0.0
11
3379.495
21
1480.3049
31
0.0
0
LINE
8
0
10
3379.495
20
1480.3049
30
0.0
11
-2322.9106
21
-864.819
31
0.0
0
LINE
8
0
10
-2322.9106
20
-864.819
30
0.0
11
3668.5376
21
1867.524
31
0.0
0
LINE
8
0
10
3668.5376
20
1867.524
30
0.0
11
-2615.8035
21
-1289.7089
31
0.0
0
LINE
8
0
10
-2615.8035
20
-1289.7089
30
0.0
11
3964.0288
21
2332.7612
31
0.0
0
LINE
8
0
10
3964.0288
20
2332.7612
30
0.0
11
-2912.4216
21
-1798.1494
31
0.0
0
LINE
8
0
10
-2912.4216
20
-1798.1494
30
0.0
11
4260.1084
21
2887.3564
31
0.0
0
LINE
8
0
10
4260.1084
20
2887.3564
30
0.0
11
-3206.1047
21
-2401.9268
31
0.0
0
LINE
8
0
10
-3206.1047
20
-2401.9268
30
0.0
11
4549.233
21
3543.5552
31
0.0
0
LINE
8
0
10
4549.233
20
3543.5552
30
0.0
11
-3488.2317
21
-3113.9172
31
0.0
0
LINE
8
0
10
-3488.2317
20
-3113.9172
30
0.0
11
4821.6675
21
4314.779
31
0.0
0
LINE
8
0
10
4821.6675
20
4314.779
30
0.0
11
-3747.9375
21
-3947.9663
31
0.0
0
LINE
8
0
10
-3747.9375
20
-3947.9663
30
0.0
11
5065.2964
21
5215.331
31
0.0
0
LINE
8
0
10
5065.2964
20
5215.331
30
0.0
11
-3971.6948
21
-4918.8804
31
0.0
0
LINE
8
0
10
-3971.6948
20
-4918.8804
30
0.0
11
5264.9756
21
6260.5728
31
0.0
0
LINE
8
0
10
5264.9756
20
6260.5728
30
0.0
11
-4142.722
21
-6042.444
31
0.0
0
LINE
8
0
10
-4142.722
20
-6042.444
30
0.0
11
5402.271
21
7466.5713
31
0.0
0
LINE
8
0
10
5402.271
20
7466.5713
30
0.0
11
-4240.699
21
-7335.0625
31
0.0
0
LINE
8
0
10
-4240.699
20
-7335.0625
30
0.0
11
5454.8633
21
8850.014
31
0.0
0
LINE
8
0
10
5454.8633
20
8850.014
30
0.0
11
-4241.1333
21
-8813.646
31
0.0
0
LINE
8
0
10
-4241.1333
20
-8813.646
30
0.0
11
5395.7383
21
10428.073
31
0.0
0
LINE
8
0
10
5395.7383
20
10428.073
30
0.0
11
-4114.504
21
-10495.436
31
0.0
0
LINE
8
0
10
-4114.504
20
-10495.436
30
0.0
11
5192.8896
21
12217.851
31
0.0
0
LINE
8
0
10
5192.8896
20
12217.851
30
0.0
11
-3825.9634
21
-12397.394
31
0.0
0
LINE
8
0
10
-3825.9634
20
-12397.394
30
0.0
11
4808.4854
21
14236.051
31
0.0
0
LINE
8
0
10
4808.4854
20
14236.051
30
0.0
11
-3334.3499
21
-14535.8545
31
0.0
0
LINE
8
0
10
-3334.3499
20
-14535.8545
30
0.0
11
4197.7427
21
16498.516
31
0.0
0
LINE
8
0
10
4197.7427
20
16498.516
30
0.0
11
-2591.7056
21
-16925.809
31
0.0
0
LINE
8
0
10
-2591.7056
20
-16925.809
30
0.0
11
3308.684
21
19019.326
31
0.0
0
LINE
8
0
10
3308.684
20
19019.326
30
0.0
11
-1541.4043
21
-19580.338
31
0.0
0
LINE
8
0
10
-1541.4043
20
-19580.338
30
0.0
11
2080.8735
21
21810.055
31
0.0
0
LINE
8
0
10
2080.8735
20
21810.055
30
0.0
11
-118.709045
21
-22509.3
31
0.0
0
LINE
8
0
10
-118.709045
20
-22509.3
30
0.0
11
444.5786
21
24878.68
31
0.0
0
LINE
8
0
10
444.5786
20
24878.68
30
0.0
11
1751.1226
21
-25718.404
31
0.0
0
LINE
8
0
10
1751.1226
20
-25718.404
30
0.0
11
-1679.7739
21
28228.31
31
0.0
0
LINE
8
0
10
-1679.7739
20
28228.31
30
0.0
11
4153.5913
21
-29207.71
31
0.0
0
LINE
8
0
10
4153.5913
20
-29207.71
30
0.0
11
-4384.23
21
31855.543
31
0.0
0
LINE
8
0
10
-4384.23
20
31855.543
30
0.0
11
7185.95
21
-32969.945
31
0.0
0
ENDSEC
0
EOF
